<?xml version="1.0" encoding="utf-8"?>
<!-- Generator: Adobe Illustrator 24.2.3, SVG Export Plug-In . SVG Version: 6.00 Build 0)  -->
<svg version="1.1" id="Capa_1" xmlns="http://www.w3.org/2000/svg" xmlns:xlink="http://www.w3.org/1999/xlink" x="0px" y="0px"
	 viewBox="0 0 595.3 368.8" style="enable-background:new 0 0 595.3 368.8;" xml:space="preserve">
<style type="text/css">
	.st0{fill:#0066CC;}
	.st1{fill:none;}
	.st2{fill:#CC9933;}
	.st3{fill:#F2BA8B;}
	.st4{fill:#FBC69A;}
	.st5{fill:#D0D2D3;}
	.st6{fill:#F0F1F1;}
	.st7{fill:#221F1F;}
	.st8{fill:#403F41;}
</style>
<g>
	<path class="st0" d="M165.6,176.7c-6.5,4-8.7,8.3-17.7,11.2c-10.2,1.4-19.6-5.6-21-15.8c-1.4-9.9,5.3-19.1,15.1-20.9
		c0.2-0.1,0.4-0.1,0.7-0.1c6.2-0.9,12.3,3.2,20,5.1l-5.6-39.6L56.6,130.8l5.6,39.4c-7.5-1.9-13.5-5.8-19.6-5c-0.2,0-0.5,0.1-0.7,0.1
		c-9.8,1.8-16.5,10.9-15.1,20.9c1.4,10.2,10.8,17.2,21,15.8c8.8-2.9,11.1-7.1,17.3-11l5.7,40.3l39.9-5.6c-1.7,8.1-6.2,14.4-5.3,20.9
		c0,0.2,0.1,0.5,0.1,0.7c1.8,9.8,11,16.5,20.9,15.1c10.2-1.4,17.2-10.8,15.8-21c-3-9.4-7.5-11.3-11.7-18.5l40.8-5.8L165.6,176.7z"/>
	<path class="st1" d="M218.1,108.4c1.9-7.5,5.8-13.5,5-19.6c0-0.2-0.1-0.5-0.1-0.7c-1.8-9.8-11-16.5-20.9-15.1
		c-10.2,1.4-17.2,10.8-15.8,21c2.9,8.8,7.1,11.1,11,17.3L157,117l5.6,39.9c-8.1-1.7-14.4-6.2-20.9-5.3c-0.2,0-0.5,0.1-0.7,0.1
		c-9.8,1.8-16.5,10.9-15.1,20.9c1.4,10.2,10.8,17.2,21,15.8c9.4-3,11.3-7.5,18.5-11.7l5.8,40.8l40.4-5.7c-4-6.5-8.3-8.7-11.2-17.7
		c-1.4-10.2,5.6-19.6,15.8-21c9.9-1.4,19.1,5.3,20.9,15.1c0,0.2,0.1,0.5,0.1,0.7c0.9,6.2-3.2,12.3-5.1,20l39.6-5.6l-14.2-100.5
		L218.1,108.4z"/>
	<path class="st2" d="M195,246.6c-9.4,3-11.3,7.5-18.5,11.7l-5.7-40.8l-40.4,5.7c4,6.5,8.3,8.7,11.2,17.7c1.4,10.2-5.6,19.6-15.8,21
		c-9.9,1.4-19.1-5.3-20.9-15.1c0-0.2-0.1-0.5-0.1-0.7c-0.9-6.2,3.2-12.3,5.1-20l-39.6,5.6l14.2,100.5l39.4-5.6
		c-1.9,7.5-5.8,13.5-5,19.6c0,0.2,0.1,0.5,0.1,0.7c1.8,9.8,11,16.5,20.9,15.1c10.2-1.4,17.2-10.8,15.8-21c-2.9-8.8-7.1-11.1-11-17.3
		l40.2-5.7l-5.6-39.9c8.1,1.7,14.4,6.2,20.9,5.3c0.2,0,0.5-0.1,0.7-0.1c9.8-1.8,16.5-11,15.1-20.9
		C214.6,252.3,205.2,245.2,195,246.6z"/>
	<path class="st0" d="M294.9,232.3c-8.8,2.9-11.1,7-17.3,11l-5.7-40.3l-39.9,5.6c1.7-8.1,6.2-14.4,5.3-20.9c0-0.2-0.1-0.5-0.1-0.7
		c-1.8-9.8-11-16.5-20.9-15.1c-10.2,1.4-17.2,10.8-15.8,21c3,9.4,7.5,11.3,11.7,18.5l-40.8,5.8l5.7,40.4c6.5-4,8.7-8.3,17.7-11.2
		c10.2-1.4,19.6,5.6,21,15.8c1.4,9.9-5.3,19.1-15.1,20.9c-0.2,0.1-0.5,0.1-0.7,0.1c-6.2,0.9-12.3-3.2-20-5.1l5.6,39.6l100.5-14.2
		l-5.6-39.4c7.5,1.9,13.5,5.8,19.6,5c0.2,0,0.5-0.1,0.7-0.1c9.8-1.8,16.5-11,15.1-20.9C314.4,237.9,305,230.9,294.9,232.3z"/>
</g>
<g>
	<g>
		<path class="st3" d="M352.6,41.5l-20.9-23.1c0,0-2.7-5.9-14.4-4.6c-8.8,1-37.3,2.8-50.3,4.7c-6.4,0.9-7,0.2-13.4,10.4
			c-8.1,12.8-25.7,47-25.7,47s13.1,8.2,24-6.3c7.5-9.9,13-18.2,16.1-23.7c2.6-4.7,24.1,0,24.1,0s26.2-0.3,30.8,7.1
			c9.8,15.7,22.4,44.5,22.4,44.5C347.5,93.6,371.2,53.2,352.6,41.5z"/>
		<path class="st4" d="M356.3,31.8l-26.9-17.7c0,0-4.2-5.2-15.5-0.9c-8.5,3.3-36.6,12.4-49.1,17.6c-6.2,2.6-7,2-10.7,13.9
			c-4.8,14.9-13.6,53.6-13.6,53.6s15.2,4.9,22.4-12.5c4.9-11.8,8.4-21.5,10-27.8c1.4-5.3,24.1-6.2,24.1-6.2s7.7-0.5,14.2,5.6
			c13.8,13.1,7.4,35.1,7.4,35.1l44.9-2.9C364.6,85.1,377.8,38.7,356.3,31.8z"/>
	</g>
	<path class="st2" d="M279.8,41.6c0-0.2,0-0.5,0-0.7c-0.2-9.9-8.2-18-18.2-18.2c-10.3-0.2-18.7,8-18.9,18.2
		c1.4,9.2,5.2,12.1,8.1,18.9l-40.6-0.8l-0.8,40.3c-7.7-3-13.2-8.4-19.8-8.5c-0.2,0-0.5,0-0.7,0c-9.9,0.2-18,8.2-18.2,18.2
		c-0.2,10.3,8,18.7,18.2,18.9c9.7-1.5,12.4-5.6,20.1-8.6l-0.8,41.2l40.8,0.8c-2.9-7.1-6.8-9.9-8.3-19.2c0.2-10.3,8.7-18.4,18.9-18.2
		c10,0.2,18,8.3,18.2,18.2c0,0.2,0,0.5,0,0.7c-0.1,6.3-5.1,11.7-8.2,18.9l40,0.8l2-101.5l-39.8-0.8C274.8,53,279.7,47.7,279.8,41.6z
		"/>
	<g>
		<path class="st4" d="M387.8,41.6c-10.1-4.5-61.5-29.5-61.5-29.5l10.9,72.6c0,0-41.2,13.6-47.8,22.2c-6.7,8.6-9.7,21-6.6,21
			c3.1,0,56.5-12.5,72.6-13.5c9-0.6,41.4-2.7,41.4-2.7l23.4,7.5l16.6-51.8l-20.8-6.6C415.9,60.7,396.4,45.4,387.8,41.6z"/>
		<g>
			<polygon class="st5" points="405.3,129.1 424.2,135 449,61.5 430.2,55.6 			"/>
			<polygon class="st6" points="417.7,92.3 436.6,98.1 448.9,61.6 430.1,55.7 			"/>
			<polygon class="st7" points="446.6,56.7 419.5,137 595.7,193.6 595.7,104.6 			"/>
			<path class="st6" d="M440.2,127.6c-1.8-1.1-4.2-0.5-5.3,1.4c-1.1,1.8-0.5,4.2,1.4,5.3c1.8,1.1,4.2,0.5,5.3-1.4
				C442.6,131.1,442,128.7,440.2,127.6z"/>
			<path class="st6" d="M452.9,131.6c-1.8-1.1-4.2-0.5-5.3,1.4c-1.1,1.8-0.5,4.2,1.4,5.3c1.8,1.1,4.2,0.5,5.3-1.4
				C455.3,135,454.7,132.7,452.9,131.6z"/>
			<path class="st6" d="M465.5,135.5c-1.8-1.1-4.2-0.5-5.3,1.4c-1.1,1.8-0.5,4.2,1.4,5.3c1.8,1.1,4.2,0.5,5.3-1.4
				C468,139,467.4,136.6,465.5,135.5z"/>
			<polygon class="st8" points="446.6,56.7 433.1,96.9 595.7,149.1 595.7,104.6 			"/>
		</g>
	</g>
</g>
</svg>
