<?xml version="1.0" encoding="utf-8"?>
<!-- Generator: Adobe Illustrator 24.2.3, SVG Export Plug-In . SVG Version: 6.00 Build 0)  -->
<svg version="1.1" xmlns="http://www.w3.org/2000/svg" xmlns:xlink="http://www.w3.org/1999/xlink" x="0px" y="0px"
	 viewBox="0 0 220.3 280" style="enable-background:new 0 0 220.3 280;" xml:space="preserve">
<style type="text/css">
	.st0{display:none;}
</style>
<g id="Capa_1">
	<g>
		<path d="M102.1,51c5.4,5.7,9.9,10.3,14.8,15.5c0,0-46.9,46.7-68.6,68.3c-5.5,5.4-5.5,5.9,0.1,11.5c21.7,21.6,67.7,66.8,68.5,67.5
			c-5.4,5.3-10.3,10.1-15.4,15.2c-0.4-0.3-50.6-50.1-74.6-74c-10-10-10-19.1,0.1-29.2C51,102.1,102.1,51,102.1,51z"/>
		<path class="st0" d="M139,104c5.8-5.7,10.6-10.5,15.7-15.5c9.5,9.5,36.7,36.3,40.3,40.2c6.2,6.8,6.7,16.5,0.4,23
			c-13.3,13.7-27.1,26.9-41.1,40.6c-4.5-5.1-9-10.3-13.9-15.9c6.7-6.7,28.1-27.9,31.1-30.9c4.6-4.6,4.6-5.6,0.1-10.1
			C162.2,126,140.4,105,139,104z"/>
		<g>
			<path d="M200.8,113.5c0,10.5-2.9,18.5-8.8,24c-5.9,5.4-14.4,8.5-25.5,9.2l-0.8,24h-14.6l-1.3-37.4h11.4c4,0,7.3-0.4,10-1.3
				c2.7-0.8,4.8-2.1,6.4-3.6c1.6-1.6,2.8-3.5,3.5-5.7c0.7-2.2,1.1-4.8,1.1-7.6c0-4.8-1-9-2.9-12.7s-4.7-6.8-8.2-9.4
				s-7.7-4.5-12.5-5.8c-4.9-1.3-10.1-2-15.9-2h-2.4V70.1h2.6c6.6,0,12.6,0.6,18,1.9c5.4,1.2,10.3,2.9,14.6,5c4.3,2.1,8,4.6,11.1,7.5
				c3.2,2.9,5.8,5.9,7.9,9.1c2.1,3.2,3.7,6.5,4.7,9.9C200.3,106.9,200.8,110.2,200.8,113.5z M158.3,184.1c1.8,0,3.5,0.3,5.1,1
				s2.9,1.6,4.1,2.8c1.1,1.2,2,2.6,2.7,4.2c0.7,1.6,1,3.3,1,5s-0.3,3.4-1,5c-0.7,1.6-1.5,2.9-2.7,4.1c-1.1,1.1-2.5,2.1-4.1,2.7
				s-3.3,1-5.1,1c-1.8,0-3.4-0.3-5-1s-2.9-1.6-4.1-2.7c-1.2-1.1-2.1-2.5-2.7-4.1c-0.7-1.6-1-3.2-1-5s0.3-3.4,1-5
				c0.7-1.6,1.6-3,2.7-4.2s2.5-2.1,4.1-2.8S156.5,184.1,158.3,184.1z"/>
		</g>
	</g>
</g>
<g id="Capa_2">
</g>
</svg>
