<?xml version="1.0" encoding="utf-8"?>
<!-- Generator: Adobe Illustrator 24.2.3, SVG Export Plug-In . SVG Version: 6.00 Build 0)  -->
<svg version="1.1" id="Capa_1" xmlns="http://www.w3.org/2000/svg" xmlns:xlink="http://www.w3.org/1999/xlink" x="0px" y="0px"
	 viewBox="0 0 1000 280" style="enable-background:new 0 0 1000 280;" xml:space="preserve">
<style type="text/css">
	.st0{display:none;}
	.st1{display:inline;}
	.st2{display:none;enable-background:new    ;}
	.st3{font-family:'MontserratAlternates-SemiBold';}
	.st4{font-size:100px;}
	.st5{font-size:30px;}
</style>
<g>
	<path d="M327.4,159.8c0-16,12-27.3,28.4-27.3c16.6,0,28.5,11.3,28.5,27.3s-11.9,27.4-28.5,27.4
		C339.4,187.2,327.4,175.8,327.4,159.8z M371.7,159.8c0-10.2-6.8-16.7-15.9-16.7c-9,0-15.8,6.5-15.8,16.7s6.8,16.7,15.8,16.7
		C364.9,176.5,371.7,170,371.7,159.8z"/>
	<path d="M478.4,133.1v29.5c0,15.5-8.3,24.6-23.6,24.6c-7.7,0-13.8-2.3-17.7-8.3c-3.7,5.7-9.5,8.3-17.7,8.3
		c-15.4,0-23.5-9.1-23.5-24.6v-29.5h12.5v28.4c0,10,3.2,14.8,11.1,14.8c7.8,0,11.4-4.8,11.4-14.8v-28.4h12.5v28.4
		c0,10,3.6,14.8,11.4,14.8s11.1-4.8,11.1-14.8v-28.4H478.4z"/>
	<path d="M546.1,159.8c0-16,12-27.3,28.4-27.3c16.6,0,28.5,11.3,28.5,27.3s-11.9,27.4-28.5,27.4
		C558.1,187.2,546.1,175.8,546.1,159.8z M590.4,159.8c0-10.2-6.8-16.7-15.9-16.7c-9,0-15.8,6.5-15.8,16.7s6.8,16.7,15.8,16.7
		C583.6,176.5,590.4,170,590.4,159.8z"/>
	<path d="M710.2,160.1c0-16,12-27.3,28.9-27.3c10.4,0,18.7,4.3,22.8,12.4l-9.6,5.6c-3.2-5.1-8-7.4-13.3-7.4
		c-9.2,0-16.2,6.4-16.2,16.7c0,10.4,7,16.7,16.2,16.7c5.3,0,10.1-2.3,13.3-7.4l9.6,5.6c-4.1,8-12.4,12.5-22.8,12.5
		C722.2,187.5,710.2,176.1,710.2,160.1z"/>
	<path d="M767.5,160.1c0-16,12-27.3,28.9-27.3c10.4,0,18.7,4.3,22.8,12.4l-9.6,5.6c-3.2-5.1-8-7.4-13.3-7.4
		c-9.2,0-16.2,6.4-16.2,16.7c0,10.4,7,16.7,16.2,16.7c5.3,0,10.1-2.3,13.3-7.4l9.6,5.6c-4.1,8-12.4,12.5-22.8,12.5
		C779.5,187.5,767.5,176.1,767.5,160.1z"/>
	<path d="M869.1,171.1l6.6,7.7c-4.7,5.7-12.2,8.7-21.4,8.7c-17.9,0-29.5-11.5-29.5-27.4s11.6-27.3,27.5-27.3c14.9,0,26.9,10,27,26.7
		l-40.9,8c2.6,6.1,8.4,9.4,16.2,9.4C860.6,176.9,865.2,175,869.1,171.1z M836.9,159.4v0.1l30.2-5.8c-1.7-6.5-7.3-10.9-14.8-10.9
		C843.2,142.8,836.9,149.2,836.9,159.4z"/>
	<path d="M885.2,181.5l4.8-9.5c4.7,3.1,11.9,5.3,18.6,5.3c7.9,0,11.2-2.2,11.2-5.9c0-10.2-33-0.6-33-21.9c0-10.1,9.1-16.7,23.5-16.7
		c7.1,0,15.2,1.7,20,4.6l-4.8,9.5c-5.1-3-10.2-4-15.3-4c-7.6,0-11.2,2.5-11.2,6c0,10.8,33,1.2,33,22.1c0,10-9.2,16.5-24.2,16.5
		C898.9,187.5,890,184.9,885.2,181.5z"/>
	<path d="M936.7,181.5l4.8-9.5c4.7,3.1,11.9,5.3,18.6,5.3c7.9,0,11.2-2.2,11.2-5.9c0-10.2-33-0.6-33-21.9c0-10.1,9.1-16.7,23.5-16.7
		c7.1,0,15.2,1.7,20,4.6l-4.8,9.5c-5.1-3-10.2-4-15.3-4c-7.6,0-11.2,2.5-11.2,6c0,10.8,33,1.2,33,22.1c0,10-9.2,16.5-24.2,16.5
		C950.4,187.5,941.5,184.9,936.7,181.5z"/>
	<path d="M314.2,93.8v92.7H297v-39.7h-47.9v39.7h-17.2V93.8h17.2v38.3H297V93.8H314.2z"/>
	<path d="M552.9,116.9c-8.6-4.9-17.6-7.9-27.3-9v78.7h-17.2v-78.7c-9.7,1.1-18.8,4.1-27.4,9l-6-13.2c12.6-7.5,27.1-11.1,41.8-11.1
		s29.4,3.6,42,11.1L552.9,116.9z"/>
	<path d="M697.6,135.4v51.4h-17.2V163h-48.2v23.8h-16.9v-51.4c0-27.8,16.6-42.6,41.2-42.6C681.1,92.8,697.6,107.6,697.6,135.4z
		 M680.4,148.5v-14.7c0-17.6-9.4-26-24.1-26c-14.7,0-24.1,8.3-24.1,26v14.7H680.4z"/>
</g>
<g>
	<path d="M99,51c5.4,5.7,9.9,10.3,14.8,15.5c0,0-46.9,46.7-68.6,68.3c-5.5,5.4-5.5,5.9,0.1,11.5c21.7,21.6,67.7,66.8,68.5,67.5
		c-5.4,5.3-10.3,10.1-15.4,15.2c-0.4-0.3-50.6-50.1-74.6-74c-10-10-10-19.1,0.1-29.2C47.9,102.1,99,51,99,51z"/>
	<path class="st0" d="M135.9,104c5.8-5.7,10.6-10.5,15.7-15.5c9.5,9.5,36.7,36.3,40.3,40.2c6.2,6.8,6.7,16.5,0.4,23
		c-13.3,13.7-27.1,26.9-41.1,40.6c-4.5-5.1-9-10.3-13.9-15.9c6.7-6.7,28.1-27.9,31.1-30.9c4.6-4.6,4.6-5.6,0.1-10.1
		C159.1,126,137.3,105,135.9,104z"/>
	<g>
		<path d="M197.7,113.5c0,10.5-2.9,18.5-8.8,24c-5.9,5.4-14.4,8.5-25.5,9.2l-0.8,24H148l-1.3-37.4h11.4c4,0,7.3-0.4,10-1.3
			c2.7-0.8,4.8-2.1,6.4-3.6c1.6-1.6,2.8-3.5,3.5-5.7s1.1-4.8,1.1-7.6c0-4.8-1-9-2.9-12.7s-4.7-6.8-8.2-9.4s-7.7-4.5-12.5-5.8
			c-4.9-1.3-10.1-2-15.9-2h-2.4V70.1h2.6c6.6,0,12.6,0.6,18,1.9c5.4,1.2,10.3,2.9,14.6,5s8,4.6,11.1,7.5c3.2,2.9,5.8,5.9,7.9,9.1
			c2.1,3.2,3.7,6.5,4.7,9.9C197.2,106.9,197.7,110.2,197.7,113.5z M155.2,184.1c1.8,0,3.5,0.3,5.1,1s2.9,1.6,4.1,2.8
			c1.1,1.2,2,2.6,2.7,4.2c0.7,1.6,1,3.3,1,5s-0.3,3.4-1,5s-1.5,2.9-2.7,4.1c-1.1,1.1-2.5,2.1-4.1,2.7s-3.3,1-5.1,1s-3.4-0.3-5-1
			s-2.9-1.6-4.1-2.7c-1.2-1.1-2.1-2.5-2.7-4.1c-0.7-1.6-1-3.2-1-5s0.3-3.4,1-5s1.6-3,2.7-4.2s2.5-2.1,4.1-2.8
			S153.4,184.1,155.2,184.1z"/>
	</g>
</g>
<g class="st0">
	<g class="st1">
		<path d="M254.2,208v21h-4.7v-9h-13v9h-4.7v-21h4.7v8.7h13V208H254.2z"/>
		<path d="M259.9,218.5c0-6.2,5.8-10.8,13.6-10.8s13.6,4.6,13.6,10.8s-5.8,10.8-13.6,10.8S259.9,224.7,259.9,218.5z M282.3,218.5
			c0-4.3-3.8-7.4-8.9-7.4s-8.9,3.1-8.9,7.4c0,4.3,3.8,7.4,8.9,7.4C278.6,225.9,282.3,222.8,282.3,218.5z"/>
		<path d="M329,208v12.5c0,5.8-3.7,8.8-10.2,8.8c-3.7,0-6.4-1-8-2.6c-1.6,1.6-4.3,2.6-8,2.6c-6.5,0-10.3-3-10.3-8.8V208h4.7v12.4
			c0,3.9,2.1,5.5,5.6,5.5s5.7-1.6,5.7-5.5V208h4.7v12.4c0,3.9,2.2,5.5,5.7,5.5s5.6-1.6,5.6-5.5V208H329z"/>
	</g>
	<g class="st1">
		<path d="M360.5,213.2c-2.3-1.1-4.8-1.8-7.4-2V229h-4.7v-17.8c-2.6,0.2-5.1,0.9-7.5,2l-1.6-3c3.4-1.7,7.4-2.5,11.4-2.5
			s8,0.8,11.4,2.5L360.5,213.2z"/>
		<path d="M363.8,218.5c0-6.2,5.8-10.8,13.6-10.8s13.6,4.6,13.6,10.8s-5.8,10.8-13.6,10.8S363.8,224.7,363.8,218.5z M386.2,218.5
			c0-4.3-3.8-7.4-8.9-7.4s-8.9,3.1-8.9,7.4c0,4.3,3.8,7.4,8.9,7.4C382.4,225.9,386.2,222.8,386.2,218.5z"/>
	</g>
	<g class="st1">
		<path d="M427.7,223.3c0,3.6-3.4,5.7-9.9,5.7h-12.5v-21h11.8c6,0,9.3,2.1,9.3,5.5c0,2.2-1.3,3.8-3.2,4.6
			C425.8,218.8,427.7,220.6,427.7,223.3z M409.9,211.1v5.8h6.6c3.2,0,5.1-1,5.1-2.9c0-2-1.8-2.9-5.1-2.9L409.9,211.1L409.9,211.1z
			 M422.9,222.9c0-2.1-1.9-3-5.4-3h-7.6v6.1h7.6C421,226,422.9,225,422.9,222.9z"/>
		<path d="M453,227c-2.3,1.5-6,2.3-10.1,2.3c-7.5,0-11.3-2.6-11.3-6.1c0-2.4,1.8-4.1,4.2-4.9c-2-0.9-3.2-2.5-3.2-4.5
			c0-3.2,3.5-6.1,10.8-6.1c3.2,0,6.4,0.6,8.6,1.6l-1.3,3.1c-2.3-1-4.6-1.4-7.1-1.4c-4.2,0-6.2,1.3-6.2,3c0,1.8,1.5,2.8,4.5,2.8h6.7
			v3.2h-6.9c-3.3,0-5.4,0.9-5.4,2.9c0,1.9,2.1,3.1,6.8,3.1c3.2,0,6.3-0.8,8.4-2L453,227z"/>
	</g>
	<g class="st1">
		<path d="M490.5,217.4V229h-4.7v-5.4h-13.1v5.4h-4.6v-11.6c0-6.3,4.5-9.7,11.2-9.7S490.5,211.1,490.5,217.4z M485.8,220.3V217
			c0-4-2.6-5.9-6.6-5.9s-6.6,1.9-6.6,5.9v3.3H485.8z"/>
		<path d="M496,218.5c0-6.3,5.8-10.8,13.5-10.8c4.1,0,7.6,1.2,10,3.5l-3,2.4c-1.8-1.6-4.1-2.5-6.7-2.5c-5.2,0-9,3.1-9,7.4
			s3.8,7.4,9,7.4c2.6,0,4.9-0.8,6.7-2.5l3,2.4c-2.3,2.3-5.9,3.5-10,3.5C501.7,229.3,496,224.8,496,218.5z"/>
		<path d="M522.3,218.5c0-6.3,5.8-10.8,13.5-10.8c4.1,0,7.6,1.2,10,3.5l-3,2.4c-1.8-1.6-4.1-2.5-6.7-2.5c-5.2,0-9,3.1-9,7.4
			s3.8,7.4,9,7.4c2.6,0,4.9-0.8,6.7-2.5l3,2.4c-2.3,2.3-5.9,3.5-10,3.5C528.1,229.3,522.3,224.8,522.3,218.5z"/>
		<path d="M570.3,227c-2.3,1.5-6,2.3-10.1,2.3c-7.5,0-11.3-2.6-11.3-6.1c0-2.4,1.8-4.1,4.2-4.9c-2-0.9-3.2-2.5-3.2-4.5
			c0-3.2,3.5-6.1,10.8-6.1c3.2,0,6.4,0.6,8.6,1.6l-1.3,3.1c-2.3-1-4.6-1.4-7.1-1.4c-4.2,0-6.2,1.3-6.2,3c0,1.8,1.5,2.8,4.5,2.8h6.7
			v3.2H559c-3.3,0-5.4,0.9-5.4,2.9c0,1.9,2.1,3.1,6.8,3.1c3.2,0,6.3-0.8,8.4-2L570.3,227z"/>
		<path d="M572.8,226.8l1.6-3c2,1.4,5.2,2.3,8.3,2.3c3.9,0,5.6-1.2,5.6-2.7c0-4.5-15-1.6-15-9.4c0-3.4,3.2-6.3,10.2-6.3
			c3,0,6.2,0.7,8.4,1.9l-1.5,3c-2.3-1.1-4.8-1.6-6.9-1.6c-3.9,0-5.5,1.3-5.5,2.8c0,4.5,14.9,1.6,14.9,9.3c0,3.4-3.3,6.2-10.2,6.2
			C578.9,229.3,574.9,228.3,572.8,226.8z"/>
		<path d="M596.2,226.8l1.6-3c2,1.4,5.2,2.3,8.3,2.3c3.9,0,5.6-1.2,5.6-2.7c0-4.5-15-1.6-15-9.4c0-3.4,3.2-6.3,10.2-6.3
			c3,0,6.2,0.7,8.4,1.9l-1.5,3c-2.3-1.1-4.8-1.6-6.9-1.6c-3.9,0-5.5,1.3-5.5,2.8c0,4.5,14.9,1.6,14.9,9.3c0,3.4-3.3,6.2-10.2,6.2
			C602.2,229.3,598.3,228.3,596.2,226.8z"/>
		<path d="M629.1,211.3v14.5h4.6v3.3h-13.9v-3.3h4.6v-14.5h-4.6V208h13.9v3.3H629.1z"/>
		<path d="M661.7,223.3c0,3.6-3.4,5.7-9.9,5.7h-12.5v-21h11.8c6,0,9.3,2.1,9.3,5.5c0,2.2-1.3,3.8-3.2,4.6
			C659.9,218.8,661.7,220.6,661.7,223.3z M644,211.1v5.8h6.6c3.2,0,5.1-1,5.1-2.9c0-2-1.8-2.9-5.1-2.9L644,211.1L644,211.1z
			 M657,222.9c0-2.1-1.9-3-5.4-3H644v6.1h7.6C655.1,226,657,225,657,222.9z"/>
		<path d="M667.4,208h4.7v17.7h13.2v3.3h-17.9V208z"/>
		<path d="M709.2,227c-2.3,1.5-6,2.3-10.1,2.3c-7.5,0-11.3-2.6-11.3-6.1c0-2.4,1.8-4.1,4.2-4.9c-2-0.9-3.2-2.5-3.2-4.5
			c0-3.2,3.5-6.1,10.8-6.1c3.2,0,6.4,0.6,8.6,1.6l-1.3,3.1c-2.3-1-4.6-1.4-7.1-1.4c-4.2,0-6.2,1.3-6.2,3c0,1.8,1.5,2.8,4.5,2.8h6.7
			v3.2h-6.9c-3.3,0-5.4,0.9-5.4,2.9c0,1.9,2.1,3.1,6.8,3.1c3.2,0,6.3-0.8,8.4-2L709.2,227z"/>
	</g>
	<g class="st1">
		<path d="M733.9,211.4v14.5h4.6v3.3h-13.9v-3.3h4.6v-14.5h-4.6v-3.3h13.9v3.3H733.9z"/>
		<path d="M766.2,216.8v12.4h-4.7V217c0-3.8-2.4-5.6-6-5.6c-4,0-6.7,1.9-6.7,6v11.8h-4.7v-21h4.5v2.6c1.8-2,4.5-2.9,8-2.9
			C762.6,207.9,766.2,211,766.2,216.8z"/>
	</g>
	<g class="st1">
		<path d="M818,208v12.5c0,5.8-3.7,8.8-10.2,8.8c-3.7,0-6.4-1-8-2.6c-1.6,1.6-4.3,2.6-8,2.6c-6.5,0-10.3-3-10.3-8.8V208h4.7v12.4
			c0,3.9,2.1,5.5,5.6,5.5s5.7-1.6,5.7-5.5V208h4.7v12.4c0,3.9,2.2,5.5,5.7,5.5s5.6-1.6,5.6-5.5V208H818z"/>
		<path d="M844.9,227c-2.3,1.5-6,2.3-10.1,2.3c-7.5,0-11.3-2.6-11.3-6.1c0-2.4,1.8-4.1,4.2-4.9c-2-0.9-3.2-2.5-3.2-4.5
			c0-3.2,3.5-6.1,10.8-6.1c3.2,0,6.4,0.6,8.6,1.6l-1.3,3.1c-2.3-1-4.6-1.4-7.1-1.4c-4.2,0-6.2,1.3-6.2,3c0,1.8,1.5,2.8,4.5,2.8h6.7
			v3.2h-6.9c-3.3,0-5.4,0.9-5.4,2.9c0,1.9,2.1,3.1,6.8,3.1c3.2,0,6.3-0.8,8.4-2L844.9,227z"/>
		<path d="M872,223.3c0,3.6-3.4,5.7-9.9,5.7h-12.5v-21h11.8c6,0,9.3,2.1,9.3,5.5c0,2.2-1.3,3.8-3.2,4.6
			C870.1,218.8,872,220.6,872,223.3z M854.3,211.1v5.8h6.6c3.2,0,5.1-1,5.1-2.9c0-2-1.8-2.9-5.1-2.9L854.3,211.1L854.3,211.1z
			 M867.3,222.9c0-2.1-1.9-3-5.4-3h-7.6v6.1h7.6C865.3,226,867.3,225,867.3,222.9z"/>
		<path d="M875.6,226.8l1.6-3c2,1.4,5.2,2.3,8.3,2.3c3.9,0,5.6-1.2,5.6-2.7c0-4.5-15-1.6-15-9.4c0-3.4,3.2-6.3,10.2-6.3
			c3,0,6.2,0.7,8.4,1.9l-1.5,3c-2.3-1.1-4.8-1.6-6.9-1.6c-3.9,0-5.5,1.3-5.5,2.8c0,4.5,14.9,1.6,14.9,9.3c0,3.4-3.3,6.2-10.2,6.2
			C881.6,229.3,877.7,228.3,875.6,226.8z"/>
		<path d="M908.4,211.3v14.5h4.6v3.3h-13.9v-3.3h4.6v-14.5h-4.6V208H913v3.3H908.4z"/>
		<path d="M936.2,213.2c-2.3-1.1-4.8-1.8-7.4-2V229h-4.7v-17.8c-2.6,0.2-5.1,0.9-7.5,2l-1.6-3c3.4-1.7,7.4-2.5,11.4-2.5
			s8,0.8,11.4,2.5L936.2,213.2z"/>
		<path d="M960.9,227c-2.3,1.5-6,2.3-10.1,2.3c-7.5,0-11.3-2.6-11.3-6.1c0-2.4,1.8-4.1,4.2-4.9c-2-0.9-3.2-2.5-3.2-4.5
			c0-3.2,3.5-6.1,10.8-6.1c3.2,0,6.4,0.6,8.6,1.6l-1.3,3.1c-2.3-1-4.6-1.4-7.1-1.4c-4.2,0-6.2,1.3-6.2,3c0,1.8,1.5,2.8,4.5,2.8h6.7
			v3.2h-6.9c-3.3,0-5.4,0.9-5.4,2.9c0,1.9,2.1,3.1,6.8,3.1c3.2,0,6.3-0.8,8.4-2L960.9,227z"/>
		<path d="M963.4,226.8l1.6-3c2,1.4,5.2,2.3,8.3,2.3c3.9,0,5.6-1.2,5.6-2.7c0-4.5-15-1.6-15-9.4c0-3.4,3.2-6.3,10.2-6.3
			c3,0,6.2,0.7,8.4,1.9l-1.5,3c-2.3-1.1-4.8-1.6-6.9-1.6c-3.9,0-5.5,1.3-5.5,2.8c0,4.5,14.9,1.6,14.9,9.3c0,3.4-3.3,6.2-10.2,6.2
			C969.4,229.3,965.5,228.3,963.4,226.8z"/>
	</g>
</g>
<text transform="matrix(1 0 0 1 262.5278 186.9927)" class="st2 st3 st4">HowToAccess</text>
<text transform="matrix(1.2 0 0 1 231.8428 229.0186)" class="st2 st3 st5">HOW TO BE ACCESSIBLE IN WEBSITES</text>
</svg>
