<?xml version="1.0" encoding="utf-8"?>
<!-- Generator: Adobe Illustrator 24.2.3, SVG Export Plug-In . SVG Version: 6.00 Build 0)  -->
<svg version="1.1" id="Capa_1" xmlns="http://www.w3.org/2000/svg" xmlns:xlink="http://www.w3.org/1999/xlink" x="0px" y="0px"
	 viewBox="0 0 600 600" style="enable-background:new 0 0 600 600;" xml:space="preserve">
<style type="text/css">
	.st0{fill:#373737;}
	.st1{fill:#FDFDFD;}
	.st2{fill:#E5F0FE;}
	.st3{fill:#4C83C5;}
	.st4{fill:#66CC33;}
	.st5{fill:#CC3333;}
	.st6{fill:#FEDBD4;}
</style>
<g>
	<path class="st0" d="M21.8,93.4c0-17,0-33.9,0-50.9c0.2-6.8,3-12.2,8.1-16.7c4-3.6,8.7-4.3,13.6-5c113.2,0,226.4,0,339.7,0
		c8.3,0.1,14.3,4.2,18.9,10.8c3,4.3,3,9.2,3.1,14c0.2,11.2,0.1,22.4,0.1,33.7c0,99.8-0.1,199.5,0.1,299.3c0,10-3.5,17.5-11.8,23
		c-3.9,2.6-8.3,2.4-12.6,2.7c-3,0.3-6,0-9,0c-108.2,0-216.5,0-324.7,0c-8.1,0-15-1.9-20.6-8.4c-3.6-4.1-4.1-8.9-4.9-13.7
		c0-89.3,0-178.6,0-267.9c0.8-2.7,2-5.1,5.5-4.9c6.1-0.3,8.6,2.1,8.8,8.3c0.1,2.4,0,4.7,0,7.1c0,82.7,0.1,165.3-0.1,248
		c0,12.1,4.5,16.9,16.9,16.9c107-0.2,213.9-0.1,320.9-0.1c1.6,0,3.2,0,4.9-0.1c6.9-0.4,11.3-4.7,11.7-11.6c0.1-1.7,0.1-3.5,0.1-5.2
		c0-92.8,0-185.5,0-278.3c0-8.3,0-8.3-8.5-8.3c-112.3,0-224.6,0-337,0c-0.9,0-1.7,0-2.6,0c-5.6,0-5.6,0-6.4,5.7
		c-0.6,4.6-3.4,6.7-8.7,6.5C23.9,98.5,22.7,96.2,21.8,93.4z"/>
	<path class="st1" d="M43.5,20.8c-7,1.8-13.1,5-17.3,11.3c-2.2,3.2-3.2,6.9-4.4,10.5c0-6.6,0.1-13.2,0-19.8c0-1.6,0.3-1.9,1.9-1.9
		C30.3,20.9,36.9,20.8,43.5,20.8z"/>
	<path class="st1" d="M21.8,93.4c1.5,1.3,2.5,3.2,4.5,3.9c2.8,0.1,3.8,1.8,3.8,4.4c0,1.6,0,3.2,0,4.8c0,2.6-1.2,3.9-3.8,4
		c-2.1,0.6-3.1,2.5-4.5,3.9C21.8,107.4,21.8,100.4,21.8,93.4z"/>
	<path class="st2" d="M26.4,110.5c1.7-0.7,2.6-1.9,2.2-3.8c-0.7-3.1,1.9-7.1-2.2-9.4c6.2,0.1,8.4-1.9,8.1-8.2
		c-0.2-3.5,0.7-4.5,4.4-4.5c116.3,0.1,232.6,0.1,348.9,0c3.7,0,4.4,1,4.4,4.5c-0.1,95.5-0.1,191-0.1,286.5c0,11-4.7,15.6-15.7,15.6
		c-108.7,0-217.4,0-326.1,0c-11,0-15.7-4.7-15.7-15.6c0-85.7,0-171.3,0-257C34.6,112.3,32.5,110.2,26.4,110.5z"/>
	<path class="st3" d="M213.4,71.8c-58,0-116,0-173.9,0c-4.9,0-4.9,0-4.9-4.8c0-6.6,0-13.2,0-19.8C34.6,39,40,33.6,48.2,33.6
		c110.1,0,220.2,0,330.3,0c8.2,0,13.6,5.4,13.6,13.6c0.1,7.1-0.1,14.2,0.1,21.3c0.1,2.6-0.8,3.4-3.4,3.4c-13.7-0.1-27.4,0-41.1,0
		C302.9,71.8,258.1,71.8,213.4,71.8z"/>
	<path class="st0" d="M206.9,295.4c-0.4,43.2-34.4,76.8-77.6,76.5c-42.1-0.3-75.8-34.9-75.5-77.5c0.3-41.8,35.1-76.1,76.6-75.6
		C173.2,219.3,207.2,253.4,206.9,295.4z"/>
	<path class="st0" d="M296.5,218.9c43.5,0.6,77,34.8,76.4,78.1c-0.6,41.9-35.3,75.5-77.6,75c-41.9-0.5-75.9-35.1-75.5-76.7
		C220.3,252.5,254.7,218.3,296.5,218.9z"/>
	<path class="st0" d="M207,186.8c0-0.2,0-0.5,0-0.7c0-10.5,0-10.5,10.3-12.3c13.7-2.3,22.7-14,21.5-27.9
		c-1.1-12.8-12.6-23-25.7-22.8c-13.7,0.2-24.3,10.6-25.2,24.6c-0.3,4.7-2.8,7.4-6.8,7.2c-3.8-0.2-6-2.9-6-7.5
		c0.2-20.2,17.2-36.8,37.9-37.1c20.4-0.3,38,16.3,38.5,36.4c0.5,18.9-10.6,34-29,38.9c-2.2,0.6-3.1,1.5-2.9,3.8
		c0.2,1.7,0.1,3.5-0.3,5.2c-0.6,3.2-2.9,5-6.1,5c-3.2,0-5.5-1.7-6.1-5c-0.4-2.6-0.3-5.2-0.4-7.8C206.9,186.8,206.9,186.8,207,186.8z
		"/>
	<path class="st0" d="M219.8,218.3c0,3.9-2.7,6.8-6.3,6.8c-3.7,0-6.4-2.8-6.4-6.7c0-4,2.6-6.8,6.3-6.8
		C217.1,211.6,219.7,214.3,219.8,218.3z"/>
	<path class="st0" d="M353.8,59.1c-6.1,0-12.2,0.1-18.3,0c-4.4,0-6.9-2.3-7-6c-0.1-3.9,2.4-6.6,6.8-6.7c12.4-0.1,24.9-0.1,37.3,0
		c4,0,6.8,2.9,6.8,6.5c-0.1,3.5-2.9,6.2-7,6.2C366.2,59.1,360,59.1,353.8,59.1z"/>
	<path class="st0" d="M56.7,59.1c-6.2,0-9.4-2.2-9.3-6.4c0.1-4.1,3.3-6.3,9.2-6.3c1.2,0,2.5-0.1,3.7,0.1c3.7,0.4,6.4,3.3,6.2,6.7
		c-0.2,3.2-2.9,5.8-6.5,6C59,59.1,57.8,59.1,56.7,59.1z"/>
	<path class="st0" d="M120.6,59c-6.6,0.1-9.5-2.1-9.1-6.8c0.1-0.7,0.1-1.5,0.5-2.2c2.4-4.7,6.8-3.6,10.8-3.7
		c3.3-0.1,5.9,1.1,7.1,4.3c1.5,3.7-0.9,7.8-4.9,8.4C123.6,59.2,122.1,59,120.6,59z"/>
	<path class="st0" d="M88.7,59.1c-0.5,0-1,0-1.5,0c-5.2-0.1-7.8-2.2-7.8-6.4c0-4,2.9-6.3,7.9-6.4c1.4,0,2.7,0,4.1,0
		c4.4,0.2,6.9,2.7,6.8,6.7c-0.1,3.7-2.6,5.9-7,6C90.4,59.1,89.6,59.1,88.7,59.1z"/>
	<path class="st4" d="M194.1,295.4c-0.1,35.8-28.6,64-64.4,63.8c-35.2-0.2-63.2-28.8-63.1-64.3c0.1-35.3,28.9-63.5,64.6-63.2
		C166,231.9,194.3,260.5,194.1,295.4z"/>
	<path class="st5" d="M232.7,295.5c-0.2-34.9,28-63.6,62.8-63.8c35.8-0.2,64.5,27.7,64.7,63c0.2,35.7-27.9,64.3-63.3,64.4
		C261.2,359.3,232.9,331.2,232.7,295.5z"/>
	<path class="st0" d="M162.3,269.8c-0.1,2-1,3.5-2.1,4.9c-12.3,16.3-24.5,32.7-36.8,49c-3.4,4.5-7.2,4.8-11.3,0.8
		c-3.7-3.7-7.4-7.4-11.1-11.1c-3.1-3.2-3.3-6.9-0.6-9.6c2.6-2.7,6.4-2.5,9.6,0.6c1.5,1.5,3.1,2.9,4.5,4.5c1.8,2.1,2.9,1.9,4.5-0.3
		c8.2-11.1,16.5-22.2,24.8-33.2c2.4-3.2,4.7-6.4,7.2-9.5c1.9-2.3,4.5-3.1,7.4-1.8C161,265.2,162.1,267.3,162.3,269.8z"/>
	<path class="st0" d="M270.6,327.3c-2.4-0.2-4.3-1.3-5.5-3.7c-1.4-2.9-0.6-5.4,1.5-7.5c4.5-4.6,9.2-9.2,13.7-13.8
		c2.2-2.2,5.9-4.1,6-6.8c0.1-3-3.8-4.8-6.1-7.1c-4.2-4.4-8.6-8.6-12.9-13c-3.4-3.5-3.7-7.1-1-9.9c2.9-3,6.5-2.7,10.1,0.9
		c5.9,5.8,11.7,11.5,17.4,17.5c2,2.1,3.2,1.9,5-0.1c5.9-6.1,11.9-12,18-18c2.4-2.3,5.1-3.1,8.1-1.3c2.8,1.6,3.3,4.2,2.8,7.1
		c-0.3,1.7-1.6,2.8-2.7,3.9c-5.8,5.8-11.6,11.7-17.5,17.4c-1.9,1.8-1.8,2.9,0,4.7c5.8,5.6,11.5,11.4,17.2,17.2
		c1.4,1.4,2.8,2.8,3.1,5c0.3,2.9-0.6,5.3-3.2,6.6c-2.9,1.4-5.6,0.9-7.9-1.4c-6-6-12.1-11.9-17.9-18c-2.1-2.2-3.2-2.1-5.3,0
		c-5.7,6-11.6,11.7-17.4,17.5C274.7,326.1,273.1,327.2,270.6,327.3z"/>
</g>
<g>
	<path d="M412.3,384.5c6.8,12.6,7.8,13.9,14.4,26.6c1.2,2.3,1.9,2.5,4.2,1.1c7.5-4.4,15.7-5.6,24.1-3.2c1.7,0.5,2.8,0.5,4.4-0.7
		c8.9-6.8,18.8-8.8,29.6-5.5c2,0.6,3.3,0.3,5-0.9c13.9-10.4,35.8-6.3,46.1,8.4c3.2,4.6,5.5,9.8,8,14.8c5.4,10.8,10.6,21.8,16.1,32.5
		c6.3,12.2,8.4,25.4,10.4,38.7c1.6,10.6,2.7,21.2,5.7,31.5c0.8,2.6,1.8,5.2,2.7,7.7c1.6,4.7,0.3,8-4.1,10.2
		c-11.8,5.9-23.7,11.7-35.6,17.6c-19.8,9.8-39.6,19.5-59.4,29.3c-6.3,3.1-9.6,2-12.8-4.1c-4.8-9.4-11.7-16.6-21.4-21
		c-11.5-5.2-22.8-10.5-32.8-18.4c-17.2-13.6-21.5-32-20.5-52.6c0.3-5.5,3-10.2,6.6-14.4c1.1-1.3,1.4-2.3,0.6-3.9
		c-12.1-24.5-23.9-48.4-36-72.9c-6.6-14.8-15.1-32.7,5.2-42.7C395.7,351.4,404,369.9,412.3,384.5z"/>
	<path class="st6" d="M412.4,496.1c2.7,5.4,5.3,10.7,7.9,16c0.7,1.4,1.4,3,2.3,4.3c2.4,3.4,6.6,4.2,9.9,2.2c3.3-1.9,4.5-5.7,2.9-9.4
		c-0.5-1.3-1.2-2.5-1.8-3.7c-18.5-37.5-37-74.9-55.5-112.4c-0.8-1.7-1.6-3.4-2.1-5.2c-1.3-4.7,0.7-9.5,4.7-11.5
		c4-2.1,9.4-0.7,12.3,3.3c1.4,1.9,2.5,4,3.6,6.1c11.3,21.7,22.6,43.3,33.9,65c1.8,3.5,4.3,5.5,8.3,5c5.1-0.6,7.8-6.1,5.4-11.2
		c-2.4-4.9-5-9.8-7.7-14.5c-1.2-2.1-0.8-3.2,1.1-4.6c6.9-5.1,16.8-3.2,21.1,4.1c2.6,4.4,6.7,5.8,10.7,3.5c3.8-2.2,5-6.5,2.4-10.7
		c-2-3.2-1.2-4.3,2.1-5.4c7.6-2.5,14.1-0.4,18.4,6.3c2.5,4,6.5,5.1,10.2,3.1c3.6-2,5.1-6.5,2.7-10.3c-2.1-3.2-0.3-3.7,2-4.5
		c8.2-2.6,17.7,0.7,22,9.1c8.9,17.4,18.5,34.6,25.5,52.8c4.2,10.8,4.7,22.6,6.5,34c1.3,8.4,2.4,16.8,5,24.8c0.6,2,0,2.8-1.8,3.7
		c-26.7,13.1-53.5,26.3-80.2,39.6c-1.8,0.9-2.8,0.9-3.9-1c-5.9-9.6-14.4-16.4-24.6-21c-10.9-5-21.8-9.9-31-17.7
		c-11.7-9.9-13.7-23.3-13.6-37.5c0-0.6,0.3-1.2,0.5-1.8C411.7,496.7,411.9,496.6,412.4,496.1z"/>
</g>
</svg>
