<?xml version="1.0" encoding="utf-8"?>
<!-- Generator: Adobe Illustrator 24.2.3, SVG Export Plug-In . SVG Version: 6.00 Build 0)  -->
<svg version="1.1" id="Capa_1" xmlns="http://www.w3.org/2000/svg" xmlns:xlink="http://www.w3.org/1999/xlink" x="0px" y="0px"
	 viewBox="0 0 203.1 365.1" style="enable-background:new 0 0 203.1 365.1;" xml:space="preserve">
<style type="text/css">
	.st0{fill:#999999;}
</style>
<image style="display:none;overflow:visible;" width="595" height="376" xlink:href="form-usage.png"  transform="matrix(1 0 0 1 -180.5495 -57.3187)">
</image>
<g>
	<path class="st0" d="M195.4,32.2H50.4c-2.5,0-4.5-2-4.5-4.5v0c0-2.5,2-4.5,4.5-4.5h145.1c2.5,0,4.5,2,4.5,4.5v0
		C199.9,30.2,197.9,32.2,195.4,32.2z"/>
	<g>
		<path d="M3.6,36.7V18.8h3.7v7h7.3v-7h3.7v17.9h-3.7v-7.8H7.3v7.8H3.6z"/>
		<path d="M31.6,36.7h-3.5V23.7c-1.3,1.2-2.8,2-4.5,2.6v-3.1c1-0.3,2-0.9,3-1.7c1-0.8,1.8-1.8,2.2-2.8h2.8V36.7z"/>
	</g>
</g>
<g>
	<path class="st0" d="M195.4,66H72.5c-2.5,0-4.5-2-4.5-4.5v0c0-2.5,2-4.5,4.5-4.5h122.9c2.5,0,4.5,2,4.5,4.5v0
		C199.9,64,197.9,66,195.4,66z"/>
	<path class="st0" d="M195.4,90.1H72.5c-2.5,0-4.5-2-4.5-4.5v0c0-2.5,2-4.5,4.5-4.5h122.9c2.5,0,4.5,2,4.5,4.5v0
		C199.9,88.1,197.9,90.1,195.4,90.1z"/>
	<g>
		<path d="M30.5,70.5V52.6h3.7v7h7.3v-7h3.7v17.9h-3.7v-7.8h-7.3v7.8H30.5z"/>
		<path d="M61.3,67.3v3.2H49c0.1-1.2,0.5-2.3,1.2-3.4s2-2.5,3.9-4.3c1.5-1.4,2.5-2.4,2.9-2.9c0.5-0.7,0.8-1.5,0.8-2.2
			c0-0.8-0.2-1.4-0.7-1.8s-1-0.6-1.7-0.6c-1.6,0-2.4,0.9-2.5,2.8l-3.5-0.3c0.2-1.8,0.8-3.2,1.9-4s2.5-1.3,4.2-1.3
			c1.9,0,3.4,0.5,4.3,1.5s1.5,2.1,1.5,3.4c0,0.7-0.1,1.4-0.4,2.1c-0.2,0.7-0.6,1.4-1.2,2.1c-0.5,0.7-1.4,1.6-2.6,2.7
			c-1.1,1-1.8,1.7-2.1,2s-0.5,0.6-0.7,1H61.3z"/>
	</g>
</g>
<g>
	<path class="st0" d="M195.4,122.1h-93.5c-2.5,0-4.5-2-4.5-4.5v0c0-2.5,2-4.5,4.5-4.5h93.5c2.5,0,4.5,2,4.5,4.5v0
		C199.9,120.1,197.9,122.1,195.4,122.1z"/>
	<path class="st0" d="M195.4,146.2h-93.5c-2.5,0-4.5-2-4.5-4.5v0c0-2.5,2-4.5,4.5-4.5h93.5c2.5,0,4.5,2,4.5,4.5v0
		C199.9,144.2,197.9,146.2,195.4,146.2z"/>
	<g>
		<path d="M56.3,126.9V109H60v7h7.3v-7H71v17.9h-3.7v-7.8H60v7.8H56.3z"/>
		<path d="M75.2,122.2l3.4-0.4c0.1,0.8,0.4,1.5,0.9,1.9c0.5,0.4,1.1,0.7,1.7,0.7c0.7,0,1.3-0.3,1.8-0.8c0.5-0.5,0.8-1.3,0.8-2.2
			c0-0.9-0.2-1.6-0.7-2.1c-0.5-0.5-1.1-0.7-1.7-0.7c-0.4,0-1,0.1-1.6,0.3l0.4-2.8c0.9,0,1.6-0.2,2.2-0.6c0.5-0.4,0.8-1,0.8-1.7
			c0-0.6-0.2-1.1-0.6-1.4c-0.4-0.3-0.9-0.5-1.5-0.5s-1.1,0.2-1.5,0.6c-0.4,0.4-0.7,1-0.8,1.8l-3.3-0.5c0.3-1.6,1-2.8,2-3.6
			c1-0.7,2.2-1.1,3.7-1.1c1.7,0,3,0.5,4,1.4c1,1,1.5,2,1.5,3.2c0,0.8-0.2,1.5-0.7,2.1s-1.1,1.2-2,1.6c1,0.2,1.9,0.7,2.5,1.5
			c0.6,0.7,1,1.7,1,2.8c0,1.6-0.6,3-1.8,4.1s-2.7,1.6-4.3,1.6c-1.6,0-3-0.5-4.1-1.4C76,125,75.3,123.7,75.2,122.2z"/>
	</g>
</g>
<path class="st0" d="M195.4,178.3h-72.3c-2.5,0-4.5-2-4.5-4.5v0c0-2.5,2-4.5,4.5-4.5h72.3c2.5,0,4.5,2,4.5,4.5v0
	C199.9,176.3,197.9,178.3,195.4,178.3z"/>
<path class="st0" d="M195.4,202.4h-72.3c-2.5,0-4.5-2-4.5-4.5v0c0-2.5,2-4.5,4.5-4.5h72.3c2.5,0,4.5,2,4.5,4.5v0
	C199.9,200.3,197.9,202.4,195.4,202.4z"/>
<g>
	<path d="M80.7,182.1v-17.9h3.7v7h7.3v-7h3.7v17.9h-3.7v-7.8h-7.3v7.8H80.7z"/>
	<path d="M106.6,182.1v-3.6h-7.5v-3l8-11.4h3v11.3h2.3v3H110v3.6H106.6z M106.6,175.5v-6.1l-4.2,6.1H106.6z"/>
</g>
<path class="st0" d="M195.4,232.4h-72.3c-2.5,0-4.5-2-4.5-4.5v0c0-2.5,2-4.5,4.5-4.5h72.3c2.5,0,4.5,2,4.5,4.5v0
	C199.9,230.4,197.9,232.4,195.4,232.4z"/>
<path class="st0" d="M195.4,256.5h-72.3c-2.5,0-4.5-2-4.5-4.5v0c0-2.5,2-4.5,4.5-4.5h72.3c2.5,0,4.5,2,4.5,4.5v0
	C199.9,254.5,197.9,256.5,195.4,256.5z"/>
<g>
	<path d="M80.8,236.7v-17.9h3.7v7h7.3v-7h3.7v17.9h-3.7v-7.8h-7.3v7.8H80.8z"/>
	<path d="M99.8,232.1l3.5-0.4c0.1,0.8,0.4,1.4,0.9,1.8s1.1,0.7,1.7,0.7c0.7,0,1.3-0.3,1.9-0.9c0.5-0.6,0.8-1.5,0.8-2.6
		c0-1.1-0.3-1.9-0.8-2.5c-0.5-0.5-1.2-0.8-2-0.8c-1,0-1.9,0.4-2.7,1.3l-2.9-0.4l1.8-9.3h9.3v3.2h-6.6l-0.6,3
		c0.8-0.4,1.6-0.6,2.4-0.6c1.4,0,2.7,0.5,3.7,1.4c1.3,1.2,1.9,2.7,1.9,4.6c0,1.6-0.5,3-1.6,4.3c-1.1,1.3-2.6,2-4.6,2
		c-1.6,0-3-0.4-4.1-1.3C100.7,234.9,100,233.7,99.8,232.1z"/>
</g>
<path class="st0" d="M195.4,280.3h-72.3c-2.5,0-4.5-2-4.5-4.5v0c0-2.5,2-4.5,4.5-4.5h72.3c2.5,0,4.5,2,4.5,4.5v0
	C199.9,278.3,197.9,280.3,195.4,280.3z"/>
<path class="st0" d="M195.4,305.1h-72.3c-2.5,0-4.5-2-4.5-4.5v0c0-2.5,2-4.5,4.5-4.5h72.3c2.5,0,4.5,2,4.5,4.5v0
	C199.9,303.1,197.9,305.1,195.4,305.1z"/>
<g>
	<path d="M80.8,309.4v-17.9h3.7v7h7.3v-7h3.7v17.9h-3.7v-7.8h-7.3v7.8H80.8z"/>
	<path d="M111.7,295.9l-3.4,0.4c-0.2-1.3-0.8-2-2-2c-0.8,0-1.4,0.3-1.9,1s-0.8,2-1,4c0.4-0.5,0.9-0.9,1.5-1.1s1.1-0.4,1.8-0.4
		c1.4,0,2.7,0.5,3.8,1.6c1.1,1.1,1.6,2.5,1.6,4.3c0,1.9-0.6,3.4-1.7,4.4s-2.5,1.6-4.2,1.6c-1.8,0-3.4-0.7-4.6-2.1s-1.8-3.7-1.8-6.9
		c0-3.3,0.6-5.6,1.9-7.1s2.9-2.2,4.8-2.2c1.4,0,2.5,0.4,3.4,1.1C110.9,293.3,111.5,294.4,111.7,295.9z M103.8,303.4
		c0,1.1,0.3,2,0.8,2.6s1.1,0.9,1.8,0.9c0.7,0,1.2-0.2,1.6-0.7s0.7-1.3,0.7-2.4c0-1.2-0.2-2-0.7-2.6c-0.5-0.5-1.1-0.8-1.7-0.8
		c-0.7,0-1.2,0.3-1.7,0.8S103.8,302.4,103.8,303.4z"/>
</g>
<path class="st0" d="M195.4,329.1h-72.3c-2.5,0-4.5-2-4.5-4.5v0c0-2.5,2-4.5,4.5-4.5h72.3c2.5,0,4.5,2,4.5,4.5v0
	C199.9,327.1,197.9,329.1,195.4,329.1z"/>
<path class="st0" d="M195.4,352.9h-72.3c-2.5,0-4.5-2-4.5-4.5v0c0-2.5,2-4.5,4.5-4.5h72.3c2.5,0,4.5,2,4.5,4.5v0
	C199.9,350.9,197.9,352.9,195.4,352.9z"/>
</svg>
