<?xml version="1.0" encoding="utf-8"?>
<!-- Generator: Adobe Illustrator 24.2.3, SVG Export Plug-In . SVG Version: 6.00 Build 0)  -->
<svg version="1.1" id="Capa_1" xmlns="http://www.w3.org/2000/svg" xmlns:xlink="http://www.w3.org/1999/xlink" x="0px" y="0px"
	 viewBox="0 0 1027.3 534.9" style="enable-background:new 0 0 1027.3 534.9;" xml:space="preserve">
<style type="text/css">
	.st0{fill:#333333;}
	.st1{fill:#CCCCCC;}
	.st2{fill:none;stroke:#58595B;stroke-width:0.75;stroke-miterlimit:10;}
	.st3{display:none;fill:#FFFFFF;stroke:#58595B;stroke-width:0.75;stroke-miterlimit:10;}
	.st4{fill:#FFFFFF;}
</style>
<g>
	<g>
		<g transform="translate(0.000000,511.000000) scale(0.100000,-0.100000)">
			<path class="st0" d="M277.2,4956.5c-151.7-85.4-144.9,49.1-138-2549.8C146.1,49.1,146.1,47,194.4-12.8
				c25.3-32,73.6-72.6,103.5-85.4c80.5-40.6,9594.7-38.4,9677.4,0c29.9,15,80.5,59.8,108.1,98.3l52.9,72.6v2357.5
				c0,2603.2,9.2,2440.9-144.9,2526.3c-71.3,42.7-154.1,42.7-4855.9,42.7C378.4,4999.2,353.1,4999.2,277.2,4956.5z M9968.3,4845.4
				l52.9-44.8V2436.6V72.7l-59.8-51.3l-59.8-51.3H5135.3H369l-59.8,51.3l-59.8,51.3v2361.8v2359.7l50.6,49.1l48.3,49.1H5133h4782.4
				L9968.3,4845.4z"/>
			<path class="st1" d="M644.7,4462.3c-40.6-38.3-49.6-72.1-49.6-180.3c0-114.9,6.8-137.4,58.6-178c54.1-42.8,90.1-47.3,340.2-47.3
				c265.9,0,281.7,2.3,333.5,56.3c45.1,42.8,56.3,76.6,56.3,169c0,92.4-11.3,126.2-56.3,169c-51.8,54.1-65.3,56.3-344.7,56.3
				C723.6,4507.3,689.8,4502.8,644.7,4462.3z M1266.6,4288.8l-6.8-108.2H978.2H696.5l-6.8,74.4c-13.5,137.5-11.3,139.7,299.7,139.7
				h283.9L1266.6,4288.8z"/>
			<path class="st1" d="M1564,4462.3c-36.1-36.1-45.1-74.4-45.1-178c0-117.2,6.8-139.7,58.6-180.3c54.1-42.8,90.1-47.3,340.2-47.3
				c265.9,0,281.7,2.3,333.5,56.3c45.1,42.8,56.3,76.6,56.3,169c0,92.4-11.3,126.2-56.3,169c-51.8,54.1-65.3,56.3-349.3,56.3
				C1638.4,4507.3,1604.6,4502.8,1564,4462.3z M2190.4,4288.8l-6.8-108.2h-281.7h-281.7l-6.8,74.4
				c-13.5,137.5-11.3,139.7,299.7,139.7H2197L2190.4,4288.8z"/>
			<path class="st1" d="M2487.8,4462.3c-36.1-36.1-45.1-74.4-45.1-178c0-117.2,6.8-139.7,58.6-180.3c54.1-42.8,90.1-47.3,335.7-47.3
				c342.5,0,374,18,389.8,209.6c9,112.7,4.5,130.7-47.3,182.5c-56.3,56.3-67.6,58.6-353.8,58.6
				C2562.2,4507.3,2528.4,4502.8,2487.8,4462.3z M3114.2,4288.8l-6.8-108.2h-281.7H2544l-6.8,74.4
				c-13.5,137.5-11.3,139.7,299.7,139.7h283.9L3114.2,4288.8z"/>
			<path class="st1" d="M3413.9,4464.5c-99.1-99.1-76.6-331.2,33.8-383.1c31.5-13.5,171.3-24.8,322.2-24.8
				c331.2,0,365,18,380.8,209.6c9,112.7,4.5,130.7-47.3,182.5c-56.3,56.3-67.6,58.6-353.8,58.6
				C3490.5,4507.3,3452.2,4502.8,3413.9,4464.5z M4031.3,4282v-101.4h-281.7h-281.7l-6.8,74.4c-13.5,139.7-11.3,142,292.9,135.2
				l277.1-6.8V4282H4031.3z"/>
			<path class="st1" d="M4335.5,4462.3c-85.6-85.6-85.6-274.9,2.3-362.8c38.3-38.3,76.6-42.8,335.7-42.8c261.4,0,297.4,4.5,338,45.1
				c56.3,56.3,76.6,137.4,60.8,243.3c-24.8,144.2-69.9,162.2-401.1,162.2C4412.1,4507.3,4376.1,4502.8,4335.5,4462.3z M4955.1,4282
				v-101.4h-281.7h-281.7l-6.8,74.4c-13.5,139.7-11.3,142,292.9,135.2l277.1-6.8V4282H4955.1z"/>
			<path class="st1" d="M5286.4,4491.6c-42.8-15.8-94.6-130.7-94.6-209.6c0-83.4,51.8-191.5,101.4-211.8
				c20.3-6.8,164.5-13.5,317.7-13.5c247.9,0,283.9,4.5,324.5,45.1c56.3,56.3,76.6,137.4,60.8,243.3
				c-24.8,144.2-69.8,162.2-396.6,160C5444.1,4505.1,5302.1,4498.3,5286.4,4491.6z M5879,4282v-101.4h-281.7h-281.7l-6.8,74.4
				c-13.5,139.7-11.3,142,292.9,135.2l277.1-6.8V4282H5879z"/>
			<path class="st1" d="M6185.4,4469c-90.1-74.4-90.1-279.4-2.3-367.3c40.5-40.6,76.6-45.1,333.5-45.1c259.1,0,292.9,4.5,338,45.1
				c60.8,56.3,81.1,135.2,65.4,243.3c-24.8,144.2-69.9,162.2-398.8,162.2C6280,4507.3,6226,4500.6,6185.4,4469z M6802.8,4282v-101.4
				h-281.7h-281.7l-6.8,74.4c-13.5,139.7-11.3,142,292.9,135.2l277.1-6.8V4282H6802.8z"/>
			<path class="st1" d="M7104.7,4464.5c-47.3-36.1-54.1-63.1-54.1-182.5c0-209.5,29.3-225.3,392.1-225.3
				c295.2,2.3,331.2,11.3,380.8,105.9c56.3,101.4,11.3,297.4-74.4,331.2c-20.3,6.8-162.2,13.5-315.4,13.5
				C7194.9,4507.3,7149.8,4500.6,7104.7,4464.5z M7726.6,4282v-101.4h-281.7h-281.6l-6.8,74.4c-13.5,139.7-11.3,142,292.9,135.2
				l277.1-6.8L7726.6,4282L7726.6,4282z"/>
			<path class="st1" d="M8028.6,4464.5c-47.3-36.1-54.1-63.1-54.1-182.5c0-207.3,31.6-225.3,374-225.3c151,0,290.7,11.3,322.2,24.8
				c110.4,51.8,132.9,283.9,33.8,383.1c-38.3,38.3-76.6,42.8-333.5,42.8C8118.7,4507.3,8073.6,4500.6,8028.6,4464.5z M8650.5,4282
				v-101.4h-281.7h-281.7l-6.8,74.4c-13.5,139.7-11.3,142,292.9,135.2l277.1-6.8V4282H8650.5z"/>
			<path class="st1" d="M8943.4,4451c-45.1-42.8-56.3-76.6-56.3-169c0-92.4,11.3-126.2,56.3-169c51.8-54.1,67.6-56.3,324.5-56.3
				c155.5,0,295.2,11.3,326.7,24.8c110.4,51.8,132.9,283.9,33.8,383.1c-38.3,38.3-76.6,42.8-335.7,42.8
				C9008.7,4507.3,8995.2,4505.1,8943.4,4451z M9574.3,4282v-101.4h-281.7h-281.7l-6.8,108.2l-6.7,108.2l288.4-6.8l288.4-6.8
				L9574.3,4282L9574.3,4282z"/>
			<path class="st1" d="M633.4,3881c-31.6-33.8-38.3-94.6-38.3-349.3c0-304.2,0-306.4,58.6-351.5c54.1-42.8,90.1-47.3,340.2-47.3
				c265.9,0,281.7,2.3,333.5,56.3c54.1,51.8,56.3,67.6,56.3,333.5c0,250.1-4.5,286.2-47.3,340.2c-45.1,58.6-47.3,58.6-356,58.6
				C707.8,3921.5,665,3917,633.4,3881z M1259.8,3538.5v-281.7H978.2H696.5l-6.8,256.9c-4.5,171.2,2.2,265.9,20.3,286.2
				c20.3,27,83.4,31.5,288.4,27l261.4-6.8V3538.5z"/>
			<path class="st1" d="M1557.3,3881c-31.6-33.8-38.3-94.6-38.3-349.3c0-304.2,0-306.4,58.6-351.5c54.1-42.8,90.1-47.3,340.2-47.3
				c265.9,0,281.7,2.3,333.5,56.3c54.1,51.8,56.3,67.6,56.3,333.5c0,250.1-4.5,286.2-47.3,340.2c-45.1,58.6-47.3,58.6-356,58.6
				C1631.6,3921.5,1588.8,3917,1557.3,3881z M2183.7,3538.5v-281.7H1902h-281.7l-6.8,256.9c-4.5,171.2,2.2,265.9,20.3,286.2
				c20.3,27,83.4,31.5,288.4,27l261.4-6.8L2183.7,3538.5L2183.7,3538.5z"/>
			<path class="st1" d="M2476.6,3876.4c-33.8-36.1-38.3-87.9-38.3-342.5c0-295.2,2.3-299.7,60.8-349.3
				c54.1-47.3,81.1-51.8,335.7-51.8c387.6,0,383.1-4.5,392.1,376.3c6.8,268.1,4.5,292.9-40.6,351.5l-47.3,60.8h-310.9
				C2548.7,3921.5,2512.6,3917,2476.6,3876.4z M3107.5,3538.5v-281.7h-281.7h-281.7l-6.8,268.1c-4.5,200.5,2.2,274.9,22.5,288.4
				c15.8,9,146.5,15.8,288.4,13.5l259.1-6.8v-281.5H3107.5z"/>
			<path class="st1" d="M3398.2,3874.2c-36.1-38.3-45.1-90.1-49.6-286.2c-11.3-279.4,15.8-392.1,96.9-428.1
				c33.8-15.8,171.3-27,324.5-27c374,0,371.8-2.3,380.8,376.3c6.8,268.1,4.5,292.9-40.6,351.5l-47.3,60.8H3752
				C3465.8,3921.5,3438.7,3917,3398.2,3874.2z M4031.3,3538.5v-281.7h-281.7h-281.7l-6.8,268.1c-4.5,200.5,2.2,274.9,22.5,288.4
				c15.8,9,146.5,15.8,288.4,13.5l259.1-6.8v-281.5H4031.3z"/>
			<path class="st1" d="M4322,3874.2c-36.1-38.3-45.1-90.1-49.6-286.2c-11.3-279.4,15.8-392.1,96.9-428.1
				c60.8-29.3,543-38.3,608.4-13.5c74.4,29.3,101.4,132.9,101.4,398.8c0,225.3-6.8,263.6-47.3,317.7c-45.1,58.6-47.3,58.6-356,58.6
				C4389.6,3921.5,4362.5,3917,4322,3874.2z M4955.1,3538.5v-281.7h-281.7h-281.7l-6.8,256.9c-2.3,142,0,272.6,4.5,288.4
				c9,24.8,74.4,29.3,288.4,24.8l277.1-6.8v-281.6H4955.1z"/>
			<path class="st1" d="M5245.8,3874.2c-36.1-40.6-45.1-90.1-49.6-306.4c-13.5-407.8,11.3-434.9,401.1-434.9
				c389.8,0,414.6,27,401.1,434.9c-9,360.5-2.2,353.8-401.1,353.8C5313.4,3921.5,5286.4,3917,5245.8,3874.2z M5879,3538.5v-281.7
				h-281.7h-281.7l-6.8,256.9c-2.2,142,0,272.6,4.5,288.4c9,24.8,74.4,29.3,288.4,24.8l277.1-6.8v-281.6H5879z"/>
			<path class="st1" d="M6169.6,3874.2c-36.1-40.6-45.1-90.1-49.6-306.4c-13.5-407.8,11.3-434.9,401.1-434.9
				c389.8,0,414.6,27,401.1,434.9c-9,360.5-2.2,353.8-401.1,353.8C6237.2,3921.5,6210.2,3917,6169.6,3874.2z M6802.8,3538.5v-281.7
				h-281.7h-281.7l-6.8,256.9c-2.2,142,0,272.6,4.5,288.4c9,24.8,74.4,29.3,288.4,24.8l277.1-6.8v-281.6H6802.8z"/>
			<path class="st1" d="M7086.7,3862.9c-40.5-54.1-47.3-92.4-47.3-317.7c0-265.9,27-369.5,101.4-398.8
				c65.4-24.8,547.5-15.8,606.1,11.3c87.9,40.6,108.1,123.9,99.1,410.1c-9,360.5-2.2,353.8-403.3,353.8
				C7134,3921.5,7131.8,3921.5,7086.7,3862.9z M7726.6,3538.5v-281.7h-281.7h-281.6l-6.8,256.9c-2.3,142,0,272.6,4.5,288.4
				c9,24.8,74.4,29.3,288.4,24.8l277.1-6.8L7726.6,3538.5L7726.6,3538.5z"/>
			<path class="st1" d="M8008.3,3860.7c-45.1-58.6-47.3-83.4-40.5-351.5c9-378.6,6.7-376.3,380.8-376.3c153.2,0,290.7,11.3,324.5,27
				c81.1,36,108.2,148.7,96.9,428.1c-9,338-4.5,333.5-403.3,333.5h-311L8008.3,3860.7z M8650.5,3538.5v-281.7h-281.7h-281.7
				l-6.8,256.9c-2.3,142,0,272.6,4.5,288.4c9,24.8,74.4,29.3,288.4,24.8l277.1-6.8v-281.6H8650.5z"/>
			<path class="st1" d="M8932.1,3860.7c-45.1-58.6-47.3-83.4-40.5-351.5c9-380.8,4.5-376.3,392.1-376.3
				c261.4,0,281.7,2.3,340.3,54.1l63.1,54.1V3534c0,398.8,11.3,387.6-396.6,387.6h-311L8932.1,3860.7z M9558.5,3813.4
				c20.3-15.8,27.1-87.9,22.5-288.4l-6.8-268.1h-281.7h-281.7l-6.8,256.9c-2.3,142,0,272.6,4.5,288.4c9,22.5,76.6,29.3,265.9,29.3
				C9414.3,3831.4,9542.7,3822.4,9558.5,3813.4z"/>
			<path class="st1" d="M633.4,2957.1c-31.6-33.8-38.3-94.6-38.3-349.3c0-414.6-20.3-398.8,511.5-398.8c385.3,0,392.1,0,446.1,56.3
				c54.1,51.8,56.3,65.4,56.3,349.2c0,405.6,29.3,383.1-513.7,383.1C712.3,2997.7,665,2993.2,633.4,2957.1z M1496.4,2864.7
				c27-51.8,29.3-473.2,4.5-516c-15.8-20.3-112.7-27.1-412.3-22.5l-392.1,6.8l-6.8,256.9c-4.5,169,2.2,265.9,20.3,286.2
				c20.3,24.8,105.9,31.5,394.3,31.5C1444.6,2907.6,1473.9,2905.3,1496.4,2864.7z"/>
			<path class="st1" d="M1789.3,2952.6c-40.6-40.6-45.1-74.4-45.1-347c0-299.7,0-304.2,58.6-349.3c54.1-42.8,90.1-47.3,340.2-47.3
				c265.9,0,281.7,2.2,333.5,56.3c54.1,51.8,56.3,65.4,56.3,349.2c0,394.3,11.3,383.1-394.3,383.1
				C1863.7,2997.7,1829.9,2993.2,1789.3,2952.6z M2413.5,2880.5c20.3-33.8,33.8-432.6,18-507c-11.3-49.6-20.3-51.8-290.7-51.8
				c-234.3,0-281.7,6.8-292.9,36c-24.8,67.6-15.8,493.5,13.5,522.8C1899.8,2918.8,2388.7,2918.8,2413.5,2880.5z"/>
			<path class="st1" d="M2713.2,2952.6c-40.6-40.6-45.1-74.4-45.1-347c0-299.7,0-304.2,58.6-349.3c54.1-42.8,90.1-47.3,340.2-47.3
				c265.9,0,281.7,2.2,333.5,56.3c54.1,51.8,56.3,65.4,56.3,344.7c0,396.6,9,387.6-394.3,387.6
				C2787.5,2997.7,2753.7,2993.2,2713.2,2952.6z M3339.6,2610.1l6.8-288.4h-281.7c-234.3,0-281.7,6.8-292.9,36
				c-27,67.6-15.8,493.5,13.5,522.8c20.3,20.3,105.9,27,288.4,22.5l259.1-6.8L3339.6,2610.1z"/>
			<path class="st1" d="M3628,2948.1c-29.3-40.6-36.1-114.9-36.1-347c0-295.2,0-299.7,58.6-344.8c54.1-42.8,90.1-47.3,340.2-47.3
				c265.9,0,281.7,2.2,333.5,56.3c54.1,51.8,56.3,65.4,56.3,344.7c0,396.6,11.3,387.6-405.6,387.6
				C3677.6,2997.7,3659.5,2995.4,3628,2948.1z M4263.4,2607.9l6.8-288.4l-288.4,6.8l-288.4,6.8l-6.8,256.9
				c-4.5,171.2,2.2,265.9,20.3,286.2c20.3,27,83.4,31.5,288.4,27l261.4-6.8"/>
			<path class="st1" d="M4551.8,2948.1c-29.3-40.6-36.1-114.9-36.1-347c0-295.2,0-299.7,58.6-344.8c54.1-42.8,90.1-47.3,340.2-47.3
				c265.9,0,281.6,2.2,333.5,56.3c54.1,51.8,56.3,65.4,56.3,344.7c0,394.3,6.8,387.6-412.3,387.6
				C4601.4,2997.7,4583.4,2995.4,4551.8,2948.1z M5180.5,2614.6v-281.7h-281.6h-281.7l-6.8,256.9c-4.5,171.2,2.2,265.9,20.3,286.2
				c20.3,27,83.4,31.5,288.4,27l261.4-6.8L5180.5,2614.6L5180.5,2614.6z"/>
			<path class="st1" d="M5477.9,2957.1c-31.6-33.8-38.3-94.6-38.3-349.3c0-304.2,0-306.5,58.6-351.5c54.1-42.8,90.1-47.3,340.2-47.3
				c265.9,0,281.7,2.2,333.5,56.3c54.1,51.8,56.3,67.6,56.3,333.5c0,250.1-4.5,286.2-47.3,340.2c-45.1,58.6-47.3,58.6-356,58.6
				C5552.3,2997.7,5509.5,2993.2,5477.9,2957.1z M6104.3,2614.6v-281.7h-281.7h-281.7l-6.8,256.9c-4.5,171.2,2.2,265.9,20.3,286.2
				c20.3,27,83.3,31.5,288.4,27l261.5-6.7V2614.6z"/>
			<path class="st1" d="M6401.7,2957.1c-31.6-33.8-38.3-94.6-38.3-349.3c0-304.2,0-306.5,58.6-351.5c54.1-42.8,90.1-47.3,340.3-47.3
				c265.9,0,281.7,2.2,333.5,56.3c54.1,51.8,56.3,67.6,56.3,333.5c0,250.1-4.5,286.2-47.3,340.2c-45.1,58.6-47.3,58.6-356,58.6
				C6476.1,2997.7,6433.3,2993.2,6401.7,2957.1z M7028.1,2614.6v-281.7h-281.7h-281.7l-6.8,256.9c-4.5,171.2,2.2,265.9,20.3,286.2
				c20.3,27,83.4,31.5,288.4,27l261.4-6.8v-281.6H7028.1z"/>
			<path class="st1" d="M7325.6,2957.1c-31.6-33.8-38.3-94.6-38.3-349.3c0-304.2,0-306.5,58.6-351.5c54.1-42.8,90.1-47.3,340.3-47.3
				c265.9,0,281.7,2.2,333.5,56.3c54.1,51.8,56.3,67.6,56.3,333.5c0,250.1-4.5,286.2-47.3,340.2c-45.1,58.6-47.3,58.6-356,58.6
				C7399.9,2997.7,7357.1,2993.2,7325.6,2957.1z M7952,2614.6v-281.7h-281.7h-281.7l-6.7,256.9c-4.5,171.2,2.2,265.9,20.3,286.2
				c20.3,27,83.4,31.5,288.4,27l261.4-6.8L7952,2614.6L7952,2614.6z"/>
			<path class="st1" d="M8247.1,2954.9c-31.5-33.8-38.3-92.4-40.6-340.2l-2.2-299.7l63.1-54.1c60.8-54.1,74.4-54.1,351.5-47.3
				c378.6,9,367.3-2.3,376.3,374c6.8,265.9,4.5,290.7-40.5,349.3l-47.3,60.8h-311C8321.5,2997.7,8280.9,2993.2,8247.1,2954.9z
				 M8875.8,2614.6v-281.7h-281.7h-281.7l-6.8,256.9c-2.3,142,0,272.6,4.5,288.4c9,24.8,74.4,29.3,288.4,24.8l277.1-6.8v-281.6
				H8875.8z"/>
			<path class="st1" d="M9166.5,2950.4c-38.3-40.6-42.8-83.4-42.8-340.2v-292.9l63.1-54.1c54.1-45.1,87.9-54.1,218.6-54.1
				s164.5,9,218.6,54.1l63.1,54.1v292.8c0,380.8-4.5,387.6-281.7,387.6C9234.1,2997.7,9204.7,2990.9,9166.5,2950.4z M9574.3,2614.6
				v-281.7h-169h-169l-6.7,256.9c-2.3,142,0,272.6,6.7,288.4c6.8,22.5,51.8,29.3,173.5,24.8l164.5-6.7V2614.6z"/>
			<path class="st1" d="M797.9,2078.4c-196-11.3-202.8-24.8-202.8-389.8c0-430.4-47.3-403.3,678.2-403.3c718.8,0,676-27.1,676,403.3
				c2.3,263.6-2.3,306.4-40.6,342.5c-36,38.3-90.1,42.8-513.7,47.3C1133.6,2082.9,865.5,2082.9,797.9,2078.4z M1845.7,1690.8v-281.7
				h-574.6H696.5l-6.8,236.6c-4.5,130.7,0,259.1,6.8,288.4l11.3,49.6l570.1-4.5l567.8-6.8L1845.7,1690.8L1845.7,1690.8z"/>
			<path class="st1" d="M2224.2,2078.4c-29.3-4.5-72.1-33.8-96.9-65.4c-40.6-51.8-45.1-90.1-45.1-333.5
				c0-385.3-4.5-380.8,376.3-389.8c268.1-6.8,292.9-4.5,351.5,40.5l60.8,47.3v311c0,268.1-4.5,315.4-38.3,344.7
				c-29.3,24.8-110.4,38.3-299.7,45.1C2391,2082.9,2251.3,2082.9,2224.2,2078.4z M2769.5,1934.1c6.8-29.3,11.3-157.7,6.8-288.4
				l-6.8-236.6h-281.7h-281.7l-6.8,256.9c-2.3,142,0,272.6,4.5,288.4c9,22.5,81.1,29.3,281.7,29.3
				C2749.2,1983.7,2758.2,1981.5,2769.5,1934.1z"/>
			<path class="st1" d="M3123.3,2071.6c-96.9-36.1-117.2-103.7-117.2-394.3c0-383.1-4.5-378.6,376.3-387.6
				c268.1-6.8,292.9-4.5,351.5,40.5l60.8,47.3v311c0,396.6,13.5,380.8-353.8,392.1C3292.3,2085.1,3148,2080.6,3123.3,2071.6z
				 M3679.8,1952.2c18-20.3,24.8-117.1,20.3-286.1l-6.8-256.9h-281.7h-281.7l-6.8,256.9c-2.3,142,0,272.6,4.5,288.4
				C3145.8,1997.2,3643.8,1995,3679.8,1952.2z"/>
			<path class="st1" d="M4038.1,2067.1c-94.6-33.8-105.9-78.9-108.2-383c0-277.1,2.3-290.7,56.3-342.5
				c51.8-54.1,67.6-56.3,333.5-56.3c250.1,0,286.2,4.5,340.2,47.3c58.6,45.1,58.6,49.6,58.6,347c0,403.3,9,394.3-356,401.1
				C4211.6,2082.9,4065.1,2078.4,4038.1,2067.1z M4603.6,1952.2c18-20.3,24.8-117.1,20.3-286.1l-6.8-256.9h-281.7h-281.7l-6.8,256.9
				c-2.3,142,0,272.6,4.5,288.4C4069.6,1997.2,4567.6,1995,4603.6,1952.2z"/>
			<path class="st1" d="M4961.9,2067.1c-94.6-33.8-105.9-81.1-108.2-383c0-277.1,2.3-290.7,56.3-342.5
				c51.8-54.1,67.6-56.3,333.5-56.3c250.1,0,286.2,4.5,340.3,47.3c58.6,45.1,58.6,49.6,58.6,347c0,405.6,9,396.6-356,401.1
				C5133.2,2082.9,4986.7,2078.4,4961.9,2067.1z M5527.5,1952.2c18-20.3,24.8-117.1,20.3-286.1l-6.8-256.9h-281.7h-281.7l-6.8,256.9
				c-2.3,142,0,272.6,4.5,288.4C4993.5,1997.2,5491.4,1995,5527.5,1952.2z"/>
			<path class="st1" d="M5867.7,2060.3c-33.8-15.8-67.6-42.8-76.6-65.4c-6.8-20.3-13.5-164.5-13.5-317.7
				c0-268.1,2.3-283.9,56.3-335.7c51.8-54.1,67.6-56.3,333.5-56.3c250.1,0,286.2,4.5,340.3,47.3c58.6,45.1,58.6,49.6,58.6,347
				c0,407.8,6.8,401.1-360.5,403.3C6043.5,2085.1,5903.8,2073.8,5867.7,2060.3z M6449,1956.7c29.3-29.3,38.3-455.2,13.5-522.8
				c-11.3-29.3-58.6-36-292.9-36h-279.4V1675c0,153.2,6.8,286.2,15.8,292.9C5933.1,1997.2,6419.8,1986,6449,1956.7z"/>
			<path class="st1" d="M6791.5,2060.3c-33.8-15.8-67.6-42.8-76.6-65.4c-6.7-20.3-13.5-164.5-13.5-317.7
				c0-268.1,2.2-283.9,56.3-335.7c51.8-54.1,67.6-56.3,333.5-56.3c250.1,0,286.2,4.5,340.3,47.3c58.6,45.1,58.6,49.6,58.6,349.3
				c0,272.6-4.5,306.4-45.1,347c-51.8,51.8-45.1,49.6-358.3,54.1C6958.3,2082.9,6827.6,2073.8,6791.5,2060.3z M7372.9,1956.7
				c29.3-29.3,38.3-455.2,13.5-522.8c-11.3-29.3-58.6-36-292.9-36h-279.4V1675c0,153.2,6.7,286.2,15.8,292.9
				C6856.9,1997.2,7343.6,1986,7372.9,1956.7z"/>
			<path class="st1" d="M7911.4,2076.1c-290.7-18-286.2-13.5-286.2-389.8c0-279.4,2.2-292.9,56.3-344.7
				c51.8-54.1,67.6-56.3,333.5-56.3c250.1,0,286.2,4.5,340.3,47.3c58.6,45.1,58.6,49.6,58.6,338c0,162.2-11.3,313.2-22.5,335.7
				c-22.5,42.8-157.7,94.6-225.3,85.6C8148,2089.6,8033.1,2082.9,7911.4,2076.1z M8296.7,1956.7c29.3-29.3,38.3-455.2,13.5-522.8
				c-11.3-29.3-58.6-36-290.7-36c-324.5,0-299.7-24.8-301.9,290.7c-2.2,299.7-6.8,295.2,297.4,295.2
				C8184,1983.7,8278.7,1974.7,8296.7,1956.7z"/>
			<path class="st1" d="M8824,2073.8c-277.1-15.8-274.9-11.3-274.9-387.6c0-279.4,2.2-292.9,56.3-344.7
				c54.1-56.3,56.3-56.3,504.7-56.3c443.9,0,450.7,0,513.7,54.1l63.1,54.1v295.2c0,394.3,6.7,387.5-374,392.1
				C9159.7,2082.9,8938.9,2080.6,8824,2073.8z M9574.3,1690.8v-281.7l-448.4-6.8c-344.7-4.5-452.9,2.2-468.7,22.5
				c-29.3,47.3-22.5,500.2,9,531.8c20.3,20.3,144.2,27,468.7,22.5l439.4-6.8V1690.8z"/>
			<path class="st1" d="M707.8,1156.8c-103.7-38.3-112.7-67.6-112.7-392.1v-311l60.8-47.3c58.6-45.1,83.4-47.3,351.5-40.6
				c378.5,9,376.3,6.8,376.3,380.8c0,299.7-20.3,367.3-119.4,403.3C1194.5,1172.6,768.6,1179.3,707.8,1156.8z M1259.8,767V485.3
				H978.2H696.5l-6.8,236.6c-9,365-31.6,340.2,295.2,333.5l274.9-6.7V767z"/>
			<path class="st1" d="M1631.6,1156.8c-105.9-40.5-112.7-67.6-112.7-392.1c0-308.7,0-311,58.6-356c54.1-40.6,92.4-47.3,317.7-47.3
				c281.7,0,374,27,398.8,117.2c6.8,29.3,13.5,164.5,13.5,304.2c0,234.3-4.5,256.9-54.1,315.4c-54.1,60.8-58.6,63.1-322.2,67.6
				C1784.8,1168,1649.6,1165.8,1631.6,1156.8z M2183.7,767V485.3H1902h-281.7l-6.8,256.9c-2.3,142,0,272.6,4.5,288.4
				c9,24.8,74.4,29.3,288.4,24.8l277.1-6.7V767H2183.7z"/>
			<path class="st1" d="M2544.2,1152.3c-99.1-40.6-110.4-78.9-105.9-392.1c2.3-290.7,4.5-299.7,60.8-347l58.6-51.8h1892.7h1892.7
				l54.1,56.3c54.1,51.8,56.3,65.4,56.3,344.7c0,254.6-4.5,299.7-42.8,344.7l-42.8,54.1l-1890.5,4.5
				C3438.7,1168,2569,1161.3,2544.2,1152.3z M6336.4,1032.8c31.6-31.5,38.3-484.4,9-531.8c-15.8-22.5-412.3-27-1910.8-22.5
				l-1890.5,6.8l-6.8,256.9c-2.3,142,0,272.6,4.5,288.4C2557.7,1071.2,6295.8,1073.4,6336.4,1032.8z"/>
			<path class="st1" d="M6687.9,1141c-38.3-18-76.6-47.3-85.6-69.8c-6.8-20.3-13.5-164.5-13.5-317.7c0-268.1,2.2-283.9,56.3-335.7
				c51.8-54.1,67.6-56.3,338-56.3s286.2,2.2,338,56.3c54.1,51.8,56.3,67.6,56.3,335.7c0,153.2-6.8,297.4-13.5,317.7
				c-9,18-42.8,49.6-78.9,67.6C7201.6,1183.8,6787,1183.8,6687.9,1141z M7260.2,1032.8c29.3-29.3,38.3-455.2,13.5-522.8
				c-20.3-54.1-561.1-54.1-581.4,0c-24.8,67.6-15.8,493.5,13.5,522.8c18,18,112.7,27,277.1,27
				C7147.5,1059.9,7242.2,1050.9,7260.2,1032.8z"/>
			<path class="st1" d="M8436.4,1156.8c-117.2-45.1-153.2-191.5-67.6-277.1c40.6-40.6,74.4-45.1,290.7-45.1
				c238.8,0,247.9,2.2,292.9,58.6c60.8,78.9,58.6,128.4-6.8,205.1c-51.8,60.8-65.3,63.1-265.9,67.6
				C8564.8,1168,8454.4,1165.8,8436.4,1156.8z M8882.5,1005.8c13.5-63.1-33.8-81.1-234.3-81.1c-135.2,0-191.5,9-211.8,33.8
				c-22.5,27.1-22.5,40.6,0,67.6c22.5,29.3,72.1,33.8,234.3,29.3C8851,1048.6,8875.8,1044.1,8882.5,1005.8z"/>
			<path class="st1" d="M7562.1,647.6c-65.4-69.9-63.1-162.2,6.8-232.1c56.3-56.3,67.6-58.6,295.2-49.6
				c218.6,6.8,241.1,11.3,281.7,60.8c58.6,72.1,54.1,150.9-13.5,216.3c-49.6,51.8-69.8,56.3-288.4,56.3
				C7629.7,699.4,7607.2,694.9,7562.1,647.6z M8071.4,537.1c-6.7-49.6-18-51.8-223.1-58.6c-184.8-4.5-220.8,0-232.1,31.5
				c-24.8,65.4,9,76.6,236.6,76.6C8073.6,586.7,8078.1,586.7,8071.4,537.1z"/>
			<path class="st1" d="M8373.3,654.3c-72.1-67.6-67.6-184.8,9-245.6c49.6-40.6,92.4-47.3,259.1-47.3
				c220.8,0,295.2,24.8,333.5,105.9c36,81.1,31.5,114.9-31.6,175.8c-49.6,51.8-69.8,56.3-288.4,56.3
				C8452.2,699.4,8416.1,692.6,8373.3,654.3z M8882.5,537.1c-6.8-49.6-18-51.8-218.6-58.6c-216.3-6.8-265.9,9-243.3,72.1
				c11.3,29.3,56.3,36,241.1,36C8884.8,586.7,8889.3,586.7,8882.5,537.1z"/>
			<path class="st1" d="M9180,654.3c-74.4-74.4-67.6-169,13.5-241.1c49.6-47.3,81.1-51.8,270.4-51.8c209.6,0,216.3,2.2,283.9,67.6
				c54.1,56.3,65.3,81.1,54.1,130.7c-29.3,117.2-85.6,139.7-342.5,139.7C9254.3,699.4,9218.3,692.6,9180,654.3z M9687,530.4
				c0-40.5-18-45.1-211.8-51.8c-216.3-6.8-268.1,9-243.3,74.4c13.5,29.3,49.6,33.8,234.3,29.3C9668.9,575.4,9687,570.9,9687,530.4z"
				/>
		</g>
	</g>
	<g>
		<g>
			<g>
				
					<image style="overflow:visible;" width="242" height="137" xlink:href="CACF1FD6.png"  transform="matrix(1 0 0 1 43.9661 162.6822)">
				</image>
				<g>
					<path class="st0" d="M280.1,276.6c0,9.6-9.2,17.3-20.5,17.3H69.8c-11.3,0-20.5-7.8-20.5-17.3v-91.5c0-9.6,9.2-17.3,20.5-17.3
						h189.8c11.3,0,20.5,7.8,20.5,17.3V276.6z"/>
					<path class="st2" d="M280.1,276.6c0,9.6-9.2,17.3-20.5,17.3H69.8c-11.3,0-20.5-7.8-20.5-17.3v-91.5c0-9.6,9.2-17.3,20.5-17.3
						h189.8c11.3,0,20.5,7.8,20.5,17.3V276.6z"/>
				</g>
			</g>
			<path class="st3" d="M259.6,295.4H69.8c-12.3,0-22.2-8.4-22.2-18.8v-91.5c0-10.4,10-18.8,22.2-18.8h189.8
				c12.3,0,22.2,8.4,22.2,18.8v91.5C281.8,287,271.8,295.4,259.6,295.4z M69.8,169.2c-10.4,0-18.8,7.1-18.8,15.9v91.5
				c0,8.8,8.4,15.9,18.8,15.9h189.8c10.4,0,18.8-7.1,18.8-15.9v-91.5c0-8.8-8.4-15.9-18.8-15.9H69.8z"/>
		</g>
		<g>
			<path class="st4" d="M86,221.3v10.1h9.4v7.4H86V256c0,4.8,1.3,7.3,5.1,7.3c1.9,0,2.7-0.2,3.9-0.5l0.2,7.6c-1.4,0.6-4,1-7.2,1
				c-3.6,0-6.7-1.3-8.5-3.3c-2.1-2.3-3.1-5.8-3.1-11v-18.4h-5.6v-7.4h5.6v-7.2L86,221.3z"/>
			<path class="st4" d="M133.4,261.1c0,3.5,0.2,7,0.6,9.4H125l-0.6-4.3h-0.2c-2.4,3.1-6.5,5.2-11.6,5.2c-7.9,0-12.3-5.7-12.3-11.7
				c0-9.9,8.8-14.9,23.3-14.8v-0.6c0-2.6-1.1-6.8-8-6.8c-3.9,0-7.9,1.2-10.6,2.9l-1.9-6.4c2.9-1.8,8-3.5,14.2-3.5
				c12.6,0,16.2,8,16.2,16.5V261.1z M123.7,251.4c-7-0.2-13.7,1.4-13.7,7.3c0,3.9,2.5,5.7,5.6,5.7c4,0,6.8-2.6,7.7-5.4
				c0.2-0.7,0.3-1.5,0.3-2.2V251.4z"/>
			<path class="st4" d="M143.9,213.4h9.9v23.4h0.2c2.4-3.8,6.7-6.3,12.6-6.3c9.6,0,16.4,8,16.3,19.9c0,14.1-8.9,21.1-17.8,21.1
				c-5.1,0-9.6-1.9-12.4-6.8h-0.2l-0.5,5.9h-8.5c0.2-2.7,0.3-7,0.3-11V213.4z M153.8,254.4c0,0.8,0.1,1.6,0.2,2.3
				c1,3.9,4.5,6.9,8.8,6.9c6.2,0,10-5,10-12.9c0-6.9-3.3-12.6-9.9-12.6c-4,0-7.6,2.9-8.8,7.3c-0.2,0.7-0.3,1.6-0.3,2.6V254.4z"/>
		</g>
	</g>
</g>
</svg>
