<?xml version="1.0" encoding="utf-8"?>
<!-- Generator: Adobe Illustrator 24.2.3, SVG Export Plug-In . SVG Version: 6.00 Build 0)  -->
<svg version="1.1" id="Capa_1" xmlns="http://www.w3.org/2000/svg" xmlns:xlink="http://www.w3.org/1999/xlink" x="0px" y="0px"
	 viewBox="0 0 110 110" style="enable-background:new 0 0 110 110;" xml:space="preserve">
<style type="text/css">
	.st0{display:none;}
	.st1{display:inline;}
	.st2{fill-rule:evenodd;clip-rule:evenodd;fill:url(#SVGID_1_);}
	.st3{fill:#FFFFFF;}
</style>
<g class="st0">
	<g class="st1">
		<path d="M105.7,33.6c-2.8-6.5-6.7-12.4-11.8-17.5c-5.1-5.1-10.9-9-17.5-11.8C69.6,1.5,62.4,0,55,0S40.4,1.5,33.6,4.3
			C27,7.1,21.2,11.1,16.1,16.1c-5.1,5.1-9,10.9-11.8,17.5C1.5,40.4,0,47.6,0,55s1.5,14.6,4.3,21.4c2.8,6.6,6.7,12.4,11.8,17.5
			c5.1,5.1,10.9,9,17.5,11.8c6.8,2.9,14,4.3,21.4,4.3s14.6-1.5,21.4-4.3c6.6-2.8,12.4-6.7,17.5-11.8c5.1-5.1,9-10.9,11.8-17.5
			c2.9-6.8,4.3-14,4.3-21.4S108.5,40.4,105.7,33.6z M55,107.1C26.2,107.1,2.9,83.8,2.9,55C2.9,26.2,26.2,2.9,55,2.9
			s52.1,23.4,52.1,52.1C107.1,83.8,83.8,107.1,55,107.1z"/>
	</g>
</g>
<g>
	
		<linearGradient id="SVGID_1_" gradientUnits="userSpaceOnUse" x1="-191.7364" y1="304.1994" x2="-191.7364" y2="303.2556" gradientTransform="matrix(110 0 0 -110 21146 33466)">
		<stop  offset="0" style="stop-color:#A49DA8"/>
		<stop  offset="0.1411" style="stop-color:#AA96A1"/>
		<stop  offset="1" style="stop-color:#CC7177"/>
	</linearGradient>
	<path class="st2" d="M55,0L55,0c30.4,0,55,24.6,55,55l0,0c0,30.4-24.6,55-55,55l0,0C24.6,110,0,85.4,0,55l0,0C0,24.6,24.6,0,55,0z"
		/>
	<g>
		<path class="st3" d="M83.5,29l-26,66.4c-0.2,0.6-0.7,0.9-1.3,0.9c0,0-0.1,0-0.1,0c-0.6-0.1-1.1-0.5-1.3-1.1l-6.8-32.3l-32.1-6.7
			c-0.6-0.1-1.1-0.6-1.1-1.3c-0.1-0.6,0.3-1.2,0.9-1.5l66.1-26.3c0.5-0.2,1.1-0.1,1.5,0.3C83.5,27.9,83.7,28.5,83.5,29z"/>
	</g>
</g>
</svg>
