<?xml version="1.0" encoding="utf-8"?>
<!-- Generator: Adobe Illustrator 24.2.3, SVG Export Plug-In . SVG Version: 6.00 Build 0)  -->
<svg version="1.1" id="Capa_2" xmlns="http://www.w3.org/2000/svg" xmlns:xlink="http://www.w3.org/1999/xlink" x="0px" y="0px"
	 viewBox="0 0 1080 1080" style="enable-background:new 0 0 1080 1080;" xml:space="preserve">
<g>
	<polygon points="495.4,79 496.1,270.4 369.2,320.9 368.6,129 294.7,158.4 296.2,615 370.1,585.6 369.5,400.5 496.3,349.9 
		496.9,535.6 570.8,506.2 569.3,49.6 	"/>
	<g>
		<path d="M846.5,676.1l-7.9-30.3c-18.6-62.5-9.8-136,36.5-217.5c41.9-72.2,63.1-123.5,53.6-176.7c-10.8-60.2-55.8-93.6-130.5-81.4
			c-42.5,7.6-87.2,30.3-112.7,58.1L643.9,159c33.9-35.4,97.8-66.4,160.4-77.6c135.8-24.4,212.3,48.4,228.4,138.2
			c14.4,80.3-20,146.3-64.6,223.8C927.2,514,917.6,569.4,932,629l6.7,30.5L846.5,676.1z M850.3,846.1c-7.9-43.7,16.2-79.7,57.5-87.1
			c41.3-7.4,75.2,18.2,83.1,61.9c7.4,41.3-14,78.1-57.7,86C891.8,914.2,857.7,887.4,850.3,846.1z"/>
	</g>
	<g>
		<path d="M44,547.1c83.9-15.1,87.4-63.3,80-104.6c-5.9-33.1-16.6-65.3-27.3-97.5c-10.7-32.2-21.1-63.3-27.1-96.3
			C50,140,112.6,81.2,213,63.2l24.8-4.5l11.7,65l-21.3,3.8c-69.7,12.5-86.5,54.6-75,118.3c4.9,27.2,13.5,54.9,23.3,82.4
			c10,28.7,18.7,56.4,24.4,88.3c14.8,75.4-11.5,119.1-62.1,142.8l0.4,2.4c55.5,3.4,95.8,37.6,108.2,113.5
			c5.7,31.9,7.5,62.1,7.9,91.2c0.6,30.4,1.9,58.2,7,86.5c11.9,66.1,45.6,97.9,111.8,86l21.3-3.8l11.7,65l-24.8,4.5
			c-98,17.6-178.9-11.7-200.3-131c-5.7-31.9-7-65.8-8-98.5c-1-32.7-2-65.5-7.7-97.4c-6.6-36.6-27.5-85.3-111.4-70.2L44,547.1z"/>
	</g>
	<polygon points="785.1,294.7 644.9,350.6 645,391 696.3,370.6 696.8,546.6 734.6,532.7 734,355.6 785.2,335.2 	"/>
	<path d="M564.9,998.7l15-106.4l130.4-51.8l43,83.2l69.1-27.5L642.1,546.9l-93.6,37.2l-62.8,446.2l72.8-29l0-0.2L564.9,998.7z
		 M613.6,653.4l62.5,121l-84.3,33.5L613.6,653.4z"/>
</g>
</svg>
