<?xml version="1.0" encoding="utf-8"?>
<!-- Generator: Adobe Illustrator 24.2.3, SVG Export Plug-In . SVG Version: 6.00 Build 0)  -->
<svg version="1.1" id="Capa_1" xmlns="http://www.w3.org/2000/svg" xmlns:xlink="http://www.w3.org/1999/xlink" x="0px" y="0px"
	 viewBox="0 0 1000 280" style="enable-background:new 0 0 1000 280;" xml:space="preserve">
<style type="text/css">
	.st0{display:none;}
	.st1{display:inline;}
	.st2{display:none;enable-background:new    ;}
	.st3{font-family:'MontserratAlternates-SemiBold';}
	.st4{font-size:100px;}
	.st5{font-size:30px;}
</style>
<path d="M327.4,159.8c0-16,12-27.3,28.4-27.3c16.6,0,28.5,11.3,28.5,27.3s-11.9,27.4-28.5,27.4C339.4,187.2,327.4,175.8,327.4,159.8
	z M371.7,159.8c0-10.2-6.8-16.7-15.9-16.7c-9,0-15.8,6.5-15.8,16.7s6.8,16.7,15.8,16.7C364.9,176.5,371.7,170,371.7,159.8z"/>
<path d="M478.4,133.1v29.5c0,15.5-8.3,24.6-23.6,24.6c-7.7,0-13.8-2.3-17.7-8.3c-3.7,5.7-9.5,8.3-17.7,8.3
	c-15.4,0-23.5-9.1-23.5-24.6v-29.5h12.5v28.4c0,10,3.2,14.8,11.1,14.8c7.8,0,11.4-4.8,11.4-14.8v-28.4h12.5v28.4
	c0,10,3.6,14.8,11.4,14.8s11.1-4.8,11.1-14.8v-28.4H478.4z"/>
<path d="M550.1,159.8c0-16,12-27.3,28.4-27.3c16.6,0,28.5,11.3,28.5,27.3s-11.9,27.4-28.5,27.4C562.1,187.2,550.1,175.8,550.1,159.8
	z M594.4,159.8c0-10.2-6.8-16.7-15.9-16.7c-9,0-15.8,6.5-15.8,16.7s6.8,16.7,15.8,16.7C587.6,176.5,594.4,170,594.4,159.8z"/>
<path d="M710.2,160.1c0-16,12-27.3,28.9-27.3c10.4,0,18.7,4.3,22.8,12.4l-9.6,5.6c-3.2-5.1-8-7.4-13.3-7.4
	c-9.2,0-16.2,6.4-16.2,16.7c0,10.4,7,16.7,16.2,16.7c5.3,0,10.1-2.3,13.3-7.4l9.6,5.6c-4.1,8-12.4,12.5-22.8,12.5
	C722.2,187.5,710.2,176.1,710.2,160.1z"/>
<path d="M767.5,160.1c0-16,12-27.3,28.9-27.3c10.4,0,18.7,4.3,22.8,12.4l-9.6,5.6c-3.2-5.1-8-7.4-13.3-7.4
	c-9.2,0-16.2,6.4-16.2,16.7c0,10.4,7,16.7,16.2,16.7c5.3,0,10.1-2.3,13.3-7.4l9.6,5.6c-4.1,8-12.4,12.5-22.8,12.5
	C779.5,187.5,767.5,176.1,767.5,160.1z"/>
<path d="M869.1,171.1l6.6,7.7c-4.7,5.7-12.2,8.7-21.4,8.7c-17.9,0-29.5-11.5-29.5-27.4s11.6-27.3,27.5-27.3c14.9,0,26.9,10,27,26.7
	l-40.9,8c2.6,6.1,8.4,9.4,16.2,9.4C860.6,176.9,865.2,175,869.1,171.1z M836.9,159.4v0.1l30.2-5.8c-1.7-6.5-7.3-10.9-14.8-10.9
	C843.2,142.8,836.9,149.2,836.9,159.4z"/>
<path d="M885.2,181.5l4.8-9.5c4.7,3.1,11.9,5.3,18.6,5.3c7.9,0,11.2-2.2,11.2-5.9c0-10.2-33-0.6-33-21.9c0-10.1,9.1-16.7,23.5-16.7
	c7.1,0,15.2,1.7,20,4.6l-4.8,9.5c-5.1-3-10.2-4-15.3-4c-7.6,0-11.2,2.5-11.2,6c0,10.8,33,1.2,33,22.1c0,10-9.2,16.5-24.2,16.5
	C898.9,187.5,890,184.9,885.2,181.5z"/>
<path d="M936.7,181.5l4.8-9.5c4.7,3.1,11.9,5.3,18.6,5.3c7.9,0,11.2-2.2,11.2-5.9c0-10.2-33-0.6-33-21.9c0-10.1,9.1-16.7,23.5-16.7
	c7.1,0,15.2,1.7,20,4.6l-4.8,9.5c-5.1-3-10.2-4-15.3-4c-7.6,0-11.2,2.5-11.2,6c0,10.8,33,1.2,33,22.1c0,10-9.2,16.5-24.2,16.5
	C950.4,187.5,941.5,184.9,936.7,181.5z"/>
<g class="st0">
	<g class="st1">
		<path d="M254.2,208v21h-4.7v-9h-13v9h-4.7v-21h4.7v8.7h13V208H254.2z"/>
		<path d="M259.9,218.5c0-6.2,5.8-10.8,13.6-10.8s13.6,4.6,13.6,10.8s-5.8,10.8-13.6,10.8S259.9,224.7,259.9,218.5z M282.3,218.5
			c0-4.3-3.8-7.4-8.9-7.4s-8.9,3.1-8.9,7.4c0,4.3,3.8,7.4,8.9,7.4C278.6,225.9,282.3,222.8,282.3,218.5z"/>
		<path d="M329,208v12.5c0,5.8-3.7,8.8-10.2,8.8c-3.7,0-6.4-1-8-2.6c-1.6,1.6-4.3,2.6-8,2.6c-6.5,0-10.3-3-10.3-8.8V208h4.7v12.4
			c0,3.9,2.1,5.5,5.6,5.5s5.7-1.6,5.7-5.5V208h4.7v12.4c0,3.9,2.2,5.5,5.7,5.5s5.6-1.6,5.6-5.5V208H329z"/>
	</g>
	<g class="st1">
		<path d="M360.5,213.2c-2.3-1.1-4.8-1.8-7.4-2V229h-4.7v-17.8c-2.6,0.2-5.1,0.9-7.5,2l-1.6-3c3.4-1.7,7.4-2.5,11.4-2.5
			s8,0.8,11.4,2.5L360.5,213.2z"/>
		<path d="M363.8,218.5c0-6.2,5.8-10.8,13.6-10.8s13.6,4.6,13.6,10.8s-5.8,10.8-13.6,10.8S363.8,224.7,363.8,218.5z M386.2,218.5
			c0-4.3-3.8-7.4-8.9-7.4s-8.9,3.1-8.9,7.4c0,4.3,3.8,7.4,8.9,7.4C382.4,225.9,386.2,222.8,386.2,218.5z"/>
	</g>
	<g class="st1">
		<path d="M427.7,223.3c0,3.6-3.4,5.7-9.9,5.7h-12.5v-21h11.8c6,0,9.3,2.1,9.3,5.5c0,2.2-1.3,3.8-3.2,4.6
			C425.8,218.8,427.7,220.6,427.7,223.3z M409.9,211.1v5.8h6.6c3.2,0,5.1-1,5.1-2.9c0-2-1.8-2.9-5.1-2.9L409.9,211.1L409.9,211.1z
			 M422.9,222.9c0-2.1-1.9-3-5.4-3h-7.6v6.1h7.6C421,226,422.9,225,422.9,222.9z"/>
		<path d="M453,227c-2.3,1.5-6,2.3-10.1,2.3c-7.5,0-11.3-2.6-11.3-6.1c0-2.4,1.8-4.1,4.2-4.9c-2-0.9-3.2-2.5-3.2-4.5
			c0-3.2,3.5-6.1,10.8-6.1c3.2,0,6.4,0.6,8.6,1.6l-1.3,3.1c-2.3-1-4.6-1.4-7.1-1.4c-4.2,0-6.2,1.3-6.2,3c0,1.8,1.5,2.8,4.5,2.8h6.7
			v3.2h-6.9c-3.3,0-5.4,0.9-5.4,2.9c0,1.9,2.1,3.1,6.8,3.1c3.2,0,6.3-0.8,8.4-2L453,227z"/>
	</g>
	<g class="st1">
		<path d="M490.5,217.4V229h-4.7v-5.4h-13.1v5.4h-4.6v-11.6c0-6.3,4.5-9.7,11.2-9.7S490.5,211.1,490.5,217.4z M485.8,220.3V217
			c0-4-2.6-5.9-6.6-5.9s-6.6,1.9-6.6,5.9v3.3H485.8z"/>
		<path d="M496,218.5c0-6.3,5.8-10.8,13.5-10.8c4.1,0,7.6,1.2,10,3.5l-3,2.4c-1.8-1.6-4.1-2.5-6.7-2.5c-5.2,0-9,3.1-9,7.4
			s3.8,7.4,9,7.4c2.6,0,4.9-0.8,6.7-2.5l3,2.4c-2.3,2.3-5.9,3.5-10,3.5C501.7,229.3,496,224.8,496,218.5z"/>
		<path d="M522.3,218.5c0-6.3,5.8-10.8,13.5-10.8c4.1,0,7.6,1.2,10,3.5l-3,2.4c-1.8-1.6-4.1-2.5-6.7-2.5c-5.2,0-9,3.1-9,7.4
			s3.8,7.4,9,7.4c2.6,0,4.9-0.8,6.7-2.5l3,2.4c-2.3,2.3-5.9,3.5-10,3.5C528.1,229.3,522.3,224.8,522.3,218.5z"/>
		<path d="M570.3,227c-2.3,1.5-6,2.3-10.1,2.3c-7.5,0-11.3-2.6-11.3-6.1c0-2.4,1.8-4.1,4.2-4.9c-2-0.9-3.2-2.5-3.2-4.5
			c0-3.2,3.5-6.1,10.8-6.1c3.2,0,6.4,0.6,8.6,1.6l-1.3,3.1c-2.3-1-4.6-1.4-7.1-1.4c-4.2,0-6.2,1.3-6.2,3c0,1.8,1.5,2.8,4.5,2.8h6.7
			v3.2H559c-3.3,0-5.4,0.9-5.4,2.9c0,1.9,2.1,3.1,6.8,3.1c3.2,0,6.3-0.8,8.4-2L570.3,227z"/>
		<path d="M572.8,226.8l1.6-3c2,1.4,5.2,2.3,8.3,2.3c3.9,0,5.6-1.2,5.6-2.7c0-4.5-15-1.6-15-9.4c0-3.4,3.2-6.3,10.2-6.3
			c3,0,6.2,0.7,8.4,1.9l-1.5,3c-2.3-1.1-4.8-1.6-6.9-1.6c-3.9,0-5.5,1.3-5.5,2.8c0,4.5,14.9,1.6,14.9,9.3c0,3.4-3.3,6.2-10.2,6.2
			C578.9,229.3,574.9,228.3,572.8,226.8z"/>
		<path d="M596.2,226.8l1.6-3c2,1.4,5.2,2.3,8.3,2.3c3.9,0,5.6-1.2,5.6-2.7c0-4.5-15-1.6-15-9.4c0-3.4,3.2-6.3,10.2-6.3
			c3,0,6.2,0.7,8.4,1.9l-1.5,3c-2.3-1.1-4.8-1.6-6.9-1.6c-3.9,0-5.5,1.3-5.5,2.8c0,4.5,14.9,1.6,14.9,9.3c0,3.4-3.3,6.2-10.2,6.2
			C602.2,229.3,598.3,228.3,596.2,226.8z"/>
		<path d="M629.1,211.3v14.5h4.6v3.3h-13.9v-3.3h4.6v-14.5h-4.6V208h13.9v3.3H629.1z"/>
		<path d="M661.7,223.3c0,3.6-3.4,5.7-9.9,5.7h-12.5v-21h11.8c6,0,9.3,2.1,9.3,5.5c0,2.2-1.3,3.8-3.2,4.6
			C659.9,218.8,661.7,220.6,661.7,223.3z M644,211.1v5.8h6.6c3.2,0,5.1-1,5.1-2.9c0-2-1.8-2.9-5.1-2.9L644,211.1L644,211.1z
			 M657,222.9c0-2.1-1.9-3-5.4-3H644v6.1h7.6C655.1,226,657,225,657,222.9z"/>
		<path d="M667.4,208h4.7v17.7h13.2v3.3h-17.9V208z"/>
		<path d="M709.2,227c-2.3,1.5-6,2.3-10.1,2.3c-7.5,0-11.3-2.6-11.3-6.1c0-2.4,1.8-4.1,4.2-4.9c-2-0.9-3.2-2.5-3.2-4.5
			c0-3.2,3.5-6.1,10.8-6.1c3.2,0,6.4,0.6,8.6,1.6l-1.3,3.1c-2.3-1-4.6-1.4-7.1-1.4c-4.2,0-6.2,1.3-6.2,3c0,1.8,1.5,2.8,4.5,2.8h6.7
			v3.2h-6.9c-3.3,0-5.4,0.9-5.4,2.9c0,1.9,2.1,3.1,6.8,3.1c3.2,0,6.3-0.8,8.4-2L709.2,227z"/>
	</g>
	<g class="st1">
		<path d="M733.9,211.4v14.5h4.6v3.3h-13.9v-3.3h4.6v-14.5h-4.6v-3.3h13.9v3.3H733.9z"/>
		<path d="M766.2,216.8v12.4h-4.7V217c0-3.8-2.4-5.6-6-5.6c-4,0-6.7,1.9-6.7,6v11.8h-4.7v-21h4.5v2.6c1.8-2,4.5-2.9,8-2.9
			C762.6,207.9,766.2,211,766.2,216.8z"/>
	</g>
	<g class="st1">
		<path d="M818,208v12.5c0,5.8-3.7,8.8-10.2,8.8c-3.7,0-6.4-1-8-2.6c-1.6,1.6-4.3,2.6-8,2.6c-6.5,0-10.3-3-10.3-8.8V208h4.7v12.4
			c0,3.9,2.1,5.5,5.6,5.5s5.7-1.6,5.7-5.5V208h4.7v12.4c0,3.9,2.2,5.5,5.7,5.5s5.6-1.6,5.6-5.5V208H818z"/>
		<path d="M844.9,227c-2.3,1.5-6,2.3-10.1,2.3c-7.5,0-11.3-2.6-11.3-6.1c0-2.4,1.8-4.1,4.2-4.9c-2-0.9-3.2-2.5-3.2-4.5
			c0-3.2,3.5-6.1,10.8-6.1c3.2,0,6.4,0.6,8.6,1.6l-1.3,3.1c-2.3-1-4.6-1.4-7.1-1.4c-4.2,0-6.2,1.3-6.2,3c0,1.8,1.5,2.8,4.5,2.8h6.7
			v3.2h-6.9c-3.3,0-5.4,0.9-5.4,2.9c0,1.9,2.1,3.1,6.8,3.1c3.2,0,6.3-0.8,8.4-2L844.9,227z"/>
		<path d="M872,223.3c0,3.6-3.4,5.7-9.9,5.7h-12.5v-21h11.8c6,0,9.3,2.1,9.3,5.5c0,2.2-1.3,3.8-3.2,4.6
			C870.1,218.8,872,220.6,872,223.3z M854.3,211.1v5.8h6.6c3.2,0,5.1-1,5.1-2.9c0-2-1.8-2.9-5.1-2.9L854.3,211.1L854.3,211.1z
			 M867.3,222.9c0-2.1-1.9-3-5.4-3h-7.6v6.1h7.6C865.3,226,867.3,225,867.3,222.9z"/>
		<path d="M875.6,226.8l1.6-3c2,1.4,5.2,2.3,8.3,2.3c3.9,0,5.6-1.2,5.6-2.7c0-4.5-15-1.6-15-9.4c0-3.4,3.2-6.3,10.2-6.3
			c3,0,6.2,0.7,8.4,1.9l-1.5,3c-2.3-1.1-4.8-1.6-6.9-1.6c-3.9,0-5.5,1.3-5.5,2.8c0,4.5,14.9,1.6,14.9,9.3c0,3.4-3.3,6.2-10.2,6.2
			C881.6,229.3,877.7,228.3,875.6,226.8z"/>
		<path d="M908.4,211.3v14.5h4.6v3.3h-13.9v-3.3h4.6v-14.5h-4.6V208H913v3.3H908.4z"/>
		<path d="M936.2,213.2c-2.3-1.1-4.8-1.8-7.4-2V229h-4.7v-17.8c-2.6,0.2-5.1,0.9-7.5,2l-1.6-3c3.4-1.7,7.4-2.5,11.4-2.5
			s8,0.8,11.4,2.5L936.2,213.2z"/>
		<path d="M960.9,227c-2.3,1.5-6,2.3-10.1,2.3c-7.5,0-11.3-2.6-11.3-6.1c0-2.4,1.8-4.1,4.2-4.9c-2-0.9-3.2-2.5-3.2-4.5
			c0-3.2,3.5-6.1,10.8-6.1c3.2,0,6.4,0.6,8.6,1.6l-1.3,3.1c-2.3-1-4.6-1.4-7.1-1.4c-4.2,0-6.2,1.3-6.2,3c0,1.8,1.5,2.8,4.5,2.8h6.7
			v3.2h-6.9c-3.3,0-5.4,0.9-5.4,2.9c0,1.9,2.1,3.1,6.8,3.1c3.2,0,6.3-0.8,8.4-2L960.9,227z"/>
		<path d="M963.4,226.8l1.6-3c2,1.4,5.2,2.3,8.3,2.3c3.9,0,5.6-1.2,5.6-2.7c0-4.5-15-1.6-15-9.4c0-3.4,3.2-6.3,10.2-6.3
			c3,0,6.2,0.7,8.4,1.9l-1.5,3c-2.3-1.1-4.8-1.6-6.9-1.6c-3.9,0-5.5,1.3-5.5,2.8c0,4.5,14.9,1.6,14.9,9.3c0,3.4-3.3,6.2-10.2,6.2
			C969.4,229.3,965.5,228.3,963.4,226.8z"/>
	</g>
</g>
<text transform="matrix(1 0 0 1 262.5278 186.9927)" class="st2 st3 st4">HowToAccess</text>
<text transform="matrix(1.2 0 0 1 231.8428 229.0186)" class="st2 st3 st5">HOW TO BE ACCESSIBLE IN WEBSITES</text>
<g>
	<polygon points="117.2,49.1 117.3,86.9 92.3,96.8 92.2,59 77.7,64.8 78,154.8 92.5,149 92.4,112.5 117.4,102.5 117.5,139.1 
		132.1,133.3 131.8,43.3 	"/>
	<g>
		<path d="M186.4,166.8l-1.6-6c-3.7-12.3-1.9-26.8,7.2-42.9c8.3-14.2,12.4-24.3,10.6-34.8c-2.1-11.9-11-18.4-25.7-16
			c-8.4,1.5-17.2,6-22.2,11.4l-8.2-13.7c6.7-7,19.3-13.1,31.6-15.3c26.8-4.8,41.8,9.5,45,27.2c2.8,15.8-3.9,28.8-12.7,44.1
			c-8.1,13.9-10,24.9-7.1,36.6l1.3,6L186.4,166.8z M187.2,200.3c-1.5-8.6,3.2-15.7,11.3-17.2c8.1-1.5,14.8,3.6,16.4,12.2
			c1.5,8.1-2.8,15.4-11.4,16.9C195.3,213.8,188.6,208.5,187.2,200.3z"/>
	</g>
	<g>
		<path d="M28.2,141.4c16.5-3,17.2-12.5,15.8-20.6c-1.2-6.5-3.3-12.9-5.4-19.2c-2.1-6.4-4.2-12.5-5.3-19c-3.8-21.4,8.5-33,28.3-36.6
			l4.9-0.9l2.3,12.8l-4.2,0.8C50.8,61.2,47.5,69.5,49.8,82c1,5.4,2.7,10.8,4.6,16.2c2,5.7,3.7,11.1,4.8,17.4
			c2.9,14.9-2.3,23.5-12.2,28.2l0.1,0.5c10.9,0.7,18.9,7.4,21.3,22.4c1.1,6.3,1.5,12.2,1.6,18c0.1,6,0.4,11.5,1.4,17.1
			c2.3,13,9,19.3,22,16.9l4.2-0.8l2.3,12.8l-4.9,0.9c-19.3,3.5-35.3-2.3-39.5-25.8c-1.1-6.3-1.4-13-1.6-19.4
			c-0.2-6.5-0.4-12.9-1.5-19.2c-1.3-7.2-5.4-16.8-22-13.8L28.2,141.4z"/>
	</g>
	<polygon points="174.3,91.7 146.7,102.7 146.7,110.6 156.8,106.6 156.9,141.3 164.4,138.6 164.2,103.7 174.3,99.6 	"/>
	<path d="M130.9,230.4l3-21l25.7-10.2l8.5,16.4l13.6-5.4l-35.5-68.8l-18.4,7.3l-12.4,87.9l14.3-5.7l0,0L130.9,230.4z M140.5,162.3
		l12.3,23.8l-16.6,6.6L140.5,162.3z"/>
</g>
<polygon points="296.6,94 296.8,135.5 269.3,146.5 269.1,104.8 253.1,111.2 253.4,210.3 269.5,203.9 269.3,163.7 296.8,152.8 
	297,193.1 313,186.7 312.7,87.6 "/>
<polygon points="562.6,78.1 498.6,103.6 498.6,122.1 522,112.8 522.3,193.2 539.6,186.9 539.3,105.9 562.7,96.6 "/>
<path d="M646.7,197l3.6-25.2l30.9-12.3l10.2,19.7l16.4-6.5L665,89.8l-22.2,8.8l-14.9,105.9l17.3-6.9l0,0L646.7,197z M658.3,115.1
	l14.8,28.7l-20,8L658.3,115.1z"/>
</svg>
