<?xml version="1.0" encoding="utf-8"?>
<!-- Generator: Adobe Illustrator 24.2.3, SVG Export Plug-In . SVG Version: 6.00 Build 0)  -->
<svg version="1.1" id="Capa_1" xmlns="http://www.w3.org/2000/svg" xmlns:xlink="http://www.w3.org/1999/xlink" x="0px" y="0px"
	 viewBox="0 0 1921 150" style="enable-background:new 0 0 1921 150;" xml:space="preserve">
<style type="text/css">
	.st0{fill:#020203;}
	.st1{fill:#DEDEDE;}
</style>
<g>
	<line class="st0" x1="0" y1="75" x2="1921" y2="75"/>
	<path class="st1" d="M0,71l60-2.3l60-2.2l120.1-4.1c40-1.4,80-2.6,120.1-3.9L480.3,55l120.1-3.4l120.1-3.2l120.1-2.8L960.5,43
		c40-0.8,80-2,120.1-3.4c40-1.4,80-2.9,120.1-4.2c40-1.2,80-2,120.1-2.1c40-0.1,80,0.5,120.1,1.7c80,2.4,160.1,6.1,240.1,11.7
		c40,2.8,80,6.1,120.1,10c20,2,40,4.1,60,6.4c20,2.3,40,4.8,60,7.9v8c-20,3-40,5.5-60,7.9c-20,2.4-40,4.4-60,6.4
		c-40,3.9-80,7.2-120.1,10c-80,5.6-160.1,9.4-240.1,11.7c-40,1.2-80,1.8-120.1,1.7c-40-0.1-80-0.9-120.1-2.1
		c-40-1.2-80-2.8-120.1-4.2c-40-1.4-80-2.6-120.1-3.4l-120.1-2.6l-120.1-2.8l-120.1-3.2L480.3,95l-120.1-3.6
		c-40-1.3-80-2.5-120.1-3.9l-120.1-4.1l-60-2.2L0,79V71z"/>
</g>
</svg>
