<?xml version="1.0" encoding="utf-8"?>
<!-- Generator: Adobe Illustrator 24.2.3, SVG Export Plug-In . SVG Version: 6.00 Build 0)  -->
<svg version="1.1" id="Capa_1" xmlns="http://www.w3.org/2000/svg" xmlns:xlink="http://www.w3.org/1999/xlink" x="0px" y="0px"
	 viewBox="0 0 250 250" style="enable-background:new 0 0 250 250;" xml:space="preserve">
<g>
	<path d="M195.2,237.3c-2-5-4-9.5-5.6-14.1c-9.4-27.2-5-52.1,12.4-74.8c10.5-13.6,18-28.5,20.3-45.7c4.4-32.7-11.1-62.9-40.5-77.6
		c-26.3-13.1-53.8-16-81.9-6.8c-24,7.8-39.3,25-48.9,47.9C46.7,76.3,44.3,87,43.2,98c-0.2,2,0.2,3.5,2.2,4.6
		c2.7,1.5,3.1,4.3,1.3,6.9c-5.8,8.4-11.5,16.7-17.3,25.1c-0.7,1.1-1.5,2.2-2.1,3.3c-1.4,2.5-0.7,5,1.9,6.3c2.9,1.4,6,2.6,9,3.9
		c3.3,1.4,4.3,3.5,3,6.9c-0.8,2.2-1.6,4.3-2.6,6.8c2,0.5,3.7,1.1,5.5,1.5c2.2,0.5,4.1,1.3,4.6,3.8c0.5,2.7-0.9,4.4-3.2,5.5
		c-0.9,0.5-1.7,1.1-3.6,2.2c1.3,0.9,2.4,1.5,3.4,2.4c2.5,2.2,2.3,3.9,1,6.9c-1.6,3.7-3.2,7.6-3.6,11.6c-0.6,6.8,3.5,11,10.4,11.1
		c4,0,8-0.5,11.9-1.1c14.1-2.3,25.6,6.2,27.4,20.4c0.6,4.8,1.6,9.6,2.4,14.3c0.5,3.1-0.8,5.3-3.4,5.8c-2.7,0.5-4.7-1-5.3-4.1
		c-1.1-5.8-2-11.5-3.2-17.3c-1.3-6.9-7.6-11.3-14.6-10.5c-3.4,0.4-6.8,1.1-10.3,1.3c-3.4,0.1-7,0.2-10.3-0.6
		c-9.9-2.3-15.7-11.8-13.9-22.6c0.5-2.9,1.4-5.8,2.4-8.6c0.6-1.5,0.7-2.5-0.7-3.6c-1-0.7-1.7-1.7-2.6-2.5c-3-2.8-3.1-4.7-0.4-7.9
		c-4.6-2.3-5.2-3.7-3.4-8.4c0.8-2,1.5-4,2.3-6.3c-1.7-0.7-3.3-1.4-4.9-2c-8.8-3.5-11.6-13.5-6.2-21.3c5.5-7.8,10.8-15.6,16.2-23.5
		c0.2-0.2,0.2-0.5,0.4-0.9c-3.3-3.8-3-8.4-2.4-13.2C37.1,73.4,44,54.4,57,37.8C71.2,19.8,90,9.2,112.5,5.8
		C140.2,1.5,166.9,5.4,191,20c28.6,17.3,42,43.5,40.8,76.9c-0.7,20.1-8.6,37.8-20.4,53.8c-4.7,6.5-9.6,12.8-12.6,20.3
		c-7.3,18.3-6.6,36.4,1.2,54.3c2,4.7,3.9,9.5,5.9,14.2c1.5,3.7-0.5,6.8-4.5,6.8c-29.6,0-59.1-0.1-88.7-0.1c-0.7,0-1.5,0-2.2-0.1
		c-2.4-0.3-3.7-1.8-3.9-4.1c-0.2-2.3,1-4,3.3-4.5c1.1-0.3,2.2-0.2,3.3-0.2c26,0,52,0,78.1,0C192.4,237.3,193.5,237.3,195.2,237.3z"
		/>
	<path d="M187.8,126.4c5.4-0.6,8.9-3.7,10.8-8.5c2-4.9,1.5-9.5-2.1-13.5c-0.6-0.6-1.2-1.1-1.8-1.7c-2-2-2.2-4.3-0.6-6.2
		c1.6-1.9,4.2-2.1,6.5-0.4c0.9,0.7,1.7,1.5,2.5,2.3c0.8,0.8,1.4,1.7,2.5,2.9c1.4-4.1,1.3-7.9,0.1-11.6c-0.7-2.3-2.1-4.3-3.3-6.4
		c-0.9-1.6-1.9-2-3.9-1.2c-3.9,1.7-8,1.7-12,0.1c-2.8-1.1-4-3.3-3.2-5.7c0.8-2.6,3.1-3.4,6.1-2.8c1.9,0.4,4.1,0.5,6,0
		c2.6-0.7,4.3-3.4,4.3-5.9c-0.1-2.7-2-5.2-4.6-6.1c-3.8-1.3-4.7-2.6-4-6.3c0.6-3.3-0.9-5.9-4.4-7.6c0.1,2,0.3,3.9,0.3,5.8
		c0,2.6-1.7,4.3-4,4.5c-2.2,0.2-4.2-1.4-4.7-3.9c-0.2-0.9-0.2-1.9-0.3-2.8c-1-9.7-12-17.6-20.7-14.9c0,2.4,0.1,4.8,0,7.2
		c-0.3,3.5-2.1,5.3-5,5.1c-2.9-0.2-4.3-2.3-3.9-5.9c0.5-4-0.9-7-4.2-9.1c-3.1-2-6.4-2.3-9.9-0.4c0.4,0.7,0.7,1.2,1,1.8
		c1.1,2.5,0.5,4.8-1.6,6.1c-2.1,1.3-4.4,0.7-6.1-1.6c-3.4-4.6-7.2-6-11.8-4.5c-3,1-4.8,3-6,5.8c-1.9,4.6-5.2,5-8.5,1.4
		c-0.5-0.5-1.6-0.8-2.3-0.7c-5.6,1-9.2,5.6-9.1,11.7c0,3.2-1.2,5-3.6,5.4c-2.8,0.5-4.6-1.1-6.1-4.9c-0.6,1.6-1.7,3.1-1.8,4.8
		c-0.3,4.7,1.6,8.5,5.2,11.5c0.6,0.5,1.2,0.9,1.8,1.4c1.9,1.7,2.2,4.2,0.8,6c-1.4,1.9-3.8,2.4-6,1.1c-3.8-2.3-6.7-5.6-8.6-9.7
		c-0.5-1-0.9-2-1.3-3c-5,4.6-4.2,13.8,1.5,18c3.7,2.7,3.6,2.8,2.8,7.4c-0.2,1,1,2.9,2,3.3c4,1.5,8.1,2.6,12.2,3.7
		c1.9,0.5,3.9,0.3,5.8,0.8c6,1.6,9.6,5.6,10.5,11.7c0.5,3.1,1.9,5.3,4.5,6.6c3,1.5,6.3,3,9.5,3.8c10.2,2.5,17,10.1,18.1,20.5
		c0.5,4.8,1.3,9.6,2,14.4c0.5,3.6-0.9,6-3.7,6.4c-2.7,0.4-4.6-1.5-5.1-5c-0.7-5.2-1.4-10.3-2.2-15.5c-0.9-6.4-4.6-10-10.9-12
		c-4.7-1.5-9.4-3.5-13.7-6c-4.3-2.5-6.8-6.5-7.4-11.6c-0.3-2.9-1.8-4.3-4.8-4.8c-5.6-1-11.2-2-16.5-3.9c-5.7-2-10-5.8-9.7-12.8
		c0-0.7-0.7-1.5-1.2-2c-9.5-10.5-7.4-25.9,4.6-33.6c0.9-0.5,1.6-1.5,2-2.4c2.2-4.9,5.8-8.1,11.1-9.5c1-0.3,2-1,2.6-1.8
		c4.5-6.3,10.6-9.4,18.4-9.3c1,0,2.2-0.4,2.9-1.1c5.8-5.5,12.5-7,20.2-4.6c0.8,0.3,2,0.2,2.7-0.3c7.4-4.6,14.8-4.5,22,0.4
		c1,0.7,2.6,1,3.7,0.8c10.5-2.2,19.3,0.8,26.6,8.6c1.1,1.2,2.1,1.8,3.8,1.8c7.6,0.1,14.2,5.6,15.5,13.1c0.3,2,1.1,3.2,2.8,4.4
		c5.4,4,7.4,10.9,5.1,17.2c-0.6,1.6-0.2,2.5,0.8,3.6c8.9,10.3,9.5,24.9,1.5,35.9c-0.7,1-1.2,2.3-1.4,3.5
		c-2.2,11.6-9.6,18.4-21.2,19.6c-0.9,0.1-1.9,1.2-2.4,2.1c-5,8.5-14.5,13.1-23.9,11.2c-4-0.8-7.3-2.7-10.2-5.5
		c-2.4-2.3-2.6-4.9-0.7-6.9c1.8-1.9,4.3-1.8,6.7,0.3c6,5.1,13.4,4.7,18.6-1.2c2.9-3.3,3.8-7.1,2.6-11.5c-0.4-1.3-0.9-3-0.3-4
		c0.8-1.3,2.4-2.9,3.8-3c1.4-0.1,3.4,1.1,4.2,2.4C186.8,121.4,187.1,123.8,187.8,126.4z"/>
</g>
</svg>
