<?xml version="1.0" encoding="UTF-8"?>
<svg width="110px" height="110px" viewBox="0 0 110 110" version="1.1" xmlns="http://www.w3.org/2000/svg" xmlns:xlink="http://www.w3.org/1999/xlink">
    <title>Group 15</title>
    <defs>
        <linearGradient x1="50%" y1="1.83147805%" x2="50%" y2="98.0721172%" id="linearGradient-1">
            <stop stop-color="#71F488" offset="0%"></stop>
            <stop stop-color="#0AC726" offset="100%"></stop>
        </linearGradient>
    </defs>
    <g id="Page-1" stroke="none" stroke-width="1" fill="none" fill-rule="evenodd">
        <g id="home" transform="translate(-1378.000000, -6172.000000)">
            <g id="Group-50" transform="translate(297.000000, 5653.000000)">
                <g id="Group-29" transform="translate(1061.500000, 519.000000)">
                    <g id="Group-15" transform="translate(19.500000, 0.000000)">
                        <rect id="Rectangle" fill="url(#linearGradient-1)" x="0" y="0" width="110" height="110" rx="55"></rect>
                        <rect id="Rectangle" fill="#000000" opacity="0.0639691521" x="0" y="0" width="110" height="110" rx="55"></rect>
                        <g id="Group-19" transform="translate(39.000000, 31.000000)">
                            <path d="M30.3092631,23.2204273 L16.5,0 L2.4729375,23.604 C0.91575,26.048 0,28.916 0,32 C0,40.836 7.387875,48 16.5,48 C25.612125,48 33,40.836 33,32 C33,28.9616839 30.55016,23.6402034 30.5270625,23.604 L30.3092631,23.2204273 Z" id="Fill-1" stroke="#FFFFFF" stroke-width="4" stroke-linejoin="round"></path>
                            <path d="M16.5,48 C25.612125,48 33,40.836 33,32 C33,28.9616839 30.55016,23.6402034 30.5270625,23.604 L30.3092631,23.2204273 L30.3092631,23.2204273 L16.5,0" id="Path" fill="#FFFFFF"></path>
                        </g>
                    </g>
                </g>
            </g>
        </g>
    </g>
</svg>