<?xml version="1.0" encoding="utf-8"?>
<!-- Generator: Adobe Illustrator 24.2.3, SVG Export Plug-In . SVG Version: 6.00 Build 0)  -->
<svg version="1.1" id="Capa_1" xmlns="http://www.w3.org/2000/svg" xmlns:xlink="http://www.w3.org/1999/xlink" x="0px" y="0px"
	 viewBox="0 0 304.4 225.1" style="enable-background:new 0 0 304.4 225.1;" xml:space="preserve">
<style type="text/css">
	.st0{display:none;}
	.st1{display:inline;}
	.st2{fill:#99CCFF;stroke:#000000;stroke-width:2;stroke-miterlimit:10;}
	.st3{fill:#CCCCCC;stroke:#000000;stroke-width:2;stroke-miterlimit:10;}
	.st4{display:inline;fill:#FFFFFF;stroke:#000000;stroke-width:2;stroke-miterlimit:10;}
	.st5{display:inline;fill:#F9754C;stroke:#000000;stroke-width:2;stroke-miterlimit:10;}
	.st6{display:inline;fill:#21A599;stroke:#000000;stroke-width:2;stroke-miterlimit:10;}
	.st7{display:inline;fill:#FFC534;stroke:#000000;stroke-width:2;stroke-miterlimit:10;}
	.st8{display:inline;fill:#CCCCCC;stroke:#000000;stroke-width:2;stroke-miterlimit:10;}
	.st9{fill:#CC6633;stroke:#000000;stroke-width:2;stroke-miterlimit:10;}
	.st10{fill:#009900;stroke:#000000;stroke-width:2;stroke-miterlimit:10;}
	.st11{fill:#CCCCFF;stroke:#000000;stroke-width:2;stroke-miterlimit:10;}
	.st12{fill:#D0CBCB;stroke:#000000;stroke-width:2;stroke-miterlimit:10;}
	.st13{fill:#FFFFFF;stroke:#000000;stroke-width:2;stroke-miterlimit:10;}
	.st14{fill:#AC9D59;stroke:#000000;stroke-width:2;stroke-miterlimit:10;}
	.st15{fill:#96928E;stroke:#000000;stroke-width:2;stroke-miterlimit:10;}
	.st16{fill:#E7CE36;stroke:#000000;stroke-width:2;stroke-miterlimit:10;}
	.st17{fill:#938300;stroke:#000000;stroke-width:2;stroke-miterlimit:10;}
	.st18{fill:#BBC3FF;stroke:#000000;stroke-width:2;stroke-miterlimit:10;}
	.st19{fill:#DFC5CD;stroke:#000000;stroke-width:2;stroke-miterlimit:10;}
	.st20{display:inline;fill:#C29545;stroke:#000000;stroke-width:2;stroke-miterlimit:10;}
	.st21{display:inline;fill:#9C8F9E;stroke:#000000;stroke-width:2;stroke-miterlimit:10;}
	.st22{display:inline;fill:#FFC450;stroke:#000000;stroke-width:2;stroke-miterlimit:10;}
	.st23{display:inline;fill:#DFC5CD;stroke:#000000;stroke-width:2;stroke-miterlimit:10;}
	.st24{fill:#A47C21;stroke:#000000;stroke-width:2;stroke-miterlimit:10;}
	.st25{fill:#91D1E2;stroke:#000000;stroke-width:2;stroke-miterlimit:10;}
	.st26{fill:#CECADA;stroke:#000000;stroke-width:2;stroke-miterlimit:10;}
	.st27{display:inline;fill:#FB7077;stroke:#000000;stroke-width:2;stroke-miterlimit:10;}
	.st28{display:inline;fill:#32A2AF;stroke:#000000;stroke-width:2;stroke-miterlimit:10;}
	.st29{display:inline;fill:#FFBCC7;stroke:#000000;stroke-width:2;stroke-miterlimit:10;}
	.st30{display:inline;fill:#CECADA;stroke:#000000;stroke-width:2;stroke-miterlimit:10;}
	.st31{fill:#CE6067;stroke:#000000;stroke-width:2;stroke-miterlimit:10;}
	.st32{fill:#408E9A;stroke:#000000;stroke-width:2;stroke-miterlimit:10;}
</style>
<g id="vision_bien" class="st0">
	<g class="st1">
		<path class="st2" d="M3.5,214.5c0,4.4,3.6,8,8,8h282c4.4,0,8-3.6,8-8V23.6H3.5V214.5z"/>
		<path class="st3" d="M293.5,3h-282c-4.4,0-8,3.6-8,8v12.6h298V11C301.5,6.6,297.9,3,293.5,3z"/>
	</g>
	<path class="st4" d="M288,18.6H65.4c-2.6,0-4.7-2.1-4.7-4.7v0c0-2.6,2.1-4.7,4.7-4.7H288c2.6,0,4.7,2.1,4.7,4.7v0
		C292.8,16.5,290.6,18.6,288,18.6z"/>
	<path class="st5" d="M16.9,18.8L16.9,18.8c-2.8,0-5-2.2-5-5v0c0-2.7,2.2-5,5-5h0c2.7,0,5,2.2,5,5v0C21.9,16.6,19.6,18.8,16.9,18.8z
		"/>
	<path class="st6" d="M47.8,18.8L47.8,18.8c-2.8,0-5-2.2-5-5v0c0-2.7,2.2-5,5-5h0c2.7,0,5,2.2,5,5v0C52.8,16.6,50.5,18.8,47.8,18.8z
		"/>
	<path class="st7" d="M32.6,18.8L32.6,18.8c-2.8,0-5-2.2-5-5v0c0-2.7,2.2-5,5-5h0c2.8,0,5,2.2,5,5v0C37.6,16.6,35.3,18.8,32.6,18.8z
		"/>
	<path class="st8" d="M250.2,59.3H54.8c-3,0-5.5,2.1-5.5,4.6v7.3v110.8c0,2.6,2.5,4.6,5.5,4.6h195.4c3,0,5.5-2.1,5.5-4.6V71.3V64
		C255.7,61.4,253.2,59.3,250.2,59.3z"/>
	<g class="st1">
		<g>
			<path d="M84.4,97.3h-1.7c-0.1-0.4-0.2-0.7-0.4-0.9c-0.2-0.3-0.4-0.5-0.6-0.7c-0.3-0.2-0.5-0.3-0.8-0.4c-0.3-0.1-0.6-0.1-1-0.1
				c-0.6,0-1.2,0.2-1.7,0.5c-0.5,0.3-0.9,0.8-1.2,1.4c-0.3,0.6-0.4,1.4-0.4,2.2c0,0.9,0.1,1.6,0.4,2.2c0.3,0.6,0.7,1.1,1.2,1.4
				s1.1,0.5,1.7,0.5c0.3,0,0.7,0,1-0.1c0.3-0.1,0.6-0.2,0.8-0.4c0.3-0.2,0.5-0.4,0.6-0.7s0.3-0.6,0.4-0.9l1.7,0
				c-0.1,0.5-0.3,1-0.5,1.5s-0.6,0.8-1,1.2c-0.4,0.3-0.8,0.6-1.4,0.8s-1.1,0.3-1.7,0.3c-0.9,0-1.8-0.2-2.5-0.7
				c-0.7-0.4-1.3-1.1-1.7-1.9s-0.6-1.8-0.6-3c0-1.2,0.2-2.2,0.6-3c0.4-0.8,1-1.5,1.7-1.9c0.7-0.4,1.6-0.7,2.5-0.7
				c0.6,0,1.1,0.1,1.6,0.2c0.5,0.2,1,0.4,1.4,0.7s0.7,0.7,1,1.2C84.2,96.2,84.3,96.7,84.4,97.3z"/>
			<path d="M89.7,104.8c-0.8,0-1.4-0.2-2-0.5s-1-0.8-1.3-1.5c-0.3-0.6-0.5-1.4-0.5-2.2c0-0.8,0.2-1.6,0.5-2.2s0.8-1.1,1.3-1.5
				s1.2-0.5,2-0.5s1.4,0.2,2,0.5c0.6,0.4,1,0.8,1.3,1.5s0.5,1.4,0.5,2.2c0,0.8-0.2,1.6-0.5,2.2c-0.3,0.6-0.8,1.1-1.3,1.5
				C91.2,104.6,90.5,104.8,89.7,104.8z M89.7,103.5c0.5,0,0.9-0.1,1.2-0.4s0.6-0.6,0.7-1c0.2-0.4,0.2-0.9,0.2-1.4
				c0-0.5-0.1-1-0.2-1.4c-0.2-0.4-0.4-0.8-0.7-1.1c-0.3-0.3-0.7-0.4-1.2-0.4c-0.5,0-0.9,0.1-1.2,0.4c-0.3,0.3-0.6,0.6-0.7,1.1
				c-0.2,0.4-0.2,0.9-0.2,1.4c0,0.5,0.1,1,0.2,1.4c0.2,0.4,0.4,0.8,0.7,1C88.8,103.3,89.2,103.5,89.7,103.5z"/>
			<path d="M96.9,99.8v4.9h-1.6v-8.2h1.5v1.3h0.1c0.2-0.4,0.5-0.8,0.9-1c0.4-0.3,0.9-0.4,1.5-0.4c0.6,0,1,0.1,1.5,0.3
				c0.4,0.2,0.7,0.6,1,1s0.3,1,0.3,1.7v5.2h-1.6v-5c0-0.6-0.2-1.1-0.5-1.4c-0.3-0.3-0.7-0.5-1.3-0.5c-0.4,0-0.7,0.1-1,0.2
				c-0.3,0.2-0.5,0.4-0.7,0.7C97,99,96.9,99.4,96.9,99.8z"/>
			<path d="M108.2,96.5v1.3h-4.6v-1.3H108.2z M104.8,104.7v-9.1c0-0.5,0.1-0.9,0.3-1.3c0.2-0.3,0.5-0.6,0.9-0.8
				c0.4-0.2,0.8-0.3,1.2-0.3c0.3,0,0.6,0,0.8,0.1c0.2,0.1,0.4,0.1,0.5,0.1l-0.4,1.3c-0.1,0-0.2,0-0.3-0.1s-0.3,0-0.4,0
				c-0.4,0-0.7,0.1-0.8,0.3c-0.2,0.2-0.2,0.5-0.2,0.8v8.9H104.8z"/>
			<path d="M110.6,95.2c-0.3,0-0.5-0.1-0.7-0.3c-0.2-0.2-0.3-0.4-0.3-0.7c0-0.3,0.1-0.5,0.3-0.7c0.2-0.2,0.4-0.3,0.7-0.3
				s0.5,0.1,0.7,0.3c0.2,0.2,0.3,0.4,0.3,0.7c0,0.3-0.1,0.5-0.3,0.7C111.1,95.1,110.9,95.2,110.6,95.2z M109.8,104.7v-8.2h1.6v8.2
				H109.8z"/>
			<path d="M113.5,104.7v-8.2h1.5v1.3h0.1c0.1-0.4,0.4-0.8,0.8-1s0.8-0.4,1.3-0.4c0.1,0,0.2,0,0.4,0c0.1,0,0.2,0,0.3,0v1.5
				c-0.1,0-0.2,0-0.3-0.1c-0.2,0-0.3,0-0.5,0c-0.4,0-0.7,0.1-1,0.2c-0.3,0.2-0.5,0.4-0.7,0.7s-0.3,0.6-0.3,1v5H113.5z"/>
			<path d="M119.3,104.7v-8.2h1.5v1.3h0.1c0.2-0.5,0.4-0.8,0.8-1.1c0.4-0.3,0.9-0.4,1.4-0.4c0.5,0,1,0.1,1.4,0.4s0.6,0.6,0.8,1.1
				h0.1c0.2-0.4,0.5-0.8,0.9-1c0.4-0.3,0.9-0.4,1.5-0.4c0.7,0,1.3,0.2,1.8,0.7c0.5,0.5,0.7,1.2,0.7,2.1v5.5h-1.6v-5.3
				c0-0.6-0.2-1-0.5-1.2s-0.7-0.4-1.1-0.4c-0.5,0-0.9,0.2-1.2,0.5c-0.3,0.3-0.4,0.7-0.4,1.2v5.2h-1.6v-5.4c0-0.4-0.1-0.8-0.4-1.1
				c-0.3-0.3-0.6-0.4-1.1-0.4c-0.3,0-0.6,0.1-0.8,0.2c-0.3,0.2-0.5,0.4-0.6,0.7c-0.2,0.3-0.2,0.6-0.2,1v5H119.3z"/>
			<path d="M134.9,104.8c-0.5,0-1-0.1-1.4-0.3c-0.4-0.2-0.8-0.5-1-0.8c-0.2-0.4-0.4-0.8-0.4-1.4c0-0.5,0.1-0.8,0.3-1.1
				c0.2-0.3,0.4-0.5,0.7-0.7c0.3-0.2,0.6-0.3,1-0.4c0.4-0.1,0.8-0.2,1.1-0.2c0.5-0.1,0.9-0.1,1.2-0.1c0.3,0,0.5-0.1,0.7-0.2
				c0.1-0.1,0.2-0.2,0.2-0.4v0c0-0.5-0.1-0.8-0.4-1.1c-0.3-0.3-0.6-0.4-1.2-0.4c-0.5,0-1,0.1-1.3,0.4s-0.5,0.5-0.6,0.8l-1.5-0.3
				c0.2-0.5,0.4-0.9,0.8-1.2s0.7-0.5,1.2-0.7c0.4-0.1,0.9-0.2,1.4-0.2c0.3,0,0.7,0,1,0.1s0.7,0.2,1,0.4c0.3,0.2,0.6,0.5,0.8,0.9
				c0.2,0.4,0.3,0.9,0.3,1.5v5.4h-1.6v-1.1h-0.1c-0.1,0.2-0.3,0.4-0.5,0.6c-0.2,0.2-0.5,0.4-0.8,0.5S135.4,104.8,134.9,104.8z
				 M135.3,103.6c0.4,0,0.8-0.1,1.1-0.3c0.3-0.2,0.6-0.4,0.7-0.7c0.2-0.3,0.2-0.6,0.2-0.9v-1.1c-0.1,0.1-0.2,0.1-0.3,0.2
				s-0.3,0.1-0.6,0.1s-0.4,0.1-0.6,0.1c-0.2,0-0.4,0-0.5,0.1c-0.3,0-0.6,0.1-0.8,0.2s-0.5,0.2-0.6,0.4c-0.2,0.2-0.2,0.4-0.2,0.7
				c0,0.4,0.1,0.7,0.4,0.9C134.5,103.5,134.8,103.6,135.3,103.6z"/>
			<path d="M141.1,104.7v-8.2h1.5v1.3h0.1c0.1-0.4,0.4-0.8,0.8-1s0.8-0.4,1.3-0.4c0.1,0,0.2,0,0.4,0c0.1,0,0.2,0,0.3,0v1.5
				c-0.1,0-0.2,0-0.3-0.1c-0.2,0-0.3,0-0.5,0c-0.4,0-0.7,0.1-1,0.2c-0.3,0.2-0.5,0.4-0.7,0.7s-0.3,0.6-0.3,1v5H141.1z"/>
			<path d="M154.4,104.8c-0.8,0-1.5-0.2-2.1-0.5c-0.6-0.3-1-0.8-1.3-1.5c-0.3-0.6-0.5-1.4-0.5-2.2c0-0.8,0.2-1.6,0.5-2.2
				c0.3-0.6,0.8-1.1,1.3-1.5c0.6-0.4,1.2-0.5,2-0.5c0.5,0,0.9,0.1,1.3,0.2c0.4,0.2,0.8,0.4,1.2,0.7c0.3,0.3,0.6,0.8,0.8,1.3
				c0.2,0.5,0.3,1.2,0.3,1.9v0.6h-6.5v-1.2h4.9c0-0.4-0.1-0.8-0.3-1.1c-0.2-0.3-0.4-0.6-0.7-0.8c-0.3-0.2-0.7-0.3-1.1-0.3
				c-0.4,0-0.8,0.1-1.2,0.3s-0.6,0.5-0.8,0.9c-0.2,0.4-0.3,0.7-0.3,1.1v0.9c0,0.5,0.1,1,0.3,1.4c0.2,0.4,0.5,0.7,0.8,0.9
				s0.8,0.3,1.2,0.3c0.3,0,0.6,0,0.8-0.1c0.2-0.1,0.5-0.2,0.6-0.4c0.2-0.2,0.3-0.4,0.4-0.6l1.5,0.3c-0.1,0.4-0.3,0.8-0.6,1.2
				c-0.3,0.3-0.7,0.6-1.2,0.8C155.5,104.7,154.9,104.8,154.4,104.8z"/>
			<path d="M161.2,93.7v10.9h-1.6V93.7H161.2z"/>
			<path d="M164.2,95.2c-0.3,0-0.5-0.1-0.7-0.3c-0.2-0.2-0.3-0.4-0.3-0.7c0-0.3,0.1-0.5,0.3-0.7c0.2-0.2,0.4-0.3,0.7-0.3
				s0.5,0.1,0.7,0.3c0.2,0.2,0.3,0.4,0.3,0.7c0,0.3-0.1,0.5-0.3,0.7C164.7,95.1,164.4,95.2,164.2,95.2z M163.4,104.7v-8.2h1.6v8.2
				H163.4z"/>
			<path d="M167.1,104.7v-8.2h1.5v1.3h0.1c0.2-0.5,0.4-0.8,0.8-1.1c0.4-0.3,0.9-0.4,1.4-0.4c0.5,0,1,0.1,1.4,0.4s0.6,0.6,0.8,1.1
				h0.1c0.2-0.4,0.5-0.8,0.9-1c0.4-0.3,0.9-0.4,1.5-0.4c0.7,0,1.3,0.2,1.8,0.7c0.5,0.5,0.7,1.2,0.7,2.1v5.5h-1.6v-5.3
				c0-0.6-0.2-1-0.5-1.2s-0.7-0.4-1.1-0.4c-0.5,0-0.9,0.2-1.2,0.5c-0.3,0.3-0.4,0.7-0.4,1.2v5.2h-1.6v-5.4c0-0.4-0.1-0.8-0.4-1.1
				c-0.3-0.3-0.6-0.4-1.1-0.4c-0.3,0-0.6,0.1-0.8,0.2c-0.3,0.2-0.5,0.4-0.6,0.7c-0.2,0.3-0.2,0.6-0.2,1v5H167.1z"/>
			<path d="M181.2,95.2c-0.3,0-0.5-0.1-0.7-0.3c-0.2-0.2-0.3-0.4-0.3-0.7c0-0.3,0.1-0.5,0.3-0.7c0.2-0.2,0.4-0.3,0.7-0.3
				s0.5,0.1,0.7,0.3c0.2,0.2,0.3,0.4,0.3,0.7c0,0.3-0.1,0.5-0.3,0.7C181.7,95.1,181.4,95.2,181.2,95.2z M180.4,104.7v-8.2h1.6v8.2
				H180.4z"/>
			<path d="M185.7,99.8v4.9h-1.6v-8.2h1.5v1.3h0.1c0.2-0.4,0.5-0.8,0.9-1c0.4-0.3,0.9-0.4,1.5-0.4c0.6,0,1,0.1,1.5,0.3s0.7,0.6,1,1
				c0.2,0.5,0.3,1,0.3,1.7v5.2h-1.6v-5c0-0.6-0.2-1.1-0.5-1.4c-0.3-0.3-0.7-0.5-1.3-0.5c-0.4,0-0.7,0.1-1,0.2
				c-0.3,0.2-0.5,0.4-0.7,0.7C185.8,99,185.7,99.4,185.7,99.8z"/>
			<path d="M195.4,104.8c-0.5,0-1-0.1-1.4-0.3c-0.4-0.2-0.8-0.5-1-0.8c-0.2-0.4-0.4-0.8-0.4-1.4c0-0.5,0.1-0.8,0.3-1.1
				s0.4-0.5,0.7-0.7s0.6-0.3,1-0.4s0.8-0.2,1.1-0.2c0.5-0.1,0.9-0.1,1.2-0.1s0.5-0.1,0.7-0.2c0.1-0.1,0.2-0.2,0.2-0.4v0
				c0-0.5-0.1-0.8-0.4-1.1s-0.6-0.4-1.2-0.4c-0.5,0-1,0.1-1.3,0.4c-0.3,0.2-0.5,0.5-0.6,0.8l-1.5-0.3c0.2-0.5,0.4-0.9,0.8-1.2
				s0.7-0.5,1.2-0.7c0.4-0.1,0.9-0.2,1.4-0.2c0.3,0,0.7,0,1,0.1c0.4,0.1,0.7,0.2,1,0.4c0.3,0.2,0.6,0.5,0.8,0.9s0.3,0.9,0.3,1.5v5.4
				h-1.6v-1.1h-0.1c-0.1,0.2-0.3,0.4-0.5,0.6s-0.5,0.4-0.8,0.5C196.3,104.8,195.9,104.8,195.4,104.8z M195.8,103.6
				c0.4,0,0.8-0.1,1.1-0.3c0.3-0.2,0.6-0.4,0.7-0.7c0.2-0.3,0.2-0.6,0.2-0.9v-1.1c-0.1,0.1-0.2,0.1-0.3,0.2c-0.2,0-0.3,0.1-0.6,0.1
				s-0.4,0.1-0.6,0.1c-0.2,0-0.4,0-0.5,0.1c-0.3,0-0.6,0.1-0.8,0.2s-0.5,0.2-0.6,0.4c-0.2,0.2-0.2,0.4-0.2,0.7
				c0,0.4,0.1,0.7,0.4,0.9C195,103.5,195.3,103.6,195.8,103.6z"/>
			<path d="M205,104.8c-0.8,0-1.5-0.2-2-0.5c-0.6-0.4-1-0.9-1.3-1.5s-0.5-1.4-0.5-2.2c0-0.8,0.2-1.6,0.5-2.2
				c0.3-0.6,0.8-1.1,1.3-1.5c0.6-0.4,1.2-0.5,2-0.5c0.6,0,1.2,0.1,1.7,0.3s0.9,0.5,1.2,1c0.3,0.4,0.5,0.9,0.5,1.4h-1.5
				c-0.1-0.4-0.3-0.7-0.6-1c-0.3-0.3-0.7-0.4-1.2-0.4c-0.4,0-0.8,0.1-1.2,0.3c-0.3,0.2-0.6,0.6-0.8,1c-0.2,0.4-0.3,0.9-0.3,1.5
				c0,0.6,0.1,1.1,0.3,1.5c0.2,0.4,0.4,0.8,0.8,1c0.3,0.2,0.7,0.4,1.2,0.4c0.3,0,0.6-0.1,0.8-0.2c0.2-0.1,0.5-0.3,0.6-0.5
				c0.2-0.2,0.3-0.5,0.4-0.8h1.5c-0.1,0.5-0.2,1-0.5,1.4c-0.3,0.4-0.7,0.7-1.2,1S205.7,104.8,205,104.8z"/>
			<path d="M210.9,95.2c-0.3,0-0.5-0.1-0.7-0.3c-0.2-0.2-0.3-0.4-0.3-0.7c0-0.3,0.1-0.5,0.3-0.7c0.2-0.2,0.4-0.3,0.7-0.3
				s0.5,0.1,0.7,0.3c0.2,0.2,0.3,0.4,0.3,0.7c0,0.3-0.1,0.5-0.3,0.7C211.4,95.1,211.2,95.2,210.9,95.2z M210.1,104.7v-8.2h1.6v8.2
				H210.1z"/>
			<path d="M217.3,104.8c-0.8,0-1.4-0.2-2-0.5c-0.6-0.4-1-0.8-1.3-1.5c-0.3-0.6-0.5-1.4-0.5-2.2c0-0.8,0.2-1.6,0.5-2.2
				c0.3-0.6,0.8-1.1,1.3-1.5c0.6-0.4,1.2-0.5,2-0.5c0.8,0,1.4,0.2,2,0.5c0.6,0.4,1,0.8,1.3,1.5c0.3,0.6,0.5,1.4,0.5,2.2
				c0,0.8-0.2,1.6-0.5,2.2c-0.3,0.6-0.8,1.1-1.3,1.5C218.7,104.6,218.1,104.8,217.3,104.8z M217.3,103.5c0.5,0,0.9-0.1,1.2-0.4
				c0.3-0.3,0.6-0.6,0.7-1c0.2-0.4,0.2-0.9,0.2-1.4c0-0.5-0.1-1-0.2-1.4c-0.2-0.4-0.4-0.8-0.7-1.1c-0.3-0.3-0.7-0.4-1.2-0.4
				c-0.5,0-0.9,0.1-1.2,0.4c-0.3,0.3-0.6,0.6-0.7,1.1c-0.2,0.4-0.2,0.9-0.2,1.4c0,0.5,0.1,1,0.2,1.4c0.2,0.4,0.4,0.8,0.7,1
				C216.4,103.3,216.8,103.5,217.3,103.5z M216.6,95.4l1.2-2.5h1.7l-1.7,2.5H216.6z"/>
			<path d="M224.5,99.8v4.9h-1.6v-8.2h1.5v1.3h0.1c0.2-0.4,0.5-0.8,0.9-1c0.4-0.3,0.9-0.4,1.5-0.4c0.6,0,1,0.1,1.5,0.3s0.7,0.6,1,1
				c0.2,0.5,0.3,1,0.3,1.7v5.2h-1.6v-5c0-0.6-0.2-1.1-0.5-1.4c-0.3-0.3-0.7-0.5-1.3-0.5c-0.4,0-0.7,0.1-1,0.2
				c-0.3,0.2-0.5,0.4-0.7,0.7C224.5,99,224.5,99.4,224.5,99.8z"/>
		</g>
	</g>
	<g class="st1">
		<path class="st9" d="M228.9,133.7h-62.4c-1,0-1.8,0.3-1.8,0.7v1v15.9c0,0.4,0.8,0.7,1.8,0.7h62.4c1,0,1.8-0.3,1.8-0.7v-15.9v-1
			C230.7,134,229.9,133.7,228.9,133.7z"/>
		<path class="st10" d="M138.4,133.7H76c-1,0-1.8,0.3-1.8,0.7v1v15.9c0,0.4,0.8,0.7,1.8,0.7h62.4c1,0,1.8-0.3,1.8-0.7v-15.9v-1
			C140.2,134,139.4,133.7,138.4,133.7z"/>
		<g>
			<g>
				<path d="M89.6,146.5h-1.2l2.6-7.3h1.3l2.6,7.3h-1.2l-2.1-6h-0.1L89.6,146.5z M89.8,143.7h3.8v0.9h-3.8V143.7z"/>
				<path d="M98.2,146.6c-0.5,0-1-0.1-1.4-0.4s-0.7-0.6-0.9-1s-0.3-0.9-0.3-1.5c0-0.6,0.1-1,0.3-1.5c0.2-0.4,0.5-0.8,0.9-1
					c0.4-0.2,0.8-0.4,1.3-0.4c0.4,0,0.8,0.1,1.1,0.2c0.3,0.2,0.6,0.4,0.8,0.6c0.2,0.3,0.3,0.6,0.4,1h-1c-0.1-0.3-0.2-0.5-0.4-0.7
					c-0.2-0.2-0.5-0.3-0.8-0.3c-0.3,0-0.6,0.1-0.8,0.2c-0.2,0.2-0.4,0.4-0.5,0.7c-0.1,0.3-0.2,0.6-0.2,1c0,0.4,0.1,0.7,0.2,1
					c0.1,0.3,0.3,0.5,0.5,0.7c0.2,0.2,0.5,0.2,0.8,0.2c0.2,0,0.4,0,0.5-0.1c0.2-0.1,0.3-0.2,0.4-0.3c0.1-0.1,0.2-0.3,0.2-0.5h1
					c0,0.4-0.2,0.7-0.3,0.9c-0.2,0.3-0.4,0.5-0.8,0.7C99,146.5,98.7,146.6,98.2,146.6z"/>
				<path d="M104,146.6c-0.5,0-1-0.1-1.4-0.3c-0.4-0.2-0.7-0.6-0.9-1c-0.2-0.4-0.3-0.9-0.3-1.5c0-0.6,0.1-1.1,0.3-1.5
					c0.2-0.4,0.5-0.8,0.9-1c0.4-0.2,0.8-0.4,1.3-0.4c0.3,0,0.6,0.1,0.9,0.2c0.3,0.1,0.5,0.3,0.8,0.5s0.4,0.5,0.5,0.8
					c0.1,0.3,0.2,0.8,0.2,1.3v0.4H102v-0.8h3.3c0-0.3-0.1-0.5-0.2-0.7c-0.1-0.2-0.3-0.4-0.5-0.5c-0.2-0.1-0.4-0.2-0.7-0.2
					c-0.3,0-0.6,0.1-0.8,0.2c-0.2,0.1-0.4,0.3-0.5,0.6c-0.1,0.2-0.2,0.5-0.2,0.8v0.6c0,0.4,0.1,0.7,0.2,0.9c0.1,0.3,0.3,0.5,0.5,0.6
					s0.5,0.2,0.8,0.2c0.2,0,0.4,0,0.6-0.1c0.2-0.1,0.3-0.1,0.4-0.3c0.1-0.1,0.2-0.3,0.3-0.4l1,0.2c-0.1,0.3-0.2,0.6-0.4,0.8
					c-0.2,0.2-0.5,0.4-0.8,0.5C104.7,146.6,104.4,146.6,104,146.6z"/>
				<path d="M107.5,148.6v-7.5h1v0.9h0.1c0.1-0.1,0.2-0.2,0.3-0.4c0.1-0.1,0.3-0.3,0.5-0.4s0.5-0.2,0.8-0.2c0.4,0,0.8,0.1,1.2,0.3
					c0.3,0.2,0.6,0.5,0.8,1s0.3,0.9,0.3,1.5c0,0.6-0.1,1.1-0.3,1.5c-0.2,0.4-0.5,0.7-0.8,1c-0.3,0.2-0.7,0.3-1.2,0.3
					c-0.3,0-0.6-0.1-0.8-0.2c-0.2-0.1-0.4-0.2-0.5-0.4c-0.1-0.1-0.2-0.3-0.3-0.4h-0.1v2.9H107.5z M108.5,143.8c0,0.4,0.1,0.7,0.2,1
					c0.1,0.3,0.3,0.5,0.5,0.7c0.2,0.2,0.5,0.2,0.8,0.2c0.3,0,0.6-0.1,0.8-0.3s0.4-0.4,0.5-0.7c0.1-0.3,0.2-0.6,0.2-1
					c0-0.4-0.1-0.7-0.2-1c-0.1-0.3-0.3-0.5-0.5-0.7c-0.2-0.2-0.5-0.2-0.8-0.2c-0.3,0-0.6,0.1-0.8,0.2c-0.2,0.2-0.4,0.4-0.5,0.7
					S108.5,143.4,108.5,143.8z"/>
				<path d="M116.2,141.1v0.9h-3v-0.9H116.2z M114,139.8h1.1v5.2c0,0.2,0,0.4,0.1,0.5c0.1,0.1,0.1,0.2,0.2,0.2
					c0.1,0,0.2,0.1,0.3,0.1c0.1,0,0.2,0,0.2,0c0.1,0,0.1,0,0.1,0l0.2,0.9c-0.1,0-0.1,0-0.3,0.1c-0.1,0-0.3,0-0.4,0
					c-0.3,0-0.5,0-0.8-0.1c-0.2-0.1-0.4-0.3-0.6-0.5c-0.1-0.2-0.2-0.5-0.2-0.8V139.8z"/>
				<path d="M119,146.6c-0.3,0-0.7-0.1-0.9-0.2s-0.5-0.3-0.7-0.6s-0.2-0.5-0.2-0.9c0-0.3,0.1-0.6,0.2-0.8s0.3-0.4,0.5-0.5
					s0.4-0.2,0.7-0.3c0.2-0.1,0.5-0.1,0.8-0.1c0.3,0,0.6-0.1,0.8-0.1c0.2,0,0.4-0.1,0.4-0.1s0.1-0.1,0.1-0.3v0
					c0-0.3-0.1-0.6-0.3-0.7c-0.2-0.2-0.4-0.3-0.8-0.3c-0.4,0-0.6,0.1-0.8,0.2c-0.2,0.2-0.3,0.3-0.4,0.5l-1-0.2
					c0.1-0.3,0.3-0.6,0.5-0.8s0.5-0.4,0.8-0.4c0.3-0.1,0.6-0.1,0.9-0.1c0.2,0,0.4,0,0.7,0.1s0.5,0.1,0.7,0.3
					c0.2,0.1,0.4,0.3,0.5,0.6c0.1,0.2,0.2,0.6,0.2,1v3.6h-1v-0.7h0c-0.1,0.1-0.2,0.3-0.3,0.4c-0.1,0.1-0.3,0.2-0.5,0.3
					C119.5,146.6,119.3,146.6,119,146.6z M119.2,145.8c0.3,0,0.5-0.1,0.8-0.2c0.2-0.1,0.4-0.3,0.5-0.5c0.1-0.2,0.2-0.4,0.2-0.6v-0.7
					c0,0-0.1,0.1-0.2,0.1c-0.1,0-0.2,0.1-0.4,0.1c-0.1,0-0.3,0-0.4,0.1c-0.1,0-0.2,0-0.3,0c-0.2,0-0.4,0.1-0.6,0.1
					c-0.2,0.1-0.3,0.2-0.4,0.3c-0.1,0.1-0.2,0.3-0.2,0.5c0,0.3,0.1,0.5,0.3,0.6C118.6,145.7,118.9,145.8,119.2,145.8z"/>
				<path d="M123.1,146.5v-5.5h1v0.9h0.1c0.1-0.3,0.3-0.5,0.5-0.7c0.3-0.2,0.5-0.3,0.9-0.3c0.1,0,0.1,0,0.2,0c0.1,0,0.2,0,0.2,0v1
					c0,0-0.1,0-0.2,0c-0.1,0-0.2,0-0.3,0c-0.3,0-0.5,0.1-0.7,0.2s-0.3,0.3-0.5,0.4c-0.1,0.2-0.2,0.4-0.2,0.6v3.3H123.1z"/>
			</g>
		</g>
		<g>
			<g>
				<path d="M176.1,146.5v-7.3h2.6c0.6,0,1,0.1,1.4,0.3c0.4,0.2,0.7,0.5,0.8,0.8s0.3,0.7,0.3,1.2c0,0.4-0.1,0.8-0.3,1.2
					c-0.2,0.3-0.5,0.6-0.8,0.8c-0.4,0.2-0.8,0.3-1.4,0.3h-2v-0.9h1.9c0.4,0,0.6-0.1,0.9-0.2c0.2-0.1,0.4-0.2,0.5-0.4
					c0.1-0.2,0.2-0.4,0.2-0.7c0-0.3-0.1-0.5-0.2-0.7s-0.3-0.4-0.5-0.5c-0.2-0.1-0.5-0.2-0.9-0.2h-1.4v6.3H176.1z M179.7,143.2
					l1.8,3.3h-1.3l-1.8-3.3H179.7z"/>
				<path d="M184.9,146.6c-0.5,0-1-0.1-1.4-0.3c-0.4-0.2-0.7-0.6-0.9-1c-0.2-0.4-0.3-0.9-0.3-1.5c0-0.6,0.1-1.1,0.3-1.5
					c0.2-0.4,0.5-0.8,0.9-1c0.4-0.2,0.8-0.4,1.3-0.4c0.3,0,0.6,0.1,0.9,0.2c0.3,0.1,0.5,0.3,0.8,0.5s0.4,0.5,0.5,0.8
					c0.1,0.3,0.2,0.8,0.2,1.3v0.4h-4.3v-0.8h3.3c0-0.3-0.1-0.5-0.2-0.7c-0.1-0.2-0.3-0.4-0.5-0.5c-0.2-0.1-0.4-0.2-0.7-0.2
					c-0.3,0-0.6,0.1-0.8,0.2s-0.4,0.3-0.5,0.6c-0.1,0.2-0.2,0.5-0.2,0.8v0.6c0,0.4,0.1,0.7,0.2,0.9s0.3,0.5,0.5,0.6
					c0.2,0.1,0.5,0.2,0.8,0.2c0.2,0,0.4,0,0.6-0.1c0.2-0.1,0.3-0.1,0.4-0.3c0.1-0.1,0.2-0.3,0.3-0.4l1,0.2c-0.1,0.3-0.2,0.6-0.4,0.8
					c-0.2,0.2-0.5,0.4-0.8,0.5C185.6,146.6,185.3,146.6,184.9,146.6z"/>
				<path d="M190.7,146.6c-0.5,0-1-0.1-1.4-0.4s-0.7-0.6-0.9-1c-0.2-0.4-0.3-0.9-0.3-1.5c0-0.6,0.1-1,0.3-1.5c0.2-0.4,0.5-0.8,0.9-1
					c0.4-0.2,0.8-0.4,1.3-0.4c0.4,0,0.8,0.1,1.1,0.2c0.3,0.2,0.6,0.4,0.8,0.6c0.2,0.3,0.3,0.6,0.4,1h-1c-0.1-0.3-0.2-0.5-0.4-0.7
					c-0.2-0.2-0.5-0.3-0.8-0.3c-0.3,0-0.6,0.1-0.8,0.2c-0.2,0.2-0.4,0.4-0.5,0.7s-0.2,0.6-0.2,1c0,0.4,0.1,0.7,0.2,1
					c0.1,0.3,0.3,0.5,0.5,0.7c0.2,0.2,0.5,0.2,0.8,0.2c0.2,0,0.4,0,0.5-0.1c0.2-0.1,0.3-0.2,0.4-0.3s0.2-0.3,0.2-0.5h1
					c0,0.4-0.2,0.7-0.3,0.9c-0.2,0.3-0.4,0.5-0.8,0.7C191.5,146.5,191.1,146.6,190.7,146.6z"/>
				<path d="M195.1,143.3v3.2h-1.1v-7.3h1v2.7h0.1c0.1-0.3,0.3-0.5,0.6-0.7s0.6-0.3,1-0.3c0.4,0,0.7,0.1,1,0.2
					c0.3,0.2,0.5,0.4,0.7,0.7c0.2,0.3,0.2,0.7,0.2,1.1v3.5h-1.1v-3.3c0-0.4-0.1-0.7-0.3-0.9s-0.5-0.3-0.9-0.3
					c-0.3,0-0.5,0.1-0.7,0.2c-0.2,0.1-0.4,0.3-0.5,0.5C195.2,142.7,195.1,143,195.1,143.3z"/>
				<path d="M201.7,146.6c-0.3,0-0.7-0.1-0.9-0.2s-0.5-0.3-0.7-0.6s-0.2-0.5-0.2-0.9c0-0.3,0.1-0.6,0.2-0.8s0.3-0.4,0.5-0.5
					s0.4-0.2,0.7-0.3c0.2-0.1,0.5-0.1,0.8-0.1c0.3,0,0.6-0.1,0.8-0.1c0.2,0,0.4-0.1,0.4-0.1s0.1-0.1,0.1-0.3v0
					c0-0.3-0.1-0.6-0.3-0.7c-0.2-0.2-0.4-0.3-0.8-0.3c-0.4,0-0.6,0.1-0.8,0.2c-0.2,0.2-0.3,0.3-0.4,0.5l-1-0.2
					c0.1-0.3,0.3-0.6,0.5-0.8s0.5-0.4,0.8-0.4c0.3-0.1,0.6-0.1,0.9-0.1c0.2,0,0.4,0,0.7,0.1s0.5,0.1,0.7,0.3
					c0.2,0.1,0.4,0.3,0.5,0.6c0.1,0.2,0.2,0.6,0.2,1v3.6h-1v-0.7h0c-0.1,0.1-0.2,0.3-0.3,0.4c-0.1,0.1-0.3,0.2-0.5,0.3
					C202.2,146.6,202,146.6,201.7,146.6z M201.9,145.8c0.3,0,0.5-0.1,0.8-0.2c0.2-0.1,0.4-0.3,0.5-0.5c0.1-0.2,0.2-0.4,0.2-0.6v-0.7
					c0,0-0.1,0.1-0.2,0.1c-0.1,0-0.2,0.1-0.4,0.1c-0.1,0-0.3,0-0.4,0.1c-0.1,0-0.2,0-0.3,0c-0.2,0-0.4,0.1-0.6,0.1s-0.3,0.2-0.4,0.3
					c-0.1,0.1-0.2,0.3-0.2,0.5c0,0.3,0.1,0.5,0.3,0.6C201.3,145.7,201.6,145.8,201.9,145.8z"/>
				<path d="M205.7,146.5v-0.7l3-3.8v0h-2.9v-0.9h4.2v0.8l-2.8,3.7v0h2.9v0.9H205.7z"/>
				<path d="M212.9,146.6c-0.3,0-0.7-0.1-0.9-0.2s-0.5-0.3-0.7-0.6s-0.2-0.5-0.2-0.9c0-0.3,0.1-0.6,0.2-0.8s0.3-0.4,0.5-0.5
					s0.4-0.2,0.7-0.3c0.2-0.1,0.5-0.1,0.8-0.1c0.3,0,0.6-0.1,0.8-0.1c0.2,0,0.4-0.1,0.4-0.1s0.1-0.1,0.1-0.3v0
					c0-0.3-0.1-0.6-0.3-0.7c-0.2-0.2-0.4-0.3-0.8-0.3c-0.4,0-0.6,0.1-0.8,0.2c-0.2,0.2-0.3,0.3-0.4,0.5l-1-0.2
					c0.1-0.3,0.3-0.6,0.5-0.8s0.5-0.4,0.8-0.4c0.3-0.1,0.6-0.1,0.9-0.1c0.2,0,0.4,0,0.7,0.1s0.5,0.1,0.7,0.3
					c0.2,0.1,0.4,0.3,0.5,0.6c0.1,0.2,0.2,0.6,0.2,1v3.6h-1v-0.7h0c-0.1,0.1-0.2,0.3-0.3,0.4c-0.1,0.1-0.3,0.2-0.5,0.3
					C213.4,146.6,213.2,146.6,212.9,146.6z M213.1,145.8c0.3,0,0.5-0.1,0.8-0.2c0.2-0.1,0.4-0.3,0.5-0.5c0.1-0.2,0.2-0.4,0.2-0.6
					v-0.7c0,0-0.1,0.1-0.2,0.1c-0.1,0-0.2,0.1-0.4,0.1c-0.1,0-0.3,0-0.4,0.1c-0.1,0-0.2,0-0.3,0c-0.2,0-0.4,0.1-0.6,0.1
					c-0.2,0.1-0.3,0.2-0.4,0.3c-0.1,0.1-0.2,0.3-0.2,0.5c0,0.3,0.1,0.5,0.3,0.6C212.6,145.7,212.8,145.8,213.1,145.8z"/>
				<path d="M217,146.5v-5.5h1v0.9h0.1c0.1-0.3,0.3-0.5,0.5-0.7c0.3-0.2,0.5-0.3,0.9-0.3c0.1,0,0.1,0,0.2,0c0.1,0,0.2,0,0.2,0v1
					c0,0-0.1,0-0.2,0c-0.1,0-0.2,0-0.3,0c-0.3,0-0.5,0.1-0.7,0.2s-0.3,0.3-0.5,0.4c-0.1,0.2-0.2,0.4-0.2,0.6v3.3H217z"/>
			</g>
		</g>
	</g>
</g>
<g id="ciego_al_rojo">
	<g>
		<path class="st11" d="M3.5,214.5c0,4.4,3.6,8,8,8h282c4.4,0,8-3.6,8-8V23.6H3.5V214.5z"/>
		<path class="st12" d="M293.5,3h-282c-4.4,0-8,3.6-8,8v12.6h298V11C301.5,6.6,297.9,3,293.5,3z"/>
	</g>
	<path class="st13" d="M288,18.6H65.4c-2.6,0-4.7-2.1-4.7-4.7v0c0-2.6,2.1-4.7,4.7-4.7H288c2.6,0,4.7,2.1,4.7,4.7v0
		C292.8,16.5,290.6,18.6,288,18.6z"/>
	<path class="st14" d="M16.9,18.8L16.9,18.8c-2.8,0-5-2.2-5-5v0c0-2.7,2.2-5,5-5h0c2.7,0,5,2.2,5,5v0C21.9,16.6,19.6,18.8,16.9,18.8
		z"/>
	<path class="st15" d="M47.8,18.8L47.8,18.8c-2.8,0-5-2.2-5-5v0c0-2.7,2.2-5,5-5h0c2.7,0,5,2.2,5,5v0C52.8,16.6,50.5,18.8,47.8,18.8
		z"/>
	<path class="st16" d="M32.6,18.8L32.6,18.8c-2.8,0-5-2.2-5-5v0c0-2.7,2.2-5,5-5h0c2.8,0,5,2.2,5,5v0C37.6,16.6,35.3,18.8,32.6,18.8
		z"/>
	<path class="st12" d="M250.2,59.3H54.8c-3,0-5.5,2.1-5.5,4.6v7.3v110.8c0,2.6,2.5,4.6,5.5,4.6h195.4c3,0,5.5-2.1,5.5-4.6V71.3V64
		C255.7,61.4,253.2,59.3,250.2,59.3z"/>
	<g>
		<g>
			<path d="M84.4,97.3h-1.7c-0.1-0.4-0.2-0.7-0.4-0.9c-0.2-0.3-0.4-0.5-0.6-0.7c-0.3-0.2-0.5-0.3-0.8-0.4c-0.3-0.1-0.6-0.1-1-0.1
				c-0.6,0-1.2,0.2-1.7,0.5c-0.5,0.3-0.9,0.8-1.2,1.4c-0.3,0.6-0.4,1.4-0.4,2.2c0,0.9,0.1,1.6,0.4,2.2c0.3,0.6,0.7,1.1,1.2,1.4
				s1.1,0.5,1.7,0.5c0.3,0,0.7,0,1-0.1c0.3-0.1,0.6-0.2,0.8-0.4c0.3-0.2,0.5-0.4,0.6-0.7s0.3-0.6,0.4-0.9l1.7,0
				c-0.1,0.5-0.3,1-0.5,1.5s-0.6,0.8-1,1.2c-0.4,0.3-0.8,0.6-1.4,0.8s-1.1,0.3-1.7,0.3c-0.9,0-1.8-0.2-2.5-0.7
				c-0.7-0.4-1.3-1.1-1.7-1.9s-0.6-1.8-0.6-3c0-1.2,0.2-2.2,0.6-3c0.4-0.8,1-1.5,1.7-1.9c0.7-0.4,1.6-0.7,2.5-0.7
				c0.6,0,1.1,0.1,1.6,0.2c0.5,0.2,1,0.4,1.4,0.7s0.7,0.7,1,1.2C84.2,96.2,84.3,96.7,84.4,97.3z"/>
			<path d="M89.7,104.8c-0.8,0-1.4-0.2-2-0.5s-1-0.8-1.3-1.5c-0.3-0.6-0.5-1.4-0.5-2.2c0-0.8,0.2-1.6,0.5-2.2s0.8-1.1,1.3-1.5
				s1.2-0.5,2-0.5s1.4,0.2,2,0.5c0.6,0.4,1,0.8,1.3,1.5s0.5,1.4,0.5,2.2c0,0.8-0.2,1.6-0.5,2.2c-0.3,0.6-0.8,1.1-1.3,1.5
				C91.2,104.6,90.5,104.8,89.7,104.8z M89.7,103.5c0.5,0,0.9-0.1,1.2-0.4s0.6-0.6,0.7-1c0.2-0.4,0.2-0.9,0.2-1.4
				c0-0.5-0.1-1-0.2-1.4c-0.2-0.4-0.4-0.8-0.7-1.1c-0.3-0.3-0.7-0.4-1.2-0.4c-0.5,0-0.9,0.1-1.2,0.4c-0.3,0.3-0.6,0.6-0.7,1.1
				c-0.2,0.4-0.2,0.9-0.2,1.4c0,0.5,0.1,1,0.2,1.4c0.2,0.4,0.4,0.8,0.7,1C88.8,103.3,89.2,103.5,89.7,103.5z"/>
			<path d="M96.9,99.8v4.9h-1.6v-8.2h1.5v1.3h0.1c0.2-0.4,0.5-0.8,0.9-1c0.4-0.3,0.9-0.4,1.5-0.4c0.6,0,1,0.1,1.5,0.3
				c0.4,0.2,0.7,0.6,1,1s0.3,1,0.3,1.7v5.2h-1.6v-5c0-0.6-0.2-1.1-0.5-1.4c-0.3-0.3-0.7-0.5-1.3-0.5c-0.4,0-0.7,0.1-1,0.2
				c-0.3,0.2-0.5,0.4-0.7,0.7C97,99,96.9,99.4,96.9,99.8z"/>
			<path d="M108.2,96.5v1.3h-4.6v-1.3H108.2z M104.8,104.7v-9.1c0-0.5,0.1-0.9,0.3-1.3c0.2-0.3,0.5-0.6,0.9-0.8
				c0.4-0.2,0.8-0.3,1.2-0.3c0.3,0,0.6,0,0.8,0.1c0.2,0.1,0.4,0.1,0.5,0.1l-0.4,1.3c-0.1,0-0.2,0-0.3-0.1s-0.3,0-0.4,0
				c-0.4,0-0.7,0.1-0.8,0.3c-0.2,0.2-0.2,0.5-0.2,0.8v8.9H104.8z"/>
			<path d="M110.6,95.2c-0.3,0-0.5-0.1-0.7-0.3c-0.2-0.2-0.3-0.4-0.3-0.7c0-0.3,0.1-0.5,0.3-0.7c0.2-0.2,0.4-0.3,0.7-0.3
				s0.5,0.1,0.7,0.3c0.2,0.2,0.3,0.4,0.3,0.7c0,0.3-0.1,0.5-0.3,0.7C111.1,95.1,110.9,95.2,110.6,95.2z M109.8,104.7v-8.2h1.6v8.2
				H109.8z"/>
			<path d="M113.5,104.7v-8.2h1.5v1.3h0.1c0.1-0.4,0.4-0.8,0.8-1s0.8-0.4,1.3-0.4c0.1,0,0.2,0,0.4,0c0.1,0,0.2,0,0.3,0v1.5
				c-0.1,0-0.2,0-0.3-0.1c-0.2,0-0.3,0-0.5,0c-0.4,0-0.7,0.1-1,0.2c-0.3,0.2-0.5,0.4-0.7,0.7s-0.3,0.6-0.3,1v5H113.5z"/>
			<path d="M119.3,104.7v-8.2h1.5v1.3h0.1c0.2-0.5,0.4-0.8,0.8-1.1c0.4-0.3,0.9-0.4,1.4-0.4c0.5,0,1,0.1,1.4,0.4s0.6,0.6,0.8,1.1
				h0.1c0.2-0.4,0.5-0.8,0.9-1c0.4-0.3,0.9-0.4,1.5-0.4c0.7,0,1.3,0.2,1.8,0.7c0.5,0.5,0.7,1.2,0.7,2.1v5.5h-1.6v-5.3
				c0-0.6-0.2-1-0.5-1.2s-0.7-0.4-1.1-0.4c-0.5,0-0.9,0.2-1.2,0.5c-0.3,0.3-0.4,0.7-0.4,1.2v5.2h-1.6v-5.4c0-0.4-0.1-0.8-0.4-1.1
				c-0.3-0.3-0.6-0.4-1.1-0.4c-0.3,0-0.6,0.1-0.8,0.2c-0.3,0.2-0.5,0.4-0.6,0.7c-0.2,0.3-0.2,0.6-0.2,1v5H119.3z"/>
			<path d="M134.9,104.8c-0.5,0-1-0.1-1.4-0.3c-0.4-0.2-0.8-0.5-1-0.8c-0.2-0.4-0.4-0.8-0.4-1.4c0-0.5,0.1-0.8,0.3-1.1
				c0.2-0.3,0.4-0.5,0.7-0.7c0.3-0.2,0.6-0.3,1-0.4c0.4-0.1,0.8-0.2,1.1-0.2c0.5-0.1,0.9-0.1,1.2-0.1c0.3,0,0.5-0.1,0.7-0.2
				c0.1-0.1,0.2-0.2,0.2-0.4v0c0-0.5-0.1-0.8-0.4-1.1c-0.3-0.3-0.6-0.4-1.2-0.4c-0.5,0-1,0.1-1.3,0.4s-0.5,0.5-0.6,0.8l-1.5-0.3
				c0.2-0.5,0.4-0.9,0.8-1.2s0.7-0.5,1.2-0.7c0.4-0.1,0.9-0.2,1.4-0.2c0.3,0,0.7,0,1,0.1s0.7,0.2,1,0.4c0.3,0.2,0.6,0.5,0.8,0.9
				c0.2,0.4,0.3,0.9,0.3,1.5v5.4h-1.6v-1.1h-0.1c-0.1,0.2-0.3,0.4-0.5,0.6c-0.2,0.2-0.5,0.4-0.8,0.5S135.4,104.8,134.9,104.8z
				 M135.3,103.6c0.4,0,0.8-0.1,1.1-0.3c0.3-0.2,0.6-0.4,0.7-0.7c0.2-0.3,0.2-0.6,0.2-0.9v-1.1c-0.1,0.1-0.2,0.1-0.3,0.2
				s-0.3,0.1-0.6,0.1s-0.4,0.1-0.6,0.1c-0.2,0-0.4,0-0.5,0.1c-0.3,0-0.6,0.1-0.8,0.2s-0.5,0.2-0.6,0.4c-0.2,0.2-0.2,0.4-0.2,0.7
				c0,0.4,0.1,0.7,0.4,0.9C134.5,103.5,134.8,103.6,135.3,103.6z"/>
			<path d="M141.1,104.7v-8.2h1.5v1.3h0.1c0.1-0.4,0.4-0.8,0.8-1s0.8-0.4,1.3-0.4c0.1,0,0.2,0,0.4,0c0.1,0,0.2,0,0.3,0v1.5
				c-0.1,0-0.2,0-0.3-0.1c-0.2,0-0.3,0-0.5,0c-0.4,0-0.7,0.1-1,0.2c-0.3,0.2-0.5,0.4-0.7,0.7s-0.3,0.6-0.3,1v5H141.1z"/>
			<path d="M154.4,104.8c-0.8,0-1.5-0.2-2.1-0.5c-0.6-0.3-1-0.8-1.3-1.5c-0.3-0.6-0.5-1.4-0.5-2.2c0-0.8,0.2-1.6,0.5-2.2
				c0.3-0.6,0.8-1.1,1.3-1.5c0.6-0.4,1.2-0.5,2-0.5c0.5,0,0.9,0.1,1.3,0.2c0.4,0.2,0.8,0.4,1.2,0.7c0.3,0.3,0.6,0.8,0.8,1.3
				c0.2,0.5,0.3,1.2,0.3,1.9v0.6h-6.5v-1.2h4.9c0-0.4-0.1-0.8-0.3-1.1c-0.2-0.3-0.4-0.6-0.7-0.8c-0.3-0.2-0.7-0.3-1.1-0.3
				c-0.4,0-0.8,0.1-1.2,0.3s-0.6,0.5-0.8,0.9c-0.2,0.4-0.3,0.7-0.3,1.1v0.9c0,0.5,0.1,1,0.3,1.4c0.2,0.4,0.5,0.7,0.8,0.9
				s0.8,0.3,1.2,0.3c0.3,0,0.6,0,0.8-0.1c0.2-0.1,0.5-0.2,0.6-0.4c0.2-0.2,0.3-0.4,0.4-0.6l1.5,0.3c-0.1,0.4-0.3,0.8-0.6,1.2
				c-0.3,0.3-0.7,0.6-1.2,0.8C155.5,104.7,154.9,104.8,154.4,104.8z"/>
			<path d="M161.2,93.7v10.9h-1.6V93.7H161.2z"/>
			<path d="M164.2,95.2c-0.3,0-0.5-0.1-0.7-0.3c-0.2-0.2-0.3-0.4-0.3-0.7c0-0.3,0.1-0.5,0.3-0.7c0.2-0.2,0.4-0.3,0.7-0.3
				s0.5,0.1,0.7,0.3c0.2,0.2,0.3,0.4,0.3,0.7c0,0.3-0.1,0.5-0.3,0.7C164.7,95.1,164.4,95.2,164.2,95.2z M163.4,104.7v-8.2h1.6v8.2
				H163.4z"/>
			<path d="M167.1,104.7v-8.2h1.5v1.3h0.1c0.2-0.5,0.4-0.8,0.8-1.1c0.4-0.3,0.9-0.4,1.4-0.4c0.5,0,1,0.1,1.4,0.4s0.6,0.6,0.8,1.1
				h0.1c0.2-0.4,0.5-0.8,0.9-1c0.4-0.3,0.9-0.4,1.5-0.4c0.7,0,1.3,0.2,1.8,0.7c0.5,0.5,0.7,1.2,0.7,2.1v5.5h-1.6v-5.3
				c0-0.6-0.2-1-0.5-1.2s-0.7-0.4-1.1-0.4c-0.5,0-0.9,0.2-1.2,0.5c-0.3,0.3-0.4,0.7-0.4,1.2v5.2h-1.6v-5.4c0-0.4-0.1-0.8-0.4-1.1
				c-0.3-0.3-0.6-0.4-1.1-0.4c-0.3,0-0.6,0.1-0.8,0.2c-0.3,0.2-0.5,0.4-0.6,0.7c-0.2,0.3-0.2,0.6-0.2,1v5H167.1z"/>
			<path d="M181.2,95.2c-0.3,0-0.5-0.1-0.7-0.3c-0.2-0.2-0.3-0.4-0.3-0.7c0-0.3,0.1-0.5,0.3-0.7c0.2-0.2,0.4-0.3,0.7-0.3
				s0.5,0.1,0.7,0.3c0.2,0.2,0.3,0.4,0.3,0.7c0,0.3-0.1,0.5-0.3,0.7C181.7,95.1,181.4,95.2,181.2,95.2z M180.4,104.7v-8.2h1.6v8.2
				H180.4z"/>
			<path d="M185.7,99.8v4.9h-1.6v-8.2h1.5v1.3h0.1c0.2-0.4,0.5-0.8,0.9-1c0.4-0.3,0.9-0.4,1.5-0.4c0.6,0,1,0.1,1.5,0.3s0.7,0.6,1,1
				c0.2,0.5,0.3,1,0.3,1.7v5.2h-1.6v-5c0-0.6-0.2-1.1-0.5-1.4c-0.3-0.3-0.7-0.5-1.3-0.5c-0.4,0-0.7,0.1-1,0.2
				c-0.3,0.2-0.5,0.4-0.7,0.7C185.8,99,185.7,99.4,185.7,99.8z"/>
			<path d="M195.4,104.8c-0.5,0-1-0.1-1.4-0.3c-0.4-0.2-0.8-0.5-1-0.8c-0.2-0.4-0.4-0.8-0.4-1.4c0-0.5,0.1-0.8,0.3-1.1
				s0.4-0.5,0.7-0.7s0.6-0.3,1-0.4s0.8-0.2,1.1-0.2c0.5-0.1,0.9-0.1,1.2-0.1s0.5-0.1,0.7-0.2c0.1-0.1,0.2-0.2,0.2-0.4v0
				c0-0.5-0.1-0.8-0.4-1.1s-0.6-0.4-1.2-0.4c-0.5,0-1,0.1-1.3,0.4c-0.3,0.2-0.5,0.5-0.6,0.8l-1.5-0.3c0.2-0.5,0.4-0.9,0.8-1.2
				s0.7-0.5,1.2-0.7c0.4-0.1,0.9-0.2,1.4-0.2c0.3,0,0.7,0,1,0.1c0.4,0.1,0.7,0.2,1,0.4c0.3,0.2,0.6,0.5,0.8,0.9s0.3,0.9,0.3,1.5v5.4
				h-1.6v-1.1h-0.1c-0.1,0.2-0.3,0.4-0.5,0.6s-0.5,0.4-0.8,0.5C196.3,104.8,195.9,104.8,195.4,104.8z M195.8,103.6
				c0.4,0,0.8-0.1,1.1-0.3c0.3-0.2,0.6-0.4,0.7-0.7c0.2-0.3,0.2-0.6,0.2-0.9v-1.1c-0.1,0.1-0.2,0.1-0.3,0.2c-0.2,0-0.3,0.1-0.6,0.1
				s-0.4,0.1-0.6,0.1c-0.2,0-0.4,0-0.5,0.1c-0.3,0-0.6,0.1-0.8,0.2s-0.5,0.2-0.6,0.4c-0.2,0.2-0.2,0.4-0.2,0.7
				c0,0.4,0.1,0.7,0.4,0.9C195,103.5,195.3,103.6,195.8,103.6z"/>
			<path d="M205,104.8c-0.8,0-1.5-0.2-2-0.5c-0.6-0.4-1-0.9-1.3-1.5s-0.5-1.4-0.5-2.2c0-0.8,0.2-1.6,0.5-2.2
				c0.3-0.6,0.8-1.1,1.3-1.5c0.6-0.4,1.2-0.5,2-0.5c0.6,0,1.2,0.1,1.7,0.3s0.9,0.5,1.2,1c0.3,0.4,0.5,0.9,0.5,1.4h-1.5
				c-0.1-0.4-0.3-0.7-0.6-1c-0.3-0.3-0.7-0.4-1.2-0.4c-0.4,0-0.8,0.1-1.2,0.3c-0.3,0.2-0.6,0.6-0.8,1c-0.2,0.4-0.3,0.9-0.3,1.5
				c0,0.6,0.1,1.1,0.3,1.5c0.2,0.4,0.4,0.8,0.8,1c0.3,0.2,0.7,0.4,1.2,0.4c0.3,0,0.6-0.1,0.8-0.2c0.2-0.1,0.5-0.3,0.6-0.5
				c0.2-0.2,0.3-0.5,0.4-0.8h1.5c-0.1,0.5-0.2,1-0.5,1.4c-0.3,0.4-0.7,0.7-1.2,1S205.7,104.8,205,104.8z"/>
			<path d="M210.9,95.2c-0.3,0-0.5-0.1-0.7-0.3c-0.2-0.2-0.3-0.4-0.3-0.7c0-0.3,0.1-0.5,0.3-0.7c0.2-0.2,0.4-0.3,0.7-0.3
				s0.5,0.1,0.7,0.3c0.2,0.2,0.3,0.4,0.3,0.7c0,0.3-0.1,0.5-0.3,0.7C211.4,95.1,211.2,95.2,210.9,95.2z M210.1,104.7v-8.2h1.6v8.2
				H210.1z"/>
			<path d="M217.3,104.8c-0.8,0-1.4-0.2-2-0.5c-0.6-0.4-1-0.8-1.3-1.5c-0.3-0.6-0.5-1.4-0.5-2.2c0-0.8,0.2-1.6,0.5-2.2
				c0.3-0.6,0.8-1.1,1.3-1.5c0.6-0.4,1.2-0.5,2-0.5c0.8,0,1.4,0.2,2,0.5c0.6,0.4,1,0.8,1.3,1.5c0.3,0.6,0.5,1.4,0.5,2.2
				c0,0.8-0.2,1.6-0.5,2.2c-0.3,0.6-0.8,1.1-1.3,1.5C218.7,104.6,218.1,104.8,217.3,104.8z M217.3,103.5c0.5,0,0.9-0.1,1.2-0.4
				c0.3-0.3,0.6-0.6,0.7-1c0.2-0.4,0.2-0.9,0.2-1.4c0-0.5-0.1-1-0.2-1.4c-0.2-0.4-0.4-0.8-0.7-1.1c-0.3-0.3-0.7-0.4-1.2-0.4
				c-0.5,0-0.9,0.1-1.2,0.4c-0.3,0.3-0.6,0.6-0.7,1.1c-0.2,0.4-0.2,0.9-0.2,1.4c0,0.5,0.1,1,0.2,1.4c0.2,0.4,0.4,0.8,0.7,1
				C216.4,103.3,216.8,103.5,217.3,103.5z M216.6,95.4l1.2-2.5h1.7l-1.7,2.5H216.6z"/>
			<path d="M224.5,99.8v4.9h-1.6v-8.2h1.5v1.3h0.1c0.2-0.4,0.5-0.8,0.9-1c0.4-0.3,0.9-0.4,1.5-0.4c0.6,0,1,0.1,1.5,0.3s0.7,0.6,1,1
				c0.2,0.5,0.3,1,0.3,1.7v5.2h-1.6v-5c0-0.6-0.2-1.1-0.5-1.4c-0.3-0.3-0.7-0.5-1.3-0.5c-0.4,0-0.7,0.1-1,0.2
				c-0.3,0.2-0.5,0.4-0.7,0.7C224.5,99,224.5,99.4,224.5,99.8z"/>
		</g>
	</g>
	<g>
		<path class="st17" d="M228.9,133.7h-62.4c-1,0-1.8,0.3-1.8,0.7v1v15.9c0,0.4,0.8,0.7,1.8,0.7h62.4c1,0,1.8-0.3,1.8-0.7v-15.9v-1
			C230.7,134,229.9,133.7,228.9,133.7z"/>
		<path class="st17" d="M138.4,133.7H76c-1,0-1.8,0.3-1.8,0.7v1v15.9c0,0.4,0.8,0.7,1.8,0.7h62.4c1,0,1.8-0.3,1.8-0.7v-15.9v-1
			C140.2,134,139.4,133.7,138.4,133.7z"/>
		<g>
			<g>
				<path d="M89.6,146.5h-1.2l2.6-7.3h1.3l2.6,7.3h-1.2l-2.1-6h-0.1L89.6,146.5z M89.8,143.7h3.8v0.9h-3.8V143.7z"/>
				<path d="M98.2,146.6c-0.5,0-1-0.1-1.4-0.4s-0.7-0.6-0.9-1s-0.3-0.9-0.3-1.5c0-0.6,0.1-1,0.3-1.5c0.2-0.4,0.5-0.8,0.9-1
					c0.4-0.2,0.8-0.4,1.3-0.4c0.4,0,0.8,0.1,1.1,0.2c0.3,0.2,0.6,0.4,0.8,0.6c0.2,0.3,0.3,0.6,0.4,1h-1c-0.1-0.3-0.2-0.5-0.4-0.7
					c-0.2-0.2-0.5-0.3-0.8-0.3c-0.3,0-0.6,0.1-0.8,0.2c-0.2,0.2-0.4,0.4-0.5,0.7c-0.1,0.3-0.2,0.6-0.2,1c0,0.4,0.1,0.7,0.2,1
					c0.1,0.3,0.3,0.5,0.5,0.7c0.2,0.2,0.5,0.2,0.8,0.2c0.2,0,0.4,0,0.5-0.1c0.2-0.1,0.3-0.2,0.4-0.3c0.1-0.1,0.2-0.3,0.2-0.5h1
					c0,0.4-0.2,0.7-0.3,0.9c-0.2,0.3-0.4,0.5-0.8,0.7C99,146.5,98.7,146.6,98.2,146.6z"/>
				<path d="M104,146.6c-0.5,0-1-0.1-1.4-0.3c-0.4-0.2-0.7-0.6-0.9-1c-0.2-0.4-0.3-0.9-0.3-1.5c0-0.6,0.1-1.1,0.3-1.5
					c0.2-0.4,0.5-0.8,0.9-1c0.4-0.2,0.8-0.4,1.3-0.4c0.3,0,0.6,0.1,0.9,0.2c0.3,0.1,0.5,0.3,0.8,0.5s0.4,0.5,0.5,0.8
					c0.1,0.3,0.2,0.8,0.2,1.3v0.4H102v-0.8h3.3c0-0.3-0.1-0.5-0.2-0.7c-0.1-0.2-0.3-0.4-0.5-0.5c-0.2-0.1-0.4-0.2-0.7-0.2
					c-0.3,0-0.6,0.1-0.8,0.2c-0.2,0.1-0.4,0.3-0.5,0.6c-0.1,0.2-0.2,0.5-0.2,0.8v0.6c0,0.4,0.1,0.7,0.2,0.9c0.1,0.3,0.3,0.5,0.5,0.6
					s0.5,0.2,0.8,0.2c0.2,0,0.4,0,0.6-0.1c0.2-0.1,0.3-0.1,0.4-0.3c0.1-0.1,0.2-0.3,0.3-0.4l1,0.2c-0.1,0.3-0.2,0.6-0.4,0.8
					c-0.2,0.2-0.5,0.4-0.8,0.5C104.7,146.6,104.4,146.6,104,146.6z"/>
				<path d="M107.5,148.6v-7.5h1v0.9h0.1c0.1-0.1,0.2-0.2,0.3-0.4c0.1-0.1,0.3-0.3,0.5-0.4s0.5-0.2,0.8-0.2c0.4,0,0.8,0.1,1.2,0.3
					c0.3,0.2,0.6,0.5,0.8,1s0.3,0.9,0.3,1.5c0,0.6-0.1,1.1-0.3,1.5c-0.2,0.4-0.5,0.7-0.8,1c-0.3,0.2-0.7,0.3-1.2,0.3
					c-0.3,0-0.6-0.1-0.8-0.2c-0.2-0.1-0.4-0.2-0.5-0.4c-0.1-0.1-0.2-0.3-0.3-0.4h-0.1v2.9H107.5z M108.5,143.8c0,0.4,0.1,0.7,0.2,1
					c0.1,0.3,0.3,0.5,0.5,0.7c0.2,0.2,0.5,0.2,0.8,0.2c0.3,0,0.6-0.1,0.8-0.3s0.4-0.4,0.5-0.7c0.1-0.3,0.2-0.6,0.2-1
					c0-0.4-0.1-0.7-0.2-1c-0.1-0.3-0.3-0.5-0.5-0.7c-0.2-0.2-0.5-0.2-0.8-0.2c-0.3,0-0.6,0.1-0.8,0.2c-0.2,0.2-0.4,0.4-0.5,0.7
					S108.5,143.4,108.5,143.8z"/>
				<path d="M116.2,141.1v0.9h-3v-0.9H116.2z M114,139.8h1.1v5.2c0,0.2,0,0.4,0.1,0.5c0.1,0.1,0.1,0.2,0.2,0.2
					c0.1,0,0.2,0.1,0.3,0.1c0.1,0,0.2,0,0.2,0c0.1,0,0.1,0,0.1,0l0.2,0.9c-0.1,0-0.1,0-0.3,0.1c-0.1,0-0.3,0-0.4,0
					c-0.3,0-0.5,0-0.8-0.1c-0.2-0.1-0.4-0.3-0.6-0.5c-0.1-0.2-0.2-0.5-0.2-0.8V139.8z"/>
				<path d="M119,146.6c-0.3,0-0.7-0.1-0.9-0.2s-0.5-0.3-0.7-0.6s-0.2-0.5-0.2-0.9c0-0.3,0.1-0.6,0.2-0.8s0.3-0.4,0.5-0.5
					s0.4-0.2,0.7-0.3c0.2-0.1,0.5-0.1,0.8-0.1c0.3,0,0.6-0.1,0.8-0.1c0.2,0,0.4-0.1,0.4-0.1s0.1-0.1,0.1-0.3v0
					c0-0.3-0.1-0.6-0.3-0.7c-0.2-0.2-0.4-0.3-0.8-0.3c-0.4,0-0.6,0.1-0.8,0.2c-0.2,0.2-0.3,0.3-0.4,0.5l-1-0.2
					c0.1-0.3,0.3-0.6,0.5-0.8s0.5-0.4,0.8-0.4c0.3-0.1,0.6-0.1,0.9-0.1c0.2,0,0.4,0,0.7,0.1s0.5,0.1,0.7,0.3
					c0.2,0.1,0.4,0.3,0.5,0.6c0.1,0.2,0.2,0.6,0.2,1v3.6h-1v-0.7h0c-0.1,0.1-0.2,0.3-0.3,0.4c-0.1,0.1-0.3,0.2-0.5,0.3
					C119.5,146.6,119.3,146.6,119,146.6z M119.2,145.8c0.3,0,0.5-0.1,0.8-0.2c0.2-0.1,0.4-0.3,0.5-0.5c0.1-0.2,0.2-0.4,0.2-0.6v-0.7
					c0,0-0.1,0.1-0.2,0.1c-0.1,0-0.2,0.1-0.4,0.1c-0.1,0-0.3,0-0.4,0.1c-0.1,0-0.2,0-0.3,0c-0.2,0-0.4,0.1-0.6,0.1
					c-0.2,0.1-0.3,0.2-0.4,0.3c-0.1,0.1-0.2,0.3-0.2,0.5c0,0.3,0.1,0.5,0.3,0.6C118.6,145.7,118.9,145.8,119.2,145.8z"/>
				<path d="M123.1,146.5v-5.5h1v0.9h0.1c0.1-0.3,0.3-0.5,0.5-0.7c0.3-0.2,0.5-0.3,0.9-0.3c0.1,0,0.1,0,0.2,0c0.1,0,0.2,0,0.2,0v1
					c0,0-0.1,0-0.2,0c-0.1,0-0.2,0-0.3,0c-0.3,0-0.5,0.1-0.7,0.2s-0.3,0.3-0.5,0.4c-0.1,0.2-0.2,0.4-0.2,0.6v3.3H123.1z"/>
			</g>
		</g>
		<g>
			<g>
				<path d="M176.1,146.5v-7.3h2.6c0.6,0,1,0.1,1.4,0.3c0.4,0.2,0.7,0.5,0.8,0.8s0.3,0.7,0.3,1.2c0,0.4-0.1,0.8-0.3,1.2
					c-0.2,0.3-0.5,0.6-0.8,0.8c-0.4,0.2-0.8,0.3-1.4,0.3h-2v-0.9h1.9c0.4,0,0.6-0.1,0.9-0.2c0.2-0.1,0.4-0.2,0.5-0.4
					c0.1-0.2,0.2-0.4,0.2-0.7c0-0.3-0.1-0.5-0.2-0.7s-0.3-0.4-0.5-0.5c-0.2-0.1-0.5-0.2-0.9-0.2h-1.4v6.3H176.1z M179.7,143.2
					l1.8,3.3h-1.3l-1.8-3.3H179.7z"/>
				<path d="M184.9,146.6c-0.5,0-1-0.1-1.4-0.3c-0.4-0.2-0.7-0.6-0.9-1c-0.2-0.4-0.3-0.9-0.3-1.5c0-0.6,0.1-1.1,0.3-1.5
					c0.2-0.4,0.5-0.8,0.9-1c0.4-0.2,0.8-0.4,1.3-0.4c0.3,0,0.6,0.1,0.9,0.2c0.3,0.1,0.5,0.3,0.8,0.5s0.4,0.5,0.5,0.8
					c0.1,0.3,0.2,0.8,0.2,1.3v0.4h-4.3v-0.8h3.3c0-0.3-0.1-0.5-0.2-0.7c-0.1-0.2-0.3-0.4-0.5-0.5c-0.2-0.1-0.4-0.2-0.7-0.2
					c-0.3,0-0.6,0.1-0.8,0.2s-0.4,0.3-0.5,0.6c-0.1,0.2-0.2,0.5-0.2,0.8v0.6c0,0.4,0.1,0.7,0.2,0.9s0.3,0.5,0.5,0.6
					c0.2,0.1,0.5,0.2,0.8,0.2c0.2,0,0.4,0,0.6-0.1c0.2-0.1,0.3-0.1,0.4-0.3c0.1-0.1,0.2-0.3,0.3-0.4l1,0.2c-0.1,0.3-0.2,0.6-0.4,0.8
					c-0.2,0.2-0.5,0.4-0.8,0.5C185.6,146.6,185.3,146.6,184.9,146.6z"/>
				<path d="M190.7,146.6c-0.5,0-1-0.1-1.4-0.4s-0.7-0.6-0.9-1c-0.2-0.4-0.3-0.9-0.3-1.5c0-0.6,0.1-1,0.3-1.5c0.2-0.4,0.5-0.8,0.9-1
					c0.4-0.2,0.8-0.4,1.3-0.4c0.4,0,0.8,0.1,1.1,0.2c0.3,0.2,0.6,0.4,0.8,0.6c0.2,0.3,0.3,0.6,0.4,1h-1c-0.1-0.3-0.2-0.5-0.4-0.7
					c-0.2-0.2-0.5-0.3-0.8-0.3c-0.3,0-0.6,0.1-0.8,0.2c-0.2,0.2-0.4,0.4-0.5,0.7s-0.2,0.6-0.2,1c0,0.4,0.1,0.7,0.2,1
					c0.1,0.3,0.3,0.5,0.5,0.7c0.2,0.2,0.5,0.2,0.8,0.2c0.2,0,0.4,0,0.5-0.1c0.2-0.1,0.3-0.2,0.4-0.3s0.2-0.3,0.2-0.5h1
					c0,0.4-0.2,0.7-0.3,0.9c-0.2,0.3-0.4,0.5-0.8,0.7C191.5,146.5,191.1,146.6,190.7,146.6z"/>
				<path d="M195.1,143.3v3.2h-1.1v-7.3h1v2.7h0.1c0.1-0.3,0.3-0.5,0.6-0.7s0.6-0.3,1-0.3c0.4,0,0.7,0.1,1,0.2
					c0.3,0.2,0.5,0.4,0.7,0.7c0.2,0.3,0.2,0.7,0.2,1.1v3.5h-1.1v-3.3c0-0.4-0.1-0.7-0.3-0.9s-0.5-0.3-0.9-0.3
					c-0.3,0-0.5,0.1-0.7,0.2c-0.2,0.1-0.4,0.3-0.5,0.5C195.2,142.7,195.1,143,195.1,143.3z"/>
				<path d="M201.7,146.6c-0.3,0-0.7-0.1-0.9-0.2s-0.5-0.3-0.7-0.6s-0.2-0.5-0.2-0.9c0-0.3,0.1-0.6,0.2-0.8s0.3-0.4,0.5-0.5
					s0.4-0.2,0.7-0.3c0.2-0.1,0.5-0.1,0.8-0.1c0.3,0,0.6-0.1,0.8-0.1c0.2,0,0.4-0.1,0.4-0.1s0.1-0.1,0.1-0.3v0
					c0-0.3-0.1-0.6-0.3-0.7c-0.2-0.2-0.4-0.3-0.8-0.3c-0.4,0-0.6,0.1-0.8,0.2c-0.2,0.2-0.3,0.3-0.4,0.5l-1-0.2
					c0.1-0.3,0.3-0.6,0.5-0.8s0.5-0.4,0.8-0.4c0.3-0.1,0.6-0.1,0.9-0.1c0.2,0,0.4,0,0.7,0.1s0.5,0.1,0.7,0.3
					c0.2,0.1,0.4,0.3,0.5,0.6c0.1,0.2,0.2,0.6,0.2,1v3.6h-1v-0.7h0c-0.1,0.1-0.2,0.3-0.3,0.4c-0.1,0.1-0.3,0.2-0.5,0.3
					C202.2,146.6,202,146.6,201.7,146.6z M201.9,145.8c0.3,0,0.5-0.1,0.8-0.2c0.2-0.1,0.4-0.3,0.5-0.5c0.1-0.2,0.2-0.4,0.2-0.6v-0.7
					c0,0-0.1,0.1-0.2,0.1c-0.1,0-0.2,0.1-0.4,0.1c-0.1,0-0.3,0-0.4,0.1c-0.1,0-0.2,0-0.3,0c-0.2,0-0.4,0.1-0.6,0.1s-0.3,0.2-0.4,0.3
					c-0.1,0.1-0.2,0.3-0.2,0.5c0,0.3,0.1,0.5,0.3,0.6C201.3,145.7,201.6,145.8,201.9,145.8z"/>
				<path d="M205.7,146.5v-0.7l3-3.8v0h-2.9v-0.9h4.2v0.8l-2.8,3.7v0h2.9v0.9H205.7z"/>
				<path d="M212.9,146.6c-0.3,0-0.7-0.1-0.9-0.2s-0.5-0.3-0.7-0.6s-0.2-0.5-0.2-0.9c0-0.3,0.1-0.6,0.2-0.8s0.3-0.4,0.5-0.5
					s0.4-0.2,0.7-0.3c0.2-0.1,0.5-0.1,0.8-0.1c0.3,0,0.6-0.1,0.8-0.1c0.2,0,0.4-0.1,0.4-0.1s0.1-0.1,0.1-0.3v0
					c0-0.3-0.1-0.6-0.3-0.7c-0.2-0.2-0.4-0.3-0.8-0.3c-0.4,0-0.6,0.1-0.8,0.2c-0.2,0.2-0.3,0.3-0.4,0.5l-1-0.2
					c0.1-0.3,0.3-0.6,0.5-0.8s0.5-0.4,0.8-0.4c0.3-0.1,0.6-0.1,0.9-0.1c0.2,0,0.4,0,0.7,0.1s0.5,0.1,0.7,0.3
					c0.2,0.1,0.4,0.3,0.5,0.6c0.1,0.2,0.2,0.6,0.2,1v3.6h-1v-0.7h0c-0.1,0.1-0.2,0.3-0.3,0.4c-0.1,0.1-0.3,0.2-0.5,0.3
					C213.4,146.6,213.2,146.6,212.9,146.6z M213.1,145.8c0.3,0,0.5-0.1,0.8-0.2c0.2-0.1,0.4-0.3,0.5-0.5c0.1-0.2,0.2-0.4,0.2-0.6
					v-0.7c0,0-0.1,0.1-0.2,0.1c-0.1,0-0.2,0.1-0.4,0.1c-0.1,0-0.3,0-0.4,0.1c-0.1,0-0.2,0-0.3,0c-0.2,0-0.4,0.1-0.6,0.1
					c-0.2,0.1-0.3,0.2-0.4,0.3c-0.1,0.1-0.2,0.3-0.2,0.5c0,0.3,0.1,0.5,0.3,0.6C212.6,145.7,212.8,145.8,213.1,145.8z"/>
				<path d="M217,146.5v-5.5h1v0.9h0.1c0.1-0.3,0.3-0.5,0.5-0.7c0.3-0.2,0.5-0.3,0.9-0.3c0.1,0,0.1,0,0.2,0c0.1,0,0.2,0,0.2,0v1
					c0,0-0.1,0-0.2,0c-0.1,0-0.2,0-0.3,0c-0.3,0-0.5,0.1-0.7,0.2s-0.3,0.3-0.5,0.4c-0.1,0.2-0.2,0.4-0.2,0.6v3.3H217z"/>
			</g>
		</g>
	</g>
</g>
<g id="ciego_al_verde" class="st0">
	<g class="st1">
		<path class="st18" d="M3.5,214.5c0,4.4,3.6,8,8,8h282c4.4,0,8-3.6,8-8V23.6H3.5V214.5z"/>
		<path class="st19" d="M293.5,3h-282c-4.4,0-8,3.6-8,8v12.6h298V11C301.5,6.6,297.9,3,293.5,3z"/>
	</g>
	<path class="st4" d="M288,18.6H65.4c-2.6,0-4.7-2.1-4.7-4.7v0c0-2.6,2.1-4.7,4.7-4.7H288c2.6,0,4.7,2.1,4.7,4.7v0
		C292.8,16.5,290.6,18.6,288,18.6z"/>
	<path class="st20" d="M16.9,18.8L16.9,18.8c-2.8,0-5-2.2-5-5v0c0-2.7,2.2-5,5-5h0c2.7,0,5,2.2,5,5v0C21.9,16.6,19.6,18.8,16.9,18.8
		z"/>
	<path class="st21" d="M47.8,18.8L47.8,18.8c-2.8,0-5-2.2-5-5v0c0-2.7,2.2-5,5-5h0c2.7,0,5,2.2,5,5v0C52.8,16.6,50.5,18.8,47.8,18.8
		z"/>
	<path class="st22" d="M32.6,18.8L32.6,18.8c-2.8,0-5-2.2-5-5v0c0-2.7,2.2-5,5-5h0c2.8,0,5,2.2,5,5v0C37.6,16.6,35.3,18.8,32.6,18.8
		z"/>
	<path class="st23" d="M250.2,59.3H54.8c-3,0-5.5,2.1-5.5,4.6v7.3v110.8c0,2.6,2.5,4.6,5.5,4.6h195.4c3,0,5.5-2.1,5.5-4.6V71.3V64
		C255.7,61.4,253.2,59.3,250.2,59.3z"/>
	<g class="st1">
		<g>
			<path d="M84.4,97.3h-1.7c-0.1-0.4-0.2-0.7-0.4-0.9c-0.2-0.3-0.4-0.5-0.6-0.7c-0.3-0.2-0.5-0.3-0.8-0.4c-0.3-0.1-0.6-0.1-1-0.1
				c-0.6,0-1.2,0.2-1.7,0.5c-0.5,0.3-0.9,0.8-1.2,1.4c-0.3,0.6-0.4,1.4-0.4,2.2c0,0.9,0.1,1.6,0.4,2.2c0.3,0.6,0.7,1.1,1.2,1.4
				s1.1,0.5,1.7,0.5c0.3,0,0.7,0,1-0.1c0.3-0.1,0.6-0.2,0.8-0.4c0.3-0.2,0.5-0.4,0.6-0.7s0.3-0.6,0.4-0.9l1.7,0
				c-0.1,0.5-0.3,1-0.5,1.5s-0.6,0.8-1,1.2c-0.4,0.3-0.8,0.6-1.4,0.8s-1.1,0.3-1.7,0.3c-0.9,0-1.8-0.2-2.5-0.7
				c-0.7-0.4-1.3-1.1-1.7-1.9s-0.6-1.8-0.6-3c0-1.2,0.2-2.2,0.6-3c0.4-0.8,1-1.5,1.7-1.9c0.7-0.4,1.6-0.7,2.5-0.7
				c0.6,0,1.1,0.1,1.6,0.2c0.5,0.2,1,0.4,1.4,0.7s0.7,0.7,1,1.2C84.2,96.2,84.3,96.7,84.4,97.3z"/>
			<path d="M89.7,104.8c-0.8,0-1.4-0.2-2-0.5s-1-0.8-1.3-1.5c-0.3-0.6-0.5-1.4-0.5-2.2c0-0.8,0.2-1.6,0.5-2.2s0.8-1.1,1.3-1.5
				s1.2-0.5,2-0.5s1.4,0.2,2,0.5c0.6,0.4,1,0.8,1.3,1.5s0.5,1.4,0.5,2.2c0,0.8-0.2,1.6-0.5,2.2c-0.3,0.6-0.8,1.1-1.3,1.5
				C91.2,104.6,90.5,104.8,89.7,104.8z M89.7,103.5c0.5,0,0.9-0.1,1.2-0.4s0.6-0.6,0.7-1c0.2-0.4,0.2-0.9,0.2-1.4
				c0-0.5-0.1-1-0.2-1.4c-0.2-0.4-0.4-0.8-0.7-1.1c-0.3-0.3-0.7-0.4-1.2-0.4c-0.5,0-0.9,0.1-1.2,0.4c-0.3,0.3-0.6,0.6-0.7,1.1
				c-0.2,0.4-0.2,0.9-0.2,1.4c0,0.5,0.1,1,0.2,1.4c0.2,0.4,0.4,0.8,0.7,1C88.8,103.3,89.2,103.5,89.7,103.5z"/>
			<path d="M96.9,99.8v4.9h-1.6v-8.2h1.5v1.3h0.1c0.2-0.4,0.5-0.8,0.9-1c0.4-0.3,0.9-0.4,1.5-0.4c0.6,0,1,0.1,1.5,0.3
				c0.4,0.2,0.7,0.6,1,1s0.3,1,0.3,1.7v5.2h-1.6v-5c0-0.6-0.2-1.1-0.5-1.4c-0.3-0.3-0.7-0.5-1.3-0.5c-0.4,0-0.7,0.1-1,0.2
				c-0.3,0.2-0.5,0.4-0.7,0.7C97,99,96.9,99.4,96.9,99.8z"/>
			<path d="M108.2,96.5v1.3h-4.6v-1.3H108.2z M104.8,104.7v-9.1c0-0.5,0.1-0.9,0.3-1.3c0.2-0.3,0.5-0.6,0.9-0.8
				c0.4-0.2,0.8-0.3,1.2-0.3c0.3,0,0.6,0,0.8,0.1c0.2,0.1,0.4,0.1,0.5,0.1l-0.4,1.3c-0.1,0-0.2,0-0.3-0.1s-0.3,0-0.4,0
				c-0.4,0-0.7,0.1-0.8,0.3c-0.2,0.2-0.2,0.5-0.2,0.8v8.9H104.8z"/>
			<path d="M110.6,95.2c-0.3,0-0.5-0.1-0.7-0.3c-0.2-0.2-0.3-0.4-0.3-0.7c0-0.3,0.1-0.5,0.3-0.7c0.2-0.2,0.4-0.3,0.7-0.3
				s0.5,0.1,0.7,0.3c0.2,0.2,0.3,0.4,0.3,0.7c0,0.3-0.1,0.5-0.3,0.7C111.1,95.1,110.9,95.2,110.6,95.2z M109.8,104.7v-8.2h1.6v8.2
				H109.8z"/>
			<path d="M113.5,104.7v-8.2h1.5v1.3h0.1c0.1-0.4,0.4-0.8,0.8-1s0.8-0.4,1.3-0.4c0.1,0,0.2,0,0.4,0c0.1,0,0.2,0,0.3,0v1.5
				c-0.1,0-0.2,0-0.3-0.1c-0.2,0-0.3,0-0.5,0c-0.4,0-0.7,0.1-1,0.2c-0.3,0.2-0.5,0.4-0.7,0.7s-0.3,0.6-0.3,1v5H113.5z"/>
			<path d="M119.3,104.7v-8.2h1.5v1.3h0.1c0.2-0.5,0.4-0.8,0.8-1.1c0.4-0.3,0.9-0.4,1.4-0.4c0.5,0,1,0.1,1.4,0.4s0.6,0.6,0.8,1.1
				h0.1c0.2-0.4,0.5-0.8,0.9-1c0.4-0.3,0.9-0.4,1.5-0.4c0.7,0,1.3,0.2,1.8,0.7c0.5,0.5,0.7,1.2,0.7,2.1v5.5h-1.6v-5.3
				c0-0.6-0.2-1-0.5-1.2s-0.7-0.4-1.1-0.4c-0.5,0-0.9,0.2-1.2,0.5c-0.3,0.3-0.4,0.7-0.4,1.2v5.2h-1.6v-5.4c0-0.4-0.1-0.8-0.4-1.1
				c-0.3-0.3-0.6-0.4-1.1-0.4c-0.3,0-0.6,0.1-0.8,0.2c-0.3,0.2-0.5,0.4-0.6,0.7c-0.2,0.3-0.2,0.6-0.2,1v5H119.3z"/>
			<path d="M134.9,104.8c-0.5,0-1-0.1-1.4-0.3c-0.4-0.2-0.8-0.5-1-0.8c-0.2-0.4-0.4-0.8-0.4-1.4c0-0.5,0.1-0.8,0.3-1.1
				c0.2-0.3,0.4-0.5,0.7-0.7c0.3-0.2,0.6-0.3,1-0.4c0.4-0.1,0.8-0.2,1.1-0.2c0.5-0.1,0.9-0.1,1.2-0.1c0.3,0,0.5-0.1,0.7-0.2
				c0.1-0.1,0.2-0.2,0.2-0.4v0c0-0.5-0.1-0.8-0.4-1.1c-0.3-0.3-0.6-0.4-1.2-0.4c-0.5,0-1,0.1-1.3,0.4s-0.5,0.5-0.6,0.8l-1.5-0.3
				c0.2-0.5,0.4-0.9,0.8-1.2s0.7-0.5,1.2-0.7c0.4-0.1,0.9-0.2,1.4-0.2c0.3,0,0.7,0,1,0.1s0.7,0.2,1,0.4c0.3,0.2,0.6,0.5,0.8,0.9
				c0.2,0.4,0.3,0.9,0.3,1.5v5.4h-1.6v-1.1h-0.1c-0.1,0.2-0.3,0.4-0.5,0.6c-0.2,0.2-0.5,0.4-0.8,0.5S135.4,104.8,134.9,104.8z
				 M135.3,103.6c0.4,0,0.8-0.1,1.1-0.3c0.3-0.2,0.6-0.4,0.7-0.7c0.2-0.3,0.2-0.6,0.2-0.9v-1.1c-0.1,0.1-0.2,0.1-0.3,0.2
				s-0.3,0.1-0.6,0.1s-0.4,0.1-0.6,0.1c-0.2,0-0.4,0-0.5,0.1c-0.3,0-0.6,0.1-0.8,0.2s-0.5,0.2-0.6,0.4c-0.2,0.2-0.2,0.4-0.2,0.7
				c0,0.4,0.1,0.7,0.4,0.9C134.5,103.5,134.8,103.6,135.3,103.6z"/>
			<path d="M141.1,104.7v-8.2h1.5v1.3h0.1c0.1-0.4,0.4-0.8,0.8-1s0.8-0.4,1.3-0.4c0.1,0,0.2,0,0.4,0c0.1,0,0.2,0,0.3,0v1.5
				c-0.1,0-0.2,0-0.3-0.1c-0.2,0-0.3,0-0.5,0c-0.4,0-0.7,0.1-1,0.2c-0.3,0.2-0.5,0.4-0.7,0.7s-0.3,0.6-0.3,1v5H141.1z"/>
			<path d="M154.4,104.8c-0.8,0-1.5-0.2-2.1-0.5c-0.6-0.3-1-0.8-1.3-1.5c-0.3-0.6-0.5-1.4-0.5-2.2c0-0.8,0.2-1.6,0.5-2.2
				c0.3-0.6,0.8-1.1,1.3-1.5c0.6-0.4,1.2-0.5,2-0.5c0.5,0,0.9,0.1,1.3,0.2c0.4,0.2,0.8,0.4,1.2,0.7c0.3,0.3,0.6,0.8,0.8,1.3
				c0.2,0.5,0.3,1.2,0.3,1.9v0.6h-6.5v-1.2h4.9c0-0.4-0.1-0.8-0.3-1.1c-0.2-0.3-0.4-0.6-0.7-0.8c-0.3-0.2-0.7-0.3-1.1-0.3
				c-0.4,0-0.8,0.1-1.2,0.3s-0.6,0.5-0.8,0.9c-0.2,0.4-0.3,0.7-0.3,1.1v0.9c0,0.5,0.1,1,0.3,1.4c0.2,0.4,0.5,0.7,0.8,0.9
				s0.8,0.3,1.2,0.3c0.3,0,0.6,0,0.8-0.1c0.2-0.1,0.5-0.2,0.6-0.4c0.2-0.2,0.3-0.4,0.4-0.6l1.5,0.3c-0.1,0.4-0.3,0.8-0.6,1.2
				c-0.3,0.3-0.7,0.6-1.2,0.8C155.5,104.7,154.9,104.8,154.4,104.8z"/>
			<path d="M161.2,93.7v10.9h-1.6V93.7H161.2z"/>
			<path d="M164.2,95.2c-0.3,0-0.5-0.1-0.7-0.3c-0.2-0.2-0.3-0.4-0.3-0.7c0-0.3,0.1-0.5,0.3-0.7c0.2-0.2,0.4-0.3,0.7-0.3
				s0.5,0.1,0.7,0.3c0.2,0.2,0.3,0.4,0.3,0.7c0,0.3-0.1,0.5-0.3,0.7C164.7,95.1,164.4,95.2,164.2,95.2z M163.4,104.7v-8.2h1.6v8.2
				H163.4z"/>
			<path d="M167.1,104.7v-8.2h1.5v1.3h0.1c0.2-0.5,0.4-0.8,0.8-1.1c0.4-0.3,0.9-0.4,1.4-0.4c0.5,0,1,0.1,1.4,0.4s0.6,0.6,0.8,1.1
				h0.1c0.2-0.4,0.5-0.8,0.9-1c0.4-0.3,0.9-0.4,1.5-0.4c0.7,0,1.3,0.2,1.8,0.7c0.5,0.5,0.7,1.2,0.7,2.1v5.5h-1.6v-5.3
				c0-0.6-0.2-1-0.5-1.2s-0.7-0.4-1.1-0.4c-0.5,0-0.9,0.2-1.2,0.5c-0.3,0.3-0.4,0.7-0.4,1.2v5.2h-1.6v-5.4c0-0.4-0.1-0.8-0.4-1.1
				c-0.3-0.3-0.6-0.4-1.1-0.4c-0.3,0-0.6,0.1-0.8,0.2c-0.3,0.2-0.5,0.4-0.6,0.7c-0.2,0.3-0.2,0.6-0.2,1v5H167.1z"/>
			<path d="M181.2,95.2c-0.3,0-0.5-0.1-0.7-0.3c-0.2-0.2-0.3-0.4-0.3-0.7c0-0.3,0.1-0.5,0.3-0.7c0.2-0.2,0.4-0.3,0.7-0.3
				s0.5,0.1,0.7,0.3c0.2,0.2,0.3,0.4,0.3,0.7c0,0.3-0.1,0.5-0.3,0.7C181.7,95.1,181.4,95.2,181.2,95.2z M180.4,104.7v-8.2h1.6v8.2
				H180.4z"/>
			<path d="M185.7,99.8v4.9h-1.6v-8.2h1.5v1.3h0.1c0.2-0.4,0.5-0.8,0.9-1c0.4-0.3,0.9-0.4,1.5-0.4c0.6,0,1,0.1,1.5,0.3s0.7,0.6,1,1
				c0.2,0.5,0.3,1,0.3,1.7v5.2h-1.6v-5c0-0.6-0.2-1.1-0.5-1.4c-0.3-0.3-0.7-0.5-1.3-0.5c-0.4,0-0.7,0.1-1,0.2
				c-0.3,0.2-0.5,0.4-0.7,0.7C185.8,99,185.7,99.4,185.7,99.8z"/>
			<path d="M195.4,104.8c-0.5,0-1-0.1-1.4-0.3c-0.4-0.2-0.8-0.5-1-0.8c-0.2-0.4-0.4-0.8-0.4-1.4c0-0.5,0.1-0.8,0.3-1.1
				s0.4-0.5,0.7-0.7s0.6-0.3,1-0.4s0.8-0.2,1.1-0.2c0.5-0.1,0.9-0.1,1.2-0.1s0.5-0.1,0.7-0.2c0.1-0.1,0.2-0.2,0.2-0.4v0
				c0-0.5-0.1-0.8-0.4-1.1s-0.6-0.4-1.2-0.4c-0.5,0-1,0.1-1.3,0.4c-0.3,0.2-0.5,0.5-0.6,0.8l-1.5-0.3c0.2-0.5,0.4-0.9,0.8-1.2
				s0.7-0.5,1.2-0.7c0.4-0.1,0.9-0.2,1.4-0.2c0.3,0,0.7,0,1,0.1c0.4,0.1,0.7,0.2,1,0.4c0.3,0.2,0.6,0.5,0.8,0.9s0.3,0.9,0.3,1.5v5.4
				h-1.6v-1.1h-0.1c-0.1,0.2-0.3,0.4-0.5,0.6s-0.5,0.4-0.8,0.5C196.3,104.8,195.9,104.8,195.4,104.8z M195.8,103.6
				c0.4,0,0.8-0.1,1.1-0.3c0.3-0.2,0.6-0.4,0.7-0.7c0.2-0.3,0.2-0.6,0.2-0.9v-1.1c-0.1,0.1-0.2,0.1-0.3,0.2c-0.2,0-0.3,0.1-0.6,0.1
				s-0.4,0.1-0.6,0.1c-0.2,0-0.4,0-0.5,0.1c-0.3,0-0.6,0.1-0.8,0.2s-0.5,0.2-0.6,0.4c-0.2,0.2-0.2,0.4-0.2,0.7
				c0,0.4,0.1,0.7,0.4,0.9C195,103.5,195.3,103.6,195.8,103.6z"/>
			<path d="M205,104.8c-0.8,0-1.5-0.2-2-0.5c-0.6-0.4-1-0.9-1.3-1.5s-0.5-1.4-0.5-2.2c0-0.8,0.2-1.6,0.5-2.2
				c0.3-0.6,0.8-1.1,1.3-1.5c0.6-0.4,1.2-0.5,2-0.5c0.6,0,1.2,0.1,1.7,0.3s0.9,0.5,1.2,1c0.3,0.4,0.5,0.9,0.5,1.4h-1.5
				c-0.1-0.4-0.3-0.7-0.6-1c-0.3-0.3-0.7-0.4-1.2-0.4c-0.4,0-0.8,0.1-1.2,0.3c-0.3,0.2-0.6,0.6-0.8,1c-0.2,0.4-0.3,0.9-0.3,1.5
				c0,0.6,0.1,1.1,0.3,1.5c0.2,0.4,0.4,0.8,0.8,1c0.3,0.2,0.7,0.4,1.2,0.4c0.3,0,0.6-0.1,0.8-0.2c0.2-0.1,0.5-0.3,0.6-0.5
				c0.2-0.2,0.3-0.5,0.4-0.8h1.5c-0.1,0.5-0.2,1-0.5,1.4c-0.3,0.4-0.7,0.7-1.2,1S205.7,104.8,205,104.8z"/>
			<path d="M210.9,95.2c-0.3,0-0.5-0.1-0.7-0.3c-0.2-0.2-0.3-0.4-0.3-0.7c0-0.3,0.1-0.5,0.3-0.7c0.2-0.2,0.4-0.3,0.7-0.3
				s0.5,0.1,0.7,0.3c0.2,0.2,0.3,0.4,0.3,0.7c0,0.3-0.1,0.5-0.3,0.7C211.4,95.1,211.2,95.2,210.9,95.2z M210.1,104.7v-8.2h1.6v8.2
				H210.1z"/>
			<path d="M217.3,104.8c-0.8,0-1.4-0.2-2-0.5c-0.6-0.4-1-0.8-1.3-1.5c-0.3-0.6-0.5-1.4-0.5-2.2c0-0.8,0.2-1.6,0.5-2.2
				c0.3-0.6,0.8-1.1,1.3-1.5c0.6-0.4,1.2-0.5,2-0.5c0.8,0,1.4,0.2,2,0.5c0.6,0.4,1,0.8,1.3,1.5c0.3,0.6,0.5,1.4,0.5,2.2
				c0,0.8-0.2,1.6-0.5,2.2c-0.3,0.6-0.8,1.1-1.3,1.5C218.7,104.6,218.1,104.8,217.3,104.8z M217.3,103.5c0.5,0,0.9-0.1,1.2-0.4
				c0.3-0.3,0.6-0.6,0.7-1c0.2-0.4,0.2-0.9,0.2-1.4c0-0.5-0.1-1-0.2-1.4c-0.2-0.4-0.4-0.8-0.7-1.1c-0.3-0.3-0.7-0.4-1.2-0.4
				c-0.5,0-0.9,0.1-1.2,0.4c-0.3,0.3-0.6,0.6-0.7,1.1c-0.2,0.4-0.2,0.9-0.2,1.4c0,0.5,0.1,1,0.2,1.4c0.2,0.4,0.4,0.8,0.7,1
				C216.4,103.3,216.8,103.5,217.3,103.5z M216.6,95.4l1.2-2.5h1.7l-1.7,2.5H216.6z"/>
			<path d="M224.5,99.8v4.9h-1.6v-8.2h1.5v1.3h0.1c0.2-0.4,0.5-0.8,0.9-1c0.4-0.3,0.9-0.4,1.5-0.4c0.6,0,1,0.1,1.5,0.3s0.7,0.6,1,1
				c0.2,0.5,0.3,1,0.3,1.7v5.2h-1.6v-5c0-0.6-0.2-1.1-0.5-1.4c-0.3-0.3-0.7-0.5-1.3-0.5c-0.4,0-0.7,0.1-1,0.2
				c-0.3,0.2-0.5,0.4-0.7,0.7C224.5,99,224.5,99.4,224.5,99.8z"/>
		</g>
	</g>
	<g class="st1">
		<path class="st24" d="M228.9,133.7h-62.4c-1,0-1.8,0.3-1.8,0.7v1v15.9c0,0.4,0.8,0.7,1.8,0.7h62.4c1,0,1.8-0.3,1.8-0.7v-15.9v-1
			C230.7,134,229.9,133.7,228.9,133.7z"/>
		<path class="st24" d="M138.4,133.7H76c-1,0-1.8,0.3-1.8,0.7v1v15.9c0,0.4,0.8,0.7,1.8,0.7h62.4c1,0,1.8-0.3,1.8-0.7v-15.9v-1
			C140.2,134,139.4,133.7,138.4,133.7z"/>
		<g>
			<g>
				<path d="M89.6,146.5h-1.2l2.6-7.3h1.3l2.6,7.3h-1.2l-2.1-6h-0.1L89.6,146.5z M89.8,143.7h3.8v0.9h-3.8V143.7z"/>
				<path d="M98.2,146.6c-0.5,0-1-0.1-1.4-0.4s-0.7-0.6-0.9-1s-0.3-0.9-0.3-1.5c0-0.6,0.1-1,0.3-1.5c0.2-0.4,0.5-0.8,0.9-1
					c0.4-0.2,0.8-0.4,1.3-0.4c0.4,0,0.8,0.1,1.1,0.2c0.3,0.2,0.6,0.4,0.8,0.6c0.2,0.3,0.3,0.6,0.4,1h-1c-0.1-0.3-0.2-0.5-0.4-0.7
					c-0.2-0.2-0.5-0.3-0.8-0.3c-0.3,0-0.6,0.1-0.8,0.2c-0.2,0.2-0.4,0.4-0.5,0.7c-0.1,0.3-0.2,0.6-0.2,1c0,0.4,0.1,0.7,0.2,1
					c0.1,0.3,0.3,0.5,0.5,0.7c0.2,0.2,0.5,0.2,0.8,0.2c0.2,0,0.4,0,0.5-0.1c0.2-0.1,0.3-0.2,0.4-0.3c0.1-0.1,0.2-0.3,0.2-0.5h1
					c0,0.4-0.2,0.7-0.3,0.9c-0.2,0.3-0.4,0.5-0.8,0.7C99,146.5,98.7,146.6,98.2,146.6z"/>
				<path d="M104,146.6c-0.5,0-1-0.1-1.4-0.3c-0.4-0.2-0.7-0.6-0.9-1c-0.2-0.4-0.3-0.9-0.3-1.5c0-0.6,0.1-1.1,0.3-1.5
					c0.2-0.4,0.5-0.8,0.9-1c0.4-0.2,0.8-0.4,1.3-0.4c0.3,0,0.6,0.1,0.9,0.2c0.3,0.1,0.5,0.3,0.8,0.5s0.4,0.5,0.5,0.8
					c0.1,0.3,0.2,0.8,0.2,1.3v0.4H102v-0.8h3.3c0-0.3-0.1-0.5-0.2-0.7c-0.1-0.2-0.3-0.4-0.5-0.5c-0.2-0.1-0.4-0.2-0.7-0.2
					c-0.3,0-0.6,0.1-0.8,0.2c-0.2,0.1-0.4,0.3-0.5,0.6c-0.1,0.2-0.2,0.5-0.2,0.8v0.6c0,0.4,0.1,0.7,0.2,0.9c0.1,0.3,0.3,0.5,0.5,0.6
					s0.5,0.2,0.8,0.2c0.2,0,0.4,0,0.6-0.1c0.2-0.1,0.3-0.1,0.4-0.3c0.1-0.1,0.2-0.3,0.3-0.4l1,0.2c-0.1,0.3-0.2,0.6-0.4,0.8
					c-0.2,0.2-0.5,0.4-0.8,0.5C104.7,146.6,104.4,146.6,104,146.6z"/>
				<path d="M107.5,148.6v-7.5h1v0.9h0.1c0.1-0.1,0.2-0.2,0.3-0.4c0.1-0.1,0.3-0.3,0.5-0.4s0.5-0.2,0.8-0.2c0.4,0,0.8,0.1,1.2,0.3
					c0.3,0.2,0.6,0.5,0.8,1s0.3,0.9,0.3,1.5c0,0.6-0.1,1.1-0.3,1.5c-0.2,0.4-0.5,0.7-0.8,1c-0.3,0.2-0.7,0.3-1.2,0.3
					c-0.3,0-0.6-0.1-0.8-0.2c-0.2-0.1-0.4-0.2-0.5-0.4c-0.1-0.1-0.2-0.3-0.3-0.4h-0.1v2.9H107.5z M108.5,143.8c0,0.4,0.1,0.7,0.2,1
					c0.1,0.3,0.3,0.5,0.5,0.7c0.2,0.2,0.5,0.2,0.8,0.2c0.3,0,0.6-0.1,0.8-0.3s0.4-0.4,0.5-0.7c0.1-0.3,0.2-0.6,0.2-1
					c0-0.4-0.1-0.7-0.2-1c-0.1-0.3-0.3-0.5-0.5-0.7c-0.2-0.2-0.5-0.2-0.8-0.2c-0.3,0-0.6,0.1-0.8,0.2c-0.2,0.2-0.4,0.4-0.5,0.7
					S108.5,143.4,108.5,143.8z"/>
				<path d="M116.2,141.1v0.9h-3v-0.9H116.2z M114,139.8h1.1v5.2c0,0.2,0,0.4,0.1,0.5c0.1,0.1,0.1,0.2,0.2,0.2
					c0.1,0,0.2,0.1,0.3,0.1c0.1,0,0.2,0,0.2,0c0.1,0,0.1,0,0.1,0l0.2,0.9c-0.1,0-0.1,0-0.3,0.1c-0.1,0-0.3,0-0.4,0
					c-0.3,0-0.5,0-0.8-0.1c-0.2-0.1-0.4-0.3-0.6-0.5c-0.1-0.2-0.2-0.5-0.2-0.8V139.8z"/>
				<path d="M119,146.6c-0.3,0-0.7-0.1-0.9-0.2s-0.5-0.3-0.7-0.6s-0.2-0.5-0.2-0.9c0-0.3,0.1-0.6,0.2-0.8s0.3-0.4,0.5-0.5
					s0.4-0.2,0.7-0.3c0.2-0.1,0.5-0.1,0.8-0.1c0.3,0,0.6-0.1,0.8-0.1c0.2,0,0.4-0.1,0.4-0.1s0.1-0.1,0.1-0.3v0
					c0-0.3-0.1-0.6-0.3-0.7c-0.2-0.2-0.4-0.3-0.8-0.3c-0.4,0-0.6,0.1-0.8,0.2c-0.2,0.2-0.3,0.3-0.4,0.5l-1-0.2
					c0.1-0.3,0.3-0.6,0.5-0.8s0.5-0.4,0.8-0.4c0.3-0.1,0.6-0.1,0.9-0.1c0.2,0,0.4,0,0.7,0.1s0.5,0.1,0.7,0.3
					c0.2,0.1,0.4,0.3,0.5,0.6c0.1,0.2,0.2,0.6,0.2,1v3.6h-1v-0.7h0c-0.1,0.1-0.2,0.3-0.3,0.4c-0.1,0.1-0.3,0.2-0.5,0.3
					C119.5,146.6,119.3,146.6,119,146.6z M119.2,145.8c0.3,0,0.5-0.1,0.8-0.2c0.2-0.1,0.4-0.3,0.5-0.5c0.1-0.2,0.2-0.4,0.2-0.6v-0.7
					c0,0-0.1,0.1-0.2,0.1c-0.1,0-0.2,0.1-0.4,0.1c-0.1,0-0.3,0-0.4,0.1c-0.1,0-0.2,0-0.3,0c-0.2,0-0.4,0.1-0.6,0.1
					c-0.2,0.1-0.3,0.2-0.4,0.3c-0.1,0.1-0.2,0.3-0.2,0.5c0,0.3,0.1,0.5,0.3,0.6C118.6,145.7,118.9,145.8,119.2,145.8z"/>
				<path d="M123.1,146.5v-5.5h1v0.9h0.1c0.1-0.3,0.3-0.5,0.5-0.7c0.3-0.2,0.5-0.3,0.9-0.3c0.1,0,0.1,0,0.2,0c0.1,0,0.2,0,0.2,0v1
					c0,0-0.1,0-0.2,0c-0.1,0-0.2,0-0.3,0c-0.3,0-0.5,0.1-0.7,0.2s-0.3,0.3-0.5,0.4c-0.1,0.2-0.2,0.4-0.2,0.6v3.3H123.1z"/>
			</g>
		</g>
		<g>
			<g>
				<path d="M176.1,146.5v-7.3h2.6c0.6,0,1,0.1,1.4,0.3c0.4,0.2,0.7,0.5,0.8,0.8s0.3,0.7,0.3,1.2c0,0.4-0.1,0.8-0.3,1.2
					c-0.2,0.3-0.5,0.6-0.8,0.8c-0.4,0.2-0.8,0.3-1.4,0.3h-2v-0.9h1.9c0.4,0,0.6-0.1,0.9-0.2c0.2-0.1,0.4-0.2,0.5-0.4
					c0.1-0.2,0.2-0.4,0.2-0.7c0-0.3-0.1-0.5-0.2-0.7s-0.3-0.4-0.5-0.5c-0.2-0.1-0.5-0.2-0.9-0.2h-1.4v6.3H176.1z M179.7,143.2
					l1.8,3.3h-1.3l-1.8-3.3H179.7z"/>
				<path d="M184.9,146.6c-0.5,0-1-0.1-1.4-0.3c-0.4-0.2-0.7-0.6-0.9-1c-0.2-0.4-0.3-0.9-0.3-1.5c0-0.6,0.1-1.1,0.3-1.5
					c0.2-0.4,0.5-0.8,0.9-1c0.4-0.2,0.8-0.4,1.3-0.4c0.3,0,0.6,0.1,0.9,0.2c0.3,0.1,0.5,0.3,0.8,0.5s0.4,0.5,0.5,0.8
					c0.1,0.3,0.2,0.8,0.2,1.3v0.4h-4.3v-0.8h3.3c0-0.3-0.1-0.5-0.2-0.7c-0.1-0.2-0.3-0.4-0.5-0.5c-0.2-0.1-0.4-0.2-0.7-0.2
					c-0.3,0-0.6,0.1-0.8,0.2s-0.4,0.3-0.5,0.6c-0.1,0.2-0.2,0.5-0.2,0.8v0.6c0,0.4,0.1,0.7,0.2,0.9s0.3,0.5,0.5,0.6
					c0.2,0.1,0.5,0.2,0.8,0.2c0.2,0,0.4,0,0.6-0.1c0.2-0.1,0.3-0.1,0.4-0.3c0.1-0.1,0.2-0.3,0.3-0.4l1,0.2c-0.1,0.3-0.2,0.6-0.4,0.8
					c-0.2,0.2-0.5,0.4-0.8,0.5C185.6,146.6,185.3,146.6,184.9,146.6z"/>
				<path d="M190.7,146.6c-0.5,0-1-0.1-1.4-0.4s-0.7-0.6-0.9-1c-0.2-0.4-0.3-0.9-0.3-1.5c0-0.6,0.1-1,0.3-1.5c0.2-0.4,0.5-0.8,0.9-1
					c0.4-0.2,0.8-0.4,1.3-0.4c0.4,0,0.8,0.1,1.1,0.2c0.3,0.2,0.6,0.4,0.8,0.6c0.2,0.3,0.3,0.6,0.4,1h-1c-0.1-0.3-0.2-0.5-0.4-0.7
					c-0.2-0.2-0.5-0.3-0.8-0.3c-0.3,0-0.6,0.1-0.8,0.2c-0.2,0.2-0.4,0.4-0.5,0.7s-0.2,0.6-0.2,1c0,0.4,0.1,0.7,0.2,1
					c0.1,0.3,0.3,0.5,0.5,0.7c0.2,0.2,0.5,0.2,0.8,0.2c0.2,0,0.4,0,0.5-0.1c0.2-0.1,0.3-0.2,0.4-0.3s0.2-0.3,0.2-0.5h1
					c0,0.4-0.2,0.7-0.3,0.9c-0.2,0.3-0.4,0.5-0.8,0.7C191.5,146.5,191.1,146.6,190.7,146.6z"/>
				<path d="M195.1,143.3v3.2h-1.1v-7.3h1v2.7h0.1c0.1-0.3,0.3-0.5,0.6-0.7s0.6-0.3,1-0.3c0.4,0,0.7,0.1,1,0.2
					c0.3,0.2,0.5,0.4,0.7,0.7c0.2,0.3,0.2,0.7,0.2,1.1v3.5h-1.1v-3.3c0-0.4-0.1-0.7-0.3-0.9s-0.5-0.3-0.9-0.3
					c-0.3,0-0.5,0.1-0.7,0.2c-0.2,0.1-0.4,0.3-0.5,0.5C195.2,142.7,195.1,143,195.1,143.3z"/>
				<path d="M201.7,146.6c-0.3,0-0.7-0.1-0.9-0.2s-0.5-0.3-0.7-0.6s-0.2-0.5-0.2-0.9c0-0.3,0.1-0.6,0.2-0.8s0.3-0.4,0.5-0.5
					s0.4-0.2,0.7-0.3c0.2-0.1,0.5-0.1,0.8-0.1c0.3,0,0.6-0.1,0.8-0.1c0.2,0,0.4-0.1,0.4-0.1s0.1-0.1,0.1-0.3v0
					c0-0.3-0.1-0.6-0.3-0.7c-0.2-0.2-0.4-0.3-0.8-0.3c-0.4,0-0.6,0.1-0.8,0.2c-0.2,0.2-0.3,0.3-0.4,0.5l-1-0.2
					c0.1-0.3,0.3-0.6,0.5-0.8s0.5-0.4,0.8-0.4c0.3-0.1,0.6-0.1,0.9-0.1c0.2,0,0.4,0,0.7,0.1s0.5,0.1,0.7,0.3
					c0.2,0.1,0.4,0.3,0.5,0.6c0.1,0.2,0.2,0.6,0.2,1v3.6h-1v-0.7h0c-0.1,0.1-0.2,0.3-0.3,0.4c-0.1,0.1-0.3,0.2-0.5,0.3
					C202.2,146.6,202,146.6,201.7,146.6z M201.9,145.8c0.3,0,0.5-0.1,0.8-0.2c0.2-0.1,0.4-0.3,0.5-0.5c0.1-0.2,0.2-0.4,0.2-0.6v-0.7
					c0,0-0.1,0.1-0.2,0.1c-0.1,0-0.2,0.1-0.4,0.1c-0.1,0-0.3,0-0.4,0.1c-0.1,0-0.2,0-0.3,0c-0.2,0-0.4,0.1-0.6,0.1s-0.3,0.2-0.4,0.3
					c-0.1,0.1-0.2,0.3-0.2,0.5c0,0.3,0.1,0.5,0.3,0.6C201.3,145.7,201.6,145.8,201.9,145.8z"/>
				<path d="M205.7,146.5v-0.7l3-3.8v0h-2.9v-0.9h4.2v0.8l-2.8,3.7v0h2.9v0.9H205.7z"/>
				<path d="M212.9,146.6c-0.3,0-0.7-0.1-0.9-0.2s-0.5-0.3-0.7-0.6s-0.2-0.5-0.2-0.9c0-0.3,0.1-0.6,0.2-0.8s0.3-0.4,0.5-0.5
					s0.4-0.2,0.7-0.3c0.2-0.1,0.5-0.1,0.8-0.1c0.3,0,0.6-0.1,0.8-0.1c0.2,0,0.4-0.1,0.4-0.1s0.1-0.1,0.1-0.3v0
					c0-0.3-0.1-0.6-0.3-0.7c-0.2-0.2-0.4-0.3-0.8-0.3c-0.4,0-0.6,0.1-0.8,0.2c-0.2,0.2-0.3,0.3-0.4,0.5l-1-0.2
					c0.1-0.3,0.3-0.6,0.5-0.8s0.5-0.4,0.8-0.4c0.3-0.1,0.6-0.1,0.9-0.1c0.2,0,0.4,0,0.7,0.1s0.5,0.1,0.7,0.3
					c0.2,0.1,0.4,0.3,0.5,0.6c0.1,0.2,0.2,0.6,0.2,1v3.6h-1v-0.7h0c-0.1,0.1-0.2,0.3-0.3,0.4c-0.1,0.1-0.3,0.2-0.5,0.3
					C213.4,146.6,213.2,146.6,212.9,146.6z M213.1,145.8c0.3,0,0.5-0.1,0.8-0.2c0.2-0.1,0.4-0.3,0.5-0.5c0.1-0.2,0.2-0.4,0.2-0.6
					v-0.7c0,0-0.1,0.1-0.2,0.1c-0.1,0-0.2,0.1-0.4,0.1c-0.1,0-0.3,0-0.4,0.1c-0.1,0-0.2,0-0.3,0c-0.2,0-0.4,0.1-0.6,0.1
					c-0.2,0.1-0.3,0.2-0.4,0.3c-0.1,0.1-0.2,0.3-0.2,0.5c0,0.3,0.1,0.5,0.3,0.6C212.6,145.7,212.8,145.8,213.1,145.8z"/>
				<path d="M217,146.5v-5.5h1v0.9h0.1c0.1-0.3,0.3-0.5,0.5-0.7c0.3-0.2,0.5-0.3,0.9-0.3c0.1,0,0.1,0,0.2,0c0.1,0,0.2,0,0.2,0v1
					c0,0-0.1,0-0.2,0c-0.1,0-0.2,0-0.3,0c-0.3,0-0.5,0.1-0.7,0.2s-0.3,0.3-0.5,0.4c-0.1,0.2-0.2,0.4-0.2,0.6v3.3H217z"/>
			</g>
		</g>
	</g>
</g>
<g id="ciego_al_azul" class="st0">
	<g class="st1">
		<path class="st25" d="M3.5,214.5c0,4.4,3.6,8,8,8h282c4.4,0,8-3.6,8-8V23.6H3.5V214.5z"/>
		<path class="st26" d="M293.5,3h-282c-4.4,0-8,3.6-8,8v12.6h298V11C301.5,6.6,297.9,3,293.5,3z"/>
	</g>
	<path class="st4" d="M288,18.6H65.4c-2.6,0-4.7-2.1-4.7-4.7v0c0-2.6,2.1-4.7,4.7-4.7H288c2.6,0,4.7,2.1,4.7,4.7v0
		C292.8,16.5,290.6,18.6,288,18.6z"/>
	<path class="st27" d="M16.9,18.8L16.9,18.8c-2.8,0-5-2.2-5-5v0c0-2.7,2.2-5,5-5h0c2.7,0,5,2.2,5,5v0C21.9,16.6,19.6,18.8,16.9,18.8
		z"/>
	<path class="st28" d="M47.8,18.8L47.8,18.8c-2.8,0-5-2.2-5-5v0c0-2.7,2.2-5,5-5h0c2.7,0,5,2.2,5,5v0C52.8,16.6,50.5,18.8,47.8,18.8
		z"/>
	<path class="st29" d="M32.6,18.8L32.6,18.8c-2.8,0-5-2.2-5-5v0c0-2.7,2.2-5,5-5h0c2.8,0,5,2.2,5,5v0C37.6,16.6,35.3,18.8,32.6,18.8
		z"/>
	<path class="st30" d="M250.2,59.3H54.8c-3,0-5.5,2.1-5.5,4.6v7.3v110.8c0,2.6,2.5,4.6,5.5,4.6h195.4c3,0,5.5-2.1,5.5-4.6V71.3V64
		C255.7,61.4,253.2,59.3,250.2,59.3z"/>
	<g class="st1">
		<g>
			<path d="M84.4,97.3h-1.7c-0.1-0.4-0.2-0.7-0.4-0.9c-0.2-0.3-0.4-0.5-0.6-0.7c-0.3-0.2-0.5-0.3-0.8-0.4c-0.3-0.1-0.6-0.1-1-0.1
				c-0.6,0-1.2,0.2-1.7,0.5c-0.5,0.3-0.9,0.8-1.2,1.4c-0.3,0.6-0.4,1.4-0.4,2.2c0,0.9,0.1,1.6,0.4,2.2c0.3,0.6,0.7,1.1,1.2,1.4
				s1.1,0.5,1.7,0.5c0.3,0,0.7,0,1-0.1c0.3-0.1,0.6-0.2,0.8-0.4c0.3-0.2,0.5-0.4,0.6-0.7s0.3-0.6,0.4-0.9l1.7,0
				c-0.1,0.5-0.3,1-0.5,1.5s-0.6,0.8-1,1.2c-0.4,0.3-0.8,0.6-1.4,0.8s-1.1,0.3-1.7,0.3c-0.9,0-1.8-0.2-2.5-0.7
				c-0.7-0.4-1.3-1.1-1.7-1.9s-0.6-1.8-0.6-3c0-1.2,0.2-2.2,0.6-3c0.4-0.8,1-1.5,1.7-1.9c0.7-0.4,1.6-0.7,2.5-0.7
				c0.6,0,1.1,0.1,1.6,0.2c0.5,0.2,1,0.4,1.4,0.7s0.7,0.7,1,1.2C84.2,96.2,84.3,96.7,84.4,97.3z"/>
			<path d="M89.7,104.8c-0.8,0-1.4-0.2-2-0.5s-1-0.8-1.3-1.5c-0.3-0.6-0.5-1.4-0.5-2.2c0-0.8,0.2-1.6,0.5-2.2s0.8-1.1,1.3-1.5
				s1.2-0.5,2-0.5s1.4,0.2,2,0.5c0.6,0.4,1,0.8,1.3,1.5s0.5,1.4,0.5,2.2c0,0.8-0.2,1.6-0.5,2.2c-0.3,0.6-0.8,1.1-1.3,1.5
				C91.2,104.6,90.5,104.8,89.7,104.8z M89.7,103.5c0.5,0,0.9-0.1,1.2-0.4s0.6-0.6,0.7-1c0.2-0.4,0.2-0.9,0.2-1.4
				c0-0.5-0.1-1-0.2-1.4c-0.2-0.4-0.4-0.8-0.7-1.1c-0.3-0.3-0.7-0.4-1.2-0.4c-0.5,0-0.9,0.1-1.2,0.4c-0.3,0.3-0.6,0.6-0.7,1.1
				c-0.2,0.4-0.2,0.9-0.2,1.4c0,0.5,0.1,1,0.2,1.4c0.2,0.4,0.4,0.8,0.7,1C88.8,103.3,89.2,103.5,89.7,103.5z"/>
			<path d="M96.9,99.8v4.9h-1.6v-8.2h1.5v1.3h0.1c0.2-0.4,0.5-0.8,0.9-1c0.4-0.3,0.9-0.4,1.5-0.4c0.6,0,1,0.1,1.5,0.3
				c0.4,0.2,0.7,0.6,1,1s0.3,1,0.3,1.7v5.2h-1.6v-5c0-0.6-0.2-1.1-0.5-1.4c-0.3-0.3-0.7-0.5-1.3-0.5c-0.4,0-0.7,0.1-1,0.2
				c-0.3,0.2-0.5,0.4-0.7,0.7C97,99,96.9,99.4,96.9,99.8z"/>
			<path d="M108.2,96.5v1.3h-4.6v-1.3H108.2z M104.8,104.7v-9.1c0-0.5,0.1-0.9,0.3-1.3c0.2-0.3,0.5-0.6,0.9-0.8
				c0.4-0.2,0.8-0.3,1.2-0.3c0.3,0,0.6,0,0.8,0.1c0.2,0.1,0.4,0.1,0.5,0.1l-0.4,1.3c-0.1,0-0.2,0-0.3-0.1s-0.3,0-0.4,0
				c-0.4,0-0.7,0.1-0.8,0.3c-0.2,0.2-0.2,0.5-0.2,0.8v8.9H104.8z"/>
			<path d="M110.6,95.2c-0.3,0-0.5-0.1-0.7-0.3c-0.2-0.2-0.3-0.4-0.3-0.7c0-0.3,0.1-0.5,0.3-0.7c0.2-0.2,0.4-0.3,0.7-0.3
				s0.5,0.1,0.7,0.3c0.2,0.2,0.3,0.4,0.3,0.7c0,0.3-0.1,0.5-0.3,0.7C111.1,95.1,110.9,95.2,110.6,95.2z M109.8,104.7v-8.2h1.6v8.2
				H109.8z"/>
			<path d="M113.5,104.7v-8.2h1.5v1.3h0.1c0.1-0.4,0.4-0.8,0.8-1s0.8-0.4,1.3-0.4c0.1,0,0.2,0,0.4,0c0.1,0,0.2,0,0.3,0v1.5
				c-0.1,0-0.2,0-0.3-0.1c-0.2,0-0.3,0-0.5,0c-0.4,0-0.7,0.1-1,0.2c-0.3,0.2-0.5,0.4-0.7,0.7s-0.3,0.6-0.3,1v5H113.5z"/>
			<path d="M119.3,104.7v-8.2h1.5v1.3h0.1c0.2-0.5,0.4-0.8,0.8-1.1c0.4-0.3,0.9-0.4,1.4-0.4c0.5,0,1,0.1,1.4,0.4s0.6,0.6,0.8,1.1
				h0.1c0.2-0.4,0.5-0.8,0.9-1c0.4-0.3,0.9-0.4,1.5-0.4c0.7,0,1.3,0.2,1.8,0.7c0.5,0.5,0.7,1.2,0.7,2.1v5.5h-1.6v-5.3
				c0-0.6-0.2-1-0.5-1.2s-0.7-0.4-1.1-0.4c-0.5,0-0.9,0.2-1.2,0.5c-0.3,0.3-0.4,0.7-0.4,1.2v5.2h-1.6v-5.4c0-0.4-0.1-0.8-0.4-1.1
				c-0.3-0.3-0.6-0.4-1.1-0.4c-0.3,0-0.6,0.1-0.8,0.2c-0.3,0.2-0.5,0.4-0.6,0.7c-0.2,0.3-0.2,0.6-0.2,1v5H119.3z"/>
			<path d="M134.9,104.8c-0.5,0-1-0.1-1.4-0.3c-0.4-0.2-0.8-0.5-1-0.8c-0.2-0.4-0.4-0.8-0.4-1.4c0-0.5,0.1-0.8,0.3-1.1
				c0.2-0.3,0.4-0.5,0.7-0.7c0.3-0.2,0.6-0.3,1-0.4c0.4-0.1,0.8-0.2,1.1-0.2c0.5-0.1,0.9-0.1,1.2-0.1c0.3,0,0.5-0.1,0.7-0.2
				c0.1-0.1,0.2-0.2,0.2-0.4v0c0-0.5-0.1-0.8-0.4-1.1c-0.3-0.3-0.6-0.4-1.2-0.4c-0.5,0-1,0.1-1.3,0.4s-0.5,0.5-0.6,0.8l-1.5-0.3
				c0.2-0.5,0.4-0.9,0.8-1.2s0.7-0.5,1.2-0.7c0.4-0.1,0.9-0.2,1.4-0.2c0.3,0,0.7,0,1,0.1s0.7,0.2,1,0.4c0.3,0.2,0.6,0.5,0.8,0.9
				c0.2,0.4,0.3,0.9,0.3,1.5v5.4h-1.6v-1.1h-0.1c-0.1,0.2-0.3,0.4-0.5,0.6c-0.2,0.2-0.5,0.4-0.8,0.5S135.4,104.8,134.9,104.8z
				 M135.3,103.6c0.4,0,0.8-0.1,1.1-0.3c0.3-0.2,0.6-0.4,0.7-0.7c0.2-0.3,0.2-0.6,0.2-0.9v-1.1c-0.1,0.1-0.2,0.1-0.3,0.2
				s-0.3,0.1-0.6,0.1s-0.4,0.1-0.6,0.1c-0.2,0-0.4,0-0.5,0.1c-0.3,0-0.6,0.1-0.8,0.2s-0.5,0.2-0.6,0.4c-0.2,0.2-0.2,0.4-0.2,0.7
				c0,0.4,0.1,0.7,0.4,0.9C134.5,103.5,134.8,103.6,135.3,103.6z"/>
			<path d="M141.1,104.7v-8.2h1.5v1.3h0.1c0.1-0.4,0.4-0.8,0.8-1s0.8-0.4,1.3-0.4c0.1,0,0.2,0,0.4,0c0.1,0,0.2,0,0.3,0v1.5
				c-0.1,0-0.2,0-0.3-0.1c-0.2,0-0.3,0-0.5,0c-0.4,0-0.7,0.1-1,0.2c-0.3,0.2-0.5,0.4-0.7,0.7s-0.3,0.6-0.3,1v5H141.1z"/>
			<path d="M154.4,104.8c-0.8,0-1.5-0.2-2.1-0.5c-0.6-0.3-1-0.8-1.3-1.5c-0.3-0.6-0.5-1.4-0.5-2.2c0-0.8,0.2-1.6,0.5-2.2
				c0.3-0.6,0.8-1.1,1.3-1.5c0.6-0.4,1.2-0.5,2-0.5c0.5,0,0.9,0.1,1.3,0.2c0.4,0.2,0.8,0.4,1.2,0.7c0.3,0.3,0.6,0.8,0.8,1.3
				c0.2,0.5,0.3,1.2,0.3,1.9v0.6h-6.5v-1.2h4.9c0-0.4-0.1-0.8-0.3-1.1c-0.2-0.3-0.4-0.6-0.7-0.8c-0.3-0.2-0.7-0.3-1.1-0.3
				c-0.4,0-0.8,0.1-1.2,0.3s-0.6,0.5-0.8,0.9c-0.2,0.4-0.3,0.7-0.3,1.1v0.9c0,0.5,0.1,1,0.3,1.4c0.2,0.4,0.5,0.7,0.8,0.9
				s0.8,0.3,1.2,0.3c0.3,0,0.6,0,0.8-0.1c0.2-0.1,0.5-0.2,0.6-0.4c0.2-0.2,0.3-0.4,0.4-0.6l1.5,0.3c-0.1,0.4-0.3,0.8-0.6,1.2
				c-0.3,0.3-0.7,0.6-1.2,0.8C155.5,104.7,154.9,104.8,154.4,104.8z"/>
			<path d="M161.2,93.7v10.9h-1.6V93.7H161.2z"/>
			<path d="M164.2,95.2c-0.3,0-0.5-0.1-0.7-0.3c-0.2-0.2-0.3-0.4-0.3-0.7c0-0.3,0.1-0.5,0.3-0.7c0.2-0.2,0.4-0.3,0.7-0.3
				s0.5,0.1,0.7,0.3c0.2,0.2,0.3,0.4,0.3,0.7c0,0.3-0.1,0.5-0.3,0.7C164.7,95.1,164.4,95.2,164.2,95.2z M163.4,104.7v-8.2h1.6v8.2
				H163.4z"/>
			<path d="M167.1,104.7v-8.2h1.5v1.3h0.1c0.2-0.5,0.4-0.8,0.8-1.1c0.4-0.3,0.9-0.4,1.4-0.4c0.5,0,1,0.1,1.4,0.4s0.6,0.6,0.8,1.1
				h0.1c0.2-0.4,0.5-0.8,0.9-1c0.4-0.3,0.9-0.4,1.5-0.4c0.7,0,1.3,0.2,1.8,0.7c0.5,0.5,0.7,1.2,0.7,2.1v5.5h-1.6v-5.3
				c0-0.6-0.2-1-0.5-1.2s-0.7-0.4-1.1-0.4c-0.5,0-0.9,0.2-1.2,0.5c-0.3,0.3-0.4,0.7-0.4,1.2v5.2h-1.6v-5.4c0-0.4-0.1-0.8-0.4-1.1
				c-0.3-0.3-0.6-0.4-1.1-0.4c-0.3,0-0.6,0.1-0.8,0.2c-0.3,0.2-0.5,0.4-0.6,0.7c-0.2,0.3-0.2,0.6-0.2,1v5H167.1z"/>
			<path d="M181.2,95.2c-0.3,0-0.5-0.1-0.7-0.3c-0.2-0.2-0.3-0.4-0.3-0.7c0-0.3,0.1-0.5,0.3-0.7c0.2-0.2,0.4-0.3,0.7-0.3
				s0.5,0.1,0.7,0.3c0.2,0.2,0.3,0.4,0.3,0.7c0,0.3-0.1,0.5-0.3,0.7C181.7,95.1,181.4,95.2,181.2,95.2z M180.4,104.7v-8.2h1.6v8.2
				H180.4z"/>
			<path d="M185.7,99.8v4.9h-1.6v-8.2h1.5v1.3h0.1c0.2-0.4,0.5-0.8,0.9-1c0.4-0.3,0.9-0.4,1.5-0.4c0.6,0,1,0.1,1.5,0.3s0.7,0.6,1,1
				c0.2,0.5,0.3,1,0.3,1.7v5.2h-1.6v-5c0-0.6-0.2-1.1-0.5-1.4c-0.3-0.3-0.7-0.5-1.3-0.5c-0.4,0-0.7,0.1-1,0.2
				c-0.3,0.2-0.5,0.4-0.7,0.7C185.8,99,185.7,99.4,185.7,99.8z"/>
			<path d="M195.4,104.8c-0.5,0-1-0.1-1.4-0.3c-0.4-0.2-0.8-0.5-1-0.8c-0.2-0.4-0.4-0.8-0.4-1.4c0-0.5,0.1-0.8,0.3-1.1
				s0.4-0.5,0.7-0.7s0.6-0.3,1-0.4s0.8-0.2,1.1-0.2c0.5-0.1,0.9-0.1,1.2-0.1s0.5-0.1,0.7-0.2c0.1-0.1,0.2-0.2,0.2-0.4v0
				c0-0.5-0.1-0.8-0.4-1.1s-0.6-0.4-1.2-0.4c-0.5,0-1,0.1-1.3,0.4c-0.3,0.2-0.5,0.5-0.6,0.8l-1.5-0.3c0.2-0.5,0.4-0.9,0.8-1.2
				s0.7-0.5,1.2-0.7c0.4-0.1,0.9-0.2,1.4-0.2c0.3,0,0.7,0,1,0.1c0.4,0.1,0.7,0.2,1,0.4c0.3,0.2,0.6,0.5,0.8,0.9s0.3,0.9,0.3,1.5v5.4
				h-1.6v-1.1h-0.1c-0.1,0.2-0.3,0.4-0.5,0.6s-0.5,0.4-0.8,0.5C196.3,104.8,195.9,104.8,195.4,104.8z M195.8,103.6
				c0.4,0,0.8-0.1,1.1-0.3c0.3-0.2,0.6-0.4,0.7-0.7c0.2-0.3,0.2-0.6,0.2-0.9v-1.1c-0.1,0.1-0.2,0.1-0.3,0.2c-0.2,0-0.3,0.1-0.6,0.1
				s-0.4,0.1-0.6,0.1c-0.2,0-0.4,0-0.5,0.1c-0.3,0-0.6,0.1-0.8,0.2s-0.5,0.2-0.6,0.4c-0.2,0.2-0.2,0.4-0.2,0.7
				c0,0.4,0.1,0.7,0.4,0.9C195,103.5,195.3,103.6,195.8,103.6z"/>
			<path d="M205,104.8c-0.8,0-1.5-0.2-2-0.5c-0.6-0.4-1-0.9-1.3-1.5s-0.5-1.4-0.5-2.2c0-0.8,0.2-1.6,0.5-2.2
				c0.3-0.6,0.8-1.1,1.3-1.5c0.6-0.4,1.2-0.5,2-0.5c0.6,0,1.2,0.1,1.7,0.3s0.9,0.5,1.2,1c0.3,0.4,0.5,0.9,0.5,1.4h-1.5
				c-0.1-0.4-0.3-0.7-0.6-1c-0.3-0.3-0.7-0.4-1.2-0.4c-0.4,0-0.8,0.1-1.2,0.3c-0.3,0.2-0.6,0.6-0.8,1c-0.2,0.4-0.3,0.9-0.3,1.5
				c0,0.6,0.1,1.1,0.3,1.5c0.2,0.4,0.4,0.8,0.8,1c0.3,0.2,0.7,0.4,1.2,0.4c0.3,0,0.6-0.1,0.8-0.2c0.2-0.1,0.5-0.3,0.6-0.5
				c0.2-0.2,0.3-0.5,0.4-0.8h1.5c-0.1,0.5-0.2,1-0.5,1.4c-0.3,0.4-0.7,0.7-1.2,1S205.7,104.8,205,104.8z"/>
			<path d="M210.9,95.2c-0.3,0-0.5-0.1-0.7-0.3c-0.2-0.2-0.3-0.4-0.3-0.7c0-0.3,0.1-0.5,0.3-0.7c0.2-0.2,0.4-0.3,0.7-0.3
				s0.5,0.1,0.7,0.3c0.2,0.2,0.3,0.4,0.3,0.7c0,0.3-0.1,0.5-0.3,0.7C211.4,95.1,211.2,95.2,210.9,95.2z M210.1,104.7v-8.2h1.6v8.2
				H210.1z"/>
			<path d="M217.3,104.8c-0.8,0-1.4-0.2-2-0.5c-0.6-0.4-1-0.8-1.3-1.5c-0.3-0.6-0.5-1.4-0.5-2.2c0-0.8,0.2-1.6,0.5-2.2
				c0.3-0.6,0.8-1.1,1.3-1.5c0.6-0.4,1.2-0.5,2-0.5c0.8,0,1.4,0.2,2,0.5c0.6,0.4,1,0.8,1.3,1.5c0.3,0.6,0.5,1.4,0.5,2.2
				c0,0.8-0.2,1.6-0.5,2.2c-0.3,0.6-0.8,1.1-1.3,1.5C218.7,104.6,218.1,104.8,217.3,104.8z M217.3,103.5c0.5,0,0.9-0.1,1.2-0.4
				c0.3-0.3,0.6-0.6,0.7-1c0.2-0.4,0.2-0.9,0.2-1.4c0-0.5-0.1-1-0.2-1.4c-0.2-0.4-0.4-0.8-0.7-1.1c-0.3-0.3-0.7-0.4-1.2-0.4
				c-0.5,0-0.9,0.1-1.2,0.4c-0.3,0.3-0.6,0.6-0.7,1.1c-0.2,0.4-0.2,0.9-0.2,1.4c0,0.5,0.1,1,0.2,1.4c0.2,0.4,0.4,0.8,0.7,1
				C216.4,103.3,216.8,103.5,217.3,103.5z M216.6,95.4l1.2-2.5h1.7l-1.7,2.5H216.6z"/>
			<path d="M224.5,99.8v4.9h-1.6v-8.2h1.5v1.3h0.1c0.2-0.4,0.5-0.8,0.9-1c0.4-0.3,0.9-0.4,1.5-0.4c0.6,0,1,0.1,1.5,0.3s0.7,0.6,1,1
				c0.2,0.5,0.3,1,0.3,1.7v5.2h-1.6v-5c0-0.6-0.2-1.1-0.5-1.4c-0.3-0.3-0.7-0.5-1.3-0.5c-0.4,0-0.7,0.1-1,0.2
				c-0.3,0.2-0.5,0.4-0.7,0.7C224.5,99,224.5,99.4,224.5,99.8z"/>
		</g>
	</g>
	<g class="st1">
		<path class="st31" d="M228.9,133.7h-62.4c-1,0-1.8,0.3-1.8,0.7v1v15.9c0,0.4,0.8,0.7,1.8,0.7h62.4c1,0,1.8-0.3,1.8-0.7v-15.9v-1
			C230.7,134,229.9,133.7,228.9,133.7z"/>
		<path class="st32" d="M138.4,133.7H76c-1,0-1.8,0.3-1.8,0.7v1v15.9c0,0.4,0.8,0.7,1.8,0.7h62.4c1,0,1.8-0.3,1.8-0.7v-15.9v-1
			C140.2,134,139.4,133.7,138.4,133.7z"/>
		<g>
			<g>
				<path d="M89.6,146.5h-1.2l2.6-7.3h1.3l2.6,7.3h-1.2l-2.1-6h-0.1L89.6,146.5z M89.8,143.7h3.8v0.9h-3.8V143.7z"/>
				<path d="M98.2,146.6c-0.5,0-1-0.1-1.4-0.4s-0.7-0.6-0.9-1s-0.3-0.9-0.3-1.5c0-0.6,0.1-1,0.3-1.5c0.2-0.4,0.5-0.8,0.9-1
					c0.4-0.2,0.8-0.4,1.3-0.4c0.4,0,0.8,0.1,1.1,0.2c0.3,0.2,0.6,0.4,0.8,0.6c0.2,0.3,0.3,0.6,0.4,1h-1c-0.1-0.3-0.2-0.5-0.4-0.7
					c-0.2-0.2-0.5-0.3-0.8-0.3c-0.3,0-0.6,0.1-0.8,0.2c-0.2,0.2-0.4,0.4-0.5,0.7c-0.1,0.3-0.2,0.6-0.2,1c0,0.4,0.1,0.7,0.2,1
					c0.1,0.3,0.3,0.5,0.5,0.7c0.2,0.2,0.5,0.2,0.8,0.2c0.2,0,0.4,0,0.5-0.1c0.2-0.1,0.3-0.2,0.4-0.3c0.1-0.1,0.2-0.3,0.2-0.5h1
					c0,0.4-0.2,0.7-0.3,0.9c-0.2,0.3-0.4,0.5-0.8,0.7C99,146.5,98.7,146.6,98.2,146.6z"/>
				<path d="M104,146.6c-0.5,0-1-0.1-1.4-0.3c-0.4-0.2-0.7-0.6-0.9-1c-0.2-0.4-0.3-0.9-0.3-1.5c0-0.6,0.1-1.1,0.3-1.5
					c0.2-0.4,0.5-0.8,0.9-1c0.4-0.2,0.8-0.4,1.3-0.4c0.3,0,0.6,0.1,0.9,0.2c0.3,0.1,0.5,0.3,0.8,0.5s0.4,0.5,0.5,0.8
					c0.1,0.3,0.2,0.8,0.2,1.3v0.4H102v-0.8h3.3c0-0.3-0.1-0.5-0.2-0.7c-0.1-0.2-0.3-0.4-0.5-0.5c-0.2-0.1-0.4-0.2-0.7-0.2
					c-0.3,0-0.6,0.1-0.8,0.2c-0.2,0.1-0.4,0.3-0.5,0.6c-0.1,0.2-0.2,0.5-0.2,0.8v0.6c0,0.4,0.1,0.7,0.2,0.9c0.1,0.3,0.3,0.5,0.5,0.6
					s0.5,0.2,0.8,0.2c0.2,0,0.4,0,0.6-0.1c0.2-0.1,0.3-0.1,0.4-0.3c0.1-0.1,0.2-0.3,0.3-0.4l1,0.2c-0.1,0.3-0.2,0.6-0.4,0.8
					c-0.2,0.2-0.5,0.4-0.8,0.5C104.7,146.6,104.4,146.6,104,146.6z"/>
				<path d="M107.5,148.6v-7.5h1v0.9h0.1c0.1-0.1,0.2-0.2,0.3-0.4c0.1-0.1,0.3-0.3,0.5-0.4s0.5-0.2,0.8-0.2c0.4,0,0.8,0.1,1.2,0.3
					c0.3,0.2,0.6,0.5,0.8,1s0.3,0.9,0.3,1.5c0,0.6-0.1,1.1-0.3,1.5c-0.2,0.4-0.5,0.7-0.8,1c-0.3,0.2-0.7,0.3-1.2,0.3
					c-0.3,0-0.6-0.1-0.8-0.2c-0.2-0.1-0.4-0.2-0.5-0.4c-0.1-0.1-0.2-0.3-0.3-0.4h-0.1v2.9H107.5z M108.5,143.8c0,0.4,0.1,0.7,0.2,1
					c0.1,0.3,0.3,0.5,0.5,0.7c0.2,0.2,0.5,0.2,0.8,0.2c0.3,0,0.6-0.1,0.8-0.3s0.4-0.4,0.5-0.7c0.1-0.3,0.2-0.6,0.2-1
					c0-0.4-0.1-0.7-0.2-1c-0.1-0.3-0.3-0.5-0.5-0.7c-0.2-0.2-0.5-0.2-0.8-0.2c-0.3,0-0.6,0.1-0.8,0.2c-0.2,0.2-0.4,0.4-0.5,0.7
					S108.5,143.4,108.5,143.8z"/>
				<path d="M116.2,141.1v0.9h-3v-0.9H116.2z M114,139.8h1.1v5.2c0,0.2,0,0.4,0.1,0.5c0.1,0.1,0.1,0.2,0.2,0.2
					c0.1,0,0.2,0.1,0.3,0.1c0.1,0,0.2,0,0.2,0c0.1,0,0.1,0,0.1,0l0.2,0.9c-0.1,0-0.1,0-0.3,0.1c-0.1,0-0.3,0-0.4,0
					c-0.3,0-0.5,0-0.8-0.1c-0.2-0.1-0.4-0.3-0.6-0.5c-0.1-0.2-0.2-0.5-0.2-0.8V139.8z"/>
				<path d="M119,146.6c-0.3,0-0.7-0.1-0.9-0.2s-0.5-0.3-0.7-0.6s-0.2-0.5-0.2-0.9c0-0.3,0.1-0.6,0.2-0.8s0.3-0.4,0.5-0.5
					s0.4-0.2,0.7-0.3c0.2-0.1,0.5-0.1,0.8-0.1c0.3,0,0.6-0.1,0.8-0.1c0.2,0,0.4-0.1,0.4-0.1s0.1-0.1,0.1-0.3v0
					c0-0.3-0.1-0.6-0.3-0.7c-0.2-0.2-0.4-0.3-0.8-0.3c-0.4,0-0.6,0.1-0.8,0.2c-0.2,0.2-0.3,0.3-0.4,0.5l-1-0.2
					c0.1-0.3,0.3-0.6,0.5-0.8s0.5-0.4,0.8-0.4c0.3-0.1,0.6-0.1,0.9-0.1c0.2,0,0.4,0,0.7,0.1s0.5,0.1,0.7,0.3
					c0.2,0.1,0.4,0.3,0.5,0.6c0.1,0.2,0.2,0.6,0.2,1v3.6h-1v-0.7h0c-0.1,0.1-0.2,0.3-0.3,0.4c-0.1,0.1-0.3,0.2-0.5,0.3
					C119.5,146.6,119.3,146.6,119,146.6z M119.2,145.8c0.3,0,0.5-0.1,0.8-0.2c0.2-0.1,0.4-0.3,0.5-0.5c0.1-0.2,0.2-0.4,0.2-0.6v-0.7
					c0,0-0.1,0.1-0.2,0.1c-0.1,0-0.2,0.1-0.4,0.1c-0.1,0-0.3,0-0.4,0.1c-0.1,0-0.2,0-0.3,0c-0.2,0-0.4,0.1-0.6,0.1
					c-0.2,0.1-0.3,0.2-0.4,0.3c-0.1,0.1-0.2,0.3-0.2,0.5c0,0.3,0.1,0.5,0.3,0.6C118.6,145.7,118.9,145.8,119.2,145.8z"/>
				<path d="M123.1,146.5v-5.5h1v0.9h0.1c0.1-0.3,0.3-0.5,0.5-0.7c0.3-0.2,0.5-0.3,0.9-0.3c0.1,0,0.1,0,0.2,0c0.1,0,0.2,0,0.2,0v1
					c0,0-0.1,0-0.2,0c-0.1,0-0.2,0-0.3,0c-0.3,0-0.5,0.1-0.7,0.2s-0.3,0.3-0.5,0.4c-0.1,0.2-0.2,0.4-0.2,0.6v3.3H123.1z"/>
			</g>
		</g>
		<g>
			<g>
				<path d="M176.1,146.5v-7.3h2.6c0.6,0,1,0.1,1.4,0.3c0.4,0.2,0.7,0.5,0.8,0.8s0.3,0.7,0.3,1.2c0,0.4-0.1,0.8-0.3,1.2
					c-0.2,0.3-0.5,0.6-0.8,0.8c-0.4,0.2-0.8,0.3-1.4,0.3h-2v-0.9h1.9c0.4,0,0.6-0.1,0.9-0.2c0.2-0.1,0.4-0.2,0.5-0.4
					c0.1-0.2,0.2-0.4,0.2-0.7c0-0.3-0.1-0.5-0.2-0.7s-0.3-0.4-0.5-0.5c-0.2-0.1-0.5-0.2-0.9-0.2h-1.4v6.3H176.1z M179.7,143.2
					l1.8,3.3h-1.3l-1.8-3.3H179.7z"/>
				<path d="M184.9,146.6c-0.5,0-1-0.1-1.4-0.3c-0.4-0.2-0.7-0.6-0.9-1c-0.2-0.4-0.3-0.9-0.3-1.5c0-0.6,0.1-1.1,0.3-1.5
					c0.2-0.4,0.5-0.8,0.9-1c0.4-0.2,0.8-0.4,1.3-0.4c0.3,0,0.6,0.1,0.9,0.2c0.3,0.1,0.5,0.3,0.8,0.5s0.4,0.5,0.5,0.8
					c0.1,0.3,0.2,0.8,0.2,1.3v0.4h-4.3v-0.8h3.3c0-0.3-0.1-0.5-0.2-0.7c-0.1-0.2-0.3-0.4-0.5-0.5c-0.2-0.1-0.4-0.2-0.7-0.2
					c-0.3,0-0.6,0.1-0.8,0.2s-0.4,0.3-0.5,0.6c-0.1,0.2-0.2,0.5-0.2,0.8v0.6c0,0.4,0.1,0.7,0.2,0.9s0.3,0.5,0.5,0.6
					c0.2,0.1,0.5,0.2,0.8,0.2c0.2,0,0.4,0,0.6-0.1c0.2-0.1,0.3-0.1,0.4-0.3c0.1-0.1,0.2-0.3,0.3-0.4l1,0.2c-0.1,0.3-0.2,0.6-0.4,0.8
					c-0.2,0.2-0.5,0.4-0.8,0.5C185.6,146.6,185.3,146.6,184.9,146.6z"/>
				<path d="M190.7,146.6c-0.5,0-1-0.1-1.4-0.4s-0.7-0.6-0.9-1c-0.2-0.4-0.3-0.9-0.3-1.5c0-0.6,0.1-1,0.3-1.5c0.2-0.4,0.5-0.8,0.9-1
					c0.4-0.2,0.8-0.4,1.3-0.4c0.4,0,0.8,0.1,1.1,0.2c0.3,0.2,0.6,0.4,0.8,0.6c0.2,0.3,0.3,0.6,0.4,1h-1c-0.1-0.3-0.2-0.5-0.4-0.7
					c-0.2-0.2-0.5-0.3-0.8-0.3c-0.3,0-0.6,0.1-0.8,0.2c-0.2,0.2-0.4,0.4-0.5,0.7s-0.2,0.6-0.2,1c0,0.4,0.1,0.7,0.2,1
					c0.1,0.3,0.3,0.5,0.5,0.7c0.2,0.2,0.5,0.2,0.8,0.2c0.2,0,0.4,0,0.5-0.1c0.2-0.1,0.3-0.2,0.4-0.3s0.2-0.3,0.2-0.5h1
					c0,0.4-0.2,0.7-0.3,0.9c-0.2,0.3-0.4,0.5-0.8,0.7C191.5,146.5,191.1,146.6,190.7,146.6z"/>
				<path d="M195.1,143.3v3.2h-1.1v-7.3h1v2.7h0.1c0.1-0.3,0.3-0.5,0.6-0.7s0.6-0.3,1-0.3c0.4,0,0.7,0.1,1,0.2
					c0.3,0.2,0.5,0.4,0.7,0.7c0.2,0.3,0.2,0.7,0.2,1.1v3.5h-1.1v-3.3c0-0.4-0.1-0.7-0.3-0.9s-0.5-0.3-0.9-0.3
					c-0.3,0-0.5,0.1-0.7,0.2c-0.2,0.1-0.4,0.3-0.5,0.5C195.2,142.7,195.1,143,195.1,143.3z"/>
				<path d="M201.7,146.6c-0.3,0-0.7-0.1-0.9-0.2s-0.5-0.3-0.7-0.6s-0.2-0.5-0.2-0.9c0-0.3,0.1-0.6,0.2-0.8s0.3-0.4,0.5-0.5
					s0.4-0.2,0.7-0.3c0.2-0.1,0.5-0.1,0.8-0.1c0.3,0,0.6-0.1,0.8-0.1c0.2,0,0.4-0.1,0.4-0.1s0.1-0.1,0.1-0.3v0
					c0-0.3-0.1-0.6-0.3-0.7c-0.2-0.2-0.4-0.3-0.8-0.3c-0.4,0-0.6,0.1-0.8,0.2c-0.2,0.2-0.3,0.3-0.4,0.5l-1-0.2
					c0.1-0.3,0.3-0.6,0.5-0.8s0.5-0.4,0.8-0.4c0.3-0.1,0.6-0.1,0.9-0.1c0.2,0,0.4,0,0.7,0.1s0.5,0.1,0.7,0.3
					c0.2,0.1,0.4,0.3,0.5,0.6c0.1,0.2,0.2,0.6,0.2,1v3.6h-1v-0.7h0c-0.1,0.1-0.2,0.3-0.3,0.4c-0.1,0.1-0.3,0.2-0.5,0.3
					C202.2,146.6,202,146.6,201.7,146.6z M201.9,145.8c0.3,0,0.5-0.1,0.8-0.2c0.2-0.1,0.4-0.3,0.5-0.5c0.1-0.2,0.2-0.4,0.2-0.6v-0.7
					c0,0-0.1,0.1-0.2,0.1c-0.1,0-0.2,0.1-0.4,0.1c-0.1,0-0.3,0-0.4,0.1c-0.1,0-0.2,0-0.3,0c-0.2,0-0.4,0.1-0.6,0.1s-0.3,0.2-0.4,0.3
					c-0.1,0.1-0.2,0.3-0.2,0.5c0,0.3,0.1,0.5,0.3,0.6C201.3,145.7,201.6,145.8,201.9,145.8z"/>
				<path d="M205.7,146.5v-0.7l3-3.8v0h-2.9v-0.9h4.2v0.8l-2.8,3.7v0h2.9v0.9H205.7z"/>
				<path d="M212.9,146.6c-0.3,0-0.7-0.1-0.9-0.2s-0.5-0.3-0.7-0.6s-0.2-0.5-0.2-0.9c0-0.3,0.1-0.6,0.2-0.8s0.3-0.4,0.5-0.5
					s0.4-0.2,0.7-0.3c0.2-0.1,0.5-0.1,0.8-0.1c0.3,0,0.6-0.1,0.8-0.1c0.2,0,0.4-0.1,0.4-0.1s0.1-0.1,0.1-0.3v0
					c0-0.3-0.1-0.6-0.3-0.7c-0.2-0.2-0.4-0.3-0.8-0.3c-0.4,0-0.6,0.1-0.8,0.2c-0.2,0.2-0.3,0.3-0.4,0.5l-1-0.2
					c0.1-0.3,0.3-0.6,0.5-0.8s0.5-0.4,0.8-0.4c0.3-0.1,0.6-0.1,0.9-0.1c0.2,0,0.4,0,0.7,0.1s0.5,0.1,0.7,0.3
					c0.2,0.1,0.4,0.3,0.5,0.6c0.1,0.2,0.2,0.6,0.2,1v3.6h-1v-0.7h0c-0.1,0.1-0.2,0.3-0.3,0.4c-0.1,0.1-0.3,0.2-0.5,0.3
					C213.4,146.6,213.2,146.6,212.9,146.6z M213.1,145.8c0.3,0,0.5-0.1,0.8-0.2c0.2-0.1,0.4-0.3,0.5-0.5c0.1-0.2,0.2-0.4,0.2-0.6
					v-0.7c0,0-0.1,0.1-0.2,0.1c-0.1,0-0.2,0.1-0.4,0.1c-0.1,0-0.3,0-0.4,0.1c-0.1,0-0.2,0-0.3,0c-0.2,0-0.4,0.1-0.6,0.1
					c-0.2,0.1-0.3,0.2-0.4,0.3c-0.1,0.1-0.2,0.3-0.2,0.5c0,0.3,0.1,0.5,0.3,0.6C212.6,145.7,212.8,145.8,213.1,145.8z"/>
				<path d="M217,146.5v-5.5h1v0.9h0.1c0.1-0.3,0.3-0.5,0.5-0.7c0.3-0.2,0.5-0.3,0.9-0.3c0.1,0,0.1,0,0.2,0c0.1,0,0.2,0,0.2,0v1
					c0,0-0.1,0-0.2,0c-0.1,0-0.2,0-0.3,0c-0.3,0-0.5,0.1-0.7,0.2s-0.3,0.3-0.5,0.4c-0.1,0.2-0.2,0.4-0.2,0.6v3.3H217z"/>
			</g>
		</g>
	</g>
</g>
</svg>
