<?xml version="1.0" encoding="utf-8"?>
<!-- Generator: Adobe Illustrator 24.2.3, SVG Export Plug-In . SVG Version: 6.00 Build 0)  -->
<svg version="1.1" id="_x3C_Layer_x3E_" xmlns="http://www.w3.org/2000/svg" xmlns:xlink="http://www.w3.org/1999/xlink" x="0px"
	 y="0px" viewBox="0 0 2846 769.4" style="enable-background:new 0 0 2846 769.4;" xml:space="preserve">
<style type="text/css">
	.st0{fill:#26282D;}
	.st1{fill:#FD5E5A;}
	.st2{fill:#00587E;}
	.st3{fill:#4B5059;}
	.st4{fill:#172866;}
	.st5{fill:#FC7575;}
	.st6{fill:#FF9739;}
	.st7{fill:#3F2344;}
	.st8{fill:#0F1D5B;}
	.st9{fill:#2A417F;}
	.st10{fill:#FBCE5D;}
	.st11{fill:#6E1D6B;}
	.st12{fill:#6D70A8;}
	.st13{fill:#A1AAFF;}
	.st14{fill:#542F5A;}
	.st15{fill:#95719C;}
	.st16{fill:#FFFFFF;}
	.st17{fill:#1B2B80;}
	.st18{fill:#F9B406;}
	.st19{fill:#111F59;}
	.st20{fill:#18287D;}
	.st21{opacity:0.69;}
	.st22{fill:#757AD8;}
	.st23{fill:#76597B;}
	.st24{fill:#001429;}
	.st25{fill:#C0B4FE;}
	.st26{fill:#006282;}
	.st27{fill:#FDB647;}
	.st28{fill:#FFF7CF;}
	.st29{fill:#F57408;}
	.st30{fill:#1F0140;}
	.st31{fill:#2E34A2;}
	.st32{fill:#2D015C;}
	.st33{fill:#F78500;}
	.st34{fill:#753A00;}
	.st35{fill:#00147D;}
	.st36{fill:#241145;}
	.st37{fill:#270708;}
	.st38{fill:#9A1C1F;}
	.st39{fill:#352F4C;}
	.st40{fill:#B5B2C1;}
	.st41{fill:#523939;}
	.st42{fill:#231919;}
	.st43{fill:#312E78;}
	.st44{fill:#321F48;}
	.st45{fill:#FFDA88;}
	.st46{fill:#464A7F;}
	.st47{fill:#6B6E99;}
	.st48{fill:#FC8484;}
	.st49{fill:#432960;}
	.st50{fill:#2A2853;}
	.st51{fill:#ED1C24;}
	.st52{fill:#1B0D34;}
	.st53{fill:#023135;}
	.st54{fill:#265B72;}
	.st55{fill:#1A3D4C;}
	.st56{fill:#D7A4A5;}
	.st57{fill:#5C94AD;}
	.st58{fill:#6C6584;}
	.st59{fill:#12192C;}
	.st60{fill:#FC8080;}
	.st61{fill:#243158;}
	.st62{fill:#4962AF;}
	.st63{fill:#662D91;}
	.st64{fill:#F4E7FF;}
	.st65{fill:#B699CE;}
	.st66{fill:#9195E0;}
	.st67{fill:#E24B4B;}
	.st68{fill:#381A3F;}
	.st69{fill:#542360;}
	.st70{fill:#E3F6F0;}
	.st71{fill:#E9E9FF;}
	.st72{fill:#C7C9FD;}
	.st73{fill:#653870;}
	.st74{fill:#2846A6;}
	.st75{fill:#A7A3B5;}
	.st76{fill:#170F33;}
	.st77{fill:#281E67;}
	.st78{fill:#65C8D0;}
	.st79{fill:#4A4C7E;}
	.st80{fill:#6265A8;}
	.st81{fill:#A1A3CB;}
	.st82{fill:#4C969C;}
	.st83{fill:#005757;}
	.st84{fill:#70A3FF;}
	.st85{fill:#385280;}
	.st86{fill:#5491FF;}
	.st87{fill:#547ABF;}
	.st88{fill:#84D3D9;}
	.st89{fill:#B963AB;}
	.st90{fill:#FD4E49;}
	.st91{fill:#3B4F5C;}
	.st92{fill:url(#SVGID_1_);}
	.st93{fill:#004F70;}
	.st94{fill:#7EFCCB;}
	.st95{fill:#86B3C6;}
	.st96{fill:#0B678D;}
	.st97{fill:#F7931E;}
	.st98{opacity:0.31;fill:#F7931E;}
	.st99{fill:#001959;}
	.st100{fill:#D44F4B;}
	.st101{fill:#42210B;}
	.st102{fill:#64132C;}
	.st103{fill:#8D3131;}
	.st104{fill:#821515;}
	.st105{fill:#FD4642;}
	.st106{fill:#B9BCFC;}
	.st107{fill:#8B8DBD;}
	.st108{fill:#002B32;}
	.st109{fill:#354149;}
	.st110{fill:#465761;}
	.st111{fill:#82916B;}
	.st112{fill:#402420;}
	.st113{fill:#608DA2;}
	.st114{fill:#B4D2D9;}
	.st115{fill:#1E3340;}
	.st116{fill:#34514C;}
	.st117{fill:#15242B;}
	.st118{fill:#0F1321;}
	.st119{fill:#BC6502;}
	.st120{fill:#845B43;}
	.st121{fill:#B07959;}
	.st122{fill:#68111E;}
	.st123{fill:#834F47;}
	.st124{fill:#80A4B5;}
	.st125{fill:#203640;}
	.st126{fill:#42858C;}
	.st127{fill:#9BA789;}
	.st128{fill:#2E0028;}
	.st129{fill:#003135;}
</style>
<g>
	<g>
		<g>
			<g>
				<g>
					<path class="st0" d="M1376.1,31.3c0.2,5.4,0.3,14.6,1.7,19.8c0.5,2.2,2.2,5.2,3.1,3.7C1382.6,52,1377.2,35.3,1376.1,31.3
						c3.7,6.8,11.8,26.4,4.5,26.1C1373.2,58,1374.7,38.8,1376.1,31.3z"/>
					<path class="st1" d="M1415,60.8c0,0-2.8-13.2-0.7-16.4c2.1-3.3,1.9-12.6,1.4-15.1c-0.5-2.5-2.1-6-3.4-5.7c-1.3,0.3-6-0.9-7-0.7
						c-0.9,0.2-3.2,0.7-4.9,1c-1.7,0.3-3.4,6.2-4.6,8c-1.2,1.8,7.2,24.4,7.2,24.4L1415,60.8z"/>
					<g>
						<polygon class="st2" points="1718.2,43.4 1376.9,30.3 1377,27.3 1718.3,40.3 1723.5,42.3 						"/>
					</g>
					<polygon class="st3" points="1375.7,24.3 1375.4,33 1406,32.2 1405.8,28.1 					"/>
					<polygon class="st4" points="1712.8,44 1687.4,42.8 1687.5,38.5 1712.9,39.1 					"/>
					<path class="st5" d="M1405.2,21.8l0,1.1c0,0-1.1,7.7,0.7,8.9c1.9,1.2,2.9-8.6,2.9-8.6s-1.7,8.9,0,9.6c2.4,1,3.7-8.2,3.7-8.2
						s-1.7,5.3-1.2,8c0.6,2.7,4.4-3.4,4.4-3.4s0.3-2.7-1.1-5.4c-1.5-2.7-2.7-1.6-3.6-2.2C1410.2,21.1,1406.3,21.2,1405.2,21.8z"/>
					<path class="st5" d="M1407,27.9c2.1,1.4-6.7,5.8-7.5,8.4c-0.8,2.6,0.7,6.3-1,6.7c-0.6,0.1-3.7-9.3-3-10.5
						C1396.3,31.3,1404.9,26.5,1407,27.9z"/>
				</g>
				<g>
					<path class="st1" d="M1009.9,98c0,0,0.1-13.5-2.7-16.2c-2.8-2.8-4.5-12-4.5-14.5c0-2.5,0.9-6.3,2.2-6.3c1.3,0,5.7-2.1,6.7-2.1
						c1,0-6.5-19.3-3.2-20.2c3.2-1,6.5,20.2,8.2,20.2c1.7,0,2.1-23,4.8-23c2.7,0-0.2,28.4,1.3,29.9c1.5,1.5-2.1,25.4-2.1,25.4
						L1009.9,98z"/>
					<path class="st5" d="M1011.5,57.7l0.3,1.1c0,0,2.7,7.3,1.1,8.9c-1.6,1.6-4.6-7.8-4.6-7.8s3.4,8.4,1.9,9.4
						c-2.1,1.5-5.3-7.3-5.3-7.3s2.8,4.8,2.8,7.6c0,2.8-5-2.4-5-2.4s-0.9-2.6,0-5.5c0.9-2.9,2.3-2.1,3-2.9
						C1006.5,58.1,1010.4,57.4,1011.5,57.7z"/>
					<path class="st5" d="M1020.9,66.1c0,0-8.1-3.8-9.9-2c-1.7,1.7,7.1,6,8.4,8.3c1.3,2.3,1.2,3.5,2.4,4.7
						c1.2,1.2,2.1-10.1,1.1-11.1C1022,65,1020.9,66.1,1020.9,66.1z"/>
				</g>
				<path class="st6" d="M1274.1,180.2c0,0-30.8,11-61.5,7.8c-4.3-0.4-17.1-1.7-21.6-2.3c-35.8-4.4-73.9-6.2-73.9-5.7l2.5,14.3
					c0,0,46.8,20.2,83.4,28c28.5,6.1,58.8,2.6,70.5,2.6C1300.4,225,1290.7,180.2,1274.1,180.2z"/>
				<path class="st7" d="M1267.7,183c0,0-30.8,42.5-42.6,42.5c-11.8,0-34.1-39.6-34.1-39.6l-2.5,61.2c0,0,12.6,22.1,37.8,22.1
					s63-90.3,63-90.3L1267.7,183z"/>
				<polygon class="st8" points="1357,386.7 1357,698 1336.7,698 1310.5,402 1302.2,366.1 				"/>
				<path class="st8" d="M1277.6,692.2l2,20.1l-40.8-2.6c0,0,17-7.9,25.3-7.9l1.8-9.7H1277.6z"/>
				<polygon class="st8" points="1337.3,692.2 1337.3,710.5 1380.6,710.5 1351.2,698.4 1348.4,692.2 				"/>
				<polygon class="st9" points="1270.7,383.1 1265.7,401 1256.3,694.8 1280.3,694.8 1326,383.1 				"/>
				<path class="st10" d="M1394.9,53.5c0,0-1.5,43.5-7,54.9c-9.9,20.6-42.6,59.9-42.6,59.9l20.4,50c0,0,38.1-58.7,50-97.6
					c5.3-17.3,2.9-65.1,2.9-65.1C1412.4,49.9,1401.1,47.8,1394.9,53.5z"/>
				<path class="st11" d="M1204.1,704.6l-2.8-1.2l0.1-3.5l-10.8,0.7l-2,9.5l0.4,5.1h40.3C1229.3,715.3,1211.6,707,1204.1,704.6z"/>
				<path class="st12" d="M1198.1,378.3l-46.2,48.2l4.1,10.4c0,0,26.1,104.9,26.1,115.6c0,10.7,1.9,148.7,1.9,148.7l20.2-1.4
					l4.8-148.5L1198.1,378.3z"/>
				<path class="st13" d="M1112.2,365.6c0.6,7.1-17.2,162-17.2,162l-22.8,168.8l13.3,0.3c-3.2-10.3,41.8-143.6,41.8-143.6
					s36.2-110.1,34.9-110.1l21.3-45.1c0,0,17.2-12.5,18.5-37.6C1175.4,357.6,1112.2,365.6,1112.2,365.6z"/>
				<path class="st11" d="M1085.5,696.7l-13.3-0.3v28.7h24C1096.2,725.2,1088.7,707,1085.5,696.7z"/>
				<path class="st14" d="M1103.4,408.1c-3.1-21.7-1.6-130.2-3-169.9c0-1.3,8.6-51.4,8.6-51.4c2.1,0,26.3-3.4,45.3-3.4
					c19,0,36.7,2.4,36.7,2.4s8.3,26.1,8.3,53.3c0,15.4,6.6,111.7,4.4,155.8C1177.8,398.4,1129.2,407.6,1103.4,408.1z"/>
				<path class="st15" d="M1191,185.8c5.4,16.7,8.7,34.1,9.1,51.7c1,31.9,6.9,109.4,3.5,157.4c0.6-50.2-5.3-133.8-5.3-157.4
					C1198.4,221.1,1195.3,201.9,1191,185.8z"/>
				<path class="st16" d="M1172.2,147.7c0,0-6.2,4.2-14.6,2.4c0,0,4.7,5.4,8.2,5.4C1169.3,155.5,1172.2,147.7,1172.2,147.7z"/>
				<path class="st1" d="M1111.3,185.4c0,0-3.1,16.8-0.4,16.4c2.8-0.3,4.8-11.7,4.8-11.7s-0.8,15.3,1.8,15
					c2.6-0.3,3.6-14.8,3.6-14.8s0.8,12.4,3,14.1c2.1,1.7,2.8-15,2.8-15s0.7,10.3,2.1,10.1c1.4-0.2,3.8-9.8,4.3-14.4
					c0.5-4.6-4.3-6.1-9-5.6c-4.7,0.6-3.2,0.1-7.2,0.6C1113.1,180.6,1111.3,185.4,1111.3,185.4z"/>
				<path class="st17" d="M1129.5,122.8c-2.7-2-6.8-3-11.5-1.7l0.6,1.6C1122.8,120.8,1126.7,121.3,1129.5,122.8z"/>
				<path class="st17" d="M1116.7,131c0.7-2.3,2.3-4.8,4.6-6.2c2.2-1.4,3.9-1.4,5.7-1.4c0.7,0,1.3,0.2,2,0.2c-0.2,0-2.6-0.6-4-0.4
					c-4.2,0.2-7.6,3.5-9.1,7.4L1116.7,131z"/>
				<path class="st5" d="M1159.1,166.5c0,0-2.1,22.6,4.5,33.7c2.1,3.6-0.3,8.2-4.4,8.3c-2.4,0.1-5.6-0.3-9.9-1.5
					c-4.1-1.1-10.5-4.9-12-10c-4.7-15.6,4.2-43.4,4.2-43.4L1159.1,166.5z"/>
				<path class="st1" d="M1139.1,162.5c1.2-5.2,2.4-8.7,2.4-8.7l17.6,12.7c0,0-0.6,6.5-0.2,14.2
					C1153.2,179.5,1145.7,175.2,1139.1,162.5z"/>
				<path class="st5" d="M1164.4,112.5c0,0,3.8-1.5,7,3.4c3.2,4.9,6.1,21.2,3.4,36.2c-2.8,15-4.9,20.7-11.4,20.7
					c-6.6,0-18.6-2.7-27.5-23.1C1126.9,129.5,1129.9,106.2,1164.4,112.5z"/>
				<path class="st17" d="M1165.4,124.9c1.5,0,8.1,1,10.4-12.6c2.3-13.5-12.2-30.2-22.1-25.7c-9.9,4.4,2.6,12.2,2.6,12.2
					s-7.2-4-9.3,0.6c-2.1,4.7,1.1,6.8,0,7.8c-1.1,1.1-7.9-8.4-15.5-0.8c-7.6,7.6-2.5,12.3-4.4,16.5c-1.9,4.2-10.6,10.3-1.9,24.5
					c5.6,9,15,10.7,15,10.7s-1.5-4.8-1.5-11.2c0-6.4,5.1-1.3,5.1-1.3s-2.3-0.5-2.3-6.8c0-6.8-2.8-12.2-2.8-13.9
					c0-1.7-0.6-6.2,6.6-3.2C1152.5,124.8,1165.4,124.9,1165.4,124.9z"/>
				<g>
					<path class="st4" d="M1162.5,152.3c-0.6,0.1-0.6-0.8-0.1-0.8l5.5-0.5l-1.4-14.3c0.6,4.1,1.8,11.6,2.3,15.1
						C1168.7,151.7,1162.1,152.3,1162.5,152.3z"/>
					<path class="st4" d="M1149.2,136.4c4.2-6.5,10.9-2.4,11-2.3c0.5,0.3,0,1-0.5,0.7c-0.2-0.2-6-3.7-9.8,2.1
						c-0.1,0.2-0.4,0.3-0.6,0.1C1149.1,136.8,1149.1,136.6,1149.2,136.4z"/>
					<path class="st4" d="M1174.2,130.3c0.2,0,0.4,0.2,0.4,0.4c0,0.2-0.2,0.4-0.4,0.4c-3.6,0-4.4,3.6-4.4,3.8
						c-0.1,0.5-0.9,0.4-0.8-0.2C1169,134.8,1169.9,130.3,1174.2,130.3z"/>
					<path class="st16" d="M1158.4,157.9L1158.4,157.9c2.1,2.1,7,2,9.9,1.5l0,0c0.7-0.1,0.9,0.9,0.2,1c-8.1,1.9-12.7-1.2-11.3-2.6
						C1157.5,157.5,1158.1,157.5,1158.4,157.9z"/>
				</g>
				<path class="st5" d="M1145.6,149.2c0,0,0.4-9.5-7-11.4c-7.4-1.9-6.4,6.5-2.3,10.6C1140.4,152.5,1145.6,149.2,1145.6,149.2z"/>
				<path class="st1" d="M1138.6,140.6c3.1-0.8,4.4,3.5,4.6,3.9c0.4,1.4,0.2,2.7-2.4,3.2C1138.2,148.3,1135.5,141.5,1138.6,140.6z"
					/>
				<path class="st6" d="M1274.1,180.2c0,0-28.4,11.7-56,12.7l6,32.4c24,2.8,39.5-0.4,49.4-0.4
					C1300.4,225,1290.7,180.2,1274.1,180.2z"/>
				<path class="st18" d="M1299.8,177c0,0-23.8,0.3-31.6,8.1c-7.8,7.8-11.9,220.9-11.9,220.9s109.5-4,109.7-9.3
					c1.2-30.4,1.3-147.7-0.3-178.5c-1.6-31.2-18.2-53.2-18.2-53.2C1334,165.1,1299.8,177,1299.8,177z"/>
				<path class="st1" d="M1267.7,183c0,0-0.2,17,2.4,16.2c2.7-0.8,2.8-12.3,2.8-12.3s1.8,15.2,4.3,14.4c2.5-0.7,1-15.2,1-15.2
					s2.9,12.1,5.3,13.4c2.4,1.3,0.2-15.2,0.2-15.2s2.4,10,3.8,9.7c1.3-0.4,2.1-10.3,1.8-14.9c-0.3-4.7-5.2-4.7-9.7-3.3
					c-4.5,1.3-3.3,0.1-7.1,1.2C1268.6,177.9,1267.7,183,1267.7,183z"/>
				<g>
					<g>
						<path class="st1" d="M1315.8,116.7c0,0,2.7-7.6,6.6-7.6c3.9,0,5.5,11.1,1.2,13.4C1319.2,124.8,1314.5,122.4,1315.8,116.7z"/>
						<path class="st5" d="M1286.6,133.9c0,0,7.9,38.4,12.8,45c4.9,6.6,20.3,6.9,25.2,1.8l-5.5-33L1286.6,133.9z"/>
						<path class="st1" d="M1320.8,157.4l-1.6-9.7l-32.6-13.8c0,0,1.6,7.7,3.8,16.9c4.5,4.1,9.3,7.2,13.4,9
							C1310.6,162.7,1316.8,161.5,1320.8,157.4z"/>
						<path class="st5" d="M1304.1,88.3c0,0,9-0.1,12.7,6.2c3.6,6.2,11.5,38.9,9.7,47.3c-1.8,8.3-10.4,12.4-20.7,8.3
							c-10.3-4.1-25.2-15.8-28.6-28.7C1273.7,108.5,1286.7,84.5,1304.1,88.3z"/>
						<path class="st19" d="M1291.9,84.4c-5.5,2.9-20.5-1.7-23.7,12.8c-3.2,14.5,5.6,14.4,4.5,19.7c-1.1,5.2,0.1,7.1,4.6,14.9
							c4.5,7.8,7.7,10.6,9.1,11.9c1.8,1.7,2.8,2,2.8,2l-2.5-11.4c0,0-5.6-4.2-4.8-7.5c0.7-3.2,6.3-0.5,7.6-2.7
							c2.1-3.4-7.9-20.5,5.1-27.5c11.4-6.1,21.4-3.1,25.2,5.5C1323.2,100.6,1314.5,72.5,1291.9,84.4z"/>
						<path class="st5" d="M1288.8,126.8c0,0-4.7-6.1-8.3-4.3c-3.5,1.8-1.5,13.1,3.1,13.4C1288.3,136,1291.7,131.7,1288.8,126.8z"/>
						<path class="st1" d="M1287.2,126.6c0,0-6.5-3.5-7.3,0.1c-0.8,3.6,2.6,7.2,6.2,4.9C1289.8,129.2,1287.2,126.6,1287.2,126.6z"/>
						<g>
							<path class="st16" d="M1304.6,138.5c4.7,0.3,9.7-0.5,13.8-2.7c1.4-0.7,2.7-1.6,4-2.6c-1,1.2-2.2,2.4-3.6,3.3
								C1316.1,138.5,1310,140.1,1304.6,138.5z"/>
						</g>
						<g>
							<path class="st4" d="M1291.8,122.6c0-0.2,0.4-5,3.8-7.8c3.5-2.9,7.8-0.9,8-0.8c0.6,0.3,0.2,1.2-0.4,0.9
								c-0.2-0.1-3.9-1.8-6.9,0.7c-3.1,2.6-3.5,7.1-3.5,7.1c0,0.3-0.3,0.5-0.5,0.5C1292,123.1,1291.8,122.9,1291.8,122.6z"/>
						</g>
						<g>
							<path class="st4" d="M1311.1,111.3c1.5-3.8,8.8-2.7,10-1.5c0.4,0.5-0.3,1.1-0.7,0.7l0,0c0,0-0.9-0.8-4.2-0.8
								c-3.2,0-4.1,2-4.2,2C1311.8,112.3,1310.9,111.9,1311.1,111.3z"/>
						</g>
						<path class="st20" d="M1314.9,127.1c-1.3-1.1-3.2-2.1-3.3-2.2c-0.1,0.1-1,1.7-1.5,3.2c0.6-0.7,1.2-1.6,1.7-2.4
							C1312.7,126.3,1313.8,126.8,1314.9,127.1z"/>
						<path class="st17" d="M1288.6,103.3c0,0,3.1-9.6,2.5-14c-0.7-4.4-5.3-6.7-7.9-5.1c-2.5,1.6-1.9,3.7-1.9,3.7s-1.4-4.3,0.6-7.3
							c2-3,6.3-2.1,8.5-1.7c2.2,0.5,2.8,1.6,2.8,1.6s0.5-3.8-2.1-5.1c-2.6-1.3-5.3,0.3-5.3,0.3s2.8-3.7,7.6-2.6
							c4.8,1,5.1,3.7,5.8,4.8c0.7,1.1,0,3.7,0,3.7s3-1.9,3.5-4.3c0.5-2.4-3.7-6.2-3.7-6.2s12.5-2,10,9.6c0,0,2.5,0.2,3.9-2
							c1.3-2.2-0.2-4.9-0.2-4.9s20.1,20,7.1,28.3c-0.5,0.3-1.4-7.1-12.9-7.3C1295.9,94.6,1288.6,103.3,1288.6,103.3z"/>
					</g>
					<path class="st4" d="M1294.1,121.2c-0.9,4.2,1.5,8.3,5.4,9.2c3.9,0.9,7.8-1.9,8.8-6.1c0.9-4.2-1.5-8.3-5.4-9.2
						S1295.1,117,1294.1,121.2z"/>
					<g class="st21">
						<path class="st22" d="M1297.8,116l8.5,12.1c-0.4,0.5-0.9,0.8-1.4,1.2l-8.6-12.2C1296.8,116.7,1297.2,116.3,1297.8,116z"/>
						<path class="st22" d="M1295.2,118.6l8.1,11.5c-0.3,0.1-0.6,0.2-0.9,0.3l-7.7-10.9C1294.9,119.2,1295,118.8,1295.2,118.6z"/>
					</g>
					<path class="st4" d="M1311.5,115.6c-0.9,4.2,1.5,8.3,5.4,9.2c3.9,0.9,7.8-1.9,8.8-6.1c0.9-4.2-1.5-8.3-5.4-9.2
						C1316.3,108.7,1312.4,111.4,1311.5,115.6z"/>
					<g class="st21">
						<path class="st22" d="M1315.1,110.5l8.5,12.1c-0.4,0.5-0.9,0.9-1.4,1.2l-8.6-12.2C1314.1,111.1,1314.6,110.8,1315.1,110.5z"/>
						<path class="st22" d="M1312.5,113l8.1,11.5c-0.3,0.1-0.6,0.2-0.9,0.3l-7.7-10.9C1312.2,113.6,1312.3,113.3,1312.5,113z"/>
					</g>
					<g>
						
							<rect x="1307.2" y="118.7" transform="matrix(0.9358 -0.3526 0.3526 0.9358 42.0661 469.5214)" class="st4" width="5.1" height="1.2"/>
					</g>
					<g>
						
							<rect x="1289.9" y="119.6" transform="matrix(0.2129 -0.9771 0.9771 0.2129 894.6824 1358.483)" class="st4" width="1.2" height="8.6"/>
					</g>
				</g>
				<path class="st23" d="M1109,186.8c0,0-0.7,29.2-8.6,51.4c0,0-36.7-30-63.1-50.9c-21.9-17.4-32.4-96.1-32.4-96.1l21.2-8.3
					c0,0,11.6,64.4,32.6,82.1C1085.9,188.1,1109,186.8,1109,186.8z"/>
			</g>
		</g>
		<path class="st4" d="M1159.1,139.2c0,1.2-1,2.2-2.2,2.2c-1.2,0-2.2-1-2.2-2.2c0-1.2,1-2.2,2.2-2.2
			C1158.1,137,1159.1,138,1159.1,139.2z"/>
		<path class="st4" d="M1174.4,138.4c0,1.2-1,2.2-2.2,2.2s-2.2-1-2.2-2.2c0-1.2,1-2.2,2.2-2.2S1174.4,137.2,1174.4,138.4z"/>
	</g>
	<g>
		<g>
			<path class="st1" d="M946.6,230.3c-16-0.6-56.2-4.4-88-27.8c-46.3-34.1-54.8-52.4-54.8-52.4s0.2-8.2-1.2-12.4
				c-1.4-4.2-1.1-10.3-3.7-9.4c-2.6,0.9-1.2,6.2-0.6,8c0.2,0.6-0.1,1.1-0.5,1.4c-1.1,0.9-2.8,0.5-3.6-0.7c-0.8-1.2-1.9-3.4-3.3-7.4
				c-2.8-8.4-6-15.6-7-13.5c-1.1,2.1,4.5,16.5,5.5,19.5c1,3-6.7-11.1-10.2-16.8c-3.5-5.7-4.6-1.7-2.5,1.4c2.1,3.1,9.8,17.1,8.7,17.4
				c-1.1,0.4-10.5-15.3-13.2-14.4c-2.7,0.9,0.7,2.9,2.3,5.4c1.6,2.4,8.6,9.1,7.5,11.4c0,0-10.8-7.6-10.5-6c0.1,0.8,10,11,14.5,14.8
				c10.7,9,56.3,71.1,74.3,80.1c17.6,8.7,63.8,39.1,82,34.2C954.4,249.5,951.6,245.2,946.6,230.3z"/>
			<path class="st24" d="M917,152.7c0,0,17.6-0.9,23.7,15.5c6.1,16.4,24.9,85-11.8,77c-9-2-31.4-23.5-30-40.4
				C900.3,187.9,911,152.1,917,152.7z"/>
			<path class="st25" d="M947.7,233.1c0,0-2.7,61,2.7,83.4c5.3,22.4,7.6,26.1,7.6,26.1s-36.4,24.3-52.3,19.3
				c0,0-26.1-62.1-31.5-75.8c-5.3-13.6,23.9-59.6,23.9-59.6S940.9,235.3,947.7,233.1z"/>
			<path class="st1" d="M904.5,202.4l-6,39c0,0-3.7,6.4-7,15.9c-4.6,13.1,33.4-22.3,33.4-22.3l-4.6-40L904.5,202.4z"/>
			<path class="st1" d="M992.3,560.2c0,0,16.9,34.4-10.5,108.6l-5.1,13.7l-14-3.7c0,0,0.9-98.3-6-108
				C949.9,561,992.3,560.2,992.3,560.2z"/>
			<path class="st5" d="M1114,405c0,0-35.6,75.1-41.9,81.3c-6.3,6.2-10.8-40.6-10.8-40.6l17.5-20.1c0,0,24.5-29.4,26.5-29.4
				C1107.4,396.2,1114,399.9,1114,405z"/>
			<path class="st26" d="M1064.7,427.8c0,0-9.7,14-20.7,11.8c-11-2.3-33.7-89.8-86-97c0,0-42.1,25-52.3,19.3
				c0,0,37.4,193.1,33.2,219.2c0,0,45.9,15.2,66-9c20.1-24.3,64.3-11.8,84.4-67.6C1097.3,482.4,1085.7,434.4,1064.7,427.8z"/>
			<path class="st24" d="M935,168.6l5.7-0.4c0,0,13.8,21.9,30.4,27c16.6,5.1,19.8,21.9,11.8,32.5s10.9,8.4,9.3,19.9
				c-1.6,11.5-16.5,38.9-33.5,11.2C941.7,231,935,168.6,935,168.6z"/>
			<path class="st24" d="M917.1,163.1l-25.8,14.2c0,0-5.3,0.1-5.3-5.8c0-6,6.6-11.8,13.2-15.2c6.7-3.4,15.1-4.9,15.1-4.9
				L917.1,163.1z"/>
			<path class="st5" d="M907.7,156.7c0,0-10,1.7-12.6,6.4c-2.7,4.7-3.4,16-6.1,18.7c-2.7,2.7-5,3.3-5,3.3s-0.7,1.2,2,2.6
				c2.7,1.3,2.2,3.6,0.5,3.6c-1.7,0-1,3.1,0.3,3.5c0,0-1.4,0.6-1.1,2.1c0.3,1.6,1.7,2.5,0.9,4.5c-0.9,1.9-0.3,8.3,12.7,5.7
				c0,0,19.4-4.6,20.5-10c1.2-5.5,9.8-25.3,2.4-32.7C914.8,157,907.7,156.7,907.7,156.7z"/>
			<path class="st24" d="M917.2,151.2c0,0-3.5-2.1-15.6,1.4c-12.2,3.5-15.1,16-15.1,16s7.6-9,12.6-9c4.9,0,16.2,1.9,18.1,0.1
				C918.9,157.9,917.2,151.2,917.2,151.2z"/>
			<path class="st24" d="M915.4,150.7c-1.7,0-12.7,11.5-9.8,20.7c2.9,9.1,9.8,5,14.2,7.5c4.4,2.4-0.8,13.7-0.1,18.2
				c0.8,4.6,13.1,30.6,13.1,30.6s10.3-55.1,4.1-65.3C930.6,152.2,915.4,150.7,915.4,150.7z"/>
			<path class="st5" d="M918.5,179.9c0,0,3.5-7.7,5.2-6c1.6,1.6,2.5,12.9-3.3,14C914.5,189,918.5,179.9,918.5,179.9z"/>
			<path class="st1" d="M918.7,180.9c0,0,1.8-4.2,2.8-3.2c1,1-0.1,7.6-1.4,7.6C918.8,185.2,918.4,183,918.7,180.9z"/>
			<path class="st1" d="M893.7,187.4c0,1.2,2.2,2.2,4.8,2.2c2.7,0,4.8-1,4.8-2.2c0-1.2-2.2-2.2-4.8-2.2
				C895.8,185.2,893.7,186.2,893.7,187.4z"/>
			<path class="st5" d="M942.4,237.1c-15-5.6-49.7-17.9-72.4-50.2c-33-47.1-35.4-67.1-35.4-67.1s2.8-7.8,2.8-12.2
				c0-4.4,2.2-10.1-0.5-10.1c-2.7,0-3.1,5.5-3.1,7.4c0,0.7-0.4,1-0.9,1.2c-1.4,0.5-2.8-0.4-3.2-1.8c-0.4-1.4-0.8-3.9-0.8-8.1
				c0-8.8-0.7-16.7-2.4-15c-1.7,1.7-0.9,17.1-0.9,20.3s-2.8-12.7-4.3-19.2c-1.5-6.5-3.9-3-2.8,0.5c1.1,3.6,3.9,19.3,2.8,19.3
				c-1.2,0-5.1-17.8-7.9-17.8c-2.8,0-0.3,3,0.4,5.8c0.7,2.8,5.3,11.3,3.5,13.2c0,0-7.8-10.7-8.1-9c-0.1,0.8,6,13.6,9.1,18.7
				c7.3,12,30.8,85.3,45.1,99.5c13.9,13.8,48.1,57.3,67,58.4C945.9,261.8,942.4,252.9,942.4,237.1z"/>
			<path class="st24" d="M920.3,188c0,0-8.7,3.3-1.7,22.3c8.6,23.1,17.3,24.5,6.2,35.7c-11.1,11.1,4.4,64.8,44.3,53.9
				c0,0-21.5-2.3-16.8-15.1c4.7-12.8,22.9,0.9,22.9-13.6c0-14.5-8.5-7.7-11.7-24.2c-3.2-16.5,6-9,3.6-26.1
				c-2.4-17.1-30.3-58.5-30.3-58.5L920.3,188z"/>
		</g>
		<path class="st24" d="M899.9,179c0,0-3.7-4.2-5-4.2c-1.3,0-1.3,1.2-1.3,1.2L899.9,179z"/>
		<path class="st24" d="M891.5,176.3c0,0,3.7,1.8,5.3,3.3c1.6,1.6,1.5,2.2,1.5,2.2s-3.7-3-5.2-3.5
			C891.6,177.8,891.5,176.3,891.5,176.3z"/>
		<ellipse class="st24" cx="893.6" cy="180.3" rx="0.9" ry="1.8"/>
		<g>
			<path class="st27" d="M1118.8,376.6c0,0,8.3,8.9,14.1,15.2c5.8,6.3,15.8,15.5,18.7,18.7c2.9,3.1,6,21.3,2.9,22.8
				c-3.1,1.5-12-9.3-19.7-12.2c-7.7-2.9-25.4-4.6-25.3-7.3c0.1-2.7-8-12.3-7.9-15.8C1101.9,394.5,1115.8,376.5,1118.8,376.6z"/>
			<path class="st28" d="M1116.8,382.6c19.2,28.6,20.2,14.4,36.1,45.2c-3.1-8.2-8.9-19.2-16-24.3c-3.9-2.8-7.2-6.4-10.5-9.9
				C1123.1,390,1119.9,386.4,1116.8,382.6z"/>
			<g>
				<path class="st28" d="M1125.7,405.7c0.7,0,1.3,0.5,1.4,1.2c0.1,2.5,0.6,7.9,1.7,12.4c-0.9-0.2-1.9-0.4-2.9-0.6
					c-1.2-5.5-1.5-11.3-1.5-11.7C1124.4,406.3,1125,405.7,1125.7,405.7z"/>
				<path class="st28" d="M1120.4,407.9c0.7,0.2,1.1,1,0.8,1.7c0,0.1-1.1,3.6-1.3,7.9c-0.9-0.2-1.8-0.4-2.6-0.6
					c0.2-4.4,1.3-7.9,1.4-8.1C1118.9,408.1,1119.7,407.7,1120.4,407.9z"/>
			</g>
		</g>
		<g>
			<path class="st27" d="M982.4,709.1c0,0-12.2-0.5-20.7-0.8c-8.5-0.3-22.2,0.2-26.4,0c-4.3-0.2-19.3-10.8-18.2-14
				c1.1-3.2,15.1-1.9,22.6-5.3c7.4-3.4,21.2-14.7,23-12.7c1.9,2,14.4,3,16.7,5.6C981.7,684.4,984.6,707,982.4,709.1z"/>
			<path class="st28" d="M979.5,703.4c-33.8-6.6-24.5,4.1-57.4-6.5c8,3.6,19.8,7.3,28.5,5.9c4.7-0.8,9.6-0.6,14.4-0.4
				C969.8,702.6,974.7,703,979.5,703.4z"/>
			<g>
				<path class="st28" d="M957,693.4c-0.5,0.5-1.3,0.6-1.8,0.1c-1.9-1.7-6-5.2-10-7.6c0.8-0.5,1.6-1,2.5-1.6c4.8,3,9,6.9,9.3,7.2
					C957.4,692,957.5,692.8,957,693.4z"/>
				<path class="st28" d="M959.1,688c-0.6,0.3-1.4,0.1-1.8-0.6c0-0.1-1.7-3.3-4.7-6.5c0.8-0.5,1.5-1,2.2-1.5c3,3.3,4.6,6.5,4.7,6.8
					C960,686.9,959.7,687.7,959.1,688z"/>
			</g>
		</g>
	</g>
	<g>
		<path class="st1" d="M287.1,256.8c15.4-5.7,53.1-22.5,76.4-55.6c33.8-48.2,36.2-68.7,36.2-68.7s-2.8-7.9-2.8-12.4
			c0-4.5-2.2-10.3,0.6-10.3c2.8,0,3.2,5.7,3.2,7.6c0,0.7,0.4,1,0.9,1.2c1.4,0.5,2.9-0.4,3.3-1.8c0.4-1.4,0.8-4,0.8-8.2
			c0-9,0.7-17.1,2.4-15.4c1.7,1.7,1,17.5,1,20.7c0,3.2,2.9-13,4.4-19.6c1.5-6.7,4-3.1,2.9,0.5c-1.1,3.7-4,19.8-2.8,19.8
			c1.2,0,5.2-18.3,8.1-18.3c2.9,0,0.3,3.1-0.5,6c-0.7,2.9-5.4,11.6-3.6,13.5c0,0,8-10.9,8.3-9.2c0.1,0.8-6.1,13.9-9.3,19.1
			c-7.4,12.2-31.5,87.3-46.2,101.8c-14.2,14.2-40.6,49.8-43.4,66.1C311,284.2,295,272.8,287.1,256.8z"/>
		<path class="st29" d="M394.4,135.7c0,0-23,55.2-40.8,66.7c-17.8,11.5-48.8,46.7-69.5,47.5c0,0,35.3,46.1,42.9,43.6
			c7.6-2.5,52.7-68.3,61.7-77.2c8.9-8.9,23.6-73,23.6-73L394.4,135.7z"/>
		<path class="st30" d="M208.5,658.6c0,0-13.2,13.5-14.7,22.4c-1.4,8.9-2,21.5-2,21.5h38.8c0,0-4.6-15-4.6-24.9
			C226,667.8,208.5,658.6,208.5,658.6z"/>
		<path class="st30" d="M435.4,670.1c0,0-4.3,12.9-4.3,17s0,13.8,0,13.8l64.6,1.4c0,0,0.9-10.6-5.7-13.8
			c-6.6-3.2-25.6-6.9-31.9-15.5C451.8,664.4,435.4,670.1,435.4,670.1z"/>
		<polygon class="st31" points="355.3,402.9 454.7,481.1 458.1,673 431.7,673 417.9,532.8 287.2,434.7 		"/>
		<path class="st22" d="M339.8,420.7c0,0,8,35.6,8,43.1c0,7.5-25.6,125.6-33.3,133.3c-7.8,7.8-83.9,82.2-83.9,82.2l-33.3-11.5
			c0,0,71.8-86.2,75.3-98.8c3.4-12.6,9.8-120.1,9.8-120.1l54.6-28.2H339.8z"/>
		<path class="st32" d="M191.8,702.6c14.5,0,28.9,0,43.4,0c2.3,0-0.7-13.7-2.2-15c-3.2-2.6-30.1-9.4-38.7,4.9
			C193.8,693.3,190.8,702.6,191.8,702.6z"/>
		<path class="st33" d="M225.4,269c0,0-12.1,25.2-12.1,32.1c0,6.9,69.5,138.5,62.1,159.8c0,0,74.7-25.9,91.4-50.6
			c0,0-39.1-152.3-69.5-160.3C266.8,242,232.9,261.6,225.4,269z"/>
		<path class="st28" d="M366.8,410.4c-9.6-32.1-43.5-151.8-69.5-160.3C326.5,257.5,359.6,379.1,366.8,410.4z"/>
		<path class="st34" d="M236.3,274.2c0,0,10.1,3.7,20.7,0c10.6-3.7,15.5-10.2,15.5-17.8c0-7.6-8.6-14.7-18.1-14.7
			c-9.5,0-25.6,9.8-25.6,18.4C228.9,268.8,236.3,274.2,236.3,274.2z"/>
		<path class="st29" d="M278.4,271.4c0,0,6.1-20.8-13.1-30.7c-14.9-7.7-52.5,10-49,28.7c2.2,12.1,21.3,13.1,34.3,15.7
			c16.3,3.4,11.9-7.2,9.2-8.7c-7.7-4.4-24.1-7.8-24.1-14.7c0-12.2,17.7-20.3,22.4-15.7C262.6,250.7,273.6,276.2,278.4,271.4z"/>
		<g>
			<path class="st17" d="M205.5,208.7c-3.5-0.7-7.6,0.2-11.3,3.6l1.3,1.3C198.4,209.9,202.2,208.5,205.5,208.7z"/>
			<path class="st17" d="M197.8,222.5c-0.5-2.6-0.2-5.7,1.2-8.1c1.4-2.4,2.9-3.1,4.5-4c0.6-0.3,1.3-0.5,1.9-0.7
				c-0.2,0.1-2.6,0.6-3.8,1.5c-3.7,2.1-5.2,6.9-4.6,11.4L197.8,222.5z"/>
			<path class="st5" d="M263.3,250.7c-5.1-7.9-6.8-14.7-6.8-14.7l-24.9-2.8c0,0,2,5.7,4.9,13.5c3.3,8.9,7.9,20.5,12.1,29.5
				c14,1.8,21.3-2.3,25-6.2C273.3,268.9,266.4,255.3,263.3,250.7z"/>
			<path class="st1" d="M237.4,248.9c8.5,1.1,19,1.1,25.4,0.9c-4.7-7.6-6.2-13.9-6.2-13.9l-24.9-2.8c0,0,2,5.7,4.9,13.5
				C236.8,247.4,237.1,248.1,237.4,248.9z"/>
			<path class="st5" d="M232.2,182.7c0,0,2.7-3.2,8,0c5.3,3.2,16,17.6,20.8,33.4c4.9,15.8,5.7,22.3-0.2,25.3c-6,3-18.3,5.9-36.4-9.6
				C206.4,216.3,197.7,192.5,232.2,182.7z"/>
			<path class="st17" d="M239.3,194.1c1.4-0.7,14.6-5.1,10.1-19.3c-4.5-14.2-25-12.6-35.5,10.7c-0.6,1.4-11.3-4.5-14.5,6.3
				c-3.2,10.9,3.7,13,4.1,18c0.3,5-4.6,14.9,10.3,24.6c9.5,6.2,19,3.4,19,3.4s-3.7-4-6.8-10.1c-3.1-6.1,4-3.6,4-3.6
				s-2.4,0.6-5.4-5.5c-3.3-6.5-8.5-10.5-9.3-12.2c-0.8-1.7-3.6-5.7,4.4-6.1C227.5,200,239.3,194.1,239.3,194.1z"/>
			<g>
				<path class="st4" d="M250,222c-0.5,0.3-1-0.5-0.5-0.8l4.8-3.1l-8.3-13.2c2.6,3.6,7.3,10.4,9.5,13.5
					C255.4,218.5,249.7,222.2,250,222z"/>
				<path class="st4" d="M230.1,212.7c0.7-8.2,8.8-7.3,8.9-7.3c0.6,0.1,0.5,1-0.1,0.9c-0.3,0-7.3-0.8-7.9,6.5c0,0.2-0.2,0.4-0.5,0.4
					C230.3,213.2,230.1,213,230.1,212.7z"/>
				<path class="st4" d="M249.9,195.3c0.2-0.1,0.5,0,0.6,0.2c0.1,0.2,0,0.5-0.2,0.6c-3.3,1.7-2.2,5.5-2.1,5.7
					c0.2,0.6-0.7,0.8-0.8,0.2C247.3,202,246,197.3,249.9,195.3z"/>
				<path class="st16" d="M249,229.3L249,229.3c2.9,1.1,7.3-1.3,9.7-3.1l0,0c0.5-0.4,0.7,0.2,0.7,0.9c-0.7,14.9-12.2,4.7-11.6,2.8
					C248.1,229.3,248.6,229.1,249,229.3z"/>
			</g>
			<path class="st5" d="M233.1,226.8c0,0-4.3-9.4-12-7.8c-7.7,1.6-2.7,9.2,3.1,11.3C230,232.4,233.1,226.8,233.1,226.8z"/>
			<path class="st1" d="M222.6,221.7c2.4-2.3,5.7,1.3,6.1,1.7c1.1,1.2,1.5,2.5-0.6,4.2C225.9,229.3,220.2,224,222.6,221.7z"/>
			<path class="st35" d="M237.7,212.4c0.6,1.2,1.7,1.8,2.5,1.4c0.8-0.4,0.9-1.7,0.3-2.9c-0.6-1.2-1.7-1.8-2.5-1.4
				C237.3,209.9,237.1,211.2,237.7,212.4z"/>
			<path class="st35" d="M251,204.8c0.5,1,1.4,1.7,1.9,1.4c0.5-0.3,0.6-1.4,0-2.4c-0.5-1-1.4-1.7-1.9-1.4
				C250.5,202.7,250.5,203.8,251,204.8z"/>
		</g>
		<path class="st29" d="M216.2,269.4c2.2,12.1,21.3,13.1,34.3,15.7c16.3,3.4,11.9-7.2,9.2-8.7c-6.8-3.9-20.6-7.1-23.5-12.6
			c-6.5-0.1-12.3-2.2-17.9-4.8C216.4,262.4,215.6,265.9,216.2,269.4z"/>
		<path class="st28" d="M253.8,324.8c0,0,49.9-20.3,58.7-33c0,0,13.8,39.4,13.8,41.1c0,0-35.4,23.4-51.5,27.5L253.8,324.8z"/>
		<g>
			<path class="st29" d="M297.3,424.2c-0.2,0-0.3,0-0.5-0.1c-0.6-0.3-0.9-0.9-0.6-1.5c8-18.5-1.6-35.9-1.7-36
				c-0.3-0.6-0.1-1.3,0.4-1.6c0.5-0.3,1.3-0.1,1.6,0.4c0.4,0.8,10.2,18.5,1.8,38.1C298.1,423.9,297.7,424.2,297.3,424.2z"/>
		</g>
		<g>
			<path class="st29" d="M346.4,405.7c-14,0-20.9-30.5-21.2-31.8c-0.1-0.6,0.3-1.2,0.9-1.4c0.6-0.1,1.2,0.3,1.4,0.9
				c0.1,0.3,6.8,30,19,30c0.6,0,1.1,0.5,1.1,1.2C347.5,405.1,347,405.7,346.4,405.7z"/>
		</g>
		<path class="st33" d="M235.7,244.2c-7.3,4.4-16,11-18.1,19.3c-4.6,16.5,20.5,18,32.9,21.7c-11.8-1.5-29.5-2.4-34.4-12.5
			C210.7,260.8,223.3,249.2,235.7,244.2z"/>
		<g>
			<path class="st28" d="M251.4,314.5c-9-6.2,10.2-10.3,10.2-23.4c0-3.6-0.7-11-3.7-9.1c-1.3,0.8-2.5-1.1-1.3-1.9
				c0.7-0.5,2.3-1.1,3.9-0.2c2.3,1.2,3.4,4.9,3.4,11.3c0,7.7-5.2,12.3-9,15.7c-3.7,3.3-4.6,4.2-2.2,5.8
				C254,313.5,252.7,315.4,251.4,314.5z"/>
		</g>
		<g>
			<path class="st28" d="M293.5,298.7c-9.1,0-13.5-6.1-13.5-15.7c0-11.9-2-13-2.2-13.1c-0.6-0.2-1.3,1.3-2.3,0.3
				c-1.3-1.3,1.2-3.2,3.2-2.5c1.6,0.6,3.7,2.9,3.7,15.3c0,11,6.1,15,15.4,12.9c1.4-0.4,2.1,1.8,0.6,2.2
				C298.2,298.1,296.2,298.7,293.5,298.7z"/>
		</g>
		<path class="st5" d="M78,266.3c-8.2-5.2-14.3-10-16.8-13.2c-1.7-2.1-5-23.4-11-21.1c-0.9,0.4-1.5,1.4-1,2.8
			c0.3,0.8,0.9,1.4,1.9,3.4c1.6,3.2,1.6,6.1,0.8,6c-2.8-0.3-18.1-22.2-21.3-20.7c-2.7,1.3,5.9,10.1,8.2,12.6c4.1,4.4,5.7,8.1,4.6,7
			c-1.1-1.2-9.1-9.8-12.5-12.2c-3.4-2.5-8.1-7.4-10.3-5.4c-2.1,2,2.6,4,2.6,4c5.2,3.8,15.2,14.9,18.6,18.6
			c-6.7-2.7-21.8-20.1-21.9-15.6c-0.1,2.9,14.6,16.5,18.3,19c4.7,3.1-1.2,1.1-4.2,0c-2.7-1-10-6.6-9-2.4c1.1,4,25,13.6,33.1,19l0,0
			c1.6,1,5.3,4.1,10.3,8.4C71.2,272.7,74.5,269.4,78,266.3z"/>
		<path class="st33" d="M220.7,279.5c-15.1,4.9-23,13.3-45.1,14.8c-29.4,2.1-74.1-20.7-97.6-35.5c-3.5,3.2-13,17.2-15.8,20.7
			c16.9,14.2,55.6,38.1,77.5,46.2c21,7.8,63.6,14.6,90.4,13.2L220.7,279.5z"/>
	</g>
	<g>
		<path class="st36" d="M743.1,326.1c0,4.9-4,8.9-8.9,8.9c-4.9,0-8.9-4-8.9-8.9c0-4.9,4-8.9,8.9-8.9
			C739.1,317.2,743.1,321.1,743.1,326.1z"/>
		<path class="st36" d="M608.1,326.1c0,4.7-3.8,8.4-8.4,8.4c-4.7,0-8.4-3.8-8.4-8.4c0-4.7,3.8-8.4,8.4-8.4
			C604.3,317.6,608.1,321.4,608.1,326.1z"/>
		<polygon class="st37" points="603.9,339.6 599.6,493.4 730.3,495.5 732.3,339.6 		"/>
		<g>
			<path class="st38" d="M599.6,495.1c-2.2,0-3.9-1.8-3.9-3.9V326.1c0-2.2,1.8-3.9,3.9-3.9s3.9,1.8,3.9,3.9v165.2
				C603.6,493.4,601.8,495.1,599.6,495.1z"/>
		</g>
		<g>
			<path class="st38" d="M730.5,497.3C730.4,497.3,730.4,497.3,730.5,497.3c-2.3,0-4-1.8-3.9-4l3.7-167.3c0-2.2,1.8-3.9,4-3.8
				c2.2,0,3.9,1.8,3.8,4l-3.7,167.3C734.3,495.6,732.6,497.3,730.5,497.3z"/>
		</g>
		<rect x="539.8" y="585.7" class="st36" width="230.3" height="9.3"/>
		<path class="st39" d="M559.3,685h-1.6c-4.3,0-7.8-3.5-7.8-7.8v-219c0-4.3,3.5-7.8,7.8-7.8h1.6c4.3,0,7.8,3.5,7.8,7.8v219
			C567.1,681.6,563.6,685,559.3,685z"/>
		<path class="st39" d="M751.1,685h-1.3c-3.7,0-6.6-3-6.6-6.6V457.1c0-3.7,3-6.6,6.6-6.6h1.3c3.7,0,6.6,3,6.6,6.6v221.3
			C757.7,682.1,754.7,685,751.1,685z"/>
		<g>
			<path class="st40" d="M767,657.6c-2.8,0-5.1-1.5-5.1-3.3V480.3c0-1.8,2.3-3.3,5.1-3.3c2.8,0,5.1,1.5,5.1,3.3v173.9
				C772.1,656.1,769.9,657.6,767,657.6z"/>
		</g>
		<g>
			<path class="st40" d="M778.8,628.5c-2.8,0-5.1-1-5.1-2.3V508.1c0-1.3,2.3-2.3,5.1-2.3c2.8,0,5.1,1,5.1,2.3v118.2
				C783.9,627.5,781.6,628.5,778.8,628.5z"/>
		</g>
		<g>
			<path class="st40" d="M539.8,659.9c2.8,0,5.1-1.5,5.1-3.3V482.7c0-1.8-2.3-3.3-5.1-3.3s-5.1,1.5-5.1,3.3v173.9
				C534.7,658.4,537,659.9,539.8,659.9z"/>
		</g>
		<g>
			<path class="st40" d="M528,630.9c2.8,0,5.1-1,5.1-2.3V510.4c0-1.3-2.3-2.3-5.1-2.3c-2.8,0-5.1,1-5.1,2.3v118.2
				C522.9,629.9,525.2,630.9,528,630.9z"/>
		</g>
		<g>
			<path class="st38" d="M574.6,704.8c-0.1,0-0.2,0-0.3,0c-2.2-0.2-3.7-2.1-3.6-4.3c3.2-37.6,11.6-136.5,11.6-141.9
				c0-2.2,1.8-4,3.9-4c2.2,0,3.9,1.8,3.9,4c0,6.8-11.1,137.1-11.6,142.6C578.3,703.2,576.6,704.8,574.6,704.8z"/>
		</g>
		<g>
			<path class="st38" d="M734.2,704.1c-2.1,0-3.8-1.6-3.9-3.7l-8.9-144.7c-0.1-2.2,1.5-4,3.7-4.2c2.2-0.1,4,1.5,4.1,3.7l8.9,144.7
				c0.1,2.2-1.5,4-3.7,4.1C734.3,704.1,734.3,704.1,734.2,704.1z"/>
		</g>
		<rect x="573" y="694.8" class="st38" width="55.5" height="10"/>
		<rect x="654.8" y="694" class="st38" width="79.4" height="10"/>
		<rect x="573" y="542.1" class="st37" width="163.7" height="16.4"/>
		<polygon class="st37" points="574.3,455.3 573.1,550.3 599.2,495.7 599.2,443.5 		"/>
		<path class="st41" d="M573,542.1l26.7-48.8l130.6,2.1c0,0,8.2,46.6,6.4,46.6S573,542.1,573,542.1z"/>
		<path class="st5" d="M687.2,681.3c0,0-3.4,26.5-3.4,30.5c0,4-0.5,9.8,1.7,12c2.3,2.3,22.6-4.4,22.6-11.6c0-7.2-4.4-30.9-4.4-30.9
			H687.2z"/>
		<path class="st42" d="M701.5,325.5c11.1-5.5,11.1-10.9,11.3-11.1c0.8-5.9-9.2-16.6-13.3-20.9c5.5,3.8,13.1,10.5,15.7,16.4
			c3.5,8.2-4.2,15.6-12.4,18.6L701.5,325.5z"/>
		<path class="st43" d="M670.7,276.4c0,0,9.8,3,15.7,8.8c5.8,5.8,10.7,15.3,9.5,24.5c-1.2,9.2-3.7,10.8-3.7,10.8s5.5,12.8,3.8,23.9
			c-1.7,11-14.2,21.5-22.4,23c0,0,11.3-13,9.8-19.9c0,0-8.2,11.2-16.3,15.5c-8.2,4.3-40.5,0-41.7,5.7c0,0-10.7,0.5-17.5-17.5
			c-6.8-18,12-34.4,12-34.4s-14.7,7.8-22.4-2.7c-7.7-10.5,5.5-18.7,6.2-18c0.7,0.7-5.2,10.2,1.7,12.7c6.8,2.5,8.4-7.6,19.2-18.4
			C635.4,279.8,665.6,271.2,670.7,276.4z"/>
		<path class="st44" d="M667.2,363.1c1.8-0.9,3.5-2.2,5.2-3.6c0.2-13.3,2.6-29.9,6.2-43.4c6.3-24.2-10.7-35-22.6-25
			c-11.1,9.4-14.7,1-28.4,30.3c-13.6,29.3-2.1,47.4-2.1,47.4C626.7,363.1,659,367.5,667.2,363.1z"/>
		<path class="st1" d="M644,366.7c-16-0.6-56.2-4.4-88-27.8c-46.3-34.1-54.8-52.4-54.8-52.4s0.2-8.2-1.2-12.4
			c-1.4-4.2-1.1-10.3-3.7-9.4c-2.6,0.9-1.2,6.2-0.6,8c0.2,0.6-0.1,1.1-0.5,1.4c-1.1,0.9-2.8,0.5-3.6-0.7c-0.8-1.2-1.9-3.4-3.3-7.4
			c-2.8-8.4-6-15.6-7-13.5c-1.1,2.1,4.5,16.5,5.5,19.5c1,3-6.7-11.1-10.2-16.8c-3.5-5.7-4.6-1.7-2.5,1.4c2.1,3.1,9.8,17.1,8.7,17.4
			c-1.1,0.4-10.5-15.3-13.2-14.4c-2.7,0.9,0.7,2.9,2.3,5.4c1.6,2.4,8.6,9.1,7.5,11.4c0,0-10.8-7.6-10.5-6c0.1,0.8,10,11,14.5,14.8
			c10.7,9,56.3,71.1,74.3,80.1c17.6,8.7,63.8,39.1,82,34.2C651.8,385.8,649,381.6,644,366.7z"/>
		<path class="st1" d="M673.7,366.7c16-0.6,56.2-4.4,88-27.8c46.3-34.1,54.8-52.4,54.8-52.4s-0.2-8.2,1.2-12.4
			c1.4-4.2,1.1-10.3,3.7-9.4c2.6,0.9,1.2,6.2,0.6,8c-0.2,0.6,0.1,1.1,0.5,1.4c1.1,0.9,2.8,0.5,3.6-0.7c0.8-1.2,1.9-3.4,3.3-7.4
			c2.8-8.4,6-15.6,7-13.5c1.1,2.1-4.5,16.5-5.5,19.5c-1,3,6.7-11.1,10.2-16.8c3.5-5.7,4.6-1.7,2.5,1.4c-2.1,3.1-9.8,17.1-8.7,17.4
			c1.1,0.4,10.5-15.3,13.2-14.4c2.7,0.9-0.7,2.9-2.3,5.4c-1.6,2.4-8.6,9.1-7.5,11.4c0,0,10.8-7.6,10.5-6c-0.1,0.8-10,11-14.5,14.8
			c-10.7,9-56.3,71.1-74.3,80.1c-17.6,8.7-63.8,39.1-82,34.2C665.9,385.8,668.7,381.6,673.7,366.7z"/>
		<path class="st45" d="M701.8,437.5c0-17.5,1.8-74.6,1.8-74.6s-12.9-7-33.7-7s-46.2,8.6-46.2,8.6s4.3,53.8-2.4,90.5
			c-1.2,6.5,3.9,12.4,10.5,12.4h65.6c4.4,0,7.8-4,7.1-8.3C702.9,449.9,701.8,442.1,701.8,437.5z"/>
		<g>
			<path class="st28" d="M624.4,375.3h78.8c0.1-4.1,0.2-7.5,0.3-9.7h-79.7C623.9,367.3,624.1,370.7,624.4,375.3z"/>
			<path class="st28" d="M625,395.4h77.6c0.1-3.3,0.2-6.6,0.3-9.7h-78.1C624.9,388.8,625,392,625,395.4z"/>
			<path class="st28" d="M624.9,415.5h77.2c0.1-3.1,0.2-6.4,0.2-9.7h-77.3C625,409,625,412.2,624.9,415.5z"/>
			<path class="st28" d="M623.8,435.6h78c0-2.7,0.1-6,0.1-9.7h-77.4C624.3,429.1,624.1,432.4,623.8,435.6z"/>
			<path class="st28" d="M621.3,455.1c0,0.2-0.1,0.4-0.1,0.6h82.6c-0.6-3.5-1-6.8-1.4-9.7h-79.7
				C622.3,449.1,621.8,452.2,621.3,455.1z"/>
			<path class="st28" d="M631.8,467.5h65.6c1.6,0,3.1-0.5,4.3-1.5h-75.3C628,467,629.8,467.5,631.8,467.5z"/>
		</g>
		<path class="st46" d="M626.8,466.1c-11,8.5-12.1,10.6-15.2,14.4c-10.3,12.7-12.1,29.2-13.3,41.7c-1.5,17,2.2,23,7,27.3
			c31.1,28.2,38.8-53.4,54-52.6c3.9,0.2-11.5,51.2-7.8,52c6.3,1.3,30.8,7.2,35.2-0.5c10.2-18.1,20.4-26.5,22.8-35.7
			c2.5-9.6-1.8-19.7-8.9-46.2L626.8,466.1z"/>
		<path class="st47" d="M656.3,531.1c0,0,13.6-10.3,29,0.3c9,6.2,13.6,112.8,16.4,118.3c2.9,5.5,11.5,3.2,7.3,9.2
			c-4.2,6-4.8,9.7-2,11.6c2.8,1.9,4.3,5.2,2.6,7.8c-1.8,2.6-1.4,8.5-1.4,8.5l-24.4,4.5c0,0-4.5-14.6-5-17.1
			c-0.5-2.5-4.7-9.3-4.7-9.3s8.2-6.4,3-9.9c-5.2-3.6-2-10.9-3.7-20.3C671.6,625.1,641.4,535.7,656.3,531.1z"/>
		<path class="st5" d="M648.9,327.1c0,0,4.9,26.2,0,34.8c-4.9,8.6,4.7,41.2,11,39.2c6.2-2.1,16.6-35.2,12.6-41.5
			c-4-6.3-0.2-29.8-0.2-29.8L648.9,327.1z"/>
		<path class="st1" d="M648.9,327.1c0,0,0.7,3.5,1.4,8.5c5.3,8.2,11.2,11.7,14.3,10.3c1.3-0.6,4-2.9,6.7-6.2c0.4-5.7,1-10,1-10
			L648.9,327.1z"/>
		<path class="st48" d="M644.5,287.1c0,0-4.3,5.7-4.3,12.3c0,6.7-1,19.9,5.7,29.4c6.7,9.5,14.7,13.7,18.7,12.2
			c4-1.5,18.5-13.7,18.5-26c0-12.3-4.2-30.5-9.3-31.4C668.6,282.7,648.7,285.7,644.5,287.1z"/>
		<path class="st1" d="M656,316.1c0,1.6-2.7,2.9-6,2.9c-3.3,0-6-1.3-6-2.9c0-1.6,2.7-2.9,6-2.9C653.4,313.2,656,314.5,656,316.1z"/>
		<path class="st1" d="M682.6,316.1c0,1.6-2.7,2.9-6,2.9c-3.3,0-6-1.3-6-2.9c0-1.6,2.7-2.9,6-2.9C680,313.2,682.6,314.5,682.6,316.1
			z"/>
		<path class="st43" d="M675.5,284.2c0,0-2.7,5.1-8.8,11.2c-6.1,6.1-22.7,5.3-22.7,5.3s9.8-5.3,8.8-6.3c-1-1-8.8,3-14.5,8.7l-22.2-2
			c0,0,4.9-15.7,16.9-24.2c12-8.5,28.9-10.2,34.5-6.5c5.7,3.7,12.1,9.9,12.1,9.9S676.4,280.3,675.5,284.2z"/>
		<path class="st49" d="M656,327c0,0,11.7,0.6,13.3-1c0,0-1.9,4.1-4.4,5.1c-2.6,1-4,0.4-5.1,0C658,330.4,656,327,656,327z"/>
		<path class="st42" d="M640.9,309.3c0,0,6.1-2.2,8.7-1c2.6,1.2,5.2,3.4,5.2,3.4s-2.9-2.3-5.9-2.3
			C645.9,309.5,640.9,309.3,640.9,309.3z"/>
		<path class="st42" d="M640.9,303.2c0,0,8.3-1.8,11.8-1.1c3.5,0.7,6.2,1.6,5.3,2.6c-1,1-6.7-1.5-9.5-1.5
			C645.7,303.2,640.9,303.2,640.9,303.2z"/>
		<path class="st42" d="M640.9,309.3c0,0,6.1-2.2,8.7-1c2.6,1.2,5.2,3.4,5.2,3.4s-2.9-2.3-5.9-2.3
			C645.9,309.5,640.9,309.3,640.9,309.3z"/>
		<path class="st50" d="M640.9,303.2c0,0,8.3-1.8,11.8-1.1c3.5,0.7,6.2,1.6,5.3,2.6c-1,1-6.7-1.5-9.5-1.5
			C645.7,303.2,640.9,303.2,640.9,303.2z"/>
		<path class="st42" d="M680.6,308.1c0,0-6.1-2.2-8.7-1c-2.6,1.2-5.2,3.4-5.2,3.4s2.9-2.3,5.9-2.3
			C675.7,308.2,680.6,308.1,680.6,308.1z"/>
		<path class="st50" d="M682.7,301.8c0,0-8.3-1.8-11.8-1.1c-3.5,0.7-6.2,1.6-5.3,2.6c1,1,6.7-1.5,9.5-1.5
			C677.9,301.8,682.7,301.8,682.7,301.8z"/>
		<path class="st5" d="M606.7,683.9c0,0,3.4,26.5,3.4,30.5c0,4,0.5,9.8-1.7,12c-2.3,2.3-22.6-4.4-22.6-11.6c0-7.2,4.4-30.9,4.4-30.9
			H606.7z"/>
		<path class="st49" d="M660.3,320.6c0.3-2.2,0.4-4.4,0.3-6.6c-0.9,2.9-1,5.4-1.2,7.5c0.7,0,2.4,0,4.6-0.5
			C662.7,320.7,661.5,320.6,660.3,320.6z"/>
		<path class="st51" d="M572.4,737.7L572.4,737.7c-2.9,0-5.3-2.4-5.3-5.3V466.3c0-2.9,2.4-5.3,5.3-5.3l0,0c2.9,0,5.3,2.4,5.3,5.3
			v266.1C577.8,735.3,575.4,737.7,572.4,737.7z"/>
		<path class="st51" d="M739,737.7L739,737.7c-2.9,0-5.3-2.4-5.3-5.3V466.3c0-2.9,2.4-5.3,5.3-5.3l0,0c3,0,5.3,2.4,5.3,5.3v266.1
			C744.3,735.3,741.9,737.7,739,737.7z"/>
		<polygon class="st41" points="734.4,441.1 727.2,441.1 729.9,458.2 729.9,466.7 750.7,466.7 750.7,458.2 		"/>
		<polygon class="st41" points="595.3,443.5 561,455.4 561,469.1 581.8,469.1 581.8,457.8 603.8,443.5 		"/>
		<path class="st47" d="M599.2,521c8.4-5.6,19.9-4.2,29.6,6c9.6,10.2,1.7,28.9-1.9,46.6c-3.6,17.7-13.6,61.3-12.9,67.1
			c0.8,5.8,5.4,12.4,2.1,17.8c-3.3,5.4-4.2,3.9-1.2,8.4c3,4.5,0.4,6.9-0.4,10.8c-0.8,4-5.1,15.9-5.1,15.9l-23.2-4.7
			c0,0,3.4-22.3-0.7-32.2c-4-9.9,4.1-27.8,4.7-30.7c0.6-2.9-5.9-8-3.4-20.7C589.4,592.8,594.6,524,599.2,521z"/>
		<polygon class="st52" points="603.8,443.5 603.8,454.6 581.8,469.1 581.8,457.8 		"/>
		<polygon class="st52" points="727.2,441.1 727.2,453.9 729.9,466.7 730.8,456.3 		"/>
		<path class="st42" d="M651.6,310.5c0,1-0.8,1.8-1.8,1.8c-1,0-1.9-0.8-1.9-1.8c0-1,0.8-1.8,1.9-1.8
			C650.7,308.6,651.6,309.5,651.6,310.5z"/>
		<path class="st42" d="M673.7,309.9c0,1-0.7,1.9-1.5,1.9c-0.8,0-1.5-0.8-1.5-1.9c0-1,0.7-1.9,1.5-1.9
			C673,308,673.7,308.8,673.7,309.9z"/>
		<path class="st48" d="M640.9,314.7c0,0-0.9-2.9-2.8-2.9c-1.9,0-0.2,11.9,3.5,11.9C645.2,323.7,640.9,314.7,640.9,314.7z"/>
		<path class="st1" d="M640.2,315.2c0,0-1-1.2-1.7-1.2c-0.7,0,1.3,8.3,2.2,7.9C641.6,321.4,640.2,315.2,640.2,315.2z"/>
		<path class="st43" d="M629.2,312.3c-10.1,4.2-24.7,12.4-27.5,23c-3.1,11.1,0.3,29,8.3,31.2l-1.4,4.4c-11.2-4-13.2-24.4-9.1-36.4
			c2-6.1,7.2-10.8,12.7-14.2C617.5,317,623.3,314.4,629.2,312.3z"/>
		<path class="st46" d="M608.4,726.4c2.3-2.3,1.7-8,1.7-12c0-1.4-0.4-5.8-1-10.8c-9.8,3.2-16.9,0.3-21.6-3.6
			c-0.9,5.8-1.7,11.7-1.7,14.7C585.8,722,606.2,728.7,608.4,726.4z"/>
		<path class="st46" d="M708.1,712.2c0-2.7-0.6-7.6-1.4-12.8c-4.5,5.9-13,13.7-22.5,7.1c-0.3,2.5-0.4,4.4-0.4,5.3
			c0,4-0.5,9.8,1.7,12C687.8,726.1,708.1,719.4,708.1,712.2z"/>
		<path class="st53" d="M561.7,749.6L561.7,749.6c-3,0-5.4-2.4-5.4-5.4v-47.1c0-3,2.4-5.4,5.4-5.4l0,0c3,0,5.4,2.4,5.4,5.4v47.1
			C567.1,747.2,564.7,749.6,561.7,749.6z"/>
		<path class="st53" d="M748.5,749.6L748.5,749.6c-3,0-5.4-2.4-5.4-5.4v-47.1c0-3,2.4-5.4,5.4-5.4l0,0c3,0,5.4,2.4,5.4,5.4v47.1
			C753.9,747.2,751.5,749.6,748.5,749.6z"/>
	</g>
	<g>
		<path class="st1" d="M1595.8,357c0,0-6.3,14.9-7.1,15.6c-0.7,0.7-4.3-3.5-4.3-3.5S1595.8,351.9,1595.8,357z"/>
		<path class="st1" d="M1579.5,365.9c0-0.5,11.8-13.4,13.3-11.8c1.6,1.6-9,15.1-9,15.1L1579.5,365.9z"/>
		<path class="st5" d="M1545.5,660l-3.3,21l15.8,1.8c0,0,2.2-8,5.4-20.6L1545.5,660z"/>
		<path class="st54" d="M1504.1,365.4c0,0-37.5,129.5-32,141.7h32.8l47.8-77.3L1504.1,365.4z"/>
		<path class="st1" d="M1420,248c-3.7,0-40-71.2-42.8-76.8c0-2.3-0.1-8.1-1.2-11.5c-1.4-4.2-1.1-10.3-3.7-9.4
			c-2.6,0.9-1.8,5.6-1.2,7.4c0.6,1.8-2,3.5-3.5,1.4c-2.9-4.3-8.4-24.6-10.3-20.9c-1.1,2.1,4.5,16.5,5.5,19.5c1,3-6.7-11.1-10.2-16.8
			c-3.5-5.7-4.6-1.7-2.5,1.4c2.1,3.1,9.8,17.1,8.7,17.5c-1.1,0.4-10.5-15.3-13.2-14.4c-2.7,0.9,0.7,2.9,2.3,5.4
			c1.6,2.4,8.6,9.1,7.5,11.4c0,0-10.8-7.6-10.5-6c0.3,1.8,14.8,14.8,19.2,19.5c6.7,17.4,35.8,93.2,43.1,100.5c8.2,8.2,63.7-7,63.7-7
			l5.3-38.6C1476.1,230.4,1424.6,248,1420,248z"/>
		<path class="st55" d="M1476.8,566.4c0,0,4.3,31,4.3,43.9c0,12.8,12.5,38.5,18.9,51.4c6.4,12.8-4.6,32.5-26,31
			c-21.4-1.4-20-19.6-26.4-8.2c-6.4,11.4,26.8,17.5,39.6,10.7c12.8-6.8,18.3-15.3,18.3-26.4c0-11.1-18.3-39.2-19.7-54.6
			c-1.4-15.3-0.7-37.8-0.7-37.8L1476.8,566.4z"/>
		<path class="st38" d="M1476.1,230.4c0,0-28.9,59.3-20.5,67.8c8.5,8.5,48.5,58.4,48.5,67.2l54.9-16.9c0,0-18.8-43.2-14.7-67.2
			c4.1-24,8.3-48.5-6.9-55.5C1522.2,218.8,1476.1,230.4,1476.1,230.4z"/>
		<path class="st56" d="M1455.8,295.3c-2.8-10.7,16-54.6,20.3-64.8c-8,14.7-22,44.3-23.4,60.4c-0.5,11.3,1.5,3.9,37.9,52.4
			c3.8,4.9,7.3,9.9,10.7,15C1487.1,330.7,1456.3,297.5,1455.8,295.3z"/>
		<path class="st57" d="M1598.2,386.5c-11.7-22.2-41.1-42.6-41.1-42.6l-55.9,14.4l2.9,7.2l22.8,39.2c0,0,21.6,91.8,21.6,106.4
			c0,14.6-5.3,149-5.3,149l21.2,2.2c10.3-40.5,30.8-128.7,21.5-155.9C1585.9,506.3,1609.9,408.7,1598.2,386.5z"/>
		<path class="st5" d="M1537.4,225.8c0,0,51.4,9.3,70.7,18.7c19.3,9.4-14.6,100.5-14.6,100.5l-4.9,28.3c0,0-6.1-2.6-7.8-4
			c-1.1-0.9-2.9-3.8-4.4-3.8c-3,0-6.3-4-6.3-4l11.8-20.5c0,0,12.6-60.5,2.3-70.7c-7.4-7.4-25.8-4.8-35.5-2.9c-3.8,0.8-7.6-1-9.3-4.5
			C1533.9,251.8,1524.2,228.9,1537.4,225.8z"/>
		<path class="st58" d="M1472.1,507.2c0,0-0.5,80.8,5,86.3c5.5,5.5,14.8,4.8,19.6,0c4.8-4.8,10.3-78.5,8.2-86.3
			C1502.8,499.3,1477.1,497.9,1472.1,507.2z"/>
		<g>
			<path class="st59" d="M1521.6,208l1-1.2l0,0c5.8-9.5,25.7-15.8,35.9-1.2c3.6,5.1,8.5,13.8,1.5,25.4l-3.6-2.6
				c2.5-3.5,4.1-9.1,3-14.2c-0.7-3.1-1.9-4.7-2.1-5.3c-0.4-0.3-6.1-12.7-21.2-9.9C1525.9,200.9,1523,207,1521.6,208z"/>
			<path class="st59" d="M1521.7,207.1c0,0,12.4-4.4,20.1-1.7c7.8,2.7,11.5,17,5.8,35c-5.7,17.9-23.1,27.8-23.1,39.2
				c0,11.5,13.1,10.9,13.1,10.9s-5.4,6.6-16,4.2c-10.6-2.4-8.4-18.5-8.4-18.5s-5.8,6.5-3.4,11.1c0,0-7.3-1.5-5.1-15.9
				c2.2-14.4,15.8-35.3,18.8-46.2c3-10.9-5.2-13.8-5.2-13.8L1521.7,207.1z"/>
			<path class="st59" d="M1488.6,141.6c0,0-9.7-3.9-13.6-2.8c-3.9,1.1-9.6,3.6-13.1,11.6c-3.5,8,1.4,31.4,7,42.5
				c5.6,11.1,26.1,25.1,26.1,25.1s5.3,0.9,13.3-8.8C1516.4,199.5,1504.6,143.7,1488.6,141.6z"/>
			<path class="st5" d="M1510.9,192.5V224c0,0-11.5,32.1-21.8,31.2c-10.3-0.9-1.6-23.3,0-30.1c1.6-6.8,0.6-22.6,0.6-22.6
				L1510.9,192.5z"/>
			<path class="st1" d="M1510.9,192.5v10.3c-6.1,6.2-16.2,11.5-19.4,12.9c-0.5,0.2-1,0.5-1.5,0.7c0.2-6.7-0.3-13.9-0.3-13.9
				L1510.9,192.5z"/>
			<path class="st60" d="M1476.6,149.3c0,0-6.7,4.2-8.7,12.3c-1.9,8.1,2.2,13.8,2.2,17.8c0,4,0.6,7.6,6.5,21.2
				c5.8,13.6,10.6,10.7,14.9,8.9c4.3-1.8,20.2-9.5,23.7-17.2c3.5-7.7,0.3-32.1-10.4-39.9C1494.2,144.6,1478.2,148.1,1476.6,149.3z"
				/>
			<path class="st61" d="M1477,140.7c0,0-5.6,5.9-1.7,12.4c3.9,6.5,22,17.3,29,24.7c7.1,7.4,7.4,17.7,5.4,21.6
				c-1.9,3.9,1.2,13.7,1.2,13.7s19.5-2,24-24.5c2.7-13.7,0.5-37.7-8.6-45.9c-9.1-8.2-24.7-12.4-34.4-9.7
				C1482.3,135.7,1477,140.7,1477,140.7z"/>
			<path class="st62" d="M1474.3,151.1c-0.2,0.2-0.3,0.4-0.6,0.9c-4.7,15.5,22.6,7.7,35.8,22.5c4.9,5.5,7.7,14.6,8.5,22.8
				c1.1,11.3-7.7,21-18.6,20.6l0.4,5.7c8.1,0,18.6-6,22.3-13.6c4.4-9.1,0.3-22.2-4.8-30.9c-5.6-9.6-14.8-12.6-25.2-14.8
				c-10.9-2.3-19.8-2.7-18.5-10.4C1473.8,152.7,1474.3,151.4,1474.3,151.1z"/>
			<path class="st42" d="M1478.8,178.7l-0.5,2c-1.9,7.8-2.8,6.2-2.5,7.3c0.5,1.6,4,3,5.8,3c-2.2-0.3-5.4-2.4-5-3.3
				c0.4-0.4,0.7-0.4,1.7-4.8C1478.5,181.4,1478.7,180,1478.8,178.7z"/>
			<path class="st61" d="M1475.8,170.8c0,0-2-1.7-4.1-1.7c-2.1,0-3.5,1.7-3.5,1.7s1.8-1.5,3.8-0.4
				C1474,171.4,1475.8,172.3,1475.8,170.8z"/>
			<path class="st61" d="M1489.7,166c0,0-5.7,1.5-6.9,2.8c-1.2,1.2,0.1,3.1,1,2.1C1484.8,169.8,1488.5,166,1489.7,166z"/>
			<path d="M1487.9,194c0,0-9.6,0.2-9.2,1.5c0.4,1.4,2.3,4.5,2.6,5.7c0.3,1.2,1.5,2.7,4.4,1.8C1488.6,202.1,1488.4,195.7,1487.9,194
				z"/>
			<path class="st16" d="M1487.9,194c0.1,0.4,0.2,1.2,0.3,2.1c-2.1-0.1-6.8,0-8.6,1.4c-0.4-0.8-0.7-1.5-0.9-2
				C1478.3,194.1,1487.9,194,1487.9,194z"/>
			<path class="st1" d="M1487.7,183.5c0.7,1.7,3.5,2.2,6.3,1c2.8-1.2,4.5-3.6,3.9-5.3c-0.7-1.7-3.5-2.2-6.3-1
				C1488.8,179.4,1487,181.8,1487.7,183.5z"/>
			<path class="st61" d="M1486.6,175.6c0,1.5,0.7,2.7,1.5,2.7c0.8,0,1.5-1.2,1.5-2.7c0-1.5-0.7-2.7-1.5-2.7
				C1487.3,172.9,1486.6,174.1,1486.6,175.6z"/>
			<path class="st61" d="M1472.6,179.1c0.4,1.2,1.3,2,2.2,1.8c0.8-0.3,1.1-1.5,0.8-2.7c-0.4-1.2-1.3-2-2.2-1.8
				C1472.5,176.7,1472.2,177.9,1472.6,179.1z"/>
			<path class="st42" d="M1485,177.1c0,0-1.1-1.6,0.8-3.6c1.9-2,6.1-2.2,8.1-0.7c2,1.5,4.3,1.2,4.3,1.2s-3.1,0.6-4.3-0.2
				c-1.6-1-3.7-1.9-6.3-0.7C1485.1,174.4,1485,177.1,1485,177.1z"/>
			<path class="st42" d="M1476.9,178.5c0,0,0.3-1.4-1.4-2.2c-1.8-0.8-4.7,0.1-5.6,1.6c-1,1.5-2.6,1.9-2.6,1.9s2.7,0.1,3.1-0.9
				c0.4-1,1.4-2.6,3.4-2.4C1475.8,176.8,1476.9,178.5,1476.9,178.5z"/>
			<path class="st60" d="M1502.4,177.1c0,0,2-6.1,5.1-4.6c3.1,1.5,4.3,10.4,2.2,12.7C1507.5,187.4,1502.4,183.4,1502.4,177.1z"/>
			<path class="st1" d="M1503.7,177.7c0,0,0.4-4.7,3.2-3.7c0.9,0.3,4.2,7.6,1.8,8.5C1506.4,183.4,1503.6,180.1,1503.7,177.7z"/>
		</g>
		<g>
			<path class="st63" d="M1542.4,671.4c0,0-0.9,11.3-1.5,19c-0.6,7.7-4.3,13.5,4.6,15.9c9,2.4,18.9,0.5,20.2-4.4
				c1.3-4.9-6.7-17.4-6.3-22.4c0.4-5-2.1-7.2-3.7-5.8C1554.1,675.2,1542.4,671.4,1542.4,671.4z"/>
			<path class="st45" d="M1540,702.3c1.4,2,3.6,2.4,6.1,2.8c5.3,0.7,16.8,1.5,19.7-3.2c0,1.4-0.8,2.7-1.8,3.6
				C1556.9,712,1540.3,708.6,1540,702.3z"/>
			<path class="st64" d="M1558,684.3c-0.5,6.3-9.1,7.5-11.1,1.5c0-0.1-0.1-0.2-0.1-0.3c-3.3-9.6-3.4-12.2-4-14.3
				c-0.7-2.4-1.6-5.7,3.3-7.6c5-1.9,11.9-1,11.7,1.2C1557.6,666.3,1558.8,674.8,1558,684.3z"/>
			<path class="st16" d="M1546.1,663.6c-5,1.9-4,5.1-3.3,7.6c0.6,2.2,0.7,4.7,4,14.3c0,0.1,0.1,0.2,0.1,0.3c0.2,0.5,0.4,1,0.7,1.4
				c-0.1-0.1-0.1-0.3-0.2-0.4c0-0.1-0.1-0.2-0.1-0.3c-3.3-9.6-3.4-12.2-4-14.3c-0.7-2.4-1.6-5.7,3.3-7.6c4.1-1.5,9.5-1.2,11.2,0.2
				C1557.8,662.5,1551,661.7,1546.1,663.6z"/>
			<path class="st65" d="M1547.6,687.3c0,0,1.5-13.9-0.4-14.7c-1.9-0.7-4.9-1.2-4.9-1.2s-0.1,14.2,2,16.7
				C1546.4,690.8,1547.6,687.3,1547.6,687.3z"/>
			<g>
				<path class="st16" d="M1559.3,678.1c0,0.2-0.1,0.3-0.3,0.4c-5.8,3.7-13-1.1-13.3-1.3c-0.3-0.2-0.3-0.5-0.2-0.8
					c0.2-0.3,0.5-0.3,0.8-0.2c0.1,0,6.9,4.7,12.1,1.3c0.3-0.2,0.6-0.1,0.8,0.2C1559.3,677.9,1559.3,678,1559.3,678.1z"/>
			</g>
			<g>
				<path class="st16" d="M1559.2,683.8c0,0.2-0.1,0.3-0.2,0.4c-3.6,2.5-12.5-1.3-12.8-1.4c-0.3-0.1-0.4-0.5-0.3-0.7
					c0.1-0.3,0.4-0.4,0.7-0.3c2.4,1,9.2,3.3,11.8,1.5c0.3-0.2,0.6-0.1,0.8,0.2C1559.2,683.5,1559.2,683.7,1559.2,683.8z"/>
			</g>
			<g>
				<path class="st16" d="M1559.3,687.8c0,0.1-0.1,0.3-0.2,0.4c-2.9,2.6-12.4-0.6-13.5-1c-0.3-0.1-0.4-0.4-0.3-0.7
					c0.1-0.3,0.4-0.5,0.7-0.4c2.8,1,10.4,3,12.5,1.2c0.2-0.2,0.6-0.2,0.8,0.1C1559.2,687.5,1559.3,687.7,1559.3,687.8z"/>
			</g>
			<path class="st65" d="M1545,692.7c0,0-2.9,7-1.7,8.6c1.2,1.5,18.6,2.7,18.9-0.4c0.2-3.1-3.2-9.6-4.7-10.2
				C1556,690,1545,692.7,1545,692.7z"/>
		</g>
	</g>
	<g>
		<path class="st1" d="M1953,392.3l-44.9,151.9l13,150.9c0,0-8.9,10.2-14.9,14.1c0,0,10.7,0,21.8,0.3c9.4,0.2,9.8-2.1,9.8-2.1
			l-3.5-16.4l3.5-146.8l47.4-126.5L1953,392.3z"/>
		<polygon class="st66" points="2013.1,375.5 1941.9,546.8 1941.9,675.7 1916.7,675.7 1906.1,540.8 1946,370.5 		"/>
		<path class="st1" d="M1974.1,558.4l11.1-154.2l48.9-9l-26,163.3l13.2,134.6l4.6,18.7c0,0-7.2,0.9-9.8,0.9
			c-2.6,0-25.3-2.8-25.3-2.8l15.6-13.6L1974.1,558.4z"/>
		<polygon class="st13" points="2041.3,382.9 2012.1,558.4 2031.2,675.7 1996.6,675.7 1971.6,558.4 1965.1,427.1 1979.8,366.7 		"/>
		<path class="st22" d="M1941.7,389.1l4.4-18.6l32.2,2.4l63.1,10l-4.3,25.7c-15.9-13.5-40.2-19.7-61.8-23.2
			C1964.1,383.7,1951.4,383.7,1941.7,389.1z"/>
		<path class="st1" d="M2022.5,217.4c-17.9-6.9-61.8-27.1-88.8-66.8c-39.3-57.9-42.1-82.6-42.1-82.6s3.3-9.5,3.3-15
			c0-5.4,2.6-12.4-0.6-12.4c-3.3,0-3.7,6.8-3.7,9.1c0,2.3-4.1,2.3-4.9-0.7c-1.7-6.3-0.2-32-3.7-28.4c-2,2.1-1.1,21.1-1.1,24.9
			c0,3.9-3.4-15.6-5.1-23.6c-1.7-8-4.6-3.8-3.3,0.6c1.3,4.4,4.7,23.8,3.3,23.8c-1.4,0-6.1-22-9.4-22c-3.4,0-0.3,3.7,0.5,7.2
			c0.8,3.4,6.3,14,4.1,16.2c0,0-9.3-13.1-9.6-11.1c-0.2,1,7.1,16.7,10.8,23c8.6,14.7,36.7,105,53.7,122.5
			c16.6,17,47.2,59.8,50.4,79.5C1994.7,250.3,2013.3,236.7,2022.5,217.4z"/>
		<path class="st67" d="M2022.5,217.4c-9.2,19.3-27.7,32.9-46.3,44.1c-2.4-14.6-20-42.1-35.7-62.2c5.6-8.9,9.9-18.4,12.8-25.6
			C1978.5,198.4,2008.5,212,2022.5,217.4z"/>
		<path class="st5" d="M2103.7,179.7c24.6-20.5,43.9-70.7,47.8-101.8c0.1-0.7,0.4-3,0.1-3.7c-2-5.3-9.9-17.6-6.6-21.4
			c0.7-0.8,1.6-0.9,2.4-0.3c1.2,0.9,0.9,2,1.7,4.8c0.8,2.8,2.7,5.5,3.3,4.7c1.3-1.6-0.8-21.7,0.4-27.1c0.6-2.7,2.7-3.4,3.2,5
			c0.1,2.5,0.1,5.2,0.1,7.6c0,5.8,0.9,9.5,1.2,8c1.1-4.5,1-27,4.4-27.5c1.7-0.3-0.2,24.1-0.1,30c2.9-6.4,2.1-28.7,5.1-25.6
			c1.9,1.9,0.5,21.2-0.5,25.6c-1.3,5.3,1.5,0,2.9-2.7c1.1-2.2,2.8-11.7,4.7-7.6c1.7,3.7-8.6,26.3-10.6,35.3l0,0
			c-1.8,7.9-6.3,68.8-19.2,95.1c-9.5,19.4-42.1,43.8-61.4,60.5l-21.4-31.3C2073.9,200.9,2089.1,191.8,2103.7,179.7z"/>
		<path class="st14" d="M1957.5,174.7c0,0-7.6,35.3-12.9,40.8c0,0,33.1,41.5,31.8,48.9c-1.3,7.4-41.2,111.1-41.2,111.1
			s88.3,26.2,114.6,13.1c0,0,14.3-132,21.5-139.4c7.2-7.4,29.5-19.2,29.5-19.2s-16.7-33.1-16.7-39c0,0-34.4,17.7-43.1,21.4
			C2009.3,225.8,1962.3,177.7,1957.5,174.7z"/>
		<path class="st68" d="M1935.3,375.5c0,0,46-103.1,44.4-114c-1.6-10.9-35.1-46-35.1-46s33.1,41.5,31.8,48.9
			C1975.2,271.9,1935.3,375.5,1935.3,375.5z"/>
		<g>
			<path class="st69" d="M2160.3,197.6c-0.2,0-0.3-0.1-0.4-0.3c-0.1-0.2,0.1-0.4,0.3-0.5c0.2,0,16.5-4.9,27.2-34.9
				c0.1-0.2,0.3-0.3,0.5-0.2c0.2,0.1,0.3,0.3,0.2,0.5C2177.2,192.7,2160.6,197.5,2160.3,197.6
				C2160.4,197.6,2160.3,197.6,2160.3,197.6z"/>
		</g>
		<g>
			<path class="st70" d="M2008.3,692.1c1.8,2.9,3.8,10.1,0,14c-3.8,3.9-14,4.9-14,4.9l-7-0.4c0,0,8.5-4.8,11.7-9.7
				c0.9-1.5,0-4.1,0-5.2C1999,690.9,2006.2,688.7,2008.3,692.1z"/>
			<path class="st71" d="M2024,695.6l3.3,21.9l-19,2.7l-25.8-1.2l-0.6-4.8l15.3-11.3c0,0,4.5,5.2,13.9,2.5
				C2020.5,702.9,2024,695.6,2024,695.6z"/>
			<path class="st66" d="M2021.2,690.9c1.1-0.7,4.9-0.9,4.9,2.1c0,3-7.8,15-18.9,15c-11.1,0-12.5-3.5-10.7-5
				c1.8-1.5,10.7,0.6,13.3-0.4C2012.5,701.5,2017.7,692.9,2021.2,690.9z"/>
			<path class="st72" d="M2008.3,716.4c3.7,0,14-5.5,18.7-7.9l0.3,9.1l-19,2.7l-27.5-1.3l1-4.7
				C1987.7,714.9,2004.2,716.4,2008.3,716.4z"/>
			<polygon class="st71" points="2007,702.9 2005.2,712.9 1987.3,710.3 1999,700.8 			"/>
			<g>
				<path class="st66" d="M2005.2,705.4c0.5,0,0.9-0.4,1-0.9c0.1-0.6-0.3-1.1-0.8-1.2l-7.3-1.2c-0.5-0.1-1.1,0.3-1.2,0.9
					c-0.1,0.6,0.3,1.1,0.8,1.2l7.3,1.2C2005,705.4,2005.1,705.4,2005.2,705.4z"/>
			</g>
			<g>
				<path class="st66" d="M2002.6,710.5c0.5,0,0.9-0.4,1-0.9c0.1-0.6-0.3-1.1-0.8-1.2l-9.9-1.9c-0.5-0.1-1.1,0.3-1.2,0.8
					c-0.1,0.6,0.3,1.1,0.8,1.2l9.9,1.9C2002.5,710.5,2002.6,710.5,2002.6,710.5z"/>
			</g>
		</g>
		<g>
			<path class="st70" d="M1921.7,687.8c1.9,2.9,3.8,10.1,0,14.1c-3.8,3.9-14.1,4.9-14.1,4.9l-7-0.4c0,0,8.6-4.8,11.8-9.8
				c1-1.5,0-4.1,0-5.2C1912.3,686.6,1919.5,684.4,1921.7,687.8z"/>
			<path class="st71" d="M1937.5,691.4l3.3,22.1l-19.2,2.7l-26-1.2l-0.7-4.8l15.4-11.4c0,0,4.6,5.2,14,2.5
				C1933.9,698.7,1937.5,691.4,1937.5,691.4z"/>
			<path class="st66" d="M1934.7,686.6c1.2-0.7,4.9-0.9,4.9,2.1c0,3-7.9,15.1-19,15.1c-11.1,0-12.6-3.5-10.8-5
				c1.8-1.5,10.7,0.6,13.4-0.4C1925.9,697.3,1931.2,688.7,1934.7,686.6z"/>
			<path class="st72" d="M1921.7,712.3c3.7,0,14.1-5.5,18.9-8l0.8,11l-19.7,0.9l-27.7-0.5l1-5.5
				C1900.9,710.8,1917.5,712.3,1921.7,712.3z"/>
			<polygon class="st71" points="1920.3,698.7 1918.5,708.8 1900.5,706.2 1912.3,696.6 			"/>
			<g>
				<path class="st66" d="M1918.5,701.2c0.5,0,0.9-0.4,1-0.9c0.1-0.6-0.3-1.1-0.9-1.2l-7.4-1.2c-0.5-0.1-1.1,0.3-1.2,0.9
					c-0.1,0.6,0.3,1.1,0.8,1.2l7.4,1.2C1918.4,701.2,1918.4,701.2,1918.5,701.2z"/>
			</g>
			<g>
				<path class="st66" d="M1915.9,706.4c0.5,0,0.9-0.4,1-0.9c0.1-0.6-0.3-1.1-0.8-1.2l-9.9-1.9c-0.5-0.1-1.1,0.3-1.2,0.8
					c-0.1,0.6,0.3,1.1,0.8,1.2l9.9,1.9C1915.8,706.4,1915.8,706.4,1915.9,706.4z"/>
			</g>
		</g>
		<g>
			<g>
				<path class="st68" d="M2034.3,194.7c0.7-0.5,9.3-24.6,9.3-24.6s5.7-18.1,1.8-20.9c-3.9-2.9-13.1-13-21-12.9
					c-8,0.1-13.3,2.9-14,3.4c-0.7,0.5-5.7,10.1-5.7,10.1s2.4-3.3,3.8,8.4C2009.8,169.9,2034.3,194.7,2034.3,194.7z"/>
				<path class="st5" d="M2014.2,194.4c1,3-10.9,21.7-4.5,26.9c2,1.7,29.9,16.1,30.1-3.6c0.2-19.6-1.9-42.6-1.9-42.6L2014.2,194.4z"
					/>
				<path class="st1" d="M2039,189.2c-3.6,13.5-19.6,28.8-30.6,23c1.7-7.2,6.5-15.8,5.9-17.8l23.7-19.2
					C2037.9,175.4,2038.5,180.8,2039,189.2z"/>
				<path class="st5" d="M2038.6,157.2c3,7.7,3.4,22-3.5,33.1c-6.8,11.1-16.4,17-23.3,11.8c-7-5.2-9.4-39.4-4.5-48.4
					C2012.1,144.7,2034,145.4,2038.6,157.2z"/>
				<path class="st73" d="M2039,190.1c0,0,1.4-11.3,5.4-14.2c4-2.9,5.7-4.6,6.4-8.6c0.7-4,14-7.1,11.7-13.6
					c-2.3-6.4-12.7-9.1-18.2-20.2c-5.5-11.1-11.3-17.2-23.6-12.6c-12.3,4.6-13.9,12.8-13.9,12.8s-5.5-0.8-8.7,6.3
					c-3.2,7.2-0.8,11.1,1.4,14.3c0,0-0.6-9.3,2.4-8.7c3,0.5,0.1,10.9,0.1,10.9s4.4-4.1,9-10.3c4.7-6.2,3.6,0.9,2.3,8.6
					c-1.3,7.7,9.1,0.1,13.7-5.6c4.6-5.7,11.3-0.8,13.9,7C2043.4,164,2033.1,176.7,2039,190.1z"/>
				<path class="st5" d="M2036.5,169.6c0,0,4.3-8.2,6.6-4.8c2.3,3.4,0.6,13.9-4.2,14.2C2034,179.3,2036.5,169.6,2036.5,169.6z"/>
				<path class="st1" d="M2038.9,170.1c0,0-0.2-4.6,2.1-3.2c2.4,1.5,0.1,9-2.1,8.9C2036.8,175.8,2038.9,170.1,2038.9,170.1z"/>
				<path class="st4" d="M2014.2,168.9c-0.8,2.2-1.3,4.4-1.7,6.7c-0.6,5,0.1,7,0.2,7.3c0.5-0.1,1.9-0.4,3.8-1
					c-1.2,0-2.4,0.1-3.6,0.2l0.4,0.3C2013,177.9,2013.8,173.4,2014.2,168.9z"/>
				<path class="st74" d="M2020.1,169.8c-0.2,1.4,0.3,2.7,1.3,2.8c1,0.2,1.9-0.8,2.2-2.2c0.2-1.4-0.3-2.7-1.3-2.8
					C2021.3,167.4,2020.3,168.4,2020.1,169.8z"/>
				<path class="st74" d="M2007,168.3c-0.2,1.4,0.3,2.7,1.3,2.8c1,0.2,1.9-0.8,2.2-2.2c0.2-1.4-0.3-2.7-1.3-2.9
					C2008.2,165.9,2007.2,166.9,2007,168.3z"/>
				<path class="st4" d="M2027.5,166c0,0-2.1-3.7-5.4-4.3c-3.4-0.6-2.3,2.4-1.5,2.5C2021.3,164.4,2027.6,165.3,2027.5,166z"/>
				<path class="st4" d="M2011.4,160.3c0,0-3.9,1.4-4.7,3.4c0,0,4.2-0.5,4.9-1.6C2012.4,161,2011.4,160.3,2011.4,160.3z"/>
			</g>
			<path class="st16" d="M2012.3,188.8l1.2,6.9c0,0,6.5-4.5,10.4-8.5L2012.3,188.8z"/>
		</g>
	</g>
	<path class="st75" d="M1477.6,507.2c-3.1,76.6,1.1,79.9,1.1,80.9c-0.1-0.5-4.4-5.3-4.2-80.9
		C1474.5,505.1,1477.6,505.1,1477.6,507.2C1477.6,507.1,1477.6,507.2,1477.6,507.2z"/>
	<g>
		<path class="st5" d="M1754,690.7l5,20.7l15.2-4.4c0,0-1-8.2-2.9-21.1L1754,690.7z"/>
		<path class="st5" d="M1660.2,685.4l0,21.3l15.9-0.8c0,0,0.9-8.2,2.1-21.2L1660.2,685.4z"/>
		<path class="st76" d="M1734.1,185.9c0,0,11.4,4.6,16.9,10.4c5.5,5.8,8.1,17.2,6.9,26.3c-1.1,9.1-3.5,10.7-3.5,10.7
			s5.2,12.7,3.6,23.6c-1.6,10.9-13.5,21.3-21.2,22.7c0,0,10.8-12.9,9.3-19.6c0,0-7.8,11-15.5,15.3c-7.8,4.3-45.3,41.9-69.5,15
			c0,0,19.8-8.9,13.3-26.7c-6.5-17.8,11.4-34,11.4-34s-13.9,7.7-21.2-2.6c-7.3-10.4,5.2-18.5,5.9-17.8c0.6,0.7-4.9,10,1.6,12.5
			c6.5,2.5,8-7.5,18.2-18.1C1700.7,193,1729.2,180.7,1734.1,185.9z"/>
		<path class="st5" d="M1731,280.1l6.1-39.7l-20.5-1.5l-6,32.8C1714.9,275.8,1722.9,284.3,1731,280.1z"/>
		<path class="st1" d="M1734.4,257.7l2.7-17.4l-20.5-1.5l-2.4,12.9c0.2,0.3,0.5,0.6,0.8,0.9C1718.7,256.9,1727.2,263.6,1734.4,257.7
			z"/>
		<path class="st5" d="M1740,195.2c0,0,8.4,3,8.4,14.4c0,0-0.9,26.1-11.3,39.1c-7.6,9.6-17.8,2.4-22.1-1.9c-6.2-6.2-4.4-14.6-4.4-26
			C1710.5,209.4,1728.6,187.1,1740,195.2z"/>
		<path class="st77" d="M1726.3,222.8c0,1.3-1,2.4-2.2,2.4c-1.2,0-2.2-1.1-2.2-2.4c0-1.3,1-2.4,2.2-2.4
			C1725.3,220.4,1726.3,221.4,1726.3,222.8z"/>
		<path class="st77" d="M1743.8,224.9c0,1.3-1,2.4-2.2,2.4s-2.2-1.1-2.2-2.4c0-1.3,1-2.4,2.2-2.4S1743.8,223.6,1743.8,224.9z"/>
		<path class="st77" d="M1718,222.1c0,0,4.1-2.7,7.2-1.9c3.1,0.8,3.5,2.6,3.5,2.6s-2.5-1.9-5.8-1.4
			C1719.5,221.9,1718,222.1,1718,222.1z"/>
		<path class="st77" d="M1748.3,226.2c0,0-3.3-3.7-6.5-3.7c-3.1,0-4,1.7-4,1.7s2.9-1.2,6,0.1
			C1746.8,225.7,1748.3,226.2,1748.3,226.2z"/>
		<path class="st77" d="M1735.1,227.8c0.4,2.3,1,4.4,1.8,6.6c-0.9,0.7-2.7,1.2-3.8,1.6c3.5,0.1,4.5-1.3,4.7-1.3
			C1737.8,234.6,1736.5,230.5,1735.1,227.8z"/>
		<path class="st1" d="M1726.6,230.8c0,1.8-2.4,3.3-5.3,3.3c-2.9,0-5.3-1.5-5.3-3.3c0-1.8,2.4-3.3,5.3-3.3
			C1724.2,227.5,1726.6,229,1726.6,230.8z"/>
		<path class="st1" d="M1744.5,229c-2.2,0-4,1.4-4,3.1c0,1.5,1.4,2.8,3.3,3.1c0.7-2,1.2-4.1,1.7-6.1
			C1745.2,229.1,1744.9,229,1744.5,229z"/>
		<path class="st77" d="M1746.2,192.2c0,0,1.4,16.3-12.4,17.3c-13.9,1-22.7,7.9-22.7,7.9l-6.2,18.5c0,0-3-14.3-2.6-24.7
			c0.4-10.5,15.3-25,25.3-26.3C1737.5,183.5,1746.2,192.2,1746.2,192.2z"/>
		<path class="st5" d="M1713,219.9c0,0-1-3.5-4-2.7c-3,0.8-1.5,9.7,0,11.2C1710.5,230,1716,228.8,1713,219.9z"/>
		<path class="st1" d="M1712.2,221.6c0,0-1.8-4.2-3.2-2.8c-1.4,1.4,0.3,7.6,1.5,7.6C1711.7,226.5,1712.2,221.6,1712.2,221.6z"/>
		<path class="st77" d="M1725.6,240.8c-0.4-0.3-0.2-0.4-0.5,0c-0.7,1,0.6,4.4,2.8,5.1c2.9,0.9,7-1.1,7-2.8
			C1734.9,242.6,1731.1,244.7,1725.6,240.8z"/>
		<path class="st77" d="M1719.5,216.7c0,0,5.1-1.8,7.1-1.8c2,0,4.8,2.3,4.3,3.7c-0.5,1.4-3-2.3-4.7-2.3S1719.5,216.7,1719.5,216.7z"
			/>
		<path class="st77" d="M1746.2,221.1c0,0-1.2-3-3.2-3.6c-1.9-0.6-5.3,0.8-5.2,2.3c0.1,1.5,3.5-1.3,5.1-0.8
			C1744.5,219.5,1746.2,221.1,1746.2,221.1z"/>
		<path class="st1" d="M1686.1,271.7c-9.7-12.8-32.2-46.3-34.2-85.7c-2.9-57.4,5.8-75.6,5.8-75.6s6.5-5.1,8.8-8.8
			c2.3-3.7,7.2-7.4,4.9-8.8c-2.3-1.5-5.6,3-6.6,4.6c-0.4,0.6-0.9,0.6-1.4,0.5c-1.4-0.3-2.2-1.8-1.8-3.2c0.4-1.4,1.4-3.7,3.7-7.2
			c4.7-7.5,8.3-14.5,6-14c-2.3,0.5-9.9,14-11.6,16.6c-1.7,2.7,4.4-12.2,6.6-18.5c2.2-6.3-1.6-4.6-2.7-1.1c-1,3.6-7,18.4-8,17.8
			c-1-0.6,5.2-17.8,2.8-19.3c-2.4-1.5-1.8,2.4-2.7,5.2c-0.9,2.7-1.6,12.4-4.1,13c0,0-0.9-13.2-2-11.9c-0.6,0.6-2.2,14.7-2.3,20.6
			c-0.2,14-19.4,88.6-14.9,108.2c4.4,19.1,10.2,74.1,25.5,85.1C1676.2,289.9,1677.7,285,1686.1,271.7z"/>
		<path class="st78" d="M1660.9,380.7c0,0-21.9,49.5-21.9,65c0,15.5,11.5,241.5,11.5,241.5l36,1.5c0,0-1.5-211.2,3.9-216.7
			c5.4-5.4,10.8-4.6,10.8-4.6l46.3,224.7l33.6-2.6c0,0-18-214.4-27.2-237.6c-9.3-23.2-29.4-71.2-29.4-71.2H1660.9z"/>
		<g>
			<path class="st1" d="M1788.1,347.3c0,0,40.9,17.4,46.5,11.9c5.5-5.5,1.2-33.8-3.1-33.8c-4.3,0-34-16.5-41.1-16.5
				C1783.1,309,1774.8,334,1788.1,347.3z"/>
			<path class="st79" d="M1899.6,297.9c-1.7,2.6-5.2,3.2-7.8,1.5c-2.6-1.7-3.2-5.2-1.5-7.8c1.8-2.6,5.2-3.2,7.8-1.5
				C1900.7,291.9,1901.4,295.4,1899.6,297.9z"/>
			<path class="st80" d="M1890.3,288.7l-58.9,36.8c0,0-11.7,26.9,3.1,33.8l63.8-57.4L1890.3,288.7z"/>
			<g>
				<path class="st81" d="M1911.2,289.9c-0.3-0.2-0.6-0.5-0.9-0.9c-0.8-1.4-0.3-3.1,1-3.9l11.7-6.9c1.4-0.8,3.1-0.3,3.9,1
					c0.8,1.4,0.3,3.1-1,3.9l-11.7,6.9C1913.3,290.6,1912.1,290.5,1911.2,289.9z"/>
			</g>
			<g>
				<path class="st81" d="M1910.8,292.1c-0.2-0.3-0.4-0.7-0.5-1.1c-0.3-1.5,0.6-2.9,2.1-3.2l12.7-2.8c1.5-0.3,2.9,0.6,3.2,2.1
					c0.3,1.5-0.6,2.9-2.1,3.2l-12.7,2.8C1912.5,293.3,1911.4,292.9,1910.8,292.1z"/>
			</g>
			<g>
				<path class="st81" d="M1908.9,286c-0.2-0.1-0.4-0.3-0.5-0.5c-1-1.2-0.9-3,0.3-4l9.2-8.1c1.2-1,3-0.9,4,0.3c1,1.2,0.9,3-0.3,4
					l-9.2,8.1C1911.3,286.7,1909.9,286.8,1908.9,286z"/>
			</g>
			<g>
				<path class="st81" d="M1921.6,274.5c0,0-0.1-0.1-0.1-0.1c-0.8-0.7-0.8-2-0.1-3l4.4-5.5c0.8-1,2-1.2,2.8-0.5c0.8,0.7,0.8,2,0.1,3
					l-4.4,5.5C1923.5,274.8,1922.4,275,1921.6,274.5z"/>
			</g>
			<g>
				<path class="st81" d="M1927.1,280.2c0,0-0.1-0.1-0.1-0.1c-0.6-0.8-0.5-2,0.3-2.6l4.6-3.7c0.8-0.6,2-0.5,2.6,0.3
					c0.6,0.8,0.5,2-0.3,2.6l-4.6,3.7C1928.9,280.9,1927.8,280.8,1927.1,280.2z"/>
			</g>
			<g>
				<path class="st81" d="M1927.5,287.8c0,0,0-0.1,0-0.1c-0.3-0.9,0.3-1.8,1.2-2.1l5.3-1.5c0.9-0.3,1.8,0.3,2.1,1.2
					c0.3,0.9-0.3,1.8-1.2,2.1l-5.3,1.5C1928.7,289.1,1927.8,288.6,1927.5,287.8z"/>
			</g>
			<g>
				<path class="st81" d="M1906.9,282.5c-1.1-0.8-1.6-2.3-1-3.5l5.2-11.4c0.7-1.4,2.4-2.1,3.8-1.4c1.4,0.7,2.1,2.4,1.4,3.8
					l-5.2,11.4c-0.7,1.4-2.4,2.1-3.8,1.4C1907.2,282.7,1907.1,282.6,1906.9,282.5z"/>
			</g>
			<g>
				<path class="st81" d="M1904.5,279.6c-0.4-0.3-0.8-0.8-0.9-1.3l-1.6-6.4c-0.3-1.2,0.4-2.5,1.7-2.8c1.2-0.3,2.5,0.5,2.8,1.7
					l1.6,6.4c0.3,1.2-0.5,2.5-1.7,2.8C1905.7,280.1,1905,280,1904.5,279.6z"/>
			</g>
			<g>
				<path class="st81" d="M1902.6,269.2c-0.7-0.4-1.1-1.2-1-2l0.8-4.1c0.2-1,1.1-1.6,2.1-1.5c1,0.2,1.6,1.1,1.5,2.1l-0.8,4.1
					c-0.2,1-1.1,1.6-2.1,1.5C1903,269.3,1902.8,269.2,1902.6,269.2z"/>
			</g>
			<g>
				<path class="st81" d="M1915.3,266.7c-0.9-0.5-1.2-1.6-0.7-2.5l2.5-4.3c0.5-0.9,1.6-1.2,2.5-0.7c0.9,0.5,1.2,1.6,0.7,2.5
					l-2.5,4.3C1917.3,266.9,1916.2,267.2,1915.3,266.7z"/>
			</g>
			<g>
				<path class="st81" d="M1919.4,259.1c-0.8-0.4-1-1.4-0.6-2.2l1.6-3c0.4-0.8,1.4-1,2.2-0.6c0.8,0.4,1,1.4,0.6,2.2l-1.6,3
					C1921.1,259.2,1920.1,259.5,1919.4,259.1z"/>
			</g>
			<g>
				<path class="st81" d="M1928.3,265.2c-0.7-0.5-1-1.5-0.5-2.2l1.8-2.8c0.5-0.7,1.5-1,2.2-0.5c0.7,0.5,1,1.5,0.5,2.2l-1.8,2.8
					C1930,265.5,1929.1,265.7,1928.3,265.2z"/>
			</g>
			<g>
				<path class="st81" d="M1934.2,274.4c-0.6-0.6-0.7-1.6-0.1-2.3l2.3-2.5c0.6-0.6,1.6-0.7,2.3-0.1c0.6,0.6,0.7,1.6,0.1,2.3
					l-2.3,2.5C1935.8,274.9,1934.8,275,1934.2,274.4z"/>
			</g>
			<g>
				<path class="st81" d="M1935.7,285.8c-0.2-0.7,0.1-1.4,0.8-1.6l2.6-0.9c0.7-0.2,1.4,0.1,1.7,0.8c0.2,0.7-0.1,1.4-0.8,1.7
					l-2.6,0.9C1936.6,286.8,1935.9,286.4,1935.7,285.8z"/>
			</g>
			<path class="st80" d="M1903,278.4l-7.8,10l6.9,10.2c0,0,13.5-5.1,15.5-7.1c1.4-1.5-5.6-9.2-9.7-13.4
				C1906.5,276.7,1904.2,276.8,1903,278.4z"/>
		</g>
		<g>
			<path class="st82" d="M1693.8,408.3c-20.3,0-35.5-10.5-35.7-10.6l1.8-2.5c0.3,0.2,27.8,19,57.5,4.6l1.3,2.8
				C1710,406.8,1701.5,408.3,1693.8,408.3z"/>
		</g>
		<path class="st82" d="M1693.4,397.6c0,2-1.6,3.7-3.7,3.7c-2,0-3.7-1.6-3.7-3.7c0-2,1.6-3.7,3.7-3.7
			C1691.8,393.9,1693.4,395.5,1693.4,397.6z"/>
		<g>
			<polygon class="st82" points="1681.3,405.3 1678.3,405 1680.3,384.7 1683.4,385 			"/>
		</g>
		<path class="st83" d="M1621,218c0,0,9.2,58.6,18.2,70.8c1.7,2.3,2.5,5,1.9,7.7c-3.3,17.1-10.6,68.7,19.8,84.2
			c36.6,18.8,76.3,1.7,88.8-10.8c12.5-12.5,25-12.8,40-6.4c15.1,6.4,25.5-26,25.5-42.3c0-16.3-58.8-36.4-88.4-48.6
			c-29.6-12.3-39.8-11.2-50.9-28c-11-16.8-11-47.6-22.6-42.9C1641.7,206.3,1621,218,1621,218z"/>
		<path class="st5" d="M1726.9,272.6c-21.8-9-33.1-10.8-41.9-17.9c-1.4,13.7-2.1,40.3,11.7,49.6c16.1,10.9,53-2.6,68.4-16.4
			C1748,280.4,1740.1,278.1,1726.9,272.6z"/>
		<path class="st77" d="M1740.5,198.4c0,0-25,15-27.5,21.5c-2.5,6.5-11.1,15.9-5.4,37c5.7,21.1-16.1,30.1-24,23.5
			c-7.9-6.6-6.3-20.6,0-19.6c0,0,3,6.4,7.9,1.5c4.9-4.9,0.6-22.9-0.2-34.5C1690.4,216.2,1719.5,169.7,1740.5,198.4z"/>
		<g>
			<path class="st84" d="M1676.4,701.6c0,0-1,9.9-1.6,16.7c-0.7,6.8,1.8,12.4-6.7,13c-8.5,0.6-17.2-2.7-17.6-7.1
				c-0.4-4.5,8.8-14,9.2-18.4c0.4-4.4,3-5.9,4.2-4.4C1665.2,702.9,1676.4,701.6,1676.4,701.6z"/>
			<path class="st85" d="M1673.8,728.7c-1.6,1.5-3.7,1.5-6,1.4c-4.9-0.2-15.5-1.5-17.3-5.9c-0.2,1.2,0.3,2.4,1,3.4
				C1656.9,734.4,1672.5,734.2,1673.8,728.7z"/>
			<path class="st85" d="M1660.3,710.2c-0.5,5.6,7,7.9,9.8,3.1c0-0.1,0.1-0.2,0.1-0.2c4.4-7.8,4.9-10,5.9-11.8c1-2,2.4-4.7-1.8-7.1
				c-4.2-2.4-10.6-2.8-10.8-0.8C1663.4,694.7,1661,701.8,1660.3,710.2z"/>
			<path class="st16" d="M1674.3,694.2c4.2,2.4,2.8,5.1,1.8,7.1c-0.9,1.8-1.4,4-5.9,11.8c0,0.1-0.1,0.2-0.1,0.2
				c-0.3,0.4-0.5,0.8-0.9,1.1c0.1-0.1,0.2-0.2,0.2-0.3c0-0.1,0.1-0.2,0.1-0.2c4.4-7.8,4.9-10,5.9-11.8c1-2,2.4-4.7-1.8-7.1
				c-3.4-2-8.4-2.6-10.1-1.7C1663.8,691.4,1670.1,691.8,1674.3,694.2z"/>
			<path class="st86" d="M1669.1,714.5c0,0,0.8-12.3,2.7-12.7c1.8-0.3,4.6-0.3,4.6-0.3s-2.1,12.3-4.4,14.2
				C1669.7,717.7,1669.1,714.5,1669.1,714.5z"/>
			<g>
				<path class="st16" d="M1660,704.7c0,0.2,0,0.3,0.2,0.4c4.7,4.2,11.9,1.1,12.2,1c0.3-0.1,0.4-0.4,0.3-0.7
					c-0.1-0.3-0.4-0.4-0.7-0.3c-0.1,0-7,2.9-11.2-0.8c-0.2-0.2-0.5-0.2-0.7,0C1660.1,704.5,1660,704.6,1660,704.7z"/>
			</g>
			<g>
				<path class="st16" d="M1659.2,709.6c0,0.1,0,0.3,0.2,0.4c2.9,2.7,11.5,0.9,11.8,0.8c0.3-0.1,0.4-0.3,0.4-0.6
					c-0.1-0.3-0.3-0.4-0.6-0.4c-2.3,0.5-8.9,1.4-10.9-0.6c-0.2-0.2-0.5-0.2-0.7,0C1659.3,709.3,1659.2,709.5,1659.2,709.6z"/>
			</g>
			<g>
				<path class="st16" d="M1658.6,713.1c0,0.1,0,0.3,0.1,0.4c2.2,2.7,11.3,1.5,12.4,1.3c0.3,0,0.5-0.3,0.4-0.6
					c0-0.3-0.3-0.5-0.6-0.4c-2.6,0.4-9.9,1-11.5-1c-0.2-0.2-0.5-0.2-0.7-0.1C1658.6,712.8,1658.6,713,1658.6,713.1z"/>
			</g>
			<path class="st86" d="M1670.7,719.6c0,0,1.5,6.6,0.2,7.7c-1.3,1.1-17.3-0.7-17-3.4c0.3-2.8,4.4-7.8,5.8-8.1
				C1661.2,715.5,1670.7,719.6,1670.7,719.6z"/>
		</g>
		<g>
			<path class="st86" d="M1777.9,693.1c0,0-8.8,1.4-9,7.3c-0.2,5.8,7,13.7,7,13.7l6.8-4.6c0,0-3-3.2-3.6-8.7
				C1778.5,695.3,1777.9,693.1,1777.9,693.1z"/>
			<path class="st87" d="M1756.7,725.7c0,0,8.8,0.2,15,0.3c6.2,0.1,16,1.1,19.1,1.2c3.1,0.1,14.5-7,13.8-9.4
				c-0.7-2.4-10.9-2-16.1-4.8c-5.2-2.8-14.3-9.5-16.1-10.2c-2.9-1.1-10.6,1.6-12.4,3.3C1758.3,707.9,1755.2,724.1,1756.7,725.7z"/>
			<path class="st85" d="M1759,721.7c24.8-3.3,17.6,4,41.8-2.2c-5.9,2.2-14.7,4.4-20.9,3c-3.4-0.8-6.9-0.8-10.4-0.9
				C1766.1,721.6,1762.6,721.6,1759,721.7z"/>
			<g>
				<path class="st16" d="M1775.8,715.5c0.3,0.4,0.9,0.5,1.3,0.1c1.4-1.2,4.6-3.5,7.6-5c-0.6-0.4-1.1-0.8-1.7-1.3
					c-3.6,2-6.8,4.6-7.1,4.8C1775.5,714.5,1775.5,715.1,1775.8,715.5z"/>
				<path class="st16" d="M1774.7,711.5c0.5,0.3,1,0.1,1.3-0.3c0,0,2.7-3.6,5-5.8c-0.2-0.7-0.5-1.4-1-1.7c-2.3,2.3-5.5,6.4-5.6,6.6
					C1774.1,710.6,1774.3,711.2,1774.7,711.5z"/>
			</g>
		</g>
		<polygon class="st88" points="1646.8,678.1 1688.4,679.2 1688.4,688.6 1646.8,688 		"/>
		<polygon class="st88" points="1742.7,684.4 1784.7,681.7 1784.7,689.5 1744.6,693.1 		"/>
		<path class="st25" d="M1888.1,295.1c0,0-53.7,29.5-53.7,35.6c0,6.1,5.6,4.8,10.4,0C1849.6,325.9,1888.1,295.1,1888.1,295.1z"/>
	</g>
	<g>
		<g>
			<path class="st89" d="M2747.4,229.3c0,0-13.8,7.9-15.9,26.3c-2.1,18.4-1.9,50-1.9,50l13.8,6.9h12.3L2747.4,229.3z"/>
			<path class="st90" d="M2711.9,359.2l43.2-36.2l-14.3-14.1c0,0-29.4,38.1-35.2,37.5C2699.8,345.9,2711.9,359.2,2711.9,359.2z"/>
			<g>
				<path class="st5" d="M2701.7,666.8c1.7,1.8-12,35.9-12,35.9l19.2,5.5l9.5-39.9L2701.7,666.8z"/>
				<path class="st91" d="M2747.1,370.2l-10.9,16.8c0,0-14.7,137.7-18.3,153.2c-3.6,15.5-23,146.4-23,146.4l20.2,7.5
					c0,0,38.3-108.4,36.4-122.8c-1.9-14.4,43.7-148.1,43.7-148.1l-45.6-53.4L2747.1,370.2z"/>
				
					<linearGradient id="SVGID_1_" gradientUnits="userSpaceOnUse" x1="2548.8655" y1="469.3517" x2="2564.7749" y2="879.0118" gradientTransform="matrix(0.9986 -5.200000e-02 5.200000e-02 0.9986 209.0755 37.5244)">
					<stop  offset="0" style="stop-color:#006363"/>
					<stop  offset="1" style="stop-color:#009D9E"/>
				</linearGradient>
				<path class="st92" d="M2755.6,378.5c0,0,25.9,154.2,27.9,188.6c2,34.4-16.8,130-16.8,130l33.2,1.2c0,0,28.7-97.1,22-125.2
					c-6-25.5,1.4-128.8,2.8-148c0.2-2.1,0-4.1-0.5-6.1l-10.7-43.2L2755.6,378.5z"/>
				<path class="st93" d="M2792.8,696.8c0,0,0.6,9.9,0.2,18.3c-0.5,8.4,3.3,15.3-8.4,16.5c-11.7,1.2-24-2.3-24.9-7.8
					c-0.9-5.5,11.3-17.9,11.5-23.3c0.3-5.4,3.7-7.5,5.6-5.7C2778.6,696.6,2792.8,696.8,2792.8,696.8z"/>
				<path class="st94" d="M2792.2,728.1c-2.1,1.9-5,2.1-8.2,2.1c-6.8,0-21.5-0.9-24.4-6.3c-0.2,1.5,0.6,3,1.7,4.2
					C2769.3,736.1,2790.9,734.9,2792.2,728.1z"/>
				<path class="st95" d="M2772.8,707.5c-0.2,5.2,7.8,10,10.7,5.3c0-0.1,4.1-11.5,4.5-15.1c0.2-2.1,1.8-5.7-3.6-6.7
					c-5.3-1-9.3,0.8-9.4,2.7C2775,695,2773.1,699.6,2772.8,707.5z"/>
				<path class="st93" d="M2784.9,710.8c0,0,0.3-15.3,2.8-15.8c2.5-0.5,5.4,1.2,5.4,1.2s-1.2,13.6-4.2,16.1
					C2785.9,714.6,2784.9,710.8,2784.9,710.8z"/>
				<g>
					<path class="st94" d="M2771.5,699.1c0,0.2,0.1,0.4,0.3,0.5c6.7,4.9,16.6,0.7,17,0.5c0.3-0.2,0.5-0.5,0.3-0.8
						c-0.2-0.3-0.6-0.4-0.9-0.3c-0.1,0-9.5,4-15.5-0.4c-0.3-0.2-0.7-0.2-1,0.1C2771.6,698.8,2771.5,699,2771.5,699.1z"/>
				</g>
				<g>
					<path class="st94" d="M2770.8,705.2c0,0.2,0.1,0.4,0.2,0.5c4.2,3.2,15.9,0.5,16.4,0.3c0.4-0.1,0.6-0.4,0.5-0.8
						c-0.1-0.3-0.5-0.5-0.9-0.4c-3.2,0.8-12.2,2.2-15.2-0.1c-0.3-0.2-0.7-0.2-1,0.1C2770.9,704.9,2770.8,705.1,2770.8,705.2z"/>
				</g>
				<g>
					<path class="st94" d="M2770.1,709.6c0,0.2,0,0.3,0.2,0.4c3.3,3.2,15.8,1.1,17.3,0.9c0.4-0.1,0.6-0.4,0.6-0.7
						c-0.1-0.3-0.4-0.6-0.8-0.5c-3.6,0.6-13.6,1.8-16-0.5c-0.3-0.3-0.7-0.3-1,0C2770.2,709.3,2770.1,709.4,2770.1,709.6z"/>
				</g>
				<g>
					<path class="st95" d="M2687.7,705.5c-4.8,2.9-8.7-1.7-8.7-1.8c4.7-7.2,7.4-13.7,8.5-15.2c1.3-1.7,3-4.1,7.4-1.7
						c4.4,2.4,8.1,7.4,6.4,8.5C2700.1,695.9,2694.9,701.1,2687.7,705.5z"/>
					<path class="st93" d="M2717.8,719.5c0,0-11.5,0.1-19.6,0.2c-8.1,0.1-20.9,1.1-24.9,1.2c-4,0-18.7-8.3-17.8-11
						c0.9-2.8,14.2-2.2,21-5.4c6.9-3.2,15.9-12.6,19-12.5c2.6,0.1,15.9,2.7,18.2,4.8C2716,698.8,2719.8,717.7,2717.8,719.5z"/>
					<path class="st94" d="M2658.9,708.1C2658.9,708.1,2658.9,708.1,2658.9,708.1c3.1,0.8,8.5,6.3,16.5,8.1
						c6.2,1.4,31.7-1.5,42.8-2.9c0.3,3.1,0.3,5.5-0.3,6.1c0,0-11.5,0.1-19.6,0.2c-8.1,0.1-20.9,1.1-24.9,1.2c-4,0-18.7-8.3-17.8-11
						C2655.7,709.1,2657,708.5,2658.9,708.1z"/>
					<g>
						<path class="st94" d="M2684.2,708.4c0.1-0.1,0.1-0.2,0.1-0.4c-0.9-4.7-7.3-4.8-7.6-4.8c-0.2,0-0.5,0.2-0.5,0.4
							c-0.1,0.2,0.1,0.4,0.3,0.4c0.1,0,6.2,0.2,7,4.4c0,0.2,0.3,0.3,0.5,0.2C2684.1,708.5,2684.2,708.5,2684.2,708.4z"/>
					</g>
					<g>
						<path class="st94" d="M2687.4,705c0.1-0.1,0.1-0.2,0.1-0.4c-0.5-3-7.1-4.5-7.4-4.6c-0.2,0-0.5,0.1-0.6,0.3
							c-0.1,0.2,0,0.4,0.2,0.5c1.8,0.4,6.6,1.9,6.9,4.1c0,0.2,0.2,0.3,0.5,0.2C2687.2,705.2,2687.3,705.1,2687.4,705z"/>
					</g>
					<g>
						<path class="st94" d="M2689.7,702.6c0.1-0.1,0.1-0.2,0.1-0.3c0-2.8-6.8-4.9-7.5-5.1c-0.2-0.1-0.5,0.1-0.6,0.3
							c-0.1,0.2-0.1,0.4,0.2,0.5c2,0.6,7.1,2.6,7.1,4.6c0,0.2,0.2,0.3,0.4,0.3C2689.5,702.8,2689.6,702.7,2689.7,702.6z"/>
					</g>
				</g>
				<path class="st96" d="M2787.4,716.9c0,0,2.6,8.1,0.8,9.5c-1.8,1.5-24,0.2-23.8-3.2c0.2-3.4,5.6-10,7.6-10.4
					C2773.9,712.4,2787.4,716.9,2787.4,716.9z"/>
			</g>
			<path class="st97" d="M2767,219.7c-14.8,3.1-27.6,12.9-33.4,26.8c-1.3,3.1-2.1,6.3-2.1,9c0,11.2,5.5,50.7,5.5,70.6
				c0,19.9-6.6,91.8-6.6,91.8s28.5,3.6,65.3-4c19.7-4,30.5,4.8,30.5,4.8s-9.7-87.3-15.6-126.2c-5.9-38.8,1.4-65.2-3.6-71
				C2803.5,217.6,2784.9,216,2767,219.7z"/>
			<path class="st98" d="M2813.7,366.9c1.4-2.4,3.4-8,4.5-15.9c-2.6-21.5-5.5-43.5-7.7-58.3c-0.6-3.8-1-7.5-1.4-11.1l-7.6-8.1
				c0,0-7.4,42.1-16.3,59.2c-7,13.4-38.7,38.6-51.7,48.6c-0.3,4.1-0.7,8.1-1,11.9C2732.5,393.2,2790.3,408.1,2813.7,366.9z"/>
		</g>
		<g>
			<path class="st5" d="M2760.1,178.9l-3.1,41c-0.2,2.2-2.3,13.3-0.6,14.8c4,3.4,17.2,3.6,23.7-1c5.7-4-1.3-54.1-1.3-54.1
				S2767.9,177.7,2760.1,178.9z"/>
			<path class="st1" d="M2778.7,179.6c0,0,0.2,1.7,0.6,4.4c-0.6,3.8-1.7,9.7-3.4,14c-2.2,5.8-10.8,15-18.5,15.2l2.6-34.3
				C2767.9,177.7,2778.7,179.6,2778.7,179.6z"/>
			<g>
				<path class="st99" d="M2781.2,130c3.4,5.4,6,12.9,0.6,16.3c6.1-2.8,4.4-11.4,1.5-17.5L2781.2,130z"/>
				<path class="st5" d="M2755.3,149.3c0,0-8.6,0.6-10.1,11.4c-1.5,10.8,2.1,41,10.4,44.3c8.4,3.2,19-6.6,21.5-12.4
					c2.5-6.1,3.4-15.8,3.4-15.8S2783.1,137.7,2755.3,149.3z"/>
				<path class="st99" d="M2788.2,192.1c0,0-2.1,2.3-4.2-1c0,0-4.9-7.5-0.1-12.7c4.8-5.2,12-12.4,11.3-22.4
					c-0.7-10-12.7-10.6-12.7-10.6s-1.1-15.4-18.2-11.2c0,0-3-3.5-12.8-3.6c-9.8-0.1-7.8,5.4-13.4,4.2c-5.6-1.2-6.2-5.7-3.7-7.3
					c0,0-9.9,3.9-11.6,11.6c-1.7,7.7,13.2,8.9,13.2,8.9s-12.1,0.9-3.2,6.5c8.9,5.6,13.3,5.8,19.3,0.6c5.9-5.2,9-6.3,11.9-4.9
					c2.9,1.4,1.5,8,5.9,9c4.4,1,6.7,13,6.7,13s3.5-1,2.9,7.3c-0.6,8.3-2,13.4,3,14.4C2787.7,195.1,2788.2,192.1,2788.2,192.1z"/>
				<path class="st5" d="M2779.7,162.8c2.7-0.2,8.9,2.1,3.2,10.2c-5.7,8-9.9-0.9-9.1-4.6C2774.6,164.8,2777.7,162.9,2779.7,162.8z"
					/>
				<path class="st99" d="M2753.9,173.4c0.3,5,0.1,9.9,0.8,14.6c1.1,0.1,2.3,0.2,3.5,0.4c-2,0.5-3.6,0.8-4.4,0.9
					C2753.8,189.1,2752.2,182.6,2753.9,173.4z"/>
				<g>
					<path class="st99" d="M2756,172c0.3,0.1,0.6-0.1,0.7-0.4c0-0.1,0.7-2.1,3.3-3c2.3-0.8,7.6,0.9,9.5,1.6c0.3,0.1,0.6,0,0.8-0.3
						c0.1-0.3,0-0.6-0.3-0.8c-0.3-0.1-7.2-2.7-10.3-1.6c-3.2,1.1-4,3.6-4.1,3.8C2755.5,171.6,2755.7,171.9,2756,172
						C2756,172,2756,172,2756,172z"/>
				</g>
				<path class="st16" d="M2764.3,191.2c0,0-8.7,2.4-13.6,0.9c0,0,0.7,3.9,3.5,5.2C2757,198.5,2763,197,2764.3,191.2z"/>
				<path class="st1" d="M2782.9,168.2c0,0-0.8,5.9-3.7,5.7c-2.9-0.2-3.3-4.7-1.3-6.7C2780,165.1,2783.2,166.6,2782.9,168.2z"/>
				<path class="st99" d="M2757.9,174.5c0.1,1.2,0.9,2,1.8,2c0.9-0.1,1.6-1,1.5-2.2c-0.1-1.2-0.9-2-1.8-2
					C2758.5,172.4,2757.8,173.4,2757.9,174.5z"/>
				<path class="st99" d="M2746.1,174.7c0.1,1.2,0.9,2,1.8,2c0.9-0.1,1.6-1.1,1.5-2.2c-0.1-1.2-0.9-2-1.8-2
					C2746.7,172.6,2746,173.6,2746.1,174.7z"/>
				<g>
					<path class="st99" d="M2750.6,171.5c0.2,0.3,0.2,0.6-0.1,0.8c-0.1,0.1-0.3,0.2-0.5,0.1c-0.1,0-0.2-0.1-0.3-0.2
						c-0.6-0.7-2.4-2.6-3.8-2.9c-0.3-0.1-0.7-0.1-1-0.2c0-0.4,0-0.8,0-1.2c0.4,0,0.9,0.1,1.3,0.2
						C2748.2,168.6,2750.5,171.4,2750.6,171.5z"/>
				</g>
			</g>
		</g>
		<path class="st1" d="M2695.8,245.1c-1.4-3.4-44.9,45.7-50.1,50.9c-5.2,5.2-15.8-37.5-18.6-47.7c-2.5-9-11.6-9.5-11.6-2.3
			c0,0,6,57.5,16.6,73c13.6,19.9,52.9-43.7,52.9-43.7S2697.2,248.5,2695.8,245.1z"/>
		<path class="st76" d="M2694.9,160.1c0,0-10.3,4.1-15.2,9.3c-5,5.2-7.2,15.5-6.2,23.6c1,8.1,3.1,9.6,3.1,9.6s-4.7,11.4-3.3,21.2
			c1.4,9.8,12.1,19.1,19.1,20.4c0,0-9.7-11.6-8.4-17.6c0,0,7,9.9,13.9,13.8c7,3.9,40.7,37.7,62.5,13.5c0,0-17.8-8-12-24
			c5.8-16-10.2-30.5-10.2-30.5s5.2-13.8-4-23.4C2724.9,166.5,2699.3,155.5,2694.9,160.1z"/>
		<path class="st100" d="M2668.7,574.3c-1.8,1.8,56.9,103.2,56.9,114.7c0,11.5-4.2,18-7.8,21.6c-3.6,3.6-23.4,6.6-23.4,10.2
			c0,3.6,34.8-3,34.8-3s20.1-22.3,16.6-27.6c-0.6-0.9-1.2-1.9-1.7-2.9c-5.6-10.4-10.7-25.6-10.7-31.3c0-9.6-24.6-102.7-24.6-102.7
			S2670.5,572.5,2668.7,574.3z"/>
		<path class="st101" d="M2750.2,700.9c0,0,0-2.1-4.5-10.7c-8.6,6.1-11.7,17.3-19.3,20.5c-2.6,1.1-6.2,1.2-9.9,0.8
			c-5.5,3.2-22.2,6-22.2,9.3c0,3.6,34.1-1.3,34.1-1.3L2750.2,700.9z"/>
		<path class="st5" d="M2741.7,580.3c0,0,4.2,31.8,1.2,57.6c-3,25.8-24.4,68.7-24.4,80.1c0,4.7,0.4,9.5,0.8,13.9
			c0.4,3.6-8.1,12.5-14.8,12.7c-4.9,0.2-8.8-7.6-8.3-9c3.5-9.8,10.7-19.6,10.7-30.4c0-14.4-2.4-79.3,0.6-103.3
			c3-24,4.8-59.4,4.8-59.4L2741.7,580.3z"/>
		<path class="st102" d="M2704,740.9c-3.1,0-6-3-7.8-5.3c-1.2,3.2-2,6.5-2,9.8c0,13.2,26.4,3.6,26.4,0c0-2.1-0.8-7.3-1.4-13.5v0
			C2719.3,731.9,2709.2,740.9,2704,740.9z"/>
		<path class="st103" d="M2747.9,393.3c-1.2-3.9-12.3-25-13-28.8c-19.2,3.2-34.8,3.1-55.3-0.2c-0.3,2.1-39.1,221.6-35.2,225.5
			c3.9,3.9,113.5,16.8,141.7-3C2786.2,586.9,2759.3,429.9,2747.9,393.3z"/>
		<path class="st104" d="M2747.9,393.3c-1.2-3.9-12.3-25-13-28.8c-8.6,1.4-16.5,2.2-24.4,2.3c14.4,29.4,38.5,88,30.2,136.2
			c-6.8,40.2-30.2,73.3-48,93.4c34.4,2.3,77.2,1.7,93.3-9.7C2786.2,586.9,2759.3,429.9,2747.9,393.3z"/>
		<path class="st102" d="M2734.9,364.5c-6.1-31.6,5.8-72.3,5.8-80.9c0-9.6-6.5-40.5-15.6-40.5c-9,0-29.3,0-29.3,0
			s-27.3,32.2-27.3,49c0,15.4,13.7,49.7,11,72.2C2700.1,367.7,2715.7,367.7,2734.9,364.5z"/>
		<path class="st1" d="M2693.7,256.6l2.1-45.8l18.8-7l3.4,41.1C2714,248.6,2689.1,277,2693.7,256.6z"/>
		<path class="st105" d="M2715.3,212.6l-0.7-8.8l-18.8,7l-0.9,18.7C2703.7,228.2,2711.1,218.9,2715.3,212.6z"/>
		<path class="st5" d="M2689.6,168.5c0,0-7.5,2.7-7.5,12.9c0,0,0.8,23.4,10.2,35.1c6.9,8.6,16,2.1,19.8-1.7c5.6-5.6,4-13.2,4-23.4
			C2716.1,181.2,2699.9,161.2,2689.6,168.5z"/>
		<path class="st77" d="M2701.9,193.3c0,1.2,0.9,2.1,2,2.1c1.1,0,2-1,2-2.1c0-1.2-0.9-2.1-2-2.1
			C2702.8,191.1,2701.9,192.1,2701.9,193.3z"/>
		<path class="st77" d="M2686.2,195.2c0,1.2,0.9,2.1,2,2.1c1.1,0,2-1,2-2.1c0-1.2-0.9-2.1-2-2.1
			C2687.1,193.1,2686.2,194,2686.2,195.2z"/>
		<path class="st77" d="M2709.4,192.6c0,0-3.7-2.4-6.5-1.7c-2.7,0.7-3.1,2.3-3.1,2.3s2.2-1.7,5.2-1.2
			C2708,192.5,2709.4,192.6,2709.4,192.6z"/>
		<path class="st77" d="M2682.1,196.4c0,0,3-3.3,5.8-3.3c2.8,0,3.6,1.5,3.6,1.5s-2.6-1.1-5.4,0.1
			C2683.4,195.9,2682.1,196.4,2682.1,196.4z"/>
		<path class="st77" d="M2694,197.8c-0.3,2-0.9,4-1.6,5.9c0.8,0.6,2.4,1.1,3.4,1.4c-3.2,0.1-4.1-1.1-4.2-1.2
			C2691.5,203.9,2692.7,200.2,2694,197.8z"/>
		<path class="st1" d="M2701.6,200.5c0,1.7,2.1,3,4.8,3s4.8-1.3,4.8-3c0-1.7-2.2-3-4.8-3S2701.6,198.9,2701.6,200.5z"/>
		<path class="st1" d="M2685.5,198.9c2,0,3.6,1.3,3.6,2.8c0,1.4-1.3,2.5-3,2.8c-0.6-1.8-1.1-3.7-1.6-5.5
			C2684.9,198.9,2685.2,198.9,2685.5,198.9z"/>
		<path class="st77" d="M2684.1,166.3c0,0-1.3,14.1,11.1,15c12.5,0.9,20.4,7.1,20.4,7.1l5.5,16.6c0,0,2.7-12.8,2.3-22.2
			c-0.4-9.4-13.8-22.5-22.7-23.7C2691.8,158,2684.1,166.3,2684.1,166.3z"/>
		<path class="st5" d="M2713.9,190.7c0,0,0.9-3.1,3.6-2.4c2.7,0.7,1.4,8.7,0,10.1C2716.1,199.8,2711.2,198.7,2713.9,190.7z"/>
		<path class="st1" d="M2714.6,192.3c0,0,1.6-3.8,2.9-2.5c1.3,1.3-0.3,6.9-1.4,6.9C2715,196.6,2714.6,192.3,2714.6,192.3z"/>
		<path class="st77" d="M2702.5,209.5c0.3-0.2,0.2-0.3,0.5,0c1.5,2.1-8.8,4.8-8.8,2.1C2694.2,211.1,2697.6,213,2702.5,209.5z"/>
		<path class="st77" d="M2708,187.8c0,0-4.6-1.7-6.4-1.7c-1.8,0-4.3,2.1-3.9,3.3c0.5,1.2,2.7-2.1,4.2-2.1
			C2703.5,187.4,2708,187.8,2708,187.8z"/>
		<path class="st77" d="M2684,191.8c0,0,1.1-2.7,2.8-3.2c1.8-0.5,4.8,0.8,4.7,2.1c-0.1,1.3-3.2-1.2-4.6-0.8
			C2685.5,190.3,2684,191.8,2684,191.8z"/>
		<path class="st1" d="M2616.9,252.1c0,0-3.3-20.7-4.6-29.7c-1.3-9.1-5.2-10.5-1.2-14.3c0,0,5.2,14.5,6.1,14.1
			c0.9-0.4-3.4-23.7,1.5-25c4.8-1.2,0.9,22,3.2,23c2.3,0.9,2.7-29,6.9-27.3c4.3,1.7-3.9,26-0.1,24.4c3.7-1.6,4.2-3.8,7-5
			c2.8-1.2,11.9,6.2,11,8.3c-0.8,2.1-7.5-2.8-10.7-4.1c-3.2-1.3-5.8,8.8-5.8,11.9c0,3.1,1.2,6.7,5.4,5.7c4.2-1,18.4,3.4,17.2,6.2
			c-1.2,2.8-11-2.6-15.7-0.6c-4.7,2-10.2,3.8-10.1,8.5C2627.2,253,2616.9,252.1,2616.9,252.1z"/>
		<path class="st1" d="M2733.4,244.2c-3.9-0.2-7.3,2.5-8.2,6.3c-3,13.1-2.7,45.4-4.1,54.5c-1.9,12.7-5.8,25.4-5.8,25.4
			s19.7-3.7,25.5-23.6c5.7-19.9,3.8-60.4-2.6-62C2736.5,244.4,2734.9,244.2,2733.4,244.2z"/>
		<path class="st77" d="M2689.1,171.4c0,0,24.5,12.8,26.7,18.7c2.2,5.9,3.9,15.4-1.3,34.3c-5.2,18.9,18.6,26.5,25.7,20.6
			c7.1-5.9,5.7-18.6,0-17.6c0,0-2.7,5.8-7.1,1.3c-4.4-4.4-2.8-21,0.2-31C2738,182.1,2708,145.6,2689.1,171.4z"/>
		<g>
			<path class="st106" d="M2695.4,255l25.8,54.2c0,0,5.7,32.8-15.7,16.8c-2.9-2.2-5-5.4-5.9-8.9l-14.6-57.5L2695.4,255z"/>
			<g>
				<path class="st107" d="M2676.5,232.3c0.9,0.1,1.9-0.1,2.6-0.7c1.5-1.2,1.8-3.3,0.7-4.9l-8.2-10.8c-1.2-1.5-3.3-1.8-4.9-0.7
					c-1.5,1.2-1.8,3.3-0.7,4.9l8.2,10.8C2674.8,231.8,2675.6,232.2,2676.5,232.3z"/>
			</g>
			<g>
				<path class="st107" d="M2666.8,218.3c1.3,0,2.4-0.9,2.7-2.2c0.3-1.5-0.7-2.9-2.2-3.2l-10.1-1.9c-1.4-0.3-2.9,0.7-3.2,2.2
					c-0.3,1.5,0.7,2.9,2.2,3.2l10.1,1.9C2666.4,218.3,2666.6,218.3,2666.8,218.3z"/>
			</g>
			<g>
				<path class="st107" d="M2650.4,224.3c1.1,0.4,2.4,0,3-1.2l3.8-7.4c0.6-1.2,0.1-2.6-1-3.2c-1.2-0.6-2.6-0.1-3.2,1l-3.8,7.4
					c-0.6,1.2-0.1,2.6,1,3.2C2650.2,224.2,2650.3,224.3,2650.4,224.3z"/>
			</g>
			<g>
				<path class="st106" d="M2682.3,240.1c0.5,0,1.1-0.1,1.6-0.4c1.7-0.9,1-3,0.2-4.7l-5.4-13.4c-0.9-1.7-3-2.4-4.7-1.5
					c-1.7,0.9-2.4,3-1.5,4.7l6.8,13.4C2679.8,239.4,2681,240.1,2682.3,240.1z"/>
			</g>
			<g>
				<path class="st106" d="M2671.9,221.5c0.8,0,1.6-0.6,2-1.6c0.5-1.4,0-3-1.1-3.6l-10.6-6.1c-1.1-0.6-2.3,0-2.8,1.4
					c-0.5,1.4,0,3,1.1,3.6l10.6,6.1C2671.3,221.5,2671.6,221.5,2671.9,221.5z"/>
			</g>
			<g>
				<path class="st106" d="M2651.6,217c0.3,0,0.5-0.1,0.8-0.2l6-2.7c0.9-0.4,1.3-1.5,0.9-2.5c-0.4-0.9-1.5-1.3-2.5-0.9l-6,2.8
					c-0.9,0.4-1.3,1.5-0.9,2.5C2650.2,216.6,2650.9,217,2651.6,217z"/>
			</g>
			<path class="st106" d="M2680.5,226l11.6,27.5l-6.5,4.2c0,0-12.1-18.6-12.7-23.1C2672.4,230.1,2680.5,226,2680.5,226z"/>
			<path class="st22" d="M2693.7,257.7c0,2.7-1.7,4.9-3.7,4.9c-2.1,0-3.7-2.2-3.7-4.9c0-2.7,1.7-4.9,3.7-4.9
				C2692,252.8,2693.7,255,2693.7,257.7z"/>
			<g>
				<path class="st106" d="M2656.6,242.9c-0.4,0-0.8-0.2-1-0.4c-0.5-0.6-0.5-1.5,0.1-2l5.6-5.3c0.6-0.5,1.5-0.5,2,0
					c0.5,0.6,0.5,1.5-0.1,2l-5.6,5.3C2657.3,242.8,2656.9,242.9,2656.6,242.9z"/>
			</g>
			<g>
				<path class="st106" d="M2665.4,236.7c-1.2,0-2.3-0.7-2.7-1.9c-0.6-1.5,0.2-3.1,1.7-3.7l11.7-4.4c1.5-0.6,3.1,0.2,3.7,1.7
					c0.6,1.5-0.2,3.1-1.7,3.7l-11.7,4.4C2666.1,236.7,2665.7,236.7,2665.4,236.7z"/>
			</g>
		</g>
		<path class="st5" d="M2676.5,353c0,0,0.5-4.5,2-6.1c1.6-1.6,7.9-2.6,13.2,0.6c5.3,3.2,8.4,2.6,5.5,5.5c-2.9,2.9-10.7-2.3-10.7-2.3
			s11.5,5.1,9.9,8.5c-1.6,3.4-9.4-3.6-11.2-1.8c-1.8,1.8,10.8,4.9,8.6,7.1c-2.2,2.2-12.5-4.7-12.5-2.1c0,2.5,11.4,3.9,7.9,6.1
			c-0.9,0.5-14.9-0.2-16.6-1.9c0,0-1.6-4.4-0.5-6.9c0,0-0.6-2.8,0.5-3.8C2673.8,354.7,2676.5,353,2676.5,353z"/>
		<path class="st5" d="M2788.3,269.2c0,0-0.3,52.6-6.1,63c-4.2,7.5-34.6,34.5-45,43.6l0,0c-3.9,3-7.6,5-7.6,5s-8.7-0.3-13.2,1.3
			c-4.4,1.6-10.9,1.2-10,4.2c0.9,3,6.6,1.4,8.5,0.7c0.7-0.2,1.2,0.1,1.5,0.6c2.7,3.8-4.2,6.3-8.6,7.8c-8.9,3.1-16.6,6.7-14.4,7.9
			c2.2,1.2,17.5-5,20.7-6.2c3.2-1.1-11.8,7.6-17.9,11.5c-6.1,3.9-1.8,5.3,1.4,2.9c3.3-2.4,18.2-11.1,18.6-9.9
			c0.4,1.3-16.3,11.9-15.4,15c0.9,3.1,3.1-0.8,5.7-2.5c2.6-1.8,9.7-9.8,12.1-8.5c0,0-8.2,12.3-6.4,12c0.9-0.1,25.2-21.3,29.1-25
			c19-14.1,61.3-42.9,63.7-47.2c4-7.2,14.9-64.8,14.9-64.8L2788.3,269.2z"/>
		<path class="st1" d="M2816.8,296.2l-28.9-10.7c-0.2,6.4-0.6,14-1.2,21.3c6.7,1.8,17.6,5.1,26,9.2
			C2814.2,309.1,2815.6,302.1,2816.8,296.2z"/>
		<path class="st18" d="M2785.8,237.2c-1.7,10.5-4.8,63.5-4.6,63.5c0,0,38.9,4.6,38.9,4.6c2.7-17,1.7-34-0.3-51.5
			c-1.1-10-2.2-23.7-10.4-30.7C2798.2,213.5,2787.8,224.1,2785.8,237.2z"/>
		<path class="st28" d="M2784.1,239.1c-1.8,13.8-3.5,45.5-2.9,61.6c0-0.3,2.7-26.1,2.5-24.5c3.3-34,2.1-40,6.3-48
			c4.1-7.8,11.2-10.9,19.4-5C2797.6,212.4,2786.3,223.4,2784.1,239.1z"/>
	</g>
	<g>
		<path class="st108" d="M2256,270.3l6-4.2c0,0-15.6-26.6-14-49.6c0.9-12.1-18.3-30-23.4-27.2c-0.3-0.1-17,0.4-18.5,39.9l-3.6,46.4
			l18,16.6c0,0,10.8-12.3,25.2-3.5c14.5,8.9,17.8-8.6,17.8-8.6S2256,274.6,2256,270.3z"/>
		<g>
			<path class="st5" d="M2219.2,692.7c-1.7,1.8,12,35.9,12,35.9l-19.2,5.5l-9.5-39.9L2219.2,692.7z"/>
			<g>
				<path class="st95" d="M2233.2,731.4c4.8,2.9,8.7-1.8,8.7-1.8c-4.7-7.2-7.4-13.7-8.5-15.2c-1.3-1.7-3-4.1-7.4-1.7
					c-4.4,2.4-8.1,7.4-6.4,8.5C2220.8,721.9,2226,727,2233.2,731.4z"/>
				<path class="st93" d="M2203.1,745.5c0,0,11.5,0.1,19.6,0.2c8.1,0.1,20.9,1.1,24.9,1.2c4,0,18.7-8.3,17.8-11
					c-0.9-2.8-14.2-2.2-21-5.4c-6.9-3.2-15.9-12.6-19-12.5c-2.6,0.1-15.9,2.7-18.2,4.8C2204.8,724.7,2201.1,743.6,2203.1,745.5z"/>
				<path class="st94" d="M2262,734.1C2262,734.1,2262,734.1,2262,734.1c-3.1,0.8-8.5,6.3-16.5,8.1c-6.2,1.4-31.7-1.5-42.8-2.9
					c-0.3,3.1-0.3,5.5,0.3,6.1c0,0,11.5,0.1,19.6,0.2c8.1,0.1,20.9,1.1,24.9,1.2c4,0,18.7-8.3,17.8-11
					C2265.1,735,2263.8,734.5,2262,734.1z"/>
				<g>
					<path class="st94" d="M2236.6,734.4c-0.1-0.1-0.1-0.2-0.1-0.4c0.9-4.7,7.3-4.8,7.6-4.8c0.2,0,0.5,0.2,0.5,0.4
						c0.1,0.2-0.1,0.4-0.3,0.4c-0.1,0-6.2,0.2-7,4.4c0,0.2-0.3,0.3-0.5,0.2C2236.8,734.5,2236.7,734.4,2236.6,734.4z"/>
				</g>
				<g>
					<path class="st94" d="M2233.5,731c-0.1-0.1-0.1-0.2-0.1-0.4c0.5-3,7.1-4.5,7.4-4.6c0.2,0,0.5,0.1,0.6,0.3
						c0.1,0.2,0,0.4-0.2,0.5c-1.8,0.4-6.6,1.9-6.9,4.1c0,0.2-0.2,0.3-0.5,0.2C2233.7,731.1,2233.6,731,2233.5,731z"/>
				</g>
				<g>
					<path class="st94" d="M2231.2,728.6c-0.1-0.1-0.1-0.2-0.1-0.3c0-2.8,6.8-4.9,7.5-5.1c0.2-0.1,0.5,0.1,0.6,0.3
						c0.1,0.2,0.1,0.4-0.2,0.5c-2,0.6-7.1,2.6-7.1,4.6c0,0.2-0.2,0.3-0.4,0.3C2231.4,728.7,2231.3,728.7,2231.2,728.6z"/>
				</g>
			</g>
		</g>
		<g>
			<path class="st5" d="M2143.5,679.1c-2.5-0.3-21.5,31.1-21.5,31.1l-15.9-12l26.2-31.6L2143.5,679.1z"/>
			<g>
				<path class="st95" d="M2121,713.5c0.5,5.6,6.7,5.9,6.7,5.9c2.9-8.1,6.5-14.1,7.1-16c0.6-2,1.4-4.8-3.1-6.9
					c-4.5-2.1-10.8-2-10.6,0C2121.2,697.8,2120.2,705.1,2121,713.5z"/>
				<path class="st93" d="M2091.7,697.8c0,0,6.8,9.3,11.6,15.8c4.8,6.5,11.7,17.4,14,20.6c2.4,3.3,17.9,10,19.5,7.6
					c1.7-2.4-6.7-12.7-8.3-20.1c-1.6-7.4,0.6-20.3-1.4-22.7c-1.7-2-11.7-11.1-14.7-11.7C2109.3,686.8,2091.9,695.1,2091.7,697.8z"/>
				<path class="st94" d="M2136.1,738.1C2136.1,738.1,2136.1,738.1,2136.1,738.1c-2.5-2-10.1-3-16.4-8.3
					c-4.9-4.1-17.8-26.3-23.4-35.9c-2.7,1.6-4.6,3.1-4.7,4c0,0,6.8,9.3,11.6,15.8c4.8,6.5,11.7,17.4,14,20.6
					c2.4,3.3,17.9,10,19.5,7.6C2137.3,741.2,2136.9,739.8,2136.1,738.1z"/>
				<g>
					<path class="st94" d="M2120.7,718c0-0.1,0.1-0.3,0.2-0.3c4.3-2.1,8.3,2.9,8.4,3.2c0.1,0.2,0.1,0.5,0,0.7
						c-0.1,0.2-0.4,0.2-0.5,0c0-0.1-3.8-4.8-7.7-3c-0.2,0.1-0.4,0-0.5-0.3C2120.7,718.2,2120.7,718.1,2120.7,718z"/>
				</g>
				<g>
					<path class="st94" d="M2121.5,713.5c0-0.1,0.1-0.3,0.2-0.3c2.7-1.4,7.9,3,8.1,3.2c0.2,0.1,0.2,0.4,0.1,0.6
						c-0.1,0.2-0.3,0.3-0.5,0.1c-1.4-1.2-5.5-4.1-7.4-3.1c-0.2,0.1-0.4,0-0.5-0.2C2121.5,713.7,2121.5,713.6,2121.5,713.5z"/>
				</g>
				<g>
					<path class="st94" d="M2122.1,710.2c0-0.1,0.1-0.2,0.2-0.3c2.2-1.6,8,2.5,8.6,2.9c0.2,0.1,0.2,0.4,0.1,0.6
						c-0.1,0.2-0.3,0.3-0.5,0.2c-1.7-1.2-6.3-4.1-7.9-2.9c-0.2,0.1-0.4,0.1-0.5-0.2C2122,710.5,2122,710.3,2122.1,710.2z"/>
				</g>
			</g>
		</g>
		<g>
			<path class="st1" d="M2517.2,292.8c3.2-5.2,9.4-18.3,9.3-19.1c-0.3-1.7-8.3,9.2-8.3,9.2c-1.9-1.9,2.8-10.6,3.6-13.5
				c0.7-2.9,3.4-5.9,0.5-5.9c-2.9,0-6.9,18.3-8.1,18.3c-1.2,0,1.7-16.1,2.8-19.8c1.1-3.7-1.4-7.2-2.9-0.5
				c-1.5,6.7-4.4,22.9-4.4,19.6c0-3.2,0.8-19-1-20.7c-1.7-1.7-2.4,6.4-2.4,15.4c0,4.3-0.4,6.8-0.8,8.2c-0.4,1.4-1.9,2.3-3.3,1.8
				c-0.5-0.2-0.9-0.6-0.9-1.2c0-1.9-0.4-7.6-3.2-7.6s-0.6,5.8-0.6,10.3c0,4.5,2.8,12.5,2.8,12.5s-0.6,5.5-5.9,17.3
				c3.7,1.3,7.1,2.9,10.5,4.9C2510.3,308.2,2514.7,296.9,2517.2,292.8z"/>
			<path class="st29" d="M2495.1,303c0,0-23,55.2-40.8,66.7c-17.8,11.5-48.8,46.7-69.5,47.5c0,0,21.4,36.6,29.1,34.1
				c7.6-2.5,66.6-58.8,75.5-67.8c8.9-8.9,23.6-73,23.6-73L2495.1,303z"/>
		</g>
		<path class="st109" d="M2228.3,708.9c-4.6-25.3,11.3-88,20.9-115.6c10-28.7,16.4-150.1,16.4-150.1l-11.4-13.3l-46.4-2.8
			c0,0,19.8,60.8,19.8,81.7c0,20.9-15.7,71.4-27,99.5c-10.4,25.9,0,83.6,3.1,101.4C2212.2,711,2220.1,710.5,2228.3,708.9z"/>
		<path class="st110" d="M2196.1,432.7c-2.1,2.1-14.6,16.9-14.6,27.3c0,10.3,23.5,103.5,17.9,109.1c-5.6,5.6-58.6,34.2-64.9,54.2
			c-6,19.1-14.1,49.7-20.1,57.9c5.7,9.5,17.5,9.2,27.2,12.4c1.6-8.5,2.1-8.3,7.7-19.5c12.5-24.8,73.8-69,82.5-86.5
			c8.7-17.6,13.4-97.8,17.8-108.5c4.4-10.7,16.1-37.7,16.1-37.7L2196.1,432.7z"/>
		<path class="st1" d="M2263.9,364.1c0,0,28.7,32.8,60.4,45.1c5,1.9,9.2,5.7,9.2,5.7c0,3.3-6.7-0.6-6.7-0.6s2.7,4.8,1.7,8.8
			c-1,4-8,1.3-11.7,1.3c-1.7,0-10.6-9.9-22.5-15.7c-14.1-6.9-30.8-13.7-32.8-15.7C2257.6,389.2,2262.8,362.9,2263.9,364.1z"/>
		<path class="st111" d="M2205.6,271.9c0,0,28.8-2.9,43.9,6.7c15,9.6,24.7,43.9,24.7,58.5c0,14.6-10.9,91.6-6.7,106.2
			c0,0-47.7-2.1-64-2.1c-16.3,0-19.7-6.3-19.7-6.3s33.9-33.4,33.9-48.1C2217.7,372.2,2205.6,271.9,2205.6,271.9z"/>
		<g>
			<g>
				<path class="st112" d="M2391.9,632.6h-10.3V436.4c0-6.6-6.5-12-14.4-12h-92.5c-2.5,0-4.5-1.9-4.5-4.3l0,0c0-2.4,2-4.3,4.5-4.3
					h92.5c13.6,0,24.7,9.2,24.7,20.6V632.6z"/>
			</g>
			<path class="st112" d="M2576.3,640.6h-18.2V583h-5.4v28.6H2517v-51c0-20.1-17.5-37.8-37.4-37.8H2433v8.9h46.6
				c16.7,0,29.2,15.2,29.2,28.9v51h-54.2v8.9h98.1v20.1h-7.4v5.9h7.4v18h-7.4v5.9h7.4v15.6c-13.9,1.5-24.7,14.3-24.7,29.9
				c0,16.6,12.3,30.1,27.4,30.1c15.1,0,27.4-13.5,27.4-30.1c0-15.6-10.8-28.4-24.7-29.9v-15.6h35.9v45.6h5.4V666
				C2599.5,652,2589.1,640.6,2576.3,640.6z M2558.2,646.6h18.2c9.3,0,17,8,17.7,18h-35.8V646.6z"/>
			<g>
				<path class="st112" d="M2440.1,591.4c-34.3,0-62,28.1-62,62.7s27.8,62.7,62,62.7c34.3,0,62-28.1,62-62.7
					S2474.4,591.4,2440.1,591.4z"/>
				<path class="st112" d="M2440.1,577.8c-41.7,0-75.5,34.2-75.5,76.4c0,42.2,33.8,76.4,75.5,76.4c41.7,0,75.5-34.2,75.5-76.4
					C2515.6,612,2481.8,577.8,2440.1,577.8z M2440.1,723.3c-37.8,0-68.4-30.9-68.4-69.1c0-38.2,30.6-69.1,68.4-69.1
					c37.8,0,68.4,30.9,68.4,69.1C2508.5,692.3,2477.9,723.3,2440.1,723.3z"/>
			</g>
			<rect x="2360.1" y="449.3" class="st113" width="30.4" height="117.8"/>
			<g>
				<path class="st114" d="M2540.8,716.1h-5.9V666c0-10.7-8.6-19.4-19.2-19.4h-33.7v-5.9h33.7c13.8,0,25.1,11.4,25.1,25.4V716.1z"/>
			</g>
			<rect x="2500.7" y="574.7" class="st115" width="79.8" height="13.7"/>
			<g>
				<rect x="2482.1" y="664.6" class="st114" width="55.8" height="5.9"/>
			</g>
			<g>
				<rect x="2383.6" y="611.6" class="st114" width="109.5" height="8.9"/>
			</g>
			<rect x="2360.1" y="574.5" class="st116" width="142.5" height="13.9"/>
			<g>
				<path class="st114" d="M2364.6,643.1h-8.8V446.9c0-6.6-5.5-12-12.4-12h-83.1v-8.6h83.1c11.7,0,21.2,9.2,21.2,20.6V643.1z"/>
			</g>
			<path class="st117" d="M2526.2,716.1c0,16.6-14.8,30.1-33.1,30.1c-18.3,0-33.1-13.5-33.1-30.1c0-16.6,14.8-30.1,33.1-30.1
				C2511.4,686,2526.2,699.5,2526.2,716.1z"/>
			<path class="st118" d="M2513.2,716.1c0,10.1-9,18.3-20.1,18.3c-11.1,0-20.1-8.2-20.1-18.3c0-10.1,9-18.3,20.1-18.3
				C2504.2,697.8,2513.2,706,2513.2,716.1z"/>
			<path class="st114" d="M2493.6,731.8h-1.4c-3.9,0-7-3.1-7-7v-21.6h15.4v21.6C2500.6,728.7,2497.5,731.8,2493.6,731.8z"/>
			<g>
				<g>
					<path class="st119" d="M2566.5,700.9c0,0,14.7-0.5,24.9-0.9c10.3-0.4,26.7,0.2,31.8,0c5.1-0.2,23.3-13,21.9-16.9
						c-1.4-3.9-18.2-2.3-27.2-6.4c-9-4.1-25.5-17.7-27.8-15.3c-2.2,2.4-17.3,3.6-20.2,6.7C2567.3,671.1,2563.8,698.4,2566.5,700.9z"
						/>
					<path class="st27" d="M2560.5,711.4c0,0,14.7-0.6,24.9-0.9c10.3-0.4,26.7,0.2,31.8,0c5.1-0.2,23.3-13,21.9-16.9
						c-1.4-3.9-18.2-2.3-27.2-6.4c-9-4.1-25.5-17.7-27.8-15.3s-17.3,3.6-20.2,6.7C2561.3,681.7,2557.9,708.9,2560.5,711.4z"/>
					<path class="st28" d="M2564,704.5c40.7-8,29.5,4.9,69.2-7.8c-9.6,4.3-23.9,8.8-34.3,7.1c-5.7-0.9-11.5-0.7-17.4-0.5
						C2575.6,703.5,2569.8,704,2564,704.5z"/>
					<g>
						<path class="st28" d="M2591.1,692.5c0.6,0.7,1.6,0.7,2.2,0.1c2.2-2.1,7.2-6.2,12.1-9.1c-1-0.6-2-1.3-3-1.9
							c-5.8,3.7-10.9,8.3-11.2,8.7C2590.6,690.8,2590.5,691.8,2591.1,692.5z"/>
						<path class="st28" d="M2588.6,686c0.8,0.4,1.7,0.1,2.1-0.7c0-0.1,2.1-4,5.6-7.8c-0.9-0.6-1.8-1.2-2.7-1.8
							c-3.6,4-5.6,7.8-5.7,8.1C2587.5,684.6,2587.8,685.6,2588.6,686z"/>
					</g>
				</g>
				<path class="st120" d="M2580.5,523.2c-14.9-18-149.6-5.4-149.6-5.4s112.9,27.6,119.5,31.2c6.6,3.6,41,125.1,41.1,126.7
					c6.8-1.6,13.7-3.8,20.7-5.2C2606.6,650.1,2594.4,540.1,2580.5,523.2z"/>
				<path class="st121" d="M2410.1,545.3c0,0,1.2,30.3,11.2,30.7s67.9-6.8,96.3-18.8c0,0-0.3,27.7,5.3,40.1
					c5.5,12.4,36.7,92.5,36.7,92.5l36.7-12.9c0,0-16.5-69.6-22.3-96.7c-5.8-27.1-20.3-59.2-35.6-59.7c-15.3-0.6-107.3-6.8-107.3-6.8
					L2410.1,545.3z"/>
				<path class="st122" d="M2383,403.8c0,0-16.3,4.1-14.1,36.1c2.2,31.9,19.8,128.5,52.4,136.1c32.6,7.6,53.8-61.2,53.8-61.2
					s-20.6-6.8-29.1-38.7c-5.9-22.1-21.8-72.1-25.8-74.5C2410.3,395.6,2383,403.8,2383,403.8z"/>
				<path class="st114" d="M2451.3,618.5h-8.8v-57.9c0-13.6-13.6-28.9-31.8-28.9h-50.6v-8.9h50.6c21.6,0,40.6,17.7,40.6,37.8V618.5z
					"/>
			</g>
			<path class="st123" d="M2431.4,662.4c0,39.8-31.9,72-71.3,72c-39.3,0-71.3-32.2-71.3-72c0-39.8,31.9-72,71.3-72
				C2399.5,590.4,2431.4,622.6,2431.4,662.4z"/>
			<path class="st124" d="M2360.1,574.7c-47.9,0-86.8,39.3-86.8,87.7c0,48.4,38.8,87.7,86.8,87.7c47.9,0,86.8-39.3,86.8-87.7
				C2446.9,614,2408.1,574.7,2360.1,574.7z M2360.1,741.8c-43.4,0-78.5-35.5-78.5-79.4c0-43.8,35.2-79.4,78.5-79.4
				c43.4,0,78.5,35.5,78.5,79.4C2438.7,706.2,2403.5,741.8,2360.1,741.8z"/>
			<path class="st125" d="M2418.9,662.4c0,32.8-26.3,59.4-58.8,59.4c-32.5,0-58.8-26.6-58.8-59.4c0-32.8,26.3-59.4,58.8-59.4
				C2392.6,603,2418.9,629.6,2418.9,662.4z"/>
			<path class="st118" d="M2373.4,662.4c0,7.4-5.9,13.4-13.2,13.4c-7.3,0-13.2-6-13.2-13.4c0-7.4,5.9-13.4,13.2-13.4
				C2367.4,649,2373.4,655,2373.4,662.4z"/>
			<rect x="2532.5" y="709.7" class="st115" width="89.7" height="15.6"/>
			<rect x="2532.5" y="709.7" class="st126" width="50.9" height="15.6"/>
			<g>
				<rect x="2490.2" y="588.3" class="st114" width="5.9" height="137"/>
			</g>
			<path class="st118" d="M2496.6,717.9c0,2-1.6,3.7-3.6,3.7c-2,0-3.6-1.6-3.6-3.7c0-2,1.6-3.7,3.6-3.7
				C2495,714.2,2496.6,715.8,2496.6,717.9z"/>
		</g>
		<g>
			<path class="st1" d="M2381.8,359.9c-1,0-3.3-2.1-4,0c-0.7,2.1,4.7,14.7,7.9,11.4C2388.9,368.1,2381.8,359.9,2381.8,359.9z"/>
			<path class="st5" d="M2417.2,365.5l-27.7,7.3c0,0,0.3,20.1,0.3,29.2c0,0,17.7,13.4,31,0L2417.2,365.5z"/>
			<path class="st1" d="M2417.6,375.3c0.1-0.7,0.2-1.5,0.3-2.3l-0.7-7.4l-27.7,7.3c0,0,0.1,5.5,0.1,12.2c4.1,6.2,10.2,9.5,12.2,9.5
				C2404.3,394.6,2415.7,388,2417.6,375.3z"/>
			<path class="st5" d="M2389,335.5c0,0-11.3,1.3-11.3,5.2c0,4,1,15.9,3.8,20.9c2.7,5,2.5,8.3,6.3,16.1c3.8,7.7,11.7,11.9,14.1,11.9
				s13.9-6,15.7-17.7c1.9-11.7,0.8-36.3-5-38.6C2406.8,330.9,2389,335.5,2389,335.5z"/>
			<path class="st44" d="M2390.7,311.4c0,0-10.8,4.7-11.9,11.7c-1.1,7-6.5,10.7-6.7,13.8c-0.8,11.5,7.9,20.8,7.9,20.8
				s-4-16.6,0.2-19.1c4.2-2.5,11-0.2,13-0.2c2,0,7.2-5.2,10-5.5c2.8-0.2,10,1.2,10,6.4c0,5.2,5.2,15.2,5.2,15.2s2.3-6.7,2.3-14.4
				c0-7.7-3.9-9.9-4.8-16.1c-0.9-6.3-18.1-5-20.2-5c-2,0-0.2-5.3,0.7-6.3c0.9-0.9-2.9,0-2.9,0l5.3-2.7L2390.7,311.4z"/>
			<path class="st43" d="M2378.5,331.8c0,0,7.2-3,8.2-10c1-7,4.3-8,4.3-8s-3.6,7.7-2.1,11.6C2390.5,329.4,2378.5,331.8,2378.5,331.8
				z"/>
			<path class="st43" d="M2385.7,317.2c0,0-5.4,2.9-5.4,6.8c0,3.9,0,3.9,0,3.9L2385.7,317.2z"/>
			<path class="st43" d="M2392.3,320.2c0,0,1.3,4.3,5.8,4.3s8.6-3,12.8,1.3c0,0-2.2-4-5.8-4C2401.5,321.9,2394.8,323.2,2392.3,320.2
				z"/>
			<path class="st5" d="M2419,349.9c3.5-1.3,3.5,15.6-1.4,15.6C2414.5,365.5,2416.6,350.8,2419,349.9z"/>
			<path class="st1" d="M2417.3,355.7c0,0,1.6-4.5,2.3-3.2c0.7,1.4-0.8,11.4-2.3,11.4S2417.3,355.7,2417.3,355.7z"/>
			<path class="st44" d="M2389.4,357.7c0.3,1-0.3,2.1-1.3,2.4c-1,0.3-2.1-0.3-2.4-1.3c-0.3-1,0.3-2.1,1.3-2.4
				C2388.1,356.1,2389.1,356.7,2389.4,357.7z"/>
			<path class="st44" d="M2407.6,354.5c0.3,1-0.3,2.1-1.3,2.4c-1,0.3-2.1-0.3-2.4-1.3c-0.3-1,0.3-2.1,1.3-2.4
				C2406.2,352.9,2407.3,353.5,2407.6,354.5z"/>
			<path class="st44" d="M2390.5,352.2c0,0-3.2-1.9-6.5-1.1c-3.4,0.8-3.7,3.4-3.7,3.4s2.4-1.8,5.1-1.8
				C2388.1,352.7,2389.7,355.2,2390.5,352.2z"/>
			<path class="st44" d="M2400.1,349.4c0,0,3.2-1.9,6.5-1.1c3.4,0.8,3.7,3.4,3.7,3.4s-2.4-1.8-5.1-1.8
				C2402.4,349.9,2400.8,352.4,2400.1,349.4z"/>
			<path class="st44" d="M2397,368c0.1-2,0-3.9-0.6-5.9c-0.8,3-0.5,5.7-0.5,7c0.7-0.1,2.2,0,4.1-0.6C2399,368.3,2398,368.1,2397,368
				z"/>
			<g>
				<path class="st44" d="M2399.5,378.4c-1.5,0-2.9-0.3-3.9-0.7c-0.4-0.2-0.6-0.6-0.4-1c0.2-0.4,0.6-0.6,1-0.4
					c0.3,0.1,6.2,2.4,8.8-2.6c0.2-0.4,0.7-0.5,1.1-0.3c0.4,0.2,0.5,0.7,0.3,1.1C2404.8,377.4,2402,378.4,2399.5,378.4z"/>
			</g>
		</g>
		<path class="st5" d="M2305.7,420.3c-3.4-3.4-19.4-8.8-31.6-17.6c-5.4-3.9-15.7-9-25.7-14.6c-7.3,4.1-14,9.2-18.9,15.3
			c18.1,8.4,37.8,16.8,40.8,19.8c5.6,5.6,15.5,18.4,17.8,18.4c2.3,0,19.8-5.1,22.4-7.7C2313.1,431.2,2309.1,423.7,2305.7,420.3z"/>
		<path class="st127" d="M2248.4,388.2c-12.6-7-24.9-14.7-26.1-21.6c-2.3-12.3,8.2-65.6,2.3-75.9c-5.9-10.2-19-18.8-19-18.8
			c-2.1,0-9.6,4.6-11.7,13.8c-2.1,9.2,1.7,92,3.8,99.5c1,3.5,15.3,17.6,31.4,25C2233.9,404,2241.1,392.2,2248.4,388.2z"/>
		<path class="st5" d="M2378.8,499.8l50.4,13.2c0,0,14.8,10.7,21.5,12.8c6.7,2.1,14.8,9.5,13.2,11.7c-1.6,2.3-10-5.4-11.3-5.2
			c-1.4,0.2,4.9,9.3,5.9,15.3c1,6,3.1,11.7-0.3,11.3c-3.4-0.5-5.9-13.9-5.9-13.9s-5.2-10.1-6.1-8.9c-0.8,1.2,3.5,8.2,3.5,8.2
			s1,7.5,1.5,10.2c0.3,2-1.5,7.9-3,5.7c-0.9-1.3-0.5-6.2-1.5-9c-2.2-5.7-5.7-10.3-5.7-10.3s3.8,17.2,1.4,17.6
			c-2.4,0.4-4.8-13.8-4.8-13.8s-5.8-11.8-8.4-12.9c-2.5-1.1-9.5-5.6-14.9-7.4c-5.4-1.9-27.7,4.3-37.7,4.4c-10,0.1-26.1-6-27.5-13.9
			c-0.4-2.4,1.1-5,3.3-7.6C2359,500.1,2369.2,497.3,2378.8,499.8z"/>
		<path class="st29" d="M2383,403.8c0,0-15.3-2.7-29.1,22.2c-13.8,24.9-4.9,89-4.9,89l29.7-15.2L2383,403.8z"/>
		<path class="st5" d="M2235.7,239.9c0.7,0.8,0.8,22.5,3.7,28.6c0,0,7.7,31.2,2.5,31.8c-4.5,0.6-20.9-25.1-21.8-29.4
			c-1.2-5.8,0-34.7,0-34.7L2235.7,239.9z"/>
		<path class="st1" d="M2236.6,250.4c-6.2,4.5-12.1,1.4-16.9-6.1c0-0.1,0-0.2,0-0.3c0.1-4,0.3-7.7,0.3-8l15.7,3.8
			C2236.1,240.2,2236.2,244.9,2236.6,250.4z"/>
		<path class="st5" d="M2236.5,190.9c0,0,8.7,1.7,9.8,9.5c1,7.8,2.5,14.3,1,23.3c-1.5,9.1-6.7,21.2-15.2,23.1
			c-8.5,1.9-17.5-12.8-17.5-20.8c0-8-3.1-21.4,2.7-29.6C2223.2,188.3,2236.5,190.9,2236.5,190.9z"/>
		<g>
			<path class="st16" d="M2226.7,232.8c4.6,2.1,11.4,2.1,11.4,2.1s-0.5,1-1.3,2c-2-0.1-5.9-0.5-9.1-1.7
				C2227,233.9,2226.7,232.8,2226.7,232.8z"/>
			<path class="st128" d="M2227.7,235.3c3.2,1.2,7.1,1.6,9.1,1.7C2233.5,241,2230,240,2227.7,235.3z"/>
		</g>
		<path class="st1" d="M2236.5,190.9c0,0,8.7,1.7,9.8,9.5c0.9,7.1,2.2,13,1.4,20.9c-1.4-1-3.4-2-6.1-3c-9.5-3.3-18.1-22.4-18.4-23.2
			l-0.2-0.3l0-0.4c0-0.8,0-1.6,0.3-2.4C2229.3,189.5,2236.5,190.9,2236.5,190.9z"/>
		<g>
			<path class="st4" d="M2236.6,227.6c-0.2-2.5-0.4-5-0.4-7.5c0.5,3.2,0.7,5.5,0.8,7.8c-1.3,0.4-2.8,1.1-4.7,0.3
				C2233.8,228.5,2235.3,228.1,2236.6,227.6z"/>
		</g>
		<path class="st4" d="M2231.9,219.9c-0.4-1.4-1.6-2.8-3.2-3.2c-2.9-0.8-4.6,3.5-6.6,3.5c1.4,0.8,3.7-1.7,5.2-2.4
			c0.8-0.4,1.6-0.1,2.4,0.3C2230.5,218.4,2231.2,219.1,2231.9,219.9z"/>
		<path class="st4" d="M2226.7,218.6c0,0.9,0.6,1.6,1.4,1.6c0.8,0,1.4-0.7,1.4-1.6c0-0.9-0.6-1.6-1.4-1.6
			C2227.3,216.9,2226.7,217.7,2226.7,218.6z"/>
		<path class="st4" d="M2238.2,220.8c0.5-1.4,1.7-2.7,3.4-3.1c2.9-0.6,4.4,3.7,6.4,3.8c-1.4,0.7-3.6-1.9-5.1-2.6
			c-0.8-0.4-1.6-0.2-2.4,0.2C2239.7,219.4,2238.9,220,2238.2,220.8z"/>
		<path class="st4" d="M2243.5,219.7c0,0.9-0.7,1.6-1.5,1.6c-0.8,0-1.4-0.8-1.3-1.7c0-0.9,0.7-1.6,1.5-1.6
			C2242.9,218.1,2243.5,218.8,2243.5,219.7z"/>
		<path class="st4" d="M2232.9,212.9c0.3-0.2-2.2-2.8-5.2-3.1c-3-0.3-6.2,3.1-6.2,3.1s4.4-2.7,6.3-1.8
			C2229.6,212,2231.2,214.1,2232.9,212.9z"/>
		<path class="st1" d="M2228.9,225.7c-0.4,1.2-2.5,1.5-4.7,0.8c-2.2-0.8-3.7-2.3-3.3-3.5c0.4-1.2,2.5-1.5,4.7-0.8
			C2227.8,222.9,2229.2,224.5,2228.9,225.7z"/>
		<path class="st1" d="M2246.6,225.1c0.2,1.1-1.3,2.3-3.2,2.6c-1.9,0.3-3.6-0.4-3.8-1.5c-0.2-1.1,1.3-2.3,3.2-2.6
			C2244.7,223.3,2246.4,224,2246.6,225.1z"/>
		<path class="st17" d="M2228.8,184.3c-6.4,0.8-16.5-0.9-21.2,9.9c-2.8,6.1-8.5,18-8.5,39c0,31.3-29.1,45.2-29.1,45.2l12.8,6.4
			l7.6-6.4l-5.2,11.5l20.9,2.2l0.9-15l4.3,17.1l12.6-2.1c0,0-6.6-51.2-7.1-70.6c0.1,0.1,0.1,0.1,0.1,0.1c-0.2-15-0.8-23,7.9-27.3
			c4.6-2.3,21,4.2,21,4.2C2245.3,188.6,2235.2,183.6,2228.8,184.3z"/>
		<path class="st74" d="M2237.3,186.1c8,1.8,10.4,14.6,17,21.5c6.6,6.8,4.9,16.6,1.8,23.1c-3.1,6.5-8.1,2.3-8.1,2.3s2.6,1.5,4.3-3.9
			c1.7-5.4-1.2-9.6-10.1-12.6c-8.8-3-17.3-22.2-17.3-22.2C2224.7,190.5,2229.3,184.3,2237.3,186.1z"/>
		<path class="st129" d="M2248,233c3,1.8,7.3-5.9,4.2-10.9c-2.3-3.9-7.3-5.5-11.2-7.3c-6.3-3.8-12.4-14.2-16.1-20.5
			c2.7,7.6,8.3,18.1,15.1,22.3l1.6,0.7c1.7,0.7,6.8,2.1,9.3,5.6c2,2.7,1,6.9-0.3,8.9C2250.1,232.7,2249.1,233.4,2248,233z"/>
		<path class="st5" d="M2218.6,222.6c0,0-2.2-10-5.9-7.6c-3.7,2.4,0.3,13.5,3.7,13.5C2219.9,228.5,2218.6,222.6,2218.6,222.6z"/>
		<path class="st1" d="M2215,217.1c0,0,5.5,9.1,1.7,8.1C2213,224.2,2211.5,215.4,2215,217.1z"/>
		<path class="st5" d="M2307.2,416.7c0,0,6,8.6,7.8,8.6s11.2,0.6,12.7-0.9c1.5-1.5-5.3-12.6-7.7-12.6c-2.4,0,2.9,7.4,2.2,8
			c-0.6,0.6-5.9-11.6-8.6-10.5c-2.7,1.2,5.2,9.7,4.3,10.6c-0.9,0.9-6.5-9.7-8.7-9.7c-2.2,0,5.1,9.6,4.4,10.4
			C2312.9,421.3,2308.3,415.7,2307.2,416.7z"/>
	</g>
</g>
</svg>
