<?xml version="1.0" encoding="utf-8"?>
<!-- Generator: Adobe Illustrator 24.2.3, SVG Export Plug-In . SVG Version: 6.00 Build 0)  -->
<svg version="1.1" id="Capa_1" xmlns="http://www.w3.org/2000/svg" xmlns:xlink="http://www.w3.org/1999/xlink" x="0px" y="0px"
	 viewBox="0 0 250 250" style="enable-background:new 0 0 250 250;" xml:space="preserve">
<style type="text/css">
	.st0{fill:#0066CC;}
	.st1{fill:#006600;}
</style>
<g>
	<path class="st0" d="M142.5,14.2c2.5,0.7,4.9,1.1,7.3,2.1c10.3,4,17.2,14.2,17.4,25.2c0,1.5-0.4,2.7-1.9,3.2
		c-1.9,0.7-3.5-0.7-3.6-2.9c-0.2-4.9-1.6-9.2-4.5-13.2c-5.7-7.5-15.3-10.6-24.2-7.9c-9.1,2.7-15.2,10.8-15.9,20.5c0,0.4,0,0.8-0.1,1
		c-0.2,1.6-1.3,2.6-2.8,2.5s-2.5-1.1-2.6-2.7c-0.1-6.3,1.9-12,5.7-17c4.5-5.9,10.5-9.3,17.8-10.6c0.4-0.1,0.7-0.2,0.9-0.4
		C138.3,14.2,140.5,14.2,142.5,14.2z"/>
	<path class="st0" d="M92.5,114.9c2.6-2.5,5.2-4.6,8.7-5.3c5.5-1.1,10.2,0.5,14,4.6c3.3,3.7,6.3,7.6,9.5,11.4c0.9,1.2,2,2.3,3.7,1.7
		c1.9-0.7,1.9-2.2,1.9-3.8c0-26.1,0-52.3,0.1-78.4c0-1.6,0.2-3.3,0.7-4.9c1.4-4.3,5.4-6.9,9.6-6.4c4.1,0.5,7.6,4.2,8,8.5
		c0.1,1,0.1,2,0.1,3c0,22.4,0,44.7,0,67c0,0.6,0,1.2,0,1.8c0.2,1.7,1.4,2.8,2.9,2.7s2.5-1.2,2.6-2.8c0-0.5,0-0.9,0-1.4
		c0-6.6,0-13.1,0-19.7c0-5.7,3.9-9.7,9.1-9.8c5.3,0,9.3,4.1,9.4,9.6c0.1,5.9,0,11.7,0,17.6c0,0.5,0,0.9,0,1.4c0.1,1.9,1.1,3,2.7,3
		c1.6,0,2.7-1.1,2.7-3c0-4.6,0-9.2,0-13.9c0-1,0-2,0.2-3c0.9-4.9,5.1-8.2,9.4-7.8c4.6,0.4,8.3,4.5,8.4,9.6c0.1,4.8,0,9.5,0.1,14.3
		c0,1.7,1.1,2.9,2.7,2.9c1.4,0,2.5-1,2.7-2.6c0.1-0.7,0-1.3,0-2c0-2.5-0.1-4.9,0.2-7.3c0.6-5.8,6.4-9.6,11.9-7.9
		c3.5,1,6.1,4.3,6.5,8c0.1,0.8,0.1,1.5,0.1,2.3c0,19.4,0,38.9,0,58.3c0,10.9-4.1,20-12.7,26.8c-5,4-10.9,5.9-17.3,5.9
		c-12.6,0-25.1,0-37.6,0c-11.9,0-20.9-5.4-26.5-15.7c-7.8-14.3-15.1-28.9-22.7-43.3C100.1,129.5,96.3,122.3,92.5,114.9z"/>
</g>
<g>
	
		<image style="overflow:visible;enable-background:new    ;" width="199" height="199" xlink:href="FBA4F36E.png"  transform="matrix(1 0 0 1 -29 69)">
	</image>
</g>
<g>
	<path class="st1" d="M101,199.8c-3.6-26-7.2-51.7-10.8-77.7c-17,19.9-33.9,39.7-50.9,59.6c1.7-0.1,3.2-0.2,4.7-0.4
		c5.6-0.5,11.2-0.9,16.8-1.4c1.4-0.1,2.7-0.2,4.1-0.3c1.7-0.1,2.5,0.9,2,2.6c-2.1,7-4.2,14.1-6.3,21.1c-0.9,2.9-1.7,5.8-2.6,8.7
		c3,0.9,5.9,1.8,9,2.7c0.1-0.4,0.3-0.8,0.4-1.2c2.9-9.7,5.7-19.4,8.6-29.1c0.6-2.1,1.7-2.5,3.4-1.1c6.8,5.2,13.6,10.4,20.4,15.6
		C100.1,199.2,100.5,199.5,101,199.8z"/>
</g>
</svg>
