<?xml version="1.0" encoding="utf-8"?>
<!-- Generator: Adobe Illustrator 24.2.3, SVG Export Plug-In . SVG Version: 6.00 Build 0)  -->
<svg version="1.1" id="Capa_1" xmlns="http://www.w3.org/2000/svg" xmlns:xlink="http://www.w3.org/1999/xlink" x="0px" y="0px"
	 viewBox="0 0 250 250" style="enable-background:new 0 0 250 250;" xml:space="preserve">
<style type="text/css">
	.st0{fill:#0066CC;}
	.st1{fill:#006600;}
</style>
<g>
	<path class="st0" d="M120,182.7c-2.2-2.1-2.3-3.3-0.2-5.5c8-8.3,12.6-18,13.7-29.5c0-0.3,0-0.5,0.1-0.8c0-0.1,0-0.2-0.1-0.5
		c-0.5,0-1.1-0.1-1.6-0.2c-5.5-0.2-11.1-0.3-16.6-0.4c-7.8-0.3-12.8-5.4-12.8-13.2c0-4.1-0.1-8.4,0-12.5c0.1-1.6-0.4-2.2-1.9-2.6
		c-4.7-1.4-7.9-4.4-9.1-9.2c-0.8-2.8-0.3-5.7,0.9-8.4c3.9-9.6,7.9-19.2,11.7-28.8c1.2-3,1.6-6.4,2.6-9.5
		c3.5-12.8,9.8-23.9,20.1-32.4c10.7-8.8,23.1-12.6,36.9-12.5c32.6,0.2,60.7,23.2,66.9,55.3c4.1,20.9-0.7,39.6-14.5,56
		c-3.9,4.7-7.7,9.6-10.9,14.7c-5.8,9-5.6,18.8-2.8,28.8c0.7,2.2,1.5,4.5,2.2,6.7c0.9,2.4,0.6,3.2-1.5,4.7c-8.7,0-17.5,0-26.3,0
		c0.4-0.6,0.8-1.3,1.2-1.9c6.4-9.8,9.1-20.4,6.5-32c-1.2-5.4-2.9-10.7-4.3-16.1c-1.5-5.7-1.1-11.2,2.2-16.4c1-1.6,2.2-2.8,4.3-2.5
		c0.9,0.2,1.9-0.2,2.9-0.3c12.8-1.2,22.8-9.3,26.4-21.6c3.9-13.1,1.7-25.6-4.7-37.4c-8.7-16.1-24.9-25.4-44.9-21.2
		c-0.8,0.2-1.6,0.1-2.3-0.1c-14.9-3.5-28.5,2.6-35.6,16.1c-0.3,0.5-0.7,1.1-1.2,1.4c-5.5,3.6-8.6,8.6-9.7,15.1
		c-0.3,2.4-0.3,4.9-0.9,7.3c-1.4,6.6-0.9,13,3.1,18.6c6.1,8.4,14.8,11,24.5,9.1c3.6-0.7,6.2-0.4,8.8,2.1c0.9,0.9,1.4,1.6,1.5,2.8
		c0.2,6.8,3,12.3,8.5,16.3c3,2.2,6.4,3.7,9.6,5.6c0.5,0.3,1,0.8,1.1,1.3c1.3,4.9,2.4,9.8,3.7,14.8c1.4,5.1,2.6,10.2,2.2,15.5
		c-0.5,8.4-4,15.5-9.1,22c-0.3,0.4-0.5,0.9-0.8,1.3C153.3,182.7,136.6,182.7,120,182.7z"/>
	<path class="st0" d="M212.4,79c0,5-0.8,9.8-2.9,14.3c-4.7,10.2-13.2,14.5-24.1,14.9c-10.9,0.3-20.4-3.5-29-9.8
		c-1.6-1.1-3-2.2-4.5-3.5c-1.3-1-2.5-1.2-4.1-0.6c-4.1,1.6-8.4,2.1-12.7,1c-9.6-2.2-14.9-10.4-13-20.1c0.5-2.9,0.7-6,1.2-9
		c0.9-5,3.5-8.9,7.9-11.5c0.8-0.4,1.5-1.3,1.9-2.1c5.9-12.1,17.6-17.5,30.6-14.1c0.9,0.3,1.8,0.3,2.7,0.2
		c20.5-4.9,36.2,6.6,42.9,23.7C211.3,68,212.4,73.4,212.4,79z M160,50.9c-6.2,0-11.5,5.3-11.4,11.4c0,2,1.4,3.3,3.2,2.9
		c1.7-0.3,2.2-1.6,2.3-3.3c0.3-3,2.7-5.4,5.6-5.4c2.8-0.2,5.5,1.8,6.1,4.7c0.6,2.7-0.5,5.1-3.3,6.7c-3.4,2.1-5.3,4.9-5.3,8.9
		c0,1.6,1,2.8,2.5,2.8c1.4,0.1,2.8-0.9,2.8-2.3c0.2-2.6,1.6-4,3.7-5.3c4.4-2.8,6.2-8.1,4.7-13C169.5,54.2,165.1,50.9,160,50.9z
		 M189.7,84.9c7.4,0.3,13-5.4,12.4-12.5c-0.3-4.7-3.9-8.9-8.5-10.2c-4.6-1.2-9.7,0.6-12.3,4.4c-1,1.5-0.9,3.1,0.3,4.1
		c1.2,0.9,2.8,0.8,4-0.6c0.3-0.3,0.4-0.6,0.7-0.9c1.8-1.8,4.1-2.2,6.4-1.4c2.3,0.9,3.8,3,3.9,5.5c0.1,3.6-2.9,6.3-6.8,6.1
		c-3.9-0.3-7.1,1.1-9.4,4.3c-0.9,1.3-0.7,2.8,0.4,3.8c1.2,0.9,2.8,0.9,3.9-0.4C186.1,85.4,187.8,84.7,189.7,84.9z M181,91.7
		c0-1.6-1.3-2.8-2.8-2.7c-1.6,0.1-3.1,1.8-3.1,3.5c0,1.6,1.3,2.8,2.8,2.7C179.5,95.2,181.1,93.4,181,91.7z M157.3,85.1
		c0,1.9,0.9,3.1,2.7,3.2c1.7,0.1,2.8-1.2,2.8-3.1S161.7,82,160,82C158.3,82,157.3,83.2,157.3,85.1z"/>
	<path class="st0" d="M160.5,108.1c5.6,1.9,11.2,3.8,16.8,5.6c-1,2.5-2.2,5.4-3.4,8.4C167.7,119.2,161.9,115.7,160.5,108.1z"/>
</g>
<g>
	
		<image style="overflow:visible;enable-background:new    ;" width="199" height="199" xlink:href="448CE691.png"  transform="matrix(1 0 0 1 -29 69)">
	</image>
</g>
<g>
	<path class="st1" d="M100.7,149.4H39.6c-4.4,0-7.9-3.6-7.9-7.9l0,0c0-4.4,3.6-7.9,7.9-7.9h61.2c4.4,0,7.9,3.6,7.9,7.9l0,0
		C108.7,145.8,105.1,149.4,100.7,149.4z"/>
	<path class="st1" d="M77.1,203.4H39.6c-4.4,0-7.9-3.6-7.9-7.9l0,0c0-4.4,3.6-7.9,7.9-7.9h37.6c4.4,0,7.9,3.6,7.9,7.9l0,0
		C85.1,199.9,81.5,203.4,77.1,203.4z"/>
	<path class="st1" d="M100.7,176.4H39.6c-4.4,0-7.9-3.6-7.9-7.9l0,0c0-4.4,3.6-7.9,7.9-7.9h61.2c4.4,0,7.9,3.6,7.9,7.9l0,0
		C108.7,172.8,105.1,176.4,100.7,176.4z"/>
</g>
</svg>
