<?xml version="1.0" encoding="utf-8"?>
<!-- Generator: Adobe Illustrator 24.2.3, SVG Export Plug-In . SVG Version: 6.00 Build 0)  -->
<svg version="1.1" id="Capa_1" xmlns="http://www.w3.org/2000/svg" xmlns:xlink="http://www.w3.org/1999/xlink" x="0px" y="0px"
	 viewBox="0 0 1920 1080" style="enable-background:new 0 0 1920 1080;" xml:space="preserve">
<style type="text/css">
	.st0{fill:#72B5E8;}
	.st1{fill:#A8CFF0;}
	.st2{fill:#D1EBFF;}
	.st3{fill:#FFFFFF;}
	.st4{fill:#EB4680;}
	.st5{fill:#D62D69;}
	.st6{opacity:0.7;fill:#FFFFFF;}
	.st7{fill:#3F92D1;}
	.st8{fill:#4F9FDB;}
	.st9{fill:#03336E;}
	.st10{fill:#001A46;}
	.st11{fill:#FFCC00;}
	.st12{fill:#0FBAB8;}
	.st13{fill:#2672AB;}
	.st14{fill:#084C94;}
	.st15{fill:#0BA19F;}
	.st16{fill:#FFD70F;}
	.st17{fill:#D99F00;}
	.st18{fill:#B08100;}
	.st19{fill:#FFDE17;}
	.st20{fill:#3ECFCD;}
	.st21{fill:#F76195;}
	.st22{opacity:0.2;fill:#92B4D1;}
</style>
<g>
	<g>
		<g>
			<path class="st0" d="M1676.6,644.7c-23.6-13.6-42.7-46.6-42.7-73.6c0-10,2.7-17.8,7.2-22.9c-12.9,0.9-21.7,11.8-21.7,30
				c0,27.1,19.1,60,42.7,73.6c14.8,8.6,27.8,7.4,35.5-1.4C1691.4,650.9,1684.2,649.1,1676.6,644.7z"/>
			<path class="st1" d="M1718.1,635.8c0-3.4-0.3-6.9-0.7-10.3l17.3-2.2c-1.8-8.7-4.4-17.5-7.8-26.1l-19.7-5.9
				c-3.4-7.4-7.6-14.5-12.2-21.1l4.7-19.8c-5.8-7.3-12.1-14-18.8-19.8l-10.6,13.7c-2.8-2.1-5.7-4.1-8.7-5.8c-2.9-1.7-5.8-3-8.7-4.2
				l-10.6-25.9c-6.7-1.8-13-2.4-18.8-1.9l4.7,25.3c-4.7,1.2-8.8,3.6-12.2,7l-19.7-16.8c-3.4,4.7-6.1,10.4-7.8,17.1l17.3,22.1
				c-0.4,3-0.7,6.1-0.7,9.5c0,3.4,0.3,6.9,0.7,10.3l-17.3,2.2c1.8,8.7,4.4,17.5,7.8,26.1l19.7,5.9c3.4,7.4,7.6,14.5,12.2,21.1
				l-4.7,19.8c5.8,7.3,12.1,14,18.8,19.8l10.6-13.7c2.8,2.1,5.7,4.1,8.7,5.8c2.9,1.7,5.8,3,8.7,4.2l10.6,25.9
				c6.7,1.8,13,2.4,18.8,1.9l-4.7-25.3c4.7-1.2,8.8-3.6,12.2-7l19.7,16.8c3.4-4.7,6.1-10.4,7.8-17.1l-17.3-22.1
				C1717.8,642.3,1718.1,639.2,1718.1,635.8z M1662.1,651.8c-23.6-13.6-42.7-46.6-42.7-73.6s19.1-38,42.7-24.3
				c23.6,13.6,42.7,46.6,42.7,73.6C1704.8,654.5,1685.7,665.4,1662.1,651.8z"/>
			<polygon class="st0" points="1669.4,524.6 1658.8,498.7 1642.3,508.2 1652.9,534.1 			"/>
			<path class="st2" d="M1652.9,534.1c2.8,1.1,5.7,2.5,8.7,4.2c2.9,1.7,5.8,3.7,8.7,5.8l10.6-13.7l0,0c0,0-1.8-1.1-2.7-1.6
				c-2.9-1.7-5.8-3-8.7-4.2L1652.9,534.1z"/>
			<path class="st2" d="M1658.8,498.7c-6.7-1.8-13-2.4-18.8-1.9l-16.5,9.5c5.8-0.5,12.1,0.1,18.8,1.9L1658.8,498.7z"/>
			<path class="st2" d="M1716.1,540.7c-5.8-7.3-12.1-14-18.8-19.8l-16.5,9.5c6.7,5.9,13,12.6,18.8,19.8L1716.1,540.7z"/>
			<polygon class="st0" points="1699.6,550.2 1694.9,570.1 1711.4,560.6 1716.1,540.7 			"/>
			<path class="st0" d="M1694.9,570.1c4.7,6.6,8.8,13.8,12.2,21.1l16.5-9.5c-3.4-7.4-7.6-14.5-12.2-21.1L1694.9,570.1z"/>
			<polygon class="st2" points="1707.1,591.2 1726.8,597.1 1743.3,587.6 1723.7,581.7 			"/>
			<path class="st0" d="M1726.8,597.1c3.4,8.7,6.1,17.4,7.8,26.1l16.5-9.5c-1.8-8.7-4.4-17.5-7.8-26.1L1726.8,597.1z"/>
			<path class="st0" d="M1628.2,531.5l-1.4-7.4l-14-11.9l-16.5,9.5l19.7,16.8C1619.4,535.1,1623.5,532.8,1628.2,531.5z"/>
			<path class="st0" d="M1734.6,667.4c-1.8,6.7-4.4,12.4-7.8,17.1l16.5-9.5c3.4-4.7,6.1-10.4,7.8-17.1L1734.6,667.4z"/>
			<path class="st0" d="M1733.9,635.8c0.4-3,0.7-6.1,0.7-9.5c0-1-0.1-2-0.1-3l-17.1,2.2c0.4,3.5,0.7,7,0.7,10.3
				c0,3.4-0.3,6.5-0.7,9.5L1733.9,635.8z"/>
			<polygon class="st2" points="1717.4,645.3 1734.6,667.4 1751.2,657.9 1733.9,635.8 			"/>
			<path class="st0" d="M1707.1,667.7c-3.4,3.4-7.6,5.7-12.2,7l4.7,25.3l16.5-9.5l-3.3-17.9L1707.1,667.7z"/>
			<path class="st2" d="M1605.1,573.2l-16.6,9.8l17.3-2.2C1605.4,578.3,1605.2,575.7,1605.1,573.2z"/>
			<path class="st0" d="M1652.9,662.2l-10.6,13.7l16.7-9.5C1656.9,665.1,1654.9,663.7,1652.9,662.2z"/>
			<g>
				<path class="st3" d="M1626.2,532.7l0-0.3c-0.8,0.3-1.5,0.7-2.3,1C1624.6,533.2,1625.4,532.9,1626.2,532.7z"/>
				<path class="st3" d="M1603.6,581.1l-14.3,1.8c0.1,0.3,0.1,0.6,0.2,0.8l14.2-1.8C1603.7,581.7,1603.7,581.4,1603.6,581.1z"/>
				<path class="st3" d="M1698.7,551.3l-4.7,19.8c4.7,6.6,8.8,13.8,12.2,21.1l19.7,5.9c3.3,8.4,5.9,16.9,7.6,25.3l1.9-0.3
					c-1.8-8.7-4.4-17.5-7.8-26.1l-19.7-5.9c-3.4-7.4-7.6-14.5-12.2-21.1l4.7-19.8c-5.8-7.3-12.1-14-18.8-19.8l-0.6,2.2
					C1687.2,538.1,1693.2,544.4,1698.7,551.3z"/>
				<path class="st3" d="M1662.2,651.5c-23.6-13.6-42.7-46.6-42.7-73.6c0-12,3.7-20.7,10-25.6c-7.2,4.6-11.6,13.8-11.6,26.8
					c0,27.1,19.1,60,42.7,73.6c11.9,6.9,22.7,7.5,30.4,2.9c-0.6,0.2-1.2,0.3-1.8,0.4C1681.9,658.7,1672.5,657.4,1662.2,651.5z"/>
				<path class="st3" d="M1698.1,673.8c2.8-1,5.4-2.5,7.8-4.4l-0.7-0.6C1703,670.9,1700.6,672.6,1698.1,673.8z"/>
				<path class="st3" d="M1615.3,539c-0.7,0,0-0.6,0.7-1.1l-18.9-16.1c-0.5,0.7-1,1.6-0.1,1.7L1615.3,539z"/>
				<path class="st3" d="M1694.4,675.8l4.5,24.2c-0.5,0,0.5,0,1.5-0.1l-4.7-25C1694.8,675.2,1693.9,675.6,1694.4,675.8z"/>
				<path class="st3" d="M1718.9,635.7c0-3.1-0.3-6.3-0.6-9.5l-1.7,0.1c0.4,3.5,0.7,7,0.7,10.3c0,3.4-0.3,6.5-0.7,9.5l17.3,22.1
					c-1.5,5.6-3.6,10.5-6.3,14.7l0.1,1.4c3.4-4.7,6.1-10.4,7.8-17.1l-17.3-22.1C1718.6,642.2,1718.9,639.1,1718.9,635.7z"/>
				<path class="st3" d="M1641.6,508.9l10.6,25.9c2.8,1.1,5.7,2.5,8.7,4.2c2.9,1.7,5.8,3.7,8.6,5.8l0.3-1.6c-2.4-1.8-4.9-3.5-7.4-5
					c-2.9-1.7-5.8-3-8.7-4.2l-10.6-25.9c-6.7-1.8-13-2.4-18.8-1.9l0.2,1.1C1629.5,507.2,1636,507.3,1641.6,508.9z"/>
				<path class="st3" d="M1650.9,663.3l-8.9,11.4c0.4,0.3,0.7,0.7,1.1,1l9-11.6C1651.7,663.9,1651.3,663.6,1650.9,663.3z"/>
			</g>
		</g>
		<g>
			<path class="st0" d="M1670.5,441.7c-35.5-20.5-64.2-70.1-64.2-110.8c0-15.1,4-26.8,10.8-34.5c-19.5,1.4-32.6,17.7-32.6,45.2
				c0,40.7,28.7,90.3,64.2,110.8c22.3,12.9,41.8,11.1,53.3-2C1692.7,451,1681.9,448.3,1670.5,441.7z"/>
			<path class="st1" d="M1732.9,428.2c0-5.1-0.4-10.3-1.1-15.6l26-3.3c-2.6-13.1-6.6-26.3-11.8-39.3l-29.6-8.9
				c-5.2-11.1-11.4-21.8-18.4-31.8l7.1-29.8c-8.8-10.9-18.3-21-28.3-29.9l-15.9,20.6c-4.3-3.2-8.6-6.2-13-8.8
				c-4.4-2.6-8.8-4.5-13-6.3l-15.9-39c-10.1-2.8-19.6-3.7-28.3-2.9l7.1,38c-7,1.9-13.2,5.4-18.4,10.5l-29.6-25.2
				c-5.1,7.1-9.1,15.7-11.8,25.7l26,33.3c-0.7,4.5-1.1,9.2-1.1,14.3c0,5.1,0.4,10.3,1.1,15.6l-26,3.3c2.6,13.1,6.6,26.3,11.8,39.3
				l29.6,8.9c5.2,11.1,11.4,21.8,18.4,31.8l-7.1,29.8c8.8,10.9,18.3,21,28.3,29.9l15.9-20.6c4.3,3.2,8.6,6.2,13,8.8
				c4.4,2.6,8.8,4.5,13,6.3l15.9,39c10.1,2.8,19.6,3.7,28.3,2.9l-7.1-38c7-1.9,13.2-5.4,18.4-10.5l29.6,25.2
				c5.1-7.1,9.1-15.7,11.8-25.7l-26-33.3C1732.4,438,1732.9,433.3,1732.9,428.2z M1648.6,452.4c-35.5-20.5-64.2-70.1-64.2-110.8
				s28.7-57.1,64.2-36.6c35.5,20.5,64.2,70.1,64.2,110.8S1684.1,472.8,1648.6,452.4z"/>
			<polygon class="st0" points="1659.7,261 1643.8,222 1618.9,236.3 1634.8,275.3 			"/>
			<path class="st2" d="M1634.8,275.3c4.3,1.7,8.6,3.7,13,6.3s8.8,5.6,13,8.8l15.9-20.6l0,0c0,0-2.7-1.7-4.1-2.5
				c-4.4-2.6-8.8-4.5-13-6.3L1634.8,275.3z"/>
			<path class="st2" d="M1643.8,222c-10.1-2.8-19.6-3.7-28.3-2.9l-24.9,14.3c8.8-0.8,18.3,0.1,28.3,2.9L1643.8,222z"/>
			<path class="st2" d="M1729.9,285.3c-8.8-10.9-18.3-21-28.3-29.9l-24.9,14.3c10.1,8.8,19.6,18.9,28.3,29.9L1729.9,285.3z"/>
			<polygon class="st0" points="1705.1,299.6 1698,329.4 1722.9,315.1 1729.9,285.3 			"/>
			<path class="st0" d="M1698,329.4c7,10,13.2,20.7,18.4,31.8l24.9-14.3c-5.2-11.1-11.4-21.8-18.4-31.8L1698,329.4z"/>
			<polygon class="st2" points="1716.4,361.2 1746,370.1 1770.8,355.8 1741.3,346.9 			"/>
			<path class="st0" d="M1746,370.1c5.1,13,9.1,26.2,11.8,39.3l24.9-14.3c-2.6-13.1-6.6-26.3-11.8-39.3L1746,370.1z"/>
			<path class="st0" d="M1597.6,271.5l-2.1-11.1l-21-17.9l-24.9,14.3l29.6,25.2C1584.4,276.9,1590.6,273.3,1597.6,271.5z"/>
			<path class="st0" d="M1757.7,475.8c-2.6,10-6.6,18.6-11.8,25.7l24.9-14.3c5.1-7.1,9.1-15.7,11.8-25.7L1757.7,475.8z"/>
			<path class="st0" d="M1756.7,428.3c0.7-4.5,1.1-9.2,1.1-14.3c0-1.5-0.1-3-0.2-4.5l-25.8,3.3c0.7,5.3,1.1,10.5,1.1,15.6
				c0,5.1-0.4,9.8-1.1,14.3L1756.7,428.3z"/>
			<polygon class="st2" points="1731.8,442.5 1757.7,475.8 1782.6,461.5 1756.7,428.3 			"/>
			<path class="st0" d="M1716.4,476.3c-5.2,5.1-11.4,8.6-18.4,10.5l7.1,38l24.9-14.3l-5-27L1716.4,476.3z"/>
			<path class="st2" d="M1562.9,334.2l-25,14.7l26-3.3C1563.4,341.8,1563.1,338,1562.9,334.2z"/>
			<path class="st0" d="M1634.8,468l-15.9,20.6l25.1-14.3C1640.9,472.3,1637.8,470.2,1634.8,468z"/>
			<g>
				<path class="st3" d="M1594.6,273.2l-0.1-0.4c-1.2,0.5-2.3,1-3.4,1.6C1592.3,273.9,1593.4,273.5,1594.6,273.2z"/>
				<path class="st3" d="M1560.7,346l-21.5,2.7c0.1,0.4,0.2,0.8,0.3,1.3l21.4-2.7C1560.8,346.9,1560.7,346.5,1560.7,346z"/>
				<path class="st3" d="M1703.7,301.2l-7.1,29.8c7,10,13.2,20.7,18.4,31.8l29.6,8.9c5,12.6,8.8,25.4,11.5,38l2.9-0.5
					c-2.6-13.1-6.6-26.3-11.8-39.3l-29.6-8.9c-5.2-11.1-11.4-21.8-18.4-31.8l7.1-29.8c-8.8-10.9-18.3-21-28.3-29.9l-1,3.3
					C1686.5,281.3,1695.4,290.9,1703.7,301.2z"/>
				<path class="st3" d="M1648.8,451.9c-35.5-20.5-64.2-70.1-64.2-110.8c0-18,5.6-31.1,15-38.5c-10.8,6.9-17.4,20.8-17.4,40.3
					c0,40.7,28.7,90.3,64.2,110.8c17.9,10.3,34.1,11.3,45.7,4.4c-0.9,0.3-1.8,0.4-2.7,0.6C1678.4,462.7,1664.3,460.8,1648.8,451.9z"
					/>
				<path class="st3" d="M1702.8,485.5c4.3-1.5,8.2-3.7,11.7-6.6l-1.1-0.9C1710.2,481.1,1706.6,483.6,1702.8,485.5z"/>
				<path class="st3" d="M1578.3,282.6c-1.1,0,0-0.8,1.1-1.7l-28.5-24.3c-0.8,1.1-1.5,2.3-0.2,2.5L1578.3,282.6z"/>
				<path class="st3" d="M1697.3,488.5l6.8,36.4c-0.8,0,0.8-0.1,2.3-0.2l-7-37.6C1697.9,487.6,1696.5,488.1,1697.3,488.5z"/>
				<path class="st3" d="M1734.1,428.1c0-4.7-0.4-9.5-1-14.3l-2.6,0.2c0.7,5.3,1.1,10.5,1.1,15.6c0,5.1-0.4,9.8-1.1,14.3l26,33.3
					c-2.2,8.4-5.5,15.8-9.5,22.2l0.2,2.1c5.1-7.1,9.1-15.7,11.8-25.7l-26-33.3C1733.7,437.9,1734.1,433.2,1734.1,428.1z"/>
				<path class="st3" d="M1617.8,237.3l15.9,39c4.3,1.7,8.6,3.7,13,6.3c4.4,2.6,8.8,5.6,13,8.8l0.5-2.5c-3.7-2.7-7.4-5.3-11.2-7.5
					c-4.4-2.6-8.8-4.5-13-6.3l-15.9-39c-10.1-2.8-19.6-3.7-28.3-2.9l0.3,1.6C1599.6,234.8,1609.5,235,1617.8,237.3z"/>
				<path class="st3" d="M1631.8,469.7l-13.3,17.2c0.6,0.5,1.1,1,1.7,1.5l13.5-17.4C1633,470.6,1632.4,470.1,1631.8,469.7z"/>
			</g>
		</g>
		<path class="st4" d="M1680,219.1c0.2-4.1,3-5.9,6.3-4c3.3,1.9,5.8,6.8,5.6,10.9c-0.2,4.1-3,5.9-6.3,4
			C1682.3,228.1,1679.8,223.3,1680,219.1z"/>
		<path class="st4" d="M1661.6,711.1c0.1-2.7,2-3.9,4.2-2.7c2.2,1.3,3.9,4.5,3.7,7.2c-0.1,2.7-2,3.9-4.2,2.7
			C1663.1,717.1,1661.4,713.8,1661.6,711.1z"/>
		<g>
			<path class="st4" d="M1781.8,512.2c-0.5,0-0.9-0.2-1.2-0.6c-0.4-0.5-0.4-1.2-0.1-1.7l7.4-12.6c0.4-0.7,1.4-1,2.1-0.6
				c0.7,0.4,1,1.4,0.6,2.1l-5.4,9.2l10.9-3.3c0.8-0.2,1.7,0.2,1.9,1c0.3,0.8-0.2,1.7-1,1.9l-14.6,4.5
				C1782.1,512.2,1781.9,512.2,1781.8,512.2z"/>
		</g>
		<g>
			<path class="st5" d="M1654.1,567.9c5.8,3.3,10.8,9.7,13.7,16.5c0,0.1,3.3-1,4.5-1.5c2.8-1.1,6.5-0.7,10.5,1.6
				c9,5.2,16.3,17.7,16.3,28c0,18.8-32.2,25.4-32.2,25.4s-30.7-41-30.7-59.8c0-5.1-2.2-6.7,0.7-8.4c0.3-0.1,6.1-3.2,6.4-3.4
				C1646.3,565.1,1650,565.5,1654.1,567.9z"/>
			<path class="st4" d="M1648.7,570.8c6.3,3.6,11.7,10.8,14.4,18.3c2.7-4.4,8.1-5.3,14.4-1.7c9,5.2,16.3,17.7,16.3,28
				c0,18.8-30.7,24.4-30.7,24.4s-30.7-41-30.7-59.8C1632.5,569.8,1639.7,565.7,1648.7,570.8z"/>
			<g>
				<path class="st6" d="M1647.8,571.2c6.3,3.6,12.4,10.8,15.1,18.3c0.6-0.9-0.2-0.6,0.6-1.2c-2.8-7.2-8-13.9-14-17.3
					c-4.9-2.8-8.6-3.5-11.5-1.7C1640.7,568.6,1644.1,569.1,1647.8,571.2z"/>
				<path class="st6" d="M1677.9,587.4c-4.9-2.8-8.7-2.9-11.2-1.4c2.7-0.8,6.1-0.3,9.8,1.8c9,5.2,16.3,17.7,16.3,28
					c0,8.7-6.6,14.6-13.7,18.4c7.9-3.7,15-9.2,15-18.9C1694.2,605.1,1686.9,592.6,1677.9,587.4z"/>
			</g>
		</g>
		<g>
			<path class="st4" d="M1786.5,510.1l-2.1-2.3c16.5-15,25.3-39.5,25.3-70.8c0-77.9-55.2-173.2-123.1-212.4l1.5-2.7
				c68.7,39.7,124.7,136.1,124.7,215C1812.8,469.2,1803.7,494.5,1786.5,510.1z"/>
		</g>
		<g>
			<g>
				<path class="st1" d="M1835.2,457.6C1835.2,457.6,1835.2,457.6,1835.2,457.6c-0.9,0-1.5-0.7-1.5-1.6c0-1,0-2,0-3.1
					c0-0.8,0.7-1.5,1.5-1.5c0.8,0,1.5,0.7,1.5,1.5c0,1,0,2.1,0,3.1C1836.8,457,1836.1,457.6,1835.2,457.6z"/>
			</g>
			<g>
				<path class="st1" d="M1750.6,564.2c-0.8,0-1.5-0.7-1.5-1.5c0-0.8,0.7-1.5,1.5-1.5c2,0,4-0.1,6-0.2c0.8-0.1,1.6,0.6,1.6,1.4
					c0.1,0.8-0.6,1.6-1.4,1.6C1754.8,564.1,1752.7,564.1,1750.6,564.2C1750.6,564.2,1750.6,564.2,1750.6,564.2z M1741.5,563.8
					c0,0-0.1,0-0.1,0c-2-0.2-4.1-0.4-6.2-0.7c-0.8-0.1-1.4-0.9-1.3-1.7c0.1-0.8,0.9-1.4,1.7-1.3c2,0.3,4,0.5,6,0.7
					c0.8,0.1,1.5,0.8,1.4,1.7C1743,563.2,1742.3,563.8,1741.5,563.8z M1765.8,562.8c-0.7,0-1.4-0.5-1.5-1.3
					c-0.1-0.8,0.4-1.6,1.2-1.8c2-0.4,3.9-0.8,5.8-1.3c0.8-0.2,1.7,0.3,1.9,1.1c0.2,0.8-0.3,1.7-1.1,1.9c-2,0.5-4,1-6.1,1.4
					C1766,562.7,1765.9,562.8,1765.8,562.8z M1780.4,558.6c-0.6,0-1.2-0.4-1.4-1c-0.3-0.8,0.1-1.7,0.9-2c1.8-0.7,3.7-1.5,5.5-2.4
					c0.8-0.4,1.7-0.1,2.1,0.7c0.4,0.8,0.1,1.7-0.7,2.1c-1.8,0.9-3.8,1.8-5.7,2.5C1780.8,558.6,1780.6,558.6,1780.4,558.6z
					 M1793.9,551.6c-0.5,0-1-0.2-1.3-0.7c-0.5-0.7-0.3-1.7,0.4-2.1c1.7-1.1,3.3-2.3,4.8-3.5c0.7-0.5,1.6-0.4,2.2,0.3
					c0.5,0.7,0.4,1.6-0.3,2.2c-1.6,1.3-3.3,2.5-5.1,3.6C1794.5,551.5,1794.2,551.6,1793.9,551.6z M1805.7,541.9
					c-0.4,0-0.8-0.2-1.1-0.5c-0.6-0.6-0.6-1.6,0-2.2c1.4-1.4,2.8-2.9,4.1-4.4c0.6-0.6,1.5-0.7,2.2-0.2c0.6,0.6,0.7,1.5,0.2,2.2
					c-1.3,1.6-2.8,3.1-4.2,4.6C1806.5,541.8,1806.1,541.9,1805.7,541.9z M1815.4,530.2c-0.3,0-0.6-0.1-0.9-0.3
					c-0.7-0.5-0.9-1.4-0.4-2.1c1.1-1.6,2.2-3.3,3.2-5.1c0.4-0.7,1.4-1,2.1-0.5c0.7,0.4,1,1.4,0.5,2.1c-1,1.8-2.2,3.5-3.3,5.2
					C1816.4,530,1815.9,530.2,1815.4,530.2z M1823,517c-0.2,0-0.4,0-0.7-0.1c-0.8-0.4-1.1-1.3-0.7-2c0.8-1.8,1.6-3.6,2.4-5.5
					c0.3-0.8,1.2-1.2,2-0.9c0.8,0.3,1.2,1.2,0.8,2c-0.8,1.9-1.6,3.8-2.5,5.7C1824.1,516.6,1823.6,517,1823,517z M1828.5,502.8
					c-0.2,0-0.3,0-0.5-0.1c-0.8-0.3-1.3-1.1-1-1.9c0.6-1.9,1.2-3.8,1.7-5.8c0.2-0.8,1.1-1.3,1.9-1.1c0.8,0.2,1.3,1.1,1.1,1.9
					c-0.5,2-1.1,4-1.7,5.9C1829.8,502.3,1829.2,502.8,1828.5,502.8z M1832.2,488c-0.1,0-0.2,0-0.3,0c-0.8-0.2-1.4-1-1.2-1.8
					c0.4-1.9,0.7-3.9,1-5.9c0.1-0.8,0.9-1.4,1.8-1.3c0.8,0.1,1.4,0.9,1.3,1.8c-0.3,2.1-0.7,4.1-1.1,6.1
					C1833.6,487.5,1833,488,1832.2,488z M1834.4,472.9c-0.1,0-0.1,0-0.2,0c-0.8-0.1-1.5-0.8-1.4-1.7c0.2-2,0.4-4,0.5-6
					c0.1-0.8,0.7-1.5,1.6-1.4c0.8,0.1,1.5,0.8,1.4,1.6c-0.1,2.1-0.3,4.1-0.5,6.1C1835.9,472.3,1835.2,472.9,1834.4,472.9z"/>
			</g>
			<g>
				<path class="st1" d="M1726.3,561.5c-0.1,0-0.2,0-0.3,0c-1-0.2-2-0.5-3-0.7c-0.8-0.2-1.3-1-1.1-1.9c0.2-0.8,1-1.3,1.9-1.1
					c1,0.2,2,0.5,3,0.7c0.8,0.2,1.4,1,1.2,1.8C1727.6,561,1727,561.5,1726.3,561.5z"/>
			</g>
		</g>
		<g>
			<g>
				<path class="st1" d="M1529.4,318.1c-0.7,0-1.4-0.5-1.5-1.3c-0.2-1-0.4-2-0.5-3.1c-0.1-0.8,0.4-1.6,1.3-1.8
					c0.8-0.2,1.6,0.4,1.8,1.3c0.2,1,0.3,2,0.5,3c0.2,0.8-0.4,1.6-1.2,1.8C1529.6,318.1,1529.5,318.1,1529.4,318.1z"/>
			</g>
			<g>
				<path class="st1" d="M1812.8,349.4c-0.6,0-1.2-0.4-1.4-1c-0.8-1.9-1.6-3.8-2.4-5.7c-0.3-0.8,0-1.7,0.8-2c0.8-0.3,1.7,0,2,0.8
					c0.8,1.9,1.6,3.9,2.4,5.8c0.3,0.8-0.1,1.7-0.8,2C1813.2,349.3,1813,349.4,1812.8,349.4z M1806.6,335.1c-0.6,0-1.1-0.3-1.4-0.9
					c-0.9-1.9-1.7-3.8-2.6-5.6c-0.4-0.8,0-1.7,0.7-2.1c0.8-0.4,1.7,0,2.1,0.7c0.9,1.9,1.8,3.8,2.7,5.7c0.4,0.8,0,1.7-0.8,2
					C1807.1,335,1806.9,335.1,1806.6,335.1z M1799.9,321c-0.6,0-1.1-0.3-1.4-0.8c-0.9-1.8-1.9-3.7-2.9-5.5c-0.4-0.8-0.1-1.7,0.6-2.1
					c0.8-0.4,1.7-0.1,2.1,0.6c1,1.8,1.9,3.7,2.9,5.6c0.4,0.8,0.1,1.7-0.7,2.1C1800.3,321,1800.1,321,1799.9,321z M1792.5,307.3
					c-0.5,0-1.1-0.3-1.3-0.8c-1-1.8-2-3.6-3.1-5.4c-0.4-0.7-0.2-1.7,0.6-2.1c0.7-0.4,1.7-0.2,2.1,0.6c1.1,1.8,2.1,3.6,3.1,5.4
					c0.4,0.7,0.2,1.7-0.6,2.1C1793,307.2,1792.8,307.3,1792.5,307.3z M1527.5,305.9c-0.8,0-1.4-0.6-1.5-1.3
					c-0.3-2.1-0.5-4.2-0.7-6.2c-0.1-0.8,0.5-1.6,1.4-1.7c0.8-0.1,1.6,0.5,1.7,1.4c0.2,2,0.5,4.1,0.7,6.1c0.1,0.8-0.5,1.6-1.3,1.7
					C1527.6,305.9,1527.6,305.9,1527.5,305.9z M1784.6,293.9c-0.5,0-1-0.3-1.3-0.7c-1.1-1.8-2.2-3.5-3.3-5.3
					c-0.5-0.7-0.2-1.7,0.5-2.1c0.7-0.5,1.7-0.3,2.1,0.5c1.1,1.8,2.2,3.5,3.3,5.3c0.4,0.7,0.2,1.7-0.5,2.1
					C1785.2,293.8,1784.9,293.9,1784.6,293.9z M1525.9,290.4c-0.8,0-1.5-0.6-1.5-1.4c-0.1-2.1-0.3-4.2-0.3-6.3
					c0-0.8,0.6-1.6,1.5-1.6c0,0,0,0,0.1,0c0.8,0,1.5,0.6,1.5,1.5c0.1,2,0.2,4.1,0.3,6.2c0.1,0.8-0.6,1.6-1.4,1.6
					C1526,290.4,1526,290.4,1525.9,290.4z M1776.2,280.8c-0.5,0-1-0.2-1.3-0.7c-1.2-1.7-2.3-3.4-3.5-5.1c-0.5-0.7-0.3-1.7,0.4-2.1
					c0.7-0.5,1.7-0.3,2.1,0.4c1.2,1.7,2.4,3.4,3.5,5.1c0.5,0.7,0.3,1.7-0.4,2.1C1776.8,280.7,1776.5,280.8,1776.2,280.8z
					 M1525.4,274.8C1525.4,274.8,1525.4,274.8,1525.4,274.8c-0.9,0-1.5-0.7-1.5-1.5c0-2.1,0-4.2,0.1-6.3c0-0.8,0.7-1.5,1.5-1.5
					c0,0,0,0,0.1,0c0.8,0,1.5,0.7,1.5,1.6c-0.1,2-0.1,4.1-0.1,6.2C1527,274.2,1526.3,274.8,1525.4,274.8z M1767.2,268.1
					c-0.5,0-0.9-0.2-1.2-0.6c-1.2-1.7-2.5-3.3-3.7-5c-0.5-0.7-0.4-1.6,0.3-2.2c0.7-0.5,1.6-0.4,2.2,0.3c1.3,1.7,2.5,3.3,3.7,5
					c0.5,0.7,0.4,1.6-0.3,2.1C1767.9,268,1767.6,268.1,1767.2,268.1z M1526.1,259.3c0,0-0.1,0-0.1,0c-0.8-0.1-1.5-0.8-1.4-1.7
					c0.2-2.1,0.4-4.2,0.6-6.2c0.1-0.8,0.9-1.4,1.7-1.3c0.8,0.1,1.4,0.9,1.3,1.7c-0.2,2-0.5,4.1-0.6,6.1
					C1527.6,258.7,1526.9,259.3,1526.1,259.3z M1757.7,255.8c-0.4,0-0.9-0.2-1.2-0.6c-1.3-1.6-2.6-3.2-3.9-4.8
					c-0.5-0.7-0.5-1.6,0.2-2.2c0.6-0.5,1.6-0.5,2.2,0.2c1.3,1.6,2.7,3.2,4,4.8c0.5,0.7,0.4,1.6-0.2,2.2
					C1758.4,255.7,1758.1,255.8,1757.7,255.8z M1747.7,243.9c-0.4,0-0.8-0.2-1.2-0.5c-1.4-1.5-2.7-3.1-4.1-4.6
					c-0.6-0.6-0.5-1.6,0.1-2.2c0.6-0.6,1.6-0.5,2.2,0.1c1.4,1.5,2.8,3.1,4.2,4.6c0.6,0.6,0.5,1.6-0.1,2.2
					C1748.4,243.8,1748.1,243.9,1747.7,243.9z M1528.2,243.9c-0.1,0-0.2,0-0.3,0c-0.8-0.2-1.4-1-1.2-1.8c0.4-2.1,0.8-4.1,1.3-6.2
					c0.2-0.8,1-1.4,1.8-1.2c0.8,0.2,1.3,1,1.2,1.8c-0.5,2-0.9,4-1.2,6C1529.5,243.4,1528.9,243.9,1528.2,243.9z M1737.2,232.5
					c-0.4,0-0.8-0.2-1.1-0.5c-1.4-1.5-2.9-3-4.4-4.4c-0.6-0.6-0.6-1.6,0-2.2c0.6-0.6,1.6-0.6,2.2,0c1.5,1.5,2.9,2.9,4.4,4.4
					c0.6,0.6,0.6,1.6,0,2.2C1737.9,232.4,1737.6,232.5,1737.2,232.5z M1531.8,228.8c-0.1,0-0.3,0-0.4-0.1c-0.8-0.2-1.3-1.1-1-1.9
					c0.6-2,1.3-4,2-6c0.3-0.8,1.2-1.2,2-0.9c0.8,0.3,1.2,1.2,0.9,2c-0.7,1.9-1.3,3.8-1.9,5.8
					C1533.1,228.3,1532.5,228.8,1531.8,228.8z M1726,221.6c-0.4,0-0.8-0.1-1-0.4c-1.5-1.4-3-2.8-4.6-4.2c-0.6-0.6-0.7-1.5-0.1-2.2
					c0.6-0.6,1.5-0.7,2.2-0.1c1.6,1.4,3.1,2.8,4.6,4.2c0.6,0.6,0.7,1.6,0.1,2.2C1726.9,221.4,1726.5,221.6,1726,221.6z
					 M1537.3,214.2c-0.2,0-0.4,0-0.6-0.1c-0.8-0.4-1.1-1.3-0.8-2c0.9-1.9,1.8-3.8,2.8-5.7c0.4-0.7,1.3-1,2.1-0.6
					c0.7,0.4,1,1.3,0.6,2.1c-1,1.8-1.9,3.6-2.7,5.5C1538.4,213.9,1537.9,214.2,1537.3,214.2z M1714.4,211.3c-0.3,0-0.7-0.1-1-0.4
					c-1.6-1.3-3.2-2.6-4.8-3.9c-0.7-0.5-0.8-1.5-0.2-2.2c0.5-0.7,1.5-0.8,2.2-0.2c1.6,1.3,3.2,2.6,4.9,4c0.7,0.5,0.7,1.5,0.2,2.2
					C1715.3,211.1,1714.8,211.3,1714.4,211.3z M1702.1,201.7c-0.3,0-0.6-0.1-0.9-0.3c-1.7-1.2-3.3-2.4-5-3.6
					c-0.7-0.5-0.9-1.4-0.4-2.1c0.5-0.7,1.4-0.9,2.1-0.4c1.7,1.2,3.4,2.4,5.1,3.7c0.7,0.5,0.8,1.5,0.3,2.1
					C1703.1,201.5,1702.6,201.7,1702.1,201.7z M1544.9,200.7c-0.3,0-0.6-0.1-0.9-0.3c-0.7-0.5-0.9-1.4-0.4-2.1
					c1.2-1.8,2.4-3.5,3.7-5.1c0.5-0.7,1.5-0.8,2.2-0.3c0.7,0.5,0.8,1.5,0.3,2.2c-1.2,1.6-2.4,3.2-3.6,4.9
					C1545.8,200.4,1545.4,200.7,1544.9,200.7z M1689.3,192.8c-0.3,0-0.6-0.1-0.8-0.2c-1.7-1.1-3.5-2.2-5.2-3.3
					c-0.7-0.4-1-1.4-0.5-2.1c0.4-0.7,1.4-1,2.1-0.5c1.8,1.1,3.6,2.2,5.3,3.3c0.7,0.5,0.9,1.4,0.5,2.1
					C1690.3,192.6,1689.8,192.8,1689.3,192.8z M1554.7,188.6c-0.4,0-0.8-0.1-1.1-0.4c-0.6-0.6-0.6-1.6,0-2.2c1.5-1.5,3-3,4.6-4.3
					c0.6-0.5,1.6-0.5,2.2,0.2c0.6,0.6,0.5,1.6-0.2,2.2c-1.5,1.3-3,2.7-4.5,4.2C1555.5,188.5,1555.1,188.6,1554.7,188.6z M1676,184.9
					c-0.2,0-0.5-0.1-0.7-0.2c-1.8-1-3.7-2-5.5-2.9c-0.8-0.4-1.1-1.3-0.7-2.1c0.4-0.8,1.3-1.1,2.1-0.7c1.8,0.9,3.7,1.9,5.6,2.9
					c0.7,0.4,1,1.3,0.6,2.1C1677,184.6,1676.5,184.9,1676,184.9z M1566.6,178.7c-0.5,0-1-0.2-1.3-0.7c-0.5-0.7-0.3-1.7,0.4-2.1
					c1.8-1.2,3.6-2.3,5.4-3.3c0.7-0.4,1.7-0.1,2.1,0.6c0.4,0.7,0.1,1.7-0.6,2.1c-1.8,1-3.5,2-5.2,3.1
					C1567.2,178.7,1566.9,178.7,1566.6,178.7z M1662,178c-0.2,0-0.4,0-0.6-0.1c-1.9-0.8-3.8-1.6-5.7-2.4c-0.8-0.3-1.2-1.2-0.9-2
					c0.3-0.8,1.2-1.2,2-0.9c1.9,0.8,3.8,1.6,5.8,2.4c0.8,0.3,1.1,1.3,0.8,2C1663.2,177.7,1662.6,178,1662,178z M1647.5,172.4
					c-0.2,0-0.3,0-0.5-0.1c-2-0.7-3.9-1.3-5.9-1.8c-0.8-0.2-1.3-1.1-1.1-1.9c0.2-0.8,1.1-1.3,1.9-1.1c2,0.6,4,1.2,6,1.8
					c0.8,0.3,1.2,1.1,1,1.9C1648.7,172,1648.1,172.4,1647.5,172.4z M1580.4,171.6c-0.6,0-1.2-0.4-1.4-1c-0.3-0.8,0.1-1.7,0.9-2
					c1.9-0.8,4-1.5,6-2.1c0.8-0.2,1.7,0.2,1.9,1c0.2,0.8-0.2,1.7-1,1.9c-2,0.6-3.9,1.3-5.8,2
					C1580.8,171.6,1580.6,171.6,1580.4,171.6z M1632.5,168.4c-0.1,0-0.2,0-0.3,0c-2-0.4-4.1-0.8-6-1.1c-0.8-0.1-1.4-0.9-1.3-1.7
					c0.1-0.8,0.9-1.4,1.7-1.3c2.1,0.3,4.1,0.7,6.2,1.1c0.8,0.2,1.4,1,1.2,1.8C1633.8,167.9,1633.2,168.4,1632.5,168.4z
					 M1595.4,167.4c-0.7,0-1.4-0.5-1.5-1.3c-0.1-0.8,0.4-1.6,1.2-1.8c2.1-0.4,4.2-0.7,6.3-0.9c0.8-0.1,1.6,0.5,1.7,1.4
					c0.1,0.8-0.5,1.6-1.4,1.7c-2,0.2-4.1,0.5-6,0.8C1595.5,167.4,1595.5,167.4,1595.4,167.4z M1617.1,166.3
					C1617,166.3,1617,166.3,1617.1,166.3c-2.2-0.1-4.2-0.2-6.2-0.2c-0.8,0-1.5-0.7-1.5-1.5c0-0.8,0.7-1.5,1.5-1.5
					c2.1,0,4.2,0.1,6.3,0.2c0.8,0.1,1.5,0.8,1.4,1.6C1618.6,165.7,1617.9,166.3,1617.1,166.3z"/>
			</g>
			<g>
				<path class="st1" d="M1817.3,361.1c-0.6,0-1.2-0.4-1.4-1l-1.1-2.9c-0.3-0.8,0.1-1.7,0.9-2c0.8-0.3,1.7,0.1,2,0.9l1.1,2.9
					c0.3,0.8-0.1,1.7-0.9,2C1817.7,361.1,1817.5,361.1,1817.3,361.1z"/>
			</g>
		</g>
		<g>
			<g>
				<path class="st4" d="M1761.6,590.5c-0.6,0-1.2-0.4-1.4-1c-0.4-0.9-0.8-1.9-1.2-2.8c-0.3-0.8,0-1.7,0.8-2c0.8-0.3,1.7,0,2,0.8
					c0.4,1,0.8,1.9,1.2,2.9c0.3,0.8-0.1,1.7-0.8,2C1762,590.4,1761.8,590.5,1761.6,590.5z"/>
			</g>
			<g>
				<path class="st4" d="M1719.2,733.6C1719.2,733.6,1719.2,733.6,1719.2,733.6c-2.1,0-4.1-0.1-6.2-0.3c-0.8-0.1-1.5-0.8-1.4-1.7
					c0.1-0.8,0.9-1.4,1.7-1.4c2,0.2,4,0.3,5.9,0.3c0.8,0,1.5,0.7,1.5,1.5C1720.7,732.9,1720,733.6,1719.2,733.6z M1728.3,732.9
					c-0.7,0-1.4-0.5-1.5-1.3c-0.1-0.8,0.5-1.6,1.3-1.7c2-0.3,3.9-0.7,5.8-1.2c0.8-0.2,1.7,0.3,1.9,1.1c0.2,0.8-0.3,1.7-1.1,1.9
					c-2,0.5-4,1-6.1,1.3C1728.4,732.9,1728.3,732.9,1728.3,732.9z M1704.1,731.9c-0.1,0-0.2,0-0.3,0c-2-0.4-4-0.9-6-1.5
					c-0.8-0.2-1.3-1.1-1.1-1.9c0.2-0.8,1.1-1.3,1.9-1.1c2,0.6,3.9,1.1,5.8,1.5c0.8,0.2,1.4,1,1.2,1.8
					C1705.4,731.4,1704.8,731.9,1704.1,731.9z M1742.8,728.6c-0.6,0-1.1-0.3-1.4-0.9c-0.4-0.8,0-1.7,0.7-2c1.8-0.8,3.5-1.8,5.2-2.8
					c0.7-0.5,1.7-0.2,2.1,0.5c0.5,0.7,0.2,1.7-0.5,2.1c-1.8,1.1-3.6,2.1-5.5,3C1743.2,728.5,1743,728.6,1742.8,728.6z M1689.5,727.4
					c-0.2,0-0.4,0-0.6-0.1c-1.9-0.7-3.8-1.5-5.7-2.4c-0.8-0.4-1.1-1.3-0.8-2c0.4-0.8,1.3-1.1,2-0.8c1.9,0.8,3.7,1.6,5.5,2.3
					c0.8,0.3,1.2,1.2,0.9,2C1690.7,727,1690.1,727.4,1689.5,727.4z M1755.3,720.1c-0.4,0-0.8-0.2-1.1-0.5c-0.6-0.6-0.5-1.6,0.1-2.2
					c1.4-1.3,2.8-2.8,4.1-4.3c0.6-0.6,1.5-0.7,2.2-0.2c0.6,0.5,0.7,1.5,0.2,2.2c-1.4,1.6-2.8,3.1-4.3,4.5
					C1756.1,719.9,1755.7,720.1,1755.3,720.1z M1764.9,708.3c-0.3,0-0.6-0.1-0.8-0.2c-0.7-0.4-1-1.4-0.5-2.1c1-1.7,2-3.4,2.9-5.2
					c0.4-0.8,1.3-1.1,2.1-0.7c0.8,0.4,1.1,1.3,0.7,2.1c-0.9,1.9-1.9,3.7-3,5.5C1765.9,708,1765.4,708.3,1764.9,708.3z M1771.3,694.5
					c-0.2,0-0.3,0-0.5-0.1c-0.8-0.3-1.2-1.1-1-2c0.6-1.8,1.2-3.8,1.7-5.7c0.2-0.8,1-1.3,1.9-1.1c0.8,0.2,1.3,1.1,1.1,1.9
					c-0.5,2-1.1,4-1.8,5.9C1772.5,694.1,1771.9,694.5,1771.3,694.5z M1774.9,679.8c-0.1,0-0.2,0-0.3,0c-0.8-0.1-1.4-0.9-1.3-1.8
					c0.3-1.9,0.6-3.9,0.8-5.9c0.1-0.8,0.9-1.5,1.7-1.4c0.8,0.1,1.5,0.8,1.4,1.7c-0.2,2.1-0.5,4.1-0.8,6.1
					C1776.3,679.2,1775.7,679.8,1774.9,679.8z M1776.4,664.6C1776.4,664.6,1776.3,664.6,1776.4,664.6c-0.9,0-1.6-0.7-1.5-1.6
					c0-1.4,0.1-2.8,0.1-4.2l0-1.8c0-0.8,0.7-1.5,1.5-1.6c0.9,0.1,1.5,0.7,1.6,1.5l0,1.9c0,1.5,0,2.9-0.1,4.3
					C1777.9,664,1777.2,664.6,1776.4,664.6z M1776,649.4c-0.8,0-1.5-0.6-1.5-1.4c-0.1-2-0.3-4-0.6-6c-0.1-0.8,0.5-1.6,1.4-1.7
					c0.8-0.1,1.6,0.5,1.7,1.4c0.2,2,0.4,4.1,0.6,6.1c0.1,0.8-0.6,1.6-1.4,1.7C1776.1,649.4,1776.1,649.4,1776,649.4z M1774.2,634.3
					c-0.7,0-1.4-0.5-1.5-1.3c-0.3-2-0.7-4-1.1-5.9c-0.2-0.8,0.4-1.6,1.2-1.8c0.8-0.2,1.6,0.4,1.8,1.2c0.4,2,0.8,4,1.1,6
					c0.1,0.8-0.4,1.6-1.3,1.8C1774.4,634.3,1774.3,634.3,1774.2,634.3z M1771.1,619.4c-0.7,0-1.3-0.5-1.5-1.2c-0.5-2-1-3.9-1.6-5.8
					c-0.2-0.8,0.2-1.7,1.1-1.9c0.8-0.2,1.7,0.2,1.9,1.1c0.6,2,1.1,4,1.6,5.9c0.2,0.8-0.3,1.7-1.1,1.9
					C1771.3,619.4,1771.2,619.4,1771.1,619.4z M1766.8,604.8c-0.6,0-1.2-0.4-1.5-1.1c-0.6-1.9-1.3-3.8-2-5.7c-0.3-0.8,0.1-1.7,0.9-2
					c0.8-0.3,1.7,0.1,2,0.9c0.7,1.9,1.4,3.9,2,5.8c0.3,0.8-0.2,1.7-1,1.9C1767.1,604.7,1767,604.8,1766.8,604.8z"/>
			</g>
			<g>
				<path class="st4" d="M1675.7,720.9c-0.3,0-0.5-0.1-0.7-0.2c-0.9-0.5-1.8-1-2.7-1.5c-0.7-0.4-1-1.4-0.6-2.1
					c0.4-0.7,1.4-1,2.1-0.6c0.9,0.5,1.8,1,2.7,1.5c0.7,0.4,1,1.3,0.6,2.1C1676.7,720.6,1676.2,720.9,1675.7,720.9z"/>
			</g>
		</g>
		<g>
			<path class="st4" d="M1757.9,592C1757.9,592,1757.9,592,1757.9,592c-0.9-0.1-1.6-0.8-1.5-1.6l0.5-8.2c0-0.6,0.4-1.1,0.9-1.3
				c0.5-0.2,1.1-0.2,1.6,0.2l6.9,5.1c0.7,0.5,0.8,1.5,0.3,2.1c-0.5,0.7-1.5,0.8-2.1,0.3l-4.6-3.4l-0.3,5.4
				C1759.4,591.3,1758.8,592,1757.9,592z"/>
		</g>
	</g>
	<path class="st3" d="M1200.1,319.6c-0.1-10.1-14.3-18.3-31.7-18.3c-17.5,0-31.6,8.1-31.6,18.2c0,9.2,12,16.9,27.4,18.1l0,5.1
		c-2.9,0.4-5.1,2-5.1,3.8l0.1,17.5c0,2.2,3.1,4,6.9,4l5.2,0c3.8,0,6.8-1.8,6.8-3.9l-0.1-17.5c0-1.8-2.2-3.4-5.1-3.8l0-5.1
		C1188.3,336.4,1200.1,328.8,1200.1,319.6z"/>
	<g>
		<path class="st2" d="M1583.2,1034l-549.6-317.5c-21.3-12.3-38.5-45.2-38.5-73.6V143c0-28.4,17.2-41.4,38.5-29.1l549.6,317.5
			c21.3,12.3,38.5,45.2,38.5,73.6v499.9C1621.7,1033.2,1604.5,1046.3,1583.2,1034z"/>
		<path class="st7" d="M1598.5,423.5L1048.9,106c-8.4-4.9-16.2-5.8-22.5-3.3c-0.8,0.3-15.9,8.1-16.6,8.5c0,0,0,0,0,0
			c6.6-3.2,14.9-2.6,24,2.6l549.6,317.5c21.3,12.3,38.5,45.2,38.5,73.6v499.9c0,17.7-6.7,29.4-16.9,32.8c0.8,0,1.9-0.3,3.4-1.1
			c0.5-0.3,16.5-8.9,16.9-9.3c7.3-5.1,11.9-15.7,11.9-30.2V497.1C1637,468.7,1619.7,435.8,1598.5,423.5z"/>
		<path class="st8" d="M1594.1,425.5l-549.6-317.5c-8.4-4.9-16.2-5.8-22.5-3.3c-0.8,0.3-11.5,6-12.3,6.4c0,0,0,0,0,0
			c6.6-3.2,14.9-2.6,24,2.6l549.6,317.5L1594.1,425.5z"/>
		<path class="st3" d="M1585.1,430.4L1035.5,113c-8.7-5-16.7-5.8-23.2-3c5.5-0.9,11.8,0.5,18.6,4.4l549.6,317.5
			c21.3,12.3,38.5,45.2,38.5,73.6v499.9c0,16.7-6,28.1-15.3,32.1c11.9-1.9,19.9-14.1,19.9-33.5V504
			C1623.6,475.7,1606.3,442.7,1585.1,430.4z"/>
		<path class="st9" d="M1016.8,187.4v455.5c0,22.2,10.6,44,27.7,54.9l543.7,314c0.2,0.1,0.5,0.3,0.9,0.5c4.9,2.8,11-0.7,11-6.4
			V524.4L1016.8,187.4z"/>
		<path class="st10" d="M1599.3,1008.3c-0.4-0.2-0.7-0.4-0.9-0.5l-543.7-314c-17.1-10.9-27.7-32.6-27.7-54.9V193.4l-10.2-5.9v455.5
			c0,22.2,10.6,44,27.7,54.9l543.7,314c0.2,0.1,0.5,0.3,0.9,0.5c4.2,2.4,9.1,0.2,10.6-4C1599.5,1008.3,1599.4,1008.3,1599.3,1008.3z
			"/>
		<g>
			<path class="st11" d="M1569.5,469.7c0,6.7,4.7,14.9,10.6,18.3c5.9,3.4,10.6,0.7,10.6-6c0-6.7-4.7-14.9-10.6-18.3
				C1574.3,460.3,1569.5,463,1569.5,469.7z"/>
			<path class="st4" d="M1542.2,453.8c0,6.7,4.7,14.9,10.6,18.3c5.9,3.4,10.6,0.7,10.6-6c0-6.7-4.7-14.9-10.6-18.3
				C1546.9,444.4,1542.2,447.1,1542.2,453.8z"/>
			<path class="st12" d="M1514.8,438c0,6.7,4.7,14.9,10.6,18.3c5.9,3.4,10.6,0.7,10.6-6c0-6.7-4.7-14.9-10.6-18.3
				C1519.6,428.5,1514.8,431.2,1514.8,438z"/>
		</g>
	</g>
	<path class="st0" d="M1375.4,422.8l-39.9-23c-4-2.3-7.3-0.5-7.3,4.2c0,4.6,3.3,10.3,7.3,12.6l39.9,23c4,2.3,7.3,0.5,7.3-4.2
		C1382.7,430.7,1379.4,425.1,1375.4,422.8z M1441,460.7l-39.9-23c-4-2.3-7.3-0.5-7.3,4.2c0,4.6,3.3,10.3,7.3,12.6l39.9,23
		c4,2.3,7.3,0.5,7.3-4.2C1448.3,468.6,1445,463,1441,460.7z M1506.7,498.6l-39.9-23c-4-2.3-7.3-0.5-7.3,4.2c0,4.6,3.3,10.3,7.3,12.6
		l39.9,23c4,2.3,7.3,0.5,7.3-4.2C1514,506.5,1510.7,500.9,1506.7,498.6z M1572.3,536.5l-39.9-23c-4-2.3-7.3-0.5-7.3,4.2
		c0,4.6,3.3,10.3,7.3,12.6l39.9,23c4,2.3,7.3,0.5,7.3-4.2C1579.6,544.4,1576.3,538.8,1572.3,536.5z"/>
	<g>
		<g>
			<polygon class="st13" points="1217.1,455.7 1217.1,627.3 1235.9,616.3 1235.9,444.2 			"/>
			<polygon class="st7" points="1217.2,455.7 1217.2,627.3 842.8,412.6 842.8,240.5 			"/>
			<polygon class="st0" points="842.8,240.5 1217.2,455.7 1235.9,444.2 861.4,229.2 			"/>
			<polygon class="st6" points="842.8,240.5 1217.2,455.7 1235.9,444.2 1217.2,453.1 			"/>
		</g>
		<g>
			<polygon class="st3" points="1162.4,565.1 1162.4,557.8 1044.2,490.6 1044.2,497.9 			"/>
			<polygon class="st3" points="993,355.1 993,362.3 1191.7,476 1191.7,468.7 			"/>
			<polygon class="st3" points="1063,456 993,415.6 993,422.9 1063,463.3 			"/>
			<polygon class="st3" points="1110.3,513.6 1110.3,520.9 1139.2,536.5 1139.2,529.2 			"/>
			<polygon class="st3" points="1105.8,450.5 993,385.3 993,392.6 1105.8,457.7 			"/>
			<polygon class="st3" points="1034.3,424.3 993,400.5 993,407.8 1034.3,431.6 			"/>
			<polygon class="st3" points="1023.8,471 1103.1,516.8 1103.1,509.5 1023.8,463.7 			"/>
			<polygon class="st3" points="1041.5,428.5 1041.5,435.8 1152.8,499 1152.8,491.7 			"/>
			<polygon class="st3" points="1070.1,460.1 1070.1,467.4 1125.8,499.6 1125.8,492.3 			"/>
			<polygon class="st3" points="1016.7,459.6 993,445.9 993,453.2 1016.7,466.8 			"/>
			<polygon class="st3" points="1113,461.9 1191.7,506.3 1191.7,499 1113,454.6 			"/>
			<polygon class="st3" points="1160,503.1 1191.7,521.4 1191.7,514.1 1160,495.8 			"/>
			<polygon class="st3" points="993,377.5 1191.7,491.1 1191.7,483.8 993,370.2 			"/>
			<polygon class="st3" points="1133,503.7 1191.7,536.5 1191.7,529.3 1133,496.4 			"/>
			<polygon class="st3" points="1037,486.5 993,461 993,468.3 1037,493.7 			"/>
			<polygon class="st3" points="1169.5,569.2 1191.7,582 1191.7,574.7 1169.5,561.9 			"/>
			<polygon class="st3" points="1146.4,540.7 1191.7,566.8 1191.7,559.5 1146.4,533.4 			"/>
			<polygon class="st3" points="993,438.1 1191.7,551.7 1191.7,544.4 993,430.8 			"/>
		</g>
		<path class="st13" d="M951.5,326.2l-65.3-37.8c-11.4-6.6-20.7,0.4-20.7,15.6v75.6c0,15.2,9.3,32.9,20.7,39.5l65.3,37.8
			c11.4,6.6,20.7-0.4,20.7-15.6v-75.6C972.2,350.5,962.9,332.8,951.5,326.2z"/>
		<path class="st14" d="M959.6,450.8L894.3,413c-11.4-6.6-20.7-24.3-20.7-39.5V298c0-4.8,0.9-8.8,2.6-11.8
			c-6.3,1.1-10.6,7.6-10.6,17.9v75.6c0,15.2,9.3,32.9,20.7,39.5l65.3,37.8c7.8,4.5,14.6,2.7,18.1-3.8
			C966.7,453.6,963.2,452.9,959.6,450.8z"/>
		<g>
			<path class="st12" d="M900.8,347.4l-65.3-37.8c-11.4-6.6-20.7,0.4-20.7,15.6v75.6c0,15.2,9.3,32.9,20.7,39.5l65.3,37.8
				c11.4,6.6,20.7-0.4,20.7-15.6v-75.6C921.5,371.7,912.2,354,900.8,347.4z"/>
			<path class="st15" d="M911.5,341.1l-65.3-37.8c-4.9-2.8-9.4-3.1-12.9-1.4l-0.1-0.1l-11.3,6.6l0,0.1c3.6-2.2,8.4-2,13.6,1
				l65.3,37.8c11.4,6.6,20.7,24.3,20.7,39.5v75.6c0,7.4-2.2,12.8-5.8,15.7l6.3-4.1c5.3-3,10.1-7.8,10.1-17.8v-75.6
				C932.1,365.4,922.9,347.7,911.5,341.1z"/>
			<path class="st6" d="M902,346.4l-65.3-37.8c-5.7-3.3-10.8-3.2-14.5-0.4c3.4-1.3,7.5-0.8,12,1.8l65.3,37.8
				c11.4,6.6,20.7,24.3,20.7,39.5v75.6c0,7.7-2.3,13.2-6.1,16c5.2-2,8.6-8.2,8.6-17.4v-75.6C922.6,370.7,913.4,353,902,346.4z"/>
			<path class="st3" d="M832.2,330.5V417l70.8,40.9v-86.5L832.2,330.5z M898.4,450l-61.7-35.7v-76l61.7,35.7V450z"/>
			<path class="st3" d="M887.4,386.7c0,5.7-4,8-8.9,5.1c-4.9-2.9-8.9-9.8-8.9-15.4s4-8,8.9-5.1C883.4,374.2,887.4,381.1,887.4,386.7
				z"/>
			<polygon class="st3" points="834.5,394 853,370.2 871.7,417.5 885.3,406.5 900.3,447.3 900.1,451.5 834.8,416.6 			"/>
		</g>
	</g>
	<g>
		<g>
			<path class="st11" d="M1698.5,397.3c0,11.8-4.1,20.1-10.7,24.1c-0.2,0.1-11.3,7-11.5,7.1c-6.9,3.8-2.5-4.9-12.9-10.9
				c-21-12.1-38-41.4-38-65.5c0-11.9-11-12-4.3-16c0.2-0.1,12.6-7.2,12.8-7.3c6.8-3.7,16.2-3,26.5,2.9
				C1681.5,343.9,1698.5,373.2,1698.5,397.3z"/>
			<path class="st3" d="M1649.9,338.2c-10.1-5.8-19.2-6.6-26-3.2c6.3-1.8,14.2-0.4,22.7,4.5c21,12.1,38,41.4,38,65.5
				c0,12.5-4.6,21.2-12,24.8c9.3-2.6,15.3-11.8,15.3-26.1C1687.9,379.7,1670.9,350.3,1649.9,338.2z"/>
			
				<ellipse transform="matrix(0.8633 -0.5047 0.5047 0.8633 32.133 884.1001)" class="st16" cx="1648.1" cy="382.7" rx="30.9" ry="53.5"/>
		</g>
		<path class="st17" d="M1641.3,367.1c0,3.4-2.4,4.7-5.3,3c-2.9-1.7-5.3-5.8-5.3-9.2c0-3.4,2.4-4.7,5.3-3
			C1638.9,359.6,1641.3,363.7,1641.3,367.1z"/>
		<path class="st17" d="M1662.9,379.6c0,3.4-2.4,4.7-5.3,3c-2.9-1.7-5.3-5.8-5.3-9.2c0-3.4,2.4-4.7,5.3-3
			C1660.5,372.1,1662.9,376.2,1662.9,379.6z"/>
		<path class="st17" d="M1626.6,381.1l5,0.8c2.3,8.7,8.4,17.2,15.3,21.2c6.6,3.8,12.7,2.6,15.1-3.1l4.9,5
			c-3.2,7.6-11.2,9.3-20.1,4.2C1637.8,403.9,1629.6,392.6,1626.6,381.1z"/>
		<path class="st18" d="M1637.5,369.1c-2.9-1.7-5.3-5.8-5.3-9.2c0-1.1,0.3-2,0.7-2.6c-1.4,0.3-2.3,1.6-2.3,3.7
			c0,3.4,2.4,7.5,5.3,9.2c2,1.1,3.7,0.9,4.6-0.4C1639.7,369.9,1638.7,369.7,1637.5,369.1z"/>
		<path class="st18" d="M1659.1,381.5c-2.9-1.7-5.3-5.8-5.3-9.2c0-1.1,0.3-2,0.7-2.6c-1.4,0.3-2.3,1.6-2.3,3.7
			c0,3.4,2.4,7.5,5.3,9.2c2,1.1,3.7,0.9,4.6-0.4C1661.3,382.4,1660.3,382.2,1659.1,381.5z"/>
		<g>
			<path class="st18" d="M1662.6,400.6l-0.6-0.6c-0.6,1.3-1.3,2.4-2.3,3.3C1660.8,402.6,1661.8,401.7,1662.6,400.6z"/>
			<path class="st18" d="M1648.4,408.1c-8.7-5-16.5-15.6-19.8-26.7l-2-0.3c3,11.6,11.2,22.9,20.3,28.1c6.6,3.8,12.8,3.8,16.9,0.4
				C1659.7,411.8,1654.2,411.4,1648.4,408.1z"/>
		</g>
	</g>
	<g>
		<g>
			<polygon class="st13" points="1679.9,774.8 1679.9,984.3 1698.6,973.4 1698.6,763.3 			"/>
			<polygon class="st7" points="1679.9,774.8 1679.9,984.3 1270.2,749.4 1270.2,539.3 			"/>
			<polygon class="st0" points="1270.2,539.3 1679.9,774.8 1698.6,763.3 1288.7,528 			"/>
			<polygon class="st6" points="1270.2,539.3 1679.9,774.8 1698.6,763.3 1679.9,772.2 			"/>
		</g>
		
			<ellipse transform="matrix(0.8633 -0.5047 0.5047 0.8633 -201.1435 916.2048)" class="st13" cx="1590.7" cy="829.4" rx="52.3" ry="90.7"/>
		<path class="st14" d="M1596.9,897.8c-35.5-20.5-64.3-70.2-64.3-110.9c0-15.2,4-27,10.9-34.8c-10.6,7-17,20.9-17,40.2
			c0,40.8,28.8,90.4,64.3,110.9c22.3,12.9,41.9,11.2,53.4-1.9C1632.4,909.2,1615.6,908.6,1596.9,897.8z"/>
		<g>
			<path class="st13" d="M1410.3,654.4l-13.8-8v155.8l13.8,8V654.4z M1430.2,646.6l-13.8-8v174.9l13.8,8V646.6z M1450.7,681.8
				l-13.8-8v151.5l13.8,8V681.8z M1355.4,692.7v85.4l13.8,8v-85.4L1355.4,692.7z M1389.8,669l-13.8-8v128.8l13.8,8V669z M1470.8,725
				l-13.8-8V837l13.8,8V725z M1490.5,774.5l-13.8-8v82l13.8,8V774.5z M1348.8,677.9l-13.8-8v95.8l13.8,8V677.9z M1293.9,683.6v58
				l13.8,8v-58L1293.9,683.6z M1328.3,660.8l-13.8-8v100.5l13.8,8V660.8z"/>
			<path class="st1" d="M1410.3,715.5l-13.8-8v94.6l13.8,8V715.5z M1430.2,672.5l-13.8-8v149l13.8,8V672.5z M1450.7,709.4l-13.8-8
				v123.8l13.8,8V709.4z M1355.4,713.5v64.6l13.8,8v-64.6L1355.4,713.5z M1389.8,711l-13.8-8v86.8l13.8,8V711z M1348.8,685.8
				l-13.8-8v87.9l13.8,8V685.8z M1293.9,724.8v16.8l13.8,8v-16.8L1293.9,724.8z M1328.3,724.9l-13.8-8v36.5l13.8,8V724.9z
				 M1470.8,747.3l-13.8-8V837l13.8,8V747.3z M1490.5,786.6l-13.8-8v69.8l13.8,8V786.6z"/>
			<g>
				<polygon class="st3" points="1450.7,711.2 1436.8,703.2 1436.8,701.4 1450.7,709.4 				"/>
				<polygon class="st3" points="1430.2,674.2 1416.4,666.3 1416.4,664.5 1430.2,672.5 				"/>
				<polygon class="st3" points="1490.5,788.4 1476.7,780.4 1476.7,778.7 1490.5,786.6 				"/>
				<polygon class="st3" points="1410.3,717.3 1396.4,709.3 1396.4,707.6 1410.3,715.5 				"/>
				<polygon class="st3" points="1470.8,749.1 1457,741.1 1457,739.4 1470.8,747.3 				"/>
				<polygon class="st3" points="1328.3,726.6 1314.4,718.6 1314.4,716.9 1328.3,724.9 				"/>
				<polygon class="st3" points="1348.8,687.5 1334.9,679.5 1334.9,677.8 1348.8,685.8 				"/>
				<polygon class="st3" points="1307.8,732.8 1307.8,734.5 1293.9,726.6 1293.9,724.8 				"/>
				<polygon class="st3" points="1389.8,712.7 1375.9,704.7 1375.9,703 1389.8,711 				"/>
				<polygon class="st3" points="1369.3,723.2 1355.4,715.2 1355.4,713.5 1369.3,721.5 				"/>
			</g>
		</g>
		<g>
			<g>
				<path class="st11" d="M1527.5,802.2c0.8-30.8,23.2-43,50.7-27.2c14.1,8.2,26.9,22.2,36.2,38.3l10.1-2.5
					c-11.5-20.9-28-39.4-46.3-50c-34.6-20-62.7-4.2-63.1,35.1l8.1,7.4L1527.5,802.2z"/>
				<path class="st11" d="M1603.6,898.3c-7.5,0.7-16.2-1.4-25.5-6.8c-26-15-47.5-50-50.4-80.7l-12.4-6.3c0,0.2-4.1,1.1-4.1,1.3
					c3.6,38.2,34.5,81.1,66.9,99.8c11.8,6.8,19.7,10.4,29.2,9.4c0.4,0,3.8-1,4.2-1.1L1603.6,898.3z"/>
				<path class="st11" d="M1619.1,822.6c6.2,13.2,9.8,27.2,9.8,40c0,18.4-7.5,30.5-19.2,34.5l7.9,15.5c14.4-5,23.7-20,23.7-42.8
					c0-15.9-4.5-33.3-12.1-49.7L1619.1,822.6z"/>
			</g>
			<path class="st11" d="M1595.6,848.1c-3.4-2.9-6.5-6.6-8.9-10.7c-1.5-2.5-1.4-5.1,0-6c1.9-1.1,3.5-2.8,4.5-5.1
				c1.6,0.4,3.5-0.1,3.5-2.3c0-2.2-1-4.6-2.3-5.8c-0.4-9.3-3.6-18.9-14.3-25.1c-3.8-2.2-6.6-2.9-8.7-2.5c-0.5,0.1-4.8,1.2-5.2,1.4
				c-2.9,1.4-0.2,4.6-0.4,9.6c-1.3-0.3-2.3,1-2.3,3.2c0,2.1,1.9,4.9,3.5,6.3c1.1,3.5,2.7,7.1,4.5,10.3c1.4,2.5,1.5,5.2,0,6
				c-2.4,1.3-5.5,1.4-8.9,0.4c-1.4-0.4-2.6-0.5-3.7-0.1c-0.3,0.1-4.1,1.1-4.4,1.2c-2,1,0.3,2.5,0.3,5.8v9.6c0,1.9,1.3,4.1,2.9,5.1
				l41.3,27.3c0.7,0.4,4.8-1,5.3-1.2c0.7-0.2,1.1-0.9,1.1-2v-9.6C1603.5,858.6,1600.1,852,1595.6,848.1z"/>
			<g>
				<path class="st3" d="M1524.7,803c0.8-30.8,23.2-43,50.7-27.2c14.1,8.2,26.9,22.2,36.2,38.3l10.1-2.5c-11.5-20.9-28-39.4-46.3-50
					c-34.6-20-62.7-4.2-63.1,35.1L1524.7,803z"/>
				<path class="st3" d="M1600.9,899.1c-7.5,0.7-16.2-1.4-25.5-6.8c-26-15-47.5-50-50.4-80.7l-12.4-6.3
					c3.3,38.3,30.2,82.3,62.8,101.1c12.3,7.1,23.7,9.6,33.4,8.3L1600.9,899.1z"/>
				<path class="st3" d="M1616.4,823.4c6.2,13.2,9.8,27.2,9.8,40c0,18.4-7.5,30.5-19.2,34.5l7.9,15.5c14.4-5,23.7-20,23.7-42.8
					c0-15.9-4.5-33.3-12.1-49.7L1616.4,823.4z"/>
			</g>
			<path class="st3" d="M1592.8,848.9c-3.4-2.9-6.5-6.6-8.9-10.7c-1.5-2.5-1.4-5.1,0-6c1.9-1.1,3.5-2.8,4.5-5.1
				c1.6,0.4,3.5-0.1,3.5-2.3c0-2.2-1-4.6-2.3-5.8c-0.4-9.3-3.6-18.9-14.3-25.1c-10.7-6.2-13.9-0.3-14.3,8.6c-1.3-0.3-2.3,1-2.3,3.2
				c0,2.1,1.9,4.9,3.5,6.3c1.1,3.5,2.7,7.1,4.5,10.3c1.4,2.5,1.5,5.2,0,6c-2.4,1.3-5.5,1.4-8.9,0.4c-4.5-1.4-7.9,1.4-7.9,6.9v9.6
				c0,1.9,1.3,4.1,2.9,5.1l44.7,25.8c1.6,0.9,2.9,0.2,2.9-1.7v-9.6C1600.7,859.3,1597.4,852.8,1592.8,848.9z"/>
			<g>
				<path class="st19" d="M1523.1,803.4c0.8-30.8,23.2-43,50.7-27.2c14.1,8.2,26.9,22.2,36.2,38.3l10.1-2.5
					c-11.5-20.9-28-39.4-46.3-50c-34.6-20-62.7-4.2-63.1,35.1L1523.1,803.4z"/>
				<path class="st19" d="M1599.3,899.5c-7.5,0.7-16.2-1.4-25.5-6.8c-26-15-47.5-50-50.4-80.7l-12.4-6.3
					c3.3,38.3,30.2,82.3,62.8,101.1c12.3,7.1,23.7,9.6,33.4,8.3L1599.3,899.5z"/>
				<path class="st19" d="M1614.8,823.8c6.2,13.2,9.8,27.2,9.8,40c0,18.4-7.5,30.5-19.2,34.5l7.9,15.5c14.4-5,23.7-20,23.7-42.8
					c0-15.9-4.5-33.3-12.1-49.7L1614.8,823.8z"/>
			</g>
			<path class="st19" d="M1591.3,849.3c-3.4-2.9-6.5-6.6-8.9-10.7c-1.5-2.5-1.4-5.1,0-6c1.9-1.1,3.5-2.8,4.5-5.1
				c1.6,0.4,3.5-0.1,3.5-2.3c0-2.2-1-4.6-2.3-5.8c-0.4-9.3-3.6-18.9-14.3-25.1c-10.7-6.2-13.9-0.3-14.3,8.6c-1.3-0.3-2.3,1-2.3,3.2
				c0,2.1,1.9,4.9,3.5,6.3c1.1,3.5,2.7,7.1,4.5,10.3c1.4,2.5,1.5,5.2,0,6c-2.4,1.3-5.5,1.4-8.9,0.4c-4.5-1.4-7.9,1.4-7.9,6.9v9.6
				c0,1.9,1.3,4.1,2.9,5.1l44.7,25.8c1.6,0.9,2.9,0.2,2.9-1.7v-9.6C1599.1,859.7,1595.8,853.1,1591.3,849.3z"/>
		</g>
	</g>
	<g>
		<g>
			<polygon class="st15" points="1272.4,722.1 1272.4,809.9 1287.1,801.8 1287.1,713.5 			"/>
			<polygon class="st12" points="1272.5,722.1 1272.5,809.9 947.7,622.4 947.7,534.1 			"/>
			<polygon class="st20" points="947.7,534.1 1272.5,722.1 1287.1,713.5 962.3,525.7 			"/>
			<polygon class="st6" points="947.7,534.1 1272.5,722.1 1287.1,713.5 1272.8,719.8 			"/>
		</g>
		<polygon class="st3" points="1256,783.3 963.8,612.7 963.8,561 1256,731.6 		"/>
		<g>
			<path class="st14" d="M976,575.6l5.9,3.4l2.7,28.2l0.1,0.1l2.9-25l6.7,3.9l2.9,28.3l0.1,0.1l2.7-25.1l5.3,3.1l-4,34.7l-7.6-4.4
				l-2.8-24l-0.1-0.1l-2.8,20.8l-8.1-4.7L976,575.6z"/>
			<path class="st14" d="M1011,596l5.9,3.4l2.7,28.2l0.1,0.1l2.9-25l6.7,3.9l2.9,28.3l0.1,0.1l2.7-25.1l5.3,3.1l-4,34.7l-7.6-4.4
				l-2.8-24l-0.1-0.1l-2.8,20.8l-8.1-4.7L1011,596z"/>
			<path class="st14" d="M1046.3,616l5.9,3.4l2.7,28.2l0.1,0.1l2.9-25l6.7,3.9l2.9,28.3l0.1,0.1l2.7-25.1l5.3,3.1l-4,34.7l-7.6-4.4
				l-2.8-24l-0.1-0.1l-2.8,20.8l-8.1-4.7L1046.3,616z"/>
		</g>
	</g>
	<g>
		<g>
			<polygon class="st11" points="1095.2,270.5 1095.2,331.7 1104.4,326.6 1104.4,264.9 			"/>
			<polygon class="st16" points="1095.2,270.5 1095.2,331.7 1040.8,300.2 1040.8,238.5 			"/>
			<polygon class="st19" points="1040.8,238.5 1095.2,270.5 1104.4,264.9 1049.8,233.1 			"/>
			<polygon class="st3" points="1040.8,238.5 1095.2,270.5 1104.4,264.9 1094.8,267.5 			"/>
		</g>
		<g>
			<polygon class="st5" points="1143.1,250 1143.1,349.1 1158,340.9 1158,241 			"/>
			<polygon class="st21" points="1055,198.3 1143.2,250 1158,241 1069.6,189.6 			"/>
			<polygon class="st6" points="1055,198.3 1143.2,250 1158,241 1143.6,247.9 			"/>
		</g>
		<polygon class="st4" points="1055,198.3 1055,239.4 1101.7,266.8 1101.7,325.1 1143.2,349.1 1143.2,250 		"/>
	</g>
	<g>
		<g>
			<polygon class="st15" points="1331.6,489.3 1331.6,557.8 1342,552.1 1342,483.1 			"/>
			<polygon class="st12" points="1331.7,489.3 1331.7,557.8 1270.8,522.6 1270.8,453.6 			"/>
			<polygon class="st20" points="1270.8,453.6 1331.7,489.3 1342,483.1 1280.9,447.6 			"/>
			<polygon class="st6" points="1270.8,453.6 1331.7,489.3 1342,483.1 1331.2,486 			"/>
		</g>
		<g>
			<polygon class="st15" points="1411.6,535.5 1411.6,603.9 1421.9,598.2 1421.9,529.2 			"/>
			<polygon class="st12" points="1411.7,535.5 1411.7,603.9 1350.7,568.7 1350.7,499.7 			"/>
			<polygon class="st20" points="1350.7,499.7 1411.7,535.5 1421.9,529.2 1360.9,493.7 			"/>
			<polygon class="st6" points="1350.7,499.7 1411.7,535.5 1421.9,529.2 1411.1,532.2 			"/>
		</g>
		<g>
			<polygon class="st15" points="1491,581.1 1491,649.5 1501.3,643.8 1501.3,574.8 			"/>
			<polygon class="st12" points="1491.1,581.1 1491.1,649.5 1430.2,614.3 1430.2,545.3 			"/>
			<polygon class="st20" points="1430.2,545.3 1491.1,581.1 1501.3,574.8 1440.3,539.3 			"/>
			<polygon class="st6" points="1430.2,545.3 1491.1,581.1 1501.3,574.8 1490.6,577.8 			"/>
		</g>
		<g>
			<polygon class="st15" points="1569.4,625.6 1569.4,694 1579.7,688.4 1579.7,619.4 			"/>
			<polygon class="st12" points="1569.5,625.6 1569.5,694 1508.6,658.9 1508.6,589.9 			"/>
			<polygon class="st20" points="1508.6,589.9 1569.5,625.6 1579.7,619.4 1518.7,583.9 			"/>
			<polygon class="st6" points="1508.6,589.9 1569.5,625.6 1579.7,619.4 1568.9,622.3 			"/>
		</g>
		<path class="st3" d="M1472.8,610c-2.2-1.8-4.1-4.2-5.6-6.7c-0.9-1.6-0.9-3.3,0-3.8c1.2-0.7,2.2-1.8,2.9-3.2c1,0.3,2.2-0.1,2.2-1.4
			c0-1.4-0.6-2.9-1.4-3.6c-0.2-5.9-2.3-12-9.1-15.9c-6.8-3.9-8.8-0.2-9.1,5.5c-0.8-0.2-1.4,0.6-1.4,2c0,1.4,1.2,3.1,2.2,4
			c0.7,2.2,1.7,4.5,2.9,6.5c0.9,1.6,0.9,3.3,0,3.8c-1.5,0.8-3.5,0.9-5.6,0.2c-2.9-0.9-5,0.9-5,4.4v6.1c0,1.2,0.8,2.6,1.9,3.2
			l28.3,16.3c1,0.6,1.9,0.1,1.9-1.1v-6.1C1477.7,616.6,1475.6,612.5,1472.8,610z"/>
		<path class="st3" d="M1519.6,654l9.9,5.7V642l-9.9-5.7V654z M1535.2,663.1l9.9,5.7v-32.4l-9.9-5.7V663.1z M1550.8,624.9v47.2
			l9.9,5.7v-47.2L1550.8,624.9z"/>
		<path class="st3" d="M1397.1,561.8c0-0.9-0.1-1.9-0.2-2.8l4.7-0.6c-0.5-2.3-1.2-4.7-2.1-7.1l-5.3-1.6c-0.9-2-2-3.9-3.3-5.7
			l1.3-5.4c-1.6-2-3.3-3.8-5.1-5.4l-2.9,3.7c-0.8-0.6-1.5-1.1-2.3-1.6c-0.8-0.5-1.6-0.8-2.3-1.1l-2.9-7c-1.8-0.5-3.5-0.7-5.1-0.5
			l1.3,6.8c-1.3,0.3-2.4,1-3.3,1.9l-5.3-4.5c-0.9,1.3-1.6,2.8-2.1,4.6l4.7,6c-0.1,0.8-0.2,1.7-0.2,2.6c0,0.9,0.1,1.9,0.2,2.8
			l-4.7,0.6c0.5,2.3,1.2,4.7,2.1,7.1l5.3,1.6c0.9,2,2,3.9,3.3,5.7l-1.3,5.4c1.6,2,3.3,3.8,5.1,5.4l2.9-3.7c0.8,0.6,1.5,1.1,2.3,1.6
			c0.8,0.5,1.6,0.8,2.3,1.1l2.9,7c1.8,0.5,3.5,0.7,5.1,0.5l-1.3-6.8c1.3-0.3,2.4-1,3.3-1.9l5.3,4.5c0.9-1.3,1.6-2.8,2.1-4.6l-4.7-6
			C1397,563.5,1397.1,562.7,1397.1,561.8z M1381.8,560c-3.4-2-6.1-6.7-6.1-10.6c0-3.9,2.7-5.5,6.1-3.5c3.4,2,6.1,6.7,6.1,10.6
			S1385.2,562,1381.8,560z"/>
		<g>
			<path class="st3" d="M1282.1,480.8l19.6,30.6l19.6-8c0,0,0,0,0,0c-0.6-0.9-1.4-1.8-2.3-2.3l-34.6-20
				C1283.5,480.8,1282.7,480.6,1282.1,480.8C1282.1,480.8,1282.1,480.8,1282.1,480.8z"/>
			<path class="st3" d="M1321.4,503.6l-19.7,11.2l-5.6-9.6l-14,5.7c0,0,0-0.1-0.1-0.1l13.1-7.4l-13-22.5c-0.9,0.3-1.5,1.2-1.5,2.6
				v23.4c0,2.4,1.7,5.4,3.8,6.6l34.6,20c2.1,1.2,3.8,0.2,3.8-2.2v-23.4C1322.8,506.5,1322.3,504.9,1321.4,503.6z M1321.3,533.5
				l-14-21.9l1-0.6L1321.3,533.5C1321.4,533.5,1321.3,533.5,1321.3,533.5z"/>
		</g>
	</g>
	<g>
		<g>
			<polygon class="st13" points="1024.9,689.4 1024.9,777.1 1038.8,769.3 1038.8,681 			"/>
			<polygon class="st7" points="1025,689.4 1025,777.1 789.3,641.1 789.3,552.9 			"/>
			<polygon class="st0" points="789.3,552.9 1025,689.4 1038.8,681 803,544.7 			"/>
			<polygon class="st6" points="789.3,552.9 1025,689.4 1038.8,681 1024.4,686.8 			"/>
		</g>
		<path class="st3" d="M880.4,620l-43.1-24.9c-2.6-1.5-4.8-0.3-4.8,2.7V627c0,3,2.1,6.7,4.8,8.3l26.9,15.5l13.5,23.2v-15.5l2.7,1.6
			c2.6,1.5,4.8,0.3,4.8-2.7v-29.2C885.2,625.2,883,621.5,880.4,620z M850,625.4c-1.4,0.8-3.7-0.5-5.1-2.9s-1.4-5,0-5.8
			c1.4-0.8,3.7,0.5,5.1,2.9S851.4,624.6,850,625.4z M861.7,632.1c-1.4,0.8-3.7-0.5-5.1-2.9c-1.4-2.4-1.4-5,0-5.8
			c1.4-0.8,3.7,0.5,5.1,2.9C863.1,628.7,863.1,631.4,861.7,632.1z M873.3,638.9c-1.4,0.8-3.7-0.5-5.1-2.9c-1.4-2.4-1.4-5,0-5.8
			c1.4-0.8,3.7,0.5,5.1,2.9C874.7,635.5,874.7,638.1,873.3,638.9z M828.9,624.9v-23.7l-16.5-9.5c-2.6-1.5-4.8-0.3-4.8,2.7v29.2
			c0,3,2.1,6.7,4.8,8.3l2.7,1.6v15.5l13.5-7.7l26.9,15.5c2.6,1.5,4.8,0.3,4.8-2.7v-1.4l-23-13.3
			C832.7,636.7,828.9,630.2,828.9,624.9z"/>
		<polygon class="st3" points="895,634.6 895,641.9 1007.6,706.9 1007.6,699.6 		"/>
		<polygon class="st3" points="972,709.4 895,664.9 895,672.2 972,716.7 		"/>
		<polygon class="st3" points="895,657.1 1007.6,722.1 1007.6,714.8 895,649.8 		"/>
	</g>
	<g>
		<path class="st22" d="M1182,872.8l-73.2-41.1c6.3-4.6,10-10.1,10-16.1c0-16.4-27.9-29.6-62.4-29.6c-34.5,0-62.4,13.3-62.4,29.6
			c0,16.4,27.9,29.6,62.4,29.6c7.2,0,14.1-0.6,20.5-1.7l78.8,44.3c5.1,2.9,14,2.6,19.9-0.8C1182.1,883.8,1189.8,877.5,1182,872.8z"
			/>
		<g>
			<g>
				<path class="st10" d="M1181.7,864.8c4.4,8.1,1.3,18.3-6.8,22.7c-8.1,4.4-18.3,1.3-22.7-6.8c-4.4-8.1-1.3-18.3,6.8-22.7
					C1167.2,853.6,1177.3,856.6,1181.7,864.8z"/>
				<path class="st14" d="M1128.7,759.4l-36.3,19.5l54.1,99.8l0,0c0,0,0,0.1,0.1,0.1c3.1,5.8,13.8,6.2,23.8,0.8
					c10-5.4,15.6-14.5,12.4-20.3c0,0-0.1-0.1-0.1-0.1l0,0L1128.7,759.4z"/>
				<path class="st13" d="M1128.8,759.5c3.1,5.8-2.4,14.9-12.4,20.3c-10,5.4-20.7,5-23.8-0.8c-3.1-5.8,2.4-14.9,12.4-20.3
					C1115,753.3,1125.6,753.7,1128.8,759.5z"/>
				<path class="st10" d="M1105,732.9l-21.6,11.6l15.3,28.5l0,0c0,0,0,0.1,0,0.1c1.9,3.5,8.2,3.7,14.2,0.5c6-3.2,9.3-8.6,7.4-12.1
					c0,0,0-0.1-0.1-0.1l0,0L1105,732.9z"/>
			</g>
			<g>
				<path class="st0" d="M1044.1,504.1c-26.9-15.5-51.2-17.3-69-7.6c-0.5,0.3-26.1,14.5-26.9,15.8c18.1-13.7,45-13.5,74.9,3.8
					c54.6,31.5,98.9,107.9,98.9,170.6c0,32-11.5,54.2-30.1,64.1c1.3-0.4,2.9-1,4.8-2.1c0.5-0.3,18-10.9,18.5-11.2
					c17.2-10.5,27.7-32.2,27.7-62.8C1143,612,1098.7,535.7,1044.1,504.1z"/>
			</g>
			<path class="st2" d="M1023.1,516.1c-54.6-31.5-98.9-6.3-98.9,56.4c0,62.7,44.3,139,98.9,170.6c54.6,31.5,98.9,6.3,98.9-56.4
				S1077.7,547.6,1023.1,516.1z M1021.6,728.1c-46.3-26.8-83.9-91.6-83.9-144.7c0-53.2,37.6-74.6,83.9-47.8
				c46.3,26.8,83.9,91.6,83.9,144.7C1105.5,733.4,1068,754.9,1021.6,728.1z"/>
			<path class="st0" d="M1039,718.4c-46.3-26.8-83.9-91.6-83.9-144.7c0-21.7,6.3-38.1,16.8-48.1c-20.7,5.6-34.2,26-34.2,57.8
				c0,53.2,37.6,118,83.9,144.7c27.4,15.8,51.8,14.8,67.1,0.3C1074.8,732.1,1057.6,729.1,1039,718.4z"/>
			<path class="st3" d="M1027.8,513.7c-26.2-15.1-50-17.2-67.7-8.3c16.5-4.6,40.7-2.1,62.9,10.7c54.6,31.5,98.9,107.9,98.9,170.6
				c0,32.6-15.8,56-35,65.6c24.1-6.8,39.8-30.8,39.8-68C1126.7,621.6,1082.5,545.3,1027.8,513.7z"/>
		</g>
	</g>
</g>
</svg>
