<?xml version="1.0" encoding="utf-8"?>
<!-- Generator: Adobe Illustrator 24.2.3, SVG Export Plug-In . SVG Version: 6.00 Build 0)  -->
<svg version="1.1" id="Capa_1" xmlns="http://www.w3.org/2000/svg" xmlns:xlink="http://www.w3.org/1999/xlink" x="0px" y="0px"
	 viewBox="0 0 1920 1080" style="enable-background:new 0 0 1920 1080;" xml:space="preserve">
<style type="text/css">
	.st0{clip-path:url(#SVGID_2_);}
	.st1{fill:#F1F1F4;}
	.st2{clip-path:url(#SVGID_2_);fill:#E0F3FF;}
	.st3{fill:url(#SVGID_3_);}
	.st4{fill:url(#SVGID_4_);}
	.st5{fill:#E5E2FF;}
	.st6{fill:url(#SVGID_5_);}
	.st7{opacity:0.62;fill:url(#SVGID_6_);}
	.st8{opacity:0.62;fill:url(#SVGID_7_);}
	.st9{opacity:0.5;fill:url(#SVGID_8_);}
	.st10{fill:#FFFFFF;}
	.st11{fill:url(#SVGID_9_);}
	.st12{opacity:0.5;fill:url(#SVGID_10_);}
	.st13{opacity:0.5;fill:url(#SVGID_11_);}
	.st14{fill:url(#SVGID_12_);}
	.st15{fill:url(#SVGID_13_);}
	.st16{opacity:0.76;fill:url(#SVGID_14_);}
	.st17{opacity:0.76;fill:url(#SVGID_15_);}
	.st18{opacity:0.76;fill:url(#SVGID_16_);}
	.st19{fill:#FE9083;}
	.st20{fill:url(#SVGID_17_);}
	.st21{opacity:0.5;fill:url(#SVGID_18_);}
	.st22{fill:url(#SVGID_19_);}
	.st23{opacity:0.5;fill:url(#SVGID_20_);}
	.st24{fill:url(#SVGID_21_);}
	.st25{fill:url(#SVGID_22_);}
	.st26{fill:#CB4D7A;}
	.st27{fill:#EE8183;}
	.st28{fill:url(#SVGID_23_);}
	.st29{opacity:0.6;fill:url(#SVGID_24_);}
	.st30{fill:url(#SVGID_25_);}
	.st31{fill:#E28183;}
	.st32{opacity:0.91;fill:url(#SVGID_26_);}
	.st33{fill:url(#SVGID_27_);}
	.st34{opacity:0.6;fill:url(#SVGID_28_);}
	.st35{fill:url(#SVGID_29_);}
	.st36{fill:url(#SVGID_30_);}
	.st37{opacity:0.91;fill:url(#SVGID_31_);}
	.st38{opacity:0.5;fill:url(#SVGID_32_);}
	.st39{opacity:0.5;fill:url(#SVGID_33_);}
	.st40{opacity:0.5;fill:url(#SVGID_34_);}
	.st41{opacity:0.5;fill:url(#SVGID_35_);}
	.st42{opacity:0.5;fill:url(#SVGID_36_);}
	.st43{opacity:0.5;fill:url(#SVGID_37_);}
	.st44{opacity:0.5;fill:url(#SVGID_38_);}
	.st45{opacity:0.5;fill:url(#SVGID_39_);}
	.st46{opacity:0.5;fill:url(#SVGID_40_);}
	.st47{opacity:0.76;fill:url(#SVGID_41_);}
	.st48{opacity:0.5;fill:url(#SVGID_42_);}
	.st49{opacity:0.3;fill:url(#SVGID_43_);}
	.st50{opacity:0.5;fill:url(#SVGID_44_);}
	.st51{opacity:0.5;fill:url(#SVGID_45_);}
	.st52{opacity:0.5;fill:url(#SVGID_46_);}
	.st53{opacity:0.5;fill:url(#SVGID_47_);}
	.st54{fill:url(#SVGID_48_);}
	.st55{fill:#EBEFFF;}
	.st56{opacity:0.5;fill:url(#SVGID_49_);}
	.st57{opacity:0.3;fill:url(#SVGID_50_);}
	.st58{opacity:0.5;fill:url(#SVGID_51_);}
	.st59{opacity:0.5;fill:url(#SVGID_52_);}
	.st60{opacity:0.5;fill:url(#SVGID_53_);}
	.st61{opacity:0.5;fill:#7A4AC0;}
	.st62{fill:url(#SVGID_54_);}
	.st63{fill:url(#SVGID_55_);}
	.st64{fill:url(#SVGID_56_);}
	.st65{opacity:0.6;fill:url(#SVGID_57_);}
	.st66{fill:#38368E;}
	.st67{fill:url(#SVGID_58_);}
	.st68{fill:url(#SVGID_59_);}
	.st69{fill:#FFEBED;}
	.st70{fill:#7F9EC9;}
	.st71{fill:#131163;}
	.st72{fill:#C6659C;}
	.st73{fill:#CB5F7D;}
	.st74{fill:#9F4A8B;}
	.st75{fill:#FFBCAF;}
	.st76{opacity:0.6;fill:url(#SVGID_60_);}
	.st77{fill:url(#SVGID_61_);}
	.st78{fill:#D2726C;}
	.st79{opacity:0.6;fill:url(#SVGID_62_);}
	.st80{opacity:0.6;fill:url(#SVGID_63_);}
	.st81{opacity:0.5;fill:url(#SVGID_64_);}
	.st82{fill:url(#SVGID_65_);}
	.st83{fill:url(#SVGID_66_);}
	.st84{fill:url(#SVGID_67_);}
	.st85{opacity:0.8;fill:url(#SVGID_68_);}
	.st86{opacity:0.8;fill:url(#SVGID_69_);}
	.st87{fill:#34C7FF;}
	.st88{fill:url(#SVGID_70_);}
	.st89{fill:url(#SVGID_71_);}
	.st90{fill:url(#SVGID_72_);}
	.st91{opacity:0.6;fill:#36D1F7;}
	.st92{fill:#744CA2;}
	.st93{opacity:0.6;fill:url(#SVGID_73_);}
	.st94{opacity:0.3;fill:url(#SVGID_74_);}
	.st95{opacity:0.3;fill:url(#SVGID_75_);}
	.st96{opacity:0.3;fill:url(#SVGID_76_);}
	.st97{opacity:0.3;fill:url(#SVGID_77_);}
	.st98{fill:#D1D4FB;}
	.st99{fill:#E0FFFF;}
	.st100{fill:url(#SVGID_78_);}
	.st101{fill:url(#SVGID_79_);}
	.st102{opacity:0.81;fill:url(#SVGID_80_);}
	.st103{fill:#473DA2;}
	.st104{clip-path:url(#SVGID_2_);fill:url(#SVGID_81_);}
	.st105{clip-path:url(#SVGID_2_);fill:url(#SVGID_82_);}
	.st106{clip-path:url(#SVGID_2_);fill:url(#SVGID_83_);}
	.st107{clip-path:url(#SVGID_2_);fill:url(#SVGID_84_);}
	.st108{clip-path:url(#SVGID_2_);fill:url(#SVGID_85_);}
	.st109{clip-path:url(#SVGID_2_);fill:url(#SVGID_86_);}
	.st110{opacity:0.73;fill:url(#SVGID_87_);}
	.st111{fill:#953DA2;}
	.st112{opacity:0.73;fill:url(#SVGID_88_);}
	.st113{fill-rule:evenodd;clip-rule:evenodd;fill:url(#SVGID_89_);}
	.st114{fill-rule:evenodd;clip-rule:evenodd;fill:url(#SVGID_90_);}
	.st115{fill-rule:evenodd;clip-rule:evenodd;fill:url(#SVGID_91_);}
	.st116{opacity:0.5;fill-rule:evenodd;clip-rule:evenodd;fill:#601734;}
	.st117{fill-rule:evenodd;clip-rule:evenodd;fill:#B3D9FF;}
	.st118{clip-path:url(#SVGID_2_);fill:#FF1D9C;}
	.st119{clip-path:url(#SVGID_2_);fill:#6877FF;}
	.st120{clip-path:url(#SVGID_2_);fill:#4F31E0;}
	.st121{fill-rule:evenodd;clip-rule:evenodd;fill:url(#SVGID_92_);}
	.st122{fill-rule:evenodd;clip-rule:evenodd;fill:url(#SVGID_93_);}
	.st123{fill-rule:evenodd;clip-rule:evenodd;fill:url(#SVGID_94_);}
	.st124{fill-rule:evenodd;clip-rule:evenodd;fill:url(#SVGID_95_);}
</style>
<g>
	<defs>
		<rect id="SVGID_1_" x="578.2" y="97" width="1474.3" height="982.9"/>
	</defs>
	<clipPath id="SVGID_2_">
		<use xlink:href="#SVGID_1_"  style="overflow:visible;"/>
	</clipPath>
	<g class="st0">
		<path class="st1" d="M942.4,578.8c0-0.6,0.3-0.9,0.9-0.9l16.5,0.5c1.6,0,3,0.3,4.1,0.7c1.1,0.4,2,1.1,2.7,1.8
			c0.7,0.8,1.2,1.7,1.5,2.8c0.3,1.1,0.4,2.3,0.4,3.6l-0.1,4.5c0,1.3-0.2,2.5-0.6,3.6c-0.4,1.1-0.9,2-1.6,2.7
			c-0.7,0.7-1.7,1.3-2.8,1.7c-1.2,0.4-2.6,0.5-4.2,0.5l-8.9-0.3l-1.8-5.2l-0.2,0l-0.2,5.1l-6.2-0.2L942.4,578.8z M948.1,594.4
			l10.5,0.3c1.2,0,2-0.2,2.6-0.7c0.5-0.5,0.8-1.4,0.8-2.8l0.1-3.7c0-1.4-0.2-2.3-0.7-2.8c-0.5-0.5-1.3-0.8-2.5-0.8l-10.1-0.3
			c-0.1,0-0.3,0-0.3,0.1c-0.1,0.1-0.1,0.2-0.1,0.3L948.1,594.4z"/>
		<path class="st1" d="M977.4,588.3l-0.2,0l-0.2,6.6c0,0.3,0.1,0.4,0.4,0.4l18.5,0.6l-0.2,5.7l-24.3-0.7c-0.6,0-0.9-0.3-0.8-0.9
			l0.6-20.2c0-0.6,0.3-0.9,0.9-0.9l23.6,0.7c0.6,0,0.9,0.3,0.9,0.9l-0.2,5.7l-5.8,2l-0.2,0l0.1-2.9c0-0.2-0.1-0.3-0.3-0.3l-12.5-0.4
			c-0.2,0-0.3,0-0.3,0.1c-0.1,0.1-0.1,0.2-0.1,0.3l-0.1,2.7l10.3,0.3l-0.1,4.5l-8.6-0.3L977.4,588.3z"/>
		<path class="st1" d="M1018.6,587.9l-0.2,0l0.1-2.4c0-0.2-0.1-0.4-0.4-0.4l-11.6-0.4c-0.4,0-0.7,0.1-0.9,0.2
			c-0.2,0.2-0.3,0.4-0.3,0.8l0,0.5c0,0.4,0,0.7,0.2,0.8c0.1,0.1,0.4,0.2,0.8,0.3l13.6,2.3c0.9,0.1,1.6,0.4,2.2,0.6
			c0.6,0.3,1.1,0.6,1.4,1c0.4,0.4,0.6,0.9,0.8,1.6c0.1,0.6,0.2,1.3,0.2,2.1l-0.1,1.7c0,0.9-0.2,1.7-0.4,2.4
			c-0.2,0.7-0.6,1.3-1.1,1.7c-0.5,0.5-1.2,0.8-2,1c-0.8,0.2-1.9,0.3-3.1,0.3l-19.6-0.6l0.2-5.7l17.5,0.5c0.5,0,0.9-0.1,1.1-0.3
			c0.2-0.2,0.3-0.5,0.3-1l0-0.6c0-0.4,0-0.7-0.2-0.8c-0.1-0.2-0.4-0.3-0.8-0.3l-13.1-2.1c-0.9-0.1-1.6-0.4-2.3-0.6
			c-0.6-0.3-1.1-0.6-1.5-1c-0.4-0.4-0.7-0.9-0.8-1.5c-0.2-0.6-0.2-1.3-0.2-2.1l0-1.5c0-1.6,0.5-2.8,1.4-3.7c0.9-0.8,2.3-1.2,4.3-1.2
			l19.5,0.6c0.6,0,0.9,0.4,0.9,1l-0.1,4.5L1018.6,587.9z"/>
		<path class="st1" d="M1026.8,602.5l0.7-22l6.2,0.2l-0.7,22L1026.8,602.5z"/>
		<path class="st1" d="M1056.1,594c0-0.3,0-0.7,0-1c0-0.4,0-0.7-0.1-0.9l0-0.3l6.2,0.2l-0.3,10.8c0,0.6-0.3,0.8-0.8,0.8l-16.5-0.5
			c-1.6-0.1-3-0.3-4.1-0.7c-1.1-0.4-2-1.1-2.7-1.8c-0.7-0.8-1.2-1.7-1.5-2.8c-0.3-1.1-0.4-2.3-0.4-3.6l0.1-4.5
			c0-1.3,0.2-2.5,0.6-3.6c0.4-1.1,0.9-2,1.6-2.7c0.7-0.7,1.7-1.3,2.8-1.7c1.2-0.4,2.6-0.5,4.2-0.5l16.4,0.5c0.6,0,0.9,0.3,0.8,0.9
			l-0.1,4.7l-5.8,1.9l-0.2,0l0.1-2.1c0-0.2-0.1-0.3-0.3-0.3l-10.5-0.3c-0.6,0-1.1,0-1.5,0.1c-0.4,0.1-0.8,0.3-1,0.5
			c-0.3,0.3-0.5,0.6-0.6,1.1c-0.1,0.4-0.2,1-0.2,1.7l-0.1,3.9c0,1.3,0.2,2.3,0.7,2.8c0.5,0.5,1.3,0.8,2.5,0.9l10.4,0.3
			c0.2,0,0.3-0.1,0.3-0.4L1056.1,594z"/>
		<path class="st1" d="M1075.3,582c0.5,0,0.8,0.1,1,0.2c0.2,0.1,0.4,0.4,0.5,0.7l7.9,16c0.1,0.2,0.3,0.4,0.6,0.4l0.3,0
			c0.3,0,0.5-0.1,0.5-0.5l0.5-16.5l5.6,0.2l-0.6,21.1c0,0.6-0.3,0.9-0.9,0.8l-8.9-0.3c-0.4,0-0.7-0.1-0.9-0.2
			c-0.2-0.1-0.4-0.4-0.6-0.7l-8.2-16c-0.1-0.2-0.3-0.4-0.6-0.4l-0.3,0c-0.3,0-0.5,0.1-0.5,0.5l-0.5,16.5l-5.6-0.2l0.6-21.1
			c0-0.6,0.3-0.9,0.9-0.9L1075.3,582z"/>
	</g>
	
		<ellipse transform="matrix(0.7071 -0.7071 0.7071 0.7071 -45.3318 1045.452)" class="st2" cx="1239.3" cy="577.4" rx="380.9" ry="380.9"/>
	<g class="st0">
		
			<linearGradient id="SVGID_3_" gradientUnits="userSpaceOnUse" x1="900.1326" y1="786.0909" x2="900.1326" y2="611.1689" gradientTransform="matrix(0.906 -0.4233 0.4233 0.906 -156.9335 365.0801)">
			<stop  offset="0" style="stop-color:#DBCCFF"/>
			<stop  offset="1" style="stop-color:#D1BBFF"/>
		</linearGradient>
		<path class="st3" d="M959.3,553.1c-9.4-16.1-25.9-22.8-25.9-22.8l-5.8,2.7l13,23.6c-1.7,9.1-8,14.1-8,14.1l0,0
			c0,0-7.8,1.6-15.9-2.9l-9.8-25.1l-5.8,2.7c0,0-5.5,17,0.8,34.5c0,0,2.5,5.7,2.9,6.2c2.3,2.7,8.3,5.8,19.8,5l39.8,76
			c-3.3,5.7-3.9,12.8-0.9,19.2c4.9,10.4,17.3,14.9,27.7,10.1c10.4-4.9,14.9-17.3,10.1-27.7c-3-6.4-8.8-10.6-15.3-11.7l-32.7-79.2
			c7.8-8.2,9.4-14.7,8.8-18.4C962.1,558.5,959.3,553.1,959.3,553.1z M992.1,684.1l-10.5,4.9l-9.5-6.7l1-11.6l10.5-4.9l9.5,6.7
			L992.1,684.1z"/>
		
			<linearGradient id="SVGID_4_" gradientUnits="userSpaceOnUse" x1="900.1223" y1="792.915" x2="900.1223" y2="617.9931" gradientTransform="matrix(0.906 -0.4233 0.4233 0.906 -156.9335 365.0801)">
			<stop  offset="0" style="stop-color:#B5A6E7"/>
			<stop  offset="1" style="stop-color:#7760BF"/>
		</linearGradient>
		<path class="st4" d="M962.2,559.3c-9.4-16.1-25.9-22.8-25.9-22.8l-5.8,2.7l13,23.6c-1.7,9.1-8,14.1-8,14.1l0,0
			c0,0-7.8,1.6-15.9-2.9l-9.8-25.1l-5.8,2.7c0,0-5.5,17,0.8,34.5c0,0,9,12.1,22.7,11.2l39.8,76c-3.3,5.7-3.9,12.8-0.9,19.2
			c4.9,10.4,17.3,14.9,27.7,10.1c10.4-4.9,14.9-17.3,10.1-27.7c-3-6.4-8.8-10.6-15.3-11.7l-32.7-79.2
			C965.7,573.9,962.2,559.3,962.2,559.3z M994.9,690.2l-10.5,4.9l-9.5-6.7l1-11.6l10.5-4.9l9.5,6.7L994.9,690.2z"/>
		
			<rect x="902.4" y="543.6" transform="matrix(0.906 -0.4233 0.4233 0.906 -146.4253 434.734)" class="st5" width="6.4" height="6.8"/>
		
			<rect x="928.7" y="531.3" transform="matrix(0.906 -0.4233 0.4233 0.906 -138.7477 444.7636)" class="st5" width="6.4" height="6.8"/>
		
			<rect x="982.4" y="686.2" transform="matrix(0.906 -0.4233 0.4233 0.906 -199.0083 483.1339)" class="st5" width="11.6" height="6.8"/>
		<g>
			
				<linearGradient id="SVGID_5_" gradientUnits="userSpaceOnUse" x1="900.1221" y1="749.4272" x2="900.1221" y2="675.6946" gradientTransform="matrix(0.906 -0.4233 0.4233 0.906 -156.9335 365.0801)">
				<stop  offset="0" style="stop-color:#B5A6E7"/>
				<stop  offset="1" style="stop-color:#7760BF"/>
			</linearGradient>
			<path class="st6" d="M936.1,602.8l32.2,61.8c8.4,0.4,13-6.1,13-6.1L955.1,594C943.3,593.5,936.1,602.8,936.1,602.8z M978.8,659.1
				c-0.9,0.8-2.4,1.9-4.2,2.7c-1.4,0.7-2.9,1.1-4.4,1.3L938,602.6c1.6-1.4,4.3-3.5,7.7-5.1c2.6-1.2,5.3-2,8-2.3L978.8,659.1z"/>
			<path class="st5" d="M978.8,659.1l2.5-0.5c0,0-3.7,6.5-13,6.1l1.9-1.5C970.2,663.1,974.8,662.6,978.8,659.1z"/>
			
				<linearGradient id="SVGID_6_" gradientUnits="userSpaceOnUse" x1="889.6586" y1="677.1703" x2="910.5855" y2="677.1703" gradientTransform="matrix(0.906 -0.4233 0.4233 0.906 -156.9335 365.0801)">
				<stop  offset="0" style="stop-color:#8B8BE0"/>
				<stop  offset="1" style="stop-color:#A177B7"/>
			</linearGradient>
			<path class="st7" d="M936.1,602.8l1.9-0.2c0,0,5.5-5.7,15.7-7.4l1.4-1.2c0,0-4.1-0.7-10.5,2.3
				C938.2,599.2,936.1,602.8,936.1,602.8z"/>
		</g>
		
			<linearGradient id="SVGID_7_" gradientUnits="userSpaceOnUse" x1="900.1222" y1="682.0284" x2="900.1222" y2="669.3604" gradientTransform="matrix(0.906 -0.4233 0.4233 0.906 -156.9335 365.0801)">
			<stop  offset="0" style="stop-color:#FFFFFF"/>
			<stop  offset="1" style="stop-color:#A177B7"/>
		</linearGradient>
		<path class="st8" d="M927.6,597.2c0,0,15.5-2.8,28.6-13.3l4.2,10.1c0,0-4.7-4.7-15.1-0.5c-12.2,5-11.5,14.8-11.5,14.8L927.6,597.2
			z"/>
		
			<linearGradient id="SVGID_8_" gradientUnits="userSpaceOnUse" x1="911.1899" y1="756.9539" x2="911.1899" y2="675.6703" gradientTransform="matrix(0.906 -0.4233 0.4233 0.906 -156.9335 365.0801)">
			<stop  offset="0" style="stop-color:#000000"/>
			<stop  offset="1" style="stop-color:#FFFFFF"/>
		</linearGradient>
		<path class="st9" d="M960.4,594c-3-2.1-6.4-2.2-6.4-2.2l31.1,75.2l3.8-3.9L960.4,594z"/>
		<path class="st10" d="M960.4,594c0,0-3.3,10,6.1,14.8L960.4,594z"/>
	</g>
	<g class="st0">
		<g>
			<linearGradient id="SVGID_9_" gradientUnits="userSpaceOnUse" x1="1266.9484" y1="1079.8597" x2="1266.9484" y2="860.6575">
				<stop  offset="0" style="stop-color:#6456C0"/>
				<stop  offset="1" style="stop-color:#5F2C95"/>
			</linearGradient>
			<path class="st11" d="M1429,1079.9h-115.5c-12.1-67.1-40.2-154.5-40.2-154.5c-6.8-4.1-20.2,0.9-20.2,0.9l-42.2,153.5h-105.5
				c-5.6-94.7,46.2-202.3,46.2-202.3l0,0c-0.2-0.4-1.8-3.7-1.4-5.9c0.2-1,1.9-2.8,3.9-4.6c2.9-2.6,6.2-5.2,6.2-5.2l196.8-1.2
				c0,0,2,1,4.5,2.5h0c4.3,2.6,10.1,6.6,10.1,9.6c0,4.1-1.6,6.7-2,7.3l-0.1,0.1C1412,959.8,1429,1079.9,1429,1079.9z"/>
			
				<radialGradient id="SVGID_10_" cx="1378.7971" cy="840.7789" r="66.4111" gradientTransform="matrix(0.6462 0.1491 -0.3852 1.6696 593.0988 -608.3175)" gradientUnits="userSpaceOnUse">
				<stop  offset="0" style="stop-color:#4B474B"/>
				<stop  offset="1" style="stop-color:#000000"/>
			</radialGradient>
			<path class="st12" d="M1203.1,1010.9c-14.1,61.2-44.8,106.4-68.5,101s-31.5-59.5-17.3-120.8c14.1-61.2,44.8-106.4,68.5-101
				S1217.3,949.7,1203.1,1010.9z"/>
			
				<radialGradient id="SVGID_11_" cx="1450.7307" cy="917.7365" r="66.4098" gradientTransform="matrix(0.6386 -0.179 0.4623 1.6499 13.9393 -254.5714)" gradientUnits="userSpaceOnUse">
				<stop  offset="0" style="stop-color:#4B474B"/>
				<stop  offset="1" style="stop-color:#000000"/>
			</radialGradient>
			<path class="st13" d="M1407.1,988c17,60.5,11.7,114.9-11.7,121.5c-23.4,6.6-56.2-37.2-73.1-97.7c-17-60.5-11.7-114.9,11.7-121.5
				C1357.4,883.8,1390.1,927.5,1407.1,988z"/>
			<g>
				<linearGradient id="SVGID_12_" gradientUnits="userSpaceOnUse" x1="1196.0045" y1="1002.9059" x2="1253.4956" y2="1002.9059">
					<stop  offset="0" style="stop-color:#9E8CEF"/>
					<stop  offset="1" style="stop-color:#CAAFEE"/>
				</linearGradient>
				<path class="st14" d="M1197.2,1080l-1.2-0.2c13.4-79.1,47.5-145.5,47.9-146.1l0.1-0.2l8.7-7.6l0.8,0.9l-8.6,7.5
					C1243.4,937.3,1210.4,1002.5,1197.2,1080z"/>
			</g>
			<g>
				
					<linearGradient id="SVGID_13_" gradientUnits="userSpaceOnUse" x1="637.2787" y1="1002.9083" x2="694.7745" y2="1002.9083" gradientTransform="matrix(-1 0 0 1 1967.6285 0)">
					<stop  offset="0" style="stop-color:#9E8CEF"/>
					<stop  offset="1" style="stop-color:#CAAFEE"/>
				</linearGradient>
				<path class="st15" d="M1329.1,1080c-13.2-77.5-47.1-143.4-48.6-146.3l-7.7-6.9l0.8-0.9l7.9,7.1c0.4,0.7,35.3,67.6,48.8,146.8
					L1329.1,1080z"/>
			</g>
			<linearGradient id="SVGID_14_" gradientUnits="userSpaceOnUse" x1="1259.2339" y1="1079.8597" x2="1259.2339" y2="860.6575">
				<stop  offset="0" style="stop-color:#CCCCFF"/>
				<stop  offset="1" style="stop-color:#755CBB"/>
			</linearGradient>
			<path class="st16" d="M1371.9,872.8c0,4.1-1.6,6.7-2,7.3l-0.1,0.1c-41,9.3-72.2,47.5-72.2,47.5c22.3,42.9,59.6,152.2,59.6,152.2
				h-43.8c-12.1-67.1-40.2-154.5-40.2-154.5c-6.8-4.1-20.2,0.9-20.2,0.9l-42.2,153.5h-27.3c9.8-64.3,38.7-142.9,38.7-142.9
				c-28.4-33-70.6-59.4-70.6-59.4l0,0l-5-3.1l3.6-2.7c18.3,17.5,77.1,40.4,78.9,41.1l-75-45.7c2.9-2.6,6.2-5.2,6.2-5.2l196.8-1.2
				c0,0,2,1,4.5,2.5l-53.8,29.6L1371.9,872.8z"/>
			<linearGradient id="SVGID_15_" gradientUnits="userSpaceOnUse" x1="1284.7527" y1="970.2587" x2="1284.7527" y2="910.4718">
				<stop  offset="0" style="stop-color:#CCCCFF"/>
				<stop  offset="1" style="stop-color:#755CBB"/>
			</linearGradient>
			<polygon class="st17" points="1273.3,925.4 1296.2,910.5 1290.8,925.4 1286.8,970.3 			"/>
			<linearGradient id="SVGID_16_" gradientUnits="userSpaceOnUse" x1="1215.5044" y1="948.2736" x2="1215.5044" y2="889.6988">
				<stop  offset="0" style="stop-color:#CCCCFF"/>
				<stop  offset="1" style="stop-color:#755CBB"/>
			</linearGradient>
			<polygon class="st18" points="1253.1,926.3 1229.2,912.8 1177.9,889.7 1243.2,932.8 1247.1,948.3 			"/>
		</g>
		<path class="st19" d="M1318.9,464.7c0.1,1.1,0.3,1.6,0.3,1.6c-1.2,5-2.6,9.7-4.1,13.9c-4.8,13.8-10.8,23.7-15.3,29.8
			c-3.9,5.3-6.7,7.8-6.7,7.8c-35.8-11.3-53.5-46.3-60.3-63.8c0-0.1-0.1-0.2-0.1-0.3c-1.3-3.3-2.2-5.9-2.7-7.7c0,0,0,0,0,0
			c-0.4-1.4-0.6-2.1-0.6-2.1c0.1-0.3,0.3-0.6,0.4-0.9l0.1-0.1c0.6-1.2,1.2-2.5,1.7-3.7c4.7-10.3,7.8-19.9,9.8-27.4
			c1.7-6.4,2.7-11.4,3.1-14c0.2-1.4,0.3-2.1,0.3-2.1l16.7,8.8l57.6,30.5c-0.9,5.3-1.2,10.2-1.2,14.6c0,3.1,0,5.8,0.2,8.2
			c0.2,2.9,0.5,5.1,0.7,6.6v0C1318.9,464.5,1318.9,464.6,1318.9,464.7z"/>
		<linearGradient id="SVGID_17_" gradientUnits="userSpaceOnUse" x1="1274.9156" y1="530.564" x2="1274.9156" y2="443.0649">
			<stop  offset="0" style="stop-color:#D5CDF8"/>
			<stop  offset="1" style="stop-color:#F3EDFB"/>
		</linearGradient>
		<path class="st20" d="M1303,521.7c-3.3,3.3-7.2,6.2-11.9,8.7c-0.1,0.1-0.2,0.1-0.3,0.2c0,0-0.1-0.1-0.3-0.2l0,0
			c-1.3-0.8-5.5-3.4-11.3-7.7c-15-11.3-40.1-34.2-47.3-65.1c0,0,0-0.1,0-0.1c-0.8-3.7-1.4-7.4-1.7-11.3c0,0,0,0,0,0
			c-0.1-1-0.1-2-0.2-3c0,0,5,11.7,13.6,24.4c10.2,14.9,25.4,31.1,43.7,31.2c15.8,0.1,23.9-10.7,28-20.6c1.7-4.2,2.8-8.3,3.3-11.3
			c0,0,0,0,0,0c0.2-0.9,0.3-1.7,0.4-2.3v0c0-0.3,0.1-0.6,0.1-0.9c0.1-1.1,0.2-1.7,0.2-1.7S1325.3,499.4,1303,521.7z"/>
		<linearGradient id="SVGID_18_" gradientUnits="userSpaceOnUse" x1="1229.871" y1="486.7285" x2="1319.9604" y2="486.7285">
			<stop  offset="0" style="stop-color:#CCCCFF"/>
			<stop  offset="1" style="stop-color:#755CBB"/>
		</linearGradient>
		<path class="st21" d="M1303,521.7c-3.3,3.3-7.2,6.2-11.9,8.7h-0.3l-0.3,0l0,0c-1.3-0.8-5.5-3.4-11.3-7.7
			c-15-11.3-40.1-34.2-47.3-65.1c0,0,0-0.1,0-0.1c-0.8-3.7-1.4-7.4-1.7-11.3c0,0,0,0,0,0c-0.1-1-0.1-2-0.2-3c0,0,5,11.7,13.6,24.4
			c0,0,9.9,27.3,31.4,40.8c10.8,6.8,18.9,5.8,24.9,1.8c6-4,9.9-10.9,12.2-16.1c2.3-5.2,3-10.1,3.1-13.7c0-0.8,0-1.5,0-2.2
			c1.7-4.2,2.8-8.3,3.3-11.3c0,0,0,0,0,0c0.2-0.9,0.3-1.7,0.4-2.3v0c0-0.3,0.1-0.6,0.1-0.9c0.1-1.1,0.2-1.7,0.2-1.7
			S1325.3,499.4,1303,521.7z"/>
		<linearGradient id="SVGID_19_" gradientUnits="userSpaceOnUse" x1="1249.1552" y1="880.1655" x2="1249.1552" y2="439.2563">
			<stop  offset="0" style="stop-color:#9E8CEF"/>
			<stop  offset="1" style="stop-color:#CAAFEE"/>
		</linearGradient>
		<path class="st22" d="M1441,744.5c-0.3,0.1-0.4,0.2-0.4,0.2c-2,0.2-8.3-1.1-16.5-8.2l0,0c0,0,0,0-0.1-0.1c0,0,0-0.1-0.1-0.1
			c-6.9-6-15.1-16.1-23.4-32.5c-16.5-32.9-21.2-54.9-21.9-58.7l-0.1-0.6l-9.6,15.2c-6.5,19.6-18.8,100.6-18.6,104.1
			c0.2,3.5,10.9,20.5,10.7,22.6c0,0,0,0,0,0c-0.3,2.1-5.1,6.8-6.5,11.8c-0.9,3.4,5.6,14,10.2,21.9v0c2.4,4.1,4.2,7.5,4.2,8.8
			c0,3.7-11.6,21.9-11.6,21.9v9.8l-0.2,0.2l-0.5,0.5l-0.4,0.4c-4.4,3.5-23.2,14.9-81.7,18.1c-69.4,3.7-115.7-18.6-115.7-18.6
			l3.5-9.6c0,0-3.2-2.8-3.5-4.2c-0.2-1.4,2.6-4.7,2.6-4.7s-7-3.7-7-8.4c0-4.6,14-19.1,13.5-31.4c-0.5-12.3-11.2-23.3-12.6-30.2
			c-1.4-7,18.2-24.2,18.2-24.2c-16.8-53.1-20-124.3-20-124.3l-3.2-3.7c0,0-20,45.6-38.2,68c-2.2,2.7-4.4,5.3-6.8,7.8
			c-5.1,5.5-10.4,10.6-15.6,15.1c-12.6,11-24,18.2-26.9,17.6c-4.7-0.9-23.3-37.7-22.4-75.4c0.4-17.9,11.2-38,22.4-54.1
			c1.2-1.7,2.4-3.4,3.6-5.1c8-10.8,15.6-19.3,19.3-23.2c1.4-1.5,2.2-2.3,2.2-2.3s-2.6-8.2-4.3-15.4c0-0.2-0.1-0.3-0.1-0.5
			c0-0.1,0-0.2,0-0.2c0-0.1,0-0.2,0-0.2c-1-4.4-1.7-8.2-1.1-9.1c1.5-2.5,10.6-5.3,12.1-7.1c1.5-1.9,8.1-33.2,13-36.6
			c4.8-3.3,13.1-5.7,41.1-16.6c1.4-0.5,2.8-1.1,4.3-1.7c31.3-12.4,62.1-27.5,62.1-27.5l11.8-14.5h5.3l-1.7,3.7l-0.1,0.1
			c0.8,3.7,1.8,7.3,2.9,10.7c0,0.1,0,0.2,0.1,0.3c16.2,51.2,57.9,67.6,57.9,67.6c29-21.4,28.4-55.4,28.4-55.4v-4.7l5.4,1.6l3.7,8.8
			c0,0,6.3,9.8,31.2,20.7c4.3,1.9,8.9,4.3,13.7,7c22.8,12.9,48.2,33,50.1,37.2c0.2,0.4,0.4,1.1,0.7,2.1v0c2.7,10.5,8.2,49.9,13.3,64
			c3.2,8.8,8.2,13.6,11.9,16.1c0,0,0,0,0,0c2.8,1.9,4.8,2.5,4.8,2.5c0.4,2.2,0.8,4.3,1.1,6.4C1465.9,695.6,1445.5,741.3,1441,744.5z
			"/>
		<linearGradient id="SVGID_20_" gradientUnits="userSpaceOnUse" x1="1066.1757" y1="605.4211" x2="1173.5531" y2="605.4211">
			<stop  offset="0" style="stop-color:#CCCCFF"/>
			<stop  offset="1" style="stop-color:#755CBB"/>
		</linearGradient>
		<path class="st23" d="M1173.6,617.4l-20.2,6.8l-3.2-3.7c0,0-20,45.6-38.2,68c-2.2,2.7-4.4,5.3-6.8,7.8
			c-5.1,5.5-10.4,10.6-15.6,15.1l-15.4-66.5l-7.8-50.5c8-10.8,15.6-19.3,19.3-23.2c1.4-1.5,2.2-2.3,2.2-2.3s-2.6-8.2-4.3-15.4
			c0-0.2-0.1-0.3-0.1-0.5c0-0.1,0-0.2,0-0.2c0-0.1,0-0.2,0-0.2c-1-4.4-1.7-8.2-1.1-9.1c1.5-2.5,10.6-5.3,12.1-7.1
			c1.5-1.9,8.1-33.2,13-36.6c0,0-3.2,30.1,14,68.3l8.4,11.8l24.5,19.7C1154.1,599.3,1163.4,611.7,1173.6,617.4z"/>
		<linearGradient id="SVGID_21_" gradientUnits="userSpaceOnUse" x1="1062.8545" y1="728.9052" x2="1062.8545" y2="522.7257">
			<stop  offset="0" style="stop-color:#9E8CEF"/>
			<stop  offset="1" style="stop-color:#DAC7F3"/>
		</linearGradient>
		<path class="st24" d="M1115,671.8c-4.3,32.3-52.4,57.1-52.4,57.1c-10.7,0-22.7-18.6-33.5-41.6c-10.9-23-11.5-89-12.1-93.1
			c-0.6-4.1-6.6-12.2-7-15.7c-0.3-3.5,9.8-10.7,9.8-10.7l-0.1-0.2l-0.1-0.2c-1.1-2.3-7-15-6.6-17.3c0.5-2.6,11.8-8.1,11.8-8.1
			l0.7,12.6c0,0,26.5-5,35.5-25.5l1.6-6.3l4.4,2.9v27c0,0,0.9,4.2,2.3,4.2c1.4,0,11.7-5.2,13.9-4.4c2.2,0.7,4.3,15.2,7.2,17
			c2.9,1.9,10.6,7.2,11.7,9.8c0.5,1.2,0.6,5.3,0.6,10.2c0.1,6,0.1,13.1,1,17.1C1105.4,613.7,1119.3,639.5,1115,671.8z"/>
		<linearGradient id="SVGID_22_" gradientUnits="userSpaceOnUse" x1="1417.401" y1="669.4816" x2="1555.7517" y2="669.4816">
			<stop  offset="0" style="stop-color:#A999F1"/>
			<stop  offset="1" style="stop-color:#DAC7F3"/>
		</linearGradient>
		<path class="st25" d="M1554.8,644.2c-2.2,3.4-13,10.6-15.8,13.4c-2.8,2.8,0,12,0,12c-45.6,48.4-93.2,72.7-98,75
			c-0.3,0.1-0.4,0.2-0.4,0.2c-28.7-19.3-26.2-51-16.7-77.7c9.1-25.7,24.7-46.7,25.4-47.6l0,0c0,0,0,0,0,0c0.5-0.2,8.7-3.6,14.5-4
			c1.9-0.1,3.7,0.6,5.4,1.7c3.5,2.2,6.4,5.6,9.3,4.2c4.2-2.1,13.6-24.3,20-24.9c4.4-0.4,10.6,4.1,14.7,6.7c1.8,1.1,3.2,1.9,3.9,1.7
			c2.3-0.6,10.2-10.1,10.9-10.3c0.6-0.3,4.2,2.4,4.2,2.4l-2.5,3.1c3.9,22.4,16.6,37.4,16.6,37.4l8.5-12.5
			C1554.8,624.7,1557,640.7,1554.8,644.2z"/>
		<path class="st26" d="M1319.1,463.8c0,0.3-0.1,0.6-0.1,1c-0.1,0.7-0.3,1.3-0.5,2c0,0,0,0,0,0c-2.9,10.8-14.7,21.9-29.7,16.6
			c-16.3-5.8-47.3-71.5-47.3-71.5l3.1-14l73.6,60l0.8,5.7L1319.1,463.8z"/>
		<g>
			<path class="st27" d="M1074,451.7c0,0-4.5-24.8-2.5-43.1c2-18.3-0.5-39.1-0.5-39.1s-4.4-1.9-7.7,0c-3.3,1.9-10.9,20.8-7.4,36
				c3.4,15.2,0.8,51.7,0.8,51.7h-5.1l-11.2-15.4l-5.4-1.6c0,0-31.3,29.5-30.8,47l4.1,15.6l38.5-1.3l25.1-28.7L1074,451.7z"/>
			<linearGradient id="SVGID_23_" gradientUnits="userSpaceOnUse" x1="1017.8511" y1="494.6123" x2="1017.8511" y2="440.2489">
				<stop  offset="1.598750e-02" style="stop-color:#FFC2A9"/>
				<stop  offset="1" style="stop-color:#FF9595"/>
			</linearGradient>
			<path class="st28" d="M1034.9,440.3c0,0,0.8,19.6,5.2,36.3c0,0-0.7,6.9-8.8,7.3l-2-2.2c0,0-1.4,7.8-8.5,8.4l-6.8-6.8l1.7,5.6
				c0,0-2.4,5.9-8.8,5.7c0,0-10.7-8.4-11.4-19.3l10.6-9v-6.9l12.6-8.8l0.2-5C1019,445.6,1026.4,440.1,1034.9,440.3z"/>
			<linearGradient id="SVGID_24_" gradientUnits="userSpaceOnUse" x1="1052.0839" y1="493.3252" x2="1052.0839" y2="403.3365">
				<stop  offset="0" style="stop-color:#FFEADB"/>
				<stop  offset="0.9944" style="stop-color:#C27CB6"/>
			</linearGradient>
			<path class="st29" d="M1072,403.3c0,0-1.9,4.8-4.6,6.7c-2.7,1.9-10.4,3.3-10.4,3.3l-0.4,43.9h-5.1l-11.2-15.4c0,0,5.7,8.8,6,15.4
				l-4.4,2.2l-3.8-13.2l-1.8,9.5l1.8,11.8c0,0,6.6-5.7,18.6-5.9l1.8,3.3c0,0-21.7,18-26.7,28.6c0,0,10.7-13.6,35.2-28.6l2.3-7.2
				l3.1-17.2C1072.4,440.2,1069.4,415.4,1072,403.3z"/>
			<linearGradient id="SVGID_25_" gradientUnits="userSpaceOnUse" x1="1049.1643" y1="554.5458" x2="1049.1643" y2="415.8152">
				<stop  offset="1.598750e-02" style="stop-color:#FFC2A9"/>
				<stop  offset="1" style="stop-color:#FF9595"/>
			</linearGradient>
			<path class="st30" d="M1090.2,479.8c-2,6-23.1,31.2-25.5,36.6c-2.3,5.4-3.7,12.6-3.7,12.6c-10.4,22.4-35.5,25.5-35.5,25.5
				l-1.2-20.2c0,0-13.5-7.8-15.8-12l0-0.1l-0.3-0.7c-0.7-4-0.1-18.6-0.1-18.6l23.6-9.6c10.2-13.3,35.2-28.6,35.2-28.6l1.2-7
				c-17.9-8.8-14.9-35.4-11.9-38.7c3-3.2,8.6-3.2,8.6-3.2s6.5,21.4,10.7,31.4C1079.8,457.2,1092.2,473.8,1090.2,479.8z"/>
			<path class="st31" d="M1019,445.6c0,0,2.6,24.4,10.4,36.1c0,0-9.8-12.2-10.6-31.1L1019,445.6z"/>
			<path class="st31" d="M1006.2,459.5c0,0,2.6,19.7,14.7,30.6c0,0-10.7-5.4-14.7-23.7V459.5z"/>
			<linearGradient id="SVGID_26_" gradientUnits="userSpaceOnUse" x1="1024.355" y1="532.8966" x2="1067.9742" y2="532.8966">
				<stop  offset="1.598750e-02" style="stop-color:#D1A1D6"/>
				<stop  offset="0.9944" style="stop-color:#BD89C4"/>
			</linearGradient>
			<path class="st32" d="M1068,511.2c0,0-26.6,25.8-43.6,23.1l1.2,20.2c0,0,27.9-2.4,37-31.8C1062.5,522.7,1065.8,514.3,1068,511.2z
				"/>
		</g>
		<g>
			<linearGradient id="SVGID_27_" gradientUnits="userSpaceOnUse" x1="1558.6034" y1="639.0472" x2="1558.6034" y2="453.5293">
				<stop  offset="1.598750e-02" style="stop-color:#FFC2A9"/>
				<stop  offset="1" style="stop-color:#FF9595"/>
			</linearGradient>
			<path class="st33" d="M1630.8,546.4c0,0-24.4,44.7-53.1,58.4h-9.8l-22.6,34.2c0,0-14.6-9.2-15.7-39.3c0,0,5.1-5.3,6.4-11.4
				c0,0-8.1-6.3-10.2-11c-2.2-4.7-2.9-18.6-4.5-24.4c-1.5-5.7-14.7-17.7-17.7-19.2c-2.9-1.5-16.3-2.3-16.3-2.3s-1.9-4.8,0-7.1
				c1.9-2.3,22.7-10.4,34-2.7c0,0,0.8,5.9,2,9c1.3,3.1,11.2,14.1,12.7,14.1s8.2-5.6,11.2-9.9c2.8-4.2,17.8-36.5,21.5-47.5
				c0-0.1,0-0.2,0.1-0.3c0-0.2,0.1-0.3,0.1-0.5c0-0.1,0.1-0.2,0.1-0.3c0,0,0-0.1,0-0.1c2.8-9.5,19.1-27.6,27.8-32.6
				c0,0,3.7-0.9,5.7,3.7c0,0-7,19.9-14.3,31.7c-1.2,2-2.6,4.3-3.9,6.8c0,0,0,0,0,0c-6.2,11.4-13.2,26.4-14.2,28.6l-0.1,0.3l3.9,2
				l10.5-10l10.8-10.2l24.7,26.1l-2.4,3.1l-7.7,9.9l3.9,0.7l9.1-10L1630.8,546.4z"/>
			<linearGradient id="SVGID_28_" gradientUnits="userSpaceOnUse" x1="1580.5205" y1="579.6087" x2="1580.5205" y2="487.4411">
				<stop  offset="0" style="stop-color:#FFEADB"/>
				<stop  offset="0.9944" style="stop-color:#C27CB6"/>
			</linearGradient>
			<path class="st34" d="M1625,555.9l-7.8,11.5c0,0-42.9-33.1-52.2-35.9s-12.7-0.9-12.7-0.9l-9.6,12.3c0,0,17.7,15.7,19.2,36.8
				c0,0-5.9-26.7-25.9-34.8c1.5,0,8.2-5.6,11.2-9.9c2.8-4.2,17.8-36.5,21.5-47.5c-0.5,1.9-1.1,5.5,0.4,8.4c2.1,3.9,14.5,0.2,15.3,0
				c0,0,0,0,0,0l-14.3,28.6l-0.1,0.3l3.9,2l10.5-10l-5.3,12.2l38.3,6.8l-7.7,9.9l3.9,0.7L1625,555.9z"/>
			<linearGradient id="SVGID_29_" gradientUnits="userSpaceOnUse" x1="1598.7032" y1="547.7965" x2="1598.7032" y2="506.4795">
				<stop  offset="0" style="stop-color:#FFB0B0"/>
				<stop  offset="0.984" style="stop-color:#FFC2A9"/>
			</linearGradient>
			<path class="st35" d="M1595.1,506.5c0,0,7.4-1.1,12.3,8.5l-1.1,3.1c0,0,7.3,1.4,14.3,13.2c0,0-6.2,11.3-21.6,16.5
				c0,0-7.1-2-8.4-8.1l1.4-3.9l-5.6,4.2c0,0-6.7,2-9.6-7.9L1595.1,506.5z"/>
			<linearGradient id="SVGID_30_" gradientUnits="userSpaceOnUse" x1="1622.6675" y1="554.1591" x2="1622.6675" y2="531.5016">
				<stop  offset="0" style="stop-color:#FFB0B0"/>
				<stop  offset="0.984" style="stop-color:#FFC2A9"/>
			</linearGradient>
			<path class="st36" d="M1633,543.3c0,0,1.6-7.1-6.1-11.8l-14.7,16.3c0,0,0.4,5.2,6.8,6.4C1619,554.2,1629.1,550.7,1633,543.3z"/>
			<linearGradient id="SVGID_31_" gradientUnits="userSpaceOnUse" x1="1525.7609" y1="599.318" x2="1567.901" y2="599.318">
				<stop  offset="1.598750e-02" style="stop-color:#D1A1D6"/>
				<stop  offset="0.9944" style="stop-color:#BD89C4"/>
			</linearGradient>
			<path class="st37" d="M1525.8,577.4c0,0,17.1,19.1,42.1,27.4l-10.8,16.4l-22.5-28.6l1.4-4.1C1536,588.4,1527,581.7,1525.8,577.4z
				"/>
			<path class="st31" d="M1606.3,518.2c0,0-7.1,11.8-14.3,17.7l-1.4,3.9c0,0,13.9-9.4,19-20.2
				C1609.6,519.6,1607.9,518.4,1606.3,518.2z"/>
		</g>
		<linearGradient id="SVGID_32_" gradientUnits="userSpaceOnUse" x1="1467.1155" y1="744.7568" x2="1467.1155" y2="537.1">
			<stop  offset="0" style="stop-color:#CCCCFF"/>
			<stop  offset="1" style="stop-color:#755CBB"/>
		</linearGradient>
		<path class="st38" d="M1554.8,644.2c-2.2,3.4-13,10.6-15.8,13.4c-2.8,2.8,0,12,0,12c-45.6,48.4-93.2,72.7-98,75
			c-0.3,0.1-0.4,0.2-0.4,0.2c-3.7,0.5-21.9-4.6-40.1-41c-16.5-32.9-21.2-54.9-21.9-58.7l-0.1-0.6l4-5.4l5.9-67l4.2,13.5
			c15.8-19.1,30.7-48.4,30.7-48.4l0.7,2.1v0c2.7,10.5,8.2,49.9,13.3,64c3.2,8.8,8.2,13.6,11.9,16.1l0,0l0,0
			c-14.6,13.3-21.8,32.4-25.4,47.6c-3.3,14-3.5,24.6-3.5,24.6s4-18.9,16.8-41.7c4.6-8.3,11.4-15.7,18-21.7c5-4.6,10-8.4,14.1-11.3
			c3.5,2.2,6.4,5.6,9.3,4.2c-19.2,28.8-18.7,85.7-0.7,74.9c18-10.9,22.1-33.9,22.1-33.9c-4.3-28.1-3-59.8,0.4-65.8
			c4.1,0.1,16,8.5,16.7,8.3c-1.1,33,14.4,55.1,14.4,55.1l10.2-15.8c-14.9-25.1-13.8-49.6-13.8-49.6c0.6-0.3,4.2,2.4,4.2,2.4
			l-2.5,3.1c3.9,22.4,16.6,37.4,16.6,37.4l8.5-12.5C1554.8,624.7,1557,640.7,1554.8,644.2z"/>
		<linearGradient id="SVGID_33_" gradientUnits="userSpaceOnUse" x1="1009.9069" y1="702.9199" x2="1357.225" y2="702.9199">
			<stop  offset="0" style="stop-color:#CCCCFF"/>
			<stop  offset="1" style="stop-color:#755CBB"/>
		</linearGradient>
		<path class="st39" d="M1357.2,850.9v9.8l-0.2,0.2l-0.5,0.5l-0.4,0.4c-4.4,3.5-23.2,14.9-81.7,18.1
			c-69.4,3.7-115.7-18.6-115.7-18.6l3.5-9.6c0,0-3.2-2.8-3.5-4.2c-0.2-1.4,2.6-4.7,2.6-4.7s-7-3.7-7-8.4c0-4.2,11.4-16.4,13.2-27.8
			c0.2-1.2,0.3-2.4,0.3-3.6c-0.5-12.3-11.1-23.2-12.6-30.1c0-0.1,0-0.1,0-0.1c-1.4-7,18.2-24.2,18.2-24.2
			c-16.8-53.1-20-124.3-20-124.3l-3.2-3.7c0,0-20,45.6-38.2,68c-18.2,22.4-44.7,41.5-49.3,40.5c-10.7,0-22.7-18.6-33.5-41.6
			c-10.9-23-11.5-89-12.1-93.1c-0.6-4.1-6.6-12.2-7-15.7c11.6,20,30.2,14.1,30.2,14.1c-13.4,0.3-20.4-24.8-20.4-24.8l-0.1-0.2
			l-0.1-0.2l-6.6-17.3c0.7,0.8,16.1,18,30.9,7.4c15.2-10.9,23-31.9,23-31.9v27c0,0,0.9,4.2,2.3,4.2c-0.9,12.4-3.5,27.6-6.7,42.5
			c-6.9,32.3-16.4,63.4-16.4,63.4s25.7-14,34.7-49.3c4.3-16.9,5-31.6,4.6-42.4c-0.4-9.2-1.6-15.4-2.1-17.7c0-0.2-0.1-0.3-0.1-0.5
			c0-0.1,0-0.2,0-0.2c0,0,0-0.1,0-0.1l2.5,5.3l4.7,11.7c5.5,45.4-5.8,113.8-5.8,113.8c16.5-20.5,19.9-65.8,19.2-76.8
			c-0.3-5.3-0.7-11.7-1-17.1c-0.4-5.8-0.6-10.2-0.6-10.2l33.7,20.1l-6.2-19.7l24.5,19.7c0,0,22,26.5,44.7,29.6
			c22.7,3.1,105.8,1.3,105.8,1.3s-72.3,4.6-93.4,10.9c-21.1,6.2-25.1,13.3-25.1,13.3c15.3,77.6,99.7,103.8,102.3,104.6
			c-76.6-11.5-112.3-76.6-112.3-76.6s-1.3,36.6,4.6,50.6c5.9,14,40.7,48.1,85.4,55.2c3.8,0.6,7.5,1,11.1,1.1
			c37.7,1.8,68.9-17.5,72.1-19.6c0.2-0.1,0.3-0.2,0.3-0.2s0,0-0.1,0.1c-1.2,1.8-16.7,23.6-79.1,25.9c-3.8,0.1-7.5,0.1-11.1,0
			c0,0,0,0,0,0c-57.8-2.4-87.3-41-87.3-41s-21.4,11.5-7.7,28.6c0.1,0.2,0.3,0.4,0.4,0.5c4,4.6,12.9,10.3,23.4,16.2
			c0.3,0.2,0.6,0.3,0.9,0.5c12.7,7,27.5,14.2,39,20.2c0.1,0,0.1,0,0.2,0.1c7,3.7,12.8,6.8,16,9.2c0,0,0,0,0,0
			c3.2,2.4,3.9,3.9,0.7,4.3c-16.1,1.9-77.3-11.5-79.8-7.8c-2.5,3.7,3,13.3,3,13.3c56.1,27.8,176.2,14.1,180,13.7
			c-100.5,25.7-182.7-6.9-182.7-6.9l2.7,9.6c0,0,44.8,15.5,97.5,16.8c52.8,1.2,85.7-12.3,85.7-12.3L1357.2,850.9z"/>
		<linearGradient id="SVGID_34_" gradientUnits="userSpaceOnUse" x1="1316.1053" y1="644.8007" x2="1382.4926" y2="644.8007">
			<stop  offset="0" style="stop-color:#CCEDFF"/>
			<stop  offset="1" style="stop-color:#755CBB"/>
		</linearGradient>
		<path class="st40" d="M1316.1,629.9c0,0,40,2.2,66.4,9.2l-13.6,20.7C1368.9,659.7,1348.4,641.7,1316.1,629.9z"/>
		<linearGradient id="SVGID_35_" gradientUnits="userSpaceOnUse" x1="1255.8921" y1="761.3101" x2="1353.4559" y2="761.3101">
			<stop  offset="0" style="stop-color:#CCEDFF"/>
			<stop  offset="1" style="stop-color:#755CBB"/>
		</linearGradient>
		<path class="st41" d="M1353.5,740.1c0,0-24.9,20.8-49.5,30.4c-24.5,9.6-48.1,10.6-48.1,10.6s14.1,4.2,48.8-1.4
			c34.7-5.6,46.6-24.4,46.6-24.4L1353.5,740.1z"/>
		<linearGradient id="SVGID_36_" gradientUnits="userSpaceOnUse" x1="1260.4102" y1="805.4252" x2="1364.6455" y2="805.4252">
			<stop  offset="0" style="stop-color:#CCEDFF"/>
			<stop  offset="1" style="stop-color:#755CBB"/>
		</linearGradient>
		<path class="st42" d="M1364.6,820.2L1364.6,820.2c-46.1,11.9-104.7-5.2-104.2-7.2c0.5-2.1,16,0.9,52.1-6.3
			c35-7,47.6-19.4,48.4-20.2c-0.3,2.1-5.1,6.8-6.5,11.8C1353.5,801.6,1360.1,812.3,1364.6,820.2z"/>
		<linearGradient id="SVGID_37_" gradientUnits="userSpaceOnUse" x1="1170.7028" y1="696.2005" x2="1170.7028" y2="579.2156">
			<stop  offset="0" style="stop-color:#CCEDFF"/>
			<stop  offset="1" style="stop-color:#755CBB"/>
		</linearGradient>
		<path class="st43" d="M1239.3,636.1c-39.4,4-50,15-50,15c-11.1,1.4-36-27-36-27l-3.2-3.7c0,0-20,45.6-38.2,68
			c-2.2,2.7-4.4,5.3-6.8,7.8l2.6-5.8c0,0,4.2-2,5.5-24.2c1.3-22.2-9.3-55.2-9.4-59.7s-1.6-27.2-1.6-27.2l33.7,20.1l-6.2-19.7
			l24.5,19.7c0,0,9.6,14.4,33.9,26.5C1210.8,637.2,1236.5,636.3,1239.3,636.1z"/>
		<linearGradient id="SVGID_38_" gradientUnits="userSpaceOnUse" x1="1180.1207" y1="706.0345" x2="1180.1207" y2="617.356">
			<stop  offset="0" style="stop-color:#CCEDFF"/>
			<stop  offset="1" style="stop-color:#755CBB"/>
		</linearGradient>
		<path class="st44" d="M1150.1,620.4l23.5-3.1c0,0,9.4,6.2,28.2,13.9l-15.7,23.2c0,0,6.2,33,24.1,51.6c0,0-47.5-26.4-54.1-48.5
			L1150.1,620.4z"/>
		<linearGradient id="SVGID_39_" gradientUnits="userSpaceOnUse" x1="1039.9701" y1="592.6741" x2="1039.9701" y2="525.6743">
			<stop  offset="0" style="stop-color:#CCEDFF"/>
			<stop  offset="1" style="stop-color:#755CBB"/>
		</linearGradient>
		<path class="st45" d="M1013,550.1l6.7,17.7c0,0,6.8,23.8,20.4,24.8c13.6,1,26.9-40,26.9-40v-27c0,0-14.4,31-30,34.5
			C1021.3,563.6,1013,550.1,1013,550.1z"/>
		<linearGradient id="SVGID_40_" gradientUnits="userSpaceOnUse" x1="1094.1871" y1="533.6729" x2="1121.1885" y2="533.6729">
			<stop  offset="0" style="stop-color:#CCEDFF"/>
			<stop  offset="1" style="stop-color:#755CBB"/>
		</linearGradient>
		<path class="st46" d="M1094.2,536.2c0,0,12.1,24.2,27,31.6c0,0-17.7-43-14-68.3C1107.2,499.5,1100.7,503.6,1094.2,536.2z"/>
		<linearGradient id="SVGID_41_" gradientUnits="userSpaceOnUse" x1="1387.7115" y1="696.2005" x2="1387.7115" y2="572.0161">
			<stop  offset="0" style="stop-color:#CCCCFF"/>
			<stop  offset="1" style="stop-color:#755CBB"/>
		</linearGradient>
		<path class="st47" d="M1388.4,572l4.2,13.5l4.2,110.7c0,0-10.7-21.1-18.3-51.1l3.9-6C1382.5,639,1389.1,597.3,1388.4,572z"/>
		<linearGradient id="SVGID_42_" gradientUnits="userSpaceOnUse" x1="1527.3284" y1="669.4913" x2="1527.3284" y2="604.598">
			<stop  offset="0" style="stop-color:#CCCCFF"/>
			<stop  offset="1" style="stop-color:#755CBB"/>
		</linearGradient>
		<path class="st48" d="M1517.1,604.6c0,0-2.4,54.4,20.7,59.1l1.1,5.8C1539,669.5,1509.1,668.4,1517.1,604.6z"/>
		<linearGradient id="SVGID_43_" gradientUnits="userSpaceOnUse" x1="1453.7314" y1="666.5918" x2="1453.7314" y2="616.982">
			<stop  offset="0" style="stop-color:#CCCCFF"/>
			<stop  offset="1" style="stop-color:#755CBB"/>
		</linearGradient>
		<path class="st49" d="M1478.5,621.1c0,0-0.9,1.9-9.3-4.2c0,0-29.1,20.6-40.3,49.6c0,0,17.9-26.7,27.5-29.5
			c9.5-2.9,11.8,7.8,11.8,7.8S1472,629.8,1478.5,621.1z"/>
		<linearGradient id="SVGID_44_" gradientUnits="userSpaceOnUse" x1="1025.9456" y1="596.951" x2="1025.9456" y2="578.5276">
			<stop  offset="0" style="stop-color:#CCEDFF"/>
			<stop  offset="1" style="stop-color:#755CBB"/>
		</linearGradient>
		<path class="st50" d="M1009.9,578.5c0,0,11.2,20.6,32.1,14.1c0,0-12.6,8.5-25.1,1.6C1016.9,594.3,1009.1,580.9,1009.9,578.5z"/>
		<linearGradient id="SVGID_45_" gradientUnits="userSpaceOnUse" x1="1075.1593" y1="653.119" x2="1075.1593" y2="552.4327">
			<stop  offset="0" style="stop-color:#CCCCFF"/>
			<stop  offset="1" style="stop-color:#755CBB"/>
		</linearGradient>
		<path class="st51" d="M1083.2,552.4c0,0,15.4,57.5-24.7,100.7c0,0,26.1-13.4,32-44.3S1083.2,552.4,1083.2,552.4z"/>
		<linearGradient id="SVGID_46_" gradientUnits="userSpaceOnUse" x1="1334.2002" y1="582.2482" x2="1334.2002" y2="506.4796">
			<stop  offset="0" style="stop-color:#CCEDFF"/>
			<stop  offset="1" style="stop-color:#755CBB"/>
		</linearGradient>
		<path class="st52" d="M1358.7,506.5c0,0-1.7,26-14.2,44.6c-12.4,18.6-37.1,31.2-37.1,31.2s31-11.4,45.2-27.5
			C1366.8,538.7,1358.7,506.5,1358.7,506.5z"/>
		<linearGradient id="SVGID_47_" gradientUnits="userSpaceOnUse" x1="1234.9368" y1="572.0058" x2="1234.9368" y2="467.4305">
			<stop  offset="0" style="stop-color:#CCEDFF"/>
			<stop  offset="1" style="stop-color:#755CBB"/>
		</linearGradient>
		<path class="st53" d="M1200.3,467.4c0,0,0,21.7,7,43.8c7,22.1,67.6,60.8,67.6,60.8s-62.5-26-74.6-49.3
			C1188.2,499.4,1200.3,467.4,1200.3,467.4z"/>
		<linearGradient id="SVGID_48_" gradientUnits="userSpaceOnUse" x1="1199.6259" y1="591.1326" x2="1374.2911" y2="591.1326">
			<stop  offset="0" style="stop-color:#8642A0"/>
			<stop  offset="1" style="stop-color:#6456C0"/>
		</linearGradient>
		<path class="st54" d="M1199.6,570.8v35.3c0,0,81.4-0.7,172.6,5.4l2.1-31.8C1374.3,579.7,1295,570.3,1199.6,570.8z"/>
		<g>
			<path class="st55" d="M1214.7,578.8c0-0.6,0.3-0.9,0.9-0.9l16.5,0.5c1.6,0,3,0.3,4.1,0.7c1.1,0.4,2,1.1,2.7,1.8
				c0.7,0.8,1.2,1.7,1.5,2.8s0.4,2.3,0.4,3.6l-0.1,4.5c0,1.3-0.2,2.5-0.6,3.6c-0.4,1.1-0.9,2-1.6,2.7c-0.7,0.7-1.7,1.3-2.8,1.7
				c-1.2,0.4-2.6,0.5-4.2,0.5l-8.9-0.3l-1.8-5.2l-0.2,0l-0.2,5.1l-6.2-0.2L1214.7,578.8z M1220.5,594.4l10.5,0.3
				c1.2,0,2-0.2,2.6-0.7c0.5-0.5,0.8-1.4,0.8-2.8l0.1-3.7c0-1.4-0.2-2.3-0.7-2.8c-0.5-0.5-1.3-0.8-2.5-0.8l-10.1-0.3
				c-0.1,0-0.3,0-0.3,0.1c-0.1,0.1-0.1,0.2-0.1,0.3L1220.5,594.4z"/>
			<path class="st55" d="M1249.7,588.3l-0.2,0l-0.2,6.6c0,0.3,0.1,0.4,0.4,0.4l18.5,0.6l-0.2,5.7l-24.3-0.7c-0.6,0-0.9-0.3-0.8-0.9
				l0.6-20.2c0-0.6,0.3-0.9,0.9-0.9l23.6,0.7c0.6,0,0.9,0.3,0.9,0.9l-0.2,5.7l-5.8,2l-0.2,0l0.1-2.9c0-0.2-0.1-0.3-0.3-0.3
				l-12.5-0.4c-0.2,0-0.3,0-0.3,0.1c-0.1,0.1-0.1,0.2-0.1,0.3l-0.1,2.7l10.3,0.3l-0.1,4.5l-8.6-0.3L1249.7,588.3z"/>
			<path class="st55" d="M1290.9,587.9l-0.2,0l0.1-2.4c0-0.2-0.1-0.4-0.4-0.4l-11.6-0.4c-0.4,0-0.7,0.1-0.9,0.2
				c-0.2,0.2-0.3,0.4-0.3,0.8l0,0.5c0,0.4,0,0.7,0.2,0.8c0.1,0.1,0.4,0.2,0.8,0.3l13.6,2.3c0.9,0.1,1.6,0.4,2.2,0.6
				c0.6,0.3,1.1,0.6,1.4,1c0.4,0.4,0.6,0.9,0.8,1.6c0.1,0.6,0.2,1.3,0.2,2.1l-0.1,1.7c0,0.9-0.2,1.7-0.4,2.4
				c-0.2,0.7-0.6,1.3-1.1,1.7c-0.5,0.5-1.2,0.8-2,1c-0.8,0.2-1.9,0.3-3.1,0.3l-19.6-0.6l0.2-5.7l17.5,0.5c0.5,0,0.9-0.1,1.1-0.3
				c0.2-0.2,0.3-0.5,0.3-1l0-0.6c0-0.4,0-0.7-0.2-0.8c-0.1-0.2-0.4-0.3-0.8-0.3l-13.1-2.1c-0.9-0.1-1.6-0.4-2.3-0.6
				c-0.6-0.3-1.1-0.6-1.5-1c-0.4-0.4-0.7-0.9-0.8-1.5c-0.2-0.6-0.2-1.3-0.2-2.1l0-1.5c0-1.6,0.5-2.8,1.4-3.7
				c0.9-0.8,2.3-1.2,4.3-1.2l19.5,0.6c0.6,0,0.9,0.4,0.9,1l-0.1,4.5L1290.9,587.9z"/>
			<path class="st55" d="M1299.1,602.5l0.7-22l6.2,0.2l-0.7,22L1299.1,602.5z"/>
			<path class="st55" d="M1328.4,594c0-0.3,0-0.7,0-1c0-0.4,0-0.7-0.1-0.9l0-0.3l6.2,0.2l-0.3,10.8c0,0.6-0.3,0.8-0.8,0.8l-16.5-0.5
				c-1.6-0.1-3-0.3-4.1-0.7c-1.1-0.4-2-1.1-2.7-1.8c-0.7-0.8-1.2-1.7-1.5-2.8c-0.3-1.1-0.4-2.3-0.4-3.6l0.1-4.5
				c0-1.3,0.2-2.5,0.6-3.6c0.4-1.1,0.9-2,1.6-2.7c0.7-0.7,1.7-1.3,2.8-1.7c1.2-0.4,2.6-0.5,4.2-0.5l16.4,0.5c0.6,0,0.9,0.3,0.8,0.9
				l-0.1,4.7l-5.8,1.9l-0.2,0l0.1-2.1c0-0.2-0.1-0.3-0.3-0.3l-10.5-0.3c-0.6,0-1.1,0-1.5,0.1c-0.4,0.1-0.8,0.3-1,0.5
				c-0.3,0.3-0.5,0.6-0.6,1.1c-0.1,0.4-0.2,1-0.2,1.7l-0.1,3.9c0,1.3,0.2,2.3,0.7,2.8c0.5,0.5,1.3,0.8,2.5,0.9l10.4,0.3
				c0.2,0,0.3-0.1,0.3-0.4L1328.4,594z"/>
			<path class="st55" d="M1347.7,582c0.5,0,0.8,0.1,1,0.2c0.2,0.1,0.4,0.4,0.5,0.7l7.9,16c0.1,0.2,0.3,0.4,0.6,0.4l0.3,0
				c0.3,0,0.5-0.1,0.5-0.5l0.5-16.5l5.6,0.2l-0.6,21.1c0,0.6-0.3,0.9-0.9,0.8l-8.9-0.3c-0.4,0-0.7-0.1-0.9-0.2
				c-0.2-0.1-0.4-0.4-0.6-0.7l-8.2-16c-0.1-0.2-0.3-0.4-0.6-0.4l-0.3,0c-0.3,0-0.5,0.1-0.5,0.5l-0.5,16.5l-5.6-0.2l0.6-21.1
				c0-0.6,0.3-0.9,0.9-0.9L1347.7,582z"/>
		</g>
		<linearGradient id="SVGID_49_" gradientUnits="userSpaceOnUse" x1="1214.6858" y1="490.3405" x2="1328.3535" y2="490.3405">
			<stop  offset="0" style="stop-color:#CCCCFF"/>
			<stop  offset="1" style="stop-color:#755CBB"/>
		</linearGradient>
		<path class="st56" d="M1328.4,472.1c-1.9,22.9-8.9,38.8-16.3,49.5c-10.2,14.7-21.3,19.8-21.3,19.8c-11.1-4.8-20.6-10.8-28.9-17.4
			c-35-28-46.3-66.8-47.2-70c14.8,35.7,36.5,57.4,53,69.6c13.3,9.9,23.1,13.6,23.1,13.6v-11.4c-2.6-1-5.2-2.1-7.6-3.3
			c-29-14.6-44.2-45.1-51.4-64.8c0,0,0-0.1,0-0.1c-3.9-10.7-5.4-18.2-5.4-18.2h5.3l-1.7,3.7l-0.1,0.1c0.8,3.7,1.8,7.3,2.9,10.7
			c0,0.1,0,0.2,0.1,0.3c16.2,51.2,57.9,67.6,57.9,67.6c29-21.4,28.4-55.4,28.4-55.4v-4.7l5.4,1.6L1328.4,472.1z"/>
		<linearGradient id="SVGID_50_" gradientUnits="userSpaceOnUse" x1="1506.8932" y1="662.0925" x2="1506.8932" y2="596.311">
			<stop  offset="0" style="stop-color:#CCCCFF"/>
			<stop  offset="1" style="stop-color:#755CBB"/>
		</linearGradient>
		<path class="st57" d="M1500.4,596.3c0,0-7.9,25.7-0.4,65.8c0,0,3.7-50.7,6.5-55.2c2.8-4.4,10.6-2.3,10.6-2.3
			S1504.8,597.8,1500.4,596.3z"/>
		<linearGradient id="SVGID_51_" gradientUnits="userSpaceOnUse" x1="1413.9114" y1="736.3011" x2="1413.9114" y2="537.1">
			<stop  offset="0" style="stop-color:#CCCCFF"/>
			<stop  offset="1" style="stop-color:#755CBB"/>
		</linearGradient>
		<path class="st58" d="M1423.9,736.3c-6.9-6-15.1-16.1-23.4-32.5c-16.5-32.9-21.2-54.9-21.9-58.7l3.9-6l5.2-50.6l4.9-2.9
			c0,0,17.5-19.3,30.7-48.4c0.2,0.4,0.4,1.1,0.7,2.1v0c2.7,10.5,8.2,49.9,13.3,64c3.2,8.8,8.2,13.6,11.9,16.1
			c0,0-30.2,44.9-31.7,76.9C1416.2,725.3,1422.7,734.8,1423.9,736.3z"/>
		<linearGradient id="SVGID_52_" gradientUnits="userSpaceOnUse" x1="1199.7462" y1="829.8694" x2="1199.7462" y2="772.7653">
			<stop  offset="0" style="stop-color:#CCCCFF"/>
			<stop  offset="1" style="stop-color:#755CBB"/>
		</linearGradient>
		<path class="st59" d="M1244.3,829.9c0,0-54.5-8.9-76.8-23.3c0,0,0,0,0,0c0.2-1.2,0.3-2.4,0.3-3.6c-0.5-12.3-11.1-23.2-12.6-30.1
			c0.2,0.7,1.8,4.3,9.6,11c4.9,4.2,12.3,9.6,23.4,16.2c0.3,0.2,0.6,0.3,0.9,0.5c15.7,9.3,29.3,15.6,39,20.2c0.1,0,0.1,0,0.2,0.1
			C1237,824.8,1242.7,827.5,1244.3,829.9C1244.3,829.8,1244.3,829.9,1244.3,829.9z"/>
		<linearGradient id="SVGID_53_" gradientUnits="userSpaceOnUse" x1="1310.6743" y1="814.1832" x2="1310.6743" y2="786.4516">
			<stop  offset="0" style="stop-color:#CCCCFF"/>
			<stop  offset="1" style="stop-color:#755CBB"/>
		</linearGradient>
		<path class="st60" d="M1360.9,786.5c-0.3,2.1-5.1,6.8-6.5,11.8c0,0-20,21.2-94,14.7c0.5-2.1,16,0.9,52.1-6.3
			C1347.5,799.6,1360.2,787.2,1360.9,786.5z"/>
		<path class="st61" d="M1373.2,499.9l-47.3,15.3l-13.9,6.4l-0.1,0l-9,0l-12.2,0l-7.6,0.6l-4,0.3l-11.5,0.9l-5.8,0.5l-56.8-20.5
			l-10.1-3.7l-46.7-16.9c1.4-0.5,2.8-1.1,4.3-1.7c31.3-12.4,62.1-27.5,62.1-27.5l11.8-14.5h5.3c4.7-10.3,7.8-19.9,9.8-27.4l3.1-14
			c0.2-1.4,0.3-2.1,0.3-2.1l16.7,8.8l56.3,45.1c0,3.1,0,5.8,0.2,8.2l0.8,5.7c0.1-1.1,0.2-1.7,0.2-1.7l5.4,1.6l3.7,8.8
			c0,0,6.3,9.8,31.2,20.7C1363.9,494.8,1368.5,497.1,1373.2,499.9z"/>
		<g>
			<linearGradient id="SVGID_54_" gradientUnits="userSpaceOnUse" x1="1309.4518" y1="457.7388" x2="1309.4518" y2="268.0297">
				<stop  offset="1.598750e-02" style="stop-color:#FFC2A9"/>
				<stop  offset="1" style="stop-color:#FF9595"/>
			</linearGradient>
			<path class="st62" d="M1337.2,456.7c0,0-22.1,5-46.4-6.8s-44.8-46.6-46.1-55.2c-1.2-8.7,9.3-31.4,9.3-49s-8.7-48.1,5.9-64.6
				c14.6-16.4,81.6-18.9,103.4,2.2c0,0,6.7,16.9,6.7,26.5c0,2.3-0.4,5.7-1,9.6c-0.2,1.4-0.5,3-0.7,4.6c-1.9,11.6-4.6,25.7-3.4,31.9
				c0.4,2.2,1.1,4.2,1.9,6v0c2.7,6.2,6.7,11.1,7.4,16.5C1375.2,385.3,1365.8,435,1337.2,456.7z"/>
			<linearGradient id="SVGID_55_" gradientUnits="userSpaceOnUse" x1="1238.7302" y1="381.187" x2="1238.7302" y2="325.2562">
				<stop  offset="1.598750e-02" style="stop-color:#FFC2A9"/>
				<stop  offset="1" style="stop-color:#FF9595"/>
			</linearGradient>
			<path class="st63" d="M1253.8,340.6c0,0-6-15.1-21.2-15.3c0,0-8.8,3.5-10.2,10.2c0,0,3.3,24.4,7,35.8c3.7,11.4,17.4,9.8,17.4,9.8
				S1258.7,362.9,1253.8,340.6z"/>
			<linearGradient id="SVGID_56_" gradientUnits="userSpaceOnUse" x1="1335.8198" y1="402.3383" x2="1338.1649" y2="390.1281">
				<stop  offset="0" style="stop-color:#E1616A"/>
				<stop  offset="1" style="stop-color:#FF8883"/>
			</linearGradient>
			<path class="st64" d="M1312,390.4c0,0,5-0.4,7.2,1.2c2.2,1.6,10.1,9.3,20.1,11.4c10,2.1,16.7-6.4,18.9-6.9
				c2.1-0.4,4.5,2.6,4.5,2.6s-0.9-3.5-6.1-5.1c0,0-2.1,8-16.6,5.3c-14.5-2.7-20.7-9.2-20.7-9.2l-0.7-1.3
				C1318.5,388.4,1314.4,389.3,1312,390.4z"/>
			<linearGradient id="SVGID_57_" gradientUnits="userSpaceOnUse" x1="1314.6511" y1="392.9958" x2="1314.6511" y2="270.7851">
				<stop  offset="0" style="stop-color:#FFEADB"/>
				<stop  offset="0.9944" style="stop-color:#C27CB6"/>
			</linearGradient>
			<path class="st65" d="M1290.6,315.2l0.2-1.6c0,0,14.5-25.4,43.1-26.1c28.6-0.7,35.1,17.2,35.1,17.2l5.3-8.1l-12.1-24.6l-84.1-1.4
				l-20.5,16.5l-2.6,40.5l9.1,53.4l22.2,11.8l6.3-5.5c-2.3-17.9-15.6-34.2-15.6-34.2l9.7-6.7c0,0,24.9,12.1,39.3,8.4
				c0,0,10.8-31.6,10.2-55C1336.1,299.9,1299.2,305.4,1290.6,315.2z"/>
			<path class="st66" d="M1289.3,317.1c0,0,1.4-9.1,16.8-12.8c17.2-4.1,31.2-7.5,31.2-7.5s-3,10-8.8,13.8c0,0-18.2-0.7-27.4,1.4
				C1291.9,314.1,1289.3,317.1,1289.3,317.1z"/>
			<path class="st66" d="M1369,304.8c0,0-8.7,6.7-14.7,22.8c0,0,5.7-7.4,10.9-7.3c3.6,0.1,3,3.6,3,3.6S1371.8,314.3,1369,304.8z"/>
			<linearGradient id="SVGID_58_" gradientUnits="userSpaceOnUse" x1="1308.6951" y1="342.9476" x2="1308.6951" y2="318.7383">
				<stop  offset="0" style="stop-color:#CF6074"/>
				<stop  offset="1" style="stop-color:#F37270"/>
			</linearGradient>
			<path class="st67" d="M1295.1,342.9c0,0,0.9-19.3,19.8-24.2c0,0,6.8,8.7,7.4,18.6C1322.3,337.4,1312.3,335.5,1295.1,342.9z"/>
			<linearGradient id="SVGID_59_" gradientUnits="userSpaceOnUse" x1="1356.9832" y1="350.6297" x2="1356.9832" y2="329.5628">
				<stop  offset="0" style="stop-color:#CF6074"/>
				<stop  offset="1" style="stop-color:#FF817F"/>
			</linearGradient>
			<path class="st68" d="M1349.1,350.6c0,0,1.5-15.4,10.4-21.1c0,0,6,4.5,5.4,17.4C1364.8,346.9,1359.6,345,1349.1,350.6z"/>
			<path class="st69" d="M1295.1,342.9c0,0,6.1,7.5,23.3,9c0,0,3.3-5,3-14.7C1321.3,337.2,1305.6,335.7,1295.1,342.9z"/>
			<path class="st69" d="M1349.1,350.6v2.3c0,0,2.6,5.5,12.1,6.4c0,0,3.1-4.8,3.3-12.5C1364.5,346.9,1358.5,345.4,1349.1,350.6z"/>
			<path class="st70" d="M1313.4,336.8c0,0-4.3,5.3-4,13.6c0,0,5.7,1.3,8.9,1.5c0,0,3.8-5.2,3-14.7
				C1321.3,337.2,1316.3,336.2,1313.4,336.8z"/>
			<path class="st70" d="M1358.1,347.1c0,0-2.5,2.6-2.9,10.7c0,0,3.4,1.5,6.1,1.5c0,0,3.4-4.9,3.3-12.5
				C1364.5,346.9,1362.1,345.9,1358.1,347.1z"/>
			<path class="st66" d="M1312,351.1c0,0-1.6-10.4,4.4-14.4l4.9,0.6c0,0,1.6,8.3-3,14.7C1318.4,351.9,1313.5,351.4,1312,351.1z"/>
			<path class="st66" d="M1360.2,346.7c0,0-2.2,4.6-3.2,11.9c0,0,1.7,0.7,4.2,0.8c0,0,3.4-4.1,3.3-12.5
				C1364.5,346.9,1361.9,346.2,1360.2,346.7z"/>
			<path class="st71" d="M1295.1,342.9c0,0,11.4-6.6,30.8-2.9l-3.6-2.7C1322.3,337.4,1308.5,333.1,1295.1,342.9z"/>
			<path class="st71" d="M1349.1,350.6c0,0,9.1-4.9,19.8-2.3l-4.4-3.3C1364.5,345.1,1357.3,344,1349.1,350.6z"/>
			<path class="st10" d="M1307.4,342.9c0,0,3.1-0.7,5.9,2.1C1313.3,345.1,1309.5,346.2,1307.4,342.9z"/>
			<path class="st10" d="M1353.3,351.9c0,0,4.9-0.9,6.5,1.3C1359.8,353.2,1357.2,355,1353.3,351.9z"/>
			<path class="st72" d="M1296.2,344.1c0,0,8.9,8.8,23.1,10.9l0.4-5.2l-1.3,2.2C1318.4,351.9,1304.7,351.1,1296.2,344.1z"/>
			<path class="st72" d="M1349.1,352.9c0,0,1.6,5.7,13.1,8.2l-0.4-2.8l-0.6,1C1361.2,359.3,1353,358.3,1349.1,352.9z"/>
			<path class="st73" d="M1325.9,375.5c0,0,4.3-0.9,12.2,0c7.9,0.9,16.8,3.1,21.7,0c0,0-6.5,6.5-12.1,7.4c-5.6,1-14.1-3.9-14.1-3.9
				l-3.7,0.1C1329.9,379.1,1327,377.7,1325.9,375.5z"/>
			<path class="st74" d="M1330.5,379.1c0,0,1.9-1.2,3.6-0.9c1.6,0.3,3.3,2.7,3.3,2.7S1333.9,379,1330.5,379.1z"/>
			<path class="st75" d="M1359.8,375.5c2.1-2-8.6-21.1-13.8-21.8c-5.1-0.7-9.9,21.4-9.9,21.4s7.1,1,14,1.9
				C1357.1,378,1359.8,375.5,1359.8,375.5z"/>
			<linearGradient id="SVGID_60_" gradientUnits="userSpaceOnUse" x1="1358.9657" y1="362.8882" x2="1358.9657" y2="315.4817">
				<stop  offset="0" style="stop-color:#FFEADB"/>
				<stop  offset="0.9944" style="stop-color:#C27CB6"/>
			</linearGradient>
			<path class="st76" d="M1367.5,315.5c-2.9-0.4-13.1,12.1-13.1,12.1s-6.5,20.2-5.2,26.1c1.3,6,17.1,9.2,17.1,9.2l0.7-1.1v0
				c-0.8-1.9-1.5-3.9-1.9-6c-1.3-6.2,1.4-20.3,3.4-31.9c0,0,0.6-2.4,0.7-4.6C1369.1,317.4,1368.8,315.6,1367.5,315.5z"/>
			<linearGradient id="SVGID_61_" gradientUnits="userSpaceOnUse" x1="1311.9978" y1="460.1245" x2="1311.9978" y2="230.0546">
				<stop  offset="0" style="stop-color:#2E33A0"/>
				<stop  offset="1" style="stop-color:#0665A5"/>
			</linearGradient>
			<path class="st77" d="M1367,397.4c-3.3-6.8-1.3-10.4-29.6-14.1c-40.2-5.3-43.6,7-50.4,5.1c-0.2-0.1-0.5-0.2-0.8-0.3
				c-7.4-2.9-24.8-20-25.3-43.1c-0.5-24,15.6-41,15.6-41c-5.8-4.9-8.2-19.1-1.9-25.1c6.3-6,17-4.6,43.3-1.9
				c26.3,2.8,26.3,1.2,26.3,1.2c8.4,2.1,13.1,10,14.5,12.5c0.3,0.5,0.4,0.8,0.4,0.8l3.3-3c8.8,12.8,7.2,26.8,7.2,26.8
				s14.4-29.3,12.8-33.5c-3-7.7-11.3-18.8-11.8-19.6l0,0c0,0-2.3-22.3-9.3-22.3c-7,0-36.8,6.7-36.8,6.7c3.3-7.7,2.8-16.5,2.8-16.5
				s0,0-0.1,0.1c-9.7,8.7-19.2,9.7-32.7,15.9c-6.8,3.2-10,6.1-12.6,9.1l-0.9,1.1l-1,1.2c-0.9,1.2-1.9,2.4-3,3.6
				c0,0.1-0.1,0.1-0.1,0.1c0,0-0.1,0.1-0.1,0.1c-1.1,1.2-2.4,2.4-3.9,3.7c-8.8,7.2-28.3,12-30.6,19.6c-2.3,7.6,2.9,18,5.7,28.7
				c2.8,10.7,1.5,20.2,1.5,20.2s9.3,11.9,6.2,29.4c-2.7,15.7-8.7,18.2-8.7,18.2c-4.2,8.6-2.2,16.7-2.2,16.7
				c8.6,34.2,44.2,54.6,44.2,54.6c31.6,11.8,52.5,6.7,52.5,6.7s0,0,0,0c23-15,30.9-64.7,31.3-67
				C1372.1,392.6,1367.9,399.2,1367,397.4z M1352.8,429.1c-5.6-0.9-6.8-15.1-8.6-16.9c-1.9-1.8-12-1.1-12-1.1s-9.3,10.6-13,10.9
				c-3.7,0.3-23.6-7.8-19.3-19.9c4.3-12.1,19.3-13.7,19.3-13.7s7.8,6.5,19.4,7.3c11.6,0.8,15.8-1.4,17.2-2c1.4-0.6,8.9,2.8,8.7,13.3
				C1364.4,414.4,1358.4,430,1352.8,429.1z"/>
			<path class="st78" d="M1351.4,358c0,0,10,12.5,9.1,17.1c-1,5.1-12.7,7.9-12.7,7.9s9.3-3.2,11.2-7.9
				C1359,375.1,1356.6,365.7,1351.4,358z"/>
			<linearGradient id="SVGID_62_" gradientUnits="userSpaceOnUse" x1="1372.4265" y1="315.244" x2="1372.4265" y2="262.1696">
				<stop  offset="0" style="stop-color:#FFEADB"/>
				<stop  offset="0.9944" style="stop-color:#8860C7"/>
			</linearGradient>
			<path class="st79" d="M1369.6,315.2c0,0,1.6-14-7.2-26.8c7.1-12.7,8.1-26.3,8.1-26.3l0,0c2.4,5.9,3.8,17.4,3.8,17.4l8.1,2.1
				C1384,285.9,1369.6,315.2,1369.6,315.2z"/>
			<linearGradient id="SVGID_63_" gradientUnits="userSpaceOnUse" x1="1300.1012" y1="460.1245" x2="1300.1012" y2="230.0546">
				<stop  offset="0" style="stop-color:#CCC2DB"/>
				<stop  offset="0.9944" style="stop-color:#8860C7"/>
			</linearGradient>
			<path class="st80" d="M1358.7,290.7c-1.4-2.5-6.1-10.3-14.5-12.5c0,0,0,1.6-26.3-1.2c-26.3-2.8-37-4.2-43.3,1.9
				c-6.3,6.1-4,20.2,1.9,25.1c0,0-16.1,17-15.6,41c0.4,23.1,17.9,40.2,25.3,43.1l-0.3,2.6c0,0,1.3,52.8,14.2,57
				c12.8,4.2,39.5,2,41.9,4.5c2.4,2.4-0.3,6.4-0.6,6.8c0,0,0,0,0,0s-20.8,5.1-52.5-6.7c0,0-35.6-20.4-44.2-54.6c0,0-2-8.1,2.2-16.7
				c0,0,6-2.6,8.7-18.2c3.1-17.5-6.2-29.4-6.2-29.4s1.3-9.5-1.5-20.2c-2.8-10.7-8.1-21.1-5.7-28.7c14.9,2.3,24.7-5.4,24.7-5.4
				s2.6-3.6,14.1-5.5c11.5-1.9,57.8,2.8,57.8,2.8s-4.6-3.9-14.4-6.4c-9.2-2.4-40.8,0.4-44.2,0.7c3.6-0.6,39.4-6.8,43.5-5.6
				c4.3,1.3,19.8,8.4,19.8,8.4c-1.4-7.1-15.3-24.2-15.3-24.2s-19.6,0.3-32.4,3c-11.4,2.4-17.7,7.6-18.9,8.7l3-3.6l1-1.2l0.9-1.1
				l4.5-0.8l22.5-9.1c7.5-4,17.2-14,18.4-15.2c0.1-0.1,0.1-0.1,0.1-0.1s0.5,8.8-2.8,16.5c19-2.3,25.4-1.2,25.4-1.2
				C1358.4,257.6,1358.7,290.7,1358.7,290.7z"/>
			<linearGradient id="SVGID_64_" gradientUnits="userSpaceOnUse" x1="1315.5282" y1="460.07" x2="1315.5282" y2="450.1852">
				<stop  offset="0" style="stop-color:#776D7E"/>
				<stop  offset="1" style="stop-color:#9D68C2"/>
			</linearGradient>
			<path class="st81" d="M1288.8,452.4c0,0,11.6-2.8,29.2-2.1c17.5,0.7,27.6,0.8,23.3,8.7C1341.3,459,1319.2,464,1288.8,452.4z"/>
			<linearGradient id="SVGID_65_" gradientUnits="userSpaceOnUse" x1="1344.5286" y1="246.5667" x2="1344.5286" y2="239.2231">
				<stop  offset="0" style="stop-color:#1F77D1"/>
				<stop  offset="1" style="stop-color:#0686C9"/>
			</linearGradient>
			<path class="st82" d="M1349.8,245.4c0,0,10.7-4.2,14.9-3.5c0,0-1.7-2.2-3.4-2.7c-1.7-0.5-36.8,7.3-36.8,7.3
				S1346.3,244,1349.8,245.4z"/>
			<linearGradient id="SVGID_66_" gradientUnits="userSpaceOnUse" x1="1297.7461" y1="270.7451" x2="1297.7461" y2="249.0323">
				<stop  offset="0" style="stop-color:#1F77D1"/>
				<stop  offset="1" style="stop-color:#0686C9"/>
			</linearGradient>
			<path class="st83" d="M1328.1,249.4c0,0-0.8,11.6-4.5,15.8l-43.5,5.6l-12.8-2.2c0,0,4.9-2.1,10.4-8.4
				C1283.1,253.7,1311.5,247.5,1328.1,249.4z"/>
			<linearGradient id="SVGID_67_" gradientUnits="userSpaceOnUse" x1="1376.4276" y1="281.7531" x2="1376.4276" y2="262.1696">
				<stop  offset="0" style="stop-color:#1F77D1"/>
				<stop  offset="1" style="stop-color:#0686C9"/>
			</linearGradient>
			<path class="st84" d="M1370.5,262.2c0,0,3.5,11.4,3.8,17.5l8.1,2.1C1382.4,281.8,1379.9,273.1,1370.5,262.2z"/>
			<linearGradient id="SVGID_68_" gradientUnits="userSpaceOnUse" x1="1246.8755" y1="367.9308" x2="1221.823" y2="337.2384">
				<stop  offset="0" style="stop-color:#FFEADB"/>
				<stop  offset="0.9944" style="stop-color:#B060F4"/>
			</linearGradient>
			<path class="st85" d="M1252.1,361.1c0,0-3.1-14.7-10.5-21.9c-7.5-7.3-16-4.9-16-4.9s2.3,27.2,4.8,33.8c2.4,6.6,6.2,8.4,6.2,8.4
				s-5.2-4.6-5.9-13.6c-0.7-9-0.9-21.7,1-23.2c2-1.5,10,4.4,10,4.4s-2.5,3.1-4,11.1c-1.5,8,4.1,13.8,6.2,13.7
				c2.1-0.1-0.1-9.3,0.2-11.9S1248.9,354.9,1252.1,361.1z"/>
			<linearGradient id="SVGID_69_" gradientUnits="userSpaceOnUse" x1="1249.4982" y1="363.9775" x2="1237.1716" y2="348.8759">
				<stop  offset="0" style="stop-color:#FFEADB"/>
				<stop  offset="0.9944" style="stop-color:#B060F4"/>
			</linearGradient>
			<path class="st86" d="M1244.6,342.9c0,0-8.2,5.4-7.3,16.4c0.9,11,7.2,10.5,7.2,8.2c0-2.3-1.2-8.3-0.6-11.6
				c0.6-3.4,6.1-1.8,6.1-1.8S1246.4,345.3,1244.6,342.9z"/>
			<path class="st87" d="M1372.5,392c0,0-10.2,46.4-31.3,67C1341.3,459,1365.3,449.5,1372.5,392z"/>
			<path class="st87" d="M1361.2,239.2c0,0,5.4,4.2,6.4,18.7c1,14.5-5.3,30.6-5.3,30.6s8.1-12,8.8-25.2
				C1372,250.1,1365.5,240.9,1361.2,239.2z"/>
		</g>
		<linearGradient id="SVGID_70_" gradientUnits="userSpaceOnUse" x1="1296.2955" y1="272.6871" x2="1338.7227" y2="272.6871">
			<stop  offset="0" style="stop-color:#1F77D1"/>
			<stop  offset="1" style="stop-color:#0686C9"/>
		</linearGradient>
		<path class="st88" d="M1296.3,269.6c0,0,12.4,4.2,26,5.4c13.6,1.2,16.4,1.5,16.4,1.5s-5.5-5.3-17.1-6.9
			C1309.9,268,1296.3,269.6,1296.3,269.6z"/>
		<linearGradient id="SVGID_71_" gradientUnits="userSpaceOnUse" x1="1356.1375" y1="399.5703" x2="1369.0057" y2="399.5703">
			<stop  offset="0" style="stop-color:#1F77D1"/>
			<stop  offset="1" style="stop-color:#0686C9"/>
		</linearGradient>
		<path class="st89" d="M1356.3,393c0,0,5.9,0,8.3,7.4c1.9,5.9,2.4,11.1,2.4,11.1l2.1-8.2c0,0-2.7-10.3-5.6-12.7
			c-2.1-1.7-5.6-3.4-7.3-3L1356.3,393z"/>
		<linearGradient id="SVGID_72_" gradientUnits="userSpaceOnUse" x1="1340.25" y1="390.0016" x2="1354.1294" y2="390.0016">
			<stop  offset="0" style="stop-color:#1F77D1"/>
			<stop  offset="1" style="stop-color:#0686C9"/>
		</linearGradient>
		<path class="st90" d="M1340.3,385.5l1,8.8c0,0,7.2,0.6,12-1.4l0.9-5.4C1354.1,387.6,1344.9,385.3,1340.3,385.5z"/>
		<path class="st87" d="M1373.2,499.9c0,0,42.3,30.9,47.8,41.6c5.5,10.6,7.7,44,15.1,58.4c0,0-5.1-23.6-8.6-42.1
			c-3.6-18.5-2.7-18.8-4.7-23.3C1420.9,529.9,1389.3,507.9,1373.2,499.9z"/>
		<path class="st87" d="M1365.7,672c0,0-20.4,87.3-19.5,93.2c0.9,5.9,14.1,17.9,14.7,21.2c0,0-10.1,13.5-9.6,16.5
			c0.5,3,17.7,21.9,17.2,27.8c-0.1,1.7-11.3,20.1-11.3,20.1s12.6-18.1,13.2-21c0.6-2.9-15.5-27.1-15.9-29.6c-1.2-6.4,8-11,8.3-15.2
			c0.3-4.2-12.5-14.4-12.6-21.3C1350.1,757,1365.7,672,1365.7,672z"/>
		<path class="st87" d="M1369.8,880.2c0,0,44.1,99.8,59.1,199.7C1429,1079.9,1426.4,982.4,1369.8,880.2z"/>
		<path class="st75" d="M1090.2,479.8c0,0-11.4-2.4-16.1-12.4c-4.7-10-1.6-24.4-1.6-24.4s8.9,17.1,13.4,23
			C1090.2,471.9,1091.4,478.6,1090.2,479.8z"/>
	</g>
	<g class="st0">
		<path class="st91" d="M1442.3,427.8l7.9,225.6c0.3,8.9,7.7,16,16.6,16h388.6c9,0,16.4-7.2,16.6-16.2l5.4-228.2
			c0.2-9.4-7.3-17.1-16.7-17l-401.9,2.6C1449.4,410.6,1442,418.4,1442.3,427.8z"/>
		<g>
			<path class="st92" d="M1855.4,670h-388.6c-9.3,0-16.9-7.3-17.2-16.6l-7.9-225.6c-0.2-4.7,1.5-9.1,4.8-12.5
				c3.3-3.4,7.6-5.3,12.3-5.3l401.9-2.6c4.7,0,9.1,1.8,12.4,5.2c3.3,3.4,5.1,7.8,4.9,12.5l-5.4,228.2
				C1872.4,662.6,1864.8,670,1855.4,670z M1860.8,408.5c0,0-0.1,0-0.1,0l-401.9,2.6c-4.4,0-8.4,1.8-11.4,4.9
				c-3,3.1-4.6,7.3-4.4,11.6l7.9,225.6c0.3,8.7,7.3,15.4,16,15.4h388.6c8.6,0,15.8-7,16-15.6l5.4-228.2c0.1-4.4-1.5-8.5-4.6-11.6
				C1869.2,410.2,1865.1,408.5,1860.8,408.5z"/>
		</g>
		<linearGradient id="SVGID_73_" gradientUnits="userSpaceOnUse" x1="1442.6254" y1="423.6688" x2="1877.6846" y2="423.6688">
			<stop  offset="0" style="stop-color:#9D68C2"/>
			<stop  offset="1" style="stop-color:#AEC2FF"/>
		</linearGradient>
		<path class="st93" d="M1442.9,439.3H1877l0.7-11.9c0.6-10.5-7.8-19.4-18.3-19.3l-401.7,3.2c-8.4,0.1-15.1,7-14.9,15.4
			L1442.9,439.3z"/>
		<linearGradient id="SVGID_74_" gradientUnits="userSpaceOnUse" x1="1531.1272" y1="587.9866" x2="1531.1272" y2="456.7694">
			<stop  offset="0" style="stop-color:#CCEDFF"/>
			<stop  offset="1" style="stop-color:#9D68C2"/>
		</linearGradient>
		<polygon class="st94" points="1464.7,457.5 1464.7,588 1597.6,588 1597.6,456.8 		"/>
		<linearGradient id="SVGID_75_" gradientUnits="userSpaceOnUse" x1="1754.8723" y1="524.012" x2="1754.8723" y2="466.2135">
			<stop  offset="0" style="stop-color:#CCEDFF"/>
			<stop  offset="1" style="stop-color:#9D68C2"/>
		</linearGradient>
		<rect x="1726" y="466.2" class="st95" width="57.8" height="57.8"/>
		<linearGradient id="SVGID_76_" gradientUnits="userSpaceOnUse" x1="1823.0667" y1="524.012" x2="1823.0667" y2="466.2135">
			<stop  offset="0" style="stop-color:#CCEDFF"/>
			<stop  offset="1" style="stop-color:#9D68C2"/>
		</linearGradient>
		<rect x="1794.2" y="466.2" class="st96" width="57.8" height="57.8"/>
		<linearGradient id="SVGID_77_" gradientUnits="userSpaceOnUse" x1="1685.5385" y1="524.012" x2="1685.5385" y2="466.2135">
			<stop  offset="0" style="stop-color:#CCEDFF"/>
			<stop  offset="1" style="stop-color:#9D68C2"/>
		</linearGradient>
		<rect x="1656.6" y="466.2" class="st97" width="57.8" height="57.8"/>
		<rect x="1704.2" y="557.7" class="st98" width="147.8" height="13.8"/>
		<rect x="1667.2" y="578.8" class="st98" width="184.8" height="4.3"/>
		<rect x="1668.9" y="531.4" class="st98" width="35.3" height="4.3"/>
		<rect x="1737.2" y="531.4" class="st98" width="35.3" height="4.3"/>
		<rect x="1805.4" y="531.4" class="st98" width="35.3" height="4.3"/>
		<rect x="1656.6" y="585.7" class="st98" width="59.4" height="4.3"/>
		<rect x="1667.2" y="592.6" class="st98" width="184.8" height="4.3"/>
		<rect x="1656.6" y="599.5" class="st98" width="195.3" height="4.3"/>
		<rect x="1656.6" y="606.4" class="st98" width="195.3" height="4.3"/>
		<rect x="1667.2" y="634.2" class="st98" width="184.8" height="4.3"/>
		<rect x="1656.6" y="641.1" class="st98" width="195.3" height="4.3"/>
		<rect x="1656.6" y="648" class="st98" width="195.3" height="4.3"/>
		<rect x="1656.6" y="613.3" class="st98" width="187.5" height="4.3"/>
		<rect x="1667.2" y="620.2" class="st98" width="184.8" height="4.3"/>
		<rect x="1656.6" y="627" class="st98" width="158.3" height="4.3"/>
		<g>
			<path class="st99" d="M1501.9,561.8c-20.8,0-37.8-17-37.8-37.8c0-20.8,17-37.8,37.8-37.8c20.8,0,37.8,17,37.8,37.8
				C1539.7,544.9,1522.8,561.8,1501.9,561.8z M1501.9,488.7c-19.5,0-35.3,15.9-35.3,35.3c0,19.5,15.9,35.3,35.3,35.3
				c19.5,0,35.3-15.9,35.3-35.3C1537.3,504.5,1521.4,488.7,1501.9,488.7z"/>
		</g>
		<circle class="st10" cx="1501.9" cy="524" r="20.5"/>
		<g>
			<path class="st99" d="M1597.6,494.6c-20.8,0-37.8-17-37.8-37.8s17-37.8,37.8-37.8c20.8,0,37.8,17,37.8,37.8
				S1618.4,494.6,1597.6,494.6z M1597.6,421.4c-19.5,0-35.3,15.9-35.3,35.3c0,19.5,15.9,35.3,35.3,35.3c19.5,0,35.3-15.9,35.3-35.3
				C1632.9,437.3,1617.1,421.4,1597.6,421.4z"/>
		</g>
		
			<ellipse transform="matrix(0.1554 -0.9878 0.9878 0.1554 898.016 1963.9128)" class="st10" cx="1597.6" cy="456.8" rx="19.3" ry="19.3"/>
		<g>
			<polygon class="st10" points="1458.1,421.5 1460.8,417.4 1475.8,430.4 1473.5,433.6 			"/>
			<polygon class="st10" points="1476.2,421.5 1473.4,417.4 1458.5,430.4 1460.7,433.6 			"/>
		</g>
		<rect x="1732.7" y="420.2" class="st10" width="133.8" height="6.7"/>
	</g>
	<g class="st0">
		<linearGradient id="SVGID_78_" gradientUnits="userSpaceOnUse" x1="1063.9103" y1="381.9984" x2="1063.9103" y2="321.4984">
			<stop  offset="0" style="stop-color:#D93DE3"/>
			<stop  offset="1" style="stop-color:#FF6DBA"/>
		</linearGradient>
		<polygon class="st100" points="1028.7,323.4 1028.7,381.4 1098.2,382 1099.1,321.5 		"/>
		<linearGradient id="SVGID_79_" gradientUnits="userSpaceOnUse" x1="1100.8901" y1="381.9984" x2="1100.8901" y2="321.4984">
			<stop  offset="0" style="stop-color:#A242EA"/>
			<stop  offset="1" style="stop-color:#FE117E"/>
		</linearGradient>
		<polygon class="st101" points="1099.1,321.5 1103.6,329.1 1101.4,381.9 1098.2,382 		"/>
		<polygon class="st10" points="1041.1,343 1047.5,333.6 1082.2,362.7 1076.9,369.8 		"/>
		<polygon class="st10" points="1083.1,343 1076.7,333.6 1042,362.7 1047.3,369.8 		"/>
	</g>
	<g class="st0">
		<linearGradient id="SVGID_80_" gradientUnits="userSpaceOnUse" x1="1053.4122" y1="1019.3402" x2="1086.1289" y2="758.8477">
			<stop  offset="0" style="stop-color:#067EFF"/>
			<stop  offset="1" style="stop-color:#3E37A0"/>
		</linearGradient>
		<path class="st102" d="M1190.7,1006.6H953.1c-10.6,0-19.2-8.4-19.5-19l-4.4-194.9c-0.2-10.9,8.5-19.9,19.5-19.9H1196
			c11,0,19.8,9,19.5,20l-5.3,194.9C1209.9,998.2,1201.2,1006.6,1190.7,1006.6z"/>
		<g>
			<path class="st103" d="M1190.7,1007.2H953.1c-10.8,0-19.8-8.8-20.1-19.6l-4.4-194.9c-0.1-5.4,1.9-10.6,5.7-14.5
				c3.8-3.9,8.9-6,14.4-6H1196c5.5,0,10.6,2.2,14.4,6.1c3.8,3.9,5.8,9.1,5.7,14.5l-5.3,194.9
				C1210.5,998.6,1201.7,1007.2,1190.7,1007.2z M948.7,773.4c-5.1,0-9.9,2-13.5,5.7c-3.6,3.7-5.5,8.5-5.4,13.6l4.4,194.9
				c0.2,10.2,8.7,18.4,18.8,18.4h237.6c10.3,0,18.6-8.1,18.8-18.3l5.3-194.9c0.1-5.1-1.8-10-5.3-13.7c-3.6-3.7-8.4-5.7-13.5-5.7
				H948.7z"/>
		</g>
		<g>
			<rect x="993.3" y="812.7" class="st10" width="124.9" height="5.3"/>
			<rect x="993.3" y="825.7" class="st10" width="62.5" height="5.3"/>
			<rect x="993.3" y="836.5" class="st10" width="62.5" height="5.3"/>
			<rect x="1062.8" y="836.5" class="st10" width="49.7" height="5.3"/>
			<rect x="993.3" y="847.4" class="st10" width="100.7" height="5.3"/>
			<rect x="993.3" y="858.3" class="st10" width="35.8" height="5.3"/>
			<rect x="1036.5" y="890.9" class="st10" width="62" height="5.3"/>
			<rect x="993.3" y="869.1" class="st10" width="112.4" height="5.3"/>
			<rect x="993.3" y="880" class="st10" width="86.4" height="5.3"/>
			<rect x="993.3" y="890.9" class="st10" width="40.7" height="5.3"/>
			<rect x="993.3" y="901.7" class="st10" width="62.5" height="5.3"/>
			<rect x="993.3" y="912.6" class="st10" width="17.9" height="5.3"/>
			<rect x="1018.6" y="912.6" class="st10" width="65" height="5.3"/>
			<rect x="1036.5" y="923.1" class="st10" width="62" height="5.3"/>
			<rect x="993.3" y="923.1" class="st10" width="40.7" height="5.3"/>
			<rect x="993.3" y="934" class="st10" width="62.5" height="5.3"/>
			<rect x="993.3" y="944.9" class="st10" width="17.9" height="5.3"/>
			<rect x="1018.6" y="944.9" class="st10" width="65" height="5.3"/>
		</g>
	</g>
	<linearGradient id="SVGID_81_" gradientUnits="userSpaceOnUse" x1="1817.2256" y1="375.4154" x2="1817.2256" y2="353.4554">
		<stop  offset="0" style="stop-color:#459FFF"/>
		<stop  offset="1" style="stop-color:#A96DFF"/>
	</linearGradient>
	<path class="st104" d="M1828.2,364.4c0,6.1-4.9,11-11,11c-6.1,0-11-4.9-11-11c0-6.1,4.9-11,11-11
		C1823.3,353.5,1828.2,358.4,1828.2,364.4z"/>
	<linearGradient id="SVGID_82_" gradientUnits="userSpaceOnUse" x1="785.2391" y1="632.7527" x2="785.2391" y2="605.4211">
		<stop  offset="0" style="stop-color:#459FFF"/>
		<stop  offset="1" style="stop-color:#A96DFF"/>
	</linearGradient>
	<path class="st105" d="M798.9,619.1c0,7.5-6.1,13.7-13.7,13.7c-7.5,0-13.7-6.1-13.7-13.7c0-7.5,6.1-13.7,13.7-13.7
		C792.8,605.4,798.9,611.5,798.9,619.1z"/>
	<linearGradient id="SVGID_83_" gradientUnits="userSpaceOnUse" x1="1849.4761" y1="375.4154" x2="1849.4761" y2="353.4554">
		<stop  offset="0" style="stop-color:#B31A8F"/>
		<stop  offset="1" style="stop-color:#FE117E"/>
	</linearGradient>
	<circle class="st106" cx="1849.5" cy="364.4" r="11"/>
	<linearGradient id="SVGID_84_" gradientUnits="userSpaceOnUse" x1="1141.3971" y1="447.6982" x2="1141.3971" y2="432.1699">
		<stop  offset="0" style="stop-color:#B31A8F"/>
		<stop  offset="1" style="stop-color:#FE117E"/>
	</linearGradient>
	<circle class="st107" cx="1141.4" cy="439.9" r="7.8"/>
	<linearGradient id="SVGID_85_" gradientUnits="userSpaceOnUse" x1="1661.469" y1="790.3171" x2="1661.469" y2="774.7889">
		<stop  offset="0" style="stop-color:#8642A0"/>
		<stop  offset="1" style="stop-color:#6456C0"/>
	</linearGradient>
	<circle class="st108" cx="1661.5" cy="782.6" r="7.8"/>
	<linearGradient id="SVGID_86_" gradientUnits="userSpaceOnUse" x1="854.2423" y1="866.9053" x2="854.2423" y2="853.0234">
		<stop  offset="0" style="stop-color:#8642A0"/>
		<stop  offset="1" style="stop-color:#6456C0"/>
	</linearGradient>
	<circle class="st109" cx="854.2" cy="860" r="6.9"/>
	<g class="st0">
		<linearGradient id="SVGID_87_" gradientUnits="userSpaceOnUse" x1="912.4886" y1="791.8116" x2="912.4886" y2="677.1546">
			<stop  offset="0" style="stop-color:#D906E3"/>
			<stop  offset="1" style="stop-color:#FF6DF9"/>
		</linearGradient>
		<path class="st110" d="M972.6,791.8H852.7c-9.6,0-17.6-7.6-17.9-17.3l-2.7-78.9c-0.3-10.1,7.8-18.5,17.9-18.5h125
			c10.1,0,18.2,8.3,17.9,18.4l-2.4,78.9C990.2,784.1,982.2,791.8,972.6,791.8z"/>
		<g>
			<path class="st111" d="M972.6,792.4H852.7c-10,0-18.2-7.9-18.5-17.9l-2.7-78.9c-0.2-5.1,1.7-9.9,5.2-13.5
				c3.5-3.6,8.2-5.6,13.3-5.6h125c5.1,0,9.8,2,13.3,5.6c3.5,3.6,5.4,8.4,5.2,13.5l-2.4,78.9C990.8,784.5,982.6,792.4,972.6,792.4z
				 M850,677.8c-4.7,0-9.1,1.9-12.4,5.3s-5,7.9-4.8,12.6l2.7,78.9c0.3,9.4,7.9,16.7,17.3,16.7h119.9c9.4,0,17-7.4,17.3-16.8
				l2.4-78.9c0.1-4.7-1.6-9.2-4.9-12.6c-3.3-3.4-7.7-5.3-12.4-5.3H850z"/>
		</g>
		<g>
			<polygon class="st10" points="884.6,705.5 855.1,739.8 885.2,765.3 885.2,752.1 867.8,737 883.9,718.8 			"/>
		</g>
		<g>
			<polygon class="st10" points="936.6,707 966.2,741.3 936.1,766.9 936.1,753.7 953.5,738.6 934.1,718.1 			"/>
		</g>
		<g>
			<polygon class="st10" points="891.1,765.3 916.8,708.6 928.9,708.6 899.8,765.3 			"/>
		</g>
	</g>
	<g class="st0">
		<linearGradient id="SVGID_88_" gradientUnits="userSpaceOnUse" x1="1704.1599" y1="954.1066" x2="1704.1599" y2="810.6724">
			<stop  offset="0" style="stop-color:#D906E3"/>
			<stop  offset="1" style="stop-color:#FF6DF9"/>
		</linearGradient>
		<path class="st112" d="M1779.3,954.1h-150c-12.1,0-22-9.6-22.4-21.6l-3.3-98.7c-0.4-12.7,9.7-23.1,22.4-23.1h156.3
			c12.6,0,22.8,10.4,22.4,23.1l-3,98.7C1801.3,944.5,1791.4,954.1,1779.3,954.1z"/>
		<g>
			<path class="st111" d="M1779.3,954.7h-150c-12.5,0-22.6-9.8-23-22.2l-3.3-98.7c-0.2-6.3,2.1-12.2,6.5-16.8c4.4-4.5,10.2-7,16.5-7
				h156.3c6.3,0,12.1,2.5,16.5,7c4.4,4.5,6.7,10.4,6.5,16.7l-3,98.7C1801.9,944.9,1791.8,954.7,1779.3,954.7z M1626,811.3
				c-6,0-11.5,2.4-15.7,6.6c-4.1,4.3-6.3,9.9-6.1,15.9l3.3,98.7c0.4,11.8,10,21,21.8,21h150c11.8,0,21.4-9.3,21.8-21.1l3-98.7
				c0.2-5.9-2-11.6-6.1-15.8c-4.1-4.3-9.7-6.6-15.6-6.6H1626z"/>
		</g>
		<rect x="1633.7" y="826.6" class="st98" width="137.4" height="81.6"/>
		<polygon class="st10" points="1690.2,846.8 1690.2,887.9 1725.3,865.5 		"/>
		<rect x="1633.7" y="923.2" class="st98" width="137.4" height="7.5"/>
		<rect x="1633.7" y="923.2" class="st10" width="35.6" height="7.5"/>
	</g>
	<g class="st0">
		<g>
			
				<linearGradient id="SVGID_89_" gradientUnits="userSpaceOnUse" x1="1580.1357" y1="701.7909" x2="1567.9142" y2="596.8927" gradientTransform="matrix(0.9656 0.26 -0.26 0.9656 174.7373 -214.585)">
				<stop  offset="0" style="stop-color:#1852A0"/>
				<stop  offset="1" style="stop-color:#067ED3"/>
			</linearGradient>
			<path class="st113" d="M1533,800.8l-7.2,20.5C1529.8,809.9,1535.5,802.6,1533,800.8z M1525.9,821.3l-7.2,20.5
				C1520.5,841.2,1521.9,832.6,1525.9,821.3z M1533,800.8l-7.2,20.5C1529.8,809.9,1535.5,802.6,1533,800.8z M1525.9,821.3l-7.2,20.5
				C1520.5,841.2,1521.9,832.6,1525.9,821.3z M1546.6,839l7,3.9l7.5-20.5l-8.1-1.3c0.1-0.8,0.3-1.5,0.4-2.3c0.6-3.5,0.8-7,0.7-10.2
				l8.4-5.3l-3.8-18.1l-8.1,7.7c-1.1-2.3-2.5-4.3-4.1-6c-0.4-0.5-0.9-0.9-1.4-1.4l4.9-11.4l-13.1-4.3l0,0l-3.2,11.5
				c-2.9,0-5.9,0.7-8.9,2.1l-1.4-10.9l-14.5,11l3.3,9.6c-2.6,3-5,6.4-7.1,10.3l-7-3.9l-7.5,20.5l8.1,1.3c-0.9,4.3-1.2,8.5-1.1,12.5
				l-8.4,5.3l3.8,18.1l8.1-7.7c1.4,3,3.3,5.4,5.5,7.4l-4.9,11.4l12.9,5l2-7.3l1.4-5c2.9,0,5.9-0.7,8.9-2.1l1.4,10.9l14.5-11
				l-3.3-9.6c2-2.3,4-5,5.7-7.9C1545.7,840.7,1546.1,839.9,1546.6,839z M1525.9,821.3c-4,11.3,0,23-7.2,20.5
				c-7.2-2.5-9.8-13.8-5.9-25.1c4-11.3,13-18.5,20.2-16C1540.2,803.3,1529.8,809.9,1525.9,821.3z M1533,800.8l-7.2,20.5
				C1529.8,809.9,1535.5,802.6,1533,800.8z M1525.9,821.3l-7.2,20.5C1520.5,841.2,1521.9,832.6,1525.9,821.3z"/>
		</g>
		
			<linearGradient id="SVGID_90_" gradientUnits="userSpaceOnUse" x1="1568.2888" y1="702.1882" x2="1568.2888" y2="594.7015" gradientTransform="matrix(0.9656 0.26 -0.26 0.9656 174.7373 -214.585)">
			<stop  offset="0" style="stop-color:#1852A0"/>
			<stop  offset="1" style="stop-color:#067ED3"/>
		</linearGradient>
		<path class="st114" d="M1553.5,843l7.5-20.5l-7.7-3.6l-1.2-0.6l0.8-11.3l8.5-4.2l-2.8-17.6l-18.5-6l3.4,8.1l6.5-13.2l-13.1-4.3
			l-5.4-1.8l-13-5l-2.4,8.8l-11.3-5.4l-14.5,11l4.4,11.8l-13.5,37.5l-6.7,24.4l12.8,1.4l-4.2,9.7l13,5l18.5,6l-3-6l-1.9-3.6l6.9,2.2
			l11.7,3.8l14.5-11l-8.9-10.5l11.3-7L1553.5,843z M1512.8,816.7c4-11.3,13-18.5,20.2-16l-7.2,20.5l-7.2,20.5
			C1511.5,839.3,1508.8,828,1512.8,816.7z"/>
		<g>
			
				<linearGradient id="SVGID_91_" gradientUnits="userSpaceOnUse" x1="1527.5455" y1="660.5342" x2="1519.6403" y2="592.6829" gradientTransform="matrix(0.9438 0.3306 -0.5202 1.4851 395.2959 -619.0443)">
				<stop  offset="0" style="stop-color:#188DC1"/>
				<stop  offset="1" style="stop-color:#06BFE7"/>
			</linearGradient>
			<path class="st115" d="M1535,836.9l7.5-20.5l-8.1-1.3c0.8-4.3,1.2-8.5,1.1-12.5l8.4-5.3l-3.8-18.1l-8.1,7.7
				c-1.4-3-3.3-5.5-5.5-7.4l4.9-11.4l-12.9-5l-3.4,12.3c-2.9,0-5.9,0.7-8.9,2.1l-1.4-10.9l-14.5,10.9l3.3,9.6c-2.6,3-5,6.4-7.1,10.3
				l-7-3.9l-7.5,20.5l8.1,1.3c-0.8,4.3-1.2,8.5-1.1,12.5l-8.4,5.3l3.8,18.1l8.1-7.7c1.4,3,3.3,5.5,5.5,7.4l-4.9,11.4l12.9,5
				l3.4-12.3c2.9,0,5.9-0.7,8.9-2.1l1.4,10.8l14.5-10.9l-3.3-9.6c2.6-3,5-6.4,7.1-10.3L1535,836.9z M1500.1,835.7
				c-7.2-2.5-9.8-13.7-5.8-25.1c4-11.3,13-18.5,20.2-15.9c7.2,2.5,9.8,13.7,5.8,25.1C1516.4,831.1,1507.3,838.3,1500.1,835.7z"/>
		</g>
		<polygon class="st116" points="1562.5,803.3 1543.9,797.3 1535.5,802.6 1554,808.6 		"/>
		<polygon class="st117" points="1542.8,859 1524.3,852.9 1520.9,843.3 1539.5,849.3 		"/>
		<polygon class="st116" points="1526.5,779.6 1536.7,782.5 1540.1,779.2 1546.8,781.4 1550,774.2 1531.4,768.2 		"/>
		<path class="st116" d="M1499.5,855.1l9.7,4l-0.8-6.1C1508.4,853,1503.2,855.8,1499.5,855.1z"/>
		<path class="st116" d="M1501,799.5l16.4,8.6c0,0,2.4-3.2,4.2-4.5C1521.5,803.7,1517.3,785.7,1501,799.5z"/>
	</g>
	<polygon class="st118" points="1125.6,187.8 1141.4,219.4 1130.9,224.2 1116.1,195.2 	"/>
	<polygon class="st119" points="770.7,923.4 785.3,939.4 791,932.7 777.2,917.6 	"/>
	<polygon class="st120" points="1512.2,380.5 1497.5,389.4 1491.6,378.2 1507.7,368.8 	"/>
	<polygon class="st120" points="1584.6,944.9 1563.5,959.9 1557.6,948.7 1578.1,936.8 	"/>
	<g class="st0">
		<linearGradient id="SVGID_92_" gradientUnits="userSpaceOnUse" x1="1591.4188" y1="313.4686" x2="1619.2621" y2="210.0638">
			<stop  offset="0" style="stop-color:#188DC1"/>
			<stop  offset="1" style="stop-color:#06BFE7"/>
		</linearGradient>
		<polygon class="st121" points="1556.7,304.1 1553.2,221.4 1661.5,221.4 1657,303.9 		"/>
		<linearGradient id="SVGID_93_" gradientUnits="userSpaceOnUse" x1="1543.5593" y1="301.5396" x2="1564.3226" y2="224.4285">
			<stop  offset="0" style="stop-color:#1852A0"/>
			<stop  offset="1" style="stop-color:#067ED3"/>
		</linearGradient>
		<polygon class="st122" points="1553.2,221.4 1549.9,226.3 1553.2,304.1 1556.7,304.1 		"/>
		<polygon class="st10" points="1589.1,237.9 1572.1,236.1 1574.5,292.8 1589.1,291.4 1589.1,285.5 1580.6,285.7 1579.7,242 
			1589.1,242.3 		"/>
		<polygon class="st10" points="1623.9,237.9 1640.9,236.1 1638.6,292.8 1623.9,291.4 1623.9,285.5 1632.4,285.7 1633.4,242 
			1623.9,242.3 		"/>
	</g>
	<g class="st0">
		
			<linearGradient id="SVGID_94_" gradientUnits="userSpaceOnUse" x1="740.2476" y1="491.5464" x2="759.229" y2="421.053" gradientTransform="matrix(-1 0 0 1 1526.6559 0)">
			<stop  offset="0" style="stop-color:#188DC1"/>
			<stop  offset="1" style="stop-color:#06BFE7"/>
		</linearGradient>
		<polygon class="st123" points="810.1,485.2 812.5,428.8 738.7,428.8 741.7,485 		"/>
		
			<linearGradient id="SVGID_95_" gradientUnits="userSpaceOnUse" x1="707.6207" y1="483.4142" x2="721.7755" y2="430.8458" gradientTransform="matrix(-1 0 0 1 1526.6559 0)">
			<stop  offset="0" style="stop-color:#1852A0"/>
			<stop  offset="1" style="stop-color:#067ED3"/>
		</linearGradient>
		<polygon class="st124" points="812.5,428.8 814.7,432.1 812.5,485.2 810.1,485.2 		"/>
		<path class="st10" d="M784,440.1c0,0,8.1-0.3,9.5,0.3c1.4,0.7-0.4,13.8-0.4,13.8l3.2,3l-3,2.9c0,0,0.2,13.4-1.7,14.5
			c-1.9,1.1-8.4,0-8.4,0v-3.3c0,0,5.3,0.3,6.2-0.4c0.9-0.7,0.8-12.4,0.8-12.4l1.4-1.6l-1.4-1.7c0,0,0.3-8.3,0.1-10.6
			c-0.1-1.5-6.3-1.6-6.3-1.6V440.1z"/>
		<path class="st10" d="M765.5,440.1c0,0-8.1-0.3-9.5,0.3c-1.4,0.7,0.4,13.8,0.4,13.8l-3.2,3l3,2.9c0,0-0.2,13.4,1.7,14.5
			c1.9,1.1,8.4,0,8.4,0v-3.3c0,0-5.3,0.3-6.2-0.4c-0.9-0.7-0.8-12.4-0.8-12.4l-1.4-1.6l1.4-1.7c0,0-0.3-8.3-0.1-10.6
			c0.1-1.5,6.3-1.6,6.3-1.6V440.1z"/>
	</g>
	<g class="st0">
		<g>
			<path class="st92" d="M1433,311.6l-18.1-47.3l46.9,9.8L1433,311.6z M1416.8,265.9l16.5,43.2l26.3-34.3L1416.8,265.9z"/>
		</g>
		<g>
			
				<rect x="1556.6" y="971" transform="matrix(0.5912 -0.8065 0.8065 0.5912 -141.8173 1663.5095)" class="st92" width="26.9" height="1.2"/>
		</g>
		<g>
			<polygon class="st92" points="1413.4,782.9 1396.4,761.7 1397.3,760.9 1414.4,782.2 			"/>
		</g>
		<g>
			<polygon class="st92" points="886.8,932.1 852.7,907.4 853.4,906.4 887.5,931.1 			"/>
		</g>
		<g>
			
				<rect x="849.1" y="918.7" transform="matrix(0.606 -0.7955 0.7955 0.606 -388.425 1054.392)" class="st92" width="42.1" height="1.2"/>
		</g>
		<g>
			
				<rect x="820.5" y="550.9" transform="matrix(0.4651 -0.8852 0.8852 0.4651 -59.5316 1028.1658)" class="st92" width="1.2" height="24.9"/>
		</g>
		<g>
			<polygon class="st92" points="1679.1,272.4 1678.2,271.6 1703.7,242.5 1704.6,243.3 			"/>
		</g>
		<g>
			
				<rect x="1188.6" y="341.6" transform="matrix(0.8953 -0.4454 0.4454 0.8953 -33.3697 566.7883)" class="st92" width="1.2" height="25.6"/>
		</g>
		<g>
			
				<rect x="998.7" y="740.1" transform="matrix(0.767 -0.6416 0.6416 0.767 -238.1466 825.6109)" class="st92" width="38.2" height="1.2"/>
		</g>
	</g>
</g>
</svg>
