<?xml version="1.0" encoding="utf-8"?>
<!-- Generator: Adobe Illustrator 24.2.3, SVG Export Plug-In . SVG Version: 6.00 Build 0)  -->
<svg version="1.1" id="Capa_1" xmlns="http://www.w3.org/2000/svg" xmlns:xlink="http://www.w3.org/1999/xlink" x="0px" y="0px"
	 viewBox="0 0 1080 1080" style="enable-background:new 0 0 1080 1080;" xml:space="preserve">
<style type="text/css">
	.st0{clip-path:url(#SVGID_2_);}
	.st1{fill:#F1F1F4;}
	.st2{clip-path:url(#SVGID_4_);fill:#E0F3FF;}
	.st3{clip-path:url(#SVGID_6_);}
	.st4{fill:url(#SVGID_7_);}
	.st5{fill:url(#SVGID_8_);}
	.st6{fill:#E5E2FF;}
	.st7{fill:url(#SVGID_9_);}
	.st8{opacity:0.62;fill:url(#SVGID_10_);enable-background:new    ;}
	.st9{opacity:0.62;fill:url(#SVGID_11_);enable-background:new    ;}
	.st10{opacity:0.5;fill:url(#SVGID_12_);enable-background:new    ;}
	.st11{fill:#FFFFFF;}
	.st12{clip-path:url(#SVGID_14_);}
	.st13{fill:url(#SVGID_15_);}
	.st14{opacity:0.5;fill:url(#SVGID_16_);enable-background:new    ;}
	.st15{opacity:0.5;fill:url(#SVGID_17_);enable-background:new    ;}
	.st16{fill:url(#SVGID_18_);}
	.st17{fill:url(#SVGID_19_);}
	.st18{opacity:0.76;fill:url(#SVGID_20_);enable-background:new    ;}
	.st19{opacity:0.76;fill:url(#SVGID_21_);enable-background:new    ;}
	.st20{opacity:0.76;fill:url(#SVGID_22_);enable-background:new    ;}
	.st21{fill:#FE9083;}
	.st22{fill:url(#SVGID_23_);}
	.st23{opacity:0.5;fill:url(#SVGID_24_);enable-background:new    ;}
	.st24{fill:url(#SVGID_25_);}
	.st25{opacity:0.5;fill:url(#SVGID_26_);enable-background:new    ;}
	.st26{fill:url(#SVGID_27_);}
	.st27{fill:url(#SVGID_28_);}
	.st28{fill:#CB4D7A;}
	.st29{fill:#EE8183;}
	.st30{fill:url(#SVGID_29_);}
	.st31{opacity:0.6;fill:url(#SVGID_30_);enable-background:new    ;}
	.st32{fill:url(#SVGID_31_);}
	.st33{fill:#E28183;}
	.st34{opacity:0.91;fill:url(#SVGID_32_);enable-background:new    ;}
	.st35{fill:url(#SVGID_33_);}
	.st36{opacity:0.6;fill:url(#SVGID_34_);enable-background:new    ;}
	.st37{fill:url(#SVGID_35_);}
	.st38{fill:url(#SVGID_36_);}
	.st39{opacity:0.91;fill:url(#SVGID_37_);enable-background:new    ;}
	.st40{opacity:0.5;fill:url(#SVGID_38_);enable-background:new    ;}
	.st41{opacity:0.5;fill:url(#SVGID_39_);enable-background:new    ;}
	.st42{opacity:0.5;fill:url(#SVGID_40_);enable-background:new    ;}
	.st43{opacity:0.5;fill:url(#SVGID_41_);enable-background:new    ;}
	.st44{opacity:0.5;fill:url(#SVGID_42_);enable-background:new    ;}
	.st45{opacity:0.5;fill:url(#SVGID_43_);enable-background:new    ;}
	.st46{opacity:0.5;fill:url(#SVGID_44_);enable-background:new    ;}
	.st47{opacity:0.5;fill:url(#SVGID_45_);enable-background:new    ;}
	.st48{opacity:0.5;fill:url(#SVGID_46_);enable-background:new    ;}
	.st49{opacity:0.76;fill:url(#SVGID_47_);enable-background:new    ;}
	.st50{opacity:0.5;fill:url(#SVGID_48_);enable-background:new    ;}
	.st51{opacity:0.3;fill:url(#SVGID_49_);enable-background:new    ;}
	.st52{opacity:0.5;fill:url(#SVGID_50_);enable-background:new    ;}
	.st53{opacity:0.5;fill:url(#SVGID_51_);enable-background:new    ;}
	.st54{opacity:0.5;fill:url(#SVGID_52_);enable-background:new    ;}
	.st55{opacity:0.5;fill:url(#SVGID_53_);enable-background:new    ;}
	.st56{fill:url(#SVGID_54_);}
	.st57{fill:#EBEFFF;}
	.st58{opacity:0.5;fill:url(#SVGID_55_);enable-background:new    ;}
	.st59{opacity:0.3;fill:url(#SVGID_56_);enable-background:new    ;}
	.st60{opacity:0.5;fill:url(#SVGID_57_);enable-background:new    ;}
	.st61{opacity:0.5;fill:url(#SVGID_58_);enable-background:new    ;}
	.st62{opacity:0.5;fill:url(#SVGID_59_);enable-background:new    ;}
	.st63{opacity:0.5;fill:#7A4AC0;enable-background:new    ;}
	.st64{fill:url(#SVGID_60_);}
	.st65{fill:url(#SVGID_61_);}
	.st66{fill:url(#SVGID_62_);}
	.st67{opacity:0.6;fill:url(#SVGID_63_);enable-background:new    ;}
	.st68{fill:#38368E;}
	.st69{fill:url(#SVGID_64_);}
	.st70{fill:url(#SVGID_65_);}
	.st71{fill:#FFEBED;}
	.st72{fill:#7F9EC9;}
	.st73{fill:#131163;}
	.st74{fill:#C6659C;}
	.st75{fill:#CB5F7D;}
	.st76{fill:#9F4A8B;}
	.st77{fill:#FFBCAF;}
	.st78{opacity:0.6;fill:url(#SVGID_66_);enable-background:new    ;}
	.st79{fill:url(#SVGID_67_);}
	.st80{fill:#D2726C;}
	.st81{opacity:0.6;fill:url(#SVGID_68_);enable-background:new    ;}
	.st82{opacity:0.6;fill:url(#SVGID_69_);enable-background:new    ;}
	.st83{opacity:0.5;fill:url(#SVGID_70_);enable-background:new    ;}
	.st84{fill:url(#SVGID_71_);}
	.st85{fill:url(#SVGID_72_);}
	.st86{fill:url(#SVGID_73_);}
	.st87{opacity:0.8;fill:url(#SVGID_74_);enable-background:new    ;}
	.st88{opacity:0.8;fill:url(#SVGID_75_);enable-background:new    ;}
	.st89{fill:#34C7FF;}
	.st90{fill:url(#SVGID_76_);}
	.st91{fill:url(#SVGID_77_);}
	.st92{fill:url(#SVGID_78_);}
	.st93{clip-path:url(#SVGID_80_);}
	.st94{opacity:0.6;fill:#36D1F7;enable-background:new    ;}
	.st95{fill:#744CA2;}
	.st96{opacity:0.6;fill:url(#SVGID_81_);enable-background:new    ;}
	.st97{opacity:0.3;fill:url(#SVGID_82_);enable-background:new    ;}
	.st98{opacity:0.3;fill:url(#SVGID_83_);enable-background:new    ;}
	.st99{opacity:0.3;fill:url(#SVGID_84_);enable-background:new    ;}
	.st100{opacity:0.3;fill:url(#SVGID_85_);enable-background:new    ;}
	.st101{fill:#D1D4FB;}
	.st102{fill:#E0FFFF;}
	.st103{clip-path:url(#SVGID_87_);}
	.st104{fill:url(#SVGID_88_);}
	.st105{fill:url(#SVGID_89_);}
	.st106{clip-path:url(#SVGID_91_);}
	.st107{opacity:0.81;fill:url(#SVGID_92_);enable-background:new    ;}
	.st108{fill:#473DA2;}
	.st109{clip-path:url(#SVGID_94_);fill:url(#SVGID_95_);}
	.st110{clip-path:url(#SVGID_97_);fill:url(#SVGID_98_);}
	.st111{clip-path:url(#SVGID_100_);fill:url(#SVGID_101_);}
	.st112{clip-path:url(#SVGID_103_);fill:url(#SVGID_104_);}
	.st113{clip-path:url(#SVGID_106_);fill:url(#SVGID_107_);}
	.st114{clip-path:url(#SVGID_109_);fill:url(#SVGID_110_);}
	.st115{clip-path:url(#SVGID_112_);}
	.st116{opacity:0.73;fill:url(#SVGID_113_);enable-background:new    ;}
	.st117{fill:#953DA2;}
	.st118{clip-path:url(#SVGID_115_);}
	.st119{opacity:0.73;fill:url(#SVGID_116_);enable-background:new    ;}
	.st120{clip-path:url(#SVGID_118_);}
	.st121{fill-rule:evenodd;clip-rule:evenodd;fill:url(#SVGID_119_);}
	.st122{fill-rule:evenodd;clip-rule:evenodd;fill:url(#SVGID_120_);}
	.st123{fill-rule:evenodd;clip-rule:evenodd;fill:url(#SVGID_121_);}
	.st124{opacity:0.5;fill-rule:evenodd;clip-rule:evenodd;fill:#601734;enable-background:new    ;}
	.st125{fill-rule:evenodd;clip-rule:evenodd;fill:#B3D9FF;}
	.st126{clip-path:url(#SVGID_123_);fill:#FF1D9C;}
	.st127{clip-path:url(#SVGID_125_);fill:#6877FF;}
	.st128{clip-path:url(#SVGID_127_);fill:#4F31E0;}
	.st129{clip-path:url(#SVGID_129_);fill:#4F31E0;}
	.st130{clip-path:url(#SVGID_131_);}
	.st131{fill-rule:evenodd;clip-rule:evenodd;fill:url(#SVGID_132_);}
	.st132{fill-rule:evenodd;clip-rule:evenodd;fill:url(#SVGID_133_);}
	.st133{clip-path:url(#SVGID_135_);}
	.st134{fill-rule:evenodd;clip-rule:evenodd;fill:url(#SVGID_136_);}
	.st135{fill-rule:evenodd;clip-rule:evenodd;fill:url(#SVGID_137_);}
	.st136{clip-path:url(#SVGID_139_);}
</style>
<g>
	<g>
		<defs>
			<rect id="SVGID_1_" x="-200.5" y="120.3" width="1439.2" height="959.5"/>
		</defs>
		<clipPath id="SVGID_2_">
			<use xlink:href="#SVGID_1_"  style="overflow:visible;"/>
		</clipPath>
		<g class="st0">
			<path class="st1" d="M155.1,590.7c0-0.6,0.3-0.9,0.9-0.9l16.1,0.5c1.6,0,2.9,0.3,4,0.7c1.1,0.4,2,1.1,2.6,1.8
				c0.7,0.8,1.2,1.7,1.5,2.7c0.3,1.1,0.4,2.2,0.4,3.5l-0.1,4.4c0,1.3-0.2,2.4-0.6,3.5c-0.4,1.1-0.9,2-1.6,2.6
				c-0.7,0.7-1.7,1.3-2.7,1.7c-1.2,0.4-2.5,0.5-4.1,0.5l-8.7-0.3l-1.8-5.1h-0.2l-0.2,5l-6.1-0.2L155.1,590.7z M160.6,605.9l10.3,0.3
				c1.2,0,2-0.2,2.5-0.7c0.5-0.5,0.8-1.4,0.8-2.7l0.1-3.6c0-1.4-0.2-2.2-0.7-2.7c-0.5-0.5-1.3-0.8-2.4-0.8l-9.9-0.3
				c-0.1,0-0.3,0-0.3,0.1c-0.1,0.1-0.1,0.2-0.1,0.3L160.6,605.9z"/>
			<path class="st1" d="M189.2,600h-0.2l-0.2,6.4c0,0.3,0.1,0.4,0.4,0.4l18.1,0.6l-0.2,5.6l-23.7-0.7c-0.6,0-0.9-0.3-0.8-0.9
				l0.6-19.7c0-0.6,0.3-0.9,0.9-0.9l23,0.7c0.6,0,0.9,0.3,0.9,0.9l-0.2,5.6l-5.7,2h-0.2l0.1-2.8c0-0.2-0.1-0.3-0.3-0.3l-12.2-0.4
				c-0.2,0-0.3,0-0.3,0.1c-0.1,0.1-0.1,0.2-0.1,0.3l-0.1,2.6l10.1,0.3l-0.1,4.4l-8.4-0.3L189.2,600z"/>
			<path class="st1" d="M229.5,599.6h-0.2l0.1-2.3c0-0.2-0.1-0.4-0.4-0.4l-11.3-0.4c-0.4,0-0.7,0.1-0.9,0.2
				c-0.2,0.2-0.3,0.4-0.3,0.8v0.5c0,0.4,0,0.7,0.2,0.8c0.1,0.1,0.4,0.2,0.8,0.3l13.3,2.2c0.9,0.1,1.6,0.4,2.1,0.6
				c0.6,0.3,1.1,0.6,1.4,1c0.4,0.4,0.6,0.9,0.8,1.6c0.1,0.6,0.2,1.3,0.2,2.1l-0.1,1.7c0,0.9-0.2,1.7-0.4,2.3
				c-0.2,0.7-0.6,1.3-1.1,1.7c-0.5,0.5-1.2,0.8-2,1s-1.9,0.3-3,0.3l-19.1-0.6l0.2-5.6l17.1,0.5c0.5,0,0.9-0.1,1.1-0.3
				c0.2-0.2,0.3-0.5,0.3-1v-0.6c0-0.4,0-0.7-0.2-0.8c-0.1-0.2-0.4-0.3-0.8-0.3l-12.8-2.1c-0.9-0.1-1.6-0.4-2.2-0.6
				c-0.6-0.3-1.1-0.6-1.5-1c-0.4-0.4-0.7-0.9-0.8-1.5c-0.2-0.6-0.2-1.3-0.2-2.1v-1.5c0-1.6,0.5-2.7,1.4-3.6c0.9-0.8,2.2-1.2,4.2-1.2
				l19,0.6c0.6,0,0.9,0.4,0.9,1l-0.1,4.4L229.5,599.6z"/>
			<path class="st1" d="M237.5,613.8l0.7-21.5l6.1,0.2l-0.7,21.5L237.5,613.8z"/>
			<path class="st1" d="M266.1,605.5c0-0.3,0-0.7,0-1c0-0.4,0-0.7-0.1-0.9v-0.3l6.1,0.2l-0.3,10.5c0,0.6-0.3,0.8-0.8,0.8l-16.1-0.5
				c-1.6-0.1-2.9-0.3-4-0.7c-1.1-0.4-2-1.1-2.6-1.8c-0.7-0.8-1.2-1.7-1.5-2.7c-0.3-1.1-0.4-2.2-0.4-3.5l0.1-4.4
				c0-1.3,0.2-2.4,0.6-3.5c0.4-1.1,0.9-2,1.6-2.6c0.7-0.7,1.7-1.3,2.7-1.7c1.2-0.4,2.5-0.5,4.1-0.5l16,0.5c0.6,0,0.9,0.3,0.8,0.9
				l-0.1,4.6l-5.7,1.9h-0.2l0.1-2c0-0.2-0.1-0.3-0.3-0.3l-10.3-0.3c-0.6,0-1.1,0-1.5,0.1c-0.4,0.1-0.8,0.3-1,0.5
				c-0.3,0.3-0.5,0.6-0.6,1.1c-0.1,0.4-0.2,1-0.2,1.7l-0.1,3.8c0,1.3,0.2,2.2,0.7,2.7s1.3,0.8,2.4,0.9l10.2,0.3
				c0.2,0,0.3-0.1,0.3-0.4V605.5z"/>
			<path class="st1" d="M284.8,593.8c0.5,0,0.8,0.1,1,0.2c0.2,0.1,0.4,0.4,0.5,0.7l7.7,15.6c0.1,0.2,0.3,0.4,0.6,0.4h0.3
				c0.3,0,0.5-0.1,0.5-0.5l0.5-16.1l5.5,0.2l-0.6,20.6c0,0.6-0.3,0.9-0.9,0.8l-8.7-0.3c-0.4,0-0.7-0.1-0.9-0.2
				c-0.2-0.1-0.4-0.4-0.6-0.7l-8-15.6c-0.1-0.2-0.3-0.4-0.6-0.4h-0.3c-0.3,0-0.5,0.1-0.5,0.5l-0.5,16.1l-5.5-0.2l0.6-20.6
				c0-0.6,0.3-0.9,0.9-0.9L284.8,593.8z"/>
		</g>
	</g>
	<g>
		<defs>
			
				<rect id="SVGID_3_" x="-214.6" y="64.7" transform="matrix(0.7071 -0.7071 0.7071 0.7071 -237.0862 516.5601)" width="1439.2" height="959.5"/>
		</defs>
		<clipPath id="SVGID_4_">
			<use xlink:href="#SVGID_3_"  style="overflow:visible;"/>
		</clipPath>
		<ellipse class="st2" cx="444.9" cy="589.3" rx="371.8" ry="371.8"/>
	</g>
	<g>
		<defs>
			<rect id="SVGID_5_" x="-200.5" y="120.3" width="1439.2" height="959.5"/>
		</defs>
		<clipPath id="SVGID_6_">
			<use xlink:href="#SVGID_5_"  style="overflow:visible;"/>
		</clipPath>
		<g class="st3">
			
				<linearGradient id="SVGID_7_" gradientUnits="userSpaceOnUse" x1="142.3496" y1="441.5786" x2="142.3496" y2="612.377" gradientTransform="matrix(0.906 -0.4233 -0.4233 -0.906 260.7505 1165.7742)">
				<stop  offset="0" style="stop-color:#DBCCFF"/>
				<stop  offset="1" style="stop-color:#D1BBFF"/>
			</linearGradient>
			<path class="st4" d="M171.6,565.6c-9.2-15.7-25.3-22.3-25.3-22.3l-5.7,2.6l12.7,23c-1.7,8.9-7.8,13.8-7.8,13.8l0,0
				c0,0-7.6,1.6-15.5-2.8l-9.6-24.5l-5.7,2.6c0,0-5.4,16.6,0.8,33.7c0,0,2.4,5.6,2.8,6.1c2.2,2.6,8.1,5.7,19.3,4.9l38.9,74.2
				c-3.2,5.6-3.8,12.5-0.9,18.7c4.8,10.2,16.9,14.5,27,9.9c10.2-4.8,14.5-16.9,9.9-27c-2.9-6.2-8.6-10.3-14.9-11.4l-31.9-77.3
				c7.6-8,9.2-14.4,8.6-18C174.3,570.9,171.6,565.6,171.6,565.6z M203.6,693.5l-10.3,4.8l-9.3-6.5l1-11.3l10.3-4.8l9.3,6.5
				L203.6,693.5z"/>
			
				<linearGradient id="SVGID_8_" gradientUnits="userSpaceOnUse" x1="142.3446" y1="434.8967" x2="142.3446" y2="605.695" gradientTransform="matrix(0.906 -0.4233 -0.4233 -0.906 260.7505 1165.7742)">
				<stop  offset="0" style="stop-color:#B5A6E7"/>
				<stop  offset="1" style="stop-color:#7760BF"/>
			</linearGradient>
			<path class="st5" d="M174.4,571.6c-9.2-15.7-25.3-22.3-25.3-22.3l-5.7,2.6l12.7,23c-1.7,8.9-7.8,13.8-7.8,13.8l0,0
				c0,0-7.6,1.6-15.5-2.8l-9.6-24.5l-5.7,2.6c0,0-5.4,16.6,0.8,33.7c0,0,8.8,11.8,22.2,10.9l38.9,74.2c-3.2,5.6-3.8,12.5-0.9,18.7
				c4.8,10.2,16.9,14.5,27,9.9c10.2-4.8,14.5-16.9,9.9-27c-2.9-6.2-8.6-10.3-14.9-11.4l-31.9-77.3
				C177.8,585.9,174.4,571.6,174.4,571.6z M206.3,699.4l-10.3,4.8l-9.3-6.5l1-11.3l10.3-4.8l9.3,6.5L206.3,699.4z"/>
			
				<rect x="116" y="556.3" transform="matrix(0.906 -0.4233 0.4233 0.906 -225.6814 103.0432)" class="st6" width="6.2" height="6.6"/>
			
				<rect x="141.7" y="544.3" transform="matrix(0.906 -0.4233 0.4233 0.906 -218.2071 112.7867)" class="st6" width="6.2" height="6.6"/>
			
				<rect x="194.1" y="695.5" transform="matrix(0.906 -0.4233 0.4233 0.906 -277.039 150.2719)" class="st6" width="11.3" height="6.6"/>
			<g>
				
					<linearGradient id="SVGID_9_" gradientUnits="userSpaceOnUse" x1="142.4263" y1="477.4726" x2="142.4263" y2="549.444" gradientTransform="matrix(0.906 -0.4233 -0.4233 -0.906 260.7505 1165.7742)">
					<stop  offset="0" style="stop-color:#B5A6E7"/>
					<stop  offset="1" style="stop-color:#7760BF"/>
				</linearGradient>
				<path class="st7" d="M148.9,614.1l31.4,60.3c8.2,0.4,12.7-6,12.7-6l-25.6-63C156,605,148.9,614.1,148.9,614.1z M190.6,669.1
					c-0.9,0.8-2.3,1.9-4.1,2.6c-1.4,0.7-2.8,1.1-4.3,1.3l-31.4-59.1c1.6-1.4,4.2-3.4,7.5-5c2.5-1.2,5.2-2,7.8-2.2L190.6,669.1z"/>
				<path class="st6" d="M190.6,669.1l2.4-0.5c0,0-3.6,6.3-12.7,6l1.9-1.5C182.2,673,186.7,672.5,190.6,669.1z"/>
				
					<linearGradient id="SVGID_10_" gradientUnits="userSpaceOnUse" x1="132.206" y1="547.9459" x2="152.6468" y2="547.9459" gradientTransform="matrix(0.906 -0.4233 -0.4233 -0.906 260.7505 1165.7742)">
					<stop  offset="0" style="stop-color:#8B8BE0"/>
					<stop  offset="1" style="stop-color:#A177B7"/>
				</linearGradient>
				<path class="st8" d="M148.9,614.1l1.9-0.2c0,0,5.4-5.6,15.3-7.2l1.4-1.2c0,0-4-0.7-10.3,2.2C151,610.6,148.9,614.1,148.9,614.1z
					"/>
			</g>
			
				<linearGradient id="SVGID_11_" gradientUnits="userSpaceOnUse" x1="142.3977" y1="543.2396" x2="142.3977" y2="555.6063" gradientTransform="matrix(0.906 -0.4233 -0.4233 -0.906 260.7505 1165.7742)">
				<stop  offset="0" style="stop-color:#FFFFFF"/>
				<stop  offset="1" style="stop-color:#A177B7"/>
			</linearGradient>
			<path class="st9" d="M140.6,608.6c0,0,15.1-2.7,27.9-13l4.1,9.9c0,0-4.6-4.6-14.7-0.5c-11.9,4.9-11.2,14.4-11.2,14.4L140.6,608.6
				z"/>
			
				<linearGradient id="SVGID_12_" gradientUnits="userSpaceOnUse" x1="153.1743" y1="470.1017" x2="153.1743" y2="549.4628" gradientTransform="matrix(0.906 -0.4233 -0.4233 -0.906 260.7505 1165.7742)">
				<stop  offset="0" style="stop-color:#000000"/>
				<stop  offset="1" style="stop-color:#FFFFFF"/>
			</linearGradient>
			<path class="st10" d="M172.7,605.5c-2.9-2.1-6.2-2.1-6.2-2.1l30.4,73.4l3.7-3.8L172.7,605.5z"/>
			<path class="st11" d="M172.7,605.5c0,0-3.2,9.8,6,14.4L172.7,605.5z"/>
		</g>
	</g>
	<g>
		<defs>
			<rect id="SVGID_13_" x="-200.5" y="120.3" width="1439.2" height="959.5"/>
		</defs>
		<clipPath id="SVGID_14_">
			<use xlink:href="#SVGID_13_"  style="overflow:visible;"/>
		</clipPath>
		<g class="st12">
			<g>
				
					<linearGradient id="SVGID_15_" gradientUnits="userSpaceOnUse" x1="471.9484" y1="0.1348" x2="471.9484" y2="214.2197" gradientTransform="matrix(1 0 0 -1 0 1080)">
					<stop  offset="0" style="stop-color:#6456C0"/>
					<stop  offset="1" style="stop-color:#5F2C95"/>
				</linearGradient>
				<path class="st13" d="M630.1,1079.9H517.4c-11.8-65.5-39.2-150.8-39.2-150.8c-6.6-4-19.7,0.9-19.7,0.9l-41.2,149.8h-103
					c-5.5-92.4,45.1-197.5,45.1-197.5l0,0c-0.2-0.4-1.8-3.6-1.4-5.8c0.2-1,1.9-2.7,3.8-4.5c2.8-2.5,6.1-5.1,6.1-5.1l192.1-1.2
					c0,0,2,1,4.4,2.4l0,0c4.2,2.5,9.9,6.4,9.9,9.4c0,4-1.6,6.5-2,7.1l-0.1,0.1C613.5,962.6,630.1,1079.9,630.1,1079.9z"/>
				
					<radialGradient id="SVGID_16_" cx="412.0863" cy="189.3107" r="64.8277" gradientTransform="matrix(0.6462 0.1491 0.3852 -1.6696 28.4868 1257.4725)" gradientUnits="userSpaceOnUse">
					<stop  offset="0" style="stop-color:#4B474B"/>
					<stop  offset="1" style="stop-color:#000000"/>
				</radialGradient>
				<path class="st14" d="M409.6,1012.5c-13.8,59.7-43.7,103.9-66.9,98.6S312,1053,325.8,993.2c13.8-59.7,43.7-103.9,66.9-98.6
					C415.8,899.9,423.4,952.8,409.6,1012.5z"/>
				
					<radialGradient id="SVGID_17_" cx="482.1667" cy="220.6589" r="64.8348" gradientTransform="matrix(0.6386 -0.179 -0.4623 -1.6499 361.4353 1452.1405)" gradientUnits="userSpaceOnUse">
					<stop  offset="0" style="stop-color:#4B474B"/>
					<stop  offset="1" style="stop-color:#000000"/>
				</radialGradient>
				<path class="st15" d="M608.7,990.2c16.6,59.1,11.4,112.2-11.4,118.6c-22.8,6.4-54.9-36.3-71.4-95.4
					c-16.6-59.1-11.4-112.2,11.4-118.6C560.2,888.4,592.1,931.1,608.7,990.2z"/>
				<g>
					
						<linearGradient id="SVGID_18_" gradientUnits="userSpaceOnUse" x1="402.6481" y1="75.2549" x2="458.7808" y2="75.2549" gradientTransform="matrix(1 0 0 -1 0 1080)">
						<stop  offset="0" style="stop-color:#9E8CEF"/>
						<stop  offset="1" style="stop-color:#CAAFEE"/>
					</linearGradient>
					<path class="st16" d="M403.8,1080l-1.2-0.2c13.1-77.2,46.4-142,46.8-142.6l0.1-0.2l8.5-7.4l0.8,0.9l-8.4,7.3
						C448.9,940.7,416.7,1004.3,403.8,1080z"/>
				</g>
				<g>
					
						<linearGradient id="SVGID_19_" gradientUnits="userSpaceOnUse" x1="593.874" y1="75.2549" x2="650.0067" y2="75.2549" gradientTransform="matrix(-1 0 0 -1 1127.6285 1080)">
						<stop  offset="0" style="stop-color:#9E8CEF"/>
						<stop  offset="1" style="stop-color:#CAAFEE"/>
					</linearGradient>
					<path class="st17" d="M532.6,1080c-12.9-75.7-46-140-47.4-142.8l-7.5-6.7l0.8-0.9l7.7,6.9c0.4,0.7,34.5,66,47.6,143.3
						L532.6,1080z"/>
				</g>
				
					<linearGradient id="SVGID_20_" gradientUnits="userSpaceOnUse" x1="464.3941" y1="0.1349" x2="464.3941" y2="214.1223" gradientTransform="matrix(1 0 0 -1 0 1080)">
					<stop  offset="0" style="stop-color:#CCCCFF"/>
					<stop  offset="1" style="stop-color:#755CBB"/>
				</linearGradient>
				<path class="st18" d="M574.4,877.7c0,4-1.6,6.5-2,7.1l-0.1,0.1c-40,9.1-70.5,46.4-70.5,46.4c21.8,41.9,58.2,148.6,58.2,148.6
					h-42.8C505.4,1014.4,478,929,478,929c-6.6-4-19.7,0.9-19.7,0.9l-41.2,149.8h-26.7c9.6-62.8,37.8-139.5,37.8-139.5
					c-27.7-32.2-68.9-58-68.9-58l0,0l-4.9-3l3.5-2.6c17.9,17.1,75.3,39.4,77,40.1l-73.2-44.6c2.8-2.5,6.1-5.1,6.1-5.1l192.1-1.2
					c0,0,2,1,4.4,2.4l-52.5,28.9L574.4,877.7z"/>
				
					<linearGradient id="SVGID_21_" gradientUnits="userSpaceOnUse" x1="489.2876" y1="107.1285" x2="489.2876" y2="165.5064" gradientTransform="matrix(1 0 0 -1 0 1080)">
					<stop  offset="0" style="stop-color:#CCCCFF"/>
					<stop  offset="1" style="stop-color:#755CBB"/>
				</linearGradient>
				<polygon class="st19" points="478.1,929 500.5,914.5 495.2,929 491.3,972.9 				"/>
				
					<linearGradient id="SVGID_22_" gradientUnits="userSpaceOnUse" x1="421.6844" y1="128.6053" x2="421.6844" y2="185.8118" gradientTransform="matrix(1 0 0 -1 0 1080)">
					<stop  offset="0" style="stop-color:#CCCCFF"/>
					<stop  offset="1" style="stop-color:#755CBB"/>
				</linearGradient>
				<polygon class="st20" points="458.4,929.9 435.1,916.7 385,894.2 448.7,936.3 452.5,951.4 				"/>
			</g>
			<path class="st21" d="M522.6,479.3c0.1,1.1,0.3,1.6,0.3,1.6c-1.2,4.9-2.5,9.5-4,13.6c-4.7,13.5-10.5,23.1-14.9,29.1
				c-3.8,5.2-6.5,7.6-6.5,7.6c-34.9-11-52.2-45.2-58.9-62.3c0-0.1-0.1-0.2-0.1-0.3c-1.3-3.2-2.1-5.8-2.6-7.5l0,0
				c-0.4-1.4-0.6-2.1-0.6-2.1c0.1-0.3,0.3-0.6,0.4-0.9l0.1-0.1c0.6-1.2,1.2-2.4,1.7-3.6c4.6-10.1,7.6-19.4,9.6-26.7
				c1.7-6.2,2.6-11.1,3-13.7c0.2-1.4,0.3-2.1,0.3-2.1l16.3,8.6l56.2,29.8c-0.9,5.2-1.2,10-1.2,14.3c0,3,0,5.7,0.2,8
				c0.2,2.8,0.5,5,0.7,6.4l0,0C522.6,479.1,522.6,479.2,522.6,479.3z"/>
			
				<linearGradient id="SVGID_23_" gradientUnits="userSpaceOnUse" x1="479.7861" y1="536.3721" x2="479.7861" y2="621.7905" gradientTransform="matrix(1 0 0 -1 0 1080)">
				<stop  offset="0" style="stop-color:#D5CDF8"/>
				<stop  offset="1" style="stop-color:#F3EDFB"/>
			</linearGradient>
			<path class="st22" d="M507.1,534.9c-3.2,3.2-7,6.1-11.6,8.5c-0.1,0.1-0.2,0.1-0.3,0.2c0,0-0.1-0.1-0.3-0.2l0,0
				c-1.3-0.8-5.4-3.3-11-7.5c-14.6-11-39.1-33.4-46.2-63.6v-0.1c-0.8-3.6-1.4-7.2-1.7-11l0,0c-0.1-1-0.1-2-0.2-2.9
				c0,0,4.9,11.4,13.3,23.8c10,14.5,24.8,30.4,42.7,30.5c15.4,0.1,23.3-10.4,27.3-20.1c1.7-4.1,2.7-8.1,3.2-11l0,0
				c0.2-0.9,0.3-1.7,0.4-2.2l0,0c0-0.3,0.1-0.6,0.1-0.9c0.1-1.1,0.2-1.7,0.2-1.7S528.9,513.2,507.1,534.9z"/>
			
				<linearGradient id="SVGID_24_" gradientUnits="userSpaceOnUse" x1="435.7136" y1="579.1306" x2="523.6607" y2="579.1306" gradientTransform="matrix(1 0 0 -1 0 1080)">
				<stop  offset="0" style="stop-color:#CCCCFF"/>
				<stop  offset="1" style="stop-color:#755CBB"/>
			</linearGradient>
			<path class="st23" d="M507.1,534.9c-3.2,3.2-7,6.1-11.6,8.5h-0.3h-0.3l0,0c-1.3-0.8-5.4-3.3-11-7.5c-14.6-11-39.1-33.4-46.2-63.6
				v-0.1c-0.8-3.6-1.4-7.2-1.7-11l0,0c-0.1-1-0.1-2-0.2-2.9c0,0,4.9,11.4,13.3,23.8c0,0,9.7,26.7,30.7,39.8
				c10.5,6.6,18.5,5.7,24.3,1.8c5.9-3.9,9.7-10.6,11.9-15.7c2.2-5.1,2.9-9.9,3-13.4c0-0.8,0-1.5,0-2.1c1.7-4.1,2.7-8.1,3.2-11l0,0
				c0.2-0.9,0.3-1.7,0.4-2.2l0,0c0-0.3,0.1-0.6,0.1-0.9c0.1-1.1,0.2-1.7,0.2-1.7S528.9,513.2,507.1,534.9z"/>
			
				<linearGradient id="SVGID_25_" gradientUnits="userSpaceOnUse" x1="454.7715" y1="195.0718" x2="454.7715" y2="625.3058" gradientTransform="matrix(1 0 0 -1 0 1080)">
				<stop  offset="0" style="stop-color:#9E8CEF"/>
				<stop  offset="1" style="stop-color:#CAAFEE"/>
			</linearGradient>
			<path class="st24" d="M641.8,752.4c-0.3,0.1-0.4,0.2-0.4,0.2c-2,0.2-8.1-1.1-16.1-8l0,0c0,0,0,0-0.1-0.1c0,0,0-0.1-0.1-0.1
				c-6.7-5.9-14.7-15.7-22.8-31.7c-16.1-32.1-20.7-53.6-21.4-57.3l-0.1-0.6l-9.4,14.8c-6.3,19.1-18.4,98.2-18.2,101.6
				c0.2,3.4,10.6,20,10.4,22.1l0,0c-0.3,2.1-5,6.6-6.3,11.5c-0.9,3.3,5.5,13.7,10,21.4l0,0c2.3,4,4.1,7.3,4.1,8.6
				c0,3.6-11.3,21.4-11.3,21.4v9.6l-0.2,0.2l-0.5,0.5l-0.4,0.4c-4.3,3.4-22.6,14.5-79.8,17.7c-67.7,3.6-112.9-18.2-112.9-18.2
				l3.4-9.4c0,0-3.1-2.7-3.4-4.1c-0.2-1.4,2.5-4.6,2.5-4.6s-6.8-3.6-6.8-8.2c0-4.5,13.7-18.6,13.2-30.7c-0.5-12-10.9-22.7-12.3-29.5
				c-1.4-6.8,17.8-23.6,17.8-23.6C364.3,704.5,361.2,635,361.2,635l-3.1-3.6c0,0-19.5,44.5-37.3,66.4c-2.1,2.6-4.3,5.2-6.6,7.6
				c-5,5.4-10.2,10.3-15.2,14.7c-12.3,10.7-23.4,17.8-26.3,17.2c-4.6-0.9-22.7-36.8-21.9-73.6c0.4-17.5,10.9-37.1,21.9-52.8
				c1.2-1.7,2.3-3.3,3.5-5c7.8-10.5,15.2-18.8,18.8-22.6c1.4-1.5,2.1-2.2,2.1-2.2s-2.5-8-4.2-15c0-0.2-0.1-0.3-0.1-0.5
				c0-0.1,0-0.2,0-0.2c0-0.1,0-0.2,0-0.2c-1-4.3-1.7-8-1.1-8.9c1.5-2.4,10.3-5.2,11.8-6.9c1.5-1.9,7.9-32.4,12.7-35.7
				c4.7-3.2,12.8-5.6,40.1-16.2c1.4-0.5,2.7-1.1,4.2-1.7c30.6-12.1,60.6-26.8,60.6-26.8l11.5-14.2h5.2l-1.7,3.6l-0.1,0.1
				c0.8,3.6,1.8,7.1,2.8,10.4c0,0.1,0,0.2,0.1,0.3c15.8,50,56.5,66,56.5,66c28.3-20.9,27.7-54.1,27.7-54.1v-4.6l5.3,1.6l3.6,8.6
				c0,0,6.2,9.6,30.5,20.2c4.2,1.9,8.7,4.2,13.4,6.8c22.3,12.6,47.1,32.2,48.9,36.3c0.2,0.4,0.4,1.1,0.7,2.1l0,0
				c2.6,10.3,8,48.7,13,62.5c3.1,8.6,8,13.3,11.6,15.7l0,0c2.7,1.9,4.7,2.4,4.7,2.4c0.4,2.1,0.8,4.2,1.1,6.2
				C666.1,704.7,646.2,749.3,641.8,752.4z"/>
			
				<linearGradient id="SVGID_26_" gradientUnits="userSpaceOnUse" x1="275.9111" y1="463.1557" x2="380.735" y2="463.1557" gradientTransform="matrix(1 0 0 -1 0 1080)">
				<stop  offset="0" style="stop-color:#CCCCFF"/>
				<stop  offset="1" style="stop-color:#755CBB"/>
			</linearGradient>
			<path class="st25" d="M380.8,628.4l-19.7,6.6l-3.1-3.6c0,0-19.5,44.5-37.3,66.4c-2.1,2.6-4.3,5.2-6.6,7.6
				c-5,5.4-10.2,10.3-15.2,14.7l-15-64.9l-7.6-49.3c7.8-10.5,15.2-18.8,18.8-22.6c1.4-1.5,2.1-2.2,2.1-2.2s-2.5-8-4.2-15
				c0-0.2-0.1-0.3-0.1-0.5c0-0.1,0-0.2,0-0.2c0-0.1,0-0.2,0-0.2c-1-4.3-1.7-8-1.1-8.9c1.5-2.4,10.3-5.2,11.8-6.9
				c1.5-1.9,7.9-32.4,12.7-35.7c0,0-3.1,29.4,13.7,66.7l8.2,11.5L362,611C361.7,610.7,370.8,622.8,380.8,628.4z"/>
			
				<linearGradient id="SVGID_27_" gradientUnits="userSpaceOnUse" x1="272.7206" y1="342.7879" x2="272.7206" y2="543.9867" gradientTransform="matrix(1 0 0 -1 0 1080)">
				<stop  offset="0" style="stop-color:#9E8CEF"/>
				<stop  offset="1" style="stop-color:#DAC7F3"/>
			</linearGradient>
			<path class="st26" d="M323.6,681.5c-4.2,31.5-51.2,55.7-51.2,55.7c-10.4,0-22.2-18.2-32.7-40.6c-10.6-22.5-11.2-86.9-11.8-90.9
				c-0.6-4-6.4-11.9-6.8-15.3c-0.3-3.4,9.6-10.4,9.6-10.4l-0.1-0.2l-0.1-0.2c-1.1-2.2-6.8-14.6-6.4-16.9c0.5-2.5,11.5-7.9,11.5-7.9
				l0.7,12.3c0,0,25.9-4.9,34.7-24.9l1.6-6.2l4.3,2.8v26.4c0,0,0.9,4.1,2.2,4.1s11.4-5.1,13.6-4.3c2.1,0.7,4.2,14.8,7,16.6
				c2.8,1.9,10.3,7,11.4,9.6c0.5,1.2,0.6,5.2,0.6,10c0.1,5.9,0.1,12.8,1,16.7C314.2,624.8,327.8,649.9,323.6,681.5z"/>
			
				<linearGradient id="SVGID_28_" gradientUnits="userSpaceOnUse" x1="618.7917" y1="400.5913" x2="753.8702" y2="400.5913" gradientTransform="matrix(1 0 0 -1 0 1080)">
				<stop  offset="0" style="stop-color:#A999F1"/>
				<stop  offset="1" style="stop-color:#DAC7F3"/>
			</linearGradient>
			<path class="st27" d="M752.9,654.5c-2.1,3.3-12.7,10.3-15.4,13.1c-2.7,2.7,0,11.7,0,11.7c-44.5,47.2-91,71-95.7,73.2
				c-0.3,0.1-0.4,0.2-0.4,0.2c-28-18.8-25.6-49.8-16.3-75.9c8.9-25.1,24.1-45.6,24.8-46.5l0,0l0,0c0.5-0.2,8.5-3.5,14.2-3.9
				c1.9-0.1,3.6,0.6,5.3,1.7c3.4,2.1,6.2,5.5,9.1,4.1c4.1-2.1,13.3-23.7,19.5-24.3c4.3-0.4,10.3,4,14.4,6.5c1.8,1.1,3.1,1.9,3.8,1.7
				c2.2-0.6,10-9.9,10.6-10.1c0.6-0.3,4.1,2.3,4.1,2.3l-2.4,3c3.8,21.9,16.2,36.5,16.2,36.5l8.3-12.2
				C752.9,635.5,755.1,651.1,752.9,654.5z"/>
			<path class="st28" d="M522.8,478.4c0,0.3-0.1,0.6-0.1,1c-0.1,0.7-0.3,1.3-0.5,2l0,0c-2.8,10.5-14.4,21.4-29,16.2
				c-15.9-5.7-46.2-69.8-46.2-69.8l3-13.7l71.8,58.6l0.8,5.6L522.8,478.4z"/>
			<g>
				<path class="st29" d="M283.5,466.6c0,0-4.4-24.2-2.4-42.1c2-17.9-0.5-38.2-0.5-38.2s-4.3-1.9-7.5,0c-3.2,1.9-10.6,20.3-7.2,35.1
					c3.3,14.8,0.8,50.5,0.8,50.5h-5l-10.9-15l-5.3-1.6c0,0-30.6,28.8-30.1,45.9l4,15.2l37.6-1.3l24.5-28L283.5,466.6z"/>
				
					<linearGradient id="SVGID_29_" gradientUnits="userSpaceOnUse" x1="228.6858" y1="571.5112" x2="228.6858" y2="624.53" gradientTransform="matrix(1 0 0 -1 0 1080)">
					<stop  offset="1.598750e-02" style="stop-color:#FFC2A9"/>
					<stop  offset="1" style="stop-color:#FF9595"/>
				</linearGradient>
				<path class="st30" d="M245.4,455.5c0,0,0.8,19.1,5.1,35.4c0,0-0.7,6.7-8.6,7.1l-2-2.1c0,0-1.4,7.6-8.3,8.2l-6.6-6.6l1.7,5.5
					c0,0-2.3,5.8-8.6,5.6c0,0-10.4-8.2-11.1-18.8l10.3-8.8v-6.7l12.3-8.6l0.2-4.9C229.9,460.6,237.1,455.3,245.4,455.5z"/>
				
					<linearGradient id="SVGID_30_" gradientUnits="userSpaceOnUse" x1="262.1702" y1="572.7606" x2="262.1702" y2="660.6093" gradientTransform="matrix(1 0 0 -1 0 1080)">
					<stop  offset="0" style="stop-color:#FFEADB"/>
					<stop  offset="0.9944" style="stop-color:#C27CB6"/>
				</linearGradient>
				<path class="st31" d="M281.6,419.4c0,0-1.9,4.7-4.5,6.5c-2.6,1.9-10.2,3.2-10.2,3.2l-0.4,42.9h-5l-10.9-15c0,0,5.6,8.6,5.9,15
					l-4.3,2.1l-3.7-12.9l-1.8,9.3l1.8,11.5c0,0,6.4-5.6,18.2-5.8l1.8,3.2c0,0-21.2,17.6-26.1,27.9c0,0,10.4-13.3,34.4-27.9l2.2-7
					l3-16.8C282,455.4,279.1,431.2,281.6,419.4z"/>
				
					<linearGradient id="SVGID_31_" gradientUnits="userSpaceOnUse" x1="259.2792" y1="513.0406" x2="259.2792" y2="648.4423" gradientTransform="matrix(1 0 0 -1 0 1080)">
					<stop  offset="1.598750e-02" style="stop-color:#FFC2A9"/>
					<stop  offset="1" style="stop-color:#FF9595"/>
				</linearGradient>
				<path class="st32" d="M299.4,494c-2,5.9-22.6,30.5-24.9,35.7c-2.2,5.3-3.6,12.3-3.6,12.3c-10.2,21.9-34.7,24.9-34.7,24.9
					l-1.2-19.7c0,0-13.2-7.6-15.4-11.7v-0.1l-0.3-0.7c-0.7-3.9-0.1-18.2-0.1-18.2l23-9.4c10-13,34.4-27.9,34.4-27.9l1.2-6.8
					c-17.5-8.6-14.5-34.6-11.6-37.8c2.9-3.1,8.4-3.1,8.4-3.1s6.3,20.9,10.4,30.7C289.2,472,301.3,488.2,299.4,494z"/>
				<path class="st33" d="M229.9,460.6c0,0,2.5,23.8,10.2,35.2c0,0-9.6-11.9-10.3-30.4L229.9,460.6z"/>
				<path class="st33" d="M217.4,474.2c0,0,2.5,19.2,14.4,29.9c0,0-10.4-5.3-14.4-23.1V474.2z"/>
				
					<linearGradient id="SVGID_32_" gradientUnits="userSpaceOnUse" x1="235.0849" y1="534.1757" x2="277.6481" y2="534.1757" gradientTransform="matrix(1 0 0 -1 0 1080)">
					<stop  offset="1.598750e-02" style="stop-color:#D1A1D6"/>
					<stop  offset="0.9944" style="stop-color:#BD89C4"/>
				</linearGradient>
				<path class="st34" d="M277.7,524.7c0,0-26,25.2-42.6,22.6l1.2,19.7c0,0,27.2-2.3,36.1-31C272.3,535.9,275.5,527.7,277.7,524.7z"
					/>
			</g>
			<g>
				
					<linearGradient id="SVGID_33_" gradientUnits="userSpaceOnUse" x1="756.6525" y1="430.5499" x2="756.6525" y2="611.7082" gradientTransform="matrix(1 0 0 -1 0 1080)">
					<stop  offset="1.598750e-02" style="stop-color:#FFC2A9"/>
					<stop  offset="1" style="stop-color:#FF9595"/>
				</linearGradient>
				<path class="st35" d="M827.1,559.1c0,0-23.8,43.6-51.8,57h-9.6l-22.1,33.4c0,0-14.3-9-15.3-38.4c0,0,5-5.2,6.2-11.1
					c0,0-7.9-6.2-10-10.7c-2.1-4.6-2.8-18.2-4.4-23.8c-1.5-5.6-14.4-17.3-17.3-18.7c-2.8-1.5-15.9-2.2-15.9-2.2s-1.9-4.7,0-6.9
					c1.9-2.2,22.2-10.2,33.2-2.6c0,0,0.8,5.8,2,8.8c1.3,3,10.9,13.8,12.4,13.8c1.5,0,8-5.5,10.9-9.7c2.7-4.1,17.4-35.6,21-46.4
					c0-0.1,0-0.2,0.1-0.3c0-0.2,0.1-0.3,0.1-0.5c0-0.1,0.1-0.2,0.1-0.3v-0.1c2.7-9.3,18.6-26.9,27.1-31.8c0,0,3.6-0.9,5.6,3.6
					c0,0-6.8,19.4-14,30.9c-1.2,2-2.5,4.2-3.8,6.6l0,0c-6.1,11.1-12.9,25.8-13.9,27.9l-0.1,0.3l3.8,2l10.3-9.8l10.5-10l24.1,25.5
					l-2.3,3l-7.5,9.7l3.8,0.7l8.9-9.8L827.1,559.1z"/>
				
					<linearGradient id="SVGID_34_" gradientUnits="userSpaceOnUse" x1="778.0045" y1="488.4398" x2="778.0045" y2="578.4473" gradientTransform="matrix(1 0 0 -1 0 1080)">
					<stop  offset="0" style="stop-color:#FFEADB"/>
					<stop  offset="0.9944" style="stop-color:#C27CB6"/>
				</linearGradient>
				<path class="st36" d="M821.4,568.3l-7.6,11.2c0,0-41.9-32.3-51-35c-9.1-2.7-12.4-0.9-12.4-0.9l-9.4,12c0,0,17.3,15.3,18.7,35.9
					c0,0-5.8-26.1-25.3-34c1.5,0,8-5.5,10.9-9.7c2.7-4.1,17.4-35.6,21-46.4c-0.5,1.9-1.1,5.4,0.4,8.2c2.1,3.8,14.2,0.2,14.9,0l0,0
					l-14,27.9l-0.1,0.3l3.8,2l10.3-9.8l-5.2,11.9l37.4,6.6l-7.5,9.7l3.8,0.7L821.4,568.3z"/>
				
					<linearGradient id="SVGID_35_" gradientUnits="userSpaceOnUse" x1="795.7719" y1="519.5812" x2="795.7719" y2="559.9363" gradientTransform="matrix(1 0 0 -1 0 1080)">
					<stop  offset="0" style="stop-color:#FFB0B0"/>
					<stop  offset="0.984" style="stop-color:#FFC2A9"/>
				</linearGradient>
				<path class="st37" d="M792.3,520.1c0,0,7.2-1.1,12,8.3l-1.1,3c0,0,7.1,1.4,14,12.9c0,0-6.1,11-21.1,16.1c0,0-6.9-2-8.2-7.9
					l1.4-3.8l-5.5,4.1c0,0-6.5,2-9.4-7.7L792.3,520.1z"/>
				
					<linearGradient id="SVGID_36_" gradientUnits="userSpaceOnUse" x1="819.1707" y1="513.3733" x2="819.1707" y2="535.492" gradientTransform="matrix(1 0 0 -1 0 1080)">
					<stop  offset="0" style="stop-color:#FFB0B0"/>
					<stop  offset="0.984" style="stop-color:#FFC2A9"/>
				</linearGradient>
				<path class="st38" d="M829.3,556c0,0,1.6-6.9-6-11.5L809,560.4c0,0,0.4,5.1,6.6,6.2C815.6,566.7,825.4,563.2,829.3,556z"/>
				
					<linearGradient id="SVGID_37_" gradientUnits="userSpaceOnUse" x1="724.6053" y1="469.3058" x2="765.7042" y2="469.3058" gradientTransform="matrix(1 0 0 -1 0 1080)">
					<stop  offset="1.598750e-02" style="stop-color:#D1A1D6"/>
					<stop  offset="0.9944" style="stop-color:#BD89C4"/>
				</linearGradient>
				<path class="st39" d="M724.6,589.3c0,0,16.7,18.6,41.1,26.7l-10.5,16l-22-27.9l1.4-4C734.6,600.1,725.8,593.5,724.6,589.3z"/>
				<path class="st33" d="M803.2,531.5c0,0-6.9,11.5-14,17.3l-1.4,3.8c0,0,13.6-9.2,18.5-19.7C806.4,532.9,804.8,531.7,803.2,531.5z
					"/>
			</g>
			
				<linearGradient id="SVGID_38_" gradientUnits="userSpaceOnUse" x1="667.3356" y1="327.2352" x2="667.3356" y2="529.9291" gradientTransform="matrix(1 0 0 -1 0 1080)">
				<stop  offset="0" style="stop-color:#CCCCFF"/>
				<stop  offset="1" style="stop-color:#755CBB"/>
			</linearGradient>
			<path class="st40" d="M752.9,654.5c-2.1,3.3-12.7,10.3-15.4,13.1c-2.7,2.7,0,11.7,0,11.7c-44.5,47.2-91,71-95.7,73.2
				c-0.3,0.1-0.4,0.2-0.4,0.2c-3.6,0.5-21.4-4.5-39.1-40c-16.1-32.1-20.7-53.6-21.4-57.3l-0.1-0.6l3.9-5.3l5.8-65.4l4.1,13.2
				c15.4-18.6,30-47.2,30-47.2l0.7,2.1l0,0c2.6,10.3,8,48.7,13,62.5c3.1,8.6,8,13.3,11.6,15.7l0,0l0,0c-14.3,13-21.3,31.6-24.8,46.5
				c-3.2,13.7-3.4,24-3.4,24s3.9-18.5,16.4-40.7c4.5-8.1,11.1-15.3,17.6-21.2c4.9-4.5,9.8-8.2,13.8-11c3.4,2.1,6.2,5.5,9.1,4.1
				c-18.7,28.1-18.3,83.7-0.7,73.1c17.6-10.6,21.6-33.1,21.6-33.1c-4.2-27.4-2.9-58.4,0.4-64.2c4,0.1,15.6,8.3,16.3,8.1
				c-1.1,32.2,14.1,53.8,14.1,53.8l10-15.4c-14.5-24.5-13.5-48.4-13.5-48.4c0.6-0.3,4.1,2.3,4.1,2.3l-2.4,3
				c3.8,21.9,16.2,36.5,16.2,36.5l8.3-12.2C752.9,635.5,755.1,651.1,752.9,654.5z"/>
			
				<linearGradient id="SVGID_39_" gradientUnits="userSpaceOnUse" x1="221.169" y1="368.0161" x2="560.0146" y2="368.0161" gradientTransform="matrix(1 0 0 -1 0 1080)">
				<stop  offset="0" style="stop-color:#CCCCFF"/>
				<stop  offset="1" style="stop-color:#755CBB"/>
			</linearGradient>
			<path class="st41" d="M560,856.3v9.6l-0.2,0.2l-0.5,0.5l-0.4,0.4c-4.3,3.4-22.6,14.5-79.8,17.7c-67.7,3.6-112.9-18.2-112.9-18.2
				l3.4-9.4c0,0-3.1-2.7-3.4-4.1c-0.2-1.4,2.5-4.6,2.5-4.6s-6.8-3.6-6.8-8.2c0-4.1,11.1-16,12.9-27.1c0.2-1.2,0.3-2.3,0.3-3.5
				c-0.5-12-10.8-22.6-12.3-29.4c0-0.1,0-0.1,0-0.1c-1.4-6.8,17.8-23.6,17.8-23.6c-16.4-51.8-19.5-121.3-19.5-121.3l-3.1-3.6
				c0,0-19.5,44.5-37.3,66.4c-17.8,21.9-43.6,40.5-48.1,39.5c-10.4,0-22.2-18.2-32.7-40.6c-10.6-22.5-11.2-86.9-11.8-90.9
				c-0.6-4-6.4-11.9-6.8-15.3c11.3,19.5,29.5,13.8,29.5,13.8c-13.1,0.3-19.9-24.2-19.9-24.2l-0.1-0.2l-0.1-0.2l-6.4-16.9
				c0.7,0.8,15.7,17.6,30.2,7.2c14.8-10.6,22.5-31.1,22.5-31.1v26.4c0,0,0.9,4.1,2.2,4.1c-0.9,12.1-3.4,26.9-6.5,41.5
				c-6.7,31.5-16,61.9-16,61.9s25.1-13.7,33.9-48.1c4.2-16.5,4.9-30.8,4.5-41.4c-0.4-9-1.6-15-2.1-17.3c0-0.2-0.1-0.3-0.1-0.5
				c0-0.1,0-0.2,0-0.2v-0.1l2.4,5.2l4.6,11.4c5.4,44.3-5.7,111.1-5.7,111.1c16.1-20,19.4-64.2,18.7-75c-0.3-5.2-0.7-11.4-1-16.7
				c-0.4-5.7-0.6-10-0.6-10l32.9,19.6l-6.1-19.2l23.9,19.2c0,0,21.5,25.9,43.6,28.9c22.2,3,103.3,1.3,103.3,1.3s-70.6,4.5-91.2,10.6
				c-20.6,6.1-24.5,13-24.5,13c14.9,75.8,97.3,101.3,99.9,102.1C418.3,755.6,383.4,692,383.4,692s-1.3,35.7,4.5,49.4
				c5.8,13.7,39.7,47,83.4,53.9c3.7,0.6,7.3,1,10.8,1.1c36.8,1.8,67.3-17.1,70.4-19.1c0.2-0.1,0.3-0.2,0.3-0.2s0,0-0.1,0.1
				c-1.2,1.8-16.3,23-77.2,25.3c-3.7,0.1-7.3,0.1-10.8,0l0,0c-56.4-2.3-85.2-40-85.2-40s-20.9,11.2-7.5,27.9
				c0.1,0.2,0.3,0.4,0.4,0.5c3.9,4.5,12.6,10.1,22.8,15.8c0.3,0.2,0.6,0.3,0.9,0.5c12.4,6.8,26.8,13.9,38.1,19.7
				c0.1,0,0.1,0,0.2,0.1c6.8,3.6,12.5,6.6,15.6,9l0,0c3.1,2.3,3.8,3.8,0.7,4.2c-15.7,1.9-75.5-11.2-77.9-7.6c-2.4,3.6,2.9,13,2.9,13
				c54.8,27.1,172,13.8,175.7,13.4c-98.1,25.1-178.4-6.7-178.4-6.7l2.6,9.4c0,0,43.7,15.1,95.2,16.4c51.5,1.2,83.7-12,83.7-12
				L560,856.3z"/>
			
				<linearGradient id="SVGID_40_" gradientUnits="userSpaceOnUse" x1="519.8921" y1="424.8391" x2="584.7131" y2="424.8391" gradientTransform="matrix(1 0 0 -1 0 1080)">
				<stop  offset="0" style="stop-color:#CCEDFF"/>
				<stop  offset="1" style="stop-color:#755CBB"/>
			</linearGradient>
			<path class="st42" d="M519.9,640.6c0,0,39,2.1,64.8,9l-13.3,20.2C571.4,669.7,551.4,652.1,519.9,640.6z"/>
			
				<linearGradient id="SVGID_41_" gradientUnits="userSpaceOnUse" x1="461.1237" y1="311.1037" x2="556.4027" y2="311.1037" gradientTransform="matrix(1 0 0 -1 0 1080)">
				<stop  offset="0" style="stop-color:#CCEDFF"/>
				<stop  offset="1" style="stop-color:#755CBB"/>
			</linearGradient>
			<path class="st43" d="M556.4,748.1c0,0-24.3,20.3-48.3,29.7c-23.9,9.4-47,10.3-47,10.3s13.8,4.1,47.6-1.4
				c33.9-5.5,45.5-23.8,45.5-23.8L556.4,748.1z"/>
			
				<linearGradient id="SVGID_42_" gradientUnits="userSpaceOnUse" x1="465.5136" y1="268.0692" x2="567.2387" y2="268.0692" gradientTransform="matrix(1 0 0 -1 0 1080)">
				<stop  offset="0" style="stop-color:#CCEDFF"/>
				<stop  offset="1" style="stop-color:#755CBB"/>
			</linearGradient>
			<path class="st44" d="M567.2,826.3L567.2,826.3c-45,11.6-102.2-5.1-101.7-7c0.5-2.1,15.6,0.9,50.9-6.2
				c34.2-6.8,46.5-18.9,47.2-19.7c-0.3,2.1-5,6.6-6.3,11.5C556.4,808.2,562.8,818.6,567.2,826.3z"/>
			
				<linearGradient id="SVGID_43_" gradientUnits="userSpaceOnUse" x1="377.9987" y1="374.7103" x2="377.9987" y2="488.8304" gradientTransform="matrix(1 0 0 -1 0 1080)">
				<stop  offset="0" style="stop-color:#CCEDFF"/>
				<stop  offset="1" style="stop-color:#755CBB"/>
			</linearGradient>
			<path class="st45" d="M444.9,646.6c-38.5,3.9-48.8,14.6-48.8,14.6c-10.8,1.4-35.1-26.4-35.1-26.4l-3.1-3.6
				c0,0-19.5,44.5-37.3,66.4c-2.1,2.6-4.3,5.2-6.6,7.6l2.5-5.7c0,0,4.1-2,5.4-23.6c1.3-21.7-9.1-53.9-9.2-58.3s-1.6-26.6-1.6-26.6
				l32.9,19.6l-6.1-19.2l23.9,19.2c0,0,9.4,14.1,33.1,25.9C417.1,647.7,442.2,646.8,444.9,646.6z"/>
			
				<linearGradient id="SVGID_44_" gradientUnits="userSpaceOnUse" x1="387.175" y1="365.1432" x2="387.175" y2="451.7339" gradientTransform="matrix(1 0 0 -1 0 1080)">
				<stop  offset="0" style="stop-color:#CCEDFF"/>
				<stop  offset="1" style="stop-color:#755CBB"/>
			</linearGradient>
			<path class="st46" d="M357.8,631.3l22.9-3c0,0,9.2,6.1,27.5,13.6L393,664.5c0,0,6.1,32.2,23.5,50.4c0,0-46.4-25.8-52.8-47.3
				L357.8,631.3z"/>
			
				<linearGradient id="SVGID_45_" gradientUnits="userSpaceOnUse" x1="250.3579" y1="475.829" x2="250.3579" y2="541.2533" gradientTransform="matrix(1 0 0 -1 0 1080)">
				<stop  offset="0" style="stop-color:#CCEDFF"/>
				<stop  offset="1" style="stop-color:#755CBB"/>
			</linearGradient>
			<path class="st47" d="M224,562.7l6.5,17.3c0,0,6.6,23.2,19.9,24.2c13.3,1,26.3-39,26.3-39v-26.4c0,0-14.1,30.3-29.3,33.7
				C232.1,575.8,224,562.7,224,562.7z"/>
			
				<linearGradient id="SVGID_46_" gradientUnits="userSpaceOnUse" x1="303.269" y1="533.3947" x2="329.6269" y2="533.3947" gradientTransform="matrix(1 0 0 -1 0 1080)">
				<stop  offset="0" style="stop-color:#CCEDFF"/>
				<stop  offset="1" style="stop-color:#755CBB"/>
			</linearGradient>
			<path class="st48" d="M303.3,549.1c0,0,11.8,23.6,26.4,30.8c0,0-17.3-42-13.7-66.7C316,513.3,309.6,517.3,303.3,549.1z"/>
			
				<linearGradient id="SVGID_47_" gradientUnits="userSpaceOnUse" x1="589.7405" y1="374.7102" x2="589.7405" y2="495.9567" gradientTransform="matrix(1 0 0 -1 0 1080)">
				<stop  offset="0" style="stop-color:#CCCCFF"/>
				<stop  offset="1" style="stop-color:#755CBB"/>
			</linearGradient>
			<path class="st49" d="M590.5,584l4.1,13.2l4.1,108.1c0,0-10.4-20.6-17.9-49.9l3.8-5.9C584.7,649.5,591.2,608.7,590.5,584z"/>
			
				<linearGradient id="SVGID_48_" gradientUnits="userSpaceOnUse" x1="726.089" y1="400.7753" x2="726.089" y2="464.1319" gradientTransform="matrix(1 0 0 -1 0 1080)">
				<stop  offset="0" style="stop-color:#CCCCFF"/>
				<stop  offset="1" style="stop-color:#755CBB"/>
			</linearGradient>
			<path class="st50" d="M716.1,615.9c0,0-2.3,53.1,20.2,57.7l1.1,5.7C737.5,679.2,708.3,678.2,716.1,615.9z"/>
			
				<linearGradient id="SVGID_49_" gradientUnits="userSpaceOnUse" x1="654.2198" y1="403.6143" x2="654.2198" y2="452.0348" gradientTransform="matrix(1 0 0 -1 0 1080)">
				<stop  offset="0" style="stop-color:#CCCCFF"/>
				<stop  offset="1" style="stop-color:#755CBB"/>
			</linearGradient>
			<path class="st51" d="M678.4,632c0,0-0.9,1.9-9.1-4.1c0,0-28.4,20.1-39.3,48.4c0,0,17.5-26.1,26.8-28.8
				c9.3-2.8,11.5,7.6,11.5,7.6S672.1,640.5,678.4,632z"/>
			
				<linearGradient id="SVGID_50_" gradientUnits="userSpaceOnUse" x1="236.6139" y1="471.599" x2="236.6139" y2="489.5843" gradientTransform="matrix(1 0 0 -1 0 1080)">
				<stop  offset="0" style="stop-color:#CCEDFF"/>
				<stop  offset="1" style="stop-color:#755CBB"/>
			</linearGradient>
			<path class="st52" d="M221,590.4c0,0,10.9,20.1,31.3,13.8c0,0-12.3,8.3-24.5,1.6C227.8,605.8,220.2,592.7,221,590.4z"/>
			
				<linearGradient id="SVGID_51_" gradientUnits="userSpaceOnUse" x1="284.7785" y1="416.7852" x2="284.7785" y2="515.0905" gradientTransform="matrix(1 0 0 -1 0 1080)">
				<stop  offset="0" style="stop-color:#CCCCFF"/>
				<stop  offset="1" style="stop-color:#755CBB"/>
			</linearGradient>
			<path class="st53" d="M292.5,564.9c0,0,15,56.1-24.1,98.3c0,0,25.5-13.1,31.2-43.2C305.4,589.8,292.5,564.9,292.5,564.9z"/>
			
				<linearGradient id="SVGID_52_" gradientUnits="userSpaceOnUse" x1="537.5618" y1="485.9016" x2="537.5618" y2="559.899" gradientTransform="matrix(1 0 0 -1 0 1080)">
				<stop  offset="0" style="stop-color:#CCEDFF"/>
				<stop  offset="1" style="stop-color:#755CBB"/>
			</linearGradient>
			<path class="st54" d="M561.5,520.1c0,0-1.7,25.4-13.9,43.5c-12.1,18.2-36.2,30.5-36.2,30.5s30.3-11.1,44.1-26.8
				C569.4,551.5,561.5,520.1,561.5,520.1z"/>
			
				<linearGradient id="SVGID_53_" gradientUnits="userSpaceOnUse" x1="440.6339" y1="495.9567" x2="440.6339" y2="598.0692" gradientTransform="matrix(1 0 0 -1 0 1080)">
				<stop  offset="0" style="stop-color:#CCEDFF"/>
				<stop  offset="1" style="stop-color:#755CBB"/>
			</linearGradient>
			<path class="st55" d="M406.8,481.9c0,0,0,21.2,6.8,42.8c6.8,21.6,66,59.4,66,59.4s-61-25.4-72.8-48.1
				C395,513.2,406.8,481.9,406.8,481.9z"/>
			
				<linearGradient id="SVGID_54_" gradientUnits="userSpaceOnUse" x1="406.1625" y1="477.2715" x2="576.708" y2="477.2715" gradientTransform="matrix(1 0 0 -1 0 1080)">
				<stop  offset="0" style="stop-color:#8642A0"/>
				<stop  offset="1" style="stop-color:#6456C0"/>
			</linearGradient>
			<path class="st56" d="M406.2,582.9v34.5c0,0,79.5-0.7,168.5,5.3l2.1-31C576.7,591.6,499.3,582.4,406.2,582.9z"/>
			<g>
				<path class="st57" d="M420.9,590.7c0-0.6,0.3-0.9,0.9-0.9l16.1,0.5c1.6,0,2.9,0.3,4,0.7c1.1,0.4,2,1.1,2.6,1.8
					c0.7,0.8,1.2,1.7,1.5,2.7c0.3,1.1,0.4,2.2,0.4,3.5l-0.1,4.4c0,1.3-0.2,2.4-0.6,3.5c-0.4,1.1-0.9,2-1.6,2.6
					c-0.7,0.7-1.7,1.3-2.7,1.7c-1.2,0.4-2.5,0.5-4.1,0.5l-8.7-0.3l-1.8-5.1h-0.2l-0.2,5l-6.1-0.2L420.9,590.7z M426.6,605.9
					l10.3,0.3c1.2,0,2-0.2,2.5-0.7c0.5-0.5,0.8-1.4,0.8-2.7l0.1-3.6c0-1.4-0.2-2.2-0.7-2.7c-0.5-0.5-1.3-0.8-2.4-0.8l-9.9-0.3
					c-0.1,0-0.3,0-0.3,0.1c-0.1,0.1-0.1,0.2-0.1,0.3L426.6,605.9z"/>
				<path class="st57" d="M455.1,600h-0.2l-0.2,6.4c0,0.3,0.1,0.4,0.4,0.4l18.1,0.6l-0.2,5.6l-23.7-0.7c-0.6,0-0.9-0.3-0.8-0.9
					l0.6-19.7c0-0.6,0.3-0.9,0.9-0.9l23,0.7c0.6,0,0.9,0.3,0.9,0.9l-0.2,5.6l-5.7,2h-0.2l0.1-2.8c0-0.2-0.1-0.3-0.3-0.3l-12.2-0.4
					c-0.2,0-0.3,0-0.3,0.1c-0.1,0.1-0.1,0.2-0.1,0.3l-0.1,2.6l10.1,0.3l-0.1,4.4l-8.4-0.3L455.1,600z"/>
				<path class="st57" d="M495.3,599.6h-0.2l0.1-2.3c0-0.2-0.1-0.4-0.4-0.4l-11.3-0.4c-0.4,0-0.7,0.1-0.9,0.2
					c-0.2,0.2-0.3,0.4-0.3,0.8v0.5c0,0.4,0,0.7,0.2,0.8c0.1,0.1,0.4,0.2,0.8,0.3l13.3,2.2c0.9,0.1,1.6,0.4,2.1,0.6
					c0.6,0.3,1.1,0.6,1.4,1c0.4,0.4,0.6,0.9,0.8,1.6c0.1,0.6,0.2,1.3,0.2,2.1l-0.1,1.7c0,0.9-0.2,1.7-0.4,2.3
					c-0.2,0.7-0.6,1.3-1.1,1.7c-0.5,0.5-1.2,0.8-2,1c-0.8,0.2-1.9,0.3-3,0.3l-19.1-0.6l0.2-5.6l17.1,0.5c0.5,0,0.9-0.1,1.1-0.3
					s0.3-0.5,0.3-1v-0.6c0-0.4,0-0.7-0.2-0.8c-0.1-0.2-0.4-0.3-0.8-0.3l-12.8-2.1c-0.9-0.1-1.6-0.4-2.2-0.6c-0.6-0.3-1.1-0.6-1.5-1
					c-0.4-0.4-0.7-0.9-0.8-1.5c-0.2-0.6-0.2-1.3-0.2-2.1v-1.5c0-1.6,0.5-2.7,1.4-3.6c0.9-0.8,2.2-1.2,4.2-1.2l19,0.6
					c0.6,0,0.9,0.4,0.9,1l-0.1,4.4L495.3,599.6z"/>
				<path class="st57" d="M503.3,613.8l0.7-21.5l6.1,0.2l-0.7,21.5L503.3,613.8z"/>
				<path class="st57" d="M531.9,605.5c0-0.3,0-0.7,0-1c0-0.4,0-0.7-0.1-0.9v-0.3l6.1,0.2l-0.3,10.5c0,0.6-0.3,0.8-0.8,0.8
					l-16.1-0.5c-1.6-0.1-2.9-0.3-4-0.7c-1.1-0.4-2-1.1-2.6-1.8c-0.7-0.8-1.2-1.7-1.5-2.7c-0.3-1.1-0.4-2.2-0.4-3.5l0.1-4.4
					c0-1.3,0.2-2.4,0.6-3.5c0.4-1.1,0.9-2,1.6-2.6c0.7-0.7,1.7-1.3,2.7-1.7c1.2-0.4,2.5-0.5,4.1-0.5l16,0.5c0.6,0,0.9,0.3,0.8,0.9
					L538,599l-5.7,1.9h-0.2l0.1-2c0-0.2-0.1-0.3-0.3-0.3l-10.3-0.3c-0.6,0-1.1,0-1.5,0.1s-0.8,0.3-1,0.5c-0.3,0.3-0.5,0.6-0.6,1.1
					c-0.1,0.4-0.2,1-0.2,1.7l-0.1,3.8c0,1.3,0.2,2.2,0.7,2.7s1.3,0.8,2.4,0.9l10.2,0.3c0.2,0,0.3-0.1,0.3-0.4V605.5z"/>
				<path class="st57" d="M550.7,593.8c0.5,0,0.8,0.1,1,0.2c0.2,0.1,0.4,0.4,0.5,0.7l7.7,15.6c0.1,0.2,0.3,0.4,0.6,0.4h0.3
					c0.3,0,0.5-0.1,0.5-0.5l0.5-16.1l5.5,0.2l-0.6,20.6c0,0.6-0.3,0.9-0.9,0.8l-8.7-0.3c-0.4,0-0.7-0.1-0.9-0.2
					c-0.2-0.1-0.4-0.4-0.6-0.7l-8-15.6c-0.1-0.2-0.3-0.4-0.6-0.4h-0.3c-0.3,0-0.5,0.1-0.5,0.5l-0.5,16.1l-5.5-0.2l0.6-20.6
					c0-0.6,0.3-0.9,0.9-0.9L550.7,593.8z"/>
			</g>
			
				<linearGradient id="SVGID_55_" gradientUnits="userSpaceOnUse" x1="420.9034" y1="575.6163" x2="531.8996" y2="575.6163" gradientTransform="matrix(1 0 0 -1 0 1080)">
				<stop  offset="0" style="stop-color:#CCCCFF"/>
				<stop  offset="1" style="stop-color:#755CBB"/>
			</linearGradient>
			<path class="st58" d="M531.9,486.5c-1.9,22.4-8.7,37.9-15.9,48.3c-10,14.4-20.8,19.3-20.8,19.3c-10.8-4.7-20.1-10.5-28.2-17
				c-34.2-27.3-45.2-65.2-46.1-68.3c14.4,34.9,35.6,56,51.7,67.9c13,9.7,22.6,13.3,22.6,13.3v-11.1c-2.5-1-5.1-2-7.4-3.2
				c-28.3-14.3-43.1-44-50.2-63.3v-0.1c-3.8-10.4-5.3-17.8-5.3-17.8h5.2l-1.7,3.6l-0.1,0.1c0.8,3.6,1.8,7.1,2.8,10.4
				c0,0.1,0,0.2,0.1,0.3c15.8,50,56.5,66,56.5,66c28.3-20.9,27.7-54.1,27.7-54.1v-4.6l5.3,1.6L531.9,486.5z"/>
			
				<linearGradient id="SVGID_56_" gradientUnits="userSpaceOnUse" x1="706.1876" y1="407.9993" x2="706.1876" y2="472.2346" gradientTransform="matrix(1 0 0 -1 0 1080)">
				<stop  offset="0" style="stop-color:#CCCCFF"/>
				<stop  offset="1" style="stop-color:#755CBB"/>
			</linearGradient>
			<path class="st59" d="M699.8,607.8c0,0-7.7,25.1-0.4,64.2c0,0,3.6-49.5,6.3-53.9c2.7-4.3,10.3-2.2,10.3-2.2
				S704.1,609.2,699.8,607.8z"/>
			
				<linearGradient id="SVGID_57_" gradientUnits="userSpaceOnUse" x1="615.3663" y1="335.5638" x2="615.3663" y2="529.9291" gradientTransform="matrix(1 0 0 -1 0 1080)">
				<stop  offset="0" style="stop-color:#CCCCFF"/>
				<stop  offset="1" style="stop-color:#755CBB"/>
			</linearGradient>
			<path class="st60" d="M625.1,744.4c-6.7-5.9-14.7-15.7-22.8-31.7c-16.1-32.1-20.7-53.6-21.4-57.3l3.8-5.9l5.1-49.4l4.8-2.8
				c0,0,17.1-18.8,30-47.2c0.2,0.4,0.4,1.1,0.7,2.1l0,0c2.6,10.3,8,48.7,13,62.5c3.1,8.6,8,13.3,11.6,15.7c0,0-29.5,43.8-30.9,75.1
				C617.6,733.7,624,743,625.1,744.4z"/>
			
				<linearGradient id="SVGID_58_" gradientUnits="userSpaceOnUse" x1="406.309" y1="244.1897" x2="406.309" y2="299.9358" gradientTransform="matrix(1 0 0 -1 0 1080)">
				<stop  offset="0" style="stop-color:#CCCCFF"/>
				<stop  offset="1" style="stop-color:#755CBB"/>
			</linearGradient>
			<path class="st61" d="M449.8,835.8c0,0-53.2-8.7-75-22.7l0,0c0.2-1.2,0.3-2.3,0.3-3.5c-0.5-12-10.8-22.6-12.3-29.4
				c0.2,0.7,1.8,4.2,9.4,10.7c4.8,4.1,12,9.4,22.8,15.8c0.3,0.2,0.6,0.3,0.9,0.5c15.3,9.1,28.6,15.2,38.1,19.7c0.1,0,0.1,0,0.2,0.1
				C442.7,830.8,448.2,833.5,449.8,835.8C449.8,835.7,449.8,835.8,449.8,835.8z"/>
			
				<linearGradient id="SVGID_59_" gradientUnits="userSpaceOnUse" x1="514.5717" y1="259.5327" x2="514.5717" y2="286.6116" gradientTransform="matrix(1 0 0 -1 0 1080)">
				<stop  offset="0" style="stop-color:#CCCCFF"/>
				<stop  offset="1" style="stop-color:#755CBB"/>
			</linearGradient>
			<path class="st62" d="M563.6,793.4c-0.3,2.1-5,6.6-6.3,11.5c0,0-19.5,20.7-91.8,14.4c0.5-2.1,15.6,0.9,50.9-6.2
				C550.5,806.2,562.9,794.1,563.6,793.4z"/>
			<path class="st63" d="M575.6,513.7l-46.2,14.9l-13.6,6.2h-0.1H507h-11.9l-7.4,0.6l-3.9,0.3l-11.2,0.9l-5.7,0.5l-55.4-20l-9.9-3.6
				L356,497c1.4-0.5,2.7-1.1,4.2-1.7c30.6-12.1,60.6-26.8,60.6-26.8l11.5-14.2h5.2c4.6-10.1,7.6-19.4,9.6-26.7l3-13.7
				c0.2-1.4,0.3-2.1,0.3-2.1l16.3,8.6l55,44c0,3,0,5.7,0.2,8l0.8,5.6c0.1-1.1,0.2-1.7,0.2-1.7l5.3,1.6l3.6,8.6
				c0,0,6.2,9.6,30.5,20.2C566.6,508.7,571,510.9,575.6,513.7z"/>
			<g>
				
					<linearGradient id="SVGID_60_" gradientUnits="userSpaceOnUse" x1="513.3883" y1="607.4877" x2="513.3883" y2="792.5933" gradientTransform="matrix(1 0 0 -1 0 1080)">
					<stop  offset="1.598750e-02" style="stop-color:#FFC2A9"/>
					<stop  offset="1" style="stop-color:#FF9595"/>
				</linearGradient>
				<path class="st64" d="M540.5,471.5c0,0-21.6,4.9-45.3-6.6s-43.7-45.5-45-53.9c-1.2-8.5,9.1-30.7,9.1-47.8
					c0-17.2-8.5-47,5.8-63.1c14.3-16,79.7-18.5,100.9,2.1c0,0,6.5,16.5,6.5,25.9c0,2.2-0.4,5.6-1,9.4c-0.2,1.4-0.5,2.9-0.7,4.5
					c-1.9,11.3-4.5,25.1-3.3,31.1c0.4,2.1,1.1,4.1,1.9,5.9l0,0c2.6,6.1,6.5,10.8,7.2,16.1C577.6,401.8,568.4,450.3,540.5,471.5z"/>
				
					<linearGradient id="SVGID_61_" gradientUnits="userSpaceOnUse" x1="444.3247" y1="682.2419" x2="444.3247" y2="736.79" gradientTransform="matrix(1 0 0 -1 0 1080)">
					<stop  offset="1.598750e-02" style="stop-color:#FFC2A9"/>
					<stop  offset="1" style="stop-color:#FF9595"/>
				</linearGradient>
				<path class="st65" d="M459.1,358.1c0,0-5.9-14.7-20.7-14.9c0,0-8.6,3.4-10,10c0,0,3.2,23.8,6.8,34.9c3.6,11.1,17,9.6,17,9.6
					S463.9,379.9,459.1,358.1z"/>
				
					<linearGradient id="SVGID_62_" gradientUnits="userSpaceOnUse" x1="539.176" y1="661.5815" x2="541.4654" y2="673.5013" gradientTransform="matrix(1 0 0 -1 0 1080)">
					<stop  offset="0" style="stop-color:#E1616A"/>
					<stop  offset="1" style="stop-color:#FF8883"/>
				</linearGradient>
				<path class="st66" d="M515.9,406.8c0,0,4.9-0.4,7,1.2s9.9,9.1,19.6,11.1c9.8,2.1,16.3-6.2,18.5-6.7c2.1-0.4,4.4,2.5,4.4,2.5
					s-0.9-3.4-6-5c0,0-2.1,7.8-16.2,5.2c-14.2-2.6-20.2-9-20.2-9l-0.7-1.3C522.2,404.8,518.2,405.7,515.9,406.8z"/>
				
					<linearGradient id="SVGID_63_" gradientUnits="userSpaceOnUse" x1="518.4765" y1="670.704" x2="518.4765" y2="789.998" gradientTransform="matrix(1 0 0 -1 0 1080)">
					<stop  offset="0" style="stop-color:#FFEADB"/>
					<stop  offset="0.9944" style="stop-color:#C27CB6"/>
				</linearGradient>
				<path class="st67" d="M495,333.4l0.2-1.6c0,0,14.2-24.8,42.1-25.5c27.9-0.7,34.3,16.8,34.3,16.8l5.2-7.9l-11.8-24l-82.1-1.4
					l-20,16.1l-2.5,39.5l8.9,52.1l21.7,11.5l6.2-5.4c-2.2-17.5-15.2-33.4-15.2-33.4l9.5-6.5c0,0,24.3,11.8,38.4,8.2
					c0,0,10.5-30.8,10-53.7C539.4,318.4,503.4,323.8,495,333.4z"/>
				<path class="st68" d="M493.7,335.2c0,0,1.4-8.9,16.4-12.5c16.8-4,30.5-7.3,30.5-7.3s-2.9,9.8-8.6,13.5c0,0-17.8-0.7-26.7,1.4
					C496.3,332.3,493.7,335.2,493.7,335.2z"/>
				<path class="st68" d="M571.5,323.2c0,0-8.5,6.5-14.4,22.3c0,0,5.6-7.2,10.6-7.1c3.5,0.1,2.9,3.5,2.9,3.5
					S574.3,332.5,571.5,323.2z"/>
				
					<linearGradient id="SVGID_64_" gradientUnits="userSpaceOnUse" x1="512.6681" y1="719.5621" x2="512.6681" y2="743.1866" gradientTransform="matrix(1 0 0 -1 0 1080)">
					<stop  offset="0" style="stop-color:#CF6074"/>
					<stop  offset="1" style="stop-color:#F37270"/>
				</linearGradient>
				<path class="st69" d="M499.4,360.4c0,0,0.9-18.8,19.3-23.6c0,0,6.6,8.5,7.2,18.2C525.9,355,516.2,353.2,499.4,360.4z"/>
				
					<linearGradient id="SVGID_65_" gradientUnits="userSpaceOnUse" x1="559.84" y1="712.0627" x2="559.84" y2="732.6285" gradientTransform="matrix(1 0 0 -1 0 1080)">
					<stop  offset="0" style="stop-color:#CF6074"/>
					<stop  offset="1" style="stop-color:#FF817F"/>
				</linearGradient>
				<path class="st70" d="M552.1,367.9c0,0,1.5-15,10.2-20.6c0,0,5.9,4.4,5.3,17C567.4,364.3,562.4,362.4,552.1,367.9z"/>
				<path class="st71" d="M499.4,360.4c0,0,6,7.3,22.7,8.8c0,0,3.2-4.9,2.9-14.4C525,354.8,509.6,353.4,499.4,360.4z"/>
				<path class="st71" d="M552.1,367.9v2.2c0,0,2.5,5.4,11.8,6.2c0,0,3-4.7,3.2-12.2C567.1,364.3,561.3,362.8,552.1,367.9z"/>
				<path class="st72" d="M517.3,354.4c0,0-4.2,5.2-3.9,13.3c0,0,5.6,1.3,8.7,1.5c0,0,3.7-5.1,2.9-14.4
					C525,354.8,520.1,353.9,517.3,354.4z"/>
				<path class="st72" d="M560.9,364.5c0,0-2.4,2.5-2.8,10.4c0,0,3.3,1.5,6,1.5c0,0,3.3-4.8,3.2-12.2
					C567.1,364.3,564.8,363.3,560.9,364.5z"/>
				<path class="st68" d="M515.9,368.4c0,0-1.6-10.2,4.3-14.1l4.8,0.6c0,0,1.6,8.1-2.9,14.4C522.1,369.2,517.4,368.7,515.9,368.4z"
					/>
				<path class="st68" d="M562.9,364.1c0,0-2.1,4.5-3.1,11.6c0,0,1.7,0.7,4.1,0.8c0,0,3.3-4,3.2-12.2
					C567.1,364.3,564.6,363.6,562.9,364.1z"/>
				<path class="st73" d="M499.4,360.4c0,0,11.1-6.4,30.1-2.8l-3.5-2.6C525.9,355,512.5,350.8,499.4,360.4z"/>
				<path class="st73" d="M552.1,367.9c0,0,8.9-4.8,19.3-2.2l-4.3-3.2C567.1,362.5,560.1,361.5,552.1,367.9z"/>
				<path class="st11" d="M511.4,360.4c0,0,3-0.7,5.8,2.1C517.2,362.5,513.4,363.6,511.4,360.4z"/>
				<path class="st11" d="M556.2,369.2c0,0,4.8-0.9,6.3,1.3C562.6,370.4,560,372.2,556.2,369.2z"/>
				<path class="st74" d="M500.5,361.6c0,0,8.7,8.6,22.6,10.6l0.4-5.1l-1.3,2.1C522.1,369.2,508.8,368.4,500.5,361.6z"/>
				<path class="st74" d="M552.1,370.2c0,0,1.6,5.6,12.8,8l-0.4-2.7l-0.6,1C563.9,376.4,555.9,375.4,552.1,370.2z"/>
				<path class="st75" d="M529.5,392.2c0,0,4.2-0.9,11.9,0c7.7,0.9,16.4,3,21.2,0c0,0-6.3,6.3-11.8,7.2c-5.5,1-13.8-3.8-13.8-3.8
					l-3.6,0.1C533.4,395.7,530.5,394.4,529.5,392.2z"/>
				<path class="st76" d="M533.9,395.7c0,0,1.9-1.2,3.5-0.9c1.6,0.3,3.2,2.6,3.2,2.6S537.3,395.6,533.9,395.7z"/>
				<path class="st77" d="M562.6,392.2c2.1-2-8.4-20.6-13.5-21.3c-5-0.7-9.7,20.9-9.7,20.9s6.9,1,13.7,1.9
					C559.9,394.7,562.6,392.2,562.6,392.2z"/>
				
					<linearGradient id="SVGID_66_" gradientUnits="userSpaceOnUse" x1="561.8832" y1="700.0841" x2="561.8832" y2="746.3661" gradientTransform="matrix(1 0 0 -1 0 1080)">
					<stop  offset="0" style="stop-color:#FFEADB"/>
					<stop  offset="0.9944" style="stop-color:#C27CB6"/>
				</linearGradient>
				<path class="st78" d="M570.1,333.6c-2.8-0.4-12.8,11.8-12.8,11.8s-6.3,19.7-5.1,25.5c1.3,5.9,16.7,9,16.7,9l0.7-1.1l0,0
					c-0.8-1.9-1.5-3.8-1.9-5.9c-1.3-6.1,1.4-19.8,3.3-31.1c0,0,0.6-2.3,0.7-4.5C571.6,335.5,571.3,333.7,570.1,333.6z"/>
				
					<linearGradient id="SVGID_67_" gradientUnits="userSpaceOnUse" x1="516.0129" y1="605.1016" x2="516.0129" y2="829.7261" gradientTransform="matrix(1 0 0 -1 0 1080)">
					<stop  offset="0" style="stop-color:#2E33A0"/>
					<stop  offset="1" style="stop-color:#0665A5"/>
				</linearGradient>
				<path class="st79" d="M569.6,413.6c-3.2-6.6-1.3-10.2-28.9-13.8c-39.2-5.2-42.6,6.8-49.2,5c-0.2-0.1-0.5-0.2-0.8-0.3
					c-7.2-2.8-24.2-19.5-24.7-42.1c-0.5-23.4,15.2-40,15.2-40c-5.7-4.8-8-18.6-1.9-24.5c6.2-5.9,16.6-4.5,42.3-1.9
					c25.7,2.7,25.7,1.2,25.7,1.2c8.2,2.1,12.8,9.8,14.2,12.2c0.3,0.5,0.4,0.8,0.4,0.8l3.2-2.9c8.6,12.5,7,26.2,7,26.2
					s14.1-28.6,12.5-32.7c-2.9-7.5-11-18.4-11.5-19.1l0,0c0,0-2.2-21.8-9.1-21.8c-6.8,0-35.9,6.5-35.9,6.5
					c3.2-7.5,2.7-16.1,2.7-16.1s0,0-0.1,0.1c-9.5,8.5-18.7,9.5-31.9,15.5c-6.6,3.1-9.8,6-12.3,8.9l-0.9,1.1l-1,1.2
					c-0.9,1.2-1.9,2.3-2.9,3.5c0,0.1-0.1,0.1-0.1,0.1l-0.1,0.1c-1.1,1.2-2.3,2.3-3.8,3.6c-8.6,7-27.6,11.7-29.9,19.1
					c-2.2,7.4,2.8,17.6,5.6,28c2.7,10.4,1.5,19.7,1.5,19.7s9.1,11.6,6.1,28.7c-2.6,15.3-8.5,17.8-8.5,17.8
					c-4.1,8.4-2.1,16.3-2.1,16.3c8.4,33.4,43.1,53.3,43.1,53.3c30.8,11.5,51.3,6.5,51.3,6.5l0,0c22.5-14.6,30.2-63.2,30.6-65.4
					C574.6,408.9,570.5,415.4,569.6,413.6z M555.7,444.5c-5.5-0.9-6.6-14.7-8.4-16.5c-1.9-1.8-11.7-1.1-11.7-1.1
					s-9.1,10.3-12.7,10.6c-3.6,0.3-23-7.6-18.8-19.4c4.2-11.8,18.8-13.4,18.8-13.4s7.6,6.3,18.9,7.1c11.3,0.8,15.4-1.4,16.8-2
					c1.4-0.6,8.7,2.7,8.5,13C567,430.2,561.2,445.4,555.7,444.5z"/>
				<path class="st80" d="M554.4,375.1c0,0,9.8,12.2,8.9,16.7c-1,5-12.4,7.7-12.4,7.7s9.1-3.1,10.9-7.7
					C561.8,391.8,559.4,382.6,554.4,375.1z"/>
				
					<linearGradient id="SVGID_68_" gradientUnits="userSpaceOnUse" x1="574.9138" y1="746.6498" x2="574.9138" y2="798.487" gradientTransform="matrix(1 0 0 -1 0 1080)">
					<stop  offset="0" style="stop-color:#FFEADB"/>
					<stop  offset="0.9944" style="stop-color:#8860C7"/>
				</linearGradient>
				<path class="st81" d="M572.1,333.4c0,0,1.6-13.7-7-26.2c6.9-12.4,7.9-25.7,7.9-25.7l0,0c2.3,5.8,3.7,17,3.7,17l7.9,2.1
					C586.2,304.7,572.1,333.4,572.1,333.4z"/>
				
					<linearGradient id="SVGID_69_" gradientUnits="userSpaceOnUse" x1="504.3178" y1="605.1992" x2="504.3178" y2="829.9214" gradientTransform="matrix(1 0 0 -1 0 1080)">
					<stop  offset="0" style="stop-color:#CCC2DB"/>
					<stop  offset="0.9944" style="stop-color:#8860C7"/>
				</linearGradient>
				<path class="st82" d="M561.5,309.4c-1.4-2.4-6-10.1-14.2-12.2c0,0,0,1.6-25.7-1.2c-25.7-2.7-36.1-4.1-42.3,1.9
					c-6.2,6-3.9,19.7,1.9,24.5c0,0-15.7,16.6-15.2,40c0.4,22.6,17.5,39.2,24.7,42.1l-0.3,2.5c0,0,1.3,51.5,13.9,55.6
					c12.5,4.1,38.6,2,40.9,4.4c2.3,2.3-0.3,6.2-0.6,6.6l0,0c0,0-20.3,5-51.3-6.5c0,0-34.8-19.9-43.1-53.3c0,0-2-7.9,2.1-16.3
					c0,0,5.9-2.5,8.5-17.8c3-17.1-6.1-28.7-6.1-28.7s1.3-9.3-1.5-19.7c-2.7-10.4-7.9-20.6-5.6-28c14.5,2.2,24.1-5.3,24.1-5.3
					s2.5-3.5,13.8-5.4c11.2-1.9,56.4,2.7,56.4,2.7s-4.5-3.8-14.1-6.2c-9-2.3-39.8,0.4-43.1,0.7c3.5-0.6,38.5-6.6,42.5-5.5
					c4.2,1.3,19.3,8.2,19.3,8.2c-1.4-6.9-14.9-23.6-14.9-23.6s-19.1,0.3-31.6,2.9c-11.1,2.3-17.3,7.4-18.5,8.5l2.9-3.5l1-1.2
					l0.9-1.1l4.4-0.8l22-8.9c7.3-3.9,16.8-13.7,18-14.8c0.1-0.1,0.1-0.1,0.1-0.1s0.5,8.6-2.7,16.1c18.5-2.2,24.8-1.2,24.8-1.2
					C561.2,277.1,561.5,309.4,561.5,309.4z"/>
				
					<linearGradient id="SVGID_70_" gradientUnits="userSpaceOnUse" x1="519.3492" y1="605.2233" x2="519.3492" y2="614.8723" gradientTransform="matrix(1 0 0 -1 0 1080)">
					<stop  offset="0" style="stop-color:#776D7E"/>
					<stop  offset="1" style="stop-color:#9D68C2"/>
				</linearGradient>
				<path class="st83" d="M493.2,467.3c0,0,11.3-2.7,28.5-2.1c17.1,0.7,26.9,0.8,22.7,8.5C544.5,473.7,522.9,478.6,493.2,467.3z"/>
				
					<linearGradient id="SVGID_71_" gradientUnits="userSpaceOnUse" x1="547.7144" y1="813.651" x2="547.7144" y2="820.8199" gradientTransform="matrix(1 0 0 -1 0 1080)">
					<stop  offset="0" style="stop-color:#1F77D1"/>
					<stop  offset="1" style="stop-color:#0686C9"/>
				</linearGradient>
				<path class="st84" d="M552.8,265.2c0,0,10.4-4.1,14.5-3.4c0,0-1.7-2.1-3.3-2.6c-1.7-0.5-35.9,7.1-35.9,7.1
					S549.4,263.8,552.8,265.2z"/>
				
					<linearGradient id="SVGID_72_" gradientUnits="userSpaceOnUse" x1="501.9296" y1="790.0475" x2="501.9296" y2="811.244" gradientTransform="matrix(1 0 0 -1 0 1080)">
					<stop  offset="0" style="stop-color:#1F77D1"/>
					<stop  offset="1" style="stop-color:#0686C9"/>
				</linearGradient>
				<path class="st85" d="M531.6,269.1c0,0-0.8,11.3-4.4,15.4l-42.5,5.5l-12.5-2.1c0,0,4.8-2.1,10.2-8.2
					C487.7,273.3,515.4,267.3,531.6,269.1z"/>
				
					<linearGradient id="SVGID_73_" gradientUnits="userSpaceOnUse" x1="578.8069" y1="779.3013" x2="578.8069" y2="798.4352" gradientTransform="matrix(1 0 0 -1 0 1080)">
					<stop  offset="0" style="stop-color:#1F77D1"/>
					<stop  offset="1" style="stop-color:#0686C9"/>
				</linearGradient>
				<path class="st86" d="M573,281.6c0,0,3.4,11.1,3.7,17.1l7.9,2.1C584.6,300.7,582.2,292.3,573,281.6z"/>
				
					<linearGradient id="SVGID_74_" gradientUnits="userSpaceOnUse" x1="452.3769" y1="695.2245" x2="427.9023" y2="725.2089" gradientTransform="matrix(1 0 0 -1 0 1080)">
					<stop  offset="0" style="stop-color:#FFEADB"/>
					<stop  offset="0.9944" style="stop-color:#B060F4"/>
				</linearGradient>
				<path class="st87" d="M457.4,378.2c0,0-3-14.4-10.3-21.4c-7.3-7.1-15.6-4.8-15.6-4.8s2.2,26.6,4.7,33c2.3,6.4,6.1,8.2,6.1,8.2
					s-5.1-4.5-5.8-13.3c-0.7-8.8-0.9-21.2,1-22.6c2-1.5,9.8,4.3,9.8,4.3s-2.4,3-3.9,10.8s4,13.5,6.1,13.4c2.1-0.1-0.1-9.1,0.2-11.6
					C449.9,371.6,454.3,372.1,457.4,378.2z"/>
				
					<linearGradient id="SVGID_75_" gradientUnits="userSpaceOnUse" x1="454.8907" y1="699.0327" x2="442.8573" y2="713.7751" gradientTransform="matrix(1 0 0 -1 0 1080)">
					<stop  offset="0" style="stop-color:#FFEADB"/>
					<stop  offset="0.9944" style="stop-color:#B060F4"/>
				</linearGradient>
				<path class="st88" d="M450.1,360.4c0,0-8,5.3-7.1,16c0.9,10.7,7,10.3,7,8s-1.2-8.1-0.6-11.3c0.6-3.3,6-1.8,6-1.8
					S451.8,362.7,450.1,360.4z"/>
				<path class="st89" d="M575,408.3c0,0-10,45.3-30.6,65.4C544.5,473.7,567.9,464.5,575,408.3z"/>
				<path class="st89" d="M563.9,259.2c0,0,5.3,4.1,6.2,18.3s-5.2,29.9-5.2,29.9s7.9-11.7,8.6-24.6
					C574.5,269.8,568.1,260.8,563.9,259.2z"/>
			</g>
			
				<linearGradient id="SVGID_76_" gradientUnits="userSpaceOnUse" x1="500.563" y1="788.1445" x2="541.9547" y2="788.1445" gradientTransform="matrix(1 0 0 -1 0 1080)">
				<stop  offset="0" style="stop-color:#1F77D1"/>
				<stop  offset="1" style="stop-color:#0686C9"/>
			</linearGradient>
			<path class="st90" d="M500.6,288.8c0,0,12.1,4.1,25.4,5.3c13.3,1.2,16,1.5,16,1.5s-5.4-5.2-16.7-6.7
				C513.8,287.3,500.6,288.8,500.6,288.8z"/>
			
				<linearGradient id="SVGID_77_" gradientUnits="userSpaceOnUse" x1="558.9774" y1="664.3346" x2="571.5397" y2="664.3346" gradientTransform="matrix(1 0 0 -1 0 1080)">
				<stop  offset="0" style="stop-color:#1F77D1"/>
				<stop  offset="1" style="stop-color:#0686C9"/>
			</linearGradient>
			<path class="st91" d="M559.1,409.3c0,0,5.8,0,8.1,7.2c1.9,5.8,2.3,10.8,2.3,10.8l2.1-8c0,0-2.6-10.1-5.5-12.4
				c-2-1.7-5.5-3.3-7.1-2.9L559.1,409.3z"/>
			
				<linearGradient id="SVGID_78_" gradientUnits="userSpaceOnUse" x1="543.4678" y1="673.691" x2="557.0171" y2="673.691" gradientTransform="matrix(1 0 0 -1 0 1080)">
				<stop  offset="0" style="stop-color:#1F77D1"/>
				<stop  offset="1" style="stop-color:#0686C9"/>
			</linearGradient>
			<path class="st92" d="M543.5,402l1,8.6c0,0,7,0.6,11.7-1.4l0.9-5.3C557,404,548,401.8,543.5,402z"/>
			<path class="st89" d="M575.6,513.7c0,0,41.3,30.2,46.7,40.6c5.4,10.3,7.5,43,14.7,57c0,0-5-23-8.4-41.1
				c-3.5-18.1-2.6-18.4-4.6-22.7C622.2,542.9,591.4,521.5,575.6,513.7z"/>
			<path class="st89" d="M568.3,681.7c0,0-19.9,85.2-19,91s13.8,17.5,14.4,20.7c0,0-9.9,13.2-9.4,16.1c0.5,2.9,17.3,21.4,16.8,27.1
				c-0.1,1.7-11,19.6-11,19.6s12.3-17.7,12.9-20.5s-15.1-26.5-15.5-28.9c-1.2-6.2,7.8-10.7,8.1-14.8c0.3-4.1-12.2-14.1-12.3-20.8
				C553.1,764.6,568.3,681.7,568.3,681.7z"/>
			<path class="st89" d="M572.3,884.9c0,0,43.1,97.4,57.7,195C630.1,1079.9,627.6,984.7,572.3,884.9z"/>
			<path class="st77" d="M299.4,494c0,0-11.1-2.3-15.7-12.1c-4.6-9.8-1.6-23.8-1.6-23.8s8.7,16.7,13.1,22.5
				C299.4,486.3,300.5,492.9,299.4,494z"/>
		</g>
	</g>
	<g>
		<defs>
			<rect id="SVGID_79_" x="-200.5" y="120.3" width="1439.2" height="959.5"/>
		</defs>
		<clipPath id="SVGID_80_">
			<use xlink:href="#SVGID_79_"  style="overflow:visible;"/>
		</clipPath>
		<g class="st93">
			<path class="st94" d="M643.1,443.3l7.7,220.2c0.3,8.7,7.5,15.6,16.2,15.6h379.4c8.8,0,16-7,16.2-15.8l5.3-222.8
				c0.2-9.2-7.1-16.7-16.3-16.6l-392.3,2.5C650,426.5,642.8,434.1,643.1,443.3z"/>
			<g>
				<path class="st95" d="M1046.4,679.7H667c-9.1,0-16.5-7.1-16.8-16.2l-7.7-220.2c-0.2-4.6,1.5-8.9,4.7-12.2
					c3.2-3.3,7.4-5.2,12-5.2l392.3-2.5c4.6,0,8.9,1.8,12.1,5.1s5,7.6,4.8,12.2l-5.3,222.8C1063,672.5,1055.5,679.7,1046.4,679.7z
					 M1051.6,424.4L1051.6,424.4L659.2,427c-4.3,0-8.2,1.8-11.1,4.8c-2.9,3-4.5,7.1-4.3,11.3l7.7,220.2c0.3,8.5,7.1,15,15.6,15
					h379.4c8.4,0,15.4-6.8,15.6-15.2l5.3-222.8c0.1-4.3-1.5-8.3-4.5-11.3C1059.8,426.1,1055.8,424.4,1051.6,424.4z"/>
			</g>
			
				<linearGradient id="SVGID_81_" gradientUnits="userSpaceOnUse" x1="643.5748" y1="640.7304" x2="1068.1664" y2="640.7304" gradientTransform="matrix(1 0 0 -1 0 1080)">
				<stop  offset="0" style="stop-color:#9D68C2"/>
				<stop  offset="1" style="stop-color:#AEC2FF"/>
			</linearGradient>
			<path class="st96" d="M643.7,454.5h423.8l0.7-11.6c0.6-10.3-7.6-18.9-17.9-18.8l-392.1,3.1c-8.2,0.1-14.7,6.8-14.5,15
				L643.7,454.5z"/>
			
				<linearGradient id="SVGID_82_" gradientUnits="userSpaceOnUse" x1="729.8281" y1="480.3372" x2="729.8281" y2="608.4172" gradientTransform="matrix(1 0 0 -1 0 1080)">
				<stop  offset="0" style="stop-color:#CCEDFF"/>
				<stop  offset="1" style="stop-color:#9D68C2"/>
			</linearGradient>
			<polygon class="st97" points="665,472.3 665,599.7 794.7,599.7 794.7,471.6 			"/>
			
				<linearGradient id="SVGID_83_" gradientUnits="userSpaceOnUse" x1="948.2572" y1="542.8152" x2="948.2572" y2="599.2407" gradientTransform="matrix(1 0 0 -1 0 1080)">
				<stop  offset="0" style="stop-color:#CCEDFF"/>
				<stop  offset="1" style="stop-color:#9D68C2"/>
			</linearGradient>
			<rect x="920" y="480.8" class="st98" width="56.4" height="56.4"/>
			
				<linearGradient id="SVGID_84_" gradientUnits="userSpaceOnUse" x1="1014.8353" y1="542.8152" x2="1014.8353" y2="599.2407" gradientTransform="matrix(1 0 0 -1 0 1080)">
				<stop  offset="0" style="stop-color:#CCEDFF"/>
				<stop  offset="1" style="stop-color:#9D68C2"/>
			</linearGradient>
			<rect x="986.6" y="480.8" class="st99" width="56.4" height="56.4"/>
			
				<linearGradient id="SVGID_85_" gradientUnits="userSpaceOnUse" x1="880.5075" y1="542.8152" x2="880.5075" y2="599.2407" gradientTransform="matrix(1 0 0 -1 0 1080)">
				<stop  offset="0" style="stop-color:#CCEDFF"/>
				<stop  offset="1" style="stop-color:#9D68C2"/>
			</linearGradient>
			<rect x="852.3" y="480.8" class="st100" width="56.4" height="56.4"/>
			<rect x="898.8" y="570.1" class="st101" width="144.3" height="13.5"/>
			<rect x="862.6" y="590.7" class="st101" width="180.4" height="4.2"/>
			<rect x="864.3" y="544.4" class="st101" width="34.5" height="4.2"/>
			<rect x="931" y="544.4" class="st101" width="34.5" height="4.2"/>
			<rect x="997.6" y="544.4" class="st101" width="34.5" height="4.2"/>
			<rect x="852.3" y="597.4" class="st101" width="58" height="4.2"/>
			<rect x="862.6" y="604.2" class="st101" width="180.4" height="4.2"/>
			<rect x="852.3" y="610.9" class="st101" width="190.7" height="4.2"/>
			<rect x="852.3" y="617.6" class="st101" width="190.7" height="4.2"/>
			<rect x="862.6" y="644.8" class="st101" width="180.4" height="4.2"/>
			<rect x="852.3" y="651.5" class="st101" width="190.7" height="4.2"/>
			<rect x="852.3" y="658.2" class="st101" width="190.7" height="4.2"/>
			<rect x="852.3" y="624.4" class="st101" width="183" height="4.2"/>
			<rect x="862.6" y="631.1" class="st101" width="180.4" height="4.2"/>
			<rect x="852.3" y="637.7" class="st101" width="154.5" height="4.2"/>
			<g>
				<path class="st102" d="M701.3,574.1c-20.3,0-36.9-16.6-36.9-36.9s16.6-36.9,36.9-36.9s36.9,16.6,36.9,36.9
					C738.2,557.6,721.7,574.1,701.3,574.1z M701.3,502.7c-19,0-34.5,15.5-34.5,34.5c0,19,15.5,34.5,34.5,34.5
					c19,0,34.5-15.5,34.5-34.5C735.8,518.1,720.3,502.7,701.3,502.7z"/>
			</g>
			<circle class="st11" cx="701.3" cy="537.2" r="20"/>
			<g>
				<path class="st102" d="M794.7,508.5c-20.3,0-36.9-16.6-36.9-36.9c0-20.3,16.6-36.9,36.9-36.9s36.9,16.6,36.9,36.9
					C831.6,491.9,815,508.5,794.7,508.5z M794.7,437c-19,0-34.5,15.5-34.5,34.5c0,19,15.5,34.5,34.5,34.5c19,0,34.5-15.5,34.5-34.5
					C829.2,452.5,813.7,437,794.7,437z"/>
			</g>
			
				<ellipse transform="matrix(0.1554 -0.9879 0.9879 0.1554 205.2774 1183.2429)" class="st11" cx="794.6" cy="471.6" rx="18.8" ry="18.8"/>
			<g>
				<polygon class="st11" points="658.5,437.1 661.2,433.1 675.8,445.8 673.5,448.9 				"/>
				<polygon class="st11" points="676.2,437.1 673.5,433.1 658.9,445.8 661.1,448.9 				"/>
			</g>
			<rect x="926.6" y="435.9" class="st11" width="130.6" height="6.5"/>
		</g>
	</g>
	<g>
		<defs>
			<rect id="SVGID_86_" x="-200.5" y="120.3" width="1439.2" height="959.5"/>
		</defs>
		<clipPath id="SVGID_87_">
			<use xlink:href="#SVGID_86_"  style="overflow:visible;"/>
		</clipPath>
		<g class="st103">
			
				<linearGradient id="SVGID_88_" gradientUnits="userSpaceOnUse" x1="273.6895" y1="681.4384" x2="273.6895" y2="740.4996" gradientTransform="matrix(1 0 0 -1 0 1080)">
				<stop  offset="0" style="stop-color:#D93DE3"/>
				<stop  offset="1" style="stop-color:#FF6DBA"/>
			</linearGradient>
			<polygon class="st104" points="239.3,341.4 239.3,398 307.2,398.6 308.1,339.5 			"/>
			
				<linearGradient id="SVGID_89_" gradientUnits="userSpaceOnUse" x1="309.8096" y1="681.4384" x2="309.8096" y2="740.4996" gradientTransform="matrix(1 0 0 -1 0 1080)">
				<stop  offset="0" style="stop-color:#A242EA"/>
				<stop  offset="1" style="stop-color:#FE117E"/>
			</linearGradient>
			<polygon class="st105" points="308.1,339.5 312.4,346.9 310.3,398.5 307.2,398.6 			"/>
			<polygon class="st11" points="251.4,360.5 257.7,351.3 291.6,379.7 286.4,386.7 			"/>
			<polygon class="st11" points="292.4,360.5 286.2,351.3 252.3,379.7 257.5,386.7 			"/>
		</g>
	</g>
	<g>
		<defs>
			<rect id="SVGID_90_" x="-200.5" y="120.3" width="1439.2" height="959.5"/>
		</defs>
		<clipPath id="SVGID_91_">
			<use xlink:href="#SVGID_90_"  style="overflow:visible;"/>
		</clipPath>
		<g class="st106">
			
				<linearGradient id="SVGID_92_" gradientUnits="userSpaceOnUse" x1="263.4599" y1="59.239" x2="295.4008" y2="313.5549" gradientTransform="matrix(1 0 0 -1 0 1080)">
				<stop  offset="0" style="stop-color:#067EFF"/>
				<stop  offset="1" style="stop-color:#3E37A0"/>
			</linearGradient>
			<path class="st107" d="M397.5,1008.3H165.5c-10.3,0-18.7-8.2-19-18.5l-4.3-190.3c-0.2-10.6,8.3-19.4,19-19.4h241.4
				c10.7,0,19.3,8.8,19,19.5l-5.2,190.3C416.2,1000.1,407.7,1008.3,397.5,1008.3z"/>
			<g>
				<path class="st108" d="M397.5,1008.9H165.5c-10.5,0-19.3-8.6-19.6-19.1l-4.3-190.3c-0.1-5.3,1.9-10.3,5.6-14.2
					c3.7-3.8,8.7-5.9,14.1-5.9h241.4c5.4,0,10.3,2.1,14.1,6c3.7,3.8,5.7,8.9,5.6,14.2l-5.2,190.3
					C416.8,1000.5,408.2,1008.9,397.5,1008.9z M161.2,780.7c-5,0-9.7,2-13.2,5.6c-3.5,3.6-5.4,8.3-5.3,13.3l4.3,190.3
					c0.2,10,8.5,18,18.4,18h231.9c10.1,0,18.2-7.9,18.4-17.9l5.2-190.3c0.1-5-1.8-9.8-5.2-13.4c-3.5-3.6-8.2-5.6-13.2-5.6H161.2z"/>
			</g>
			<g>
				<rect x="204.8" y="819" class="st11" width="121.9" height="5.2"/>
				<rect x="204.8" y="831.7" class="st11" width="61" height="5.2"/>
				<rect x="204.8" y="842.3" class="st11" width="61" height="5.2"/>
				<rect x="272.6" y="842.3" class="st11" width="48.5" height="5.2"/>
				<rect x="204.8" y="852.9" class="st11" width="98.3" height="5.2"/>
				<rect x="204.8" y="863.5" class="st11" width="34.9" height="5.2"/>
				<rect x="246.9" y="895.4" class="st11" width="60.5" height="5.2"/>
				<rect x="204.8" y="874.1" class="st11" width="109.7" height="5.2"/>
				<rect x="204.8" y="884.7" class="st11" width="84.3" height="5.2"/>
				<rect x="204.8" y="895.4" class="st11" width="39.7" height="5.2"/>
				<rect x="204.8" y="905.9" class="st11" width="61" height="5.2"/>
				<rect x="204.8" y="916.5" class="st11" width="17.5" height="5.2"/>
				<rect x="229.5" y="916.5" class="st11" width="63.5" height="5.2"/>
				<rect x="246.9" y="926.8" class="st11" width="60.5" height="5.2"/>
				<rect x="204.8" y="926.8" class="st11" width="39.7" height="5.2"/>
				<rect x="204.8" y="937.4" class="st11" width="61" height="5.2"/>
				<rect x="204.8" y="948.1" class="st11" width="17.5" height="5.2"/>
				<rect x="229.5" y="948.1" class="st11" width="63.5" height="5.2"/>
			</g>
		</g>
	</g>
	<g>
		<defs>
			<rect id="SVGID_93_" x="-200.5" y="120.3" width="1439.2" height="959.5"/>
		</defs>
		<clipPath id="SVGID_94_">
			<use xlink:href="#SVGID_93_"  style="overflow:visible;"/>
		</clipPath>
		
			<linearGradient id="SVGID_95_" gradientUnits="userSpaceOnUse" x1="1009.0756" y1="687.8814" x2="1009.0756" y2="709.3192" gradientTransform="matrix(1 0 0 -1 0 1080)">
			<stop  offset="0" style="stop-color:#459FFF"/>
			<stop  offset="1" style="stop-color:#A96DFF"/>
		</linearGradient>
		<path class="st109" d="M1019.8,381.4c0,6-4.8,10.7-10.7,10.7c-6,0-10.7-4.8-10.7-10.7c0-6,4.8-10.7,10.7-10.7
			C1015,370.7,1019.8,375.5,1019.8,381.4z"/>
	</g>
	<g>
		<defs>
			<rect id="SVGID_96_" x="-200.5" y="120.3" width="1439.2" height="959.5"/>
		</defs>
		<clipPath id="SVGID_97_">
			<use xlink:href="#SVGID_96_"  style="overflow:visible;"/>
		</clipPath>
		
			<linearGradient id="SVGID_98_" gradientUnits="userSpaceOnUse" x1="67.8084" y1="681.0469" x2="67.8084" y2="707.7285" gradientTransform="matrix(1 0 0 -1 0 1080)">
			<stop  offset="0" style="stop-color:#459FFF"/>
			<stop  offset="1" style="stop-color:#A96DFF"/>
		</linearGradient>
		<path class="st110" d="M81.2,385.6c0,7.3-6,13.4-13.4,13.4c-7.3,0-13.4-6-13.4-13.4c0-7.3,6-13.4,13.4-13.4
			C75.2,372.3,81.2,378.2,81.2,385.6z"/>
	</g>
	<g>
		<defs>
			<rect id="SVGID_99_" x="-200.5" y="120.3" width="1439.2" height="959.5"/>
		</defs>
		<clipPath id="SVGID_100_">
			<use xlink:href="#SVGID_99_"  style="overflow:visible;"/>
		</clipPath>
		
			<linearGradient id="SVGID_101_" gradientUnits="userSpaceOnUse" x1="1040.6075" y1="687.8814" x2="1040.6075" y2="709.3192" gradientTransform="matrix(1 0 0 -1 0 1080)">
			<stop  offset="0" style="stop-color:#B31A8F"/>
			<stop  offset="1" style="stop-color:#FE117E"/>
		</linearGradient>
		<circle class="st111" cx="1040.6" cy="381.4" r="10.7"/>
	</g>
	<g>
		<defs>
			<rect id="SVGID_102_" x="-200.5" y="120.3" width="1439.2" height="959.5"/>
		</defs>
		<clipPath id="SVGID_103_">
			<use xlink:href="#SVGID_102_"  style="overflow:visible;"/>
		</clipPath>
		
			<linearGradient id="SVGID_104_" gradientUnits="userSpaceOnUse" x1="349.3466" y1="617.3008" x2="349.3466" y2="632.4598" gradientTransform="matrix(1 0 0 -1 0 1080)">
			<stop  offset="0" style="stop-color:#B31A8F"/>
			<stop  offset="1" style="stop-color:#FE117E"/>
		</linearGradient>
		<circle class="st112" cx="349.3" cy="455.1" r="7.6"/>
	</g>
	<g>
		<defs>
			<rect id="SVGID_105_" x="-200.5" y="120.3" width="1439.2" height="959.5"/>
		</defs>
		<clipPath id="SVGID_106_">
			<use xlink:href="#SVGID_105_"  style="overflow:visible;"/>
		</clipPath>
		
			<linearGradient id="SVGID_107_" gradientUnits="userSpaceOnUse" x1="857.0782" y1="282.8313" x2="857.0782" y2="297.9902" gradientTransform="matrix(1 0 0 -1 0 1080)">
			<stop  offset="0" style="stop-color:#8642A0"/>
			<stop  offset="1" style="stop-color:#6456C0"/>
		</linearGradient>
		<circle class="st113" cx="857.1" cy="789.6" r="7.6"/>
	</g>
	<g>
		<defs>
			<rect id="SVGID_108_" x="-200.5" y="120.3" width="1439.2" height="959.5"/>
		</defs>
		<clipPath id="SVGID_109_">
			<use xlink:href="#SVGID_108_"  style="overflow:visible;"/>
		</clipPath>
		
			<linearGradient id="SVGID_110_" gradientUnits="userSpaceOnUse" x1="68.9763" y1="208.0695" x2="68.9763" y2="221.6213" gradientTransform="matrix(1 0 0 -1 0 1080)">
			<stop  offset="0" style="stop-color:#8642A0"/>
			<stop  offset="1" style="stop-color:#6456C0"/>
		</linearGradient>
		<circle class="st114" cx="69" cy="865.2" r="6.7"/>
	</g>
	<g>
		<defs>
			<rect id="SVGID_111_" x="-200.5" y="120.3" width="1439.2" height="959.5"/>
		</defs>
		<clipPath id="SVGID_112_">
			<use xlink:href="#SVGID_111_"  style="overflow:visible;"/>
		</clipPath>
		<g class="st115">
			
				<linearGradient id="SVGID_113_" gradientUnits="userSpaceOnUse" x1="125.8899" y1="281.3837" x2="125.8899" y2="393.356" gradientTransform="matrix(1 0 0 -1 0 1080)">
				<stop  offset="0" style="stop-color:#D906E3"/>
				<stop  offset="1" style="stop-color:#FF6DF9"/>
			</linearGradient>
			<path class="st116" d="M184.6,798.6h-117c-9.4,0-17.2-7.4-17.5-16.9l-2.6-77c-0.3-9.9,7.6-18.1,17.5-18.1h122
				c9.9,0,17.8,8.1,17.5,18l-2.3,77C201.7,791.1,193.9,798.6,184.6,798.6z"/>
			<g>
				<path class="st117" d="M184.6,799.2h-117c-9.8,0-17.8-7.7-18.1-17.5l-2.6-77c-0.2-5,1.7-9.7,5.1-13.2c3.4-3.5,8-5.5,13-5.5h122
					c5,0,9.6,2,13,5.5c3.4,3.5,5.3,8.2,5.1,13.2l-2.3,77C202.3,791.5,194.3,799.2,184.6,799.2z M64.9,687.3c-4.6,0-8.9,1.9-12.1,5.2
					c-3.2,3.3-4.9,7.7-4.7,12.3l2.6,77c0.3,9.2,7.7,16.3,16.9,16.3h117c9.2,0,16.6-7.2,16.9-16.4l2.3-77c0.1-4.6-1.6-9-4.8-12.3
					c-3.2-3.3-7.5-5.2-12.1-5.2L64.9,687.3L64.9,687.3z"/>
			</g>
			<g>
				<polygon class="st11" points="98.7,714.4 69.9,747.9 99.2,772.7 99.2,759.9 82.3,745.1 98,727.4 				"/>
			</g>
			<g>
				<polygon class="st11" points="149.4,715.8 178.3,749.3 148.9,774.3 148.9,761.4 165.9,746.7 147,726.7 				"/>
			</g>
			<g>
				<polygon class="st11" points="105,772.7 130.1,717.4 141.9,717.4 113.5,772.7 				"/>
			</g>
		</g>
	</g>
	<g>
		<defs>
			<rect id="SVGID_114_" x="-200.5" y="120.3" width="1439.2" height="959.5"/>
		</defs>
		<clipPath id="SVGID_115_">
			<use xlink:href="#SVGID_114_"  style="overflow:visible;"/>
		</clipPath>
		<g class="st118">
			
				<linearGradient id="SVGID_116_" gradientUnits="userSpaceOnUse" x1="898.714" y1="122.9433" x2="898.714" y2="262.9331" gradientTransform="matrix(1 0 0 -1 0 1080)">
				<stop  offset="0" style="stop-color:#D906E3"/>
				<stop  offset="1" style="stop-color:#FF6DF9"/>
			</linearGradient>
			<path class="st119" d="M972.1,957.1H825.6c-11.8,0-21.5-9.4-21.9-21.1l-3.2-96.4c-0.4-12.4,9.5-22.6,21.9-22.6H975
				c12.3,0,22.3,10.2,21.9,22.6l-2.9,96.4C993.6,947.7,983.9,957.1,972.1,957.1z"/>
			<g>
				<path class="st117" d="M972.1,957.6H825.6c-12.2,0-22.1-9.6-22.5-21.7l-3.2-96.4c-0.2-6.2,2.1-11.9,6.3-16.4
					c4.3-4.4,10-6.8,16.1-6.8H975c6.2,0,11.8,2.4,16.1,6.8c4.3,4.4,6.5,10.2,6.3,16.3l-2.9,96.4
					C994.1,948.1,984.3,957.6,972.1,957.6z M822.4,817.7c-5.9,0-11.2,2.3-15.3,6.4c-4,4.2-6.2,9.7-6,15.5l3.2,96.4
					c0.4,11.5,9.8,20.5,21.3,20.5h146.4c11.5,0,20.9-9.1,21.3-20.6l2.9-96.4c0.2-5.8-2-11.3-6-15.4c-4-4.2-9.5-6.4-15.2-6.4
					L822.4,817.7L822.4,817.7z"/>
			</g>
			<rect x="829.9" y="832.6" class="st101" width="134.1" height="79.7"/>
			<polygon class="st11" points="885.1,852.3 885.1,892.4 919.4,870.6 			"/>
			<rect x="829.9" y="926.9" class="st101" width="134.1" height="7.3"/>
			<rect x="829.9" y="926.9" class="st11" width="34.8" height="7.3"/>
		</g>
	</g>
	<g>
		<defs>
			<rect id="SVGID_117_" x="-200.5" y="120.3" width="1439.2" height="959.5"/>
		</defs>
		<clipPath id="SVGID_118_">
			<use xlink:href="#SVGID_117_"  style="overflow:visible;"/>
		</clipPath>
		<g class="st120">
			<g>
				
					<linearGradient id="SVGID_119_" gradientUnits="userSpaceOnUse" x1="793.475" y1="274.5323" x2="781.5392" y2="376.978" gradientTransform="matrix(0.9656 0.26 0.26 -0.9656 -120.5107 937.463)">
					<stop  offset="0" style="stop-color:#1852A0"/>
					<stop  offset="1" style="stop-color:#067ED3"/>
				</linearGradient>
				<path class="st121" d="M731.6,807.4l-7,20C728.5,816.3,734.1,809.2,731.6,807.4z M724.7,827.4l-7,20
					C719.4,846.8,720.8,838.4,724.7,827.4z M731.6,807.4l-7,20C728.5,816.3,734.1,809.2,731.6,807.4z M724.7,827.4l-7,20
					C719.4,846.8,720.8,838.4,724.7,827.4z M744.9,844.7l6.8,3.8l7.3-20l-7.9-1.3c0.1-0.8,0.3-1.5,0.4-2.2c0.6-3.4,0.8-6.8,0.7-10
					l8.2-5.2l-3.7-17.7l-7.9,7.5c-1.1-2.2-2.4-4.2-4-5.9c-0.4-0.5-0.9-0.9-1.4-1.4l4.8-11.1l-12.8-4.2l0,0l-3.1,11.2
					c-2.8,0-5.8,0.7-8.7,2.1l-1.4-10.6l-14.2,10.7l3.2,9.4c-2.5,2.9-4.9,6.2-6.9,10.1l-6.8-3.8l-7.3,20l7.9,1.3
					c-0.9,4.2-1.2,8.3-1.1,12.2l-8.2,5.2l3.7,17.7l7.9-7.5c1.4,2.9,3.2,5.3,5.4,7.2l-4.8,11.1l12.6,4.9l2-7.1l1.4-4.9
					c2.8,0,5.8-0.7,8.7-2l1.4,10.6l14.2-10.7l-3.2-9.4c2-2.2,3.9-4.9,5.6-7.7C744,846.4,744.4,845.6,744.9,844.7z M724.7,827.4
					c-3.9,11,0,22.5-7,20c-7-2.4-9.6-13.5-5.8-24.5c3.9-11,12.7-18.1,19.7-15.6C738.7,809.8,728.5,816.3,724.7,827.4z M731.6,807.4
					l-7,20C728.5,816.3,734.1,809.2,731.6,807.4z M724.7,827.4l-7,20C719.4,846.8,720.8,838.4,724.7,827.4z"/>
			</g>
			
				<linearGradient id="SVGID_120_" gradientUnits="userSpaceOnUse" x1="781.8841" y1="274.0602" x2="781.8841" y2="378.9305" gradientTransform="matrix(0.9656 0.26 0.26 -0.9656 -120.5107 937.463)">
				<stop  offset="0" style="stop-color:#1852A0"/>
				<stop  offset="1" style="stop-color:#067ED3"/>
			</linearGradient>
			<path class="st122" d="M751.6,848.6l7.3-20l-7.5-3.5l-1.2-0.6l0.8-11l8.3-4.1l-2.7-17.2l-18.1-5.9l3.3,7.9l6.3-12.9l-12.8-4.2
				l-5.3-1.8l-12.7-4.9l-2.3,8.6l-11-5.3l-14.2,10.7l4.3,11.5l-13.2,36.6l-6.5,23.8l12.5,1.4l-4.1,9.5l12.7,4.9l18.1,5.9l-2.9-5.9
				l-1.9-3.5l6.7,2.1l11.4,3.7l14.2-10.7l-8.7-10.3l11-6.8L751.6,848.6z M711.9,822.9c3.9-11,12.7-18.1,19.7-15.6l-7,20l-7,20
				C710.6,845,708,834,711.9,822.9z"/>
			<g>
				
					<linearGradient id="SVGID_121_" gradientUnits="userSpaceOnUse" x1="750.1253" y1="336.5393" x2="742.4092" y2="402.7669" gradientTransform="matrix(0.9438 0.3306 0.5202 -1.4851 -190.1241 1123.7157)">
					<stop  offset="0" style="stop-color:#188DC1"/>
					<stop  offset="1" style="stop-color:#06BFE7"/>
				</linearGradient>
				<path class="st123" d="M733.6,842.6l7.3-20l-7.9-1.3c0.8-4.2,1.2-8.3,1.1-12.2l8.2-5.2l-3.7-17.7l-7.9,7.5
					c-1.4-2.9-3.2-5.4-5.4-7.2l4.8-11.1l-12.6-4.9l-3.3,12c-2.8,0-5.8,0.7-8.7,2.1l-1.4-10.6l-14.2,10.6l3.2,9.4
					c-2.5,2.9-4.9,6.2-6.9,10.1l-6.8-3.8l-7.3,20l7.9,1.3c-0.8,4.2-1.2,8.3-1.1,12.2l-8.2,5.2l3.7,17.7l7.9-7.5
					c1.4,2.9,3.2,5.4,5.4,7.2l-4.8,11.1l12.6,4.9l3.3-12c2.8,0,5.8-0.7,8.7-2.1l1.4,10.5l14.2-10.6l-3.2-9.4
					c2.5-2.9,4.9-6.2,6.9-10.1L733.6,842.6z M699.5,841.5c-7-2.4-9.6-13.4-5.7-24.5c3.9-11,12.7-18.1,19.7-15.5
					c7,2.4,9.6,13.4,5.7,24.5C715.4,837,706.5,844,699.5,841.5z"/>
			</g>
			<polygon class="st124" points="760.4,809.8 742.3,804 734.1,809.2 752.1,815 			"/>
			<polygon class="st125" points="741.2,864.2 723.1,858.3 719.8,848.9 738,854.7 			"/>
			<polygon class="st124" points="725.3,786.7 735.2,789.5 738.6,786.3 745.1,788.5 748.2,781.4 730.1,775.6 			"/>
			<path class="st124" d="M698.9,860.4l9.5,3.9l-0.8-6C707.6,858.4,702.5,861.1,698.9,860.4z"/>
			<path class="st124" d="M700.4,806.1l16,8.4c0,0,2.3-3.1,4.1-4.4C720.4,810.2,716.3,792.7,700.4,806.1z"/>
		</g>
	</g>
	<g>
		<defs>
			<rect id="SVGID_122_" x="-200.5" y="120.3" width="1439.2" height="959.5"/>
		</defs>
		<clipPath id="SVGID_123_">
			<use xlink:href="#SVGID_122_"  style="overflow:visible;"/>
		</clipPath>
		<polygon class="st126" points="333.9,209 349.3,239.8 339.1,244.5 324.6,216.2 		"/>
	</g>
	<g>
		<defs>
			<rect id="SVGID_124_" x="-200.5" y="120.3" width="1439.2" height="959.5"/>
		</defs>
		<clipPath id="SVGID_125_">
			<use xlink:href="#SVGID_124_"  style="overflow:visible;"/>
		</clipPath>
		<polygon class="st127" points="509.3,121.8 523.5,137.4 529.1,130.9 515.6,116.1 		"/>
	</g>
	<g>
		<defs>
			<rect id="SVGID_126_" x="-200.5" y="120.3" width="1439.2" height="959.5"/>
		</defs>
		<clipPath id="SVGID_127_">
			<use xlink:href="#SVGID_126_"  style="overflow:visible;"/>
		</clipPath>
		<polygon class="st128" points="711.3,397.1 697,405.8 691.2,394.9 706.9,385.7 		"/>
	</g>
	<g>
		<defs>
			<rect id="SVGID_128_" x="-200.5" y="120.3" width="1439.2" height="959.5"/>
		</defs>
		<clipPath id="SVGID_129_">
			<use xlink:href="#SVGID_128_"  style="overflow:visible;"/>
		</clipPath>
		<polygon class="st129" points="782,948.1 761.4,962.7 755.6,951.8 775.7,940.2 		"/>
	</g>
	<g>
		<defs>
			<rect id="SVGID_130_" x="-200.5" y="120.3" width="1439.2" height="959.5"/>
		</defs>
		<clipPath id="SVGID_131_">
			<use xlink:href="#SVGID_130_"  style="overflow:visible;"/>
		</clipPath>
		<g class="st130">
			
				<linearGradient id="SVGID_132_" gradientUnits="userSpaceOnUse" x1="742.8417" y1="860.3747" x2="770.0269" y2="961.3359" gradientTransform="matrix(1 0 0 -1 0 1080)">
				<stop  offset="0" style="stop-color:#188DC1"/>
				<stop  offset="1" style="stop-color:#06BFE7"/>
			</linearGradient>
			<polygon class="st131" points="708.9,210.5 705.5,129.8 811.3,129.8 806.9,210.3 			"/>
			
				<linearGradient id="SVGID_133_" gradientUnits="userSpaceOnUse" x1="696.086" y1="872.0443" x2="716.3551" y2="947.3199" gradientTransform="matrix(1 0 0 -1 0 1080)">
				<stop  offset="0" style="stop-color:#1852A0"/>
				<stop  offset="1" style="stop-color:#067ED3"/>
			</linearGradient>
			<polygon class="st132" points="705.5,129.8 702.3,134.5 705.5,210.5 708.9,210.5 			"/>
			<polygon class="st11" points="740.6,145.9 724,144.1 726.3,199.5 740.6,198.1 740.6,192.3 732.3,192.5 731.4,149.9 740.6,150.2 
							"/>
			<polygon class="st11" points="774.5,145.9 791.1,144.1 788.9,199.5 774.5,198.1 774.5,192.3 782.8,192.5 783.8,149.9 
				774.5,150.2 			"/>
		</g>
	</g>
	<g>
		<defs>
			<rect id="SVGID_134_" x="-200.5" y="120.3" width="1439.2" height="959.5"/>
		</defs>
		<clipPath id="SVGID_135_">
			<use xlink:href="#SVGID_134_"  style="overflow:visible;"/>
		</clipPath>
		<g class="st133">
			
				<linearGradient id="SVGID_136_" gradientUnits="userSpaceOnUse" x1="527.6889" y1="795.1094" x2="546.2241" y2="863.9456" gradientTransform="matrix(-1 0 0 -1 686.6559 1080)">
				<stop  offset="0" style="stop-color:#188DC1"/>
				<stop  offset="1" style="stop-color:#06BFE7"/>
			</linearGradient>
			<polygon class="st134" points="182.1,278.7 184.4,223.6 112.4,223.6 115.3,278.5 			"/>
			
				<linearGradient id="SVGID_137_" gradientUnits="userSpaceOnUse" x1="495.8285" y1="803.0574" x2="509.6516" y2="854.3941" gradientTransform="matrix(-1 0 0 -1 686.6559 1080)">
				<stop  offset="0" style="stop-color:#1852A0"/>
				<stop  offset="1" style="stop-color:#067ED3"/>
			</linearGradient>
			<polygon class="st135" points="184.4,223.6 186.6,226.8 184.4,278.7 182.1,278.7 			"/>
			<path class="st11" d="M156.6,234.6c0,0,7.9-0.3,9.3,0.3c1.4,0.7-0.4,13.5-0.4,13.5l3.1,2.9l-2.9,2.8c0,0,0.2,13.1-1.7,14.2
				s-8.2,0-8.2,0v-3.2c0,0,5.2,0.3,6.1-0.4c0.9-0.7,0.8-12.1,0.8-12.1l1.4-1.6l-1.4-1.7c0,0,0.3-8.1,0.1-10.3
				c-0.1-1.5-6.2-1.6-6.2-1.6L156.6,234.6L156.6,234.6z"/>
			<path class="st11" d="M138.5,234.6c0,0-7.9-0.3-9.3,0.3c-1.4,0.7,0.4,13.5,0.4,13.5l-3.1,2.9l2.9,2.8c0,0-0.2,13.1,1.7,14.2
				s8.2,0,8.2,0v-3.2c0,0-5.2,0.3-6.1-0.4s-0.8-12.1-0.8-12.1l-1.4-1.6l1.4-1.7c0,0-0.3-8.1-0.1-10.3c0.1-1.5,6.2-1.6,6.2-1.6
				L138.5,234.6L138.5,234.6z"/>
		</g>
	</g>
	<g>
		<defs>
			<rect id="SVGID_138_" x="-200.5" y="120.3" width="1439.2" height="959.5"/>
		</defs>
		<clipPath id="SVGID_139_">
			<use xlink:href="#SVGID_138_"  style="overflow:visible;"/>
		</clipPath>
		<g class="st136">
			<g>
				<path class="st95" d="M634,329.8l-17.7-46.2l45.8,9.6L634,329.8z M618.2,285.2l16.1,42.2l25.7-33.5L618.2,285.2z"/>
			</g>
			<g>
				
					<rect x="754.6" y="973.6" transform="matrix(0.5912 -0.8065 0.8065 0.5912 -471.8731 1017.4464)" class="st95" width="26.3" height="1.2"/>
			</g>
			<g>
				<polygon class="st95" points="614.9,789.9 598.3,769.2 599.2,768.5 615.9,789.2 				"/>
			</g>
			<g>
				<polygon class="st95" points="100.8,935.6 67.5,911.5 68.2,910.5 101.5,934.6 				"/>
			</g>
			<g>
				
					<rect x="64" y="922.5" transform="matrix(0.606 -0.7955 0.7955 0.606 -700.9521 430.9902)" class="st95" width="41.1" height="1.2"/>
			</g>
			<g>
				
					<rect x="36" y="563.4" transform="matrix(0.4651 -0.8852 0.8852 0.4651 -489.9609 340.2739)" class="st95" width="1.2" height="24.3"/>
			</g>
			<g>
				<polygon class="st95" points="874.3,291.6 873.4,290.8 898.3,262.4 899.2,263.2 				"/>
			</g>
			<g>
				
					<rect x="395.4" y="359.1" transform="matrix(0.8953 -0.4454 0.4454 0.8953 -124.0798 215.2754)" class="st95" width="1.2" height="25"/>
			</g>
			<g>
				
					<rect x="210" y="748.2" transform="matrix(0.767 -0.6416 0.6416 0.767 -427.1406 321.1299)" class="st95" width="37.3" height="1.2"/>
			</g>
		</g>
	</g>
</g>
</svg>
