<?xml version="1.0" encoding="utf-8"?>
<!-- Generator: Adobe Illustrator 24.2.3, SVG Export Plug-In . SVG Version: 6.00 Build 0)  -->
<svg version="1.1" id="Capa_1" xmlns="http://www.w3.org/2000/svg" xmlns:xlink="http://www.w3.org/1999/xlink" x="0px" y="0px"
	 viewBox="0 0 250 250" style="enable-background:new 0 0 250 250;" xml:space="preserve">
<style type="text/css">
	.st0{fill:#0066CC;}
	.st1{fill:#006600;}
</style>
<g>
	<path class="st0" d="M164.6,9.8c1.4,0,2.7,0,4.1,0c0.3,0.1,0.7,0.3,1,0.3c5,1.2,8.7,4.1,10,9.2c0.8,3.1,1.4,6.2,1.4,9.4
		c0.5,10.4-1.4,20.6-3.2,30.7c-0.4,2.1-0.9,4.3-1.4,6.7c0.9,0,1.4,0,2.1,0c10.6,0,21.3,0.1,32,0c12.2-0.2,20.6,11.9,15.8,23.1
		c-0.4,1-1,1.8-1.4,2.7c0.2-0.1,0.3-0.2,0.5-0.2c1.8,2.1,3.9,4.2,5.3,6.6c1.2,1.9,1.4,4.3,2.2,6.4c0,1,0,1.8,0,2.8
		c-0.6,1.8-1,3.9-1.6,5.6c-1.3,3.1-3.6,5.3-6.4,7.2c2.8,4.2,3.6,8.7,2.3,13.4c-1.3,4.8-4.3,8.3-8.7,10.7c2.2,3.8,3,7.7,2.1,12
		c-1.6,7.7-8.3,13.1-16.2,13.1c-12.4,0.1-24.7,0-37.1,0c-17.1,0-33.8-2.7-50.1-8.1c-1.1-0.4-1.4-0.8-1.4-1.8c0-27.5,0-55.1,0-82.6
		c0-1,0.3-1.6,1.1-2.2c6.2-4.7,12.1-9.8,17.4-15.7c4.3-4.9,8.1-10.2,10.3-16.5c2.7-7.4,5.5-14.8,8.5-22.1c0.8-2,2-3.9,3.3-5.6
		C158.3,12,161.4,10.8,164.6,9.8z"/>
	<path class="st0" d="M106.3,79.9c0,26.3,0,52.5,0,78.8c-0.6,0-1.1,0.1-1.5,0.1c-8.6,0-17.1,0-25.7,0c-4.2,0-5.9-1.7-5.9-5.9
		c0-22.3,0-44.6,0-67c0-4.3,1.6-5.9,6-5.9c8.5,0,16.9,0,25.4,0C105.2,79.9,105.8,79.9,106.3,79.9z"/>
</g>
<g>
	
		<image style="overflow:visible;enable-background:new    ;" width="199" height="199" xlink:href="4E769B2F.png"  transform="matrix(1 0 0 1 -29 69)">
	</image>
</g>
<g>
	<path class="st1" d="M106.6,161.9c-0.6,2-2.3,3-3.7,4.3c-4.3,3.9-8.7,7.7-13.1,11.5c-0.3,0.3-0.4,0.6-0.3,1
		c1.5,6.6,3,13.2,4.5,19.8c0.4,1.7-0.1,3.3-1.4,4.2c-1.5,1-3,1-4.5,0.1c-5.8-3.4-11.5-6.9-17.3-10.3c-0.5-0.3-0.9-0.3-1.4,0
		c-5.7,3.4-11.4,6.9-17.2,10.3c-1.8,1.1-3.7,0.9-5-0.3c-1.1-1.1-1.4-2.4-1.1-3.9c1.5-6.5,3-13.1,4.5-19.6c0.1-0.6,0-1-0.5-1.4
		c-5.1-4.4-10.1-8.8-15.2-13.3c-1.3-1.1-1.8-2.5-1.3-4.2c0.5-1.6,1.7-2.6,3.4-2.7c3.5-0.3,7.1-0.6,10.6-1c3.3-0.3,6.5-0.6,9.8-0.9
		c0.5,0,0.7-0.3,0.9-0.7c2.6-6.2,5.3-12.3,7.9-18.5c0.7-1.6,1.9-2.6,3.7-2.7c1.8,0,3,1,3.7,2.7c2.6,6.1,5.2,12.3,7.9,18.4
		c0.2,0.6,0.6,0.8,1.1,0.8c5.7,0.5,11.4,1,17.2,1.5c1,0.1,2,0.2,3,0.3c1.9,0.2,3,1.2,3.5,3c0,0.1,0.1,0.1,0.1,0.2
		C106.6,160.9,106.6,161.4,106.6,161.9z"/>
</g>
</svg>
