<?xml version="1.0" encoding="utf-8"?>
<!-- Generator: Adobe Illustrator 24.2.3, SVG Export Plug-In . SVG Version: 6.00 Build 0)  -->
<svg version="1.1" id="Capa_1" xmlns="http://www.w3.org/2000/svg" xmlns:xlink="http://www.w3.org/1999/xlink" x="0px" y="0px"
	 viewBox="0 0 250 250" style="enable-background:new 0 0 250 250;" xml:space="preserve">
<style type="text/css">
	.st0{fill:#FFFFFF;}
</style>
<g>
	<path class="st0" d="M117.9,250c-3.7-0.8-7.5-1.4-11.1-2.6c-17.8-6-28.2-18.7-32.2-36.8c-0.9-4.2-1.2-8.5-1.4-12.8
		c-0.2-4.7,3.2-8.2,7.6-8.4c4.6-0.1,8.1,3.1,8.3,8c0.2,7.9,1.6,15.5,6,22.2c5.9,9,14.5,13.6,25.1,14.2c16.2,0.9,27.3-5.9,33.6-20.8
		c2.3-5.4,4.2-11.1,5.3-16.9c3.2-17,12.1-30.2,25.2-41c6.5-5.3,13.1-10.4,19.6-15.7c13.5-11.1,20.2-25.6,21.7-42.8
		c0.9-10.8,0.6-21.4-2.3-31.9c-4.8-17.2-14.9-30.5-30.7-38.8c-25.2-13.2-51-13-76.2-0.2C97.2,35.5,86.1,51.6,82.7,73
		c-0.7,4.6-0.8,9.4-1.4,14c-0.5,4.3-4,7.1-8.3,6.9c-4-0.2-7.4-3.3-7.4-7.3c0-26.5,8.6-49.3,29.8-66.1c21-16.5,45.1-22.1,71.3-19.1
		c16.1,1.8,30.9,7.3,43.9,17.1c15.9,11.9,25.7,27.8,29.5,47.2c3.6,17.8,2.8,35.5-2.7,52.9c-4,12.5-11.3,23-21.2,31.5
		c-7,6-14.3,11.5-21.4,17.3c-8,6.4-14.5,14-17.7,23.9c-1.8,5.9-2.9,12-4.6,17.9c-3.8,12.9-10.1,24.2-21.3,32.3
		c-6.1,4.4-13,6.9-20.4,8c-0.7,0.1-1.4,0.3-2.1,0.5C125.1,250,121.5,250,117.9,250z"/>
	<path class="st0" d="M114.6,90c4.2-1,8-2.2,12-2.9c10.1-1.7,18.5,1.4,24.2,10.2c6,9.2,5.2,18.6-0.4,27.7
		c-5.8,9.4-14.4,15.8-23.5,21.5c-3.1,1.9-6.3,3.6-9.6,5.3c-4.9,2.6-9.6,1.3-11.9-3.1c-2.1-4.1-0.3-8.6,4.5-11
		c8.6-4.4,16.7-9.4,23.2-16.6c2.1-2.3,4-5,5.1-7.9c2.2-5.8-1.8-10.9-8-10.7c-5.8,0.3-10.7,2.9-15.7,5.6c-1.6,0.9-3,1.9-4.6,2.7
		c-4.7,2.4-10.2-0.3-11.3-5.5c-0.1-0.5-0.2-1-0.2-1.4c0.2-9.1-0.2-18.2,0.9-27.2c2-16.4,10.8-28.9,25.2-36.7
		c20.6-11.1,41.5-10.6,61.5,1.9c12.8,8.1,19.8,20.1,22,34.9c0.4,2.9,0.6,5.8,0.7,8.7c0.2,4.7-3,8.4-7.4,8.6c-4.6,0.2-8.2-3-8.4-7.8
		c-0.3-7.5-1.6-14.7-5.7-21.1c-6.2-9.6-15.3-14.5-26.3-16.1c-12.5-1.7-24.1,0.7-34.1,8.9c-8,6.6-11.6,15.4-12.2,25.6
		C114.5,85.6,114.6,87.8,114.6,90z"/>
	<path class="st0" d="M70.5,146.8c-0.3,21.3-9.2,43.1-26.8,61.3c-3.2,3.4-8.1,3.5-11.4,0.5c-3.3-3.1-3.5-7.8-0.3-11.3
		c5.9-6.4,11.1-13.1,14.8-21c8.1-17.1,9.8-34.8,5.2-53.1c-3-11.8-8.7-22.3-16.8-31.4c-1.1-1.2-2.2-2.4-3.2-3.6
		c-3.1-3.6-2.8-8.3,0.5-11.3c3.2-2.9,8-2.7,11.2,0.6c8.6,8.7,15.3,18.7,19.9,30C68.2,118.7,70.5,130.5,70.5,146.8z"/>
	<path class="st0" d="M38,142.7c-0.3,14.6-5.4,27.2-15.5,37.8c-3.3,3.5-8.2,3.8-11.5,0.8c-3.4-3.1-3.6-7.8-0.2-11.5
		c5.1-5.5,8.8-11.6,10.3-19c2.6-12.6-0.2-23.8-8.4-33.7c-0.8-0.9-1.6-1.8-2.4-2.7c-2.8-3.5-2.5-8.1,0.7-11s8-2.8,11.2,0.5
		c5,5.1,8.9,10.9,11.7,17.5C36.6,128.2,37.9,135.3,38,142.7z"/>
</g>
</svg>
