<?xml version="1.0" encoding="utf-8"?>
<!-- Generator: Adobe Illustrator 24.2.3, SVG Export Plug-In . SVG Version: 6.00 Build 0)  -->
<svg version="1.1" id="Capa_1" xmlns="http://www.w3.org/2000/svg" xmlns:xlink="http://www.w3.org/1999/xlink" x="0px" y="0px"
	 viewBox="0 0 250 250" style="enable-background:new 0 0 250 250;" xml:space="preserve">
<style type="text/css">
	.st0{fill:#FFFFFF;}
</style>
<g>
	<path class="st0" d="M0,124.8c0.6-0.6,1.3-1.2,1.8-1.8C22.4,98.2,46.6,78,76,64.5c17.9-8.2,36.7-12.3,56.5-10.9
		c17.8,1.3,34.3,6.8,49.9,15.2c25.8,13.8,47.7,32.5,66.1,55.2c0.3,0.4,0.6,0.8,1.2,1.6c-5.8,6.2-11.3,12.7-17.3,18.7
		c-16,16-33.9,29.6-54.3,39.5c-19,9.3-38.9,14.4-60.2,13c-16.3-1.1-31.7-5.7-46.3-13C44.2,170.4,21.4,151.1,2,127.7
		c-0.6-0.7-1.3-1.3-2-2C0,125.4,0,125.1,0,124.8z M230.7,125.8c-0.7-0.9-0.9-1.3-1.2-1.6c-16.3-17.6-34.6-32.7-56-43.5
		c-13.4-6.8-27.5-11.5-42.7-12.5c-16.6-1.1-32.4,2.4-47.6,9.1C64.7,85.4,48.5,97,33.7,110.5c-5.1,4.6-9.8,9.6-14.8,14.5
		c0.5,0.6,0.7,0.9,0.9,1.2C37.3,145,57,161,80.4,171.9c12.2,5.7,25,9.5,38.5,10.3c14.7,0.9,28.7-1.9,42.4-7.2
		c21-8.2,39.1-21,55.5-36.3C221.6,134.6,226.2,130.2,230.7,125.8z"/>
	<path class="st0" d="M124.8,174.5c-27.2,0-49.3-22.1-49.3-49.2c0-27.2,22.1-49.2,49.3-49.2c27.1,0,49.1,22,49.2,49.1
		C174,152.3,152,174.4,124.8,174.5z M124.9,90.6c-19.1,0-34.7,15.4-34.7,34.4c-0.1,19.1,15.4,34.7,34.4,34.8
		c19.2,0.1,34.8-15.4,34.8-34.5S143.9,90.7,124.9,90.6z"/>
	<path class="st0" d="M147.3,125.3c0,12.5-10.1,22.5-22.6,22.5c-12.5-0.1-22.5-10.1-22.4-22.7c0.1-12.4,10.1-22.4,22.5-22.4
		C137.3,102.7,147.3,112.7,147.3,125.3z M132.7,125.2c0-4.4-3.5-7.8-7.9-7.8s-7.9,3.4-7.9,7.8c0,4.5,3.5,8,8,8
		C129.3,133.1,132.7,129.6,132.7,125.2z"/>
</g>
</svg>
