<?xml version="1.0" encoding="utf-8"?>
<!-- Generator: Adobe Illustrator 24.2.3, SVG Export Plug-In . SVG Version: 6.00 Build 0)  -->
<svg version="1.1" id="Capa_1" xmlns="http://www.w3.org/2000/svg" xmlns:xlink="http://www.w3.org/1999/xlink" x="0px" y="0px"
	 viewBox="0 0 110 110" style="enable-background:new 0 0 110 110;" xml:space="preserve">
<style type="text/css">
	.st0{fill-rule:evenodd;clip-rule:evenodd;fill:url(#SVGID_1_);}
	.st1{fill:none;stroke:#000000;stroke-width:4;stroke-linecap:round;stroke-linejoin:round;}
</style>
<g transform="translate(.5)">
	
		<linearGradient id="SVGID_1_" gradientUnits="userSpaceOnUse" x1="-192.2409" y1="304.2143" x2="-192.2409" y2="303.2546" gradientTransform="matrix(110 0 0 -110 21201 33466)">
		<stop  offset="0" style="stop-color:#F6AA6C"/>
		<stop  offset="1" style="stop-color:#BEC800"/>
	</linearGradient>
	<path class="st0" d="M54.5,0.1L54.5,0.1c30.4,0,55,24.6,55,55l0,0c0,30.4-24.6,55-55,55l0,0c-30.4,0-55-24.6-55-55l0,0
		C-0.5,24.7,24.1,0.1,54.5,0.1z"/>
	<g>
		<path class="st1" d="M54.5,58.8l-28-15.9l28-15.9l28,15.9L54.5,58.8z"/>
		<path class="st1" d="M82.5,55.1L54.5,71l-28-15.9"/>
		<path class="st1" d="M82.5,67.1L54.5,83l-28-15.9"/>
	</g>
</g>
</svg>
