<?xml version="1.0" encoding="utf-8"?>
<!-- Generator: Adobe Illustrator 24.2.3, SVG Export Plug-In . SVG Version: 6.00 Build 0)  -->
<svg version="1.1" id="Capa_1" xmlns="http://www.w3.org/2000/svg" xmlns:xlink="http://www.w3.org/1999/xlink" x="0px" y="0px"
	 viewBox="0 0 250 250" style="enable-background:new 0 0 250 250;" xml:space="preserve">
<style type="text/css">
	.st0{fill:#FFFFFF;}
</style>
<g>
	<path class="st0" d="M94.7,243.8c-29.5,0-59,0-88.5,0c0-79.2,0-158.4,0-237.6c79.2,0,158.4,0,237.6,0c0,79.2,0,158.4,0,237.6
		c-14.4,0-29,0-43.5,0c3.8-1.2,5.9-3.9,6.9-7.6c3.4-12.1,7.3-24,10.3-36.2c2.9-11.6,4.9-23.4,7.3-35.1c0.1-20.8,0.5-41.5,0.2-62.3
		c-0.1-11.4-9-20.6-20.3-22.5c-4.5-0.8-8.7,0.1-13,1.6c-2.8-6.3-7.1-10.9-13.5-13.4c-6.4-2.5-12.8-2.2-19.1,0.6
		C152.4,58,142.8,54,130.2,57.1c0-1.1,0-2,0-2.9c-0.1-8.6,0.2-17.2-0.2-25.7c-0.8-14.4-15.4-24.7-29.4-21.2
		c-11,2.8-18.3,12.4-18.3,24.3c0,30.5,0,61,0,91.5c0,0.9,0,1.7,0,3.2c-5.8-6.6-11.1-12.7-16.5-18.8c-4.8-5.4-10.8-8.1-17.9-8.3
		C37,99,28,105.6,25.1,115.8c-1.8,6.7-0.6,13.2,2.6,19c6.8,11.9,13.8,23.7,21.2,35.3c13.9,21.8,28.7,43,39,66.9
		C89.4,240.1,91.3,242.6,94.7,243.8z"/>
	<path d="M94.7,243.8c-3.4-1.2-5.3-3.7-6.7-6.9c-10.3-23.9-25.1-45.1-39-66.9c-7.4-11.6-14.5-23.3-21.2-35.3
		c-3.3-5.8-4.5-12.4-2.6-19C28,105.6,37,99,47.8,99.1c7.2,0.1,13.2,2.9,17.9,8.3c5.4,6.1,10.7,12.2,16.5,18.8c0-1.4,0-2.3,0-3.2
		c0-30.5,0-61,0-91.5c0-11.9,7.3-21.5,18.3-24.3c14-3.5,28.6,6.8,29.4,21.2c0.5,8.5,0.2,17.1,0.2,25.7c0,0.9,0,1.8,0,2.9
		c12.6-3.1,22.2,0.8,29.1,11.7c6.3-2.8,12.7-3.1,19.1-0.6c6.3,2.5,10.7,7.1,13.5,13.4c4.3-1.5,8.5-2.3,13-1.6
		c11.3,1.9,20.2,11,20.3,22.5c0.3,20.8-0.1,41.5-0.2,62.3c-2.4,11.7-4.4,23.5-7.3,35.1c-3,12.2-6.9,24.1-10.3,36.2
		c-1.1,3.8-3.1,6.4-6.9,7.6C165.1,243.8,129.9,243.8,94.7,243.8z M98.4,89.3c0,19.1,0.1,38.1-0.1,57.2c0,2.1-0.6,4.6-1.8,6.2
		c-3.1,4.4-9,4.1-12.9-0.3c-9.5-10.8-18.9-21.6-28.4-32.4c-0.8-0.9-1.6-1.9-2.5-2.7c-2.5-2.3-6.6-2.6-9.5-0.8
		c-2.6,1.7-3.4,4.4-2.2,8c0.7,2.2,1.6,4.4,2.8,6.3c4.8,8.2,9.7,16.3,14.8,24.3c14.8,23.3,31,45.7,42.3,71.1c0.3,0.6,1.5,1.2,2.3,1.2
		c29.3,0.1,58.5,0,87.8,0.1c1.4,0,2-0.3,2.4-1.7c3.6-13.2,7.4-26.2,10.9-39.4c2.4-9.2,4.6-18.6,4.7-28.2c0.1-17.7,0-35.4,0-53
		c0-1.1-0.1-2.3-0.4-3.4c-0.9-3.5-4.2-5.9-7.8-5.7c-3.6,0.2-6.6,2.8-7.2,6.4c-0.2,1.1-0.2,2.3-0.2,3.5c0,7.2,0.1,14.4-0.1,21.5
		c-0.1,5.4-4.5,8.9-9.7,7.9c-3.9-0.7-6.4-4.1-6.5-8.9c0-8.3,0-16.7,0-25c0-3.8,0.1-7.6-0.1-11.3c-0.1-3.6-2.6-6.4-5.9-7.1
		c-4.9-1.1-9.4,2.5-9.4,7.8c-0.1,8.3,0,16.7,0,25c0,5.6-3.3,9.3-8.2,9.2c-4.8,0-8-3.7-8-9.1c0-3.9,0-7.9,0-11.8c0-7.9,0-15.7,0-23.6
		c0-5.4-4.2-9-9.2-8.1c-3.7,0.7-6.2,3.9-6.2,8.3c-0.1,6.9,0,13.9,0,20.8c0,2,0.1,4-0.2,6c-0.6,4.7-5.2,7.8-9.8,6.6
		c-4-1-6.2-4.1-6.2-9.1c0-24,0-48,0-72c0-1,0-2-0.1-3c-0.5-4.2-3.7-7.2-7.7-7.2c-4,0-7.4,3.2-7.7,7.5c-0.1,0.8,0,1.7,0,2.5
		C98.4,51.7,98.4,70.5,98.4,89.3z"/>
</g>
</svg>
