<?xml version="1.0" encoding="utf-8"?>
<!-- Generator: Adobe Illustrator 24.2.3, SVG Export Plug-In . SVG Version: 6.00 Build 0)  -->
<svg version="1.1" id="Capa_1" xmlns="http://www.w3.org/2000/svg" xmlns:xlink="http://www.w3.org/1999/xlink" x="0px" y="0px"
	 viewBox="0 0 1920 876" style="enable-background:new 0 0 1920 876;" xml:space="preserve">
<g transform="translate(-216.000000, -124.000000)">
	<path id="Shape" d="M1822.7,142h-3.7c-34.1-0.4-67.7-6-107.6-14.4c-77-16.1-148.2-14.2-223.5-12.3c-27.6,0.7-56.1,1.5-85.1,1.3
		c-23.3-0.1-47-0.9-70-1.6c-49.1-1.6-99.9-3.2-149.7,1.3c-110.6,10-222.8,10.8-331.2,11.6c-63,0.4-128.1,0.9-192.3,3.2
		c-62,2.2-124.4-2-184.8-5.9c-37.3-2.5-75.9-5-114.1-6.1c-44-1.2-88.7,0.6-131.8,2.4c-50.3,2.1-102.3,4.2-153.6,1.6H75l0.1-0.2
		c4.4-10.3,11.9-19.2,21.6-25.8c9.5-6.6,21.8-12,36.5-16c26.7-7.2,61.3-10,105.6-8.6C319.6,75,416.3,91.3,494,104.4
		c56,9.5,104.4,17.6,130.2,17.7c90.1,0.4,185.7-2.1,292.1-7.5c105.4-5.4,210.9-13.2,291.1-19.5c55.2-4.3,110.3-6.4,164.7-6.4
		c128.1,0,252.4,11.8,366.1,35.1c76.1,15.6,120.1,1,181-19.2c16.9-5.6,34.4-11.4,54.4-17.2c47.2-13.7,89.5-21.5,125.7-23.2
		c53.2-2.5,92.7,8.3,117.4,31.9l0.3,0.3l-0.5-0.1c-21.6-4.8-43.6-7.3-65.8-7.7c-21.8-0.3-43.5,1-65,3.9
		c-43.1,5.6-86.4,16.6-128.2,27.1c-10.3,2.6-21,5.3-31.5,7.9C1885,137.7,1853.9,142,1822.7,142z M1560.8,113.8
		c49.6,0,98.8,2.7,150.6,13.5c40,8.4,73.5,14.1,107.6,14.4c32.4,0.4,64.4-3.9,106.9-14.3c10.5-2.6,21.1-5.2,31.5-7.9
		c41.8-10.6,85.1-21.5,128.3-27.1c21.5-2.9,43.3-4.2,65.1-3.9c22,0.3,44,2.9,65.4,7.7c-24.6-23.4-64-34-116.9-31.6
		c-36.1,1.7-78.4,9.5-125.6,23.2c-20,5.8-37.5,11.6-54.4,17.2c-43,14.3-77.7,25.7-121.1,25.7c-20.2-0.1-40.4-2.3-60.1-6.6
		c-161.9-33.2-345.4-43.1-530.7-28.7c-80.2,6.2-185.7,14.1-291.1,19.5c-106.4,5.4-202,7.9-292.2,7.5c-25.8-0.1-74.2-8.3-130.2-17.7
		c-77.7-13.1-174.4-29.4-255.1-31.9c-44.3-1.4-78.8,1.5-105.5,8.6c-14.7,4-27,9.3-36.5,15.9c-9.6,6.5-17.1,15.4-21.4,25.5
		c51.2,2.6,103.2,0.5,153.4-1.6c43.2-1.7,87.8-3.5,131.8-2.4c38.2,1,76.8,3.6,114.1,6.1c60.4,4,122.8,8.1,184.8,5.9
		c64.3-2.2,129.4-2.7,192.3-3.2c108.4-0.8,220.5-1.6,331.2-11.6c49.8-4.5,100.6-2.8,149.7-1.3c22.9,0.7,46.6,1.5,70,1.6
		c29,0.2,57.5-0.6,85.1-1.3C1512.5,114.5,1536.7,113.8,1560.8,113.8z"/>
	<path id="Shape_1_" d="M1801.7,199c-29.2,0-59.4-6.4-92.7-22.1c-37-17.6-76.3-30.6-117-38.8c-37.4-7.6-76.8-11.7-120.3-12.3
		c-78.9-1.3-159.6,8.8-249.4,21.1c-18.9,2.6-37.9,7.6-56.2,12.5c-24.5,6.5-49.8,13.2-75.3,14.2c-24.7,1-51.4-3.3-77.3-7.5
		c-18-2.9-36.6-5.9-54.2-7c-20.1-1.3-40.8-3-60.8-4.7c-62.4-5.1-126.8-10.5-188.7-5.3c-79.5,6.7-152.2,1.8-229.1-3.4
		c-21.4-1.4-43.4-2.9-65.9-4.2c-40.6-2.2-86.7,3.5-135.6,9.5c-72.5,9-147.6,18.3-204.1-0.2h-0.1v-0.1c-0.5-2.1,0.2-4.4,1.8-5.9
		c12.5-13.3,84.8-19,214.9-16.9c107.2,1.7,227.9,8.3,300,12.2c27.9,1.5,48.1,2.6,56.9,2.8c40.8,1.1,81.9,0.7,121.7,0.3
		c66-0.6,134.1-1.3,201.6,4.8c64.3,5.8,122.5-1.3,184.1-8.8c27.2-3.3,55.4-6.8,84.3-9c46.8-3.7,94.5-7,140.6-10.2
		c30.9-2.1,62.8-4.3,94.2-6.6c84.4-6.2,147.6,14.4,214.5,36.3c31.5,10.3,64.1,20.9,100.3,29.3c14,3.1,28.4,3.8,42.6,2.1
		c15.7-1.8,31.1-5.2,46-10c31.5-9.7,65.2-25.2,97.8-40.1c46.5-21.3,94.5-43.3,138.4-50c23.6-3.7,44-2.7,62.5,2.9
		c20.8,6.3,38.6,18.3,54.4,36.7l0.2,0.2h-0.2c-26.5,3.3-53.2,0.7-79.1-1.8c-24.9-2.4-50.6-4.9-75.9-2.1
		c-35.7,3.9-65.5,16.7-97.1,30.1c-7.9,3.4-16.1,6.9-24.4,10.2C1900.3,179.7,1852.5,199,1801.7,199z M1458.4,125.4
		c4.4,0,8.9,0,13.3,0.1c43.6,0.7,82.9,4.7,120.3,12.3c40.7,8.2,80.1,21.3,117.1,38.9c91.1,43.3,159.5,15.6,246.1-19.4
		c8.2-3.3,16.4-6.8,24.3-10.2c31.6-13.5,61.5-26.2,97.2-30.2c25.3-2.8,51.1-0.3,75.9,2.1c25.8,2.6,52.4,5.1,78.8,1.8
		c-15.7-18.2-33.4-30.2-54.2-36.4c-18.5-5.6-39-6.6-62.5-2.9c-43.8,6.8-91.9,28.7-138.3,50c-32.6,14.9-66.3,30.3-97.8,40.1
		c-14.9,4.8-30.3,8.2-46,10c-14.2,1.7-28.7,0.9-42.7-2.1c-36.3-8.4-68.9-19-100.4-29.3c-66.9-21.8-130.1-42.5-214.4-36.3
		c-31.3,2.3-63.2,4.5-94.2,6.6c-46.1,3.2-93.8,6.5-140.6,10.2c-28.9,2.3-57.1,5.7-84.3,9c-61.6,7.5-119.7,14.7-184.1,8.8
		c-67.5-6.1-135.6-5.5-201.6-4.8c-39.8,0.4-80.9,0.7-121.7-0.3c-8.8-0.2-28.9-1.3-56.9-2.8c-72-3.9-192.7-10.4-299.9-12.2
		c-130-2.1-202.2,3.5-214.7,16.7c-1.6,1.5-2.2,3.6-1.8,5.7c56.5,18.4,131.4,9.2,203.9,0.2c48.9-6,95-11.8,135.6-9.5
		c22.5,1.3,44.5,2.7,65.9,4.2c76.9,5.1,149.5,10,229.1,3.4c62-5.1,126.5,0.1,188.8,5.3c20,1.6,40.7,3.4,60.7,4.7
		c17.6,1.1,36.2,4.1,54.2,7c25.9,4.2,52.6,8.5,77.3,7.5c25.4-1,50.7-7.7,75.2-14.2c18.4-4.9,37.3-9.9,56.2-12.5
		C1307,135,1383.7,125.4,1458.4,125.4z"/>
	<path id="Shape_2_" d="M1803.4,240c-19,0.1-37.9-3.1-55.6-9.4c-29.7-10.5-55-22.7-79.5-34.5c-26.5-12.8-51.5-24.8-79.1-33.3
		c-30.3-9.4-62.3-13.3-94.3-11.6c-69.2,3.2-141,14-210.4,24.5c-22.7,3.4-46.3,6.9-69,10.1c-111.4,15.5-194.3,17.1-305.5,5.9
		c-79.5-8-152-13.7-234.3-3.2c-77.1,9.9-144.4,0.3-215.7-9.9c-32.6-4.7-66.3-9.5-101.5-12.4c-28.8-2.4-65.9,2.5-105.1,7.6
		c-32.7,4.3-66.6,8.7-97.6,9.1c-35.1,0.5-61.3-4.5-80.3-15.1l-0.4-0.2h0.5c45.8,0,91.2-4.2,135.1-8.3c64.8-6,131.9-12.2,200.2-4.7
		c103.6,11.4,181.7,16.4,274,8c45.6-4.2,96.6-6.4,147.3-6.4h0.7c50.4,0,101,2.2,146.3,6.3c94.8,8.6,172.4,4.7,271.8-1.7
		c30.2-1.9,60.9-5.3,93.4-8.9c70.4-7.7,143.2-15.7,210-8c47.2,5.5,89.3,24.3,130.1,42.6c37.7,16.9,76.7,34.4,119,40.7
		c12,1.8,24.9,1.3,39.6-1.5c14.9-3.1,29.4-7.6,43.4-13.3c29.9-12,62.3-29.6,93.7-46.7c98.7-53.8,200.8-109.3,265.3-18.4l0.6,0.9
		l-0.8-0.7c-18.9-15.9-38.7-25.9-60.4-30.4c-19.4-4-40-3.6-63,1.3c-42.8,9.1-86.1,32-132,56.3C1928.8,206.9,1866.3,240,1803.4,240z
		 M1509.5,150.5c27.1-0.1,54.1,4,79.8,12c27.6,8.5,52.7,20.5,79.2,33.3c24.5,11.8,49.8,24,79.4,34.5
		c81.4,28.9,162.9-14.2,241.6-55.8c45.9-24.3,89.3-47.2,132.1-56.3c23-4.9,43.6-5.3,63.1-1.3c21.5,4.5,41,14.2,59.8,29.8
		c-64.4-89.5-166-34.2-264.3,19.3c-31.4,17.1-63.8,34.8-93.7,46.7c-13.9,5.8-28.5,10.2-43.4,13.3c-14.7,2.8-27.7,3.4-39.7,1.5
		c-42.4-6.4-81.4-23.9-119.1-40.8c-40.8-18.3-82.9-37.2-130-42.6c-66.8-7.7-139.5,0.3-209.9,8c-32.5,3.6-63.2,6.9-93.4,8.9
		c-99.3,6.4-177,10.3-271.8,1.7c-45.3-4.1-95.9-6.3-146.3-6.3h-0.7c-50.7,0-101.7,2.2-147.3,6.4c-92.3,8.4-170.4,3.5-274-8
		c-68.3-7.6-135.4-1.3-200.2,4.7c-43.7,4.1-89,8.3-134.6,8.3c18.9,10.4,45,15.3,79.7,14.8c30.9-0.4,64.8-4.8,97.5-9.1
		c39.3-5.2,76.3-10,105.2-7.6c35.3,3,69,7.7,101.6,12.4c71.2,10.2,138.5,19.8,215.6,9.9c82.3-10.6,154.8-4.8,234.4,3.1
		c111.3,11.2,194.1,9.6,305.5-5.9c22.8-3.2,46.4-6.7,69-10.1c69.4-10.4,141.3-21.2,210.4-24.5
		C1499.9,150.6,1504.7,150.5,1509.5,150.5z"/>
	<path id="Shape_3_" d="M1809.7,294c-3.5,0-7.1-0.2-10.6-0.7c-21.6-3-42.9-10.6-65.1-23.4c-19.8-11.4-38.7-25.8-56.9-39.7
		c-34.6-26.4-70.3-53.7-116.2-63.8c-37.1-8.2-80.5-8.2-132.4-0.1c-7.4,1.6-14.9,3.2-22.3,4.8c-20.2,4.4-39.7,8.7-58.7,12.1
		c-19.3,4.8-38.4,10-57.3,15.1c-14.4,3.9-28,7.6-41.3,11c-49.8,12.8-103.7,19.9-164.8,21.5c-54.5,1.5-109.8-1.4-163.2-4.1
		c-84.6-4.4-172.1-8.9-260.6,3.3c-39.2,5.6-79.1,6.6-118.7,3c-35.2-3.4-72-10.7-115.8-23.1c-80.6-22.8-151-19.4-225.5-15.8
		c-38.9,1.9-79.1,3.9-122.3,2H77l1.1-0.2c62.4-11.5,117.7-18.3,169.1-21.1c61.4-3.3,117.1-0.9,170.2,7.4
		c21.9,3.5,43.5,8.5,64.4,13.3c34.6,8.1,70.4,16.4,107.7,17.4c34.2,0.9,67.9-5,100.4-10.7c24.6-4.3,50-8.8,75.5-10.3
		c54.8-3.2,111,2.7,165.5,8.4c31,3.3,63.2,6.6,94.6,8.3c67.9,3.5,135.3-4.1,200.5-11.6c25.7-2.9,52.3-5.9,78.7-8.3
		c13.9-1.3,28.1-3.3,42.8-5.9c25.9-6.5,52.3-12.4,78.8-16.6l2.2-0.3c63.6-13.6,128-24.5,184.3-6.8c31.7,9.9,59.6,27.9,86.5,45.1
		c20.1,12.8,40.9,26.3,63.1,36.1c24.8,11.1,48.8,16.5,73.4,16.6h0.3c37.4,0,91.1-32.2,147.9-66.3c37.7-22.6,76.8-46.1,113.6-61.7
		c19.9-8.4,37.2-13.8,53-16.3c17.8-2.9,33.2-2.2,46.8,2.1c12.6,4.1,23.7,11.2,32.2,20.6c9.7,10.4,17.9,24.5,24.3,41.8l-0.3,0.1
		c-8-14.7-17.4-26.6-27.8-35.2c-9.4-7.9-20.8-13.5-33.2-16.4c-58.9-13.4-136,37.3-210.6,86.3c-34.7,22.8-67.5,44.3-98.6,59.9
		c-16.7,8.4-31.4,14.2-44.7,17.8C1829.4,292.4,1819.6,293.8,1809.7,294z M1500.1,160c20.5-0.2,41,1.9,61,6.2
		c45.8,10.1,81.5,37.4,116.1,63.8c18.3,13.9,37,28.3,56.9,39.7c22.2,12.7,43.4,20.4,65,23.3c11.8,1.6,24.7,0.4,39.6-3.6
		c13.3-3.6,27.9-9.4,44.6-17.8c31.1-15.6,63.9-37.1,98.5-59.9c74.7-49,151.9-99.8,210.8-86.4c12.4,2.9,23.9,8.5,33.3,16.5
		c10.1,8.3,19.1,19.6,27,33.6c-6.3-16.4-14.2-29.9-23.5-39.9c-8.5-9.4-19.6-16.5-32.1-20.6c-13.6-4.3-28.9-5-46.7-2.1
		c-15.8,2.6-33.1,7.9-53,16.3c-36.8,15.6-75.8,39-113.6,61.7c-56.8,34.1-110.5,66.3-148,66.3h-0.3c-24.6-0.1-48.6-5.6-73.5-16.6
		c-22.2-9.9-43-23.2-63.1-36.2c-26.9-17.3-54.8-35.1-86.5-45.1c-55-17.3-117.8-7.2-179.9,5.9C1455,162,1477.5,160.2,1500.1,160
		L1500.1,160z M280.9,191.4c46.7,0,93.9,3.9,145.3,18.4c43.7,12.4,80.5,19.7,115.7,23.1c39.5,3.7,79.4,2.7,118.6-3
		c88.5-12.2,176-7.7,260.6-3.3c53.4,2.7,108.7,5.6,163.2,4.1c61.1-1.7,114.9-8.7,164.7-21.5c13.3-3.4,26.9-7.1,41.3-11
		c17.7-4.8,35.7-9.7,53.8-14.2c-13.4,2.3-26.5,4.2-39.3,5.3c-26.4,2.3-53,5.3-78.7,8.3c-65.2,7.4-132.7,15.1-200.6,11.6
		c-31.4-1.6-63.5-5-94.6-8.3c-54.4-5.8-110.6-11.7-165.4-8.5c-25.5,1.5-50.9,5.9-75.5,10.3c-32.6,5.7-66.3,11.6-100.5,10.7
		c-37.3-1-73.1-9.3-107.7-17.4c-20.9-4.9-42.4-9.9-64.3-13.3c-53.1-8.4-108.8-10.8-170.1-7.5c-51.1,2.8-106.1,9.6-168,20.9
		c42.7,1.7,82.5-0.2,121.1-2.1C227.5,192.6,254.1,191.4,280.9,191.4z M1423.8,167.1c-24.3,4-48.5,9.3-72.3,15.2
		c17.7-3.3,35.9-7.3,54.7-11.4L1423.8,167.1z"/>
	<path id="Shape_4_" d="M1804.4,323c-10.8,0-21.5-1.1-32.1-3.2c-50.6-10.1-86.9-42.9-122-74.5c-16.6-15-32.2-29.1-49.3-41.1
		c-19.4-13.6-37.2-21.9-55.9-26.1c-26.7-6.1-59.3-3.6-99.5,7.7c-35.5,9.9-71.9,25-107,39.6c-33.1,13.8-64.4,26.8-91.5,33.9
		c-48.2,12.7-104.3,20.5-162.3,22.6c-57.7,2.1-114.3-1.7-163.7-10.8c-19.4-3.6-38.7-10.5-57.4-17.2c-23.6-8.4-48-17.2-72.4-19.1
		c-28.6-2.2-59,6.6-88.5,15c-11.5,3.3-22.3,6.5-32.9,8.9c-56.7,13.1-103.1,15-150.4,6.2c-43.9-8.2-84.8-24.6-136.5-45.5l-14.7-5.9
		c-48.6-19.5-98.8-6.5-147.3,6.2c-25.3,6.6-49.1,12.8-72.5,14.6c-11.5,1-23,0.6-34.4-1.2c-11.6-1.9-22.6-5.7-32.7-11.2l-0.3-0.2
		l0.4-0.1c60.7-12.7,115.5-23.5,171.2-27.9c28.4-2.4,57-2.7,85.5-0.8c29.2,2,58.2,6.7,86.3,14.3c50.2,13.5,88.9,23.4,129.3,28.4
		c44.3,5.5,87,4.1,134.3-4.2c41.6-7.4,87.3-11,139.5-11.1c46.7-0.1,94.3,2.6,140.4,5.1c46.6,2.6,94.7,5.2,142.2,5.1
		c53.3-0.1,100-3.9,142.8-11.4c25-4.4,52.3-10.8,81.2-17.6c33.9-8,69-16.2,103.3-21.9c38.9-6.4,70.8-8.3,97.7-5.8
		c20.7,1.9,41.9,8.1,64.9,18.9c20.5,9.6,40.6,22.1,60.1,34.1c40.1,24.8,81.5,50.3,131.4,55.7c18.2,2.1,36.5,1.5,54.5-1.6
		c16.4-2.9,32.3-7.9,47.2-14.7c29.6-13.2,55.7-32.1,83.4-52.1c23.4-16.9,47.5-34.3,74.3-48.3c27.3-14.3,56.7-24.9,82.7-30
		c13.6-2.8,27.5-4,41.5-3.5c13.8,0.7,26.1,3.5,36.5,8.4c24.7,11.6,39.2,34.7,43.2,68.6l0.1,1.1l-0.4-1c-11.9-30.2-31.2-49.4-57.4-57
		c-22.8-6.6-50.9-4.5-83.2,6.3c-31.6,10.5-60.6,27.2-79.4,39.2c-19.3,12.5-37.9,27.1-57.7,42.5C1924.7,280.9,1871,323,1804.4,323z
		 M1514.5,174.5c10.3-0.1,20.6,1,30.6,3.2c18.8,4.3,36.6,12.6,56,26.2c17.1,12,32.8,26.1,49.4,41.1c35.1,31.7,71.3,64.4,121.8,74.5
		c81.8,16.3,144.1-32.5,204.4-79.6c19.7-15.5,38.4-30,57.7-42.5c18.8-12.1,47.8-28.7,79.5-39.3c32.3-10.8,60.4-12.9,83.3-6.2
		c26,7.5,45.2,26.4,57.2,56.2c-4.2-33.3-18.6-55.9-43-67.3c-11.4-5.1-23.8-7.9-36.4-8.4c-13.9-0.5-27.8,0.7-41.4,3.5
		c-26,5.2-55.4,15.8-82.7,30c-26.8,14-50.9,31.5-74.3,48.3c-27.6,20-53.7,38.8-83.4,52.1c-15,6.8-30.9,11.8-47.3,14.8
		c-18,3.1-36.4,3.7-54.6,1.6c-50-5.3-91.4-31-131.6-55.7c-19.5-12-39.6-24.5-60.1-34.1c-22.9-10.8-44.1-17-64.8-18.9
		c-26.8-2.5-58.7-0.6-97.6,5.8c-34.2,5.6-69.4,13.9-103.3,21.8c-28.9,6.8-56.2,13.2-81.2,17.6c-95.4,16.8-191.8,11.4-285,6.3
		c-46.1-2.6-93.7-5.2-140.3-5.1c-52.3,0.1-97.9,3.8-139.5,11.1c-47.4,8.4-90.1,9.7-134.4,4.2c-40.5-5-79.2-15-129.4-28.4
		c-28.1-7.6-57.1-12.4-86.3-14.3c-28.5-1.9-57-1.6-85.4,0.8c-55.5,4.4-110.2,15.2-170.8,27.9c10,5.4,20.9,9.2,32.3,11
		c11.3,1.8,22.9,2.2,34.3,1.2c23.4-1.8,47.2-8,72.4-14.6c48.6-12.6,98.9-25.7,147.5-6.2l14.7,5.9c51.7,20.8,92.6,37.3,136.4,45.5
		c47.3,8.8,93.6,6.9,150.3-6.1c10.5-2.4,21.4-5.6,32.9-8.9c29.5-8.5,60-17.3,88.7-15.1c24.4,1.9,48.8,10.6,72.4,19.1
		c18.7,6.7,38,13.6,57.4,17.2c49.3,9.1,105.9,12.9,163.7,10.8c58-2.1,114.1-9.9,162.3-22.6c27-7.1,58.3-20.1,91.4-33.9
		c35.1-14.6,71.5-29.7,106.9-39.7C1471.5,178.2,1494.4,174.5,1514.5,174.5z"/>
	<path id="Shape_5_" d="M1787.7,347h-1c-29.2-0.5-57-8-84.9-22.7c-24.9-13.1-47.6-30.7-69.5-47.7c-32.8-25.4-66.6-51.6-108.2-63
		c-26.3-7.3-59.3-5.8-100.7,4.4c-36.3,8.9-73.1,22.9-108.5,36.4c-24.3,9.2-47.2,18-67.3,23.9c-97.7,29.1-237.3,32.8-339.5,9
		c-16.5-3.9-31.4-7.7-45.8-11.5c-31.1-8.1-58-15.1-86.5-17.8c-31.1-2.9-61.4-0.3-95.5,8.3c-13,3.3-25.9,7.1-38.3,10.8
		c-39.7,11.8-77.3,22.9-120.1,19c-31.9-2.9-60.7-14.5-88.7-25.8c-17.8-7.2-36.3-14.6-55.5-19.8c-25.5-7-51.5-12.1-77.9-15.3
		c-26.4-3.1-53.1-3.4-79.5-0.9c-11.6,1.2-25.5,5.4-40.2,9.9c-32.8,10-69.9,21.3-93.6,1.8l-0.2-0.1l0.2-0.1
		c58-20.1,110.9-29.4,161.6-28.4c53.4,1.1,104.7,13.6,156.6,38.3c24.6,11.6,48,19.5,71.6,24.1c21.9,4.2,44.4,5.6,66.8,4.1
		c45.3-2.8,91.7-16,140.8-30c72.8-20.7,123-9.3,181,4.1c27.4,6.3,55.8,12.8,89.5,16.8c53.3,6.3,110.2,12,165.6,11
		c61.5-1.1,114.2-10.2,161.1-27.9c17-6.4,34.2-13.7,50.9-20.7c38.3-16.2,77.9-33,118-40.7c19.9-4.1,40.4-5.4,60.8-3.9
		c21.8,1.7,43,7.2,62.7,16c28.1,12.4,54.6,31.6,80.3,50.3c25.6,18.6,51.9,37.6,80,50.4c14,6.5,28.9,11.1,44.2,13.8
		c16.3,2.7,32.9,2.7,49.2,0c30.4-4.9,80-36.2,132.6-69.4c44.6-28.1,90.7-57.1,134-76.8c49.6-22.5,86.3-28.2,112.2-17.3
		c12.3,5.2,22.5,14.3,30,27.1c8.1,13.6,13.5,32,16.2,54.4h-0.3c-4.2-19.8-10.6-36.1-19.2-48.1c-8.1-11.3-18.3-19.3-30.4-23.9
		c-14.1-5.3-31.1-6-50.9-2.3c-17.8,3.3-37.7,10.2-61,20.9c-43,19.8-89.6,49.3-134.7,77.9C1889.2,307.3,1826.6,347,1787.7,347z
		 M1487.6,208.8c12.4-0.1,24.7,1.4,36.5,4.5c41.6,11.5,75.5,37.7,108.3,63.1c21.9,17,44.6,34.5,69.5,47.6
		c27.9,14.7,55.7,22.1,84.8,22.7h1c38.8,0,101.3-39.7,167.6-81.6c45.1-28.6,91.7-58.1,134.7-77.9c23.3-10.7,43.3-17.5,61.1-20.9
		c19.8-3.7,37-3,51.1,2.3c12.2,4.6,22.5,12.6,30.6,24s14.4,26.6,18.6,45.1c-2.8-21-8.1-38.2-15.7-51.2c-7.5-12.8-17.6-21.8-29.9-27
		c-25.9-10.9-62.5-5.2-112,17.3c-43.4,19.7-89.4,48.7-134,76.8c-27,17-52.4,33-75.1,45.5c-25.4,14-43.8,21.6-57.6,23.9
		c-16.3,2.7-33,2.7-49.3,0c-15.4-2.6-30.3-7.3-44.3-13.8c-28.2-12.7-54.5-31.9-80-50.4c-25.5-18.5-52.1-37.9-80.2-50.3
		c-19.6-8.8-40.8-14.2-62.6-15.9c-20.3-1.5-40.8-0.2-60.7,3.9c-40,7.7-79.6,24.5-117.9,40.7c-16.7,7.1-34,14.4-51,20.8
		c-47,17.7-99.7,26.8-161.2,27.9c-55.4,1-112.4-4.7-165.6-11c-33.7-4-62.1-10.5-89.6-16.8c-58-13.3-108.1-24.8-180.9-4.1
		c-49.1,14-95.6,27.2-140.9,30c-22.4,1.5-44.9,0.1-66.9-4.1c-23.6-4.5-47-12.4-71.7-24.1c-51.9-24.6-103.1-37.1-156.5-38.2
		c-50.6-1.1-103.4,8.2-161.4,28.2c23.5,19.2,60.5,8,93.1-2c14.7-4.5,28.6-8.7,40.2-9.9c26.5-2.5,53.2-2.2,79.6,0.9
		c26.4,3.2,52.5,8.3,77.9,15.3c19.3,5.2,37.7,12.7,55.6,19.8c27.9,11.2,56.8,22.8,88.5,25.8c42.8,3.9,80.3-7.2,120-18.9
		c12.5-3.7,25.3-7.5,38.3-10.8c34.1-8.6,64.5-11.3,95.6-8.3c28.5,2.7,55.4,9.7,86.6,17.8c14.4,3.8,29.4,7.6,45.8,11.5
		c102.2,23.8,241.7,20.1,339.4-9c20.1-6,43-14.7,67.3-23.9c33.9-12.9,72.3-27.5,108.6-36.4C1447.4,211.8,1468.7,208.8,1487.6,208.8z
		"/>
	<path id="Shape_6_" d="M1788.2,373c-9.3,0-18.5-0.8-27.7-2.2c-25-3.9-50.6-12.3-76-25c-23.7-12.1-45.7-26.6-65.7-43.4
		c-10.7-8.9-20.6-20.1-30.1-31c-9.5-10.8-19-21.7-29.8-30.8c-19.8-9.7-38.3-15.5-56.6-17.9c-15.7-1.8-31.5-1.6-47.1,0.7
		c-34.7,9-71.9,27-108.4,44.5c-40,19.4-77.8,37.5-111.3,44c-89.6,17.2-187.7,17.1-269.1-0.4l-18.9-4.1
		c-46.6-10.1-90.7-19.7-136-24.5c-22.6-2.5-45.5-3.4-68.3-2.8c-23.4,0.7-46.6,3.5-69.4,8.4c-21.6,4.6-44.1,11-67.9,17.7
		c-42.8,12-87.1,24.5-130.7,28.4c-23.5,2.2-44.6,1.7-64.1-1.6c-21.4-3.5-41.8-10.8-60-21.5c-15.6-9.2-27.6-20.1-39.2-30.7
		c-11.6-10.5-22.5-20.5-35.9-27.6c-15-8-31.2-11.4-50.8-10.6c-15.1,0.6-33.1,8.3-52.1,16.5c-30.5,13.1-62,26.6-84,11.4l-0.2-0.1
		l0.2-0.1c56.2-19.6,102.6-32.7,146.3-32.8c22.2-0.1,44.3,3.3,65.3,10c22.2,7.1,44.9,17.9,69.3,33.3c19.9,12.7,42.1,22,65.6,27.5
		c21.9,4.9,44.5,6.8,67,5.6c45.1-1.9,91.8-13.8,137.1-25.3c16.9-4.3,34.3-8.7,51.5-12.6c67.8-15.3,128.4-5.7,192.7,4.5
		c16.6,2.6,33.8,5.4,51.4,7.7c49.1,6.5,98.7,9.5,148.3,9.1c50.1-0.4,100.1-4.2,149.5-11.4c33.7-4.9,71.2-17.9,107.4-30.6
		c38.4-13.4,77.8-27.1,114.7-32.1c22.2-5.8,43.4-7.9,62.8-4c16,3.3,29.3,11.2,41.1,21.2c2.7,1.3,5.5,2.7,8.2,4.2
		c20.5,10.9,40.6,24.8,60,38.3c43.3,30,88.2,61.1,144.6,65.7c74.9,6.1,136.2-36.5,195.3-77.8c27.5-19.2,56-39,84.9-52.9
		c20.9-10.2,52.9-23.5,86.1-29.7c32.1-5.9,57.5-3.5,75.5,7.1c22.7,13.2,33.1,39.1,31.2,77v0.8l-0.2-0.7c-6.5-20.2-15.4-36.7-26.4-49
		c-9.5-11-22.2-19.3-36.5-24c-22.8-7.3-50.7-5.6-83,5.1c-26.7,8.8-56.7,23.8-89,44.6c-21.8,14-42.2,30.7-61.7,46.8
		c-27.6,22.7-53.6,44.1-83.6,58.9c-15,7.6-31.2,13-48,16C1807,372.2,1797.6,373,1788.2,373L1788.2,373z M1559.9,241.1
		c10.5,9,19.8,19.7,29,30.2c9.5,10.8,19.3,22,30,31c20,16.8,42,31.3,65.7,43.4c25.4,12.8,50.9,21.2,75.9,25
		c18.4,3,37.3,2.9,55.7-0.2c16.7-3,32.8-8.4,47.8-16c29.9-14.8,56-36.1,83.6-58.8c19.7-16.1,39.9-32.8,61.7-46.8
		c32.3-20.8,62.3-35.8,89.1-44.7c32.4-10.7,60.4-12.4,83.2-5.1c14.5,4.7,27.2,13.1,36.8,24.1c10.9,12.2,19.7,28.4,26.2,48.3
		c1.8-37.3-8.7-62.9-31.1-76c-18-10.5-43.4-12.9-75.3-7c-33.2,6.1-65.1,19.4-86,29.6c-28.9,14-57.3,33.8-84.8,52.9
		c-55.4,38.6-112.6,78.4-181.2,78.4c-4.7,0-9.5-0.2-14.4-0.6c-56.5-4.6-101.3-35.7-144.7-65.7c-19.4-13.4-39.5-27.4-59.9-38.3
		C1564.7,243.5,1562.4,242.2,1559.9,241.1z M230.7,242.2c17.3,0,31.9,3.5,45.6,10.7c13.5,7.2,24.4,17.1,36,27.7
		c11.6,10.5,23.5,21.4,39.1,30.6c18.2,10.7,38.6,18,59.9,21.5c19.5,3.3,40.5,3.9,64.1,1.7c43.6-3.9,87.8-16.4,130.6-28.4
		c23.9-6.7,46.4-13,67.9-17.7c22.8-4.9,46.1-7.7,69.5-8.4c22.8-0.6,45.6,0.3,68.2,2.8c45.3,4.8,89.4,14.3,136,24.5
		c6.3,1.4,12.6,2.7,18.9,4.1c81.3,17.5,179.4,17.6,269,0.4c33.5-6.5,71.3-24.7,111.3-43.9c35.7-17.2,72.2-34.8,106.4-44
		c-36.3,5.2-74.9,18.7-112.5,31.8c-36.2,12.6-73.7,25.7-107.4,30.6c-49.5,7.1-99.5,10.9-149.6,11.2c-49.6,0.4-99.2-2.6-148.4-9
		c-17.6-2.3-34.8-5.1-51.5-7.7c-64.2-10.2-124.8-19.8-192.5-4.5c-17.2,3.9-34.6,8.3-51.5,12.6c-45.2,11.5-92,23.4-137.1,25.3
		c-22.5,1.2-45.1-0.7-67.1-5.7c-23.5-5.5-45.8-14.8-65.7-27.5c-24.4-15.4-47-26.2-69.2-33.3c-20.9-6.7-43-10.1-65.2-10
		c-43.6,0.1-89.9,13.2-146,32.7c21.9,14.9,53.2,1.4,83.5-11.5c19.1-8.2,37.1-15.9,52.2-16.5C227.2,242.2,228.9,242.2,230.7,242.2z
		 M1482.8,221.2c6.6,0,13.2,0.4,19.7,1.3c18,2.3,36.3,8.1,55.7,17.5c-11.6-9.7-24.5-17.3-40.2-20.5c-18.7-3.8-39.2-1.9-60.6,3.4
		C1465.9,221.9,1474.4,221.3,1482.8,221.2L1482.8,221.2z"/>
	<path id="Shape_7_" d="M1817.2,392c-7.2,0-14.4-0.4-21.6-1c-20.2-2-40-6-59.3-12c-39.3-11.7-78.2-29.8-115.9-47.4
		c-40.1-18.6-77.9-36.3-114.9-46.1c-25.2-6.7-52-7.4-82.1-2.1c-26.9,4.7-54,13.6-80.2,22.3c-31.1,10.3-63.3,20.9-96.3,24.9
		c-28.5,3.5-57.1-0.3-84.6-3.9c-12.2-1.6-24.7-3.3-37.2-4.3l-13.7-0.4c-9.6-0.3-19.2,0-28.8,0.5c-0.9,0.1-1.8,0.2-2.6,0.3
		c-17.8,2.2-29.8,4.4-38.5,6c-17.7,3.3-24.6,4.5-45.8,0.4c-14.8,0.6-29.6,0.1-44.3-1.8c-32.2-4.3-61.6-11.7-90.1-18.8
		c-40.5-10.2-79.4-19.9-122.8-19.9l0,0c-9.6,0.6-19.1,1.7-28.6,3.3c-42.7,7.2-83.6,21.4-123.2,35.2c-30.8,10.7-62.6,21.7-94.7,29.3
		c-36.1,8.5-68.9,11.6-100.4,9.5c-42.9-2.8-70.2-16.5-101.8-32.4c-9.9-5-20.2-10.1-31.5-15.3c-44.5-20.1-81.8-19.5-124.9-18.8
		c-13.9,0.2-28.2,0.5-43.7,0H89l3.3-1.5c49.5-22,111.1-49.4,167.3-30.9c22,7.3,37.8,21.9,53.1,36c11.5,10.6,23.3,21.6,37.9,29.6
		c78.2,42.6,161.1,14.7,241.2-12.3c30-10.1,58.4-19.7,86.4-25.7c19.7-4.3,40-6.4,60.2-6.4c70.1-4.6,146.4,14,214.7,30.7l15,3.7
		c11.5,2.8,20.3,4.8,27.5,6.2c15.9-0.6,31.8-2.1,47.4-3.5c13-1.3,26.2-2.5,39.5-3.2c14.2-1.4,28.4-1.4,42.6-0.1
		c55.6,1.5,98.1,1,149.6-9.4c26.5-5.3,52.9-14.5,78.4-23.3c28.2-9.8,57.3-19.8,85.9-24.5c14.1-2.4,28.6-3.3,42.9-2.5
		c14.9,0.9,29.5,4,43.3,9.2c29.9,11.2,58.3,25.2,85.7,38.8c29.3,14.5,59.7,29.4,91.1,40.5c35.1,12.4,68.4,18.7,101.5,19.3h3.8
		c70.4,0,110.4-32.5,152.8-66.8c26.1-21.1,53-43,88.3-58.2c24.8-10.7,58.7-18.9,88.5-21.3c25.6-2.1,60.7-1.2,82,15.2
		c17.8,13.7,22.5,35.6,13.6,65l-0.1,0.3l-0.2-0.3c-9.1-16.7-20.5-30.6-33.9-41.3c-12.7-10.2-27.7-17.7-44-22.1
		c-31.1-8.4-67.8-5.8-106,7.6s-66.4,42.7-93.5,71.1c-15.2,15.9-29.5,30.8-45.6,43.3c-18.2,14.1-35.3,22.3-53.8,25.9
		C1842.9,390.8,1830.1,392,1817.2,392L1817.2,392z M1461.6,279.8c14.9-0.1,29.7,1.8,44,5.6c37.1,9.8,74.9,27.4,115,46.1
		c37.6,17.5,76.6,35.6,115.8,47.3c19.2,5.9,39.1,9.9,59.2,12c19.9,2,40.1,1.1,59.7-2.6c18.5-3.5,35.6-11.7,53.7-25.8
		c16-12.4,30.3-27.4,45.5-43.3c27.1-28.4,55.2-57.7,93.6-71.1c38.4-13.4,75.1-16,106.2-7.6c16.3,4.4,31.3,11.9,44.1,22.1
		c13.4,10.7,24.8,24.5,33.8,41.1c8.7-29.2,4.1-50.8-13.6-64.4c-21.2-16.3-56.2-17.2-81.8-15.1c-29.7,2.4-63.6,10.6-88.4,21.3
		c-35.3,15.2-62.2,37.1-88.3,58.2c-42.4,34.4-82.5,66.8-153,66.9h-3.8c-33.2-0.5-66.4-6.9-101.6-19.3
		c-31.5-11.1-61.8-26.1-91.1-40.6c-27.5-13.5-55.8-27.5-85.7-38.7c-13.7-5.2-28.3-8.3-43.1-9.2c-14.4-0.8-28.8,0-42.9,2.5
		c-28.6,4.7-57.7,14.7-85.8,24.4c-25.6,8.8-52,18-78.5,23.3c-50.3,10.2-91.9,10.9-145.4,9.5c11.1,1,22.1,2.5,33,3.9
		c27.6,3.7,56.1,7.5,84.6,3.9c32.9-4.1,65.1-14.7,96.2-24.9c26.2-8.7,53.4-17.6,80.3-22.3C1436,281,1448.8,279.8,1461.6,279.8z
		 M156.7,299.1c33.7,0,65.2,2.6,101.6,19c11.4,5.1,21.6,10.3,31.5,15.3c31.6,15.9,59,29.6,101.7,32.4c31.5,2,64.3-1.1,100.3-9.5
		c32.2-7.6,64-18.6,94.7-29.3c39.6-13.8,80.5-28,123.2-35.2c8.1-1.4,16.3-2.4,24.7-3c-18.9,0.3-37.8,2.4-56.2,6.4
		c-28.1,6-56.4,15.6-86.4,25.7c-50.3,17-101.7,34.3-152.4,34.3c-30.1,0-59.9-6.1-89.1-22c-14.5-7.9-26.4-18.9-37.9-29.6
		c-15.2-14.1-31-28.7-53-36c-56.2-18.5-117.7,8.9-167.2,30.8l-2.2,1c15.2,0.4,29.4,0.2,43.1-0.1C141.2,299.3,149,299.1,156.7,299.1z
		 M996.8,329.3c20.3,3.9,27.2,2.6,44.6-0.6c8.5-1.6,20-3.7,37-5.9c-11.9,0.7-23.7,1.9-35.3,3C1027.9,327.2,1012.4,328.7,996.8,329.3
		L996.8,329.3z M742.3,288.5c41.9,0.6,79.7,10.1,119,19.9c28.4,7.1,57.8,14.5,90,18.8c14.3,1.8,28.8,2.4,43.2,1.9
		c-7-1.4-15.6-3.4-26.5-6l-15-3.7C886.1,303.1,811.3,284.9,742.3,288.5L742.3,288.5z M1102.9,321.7c2.8,0,5.7,0,8.5,0.1l8,0.2
		c-10.3-0.7-20.6-0.7-30.9,0C1093.3,321.8,1098.1,321.7,1102.9,321.7L1102.9,321.7z"/>
	<path id="Shape_8_" d="M1849.4,412c-17,0-35.1-2-55.2-4.2l-6.9-0.7c-61.4-6.6-120.1-25.7-176.8-44.1
		c-51.3-16.7-104.4-33.9-158.7-41.6c-22.4-3.2-46.8-2.8-74.8,1.1c-24.9,3.5-50.4,9.5-74.9,15.2c-39.7,9.3-80.8,18.9-121.6,18.7
		c-10.3,0-20.4-0.5-30.1-0.9c-34.7-1.4-67.4-2.8-102.3,12.8c-11.5,5.2-22.6,11.2-33.2,17.9c-9.8,6.1-17,10.5-27,11.7
		c-10.2,1.3-23.2-0.7-44.8-6.9c-28.6-8.1-55.3-19.5-81.1-30.5c-22.8-9.7-46.4-19.8-70.6-27.2c-27.1-8.3-52.4-12.6-77.4-12.9
		c-30.8-0.5-63.2,4-99.1,13.7c-4.3,1.1-8.6,2.4-12.9,3.6c-11.7,4.3-23.3,8.8-34.7,13.3c-30.3,11.8-61.5,23.9-92.6,31.6
		c-37.9,13.1-76.8,24.2-117.2,27.6c-50.4,4.2-90.2-21.2-128.7-45.7c-44-28.1-85.7-54.6-138.9-34.5l-1,0.4l0.9-0.6
		c17.4-11.9,34.5-19.5,52.2-23c16.1-3.2,32.7-3.1,48.7,0.2c31.6,6.2,62.3,23.1,92,39.4c26,14.3,52.8,29.1,80.6,37.1
		c16.7,4.8,34.1,7.1,51.5,6.9c17.2-0.2,34.4-2.2,51.1-6c2.9-0.6,5.8-1.3,8.7-2c15.5-5.3,30.7-11,45.8-16.6
		c26.6-9.9,53.9-20.1,81.5-28.2c30.6-11.3,61.6-20.9,92.1-24.2c70.7-7.6,140,7.1,207,21.4c27.6,5.9,56.2,12,84.3,16.3
		c29,4.5,56.8,1.7,86.2-1.2c21.2-2.1,43.1-4.3,65.6-3.5c49.6,1.6,88.7,2.8,138.2-9c20.2-4.8,38.8-10.6,56.7-16.2
		c51.6-16.1,96.2-30.1,153.8-13.5c30.6,8.8,60.9,18.9,90.2,28.6c41.6,13.9,84.7,28.2,128.1,38.5c48.5,11.5,92.7,16.8,135.3,16.2
		c28.1-0.4,51.3-5.8,72.9-16.9c19.2-9.9,34.7-23,51.1-36.8c3.6-3,7.2-6.1,10.9-9.1c13.6-19.2,29.4-36.8,61.1-48.9
		c28.7-10.9,57.6-13.8,84.6-8.6c3.3-0.3,6.7-0.5,10-0.7c19.3-1,36.2-0.3,50.3,2.2c16.3,2.9,28.4,8,35.8,15.2
		c12,11.7,11.9,28.8-0.3,50.8l-0.1,0.2l-0.1-0.2c-19.5-30.2-46.1-51.7-77.1-62.4c-6-2.1-12.2-3.7-18.5-4.9
		c-32.3,2.6-63.1,9.5-78.2,15.5c-28.3,11.3-48.7,26.4-67.3,41.9c-2.7,3.8-5.3,7.6-7.9,11.4c-9.1,13.5-18.5,27.4-32.7,41
		c-18.3,17.6-38.6,27.2-63.7,30.3C1863.3,411.6,1856.3,412,1849.4,412L1849.4,412z M1420.5,319c10.5,0,21,0.7,31.4,2.1
		c54.3,7.7,107.4,24.9,158.7,41.6c56.7,18.4,115.4,37.5,176.8,44.1l6.9,0.7c28.5,3.1,53.1,5.8,76,3c25.1-3.1,45.3-12.7,63.6-30.2
		c14.1-13.5,23.5-27.5,32.6-40.9c2.4-3.6,4.8-7.1,7.3-10.6c-3.4,2.8-6.8,5.7-10.1,8.5c-16.4,13.9-31.9,27-51.1,36.9
		c-21.7,11.1-44.9,16.5-73,16.9c-42.6,0.6-86.9-4.7-135.4-16.2c-43.4-10.3-86.4-24.6-128.1-38.5c-29.3-9.7-59.6-19.8-90.2-28.6
		c-57.6-16.5-102-2.6-153.6,13.5c-18,5.6-36.5,11.4-56.7,16.3c-49.5,11.9-88.7,10.6-138.3,9c-22.6-0.7-44.5,1.4-65.6,3.5
		c-29.5,2.9-57.3,5.7-86.3,1.2c-28.1-4.3-56.6-10.4-84.3-16.3c-67-14.2-136.2-29-206.8-21.4c-29.3,3.1-59,12.2-88.4,22.9
		c3-0.9,6.1-1.7,9.2-2.6c35.9-9.6,68.4-14.1,99.2-13.7c25.1,0.4,50.4,4.6,77.5,12.9c24.2,7.5,47.8,17.5,70.6,27.2
		c25.8,11,52.5,22.4,81.1,30.5c21.5,6.1,34.5,8.1,44.6,6.9c9.9-1.2,17-5.6,26.9-11.7c10.6-6.8,21.7-12.8,33.2-18
		c35-15.6,67.7-14.2,102.4-12.8c9.7,0.4,19.8,0.8,30.1,0.9h1.5c40.3,0,80.8-9.5,120-18.7c24.6-5.8,50-11.7,74.9-15.2
		C1391.3,320.1,1405.9,319.1,1420.5,319z M127.3,322.7c36.6,0,68.5,20.4,101.9,41.6c38.4,24.5,78.2,49.9,128.5,45.7
		c39.4-3.3,77.5-13.9,114.5-26.7c-2,0.5-4,0.9-6.1,1.4c-16.7,3.8-33.9,5.8-51.2,6c-17.5,0.2-34.9-2.2-51.6-7
		c-27.8-8-54.7-22.8-80.7-37.1c-29.7-16.3-60.4-33.2-91.9-39.4c-16-3.3-32.6-3.4-48.6-0.2c-17.3,3.5-34.1,10.8-51.2,22.4
		C102.5,325,114.8,322.7,127.3,322.7z M598.3,338.9c-26.3,7.9-52.3,17.6-77.7,27.1c-14.2,5.3-28.6,10.6-43.1,15.7
		c30.2-7.7,60.4-19.4,89.7-30.9C577.5,346.8,587.9,342.8,598.3,338.9z M2120.9,270.6c6,1.2,11.9,2.8,17.6,4.8
		c30.9,10.7,57.6,32.2,77.1,62.3c12-21.8,12.1-38.7,0.2-50.3c-7.4-7.2-19.4-12.3-35.6-15.2c-14-2.5-31-3.2-50.2-2.2
		C2127,270.2,2123.9,270.4,2120.9,270.6L2120.9,270.6z M2093.3,268.2c-19.9,0.2-39.5,3.9-57.8,11.1c-31.3,11.9-46.9,29.1-60.4,48
		c18.5-15.2,38.7-30.2,66.6-41.3c15-6,45.3-12.8,77.3-15.5C2110.5,269,2101.9,268.2,2093.3,268.2L2093.3,268.2z"/>
	<path id="Shape_9_" d="M1874.2,448c-8.5-0.1-17-0.6-25.5-1.6c-23.2-2.6-48.6-8.1-71-12.9c-18-3.9-35-7.5-48-9.1
		c-9.3-1.1-18.8-2.2-28-3.3c-52.4-6.1-106.5-12.5-158.2-25.1c-20-4.9-40-12.7-59.3-20.3c-28.8-11.3-58.7-23-88.6-24.8
		c-26.3-1.6-55.2,5.6-83.1,12.6c-19.9,5-40.4,10.1-59.5,11.9c-27.7,2.6-54.7-0.1-80.7-2.7c-20.8-2-42.3-4.2-64.1-3.7
		c-35,0.8-62.1,12.4-88.3,23.6c-11.2,4.8-22.4,9.6-33.7,13.3c-6.4,3-13.2,5.2-20.2,6.5c-6,1.1-12.1,1.4-18.2,1.1
		c-14.6,0.7-29.2-1.1-43.1-5.1c-29.7-8.3-57.4-18.6-84.3-28.5c-37.4-13.8-72.7-26.9-110.5-33.9c-19.3-3.6-39-5.3-58.7-5
		c-21.8,0.5-43.5,3.4-64.5,8.8c-35,8.7-70.1,26.1-104.1,42.9c-29.2,14.4-59.4,29.4-89.9,39.1c-15,5-30.5,8.4-46.4,10.3
		c-15.9,1.9-32.1,1.5-47.9-1c-26.4-4.3-56.2-29.4-85.1-53.7c-16.4-13.8-33.4-28.1-49.6-38.5c-6.2-4-12.8-7.6-19.7-10.6
		c-15.3-1.9-33.7,0.7-57.5,10.3l-0.5,0.2l0.4-0.4c9.2-10,19.3-15.1,30.9-15.8c8.1-0.5,17,1.3,26.8,5.5c26.7,3.3,43.8,20.3,62.7,39
		c21.1,20.9,45,44.6,87.2,52.5c30.8,5.8,64.8,3.2,103.8-7.7c34.5-9.7,68.8-24.7,102.1-39.2c30.5-13.3,59.4-26,87.5-34.3
		c53.8-15.9,104.1-17.8,158.4-5.8c48.2,10.6,93.6,30.6,148.1,55.5c20.7,9.5,38.3,14.5,53.9,15.4c13.1-0.8,26-3.3,38.3-7.6
		c9.4-4.4,18.2-10.3,27.7-16.7c22.1-14.9,47.2-31.8,90.9-36.2c25.1-2.5,49.1-0.1,72.3,2.1c28.8,2.8,58.6,5.8,91-0.5
		c12.8-2.5,25.6-5.7,37.9-8.8c28.5-7.2,58.1-14.7,89.3-12.8c66.6,4.1,135,24.2,201.1,43.5c52.7,15.4,107.1,31.4,160.4,39.3
		c8.9,1.3,19,3.2,29.7,5.3c43.2,8.2,96.9,18.4,128.3,0.2c17.7-10.3,25.7-28.6,33.4-46.3c5.3-12.2,10.8-24.9,19.4-34.7
		c8-9.1,21.6-17.2,39.3-23.4c18.6-6.2,37.9-10.1,57.6-11.7c20.2-1.9,40.6-1.6,60.8,0.9c20,2.7,36.9,7.7,49.2,14.6
		c22.6,12.9,28.4,31.7,16.9,54.6v0.1l-0.1-0.1c-35.8-25-68.1-39.3-98.8-43.9c-17-2.6-34.4-1.9-51.1,2.1
		c-17.6,4.3-34.8,12.6-51.1,24.6c-13,9.5-23.5,24-33.6,38.1c-13.6,18.7-27.6,38.1-47.9,46.5C1899.6,446.2,1888.3,448,1874.2,448z
		 M1388,350.5c2.6,0,5.1,0.1,7.6,0.2c30,1.8,59.8,13.5,88.7,24.8c19.3,7.6,39.3,15.4,59.3,20.3c51.7,12.6,105.8,18.9,158.2,25.1
		c9.2,1.1,18.7,2.2,28,3.3c13,1.6,30,5.2,48,9.1c22.4,4.8,47.8,10.3,71,12.9c26.6,3,46,1.7,59.4-3.9c20.3-8.4,34.3-27.7,47.8-46.4
		c10.2-14,20.7-28.5,33.7-38.1c16.3-12,33.6-20.3,51.2-24.6c16.7-4,34.2-4.7,51.2-2.1c30.7,4.6,63,18.9,98.8,43.8
		c11.4-22.6,5.6-41.3-16.9-54.1c-12.1-6.9-29.1-11.9-49-14.6c-20.1-2.5-40.5-2.8-60.7-0.9c-19.6,1.6-39,5.5-57.5,11.7
		c-17.7,6.2-31.3,14.2-39.3,23.3c-8.6,9.8-14,22.4-19.4,34.6c-7.7,17.8-15.7,36.2-33.5,46.5c-31.4,18.3-85.2,8.1-128.5-0.2
		c-10.7-2-20.8-4-29.7-5.3c-53.3-7.9-107.7-23.8-160.4-39.3c-66.1-19.4-134.5-39.4-201-43.5c-31.2-1.9-60.7,5.5-89.2,12.8
		c-12.3,3.1-25.1,6.4-37.9,8.8c-32.4,6.2-62.2,3.3-91.1,0.5c-23.2-2.3-47.2-4.6-72.3-2.1c-43.7,4.3-68.7,21.2-90.8,36.1
		c-8.9,6-17.2,11.6-25.9,15.9c10.7-3.7,21.2-8.1,31.8-12.7c26.2-11.2,53.4-22.9,88.5-23.6c21.9-0.5,43.4,1.6,64.2,3.7
		c26.1,2.6,53,5.1,80.7,2.7c19.1-1.8,39.6-6.9,59.5-11.9C1337.8,357,1363.8,350.5,1388,350.5z M145,338.5
		c6.6,2.9,12.9,6.4,18.9,10.3c16.2,10.4,33.2,24.7,49.6,38.5c28.8,24.3,58.6,49.4,85,53.6c15.8,2.5,31.9,2.9,47.8,1
		c15.8-1.9,31.4-5.3,46.4-10.3c30.5-9.8,60.7-24.7,89.9-39.1c17.2-8.5,34.6-17.1,52.2-24.7c-11.4,4.7-22.9,9.8-34.8,15
		c-33.2,14.5-67.6,29.6-102.2,39.3c-39.1,11-73.1,13.5-104,7.7c-42.3-7.9-66.2-31.6-87.3-52.5C188,358.9,171,342.1,145,338.5
		L145,338.5z M656.4,340.9c18,0,35.9,1.7,53.5,5c37.8,6.9,73.2,20,110.6,33.9c26.8,9.9,54.5,20.2,84.2,28.5
		c13.1,3.8,26.9,5.5,40.6,5.1c-15-1.2-31.9-6.2-51.6-15.2c-54.4-24.9-99.9-44.8-148-55.5c-54.3-12-104.6-10.1-158.3,5.8
		c-9.3,2.8-18.7,6-28.1,9.5c8.9-3.2,18.1-6,27.3-8.4c21.1-5.3,42.8-8.3,64.6-8.7C652.9,340.9,654.6,340.9,656.4,340.9L656.4,340.9z
		 M950.3,413.5c5.2,0.1,10.4-0.2,15.5-1.1c6.3-1.1,12.3-3,18.1-5.6C973.1,410.3,961.8,412.6,950.3,413.5L950.3,413.5z M119.8,332.8
		c-0.9,0-1.7,0-2.5,0.1c-11.4,0.7-21.3,5.7-30.3,15.3c23-9.2,41.1-11.8,56.2-10.2C134.6,334.5,126.9,332.8,119.8,332.8L119.8,332.8z
		"/>
	<path id="Shape_10_" d="M322.8,488c-20.3,0-40.1-4.9-60-14.9c-23.3-11.6-44-28.5-64-44.8c-36.3-29.6-70.7-57.6-114.5-48.4l-0.3,0.1
		l0.2-0.3c5.7-9.3,23.9-8.4,55.6,2.9c27.8,9.8,61.7,25.9,94.6,41.5c42.4,20.1,82.4,39,99.3,39.4c20.7,0.5,42.5-4.2,68.6-14.8
		c23-9.3,45.7-21.7,69.7-34.9c39.7-21.7,80.7-44.2,122.9-51.2c47.8-8,92.3-6.1,139.9,5.9c42.9,10.8,84.6,28.9,128.8,48l12.5,5.4
		c30,13,53.7,17.2,74.6,13.4c19.2-3.5,34.6-13.3,52.4-24.6c19.9-12.6,42.4-26.9,76.1-36.1c32.5-8.9,65.1-4.8,99.6-0.5
		c25.1,3.1,51.1,6.3,76.9,4.1c21.3-1.8,42.5-6.8,63-11.6c18.2-4.3,37-8.7,55.7-10.9c41.3-4.8,66.7,3.7,98.9,14.5
		c13.1,4.4,26.7,8.9,43,13.2c46.6,12.1,96.6,18.1,145,23.9c17.4,2.1,35.4,4.3,52.8,6.7c16.4,2.3,35.9,6.8,56.6,11.6
		c41.6,9.7,88.8,20.7,121.1,14.7c12.9-2.4,24.9-7.7,36.7-16.4c10.5-7.7,19.9-17.3,29-26.6c9.5-9.7,19.4-19.8,30.7-28
		c19.5-14,42.2-23.9,66.3-29.1c25.3-5.3,49.1-4.6,69,2.3c29.1,10,47.9,32.3,54.5,64.6v0.1h-0.1c-25.1,4.6-49.4-4.1-72.8-12.5
		c-21-7.5-40.8-14.6-61.3-12.9c-29.4,2.5-43.8,14.5-60.4,28.5c-9,7.9-18.7,15.1-28.9,21.6c-29.6,18.2-68.6,26.4-119.1,25
		c-44.2-1.3-90.1-9.4-134.5-17.3c-26.3-4.7-51.1-9-73.6-11.6c-37.8-4.3-75.3-12.3-111.6-20.1c-34.5-7.4-70.3-15-105.4-19.2
		c-39.2-4.7-73.9-4.4-105.9,0.7c-36.3,5.8-74.6,1.4-111.6-2.9c-27.2-3.1-55.3-6.4-81.5-5.3c-13,0.4-25.8,2.2-38.3,5.3
		c-12.7,3.2-24.8,8.2-35.8,14.9c-12.1,7.3-22.7,14.5-33,21.5c-21.6,14.6-40.2,27.2-62.3,33.7c-24.1,7-50.6,5.9-83.3-3.5
		c-33.4-9.6-62.3-25.1-90.1-40.2c-49-26.5-95.3-51.4-161.3-42.9c-52.8,6.9-95.9,33.6-137.6,59.4c-19.6,12.2-39.9,24.7-60.6,34.8
		c-23.3,11.3-45,18.4-66.2,21.7C336.1,487.5,329.5,488,322.8,488z M101.3,377.9c36.1,0,66.1,24.5,97.7,50.2
		c20,16.3,40.6,33.1,63.9,44.7c26.3,13.1,52.4,17.5,79.7,13.3c21.2-3.2,42.8-10.3,66-21.7c20.8-10.1,41-22.7,60.6-34.8
		c41.7-25.9,84.8-52.6,137.7-59.5c66-8.6,112.4,16.4,161.5,42.8c27.9,15,56.7,30.5,90.1,40.1c70.9,20.3,102.1-0.8,145.4-30.1
		c10.3-7,20.9-14.1,33-21.5c11-6.7,23.1-11.7,35.9-14.9c12.5-3.1,25.4-4.9,38.4-5.4c26.3-1.1,54.4,2.1,81.6,5.3
		c37,4.3,75.3,8.7,111.5,2.9c32-5.1,66.7-5.3,106-0.7c35.1,4.2,70.8,11.8,105.4,19.2c36.3,7.7,73.8,15.8,111.6,20.1
		c22.5,2.6,47.4,7,73.7,11.6c44.4,7.9,90.3,16,134.4,17.3c50.4,1.4,89.4-6.7,118.9-24.9c11.7-7.2,20.5-14.5,28.9-21.6
		c16.7-14,31.1-26.1,60.6-28.5c20.5-1.7,40.4,5.4,61.4,12.9c23.4,8.4,47.5,17,72.5,12.5c-6.6-32.2-25.4-54.4-54.3-64.3
		c-19.8-6.8-43.6-7.6-68.8-2.3c-24.1,5.2-46.8,15.1-66.3,29.1c-11.3,8.2-21.2,18.2-30.7,27.9c-9.1,9.3-18.5,18.9-29.1,26.6
		c-11.8,8.6-23.8,14-36.8,16.4c-32.4,6-79.6-5-121.3-14.7c-20.6-4.8-40.1-9.4-56.5-11.6c-17.4-2.4-35.4-4.6-52.8-6.7
		c-48.4-5.8-98.5-11.8-145.1-23.9c-16.3-4.2-29.9-8.8-43-13.2c-32.2-10.7-57.6-19.3-98.8-14.4c-18.7,2.2-37.5,6.6-55.7,10.8
		c-20.5,4.8-41.7,9.8-63.1,11.6c-25.9,2.2-51.9-1-77-4.1c-34.5-4.3-67.1-8.3-99.5,0.5c-33.6,9.2-56.2,23.5-76,36.1
		c-17.8,11.3-33.2,21.1-52.5,24.6c-21,3.9-44.8-0.4-74.8-13.4l-12.5-5.4c-44.1-19.1-85.8-37.2-128.7-48c-47.6-12-92-13.8-139.8-5.9
		c-42.1,7-83.1,29.5-122.8,51.2c-24,13.1-46.7,25.5-69.7,34.9c-26.1,10.6-47.9,15.3-68.7,14.8c-17-0.4-57.1-19.4-99.5-39.5
		c-64-30.4-136.5-64.7-149.6-44.7C90,378.5,95.6,378,101.3,377.9L101.3,377.9z"/>
	<path id="Shape_11_" d="M320.8,518c-22.8,0-45.8-5.9-70.1-18c-23.3-11.6-45.6-27.5-67.3-42.9c-32.1-22.9-65.2-46.6-102-56.2
		l-0.4-0.1l0.4-0.1c45.2-16.6,83.2,12.9,123.4,44c19.2,15,39.2,30.4,60.7,41.3c24.2,12.3,47.2,16.9,70.2,14.1
		c20.2-2.5,40.7-9.3,62.6-20.7c19.6-10.3,38.6-23.3,57-36c41.1-28.3,83.6-57.4,138.2-60.7c25.8-1.6,52.1,2.1,80.4,11.1
		c25.3,8.1,49.9,19.6,73.8,30.8c33.3,15.6,67.8,31.8,105.2,39c76.3,14.8,103.6-7.7,138.1-36.3c16.5-13.7,35.2-29.1,61.8-42.2
		c50.1-24.6,113.3-9,174.5,6.2c29.5,7.3,57.4,14.3,83.5,16.7c47.2,4.4,95.1,7.6,141.6,10.6c74.9,4.9,152.3,9.9,228.2,20.6
		c23.6,3.3,46.9,8.2,69.4,13c39.1,8.3,76.1,16.1,112.6,15.6c18.3-0.1,36.5-2.7,53.9-7.9c19.1-5.9,36.9-14.8,52.5-26.4
		c25.1-18.2,46.1-32.4,66.6-42.2c23.1-11,43.5-15.2,62.6-12.7c28.3,3.7,55.1,22.4,81.9,57.1l0.1,0.2h-0.3
		c-12.5,0.3-24.7,0.1-36.4-0.1c-37-0.7-72-1.3-109.5,14.1c-16.7,6.8-30.8,15.7-44.4,24.3c-26.9,16.9-52.3,32.8-91.5,29
		c-29.1-2.8-59.6-14.2-89-25.2c-22.6-8.5-46-17.2-68.5-21.9c-54.8-11.6-114.7-18.5-188.5-21.9c-37.7-1.8-76.6-1.1-114.2-0.5
		c-58.7,1-119.4,1.9-177.6-6c-28.3-3.9-52.9-10.9-76.6-17.8c-28.8-8.3-56-16.1-83.4-15.6c-30.3,0.5-58.1,11.1-87.4,33.3
		c-9,6.8-17.1,13.7-25,20.3c-15.2,12.9-29.7,25.1-46.2,32.9c-18.3,8.6-37.5,11.2-60.5,7.9c-44.9-6.4-85.7-23.4-125-40
		c-27.9-11.7-56.7-23.8-86.6-31.9c-33.5-9-64.9-12-96-9c-48.4,4.6-87.4,31.2-125,56.8c-18.9,12.9-38.4,26.1-58.4,36
		c-22.5,11.1-43.4,16.9-64.2,17.7C324,518,322.4,518,320.8,518z M81.8,400.8c36.7,9.7,69.8,33.3,101.7,56.2
		c21.6,15.4,43.9,31.4,67.2,42.9c26.1,12.9,50.6,18.7,74.9,17.9c20.7-0.8,41.7-6.5,64.1-17.6c20-9.9,39.5-23.2,58.4-36
		c37.7-25.7,76.7-52.3,125.2-56.9c31.1-3,62.6,0,96.1,9c29.9,8.1,58.8,20.2,86.6,31.9c39.3,16.5,80.1,33.6,125,39.9
		c22.9,3.2,42,0.7,60.3-7.9c16.5-7.8,30.9-20,46.1-32.8c7.9-6.7,16-13.5,25-20.3c29.4-22.2,57.2-32.8,87.6-33.3
		c27.5-0.5,54.7,7.4,83.5,15.6c23.8,6.8,48.4,13.9,76.6,17.8c58.2,8,118.9,7,177.6,6c37.6-0.6,76.6-1.3,114.3,0.5
		c73.8,3.4,133.7,10.4,188.5,22c22.5,4.7,45.9,13.5,68.5,21.9c29.5,11,59.9,22.4,89,25.2c39.1,3.9,64.5-12.1,91.3-29
		c13.7-8.6,27.8-17.4,44.5-24.3c37.5-15.4,72.5-14.8,109.6-14.1c11.6,0.2,23.7,0.4,36.1,0.2c-26.7-34.5-53.4-53.1-81.5-56.8
		c-18.9-2.5-39.3,1.7-62.4,12.7c-20.5,9.8-41.4,23.9-66.5,42.1c-15.7,11.6-33.5,20.5-52.6,26.4c-17.4,5.2-35.6,7.9-54,7.9
		c-36.5,0.4-73.5-7.4-112.7-15.6c-22.5-4.7-45.8-9.6-69.4-13c-75.8-10.7-153.3-15.8-228.2-20.6c-46.4-3-94.4-6.1-141.6-10.6
		c-26.1-2.5-54-9.4-83.6-16.7c-61.1-15.2-124.3-30.8-174.3-6.3c-26.6,13.1-45.3,28.5-61.7,42.2c-34.6,28.6-61.9,51.2-138.3,36.4
		c-37.4-7.3-71.9-23.4-105.3-39c-23.8-11.2-48.4-22.7-73.7-30.7c-28.3-9-54.6-12.6-80.3-11.1c-54.5,3.3-96.9,32.5-138,60.7
		c-18.4,12.6-37.4,25.7-57,36c-21.9,11.5-42.4,18.3-62.7,20.8c-23,2.8-46.1-1.8-70.3-14.1c-21.5-10.8-41.5-26.3-60.8-41.3
		C164.5,413.8,126.7,384.5,81.8,400.8z"/>
	<path id="Shape_12_" d="M347.2,554c-21.2,0-44.7-6-71.7-18.1c-26.3-11.9-53.3-28.5-79.4-44.5c-39.3-24.2-80.1-49.3-118.3-57.7
		l-0.9-0.2h0.9c23.4-1.3,47.5,3.3,73.7,14.1c23.3,9.7,45.9,23.2,67.9,36.4c23,13.8,46.9,28.1,71.3,37.8
		c27.4,10.8,52.8,14.6,77.7,11.5c28.7-3.5,49.7-17.4,69.1-34.6c2.5-3,4.9-6.1,7.4-9.1c24.8-30.8,50.4-62.6,93.8-70.2
		c9.6-1.7,19.5-2.4,29.3-2.2c26.5-3.2,52.8-1.3,81.8,5.6c29,6.9,55.9,17.8,84.6,29.3c15.9,6.4,32.3,13,49,18.8
		c47.8,16.6,84,21.3,117.7,15.2c30.2-5.5,59.2-19.6,100.2-48.6c17.5-12.4,35.1-21.1,53.9-26.5c12.6-3.7,25.7-5.9,38.9-6.5
		c4.1-0.4,8.1-0.4,12.2-0.3h2.3c35.7,0.7,71.5,10.3,109.6,20.4c15.9,4.2,32.3,8.6,49,12.4c65.4,14.9,133.9,13.8,200.2,12.8
		c8.9-0.1,17.8-0.3,26.8-0.4c27.3-4.9,54.2-8.6,79.3-8.5c31.3,0.1,62.5,5,95.5,14.9c19.8,6.2,39.3,13.3,58.3,21.4
		c80,19.5,162.4,39.1,229.4,18.5c23.5-7.3,46.5-21.6,68.8-35.4c27.6-17.2,53.7-33.4,80.7-37.3c13.9-2.2,28.1-0.4,40.9,5.2
		c14.5,6.2,28.3,17.1,42,33.3l0.2,0.2h-0.3c-48.9,1.2-92.9,19.5-135.3,37.2c-25.6,10.7-52.1,21.7-79.1,28.6
		c-30.2,7.7-58.1,9.6-85.2,5.5c-50-7.6-93.6-26.3-135.7-44.3c-8.7-3.7-17.4-7.4-26.3-11.1l-2.8-0.7c-43.6-10.6-84.8-20.7-122.4-24.1
		c-35.5-3.2-71.9-3.4-107.7-3c-15.8,2.9-31.6,6.1-47.3,9.4c-57.7,12-117.4,24.3-168.6,14.9c-34-6.2-61.6-22-88.2-37.3
		c-24.7-14.1-47.9-27.4-73.5-31.2c-3.4-0.5-6.8-0.8-10.3-1c-4.1,0-8.2,0-12.2,0.3c-6.1,0.5-12.1,1.6-17.9,3.3
		c-15.1,4.2-30.3,11.8-46.5,23.4c-4.4,3.1-8.7,6.2-12.8,9.2c-31.3,22.5-56,40.2-85,51c-31.3,11.5-64.5,13.6-107.9,6.6
		c-37-5.9-75.5-22.6-112.7-38.6c-28.3-12.2-57.5-24.9-86.3-33c-20.5-5.8-39.3-8.8-56.8-9c-3.3,0.4-6.7,0.9-10,1.4
		c-45.2,7.5-72.7,34.4-99.4,60.4c-6.9,6.8-13.8,13.4-20.8,19.6c-10.3,12.6-20.5,24.3-32.2,33.8c-16.4,13.4-33,20.2-52,21.2
		C351.5,553.9,349.4,554,347.2,554z M78.9,433.6c37.9,8.6,78.4,33.5,117.5,57.5c26.1,16,53,32.6,79.3,44.5
		c29.5,13.4,55,19.2,77.8,17.9c19-1.1,35.5-7.8,51.9-21.2c11.2-9.2,21.2-20.4,31.1-32.5c-19.1,16.7-39.8,30.1-68,33.6
		c-24.9,3.1-50.3-0.7-77.8-11.6c-24.5-9.5-48.4-23.9-71.4-37.7c-21.9-13.1-44.6-26.7-67.8-36.4C125.8,437.1,102,432.4,78.9,433.6z
		 M1728.6,477.8c8.3,3.5,16.6,7,24.7,10.5c42.1,18.1,85.7,36.7,135.7,44.3c27.1,4.1,54.9,2.3,85.1-5.4c27-6.9,53.4-18,79.1-28.6
		c42.4-17.7,86.3-35.9,135.2-37.2c-13.6-16.1-27.3-26.9-41.7-33c-12.7-5.5-26.9-7.3-40.7-5.1c-26.9,3.9-53,20.1-80.5,37.3
		c-22.3,13.9-45.3,28.2-68.8,35.5C1889.8,516.4,1808,497.1,1728.6,477.8L1728.6,477.8z M569.9,417.1c17,0.5,35.2,3.5,55,9
		c28.8,8.1,58.1,20.8,86.3,33c37.2,16.1,75.7,32.7,112.6,38.6c43.3,6.9,76.5,4.9,107.7-6.6c29-10.7,53.7-28.4,84.9-50.9
		c4.2-3,8.4-6,12.8-9.2c16.3-11.6,31.5-19.3,46.6-23.4c4.1-1.2,8.4-2,12.6-2.7c-11.3,0.9-22.6,3-33.4,6.1
		c-18.7,5.4-36.3,14.1-53.8,26.5c-41,29-70,43.1-100.3,48.6c-33.7,6.2-70.1,1.5-117.8-15.2c-16.7-5.8-33.1-12.4-49-18.8
		c-28.6-11.5-55.7-22.4-84.5-29.3C621.4,416.1,595.7,414.2,569.9,417.1L569.9,417.1z M565.2,417.3c-8.9,0-17.7,0.7-26.4,2.3
		c-43.3,7.6-68.8,39.4-93.6,70c-2.1,2.6-4.2,5.3-6.4,7.9c6.6-5.9,13-12.2,19.5-18.5c26.7-26,54.3-52.9,99.5-60.4
		c2.7-0.5,5.4-0.9,8.2-1.2L565.2,417.3z M1111.3,404.4c1.7,0.2,3.4,0.4,5.1,0.6c25.6,3.8,48.9,17.1,73.5,31.3
		c26.7,15.3,54.2,31.1,88.2,37.3c51.1,9.4,110.8-3,168.5-14.9c15.2-3.1,30.5-6.3,45.8-9.1c-8.5,0.1-16.9,0.2-25.3,0.4
		c-66.2,1-134.8,2.1-200.2-12.8c-16.7-3.8-33.1-8.2-49-12.4C1180.9,414.9,1146,405.6,1111.3,404.4L1111.3,404.4z M1518.8,449.1
		c27.7,0,55.6,0.7,82.9,3.2c37.6,3.4,78.8,13.5,122.4,24.1l1.2,0.3c-18.5-7.8-37.4-14.7-56.7-20.7c-32.9-9.9-64.1-14.8-95.4-14.9
		h-0.9c-24.3,0-50.4,3.5-76.9,8.2C1503.2,449.2,1511,449.1,1518.8,449.1L1518.8,449.1z"/>
	<path id="Shape_13_" d="M369.2,577c-7.5,0-14.9-0.7-22.2-2.1c-14.4-2.7-28.4-7-41.7-12.6c-28.3-11.6-57.9-28.8-86.5-45.4
		c-23.3-13.6-47.4-27.6-70.7-38.5c-26.1-12.2-48.4-19.2-68.2-21.2v-0.3c24,0,48.6,4.3,75.2,13.2c24.1,8,47.8,19.1,69.7,29.9
		c10.4,5.1,22.7,13.1,35.7,21.5c30.9,20.1,66,42.8,94.2,40.3c36.2-3.3,55-29.9,75-58.1c11.5-16.2,23.3-32.9,39-45.9
		c17-14.4,39-22.8,62.1-23.7c26.7-1.4,55.3,1.2,87.5,8.1c28.7,6.1,57.5,14.9,85.4,23.4c27.9,8.5,56.8,17.4,85.6,23.5
		c32.3,6.9,61,9.5,87.8,8.1c43.4-2.3,78.6-23.9,112.6-44.7c18.2-11.1,35.3-21.7,53.7-29.5c20.8-8.9,39.3-12.6,58.5-11.8
		c17.6,0.7,35.1,5.7,53.8,15.1c16.6,8.4,32.5,19.6,47.9,30.3c15.9,11.1,32.3,22.7,49.6,31.2c19.4,9.6,37.8,14.3,56.2,14.4h0.7
		c25.4,0,51.5-10.1,76.8-19.9c15.3-5.9,31.1-12,46.1-15.6c63.5-15,122.4-18.2,174.9-9.5c44.2,7.3,85.3,27.1,125.1,46.3
		c25.6,12.4,52.1,25.1,79.1,34.3c30.2,10.3,57.8,14.9,84.4,14.1c45.4-1.3,85.7-21.2,124.6-40.3c28.9-14.2,56.3-27.7,85.6-34.3
		c14.8-3.5,30.1-4.7,45.3-3.6c16.9,1.4,33.4,5.6,48.7,12.4l0.9,0.4l-1-0.2c-26-4.1-52.6-1.9-81.2,6.6c-25.6,7.7-50.6,19.7-74.8,31.3
		c-33.8,16.2-68.9,33.1-106.8,38.9c-20.2,3.1-40.8,3.8-61.3,1.9c-19.1-1.8-38-5.5-56.2-11.1c-36.1-10.8-70.8-27.7-104.3-44.1
		c-35.1-17.2-71.6-35-110.5-46.2c-61.2-17.6-110.6,7-158.4,30.8c-19.4,9.7-39.6,19.7-59.9,26.5c-22.7,7.5-43.6,10.2-63.6,8
		c-17.6-1.9-36-8.3-56-19.4c-17.9-9.9-35.6-22.8-52.7-35.2c-23.1-16.8-47-34.1-72.3-45.1c-12.4-5.6-25.7-9.4-39.3-11.2
		c-14.4-1.8-29.1-0.9-43.2,2.6c-35.4,8.6-61.2,29.1-86.1,48.9c-16.2,12.9-33,26.2-52.3,36.2c-21.1,11.1-44.9,17.1-69.3,17.5
		c-50,1-94.7-18.9-137.9-38.2c-20.7-9.3-42.1-18.8-63.5-25.8c-24-7.8-45.7-11.4-66.3-11.2c-57.9,0.8-87.4,35-115.9,68
		c-23.5,27.2-45.7,53-82.2,59.4C381.1,576.5,375.2,577,369.2,577L369.2,577z M82.5,457.2c19.2,2.3,40.8,9.2,65.8,20.9
		c23.3,10.9,47.4,25,70.7,38.5c28.6,16.6,58.2,33.9,86.4,45.4c13.3,5.6,27.3,9.9,41.6,12.6c13.1,2.5,26.7,2.7,39.9,0.6
		c36.4-6.5,58.6-32.1,82.1-59.3c28.6-33.1,58.1-67.3,116.1-68.1c20.7-0.3,42.4,3.4,66.4,11.2c21.5,7,42.9,16.5,63.6,25.8
		c43.2,19.3,87.8,39.2,137.7,38.2c24.3-0.4,48-6.3,69.1-17.4c19.3-10,36.1-23.3,52.3-36.2c24.9-19.8,50.7-40.3,86.2-49
		c14.1-3.5,28.8-4.4,43.3-2.6c13.7,1.8,27.1,5.6,39.5,11.2c25.3,11,49.2,28.3,72.3,45.1c17.1,12.4,34.7,25.2,52.6,35.2
		c20,11.1,38.3,17.5,55.9,19.4c20,2.2,40.8-0.4,63.5-8c20.3-6.7,40.4-16.8,59.8-26.4c47.8-23.8,97.3-48.5,158.6-30.8
		c39,11.2,75.4,29,110.6,46.2c33.5,16.4,68.1,33.3,104.3,44c18.2,5.6,37,9.3,56.1,11.1c20.4,1.9,41,1.2,61.2-1.9
		c37.9-5.8,72.9-22.6,106.8-38.8c24.2-11.6,49.2-23.6,74.8-31.3c28.3-8.5,54.6-10.7,80.4-6.8c-15-6.6-31.1-10.7-47.7-12
		c-15.2-1.1-30.4,0.1-45.2,3.6c-29.3,6.6-56.6,20-85.6,34.2c-39,19.2-79.3,39-124.8,40.4c-26.7,0.8-54.3-3.9-84.5-14.1
		c-27-9.2-53.4-22-79.1-34.3c-39.7-19.1-80.8-38.9-125.1-46.2c-52.5-8.7-111.3-5.5-174.8,9.5c-15,3.6-30.8,9.7-46.1,15.6
		c-25.6,9.9-52,20.1-77.6,19.9c-18.4-0.2-36.8-4.9-56.2-14.4c-17.3-8.6-33.7-20.1-49.7-31.2c-15.4-10.8-31.3-21.9-47.9-30.3
		c-18.6-9.4-36.2-14.4-53.7-15.1c-19.1-0.8-37.7,2.9-58.4,11.8c-18.3,7.8-35.5,18.3-53.6,29.4c-34.1,20.9-69.3,42.5-112.7,44.8
		c-26.8,1.4-55.6-1.3-87.9-8.1c-28.8-6.1-57.7-14.9-85.7-23.5s-56.7-17.3-85.4-23.4c-32.2-6.8-60.8-9.5-87.5-8.1
		c-23,0.9-45,9.3-61.9,23.7c-15.6,13-27.5,29.7-38.9,45.9c-20,28.3-38.9,55-75.2,58.3c-1.5,0.1-3,0.2-4.5,0.2
		c-27.3,0-60.4-21.5-89.8-40.5c-13-8.5-25.3-16.4-35.7-21.5c-21.9-10.8-45.6-21.9-69.7-29.9C129.5,461.8,105.6,457.5,82.5,457.2z"/>
	<path id="Shape_14_" d="M364.1,596c-22.3,0-48.6-5.5-79.2-16.6c-42.8-15.4-87.4-39.2-126.8-60.2c-26.7-14.2-51.9-27.7-71.8-35.8
		l-1.3-0.5l1.4,0.3c30.1,6.2,69.4,26.3,111,47.6c38.5,19.7,78.3,40.1,115.3,52c20,6.4,37.2,9.7,52.4,9.9c17,0.3,31.7-3.2,43.8-10.5
		c16.3-9.9,27-26.4,37.4-42.3c7.8-11.9,15.8-24.3,26.1-33.6c20.9-19,43.8-30.7,69.8-35.9c23-4.5,48.6-4.1,80.6,1.3
		c23,3.9,45.6,9.7,67.7,15.8c21.3,3.8,42.3,9,63,14c44.5,10.9,90.5,22.2,138.3,19.4c10.1-0.6,20.1-2,29.9-4.2
		c31.1-9.1,55.5-28.4,79.3-47.1c25.9-20.4,50.3-39.7,81.3-44.6c39.6-6.3,77.5,19.2,117.6,46.1c28.2,19,57.2,38.4,88.3,47.9
		c25.1,5.1,51,5.9,76.4,2.5c21.5-2.8,43.2-7,66.3-11.4c14.7-2.8,29.6-5.7,44.5-8.2c22.9-4.8,46.1-9,69-11c35-3.1,65.6-0.6,93.6,7.7
		c33.1,9.8,63.9,23.9,93.7,37.5c31.9,14.6,62.1,28.3,94.8,37.2c16.5,4.6,33.4,7.6,50.6,9c18.4,1.4,37,0.7,55.2-2.2
		c29.5-4.6,63.4-21.5,99.4-39.3c32.2-16,65.5-32.6,97.2-40.8c17.1-4.5,32.2-6.1,46.1-5c15.1,1,29.6,5.9,41.8,14.1l0.5,0.3l-0.6-0.1
		c-26.4-3.9-54-1.4-84.1,7.4c-26.9,7.9-53.5,20-79.3,31.7c-35.9,16.4-73,33.3-112.2,39.3c-46.2,7.1-94,1.3-140.2-4.4
		c-8.7-1.1-17.8-2.2-26.6-3.2c-52.7-5.9-64-14.6-94.3-37.8c-5.8-4.4-12.3-9.4-19.9-15c-15.5-11.5-33.4-20.1-52.5-25.3
		c-17.3-4.8-35.9-7.1-57-7.2h-1c-24.2,0-49.2,3.1-74.1,7.2c-8.3,1.7-16.6,3.5-24.8,5.3c-40.4,8.8-82.2,17.9-123.8,17.9h-0.1
		c-13.1-0.1-26.1-2.1-38.5-6c-2.4-0.5-4.8-1-7.1-1.5c-24.8-5.8-47.6-14.9-71.6-24.6c-24.3-9.8-49.4-19.9-78.9-27.4
		c-23.9-6.3-49.2-6.4-73.1-0.3c-22.3,5.4-42.7,14.7-64.3,24.6c-22.6,10.3-45.7,20.9-71.5,26.8c-6.2,1.8-12.5,3.2-18.9,4.1
		c-29.6,4.1-60.7,3.2-95-2.8c-30.6-5.4-61.1-14.2-90.6-22.7c-8.9-2.6-17.8-5.1-26.8-7.7c-19-3.5-38.3-5.5-57.6-5.8
		c-23-0.2-46,2.1-68.4,7.1c-22.4,5-43.9,13-63.8,23.8c-16.9,9.3-30.9,22.9-44.3,36.1c-16.3,16-33.1,32.5-55.2,40.9
		C389.2,594.1,376.7,596.2,364.1,596L364.1,596z M87.7,483.7c19.7,8.2,44.4,21.4,70.6,35.3c39.3,21,84,44.7,126.7,60.2
		c49.4,17.8,87.3,21.2,115.9,10.4c22-8.4,38.8-24.8,55.1-40.8c13.5-13.2,27.4-26.9,44.4-36.2c19.8-10.8,41.4-18.8,63.8-23.8
		c22.4-5,45.4-7.4,68.5-7.1c18.5,0.3,37,2.1,55.2,5.4c-21.4-6.1-43.1-11.2-65.1-15.1c-31.9-5.4-57.5-5.9-80.4-1.3
		c-26,5.1-48.8,16.8-69.7,35.8c-10.3,9.3-18.3,21.7-26,33.6c-10.4,15.9-21.1,32.4-37.4,42.4c-12.1,7.3-26.8,10.9-43.9,10.6
		c-15.3-0.3-32.5-3.5-52.5-9.9c-37-11.8-76.8-32.2-115.4-52C156.2,510,117.5,490.2,87.7,483.7z M1549.5,494.6h1
		c21.1,0.1,39.8,2.4,57,7.2c19.2,5.2,37,13.9,52.6,25.4c7.6,5.6,14.2,10.6,19.9,15c30.2,23.1,41.5,31.8,94.2,37.7
		c8.8,1,17.9,2.1,26.6,3.2c46.2,5.6,93.9,11.5,140.1,4.4c39.2-6,76.3-23,112.1-39.3c25.7-11.7,52.4-23.9,79.3-31.8
		c30-8.8,57.4-11.2,83.7-7.5c-12.1-8-26.3-12.7-41.1-13.7c-13.8-1.1-28.9,0.6-46,5c-31.7,8.2-65,24.8-97.2,40.8
		c-35.9,17.9-69.9,34.8-99.4,39.4c-18.2,2.9-36.8,3.6-55.2,2.2c-17.2-1.4-34.2-4.4-50.7-9c-32.7-9-62.9-22.7-94.8-37.2
		c-29.8-13.6-60.6-27.6-93.7-37.4c-28-8.3-58.6-10.8-93.5-7.7c-21.1,2.1-42.1,5.4-62.8,9.8C1504.3,497.2,1527.1,494.6,1549.5,494.6
		L1549.5,494.6z M1290.7,519.8c11.6,3.4,23.7,5.2,35.9,5.3h0.1c41.5,0,83.3-9.1,123.7-17.9c6.1-1.3,12.2-2.6,18.3-3.9
		c-12.6,2.2-25.4,4.6-37.9,7.1c-23,4.4-44.8,8.7-66.3,11.4C1339.9,525,1314.9,524.4,1290.7,519.8L1290.7,519.8z M692.9,488.3
		c8.2,2.3,16.2,4.6,24.2,7c29.5,8.5,59.9,17.4,90.6,22.7c34.3,6,65.3,6.9,94.9,2.8c4.9-0.7,9.7-1.6,14.4-2.8
		c-8.4,1.7-16.9,2.8-25.5,3.3c-47.8,2.8-93.8-8.5-138.4-19.4C733.4,496.9,713.3,492,692.9,488.3z M1093.6,460.7
		c12.5,0.1,24.9,1.7,36.9,4.8c29.5,7.5,54.6,17.6,78.9,27.4c24,9.7,46.7,18.8,71.5,24.6c1.6,0.4,3.1,0.7,4.7,1
		c-30.2-9.8-58.4-28.7-85.9-47.2c-40.1-27-78-52.3-117.4-46.1c-30.9,4.9-55.3,24.1-81.2,44.5c-22.9,18-46.4,36.5-75.7,46
		c24.2-6,46.2-16,67.6-25.9s42-19.3,64.3-24.6C1069.1,462.3,1081.3,460.8,1093.6,460.7L1093.6,460.7z"/>
	<path id="Shape_15_" d="M352.3,623H352c-24.2,0-50-6.2-78.8-18.8c-25.7-11.3-51.2-26.5-75.9-41.1c-34-20.2-69.1-41.1-104.4-51.6
		l-1-0.3h1.1c48.9,2.3,90.5,25.7,130.8,48.4c19.4,11,39.6,22.3,60.1,31c23,9.6,44.1,14.8,64.6,15.8c23.9,1.2,48.5-3.7,75.3-14.9
		c23.9-10,47.5-24,70.3-37.6c43.5-25.9,88.5-52.8,141-55.5c44.4-2.3,87.6,10.2,129.4,22.3c37.6,10.9,76.5,22.2,116.5,22.8
		c37,0.5,72.9-9.3,107.7-18.8c43.4-11.9,88.4-24.2,136.3-16.6c27,4.3,50.1,9.7,70.5,14.4c52.7,12.2,94.4,21.8,166.5,6.7
		c57.5-12.1,111-14.8,163.5-8.3c49.2,6.1,98.9,20.3,156.4,44.4c106.7,44.9,207.3,48.2,326.4,10.7c17.1-5.4,35.4-13.7,54.7-22.5
		c27.1-12.3,55.1-25.1,83-31.2c31.8-7,58.5-3.9,81.5,9.2l0.4,0.3h-0.5c-28-1-57.3,2.7-89.5,11.2c-28.8,7.5-57.3,18.2-84.9,28.4
		c-39.3,14.7-80.1,29.8-122.9,36.6c-56.7,9-117.1,11.3-170.2,6.6c-31.1-2.8-59.7-7.9-84.8-15.3c-27.9-8.2-51.8-19.3-71.1-32.9
		c-35.5-25-70.4-37.6-109.7-39.4c-36-1.7-72.3,5.3-114.3,13.5c-12.3,2.4-25.1,4.9-38.4,7.2c-50.6,9-96.5-1.5-140.9-11.7
		c-39.8-9-80.9-18.5-124.3-13.4c-27.2,3.2-50.9,9.1-73.7,14.9c-42.5,10.7-82.6,20.8-136.7,10.1c-25.8-5.1-51.2-12.1-75.8-18.9
		c-36.1-10-70.2-19.4-105.8-23.4c-17.8-2.1-35.9-2.5-53.8-1.1c-19,1.5-37.7,5.4-55.6,11.4c-32.8,11-60.8,31-87.9,50.4
		c-19.7,14.1-40.1,28.8-62,39.5C400.8,617.2,376.9,623,352.3,623z M94,511.5c35,10.7,69.8,31.3,103.5,51.4
		c24.7,14.7,50.3,29.9,75.9,41.1c28.7,12.6,54.5,18.8,78.7,18.8h0.3c24.6,0,48.4-5.8,72.8-17.8c21.9-10.7,42.3-25.3,62-39.5
		c27.1-19.4,55.1-39.5,88-50.5c17.9-6.1,36.6-9.9,55.7-11.5c17.9-1.4,36-1,53.9,1.1c31.9,3.6,62.7,11.6,94.8,20.4
		c-5-1.4-10-2.9-15-4.3c-41.7-12.1-84.9-24.6-129.2-22.3c-52.4,2.7-97.4,29.6-140.9,55.5c-22.8,13.6-46.4,27.7-70.4,37.6
		c-26.8,11.2-51.5,16-75.4,14.9c-20.5-1-41.7-6.2-64.6-15.8c-20.5-8.6-40.7-20-60.2-31C183.7,537.3,142.4,514,94,511.5z
		 M1483.3,526.2c3.7,0,7.4,0.1,11.1,0.3c39.4,1.9,74.3,14.4,109.9,39.5c19.2,13.6,43.2,24.6,71,32.8c25.1,7.4,53.7,12.6,84.8,15.3
		c53.1,4.7,113.5,2.4,170.1-6.6c42.7-6.8,83.4-21.9,122.8-36.6c27.6-10.3,56.1-20.9,84.9-28.4c32.1-8.4,61.2-12.1,89.1-11.2
		c-22.9-12.9-49.3-15.8-80.8-9c-27.9,6.1-55.9,18.8-83,31.1c-19.3,8.8-37.6,17.1-54.8,22.5c-54.5,17.2-105.2,25.8-154.3,25.8
		c-58.3,0-114.4-12.1-172.3-36.5c-57.5-24.2-107.1-38.3-156.3-44.4c-52.5-6.5-105.9-3.9-163.4,8.3c-72.1,15.2-113.8,5.5-166.6-6.7
		c-20.4-4.7-43.5-10.1-70.4-14.4c-47.8-7.6-92.7,4.7-136.1,16.6C954,534.2,918,544.1,881,543.5c-28.1-0.4-55.7-6.1-82.6-13.2
		c22,6.1,44.7,12.1,67.7,16.7c53.9,10.7,94.1,0.6,136.5-10.1c22.9-5.8,46.5-11.7,73.7-14.9c43.5-5.1,84.6,4.3,124.4,13.4
		c44.4,10.1,90.3,20.6,140.8,11.7c13.3-2.4,26-4.8,38.3-7.2C1417.7,532.6,1450.8,526.2,1483.3,526.2z"/>
	<path id="Shape_16_" d="M1644.8,647c-14.4,0.1-28.7-3.1-41.4-9.4c-20-9.7-35.1-24.9-51.1-40.9c-17.8-17.8-36.1-36.3-62.1-47
		c-23.8-9.6-49.3-15.4-75.3-17c-11.2,2.2-22.3,4.6-32.7,6.9c-4.8,1-9.3,2-13.7,3c-50.8,10.8-99.6,8.2-146.7,5.6
		c-33.7-1.8-68.3-3.7-103.9-0.7c-18.8,3-37.3,7.4-55.3,13c-25.5,8.2-47.2,21.3-68.3,33.9c-20,12.1-38.9,23.4-59,29.2
		c-22.5,6.5-43.4,5-65.7-4.5c-21.1-9.1-40.8-19.1-59.8-28.8c-30.7-15.7-59.7-30.5-91.5-39.7c-35.7-10.5-69.8-12.5-107.2-6.3
		c-45,7.4-77.8,29.5-109.6,50.8c-19.4,13-39.4,26.5-61.8,36.1c-24.3,10.7-51.1,15.8-78.1,15c-46.8-1.3-101.6-11.5-146.6-27.4
		c-39.4-13.9-91.3-39.2-115.7-80.4l-0.1-0.2h0.3c22.8,1.7,45.4,7.4,69.1,17.2c21.1,8.8,41.2,20.1,60.5,31
		c38.2,21.5,77.7,43.8,127.7,48.3c34.8,3.2,62.8-0.6,88-11.9c22.5-10.1,39.6-24.8,57.9-40.3c25-21.3,50.9-43.4,92.9-56.1
		c38.6-11.7,82.1-12.6,133-2.7c42.8,8.3,83.5,22.4,128.3,38.6c31.3,11.3,59.2,16.1,87.7,15c26.1-1,50.5-6.6,78.7-13.2
		c19.7-4.5,41.9-9.7,67.3-13.7c9.1-1.4,18.3-2.5,27.2-3.3c47.1-7.7,97.2-9,146.2-10.1c30.9-0.7,60.2-1.4,88.6-3.7
		c19.4-1.5,40.4-2.5,62.3-0.9c35.1-6.8,73.1-11.4,104-3.3c34.5,9.1,45,27.2,56,46.4c7.7,13.3,15.7,27.1,32.1,39.3
		c13.8,10.3,30.2,14.7,49.9,13.8c17.6-0.9,36.2-5.9,54.2-10.8c13.4-3.6,27.3-7.4,40.6-9.4c28.6-4.3,57.8-5.1,86.1-5.9
		c30.7-0.9,62.5-1.7,93.5-7.1c24.9-4.3,54.4-14.4,85.7-25c75.9-25.9,161.9-55.2,220.8-16.6l0.3,0.2h-0.4
		c-55.4,6.4-109.7,19.7-162.2,32.5c-50.1,12.3-101.9,25-154.6,31.6c-28.1,3.5-56.6,3.3-84.2,3.2c-25.9-0.2-52.7-0.4-78.9,2.6
		c-17.6,2-34.7,6.8-51.3,11.4C1685.4,641.3,1665.1,647,1644.8,647z M1415.8,532.6c25.7,1.6,50.9,7.4,74.5,16.9
		c26,10.7,44.4,29.2,62.2,47c16,16,31.1,31.2,51.1,40.9c34.7,16.8,67.8,7.6,102.9-2.2c16.6-4.6,33.7-9.4,51.3-11.4
		c26.2-2.9,53-2.8,78.9-2.6c27.6,0.2,56.1,0.4,84.2-3.1c52.7-6.7,104.5-19.3,154.6-31.6c52.4-12.8,106.6-26.1,161.9-32.5
		c-58.8-38.2-144.6-9-220.3,16.8c-31.3,10.7-60.8,20.7-85.7,25c-30.9,5.3-62.8,6.2-93.5,7.1c-28.3,0.8-57.6,1.6-86.1,5.9
		c-13.3,2-27.2,5.7-40.5,9.4c-18,4.9-36.7,9.9-54.3,10.8c-19.8,1-36.2-3.5-50.1-13.8c-16.5-12.2-24.5-26-32.2-39.4
		c-11-19.1-21.4-37.2-55.9-46.2C1488.1,521.4,1450.6,525.9,1415.8,532.6z M99.6,538.5c13.5,22.7,44.5,55,115.4,80.1
		c45,15.9,99.8,26.2,146.5,27.4c26.9,0.9,53.7-4.3,78-15c22.3-9.6,42.4-23.1,61.8-36.1c31.8-21.3,64.6-43.4,109.6-50.8
		c37.5-6.2,71.6-4.2,107.3,6.3c31.8,9.3,60.8,24.1,91.5,39.8c19,9.7,38.7,19.7,59.7,28.8c22.2,9.6,43,11,65.5,4.5
		c20-5.8,38.9-17.2,59-29.2c21.1-12.7,42.8-25.8,68.4-34c17-5.4,34.5-9.6,52.2-12.5c-7.9,0.7-15.9,1.7-24,3
		c-25.4,4-47.6,9.1-67.3,13.7c-28.2,6.5-52.7,12.2-78.8,13.2c-28.6,1.1-56.5-3.7-87.8-15c-44.8-16.2-85.4-30.3-128.3-38.6
		c-50.9-9.9-94.3-9-132.9,2.7c-42,12.7-67.8,34.7-92.8,56c-18.3,15.6-35.5,30.3-58,40.4c-25.3,11.4-53.3,15.2-88.1,12
		c-50-4.6-89.6-26.9-127.8-48.4c-19.4-10.9-39.4-22.2-60.5-31C144.7,545.8,122.2,540.2,99.6,538.5z M1157.9,545.7
		c21.6,0,42.8,1.2,63.7,2.3c47.1,2.6,95.9,5.1,146.7-5.6c4.4-0.9,9-1.9,13.7-3c10.1-2.2,20.8-4.5,31.8-6.7
		c-20.4-1.1-40.9-0.8-61.3,1c-28.5,2.3-57.7,2.9-88.7,3.7c-47.8,1.1-96.8,2.3-143,9.6C1133.4,546,1145.7,545.7,1157.9,545.7
		L1157.9,545.7z"/>
	<path id="Shape_17_" d="M1628.7,693c-17,0-33.8-4.1-52.3-12.7c-26.3-12.2-42.2-33.3-57.6-53.7c-12.3-16.3-25.1-33.2-42.9-45.1
		c-15.5-10.3-32.3-16.2-53.2-18.7c-18.4-2.1-37-1.2-56.7-0.2c-4.2,0.2-8.7,0.4-13,0.6c-16.2,0.7-32.6,1.1-48.6,1.6
		c-40.2,1.1-81.7,2.3-121.8,7c-44.9,5.3-83.5,14.8-118,28.8c-25.8,10.5-47.4,22.4-66.5,32.8c-27.1,14.9-50.6,27.7-76.8,32
		c-14,2.3-28.4,2.1-42.3-0.6c-15.9-3-32.8-8.9-51.7-18.1c-50.8-24.7-96.2-40.2-138.8-47.1c-24-4.1-48.5-5.2-72.8-3.4
		c-25,2-49.5,7.8-72.5,17.1c-16.7,6.7-31.7,13.3-46.2,19.7c-29.5,13-55,24.3-83.5,31.5c-31.2,7.9-62.9,9.9-99.8,6.3
		c-31.4-3.1-77.6-9.2-115.7-27c-21.9-10.3-38.1-25.8-53.7-40.8c-13.2-12.7-26.8-25.8-43.8-35.6l-0.4-0.2h0.5
		c19.9,0.5,40.4,5.6,62.7,15.6c19.9,9,39.6,21.1,58.6,32.8c38.1,23.5,77.4,47.7,124.2,51.4c15.6,1.3,31.3,0.7,46.6-1.9
		c13.7-2.4,27-6.4,39.6-11.8c24.6-10.4,45.7-25,68.1-40.4c27.6-19,56.1-38.7,91.9-50.1c43.1-13.7,90.5-11.3,149,7.5
		c25.3,8.1,48.1,25.1,70.2,41.5c21.6,16,42,31.1,63.5,37.6c17.1,5.1,34.7,3.8,55.5-4.3c18.3-7.1,36.2-18.2,55.1-30.1
		c24.4-15.2,49.6-30.9,75.8-37.2c41.9-10,90.5-17.1,144.4-21.3c44-3.4,91.9-4.9,146.2-4.6c49.3,0.3,90.3,2,130.5,21
		c20.1,9.5,37.3,24.4,54,38.7c18.8,16.2,38.3,33,61.8,41.9c40.9,15.4,72.5,5.7,109.1-5.6c9.2-2.8,18.8-5.8,28.9-8.5
		c34.2-9,70-12.4,104.6-15.7c25.2-2.4,51.3-4.8,76.7-9.5c17.6-3.2,42.9-11.4,72.3-21c87.1-28.4,206.5-67.2,249.1-15.1l0.2,0.2h-0.3
		c-69.5,2.7-136.1,20-200.5,36.7c-39.8,10.3-81,21-122.8,28.3c-26.6,4.6-53.6,7.2-79.7,9.8c-39.2,3.9-79.8,7.7-118.8,18.6
		c-9.7,2.7-18.5,5.5-27,8.1c-19.4,6.1-36.2,11.4-54,12.6C1633.4,692.9,1631,693,1628.7,693z M1397.6,561.3c8.3-0.1,16.7,0.4,25,1.3
		c20.9,2.4,37.8,8.4,53.3,18.7c17.9,12,30.7,28.9,43,45.2c15.5,20.4,31.3,41.4,57.6,53.6c21.1,9.7,39.8,13.7,59.2,12.4
		c17.8-1.2,34.5-6.4,54-12.6c8.5-2.7,17.4-5.5,27.1-8.1c39.1-10.8,79.7-14.8,118.9-18.6c26.1-2.6,53.1-5.1,79.7-9.8
		c41.8-7.3,82.9-18,122.8-28.3c64.4-16.7,130.9-34,200.3-36.7c-42.6-51.6-161.6-12.8-248.6,15.4c-29.4,9.6-54.8,17.8-72.3,21
		c-25.4,4.6-51.5,7.1-76.7,9.4c-34.6,3.3-70.4,6.6-104.6,15.7c-10.1,2.7-19.7,5.6-28.9,8.5c-36.6,11.3-68.3,21.1-109.3,5.6
		c-23.5-8.9-43-25.7-61.8-42c-16.7-14.4-33.9-29.2-53.9-38.7c-40.2-19-81.1-20.7-130.4-21c-54.3-0.3-102.1,1.2-146.2,4.6
		c-53.9,4.2-102.4,11.3-144.3,21.3c-26.2,6.2-51.4,21.9-75.7,37.1c-18.9,11.8-36.8,23-55.2,30.1c-8.8,3.6-18.1,5.9-27.7,6.9
		c-9.4,1-19,0-28-2.7c-21.5-6.4-42-21.6-63.6-37.6c-22.1-16.4-44.9-33.3-70.1-41.5c-58.5-18.8-105.8-21.3-148.8-7.5
		c-35.7,11.4-64.2,31-91.8,50c-22.4,15.4-43.6,30-68.2,40.4c-26.9,11.6-56.8,16.4-86.4,13.7c-46.9-3.7-86.2-27.9-124.3-51.4
		c-19-11.7-38.7-23.8-58.5-32.8c-22.1-9.9-42.4-15-62.1-15.6c16.8,9.8,30.3,22.8,43.4,35.4c15.6,15,31.8,30.5,53.6,40.8
		c37.9,17.8,84.2,23.9,115.6,27c36.8,3.6,68.5,1.6,99.7-6.3c28.4-7.2,54-18.5,83.5-31.5c14.5-6.4,29.5-13,46.3-19.8
		c23-9.3,47.6-15,72.7-17.1c24.3-1.8,48.8-0.7,72.9,3.4c42.7,7,88.1,22.4,138.9,47.2c18.8,9.2,35.7,15.1,51.6,18
		c13.9,2.7,28.2,2.9,42.2,0.7c26.2-4.3,49.6-17.1,76.7-32c19.1-10.5,40.8-22.3,66.5-32.9c34.4-14.1,73.1-23.5,117.9-28.8
		c40.1-4.8,81.6-5.9,121.8-7c15.9-0.4,32.3-0.9,48.6-1.6c4.4-0.2,8.8-0.4,13-0.6C1376.7,561.9,1387.3,561.3,1397.6,561.3z"/>
	<path id="Shape_18_" d="M1596.9,714c-2.3,0-4.5,0-6.7-0.1c-13.2-0.2-26.3-2.6-38.7-6.9c-10.7-3.9-20.5-9.4-29.2-16.2
		c-17.1-13.3-30.3-31.1-43.1-48.3c-24-32.4-48.9-65.9-101.2-74.1c-41.2-6.5-96.6-6.7-151.9-0.7c-58,6.3-110.1,18.7-146.7,35
		c-25.1,11.1-47.7,27.9-69.5,44.1c-20,14.9-40.6,30.2-62.9,40.9c-11.1,5.4-23,9.5-35.2,12.1c-13.1,2.7-26.6,3.5-39.9,2.3
		c-39.7-3.4-76.6-19.2-112.3-34.5c-22.6-9.7-46-19.6-70-26.5c-27-7.7-51.8-10.6-76-8.7c-46.3,3.5-89.1,19-130.4,34
		c-48.7,17.6-98.9,35.8-156.6,35.8h-2c-52.5-0.4-104.8-8.9-143.6-23.3c-36.5-13.6-47.3-29.3-61.1-49.2c-6.8-9.9-14.6-21.2-26.7-33.6
		l-0.3-0.3h0.4c17.9,2.6,36,8.1,55.3,16.9c17.3,7.8,34,17.5,50.2,26.8c38.6,22.3,78.4,45.3,130.8,47.3c30.4,1.2,59.1-2.8,90.2-12.7
		c27.4-8.7,52.5-20.5,78.9-32.9c27.5-12.9,55.9-26.3,87.2-35.8c84.3-25.6,160.9,10.7,234.9,45.8c13.5,6.4,27.4,13,40.9,19
		c5.8,2.6,11.1,5,15.7,7.1c37.5,17.1,45.3,20.7,79.6-1.5c15.5-10,26.9-20.7,37.9-31.1c18.9-17.8,36.8-34.5,72.7-45.9
		c40.6-12.8,87.7-23.2,136.1-30.1c46.2-6.6,93-9.8,139.8-9.6c26.2,0.2,47.6,2.6,67.6,7.3c22.1,5.3,43.1,14.1,61.9,26.1
		c18.3,11.4,32.6,28.8,46.5,45.7c17.8,21.5,34.5,41.8,58.6,51c16,6.1,33.8,7.2,54.4,3.4c18.2-3.4,36-10,53.3-16.4
		c6.8-2.6,13.3-4.9,19.7-7.1c44.7-15.2,88.9-22.6,135.8-30.4c10.7-1.8,21.7-3.6,32.6-5.5c19.7-3.5,45.3-10.3,74.9-18.1
		c95.2-25.3,225.6-60,283.8-13.3l0.3,0.2h-0.4c-42.5-0.3-88.4,2.6-140.2,8.9c-46.4,5.6-93.3,13.2-138.7,20.7
		c-14.3,2.3-29.2,4.8-43.8,7.1c-40.7,6.5-83.4,20.2-128.7,34.8C1719.1,693.3,1655,714,1596.9,714z M1304.1,563
		c27.1,0,52.4,1.7,73.8,5.1c52.4,8.2,77.3,41.8,101.4,74.2c12.8,17.2,26,35,43.1,48.3c8.7,6.8,18.6,12.3,29.2,16.2
		c12.3,4.4,25.4,6.7,38.6,6.9c59.7,1.7,126.5-19.8,190.9-40.5c45.3-14.6,88-28.3,128.7-34.8c14.7-2.3,29.5-4.8,43.8-7.1
		c45.4-7.4,92.4-15.1,138.7-20.7c51.7-6.2,97.4-9.1,139.9-8.9c-20.8-16.5-50.8-22.7-85.1-22.7c-61.7,0-137.2,20.1-198.2,36.3
		c-29.6,7.9-55.2,14.7-74.9,18.1c-11,1.9-22,3.8-32.6,5.5c-46.8,7.8-91,15.2-135.7,30.4c-6.4,2.2-12.8,4.6-19.7,7.1
		c-17.3,6.4-35.1,13.1-53.4,16.4c-20.7,3.8-38.5,2.7-54.6-3.4c-24.1-9.2-40.9-29.6-58.7-51.1c-13.9-16.9-28.3-34.3-46.5-45.6
		c-18.8-11.9-39.7-20.7-61.8-26c-19.9-4.8-41.4-7.1-67.4-7.3c-46.8-0.2-93.5,3-139.8,9.6c-48.4,6.8-95.5,17.3-136.1,30.1
		c-35.9,11.3-53.7,28.1-72.6,45.8c-11,10.3-22.5,21.1-37.9,31.1c-34.4,22.3-42.3,18.7-79.9,1.5c-4.7-2.1-9.9-4.5-15.7-7.1
		c-13.5-6-27.5-12.6-40.9-19c-73.9-35.1-150.3-71.4-234.6-45.8c-31.2,9.5-59.7,22.9-87.1,35.8c-26.5,12.5-51.5,24.3-79,33
		c-31.1,9.8-59.8,13.8-90.3,12.7c-52.5-2.1-92.4-25.1-131-47.4c-16.2-9.3-32.9-19-50.2-26.8c-19.2-8.7-37.1-14.2-54.8-16.8
		c11.9,12.3,19.7,23.5,26.4,33.3c13.7,19.9,24.5,35.6,61,49.1c38.7,14.4,91,22.9,143.5,23.3h2c57.6,0,107.8-18.2,156.3-35.7
		c41.4-15,84.2-30.5,130.5-34c24.2-1.8,49.1,1,76.1,8.7c24.1,6.9,47.4,16.9,70.1,26.5c35.7,15.2,72.6,31,112.2,34.4
		c13.3,1.2,26.8,0.4,39.8-2.3c12.2-2.6,24-6.7,35.1-12.1c22.3-10.6,43-26,62.9-40.8c21.8-16.2,44.4-33,69.5-44.2
		c36.6-16.2,88.8-28.7,146.8-35C1251.9,564.5,1278,563,1304.1,563L1304.1,563z"/>
	<path id="Shape_19_" d="M1576.5,753c-33.4,0-57.9-7-76.6-21.9c-17.7-14.2-28.4-33.8-39.7-54.7c-8.4-15.5-17-31.4-29-46.5
		c-14.8-14.3-31.5-27.2-52.5-36.1c-14.1-5.7-28.9-9.9-44-12.4c-15.4-1.1-30.9-0.8-46.3,0.7c-48.1,4.4-97.7,18.5-137.5,29.8
		c-6.2,1.8-12.1,3.4-17.7,5c-39.8,11.1-73.5,33.4-106.1,55c-39.8,26.4-77.4,51.4-121.4,52.2c-3.5,0.1-7,0.1-10.4,0
		c-9.2,1.7-18.4,2.7-27.7,3.2c-22.5,1.2-44.7-2.6-68-11.5c-3.9-1.5-7.8-3.1-11.7-4.8c-16.9-3.5-33.5-7.4-49.9-11.3
		c-47.6-11.2-96.8-22.8-148.3-24.1c-42-1.1-77.7,9.6-115.4,21c-13.6,4.1-27.6,8.3-42.1,12c-39.8,10.1-74,8.1-110.3,6.1
		c-18-1-36.7-2.1-56.8-1.7c-21.2,0.4-40.2,2-56.9,3.5c-33.2,2.9-59.3,5.2-80.1-4.9c-10.8-5.2-19.9-13.7-28-25.9
		c-8.4-12.9-16-30.2-23-53.1l-0.1-0.2h0.3c23.7,6.4,45.1,16.3,65.8,25.9c26.5,12.3,53.9,25,86.7,30.5c9.2,1.5,18.4,3.2,28.1,4.9
		c31.7,5.7,64.5,11.6,95.4,12.8c49.3,1.9,92.8-15.8,134.9-32.9c21.5-8.7,43.7-17.8,66.1-23.9c25.1-6.9,48.1-9.4,70.1-7.6
		c44.8,3.6,80.7,23.9,115.5,43.6c15.6,8.8,31.6,17.9,48.2,25.2c34.6,7.2,70.2,12.9,107.4,13.1c19.9-3.7,39.1-10.2,56.9-19.3
		c24.2-12.2,45.2-27.6,67.3-44c26.8-19.8,54.6-40.3,89-54.7c36.5-15.3,85.5-25.9,134.5-29c24.2-1.6,48.5-1.1,72.6,1.5
		c6.7,0.8,13.1,1.7,19.3,2.8c7.6,0.6,15.1,1.6,22.5,3.1c22.8,4.6,41.8,13.7,56.5,27c6.3,5.7,12.1,11.9,17.4,18.5
		c9.5,9.2,18.3,18.9,26.8,28.6c32.5,36.3,63.2,70.6,126.6,65.2c61.3-5.3,126-25.9,188.6-45.9c47.5-15.1,96.6-30.8,143.4-39.5
		c18.7-3.5,39.4-8.5,61.4-13.9c41.3-10.1,88.1-21.5,131.9-24.4c50.4-3.4,89.1,5,118.4,25.5l0.4,0.2h-0.4
		c-39.6-1.4-82.3,0.6-130.7,6.2c-43.1,5-86.7,12.3-128.9,19.4c-23.9,4-48.7,8.2-73.2,11.9c-62.8,9.5-117,17.7-174.8,41.6
		c-12.1,5-24,10.7-35.5,16.2c-16,7.7-32.5,15.6-49.4,21.5c-19,6.7-36.5,10.1-53.7,10.5C1580.4,753,1578.4,753,1576.5,753z
		 M1432.7,631.4c11.4,14.5,19.7,29.9,27.8,44.8c22.7,42,42.3,78.3,121.9,76.4c17.2-0.4,34.7-3.9,53.6-10.5
		c16.9-5.9,33.4-13.9,49.4-21.5c11.5-5.5,23.5-11.3,35.5-16.2c57.9-23.9,112.1-32.1,174.9-41.6c24.5-3.7,49.2-7.9,73.2-11.9
		c42.2-7.1,85.8-14.4,128.9-19.4c48.1-5.6,90.7-7.6,130.2-6.2c-29.2-20.3-67.8-28.6-117.9-25.2c-43.8,2.9-90.6,14.3-131.9,24.4
		c-21.9,5.4-42.7,10.4-61.4,13.9c-46.8,8.6-95.9,24.3-143.3,39.5c-62.6,20-127.4,40.7-188.7,45.9c-63.6,5.5-94.3-28.9-126.8-65.2
		C1449.9,649.4,1441.6,640.2,1432.7,631.4z M789.2,711.4c3.5,1.5,7,3,10.6,4.4c23.3,8.9,45.5,12.6,67.9,11.5
		c8.8-0.4,17.7-1.4,26.4-2.9C857.7,723.9,822.9,718.4,789.2,711.4L789.2,711.4z M896.8,724c3,0,6,0,9.1,0
		c43.9-0.8,81.5-25.8,121.2-52.2c32.6-21.6,66.3-44,106.2-55.1c5.6-1.6,11.5-3.2,17.7-5c39.8-11.3,89.4-25.5,137.6-29.8
		c14.6-1.4,29.2-1.7,43.8-0.8c-26.4-4.5-56.7-5.8-89-3.8c-49,3.1-98,13.7-134.4,29c-34.4,14.4-62.1,34.9-89,54.7
		c-22.2,16.4-43.1,31.8-67.4,44C935,713.9,916.3,720.3,896.8,724L896.8,724z M77.4,632.7c7,22.8,14.5,40,22.9,52.8
		c8,12.1,17.1,20.6,27.8,25.8c20.7,10.2,46.9,7.8,80,5c16.7-1.5,35.7-3.1,56.9-3.5c20.2-0.3,38.8,0.7,56.8,1.7
		c36.3,2.1,70.5,4,110.2-6.1c14.5-3.7,28.5-7.9,42-11.9c37.8-11.3,73.4-22.1,115.5-21c51.6,1.3,100.8,12.9,148.4,24.1
		c16.1,3.8,32.3,7.6,48.7,11.1c-16.2-7.3-31.9-16.1-47.1-24.7c-34.7-19.7-70.6-39.9-115.4-43.6c-22-1.8-44.9,0.7-70,7.6
		c-22.5,6.1-44.6,15.1-66,23.9c-42.2,17.1-85.7,34.8-135,32.9c-30.8-1.2-63.7-7.1-95.4-12.8c-9.7-1.7-18.9-3.4-28.1-4.9
		c-32.8-5.5-60.2-18.2-86.8-30.5C122.3,649,101,639.1,77.4,632.7L77.4,632.7z M1337.7,581.7c14.2,2.6,28,6.6,41.2,12
		c20.3,8.5,36.5,20.8,51,34.5c-4.9-5.9-10.2-11.5-16-16.7c-14.6-13.2-33.6-22.3-56.4-26.9C1350.9,583.2,1344.3,582.3,1337.7,581.7
		L1337.7,581.7z"/>
	<path id="Shape_20_" d="M756.1,790c-8.9,0-17.8-1-26.5-3c-23.5-5.2-44-18.1-63.8-30.5c-24.3-15.3-49.5-31.1-81.1-33.9
		c-45.4-4-92,2.8-137.1,9.4c-46.1,6.7-93.7,13.6-141.6,9.6c-21.8-1.8-52.2,4.2-84.4,10.5c-27.9,5.5-56.7,11.1-82.5,12.3
		c-29.2,1.3-49.8-3.6-63-15c-7.9-6.8-13.2-16.1-15.9-27.6c-3-12.4-3-28,0-46.1v-0.4l0.2,0.4c14.9,27.4,46.1,42.9,95.5,47.2
		c42.5,3.7,90.6-1.4,133.1-5.9c21.1-2.2,41.1-4.3,57.2-4.9c47.4-1.8,97.1-4.8,137.3-21c12.4-5,23.1-10.3,33.3-15.5
		c13.9-7,27-13.7,41.4-17.5c15.9-4.2,31.8-4.5,50.1-1c15.3,2.9,29.8,8.8,42.6,17.1c11.9,7.7,22.2,17,32.2,26
		c13.9,12.6,28.3,25.5,47.4,34.9c15.5,7.5,33.2,12,54.3,13.7c18.8,1.5,38.6,0.7,57.7,0c12.3-0.5,25-1,37.4-0.9
		c7,0.1,14.5,0.5,22.4,0.9c27.4,1.4,58.5,3.1,79.5-11.1c15.8-10.6,25.4-27.6,35.6-45.5c11.7-20.6,23.8-41.9,46.4-56
		c17.3-10.7,38.9-20,63.9-27.8c25.4-7.7,51.5-13.1,78-16.2c26.5-3.3,53.3-4,79.9-2.2c26.7,2,50.2,6.8,69.6,14.4
		c39.3,15.3,61.5,43.9,83.1,71.5c14.3,18.3,27.7,35.6,45.8,49.3c9.3,7.2,19.7,13,30.8,17.3c13,4.9,26.7,7.8,40.6,8.7
		c67.4,5.1,140.2-23.7,210.6-51.5c35.4-14,68.8-27.2,100.7-35.8l14.4-3.9c51.3-14,115.2-31.5,178.6-38.2c34.5-3.7,65.5-3.7,92.1,0
		c30.8,4.3,56.9,13.6,77.6,27.8l0.4,0.3h-0.5c-57.7-3.8-118.5-1.3-186,7.8c-55.6,7.4-115.3,19.3-182.5,36.3
		c-30.7,7.8-62.1,19-95.3,30.9c-45.3,16.2-92.1,33-138.7,41.1c-25.2,4.3-47.9,5.8-69.6,4.3c-23.6-1.4-46.7-6.7-68.2-15.7
		c-38.2-15.9-55.3-45.1-71.9-73.3c-9-15.3-18.3-31.2-30.8-44.3c-13.5-14.4-31.3-24.8-51.2-30c-42.5-11.4-101.6-11.9-158.2-1.2
		c-29.3,5.5-56.1,13.6-79.5,24c-25.3,11.3-45.5,24.8-60,40.2c-10.3,11-16.7,24.4-22.9,37.3c-8.5,17.8-16.6,34.7-33.9,44.7
		c-17.5,10.2-46.4,10.2-74.2,10.2c-19,0-36.9,0-50.6,3.2c-13.1,3.2-25.9,7-38.5,11.5C796.6,783.7,777.9,790,756.1,790z M556.4,721.1
		c9.5,0,18.9,0.4,28.3,1.2c31.7,2.8,56.9,18.6,81.2,33.9c19.8,12.4,40.3,25.4,63.7,30.5c34.5,7.6,59-0.6,87.5-10.2
		c12.6-4.5,25.5-8.3,38.6-11.5c13.7-3.1,31.6-3.2,50.6-3.2c27.8,0,56.6,0,74.1-10.2c17.2-10,25.3-26.8,33.7-44.6
		c6.2-12.9,12.6-26.4,23-37.4c14.5-15.4,34.7-29,60.1-40.3c25.3-11,52.1-19.1,79.6-24c56.6-10.7,115.8-10.2,158.4,1.2
		c20,5.1,37.9,15.6,51.4,30c12.5,13.1,21.8,29,30.9,44.3c16.5,28.2,33.7,57.3,71.8,73.2c21.5,9,44.6,14.3,68.2,15.7
		c21.6,1.4,44.4,0,69.6-4.3c46.6-8,93.4-24.8,138.7-41c33.3-11.9,64.6-23.2,95.4-30.9c67.3-17,127-28.9,182.6-36.3
		c67.3-9,128-11.6,185.6-7.8c-20.6-14-46.5-23.3-77.1-27.5c-26.5-3.7-57.5-3.7-92,0c-63.4,6.7-127.3,24.2-178.6,38.2l-14.4,3.9
		c-31.9,8.6-65.3,21.8-100.7,35.8c-64.9,25.7-131.9,52.1-194.8,52.1c-5.3,0-10.7-0.2-15.9-0.6c-14-0.9-27.7-3.9-40.7-8.7
		c-11.2-4.3-21.6-10.1-30.9-17.3c-18.1-13.8-31.6-31.1-45.8-49.4c-21.5-27.6-43.7-56.1-82.9-71.4c-19.4-7.6-42.8-12.4-69.5-14.4
		c-26.6-1.8-53.4-1.1-79.8,2.2c-26.5,3.1-52.6,8.5-77.9,16.2c-25.1,7.8-46.6,17.1-63.9,27.8c-22.5,14-34.6,35.3-46.3,55.9
		c-10.2,18-19.8,35-35.7,45.6c-21.1,14.2-52.2,12.5-79.7,10.9c-7.9-0.4-15.3-0.8-22.3-0.9c-12.4-0.1-25.1,0.4-37.4,0.9
		c-19.1,0.8-38.8,1.6-57.7,0c-21.1-1.7-38.9-6.2-54.4-13.8c-19.2-9.4-33.6-22.4-47.5-34.9c-10-9-20.3-18.3-32.2-26
		c-12.7-8.3-27.2-14.2-42.5-17.1c-18.3-3.5-34.1-3.2-50,1c-14.3,3.8-27.4,10.3-41.3,17.4c-10.3,5.2-20.9,10.6-33.4,15.6
		c-40.3,16.2-90,19.3-137.4,21.1c-16.1,0.6-36,2.7-57.2,4.9c-42.5,4.5-90.7,9.6-133.2,5.9c-49.2-4.3-80.4-19.7-95.5-47
		c-2.8,18-2.8,33.3,0.1,45.7c2.7,11.5,8,20.7,15.8,27.5c13.1,11.3,33.7,16.2,62.8,14.9c25.7-1.2,54.5-6.8,82.4-12.3
		c32.3-6.3,62.7-12.3,84.5-10.5c47.9,4,95.5-2.9,141.5-9.6C483.4,726.5,520.1,721.1,556.4,721.1L556.4,721.1z"/>
	<path id="Shape_21_" d="M766.3,806c-6,0-12.5-0.2-19.4-0.8c-32.6-2.5-65.5-8.9-97.3-15.2c-17.4-3.4-35.4-7-53.1-9.8
		c-104.5-16.7-214.1-21.6-320-26.3l-2.8-0.1c-11-0.5-33.4,5.2-59.4,11.8c-56.3,14.3-133.4,33.8-162,8.3c-5.8-5.4-9.5-12.4-10.6-19.9
		c-1.5-8.8-0.5-19.4,2.8-31.8v-0.3l0.2,0.2c11.2,13.6,22.5,23.5,34.4,30.2c10.7,6.1,22.8,9.7,35.4,10.6c24.4,1.9,51.3-5.5,82.4-14.1
		l2-0.5c44.1-12.1,82.2-12.9,122.5-13.8c17.9-0.4,36.4-0.8,56.2-2.2c29.5-2.1,60.1-11.6,89.7-20.9c25.9-8.1,52.7-16.5,78.9-19.9
		c12.9-1.8,26.1-2.2,39.1-1c13.4,1.3,26.4,4.6,38.6,9.9c31.5,13.6,49.1,34.4,64.6,52.8c24.1,28.6,44.9,53.3,107.7,44.8l3.1-0.4
		c11.2-1.5,25-3.4,39.8-5.5l5.6-1.8c12.9-4.3,26.3-8.7,42.8-12.9c14.6-3.6,29.2-4.3,43.4-4.9c6.6-0.3,13.1-0.6,19.4-1.1
		c3.3-0.9,6.4-1.9,9.3-2.8c26.9-9,41.3-28.4,56.6-49c10.3-13.9,21.1-28.4,36.2-40.3c2.8-2.2,5.8-4.4,8.9-6.6
		c5.7-5.7,12.2-10.7,19.2-14.9c19.2-11.2,42.8-20.9,68.3-28c2.6-0.7,5.1-1.4,7.7-2.1c14.9-4.7,30.1-8.5,45.4-11.5
		c30.9-5.9,59.9-7.7,86.1-5.3c29.1,2.7,53.7,10.5,73.2,23.2c29.4,19.2,46.6,42.9,63.2,65.7c13.8,19,26.9,36.9,45.8,50.8
		c21.3,15.7,46.9,24,80.7,26.2c79.5,5.2,157.7-25.9,233.2-55.9c37-14.7,71.9-28.6,107.1-38.6l2-0.6c41.1-11.6,109.8-31.1,176-38.8
		c36.5-4.2,68.4-4.4,94.8-0.6c31.2,4.6,55.7,14.9,72.7,30.7l0.3,0.3h-0.4c-124.1-11.1-248.6,0-370.1,32.8
		c-35.7,9.7-71.9,24.8-106.8,39.4c-32.7,13.7-66.5,27.8-100.5,37.8c-38.2,11.2-72.4,15.8-104.4,14c-84-4.7-109.6-39.8-142-84.2
		c-12.6-17-25.6-34.9-43.3-53.1c-47.6-49-138.1-51.4-213.3-32.1c-35.9,11.3-69.5,27.1-94.8,44.8c-12,11.9-21.1,26.1-29.8,40.1
		c-11.3,17.9-22,34.8-38.1,45.4c-13.4,8.8-27.9,11.9-43.2,13.2c-28.9,8.1-73.6,15.3-111.2,20.7C816.1,800.1,796,806,766.3,806z
		 M272.3,753.5c0.5,0,1,0,1.4,0l2.8,0.1c105.9,4.7,215.5,9.6,320.1,26.3c17.7,2.8,35.7,6.4,53.1,9.8c31.8,6.3,64.6,12.7,97.2,15.2
		c40.3,3.1,63.7-3.4,90.7-12.3c-14.3,2-27.5,3.9-38.4,5.3l-3.1,0.4c-63,8.5-83.8-16.3-107.9-44.9c-15.5-18.4-33-39.2-64.5-52.7
		c-12.2-5.2-25.2-8.6-38.5-9.8c-13-1.2-26.1-0.9-39.1,1c-26.2,3.4-53,11.8-78.9,19.9c-29.6,9.3-60.2,18.9-89.7,21
		c-19.8,1.4-38.3,1.8-56.2,2.2c-40.3,0.9-78.4,1.7-122.4,13.8l-2,0.5c-31.1,8.6-58,15.9-82.5,14.1c-12.6-0.9-24.8-4.6-35.5-10.7
		c-11.9-6.7-23.1-16.5-34.3-30c-3.3,12.2-4.2,22.8-2.8,31.4c1,7.5,4.8,14.5,10.6,19.8c28.4,25.4,105.5,5.9,161.8-8.4
		C239.2,759.1,260.9,753.6,272.3,753.5L272.3,753.5z M1242.6,616.7c23.7,0,45.5,2.8,65.1,8.3c25.7,7.3,46.6,19.1,62.2,35.1
		c17.8,18.3,30.8,36.1,43.3,53.3c32.3,44.3,57.9,79.4,141.7,84.1c32,1.8,66.1-2.8,104.3-14c34-10,67.8-24.1,100.5-37.8
		c35-14.6,71.1-29.8,106.8-39.5c121.4-32.8,245.8-43.9,369.8-32.9c-17-15.6-41.3-25.8-72.2-30.4c-26.4-3.9-58.3-3.7-94.7,0.6
		c-66.1,7.7-134.9,27.2-175.9,38.8l-2,0.6c-35.1,10-70.1,23.9-107.1,38.6c-70,27.8-142.1,56.5-215.6,56.5c-5.9,0-11.8-0.2-17.8-0.6
		c-33.8-2.2-59.5-10.6-80.9-26.3c-19-14-32-31.9-45.9-50.9c-16.7-22.9-33.9-46.5-63.2-65.7c-19.4-12.7-44-20.5-73-23.2
		c-26.2-2.4-55.1-0.7-86,5.3c-13.8,2.7-27.4,6-40.7,10.1c22.2-5.4,45.1-8.7,68-9.8C1233.7,616.8,1238.2,616.7,1242.6,616.7z
		 M948.9,771.9c-5.9,0.5-12,0.7-18.1,1c-14.1,0.6-28.7,1.3-43.3,4.9c-16.5,4.1-29.9,8.6-42.8,12.9l-4.2,1.4
		C877.2,786.7,920.4,779.7,948.9,771.9z M1060.1,673.9c-2.6,1.9-5.2,3.8-7.6,5.7c-15.2,11.9-25.9,26.3-36.2,40.2
		c-15.3,20.6-29.7,40-56.7,49c-2.5,0.9-5.1,1.7-8,2.5c14.7-1.4,28.7-4.6,41.7-13.1c16-10.5,26.7-27.4,38-45.3
		C1039.9,699.4,1048.7,685.6,1060.1,673.9L1060.1,673.9z M1151.4,629.5c-26.5,7.2-51,17.1-70.8,28.7c-6.6,3.9-12.7,8.5-18.1,13.8
		C1086.6,655.3,1117.9,640.5,1151.4,629.5L1151.4,629.5z"/>
	<path id="Shape_22_" d="M808.1,839c-50.8,0-102.8-7.3-152.3-15.1c-15.6-2.4-31.5-5-46.9-7.4c-89.1-14.3-180.7-28.9-271.4-32.6
		c-4,0.3-8,0.5-12,0.6c-26.7,1.1-56,7.8-87,15c-31.3,7.2-63.4,14.5-93.6,16c-5.8,1.1-11.6,2.1-17.3,2.9c-38.8,5.6-64.8,2.7-79.6-8.8
		c-11.5-9-16-23.5-13.2-43.1v-0.4l0.2,0.3C45.9,783,59.1,795,75.2,803.2c14.3,7.2,30.6,11.2,49.8,12.2c6.6,0.3,13.2,0.3,19.9,0
		c28-5.3,57-13.4,81.2-20.1s43.6-12.1,53-12.3c19.4-0.3,39-0.1,58.6,0.7c28.6-1.9,57.8-5.9,86.1-9.8c33.2-4.6,67.4-9.3,100.9-10.6
		c37.5-1.4,69.9,1.9,98.9,9.9c17.8,5,34.8,10.2,51.2,15.3c74.3,23,138.4,42.8,227.6,17.5c25.8-7.4,49.2-20.2,68.5-37.5
		c18.2-15.9,33-34.7,47.3-52.9c12-15.2,24.3-30.9,38.5-44.7c15.9-15.5,32.5-26.9,50.6-35c39.3-17.5,90-19.7,142.5-6.1
		c23.8,6.2,46.6,15.2,67.9,26.7c20.8,11.3,39.1,24.9,52.9,39.2c32.2,33.2,67.9,66.8,110.3,87.5c42.4,20.7,88.2,27.4,144.7,21.4
		c31.1-3.3,65.7-12.1,105.6-26.9c35.7-13.2,72.5-30,108.2-46.2c66.5-30.3,135.2-61.5,203.3-73.5c36.7-6.4,70.1-6.8,102-1.2
		c17.5,3.1,34.5,8,50.8,14.7c17.9,7.4,34.8,16.5,50.5,27.3l0.4,0.3h-0.5c-27.2-1.8-54.1-4.8-80.1-7.6c-37.7-4.1-73.2-8-109.9-8.9
		c-41.6-0.9-77.3,2.3-112.2,10.1c-55,12.3-97.5,42.4-138.5,71.6c-19,13.5-38.6,27.4-59,39.1c-22.8,13.1-44.2,22-65.6,27.4
		c-36.4,9-87.7,8.6-140.7-1.3c-53-9.9-100.6-28-130.3-49.6c-27.1-19.7-42.4-43.1-57.2-65.8c-12.5-19.2-24.3-37.3-42.2-50.9
		c-20-15.3-45-23-78.5-24.2c-23.4-1-46.8,1.9-69,8.7c-20.5,6.4-39.8,15.7-57.2,27.6c-35.1,23.2-65.4,55.4-94.7,86.5
		c-3.1,3.2-6.1,6.5-9.2,9.7c-19.9,21-44.9,37.6-73,48.3c-25.5,9.9-54.1,15.8-87.3,18.2C830.1,838.7,819.1,839,808.1,839z
		 M339.9,783.7c89.9,3.8,180.7,18.3,269,32.5c15.5,2.5,31.3,5,46.9,7.4c60.3,9.4,124.2,18.3,185,14c70.1-4.9,122.5-26.6,160.1-66.4
		c3.1-3.2,6.1-6.5,9.2-9.7c29.3-31.1,59.7-63.4,94.8-86.6c17.4-11.8,36.8-21.1,57.3-27.6c22.3-6.8,45.7-9.8,69.1-8.7
		c33.6,1.2,58.6,8.9,78.7,24.3c17.9,13.7,29.8,31.8,42.3,51c14.8,22.6,30.1,46.1,57.2,65.8c29.6,21.6,77.1,39.6,130.2,49.5
		c53.1,9.9,104.1,10.3,140.5,1.3c21.3-5.3,42.8-14.2,65.5-27.3c20.3-11.7,40-25.6,59-39.1c41.1-29.2,83.6-59.3,138.6-71.6
		c35-7.8,70.7-11,112.4-10.1c36.7,0.8,72.3,4.7,110,8.9c25.8,2.8,52.5,5.8,79.6,7.6c-15.6-10.7-32.3-19.7-50-27.1
		c-16.2-6.6-33.2-11.6-50.7-14.7c-31.9-5.6-65.2-5.2-101.9,1.2c-68,11.9-136.8,43.2-203.3,73.5c-35.6,16.2-72.5,33-108.2,46.2
		c-39.9,14.8-74.5,23.6-105.6,26.9c-56.6,6-102.6-0.8-144.9-21.4s-78.2-54.3-110.4-87.6c-13.9-14.3-32.1-27.8-52.9-39.2
		c-21.3-11.6-44.1-20.5-67.8-26.7c-52.5-13.5-103-11.4-142.3,6.1c-18.2,8.1-34.7,19.5-50.6,35c-14.2,13.8-26.5,29.5-38.5,44.7
		c-14.3,18.2-29.2,37-47.3,52.9c-19.3,17.3-42.8,30.2-68.6,37.5c-89.2,25.4-153.4,5.5-227.7-17.5c-16.4-5.1-33.3-10.3-51.2-15.3
		c-29-8.1-61.4-11.3-98.8-9.9c-33.4,1.3-67.7,6-100.8,10.6C396.1,777.9,367.8,781.8,339.9,783.7z M35.1,767
		c-2.7,19.3,1.8,33.6,13.2,42.5C63,821,89,823.8,127.7,818.2c5.1-0.7,10.2-1.6,15.5-2.6c-6.1,0.2-12.1,0.3-18.1,0
		c-19.2-1-35.6-5-49.9-12.2C59.1,795.3,45.9,783.3,35.1,767L35.1,767z M295.8,783c-5.6,0-11.2,0-16.8,0.1
		c-9.3,0.2-28.6,5.5-52.9,12.3c-23.6,6.6-51.9,14.4-79.3,19.7c29.5-1.7,61-8.9,91.6-15.9c31.1-7.1,60.4-13.8,87.1-15
		c3.2-0.1,6.3-0.3,9.5-0.5C321.9,783.3,308.8,783.1,295.8,783z"/>
	<path id="Shape_23_" d="M1636.3,862c-3,0-5.9,0-8.9-0.1c-25.3-0.7-50.5-3.4-75.4-8c-48.9-9.2-96.3-24.4-140.8-45.1
		c-32.3-15.1-54.4-36.7-75.9-57.7c-15.3-15-29.8-29.2-47.8-41.1c-19.6-13.2-42.4-21.8-66.4-25.3c-36.5-5.6-65.9-2-92.6,11.3
		c-23.9,11.9-42.8,30.1-62.9,49.4c-22.5,21.6-45.6,43.9-78.7,60.8c-95.8,48.9-176.7,62-288.5,46.8c-23.4-3.2-47.2-6.6-70.3-10
		c-106.8-15.5-217.1-31.4-326.1-27.9c-23.9,0.8-53.5,9.6-84.9,19c-36.7,11-74.6,22.3-108,22.3h-0.7c-18.3-0.1-33.2-3.5-45.9-10.5
		c-14.1-7.8-25.3-20.4-33.2-37.3l-0.4-0.9l0.6,0.7c12.9,14.8,26.3,25.2,40.9,32c13,6.1,27.4,9.2,42,9.2c28.4,0.2,56.9-9.7,87.1-20.1
		c21.1-7.3,42.8-14.8,64.6-18.6c47.3-8.3,110.2-12.8,172.7-12.5c66.6,0.4,127.5,6.2,171.6,16.4l11.6,2.7
		c55.3,12.9,112.5,26.1,170,29.1c65.6,3.4,119.8-7.9,165.5-34.3c34.6-20,58.5-49.4,81.6-77.8c38.2-47,74.3-91.4,153.2-87.2
		c32.3,1.7,58.2,9.3,81.6,23.8c20.8,13,37.1,30,54.3,47.9c16.9,17.7,34.5,36,58.1,52.5c20.9,14.4,43.8,26.2,68,35.2
		c24.7,9.2,50.5,16.1,76.7,20.4c52.3,8.7,105.8,8.9,158.2,0.6c52.1-8.4,112.2-39,175.9-71.4c67-34.1,136.3-69.3,203-82.4
		c36.2-7.1,68-7,97.3,0.3c16.1,4,31.5,10.2,45.5,18.4c15.8,9.3,30.2,20.6,42.7,33.6l0.3,0.3l-0.4-0.1
		c-49.7-9.2-102.6-18.4-154.9-20.7c-25.7-1.3-51.4-0.5-76.9,2.2c-26.4,2.8-52.3,8.2-77.4,16.1c-43.3,13.6-78.1,39.3-111.8,64.1
		c-19.3,14.2-39.3,29-60.4,41.1c-23.7,13.6-46.7,22.4-70.1,26.9C1679.1,860.1,1657.7,862.1,1636.3,862L1636.3,862z M1190,681.9
		c10.5,0.1,20.9,0.9,31.2,2.6c24.1,3.4,46.9,12.1,66.5,25.3c17.9,11.9,32.4,26.1,47.8,41.1c21.4,20.9,43.5,42.6,75.8,57.6
		c44.5,20.7,91.9,35.9,140.8,45.1c24.8,4.7,50,7.4,75.3,8c24.3,0.7,48.7-1.2,72.6-5.7c23.4-4.5,46.3-13.3,70-26.9
		c21.2-12.1,41.1-26.8,60.4-41.1c33.7-24.8,68.5-50.5,111.8-64.2c25.1-7.9,51.1-13.3,77.5-16.1c25.6-2.7,51.3-3.4,77-2.2
		c52.1,2.3,104.9,11.5,154.6,20.7c-12.4-12.8-26.7-24.1-42.4-33.4c-14.1-8.2-29.4-14.4-45.5-18.4c-29.3-7.2-61-7.3-97.1-0.3
		c-66.8,13-136,48.3-203,82.4c-63.7,32.4-123.8,63-176,71.4c-52.4,8.3-106,8.1-158.3-0.6c-26.3-4.4-52-11.2-76.8-20.5
		c-24.2-9-47.1-20.9-68-35.3c-23.7-16.4-41.2-34.8-58.2-52.5c-17.2-18-33.4-34.9-54.2-47.9c-23.3-14.5-49.2-22.1-81.4-23.8
		c-78.7-4.1-114.8,40.2-152.9,87.1c-23.1,28.4-47,57.9-81.7,77.9c-45.8,26.5-100,37.7-165.7,34.4c-57.5-3-114.7-16.3-170-29.1
		l-11.6-2.7c-44-10.2-104.9-16-171.5-16.4c-62.5-0.3-125.4,4.2-172.7,12.5c-21.7,3.8-43.5,11.3-64.5,18.6
		c-29.9,10.3-58.2,20.1-86.4,20.1h-0.8c-14.6,0-29.1-3.1-42.2-9.2c-14.4-6.7-27.6-17-40.3-31.4C38,825.8,49,838,62.8,845.7
		c12.6,7,27.6,10.4,45.7,10.5c33.6,0.2,71.7-11.3,108.6-22.3c31.4-9.4,61-18.3,85-19c109-3.5,219.4,12.4,326.2,27.9
		c23.1,3.3,46.9,6.8,70.3,10c27,3.8,54.3,5.8,81.6,6c73.1,0,135.8-16.6,206.7-52.7c33-16.8,56.2-39.1,78.6-60.7
		c20.1-19.4,39-37.6,62.9-49.5C1147.2,686.5,1167.2,681.9,1190,681.9z"/>
	<path id="Shape_24_" d="M137.2,923c-6.3,0-12.6-0.2-18.7-0.7c-42.8-3.2-74.3-18.6-96-47.1l-0.5-0.6l0.7,0.4
		C36,884,51,890.5,66.9,894.4c14.3,3.4,29.1,4.5,43.9,3.5c29.2-1.8,59-10.9,87.8-19.7c26.1-7.9,53-16.2,80.1-19.3
		c69.9-8.1,143.7,1.9,215.1,11.6c36.2,4.9,73.7,10,109.6,12.4c13.7,1,26.8,1.8,39.5,2.5c5.3-0.2,10.7-0.4,16-0.6
		c13.5-0.5,27.3-1,40.6-1.4c84.9-3,172.4-6,257.7-16.5c27.1-7.6,53.5-18.4,79.3-28.9c22.9-9.4,46.7-19.1,70.4-26.3
		c26.6-8.1,50.4-12.1,72.8-12.4c46-0.6,93.8,14.2,140,28.4c30.3,9.3,61.7,19,91.8,24c119.1,19.8,232.2,21.2,336.2,4.1
		c75.7-12.4,134.2-39.9,196.2-69.1c9.1-4.3,18.3-8.6,27.7-13c6.7-3.9,13.6-7.9,20.7-11.7c13.1-7.1,27.3-12.3,42.1-15.3
		c44.8-15.4,136-27.6,187-1.7c20.6,10.5,32.6,26.2,35.7,46.7v0.2l-0.2-0.1c-10.4-3.5-20.7-7.3-31.7-11.3
		c-60.9-22-128.4-46.4-190.7-33.6c-2.9,1-5.7,2-8.3,3.1c-18.9,7.7-36.9,15.8-54.5,23.9c-18.8,11.1-35.8,22.4-52.4,33.4
		c-25.5,16.8-49.5,32.7-76.9,46.2c-30.1,14.9-62.6,25.4-96.2,31c-47.7,8.1-96.2,12-144.7,11.6c-48.5-0.2-96.8-4.9-144.2-14
		c-31.7-6.2-63.7-16-94.7-25.4c-51.1-15.6-103.9-31.8-157.9-32.7c-46-0.8-91.9,10.6-136.3,21.6c-27.8,6.9-56.5,14-84.9,18.1
		c-8.7,1.2-17.4,2.4-26.1,3.5c-9.3,2.6-18.8,4.8-28.4,6.6c-49.4,9-102.5,13.8-162.3,14.7c-37.5,0.6-77.5-0.3-123.8-2.8
		c-18,0.6-36.1,1.3-53.8,1.8c-100,3.3-203.3,6.7-303.8,17.4c-15.7,1.7-32.5,4.4-50.3,7.3C202.5,917.5,169.2,923,137.2,923z
		 M23.2,875.7c21.7,28,52.9,43.1,95.4,46.4c37.4,2.8,77.5-3.7,116.2-10.1c17.8-2.9,34.6-5.6,50.4-7.3
		C385.6,894,489,890.6,588.9,887.2c16.7-0.6,33.9-1.1,51-1.7c-11.8-0.7-24-1.4-36.6-2.3c-35.8-2.5-73.3-7.5-109.6-12.4
		c-71.4-9.6-145.2-19.6-215-11.6c-27.1,3.1-54,11.3-80.1,19.3c-28.8,8.8-58.6,17.9-87.8,19.7c-14.8,1.1-29.6-0.1-44-3.5
		C51.1,890.8,36.3,884.4,23.2,875.7z M1199.7,823.7c1.6,0,3.1,0,4.7,0c54,1,106.9,17.1,158,32.7c30.9,9.5,62.9,19.3,94.6,25.4
		c47.4,9.1,95.7,13.8,144.2,14c48.5,0.5,97-3.4,144.7-11.6c33.6-5.6,66.1-16.1,96.1-31c27.4-13.4,51.4-29.3,76.9-46.2
		c16-10.6,32.3-21.4,50.2-32.1c-8.6,4-17,7.9-25.4,11.9c-62,29.2-120.6,56.7-196.2,69.1c-104,17.2-217.2,15.8-336.2-4
		c-30.1-5-61.5-14.7-91.8-24c-45.4-14-92.3-28.4-137.5-28.4h-2.5c-22.4,0.3-46.2,4.3-72.7,12.4c-23.7,7.2-47.4,16.9-70.3,26.3
		c-25.3,10.3-51.1,20.9-77.7,28.5c8.2-1,16.3-2.1,24.4-3.2c28.4-4,57.1-11.2,84.9-18.1C1110.9,834.7,1155.2,823.7,1199.7,823.7z
		 M645.6,885.5c45,2.4,84.2,3.3,120.9,2.7c59.8-1,112.9-5.8,162.2-14.8c9-1.6,17.9-3.7,26.7-6.2c-84.8,10.3-171.8,13.3-256.1,16.3
		c-13.3,0.5-27.1,0.9-40.6,1.4L645.6,885.5z M2070.6,743.2c51.7,0,105.3,19.4,154.5,37.2c10.9,4,21.3,7.7,31.5,11.2
		c-3.1-20.3-15.1-36-35.5-46.3c-30.5-15.5-72.7-16.2-102.7-14.1c-29,2-59.8,7.8-82.2,15.2C2047.5,744.3,2059.1,743.2,2070.6,743.2z
		 M2032.3,747.5c-14.1,3.1-27.6,8.1-40.1,14.9c-6.3,3.4-12.5,6.9-18.4,10.4c16.9-7.7,34.1-15.4,52.1-22.8
		C2027.9,749.1,2030,748.3,2032.3,747.5L2032.3,747.5z"/>
	<path id="Shape_25_" d="M132,937c-7.7,0-15.5-0.3-23-0.9c-37.3-3.1-66.5-14.7-89.2-35.4l-0.8-0.7l1,0.5
		c55,29.8,120.3,16.1,183.5,2.8c34.2-7.2,66.5-14,97.5-14.4c61.3-0.7,123.8,3.9,184.2,8.4c60.5,4.5,123,9.1,184.5,8.4
		c106.8-1.3,200.3-8.9,285.7-23.4c27.9-4.7,55.4-13.1,82-21.1c30.3-9.2,61.6-18.7,93.5-22.8c57.6-7.5,118.2,7,176.7,21.1
		c34.4,8.2,69.9,16.8,104,20.5c117.4,12.9,240.9,10.8,367.2-6.3c42-5.6,83.3-15.3,123.1-28.9c36.7-12.5,71.2-27.7,107.8-43.7
		c18-7.9,36.5-16.1,56.5-24.4c16.9-7.1,48.6-12.1,78.9-12.5c37.5-0.5,67.6,6,84.6,18.2c14.5,10.4,19.9,24.9,16.1,43v0.2l-0.2-0.1
		c-29.1-15.2-61.3-24.8-94.6-28.5c-29.6-3.2-60.4-1.8-94,4.4c-62.5,11.4-125.7,37.8-186.8,63.4c-52.7,22.1-107.3,44.9-160.8,57.7
		c-27.4,6.6-55.6,10.3-83.9,11c-26.3,0.6-52.6-1.1-78.6-5.1c-51.1-7.6-100.9-22.7-149.1-37.4c-68.2-20.7-138.6-42.1-216.3-44.2
		c-47-1.3-96.2,12.6-143.7,26c-32.3,9.1-65.6,18.5-97.7,22.9c-109.9,15.3-224,18.4-334.3,21.4l-10,0.3c-38,1-76.7,1.4-114,1.8
		c-76.9,0.7-156.5,1.5-234.6,8.1c-12.1,1-24.4,2.4-37.3,3.9C184.3,933.9,157.8,937,132,937z M20.8,901.2
		c22.5,20.2,51.4,31.6,88.3,34.7c32.9,2.7,67.5-1.3,100.9-5.1c13-1.5,25.3-2.9,37.3-3.9c78.1-6.6,157.7-7.4,234.7-8.1
		c37.4-0.4,76-0.7,114-1.8l9.9-0.3c110.3-3,224.3-6.1,334.3-21.3c32-4.5,65.4-13.9,97.6-22.9c47.6-13.4,96.8-27.3,143.8-26
		c77.8,2.1,148.2,23.4,216.3,44.1c48.2,14.6,98.1,29.8,149.1,37.4c25.9,4,52.2,5.7,78.5,5.1c28.3-0.7,56.5-4.4,83.8-11
		c53.5-12.8,108-35.6,160.8-57.7c61.1-25.5,124.3-51.9,186.8-63.4c33.7-6.2,64.5-7.6,94.1-4.4c33.3,3.6,65.4,13.3,94.5,28.4
		c3.7-18-1.7-32.3-16-42.6c-17-12.2-47-18.7-84.5-18.2c-30.2,0.4-61.8,5.4-78.7,12.5c-20,8.3-38.6,16.5-56.6,24.4
		c-73.2,32.1-136.5,59.9-230.9,72.7c-126.3,17.1-249.8,19.3-367.3,6.3c-34.1-3.7-69.6-12.3-104-20.5c-58.5-14-119-28.5-176.6-21.1
		c-31.9,4.1-63.2,13.6-93.5,22.8c-26.6,8-54.1,16.4-82,21.1c-85.5,14.5-178.9,22.2-285.8,23.4c-61.5,0.7-124.1-3.9-184.6-8.4
		s-123.1-9.1-184.4-8.3c-30.8,0.4-63.2,7.2-97.4,14.4c-35.4,7.4-71.5,15-106,15C70.7,918.5,44.8,913.9,20.8,901.2z"/>
	<path id="Shape_26_" d="M1561.9,957c-7,0-13.9-0.1-20.8-0.4c-41.4-1.6-82.5-7.6-122.4-18c-29.4-7.6-59.5-19.3-88.5-30.6
		c-24.2-9.4-48.7-18.9-73.6-26.5c-13.8-2.4-27.7-4.2-41.8-5.2c-26.1-1.9-53.1-0.3-82.6,5.1c-26.3,4.8-52.5,12.1-77.7,19.2
		c-28.1,7.9-57.2,16-87.8,21.2c-46.6,7.8-95.1,10.6-143.6,11.4c-70.2,7-145.8,10.2-232.6,9.9c-45.9-0.2-93-2.9-138.5-5.5
		c-62.4-3.7-127-7.4-189.6-4.7c-22,1-45,4.8-69.4,9c-61.7,10.4-125.4,21.1-175.2-16.7l-0.6-0.5l0.8,0.3
		c61.2,20.5,132.2,13.7,200.8,7.1c34.6-3.3,67.3-6.5,98.8-6.3c58.8,0.3,118.5,2,176.2,3.6c63.7,1.8,129.5,3.6,194.3,3.6h4.1
		c14.3,0,28.9,0.1,43.2,0.2c29,0.2,58.4,0.3,87.8-0.2c24.8-2.5,49-5.5,72.7-8.9c34.9-5.1,71.4-15.4,110.1-26.3
		c56.7-16,115.3-32.5,168-31.2c28,0.7,55.6,6.6,82.8,14.8c35.5,6.1,70.2,15.9,104,25.4c56.6,15.8,115.2,32.3,176.5,31.5
		c56.9-0.7,114.2-12.8,169.7-24.6c29.4-6.2,59.8-12.7,89.5-17.2c102-15.7,182.4-42.6,275.5-73.8l12.8-4.3
		c22.5-7.2,45.8-12,69.5-14.4c15-1.4,28.2-1.4,39.2,0.1c12.9,1.8,22.8,5.6,29.5,11.3c10.9,9.4,13.1,24.1,6.5,43.7v0.1h-0.1
		c-55.7-16.6-96-23.1-134.8-21.8c-39.2,1.3-78.6,10.5-131.8,30.8c-89.4,34.2-192.4,61.8-297.8,79.8
		C1630.9,954,1596.4,956.9,1561.9,957L1561.9,957z M1258.6,882c24.2,7.4,48.2,16.7,71.7,25.9c29,11.3,59,22.9,88.5,30.5
		c39.9,10.4,81,16.4,122.4,18c41.4,1.4,82.9-1.4,123.6-8.5c105.4-18,208.4-45.6,297.8-79.8c53.2-20.4,92.7-29.5,131.9-30.8
		c38.8-1.3,79.1,5.3,134.7,21.8c6.5-19.4,4.2-34-6.5-43.3c-6.6-5.7-16.5-9.5-29.3-11.3c-11-1.5-24.2-1.6-39.2-0.1
		c-23.7,2.4-47,7.2-69.5,14.4l-12.7,4.3c-93.1,31.2-173.5,58.1-275.5,73.8c-29.7,4.6-60.1,11-89.5,17.2
		c-55.5,11.7-112.8,23.9-169.8,24.6c-1.4,0-2.9,0-4.3,0c-59.8,0-117-16.1-172.3-31.6C1327.3,897.7,1293.3,888.1,1258.6,882z
		 M18.4,925.6c49.6,37.1,113,26.5,174.3,16.2c24.4-4.1,47.4-8,69.5-9c62.7-2.8,127.2,1,189.7,4.6c45.6,2.6,92.6,5.4,138.5,5.5
		c85.5,0.3,160.2-2.8,229.5-9.6c-28.3,0.4-56.7,0.3-84.7,0.1c-14.9-0.1-30.3-0.2-45.2-0.2h-2.1c-64.8,0-130.7-1.8-194.3-3.6
		c-57.8-1.6-117.6-3.2-176.3-3.5c-31.4-0.1-64.1,3-98.7,6.3C150.2,939,79.5,945.7,18.4,925.6z M1167.8,866.7
		c-51.1,0-107.4,15.9-162,31.3c-38.7,10.9-75.3,21.2-110.1,26.3c-22.7,3.3-45.9,6.2-69.6,8.6c47.5-0.9,94.9-3.7,140.5-11.4
		c30.6-5.1,59.7-13.3,87.8-21.2c25.3-7.1,51.4-14.4,77.8-19.3c29.5-5.4,56.5-7.1,82.7-5.1c13.3,1,26.6,2.7,39.7,4.9
		c-26.5-7.9-53.5-13.5-80.7-14.2C1171.8,866.7,1169.8,866.7,1167.8,866.7z"/>
	<path id="Shape_27_" d="M180.8,996c-39.3,0-71.9-3-96.9-9c-15.8-3.8-29-8.8-39.2-15c-11-6.6-18.9-14.7-23.5-24l-0.2-0.3l0.3,0.1
		c26.7,11.4,59.1,17.5,99.1,18.7c35.4,1.1,72.3-1.7,108-4.4c31.1-2.3,60.4-4.6,87.9-4.3c85.2,0.9,174.2,0.6,276.9-0.9l44.8-2.7
		c127-7.6,248.3-14.8,372.7-34.8l6.7-1.6c63.1-15.5,128.3-31.5,193.7-19.4c37.4,6.9,70.1,21.8,101.8,36.3
		c38.1,17.4,77.6,35.4,125.5,39.4c42.5,3.6,85.5,2.1,135.2-4.8c44-6.1,86.4-15.3,131.4-25.1c15.8-3.4,32.2-7,48.5-10.3
		c10.1-2.1,28.5-6.7,51.8-12.6c113.3-28.6,349-88.2,399.8-49.8c7.2,5.4,10.4,12.7,9.7,21.6v0.1h-0.1c-190.8,2.3-362.7,37.1-544.7,74
		c-16.9,3.4-34.4,7-51.8,10.4c-42.9,8.5-87.1,10.8-130.8,7c-41.4-3.5-83.3-12-128.3-25.9c-23.7-7.3-45.9-15.8-67.3-24
		c-31.8-12.2-61.9-23.7-93.8-30.3c-35.7-7.4-68.6-7.4-103.4-0.1c-28.2,5.9-56.2,11-83.9,15.5c-12.6,3.1-25.6,6.2-38.3,9
		c-48.4,10.6-101.3,17.8-161.9,21.9c-54.2,3.7-110,4.7-163.9,5.6h-2.1c-17.5,0.3-34.5,0.6-51.2,0.8c-27,1.6-54.3,3.4-81.8,5.3
		c-14.9,1-40,4.6-71.7,9c-68.4,9.7-162.2,22.9-245.3,24.3C189.9,995.9,185.3,996,180.8,996z M21.6,948.2
		c4.6,9.2,12.4,17.1,23.2,23.6c10.2,6.2,23.4,11.2,39.2,15c27.9,6.7,65.1,9.7,110.6,8.9c83.1-1.4,176.8-14.7,245.2-24.3
		c31.7-4.5,56.7-8,71.7-9c25.6-1.8,51.1-3.4,76.3-5c-100.4,1.4-187.8,1.7-271.4,0.8c-27.4-0.3-56.7,1.9-87.8,4.3
		c-35.7,2.7-72.6,5.5-108,4.4C80.6,965.5,48.3,959.5,21.6,948.2z M1145.7,898.6c17.7,0.1,35.2,1.9,52.4,5.5
		c31.9,6.6,61.9,18,93.8,30.3c21.4,8.2,43.6,16.7,67.2,24c93.6,28.9,178.3,35.1,258.9,18.9c17.4-3.5,34.9-7,51.8-10.5
		c182-36.9,353.9-71.7,544.6-74c0.7-8.8-2.5-16-9.6-21.3c-50.7-38.3-286.3,21.3-399.6,49.9c-23.3,5.9-41.7,10.5-51.9,12.6
		c-16.3,3.4-32.7,6.9-48.5,10.4c-45,9.8-87.4,19-131.4,25c-49.8,6.9-92.8,8.4-135.3,4.8c-48-4-87.5-22.1-125.6-39.5
		c-31.6-14.4-64.3-29.4-101.7-36.3c-65.4-12-130.5,4-193.6,19.4l-3.6,0.9c26.7-4.3,53.6-9.3,80.7-14.9
		C1111.4,900.4,1128.5,898.6,1145.7,898.6z M1007.6,920.2C884.2,939.8,763.9,947,638,954.5l-39.1,2.4c14.9-0.2,30.1-0.5,45.6-0.8
		h2.1c53.9-1,109.7-2,163.9-5.6c60.6-4.1,113.5-11.3,161.9-21.9C984,925.9,995.9,923,1007.6,920.2z"/>
	<path id="Shape_28_" d="M1533.3,1033c-45.6-0.2-91-6.1-134.9-17.8c-36.4-9.5-71.2-26.4-104.8-42.6c-18.1-8.7-36.4-17.6-55.2-25.4
		c-7.2-2.5-14.5-4.9-21.8-7.3c-36.5-11.8-72.7-16.2-113.7-13.6c-36.7,2.3-72.8,9.8-111.2,17.7c-12.4,2.6-25.3,5.2-38.4,7.7
		C869.9,967.8,784.5,971,701.9,974c-11.5,0.4-23.4,0.9-35.2,1.3c-26,2.2-52,4.8-77.9,8.1c-24.4,3.1-52.5,7.4-82.2,12
		c-75.9,11.7-170.2,26.3-257.5,27.4c-47.8,0.6-88.5-2.8-124.6-10.2c-18.8-3.8-37.1-9.2-54.8-16.2C52.8,989.8,37,981.2,22.4,971
		l-0.4-0.3l0.6,0.1c85.5,14.4,174,19,263.2,19c87.6,0,175.8-4.5,262.6-9c34.3-1.8,69.7-3.6,104-5l14.2-0.6c27-2.3,53.9-4.3,80.3-6.2
		c42.3-3.1,86-6.3,128.9-10.9c30.9-3.3,62.6-9.6,96.2-16.3c65-12.9,132.3-26.4,193.5-16.7c25.2,4,49.4,12.1,73.1,22
		c13.3,4.6,26.4,9.3,39.3,13.9c58.2,20.9,113.3,40.7,178.3,45.9c92.4,7.3,171.4-15.4,254.9-39.4c11.7-3.4,23.8-6.8,35.9-10.2
		c48.1-13.5,98.3-19.8,146.8-25.9c42.2-5.3,85.9-10.9,128.1-21.1c9.4-2.3,20.5-5.7,32.1-9.4c39.4-12.4,88.5-27.8,120.2-11.7
		c7,3.6,13,8.6,17.5,14.6c5.5,7.5,9.3,16,11.4,24.8v0.2h-0.2c-87.1-20.7-178.2-8-266.4,4.2c-13.4,1.9-27.3,3.8-40.8,5.5
		c-54.9,7.1-98.2,24.9-144,43.7c-28.8,11.9-58.7,24.1-91.9,33.6C1618.7,1027.3,1576.1,1033.1,1533.3,1033L1533.3,1033z
		 M1242.2,948.5c17.5,7.4,34.6,15.7,51.5,23.9c33.6,16.3,68.3,33.1,104.7,42.6c89.9,23.5,180.2,23.7,261.3,0.4
		c33.3-9.5,63.1-21.8,91.9-33.6c45.8-18.8,89.1-36.6,144.1-43.8c13.5-1.8,27.4-3.7,40.8-5.5c88.1-12.2,179.1-24.9,266.2-4.2
		c-2.1-8.8-5.9-17.1-11.3-24.5c-4.5-6-10.4-11-17.4-14.5c-31.6-16-80.6-0.6-120,11.7c-11.7,3.7-22.7,7.1-32.2,9.4
		c-42.1,10.2-85.9,15.7-128.1,21.1c-48.5,6.1-98.7,12.5-146.7,26c-12.1,3.4-24.2,6.9-35.9,10.2c-72.7,20.9-141.9,40.9-219.6,40.9
		c-11.6,0-23.4-0.5-35.5-1.4c-65.1-5.2-120.1-25-178.4-45.9C1266.1,956.9,1254.2,952.7,1242.2,948.5z M23.1,971.1
		c14.4,10.1,30.1,18.5,46.7,25.1c17.6,7,36,12.4,54.7,16.2c36,7.5,76.8,10.8,124.5,10.2c87.3-1.1,181.7-15.7,257.5-27.4
		c29.7-4.6,57.8-8.9,82.2-12c24-3,48.2-5.5,72.4-7.6l-8.7,0.4c-34.3,1.5-69.7,3.3-104,5C373.4,990,192.5,999.3,23.1,971.1z
		 M1120.7,921.9c-48.4,0-99.1,10.1-148.6,20c-33.6,6.7-65.3,13-96.2,16.3c-42.9,4.6-86.7,7.7-129,10.9c-24.6,1.8-49.6,3.6-74.6,5.7
		c9.9-0.4,19.9-0.7,29.6-1.1c82.6-3,168-6.2,251.5-22.3c13.1-2.6,25.9-5.2,38.4-7.7c38.3-7.9,74.5-15.4,111.2-17.7
		c41.1-2.6,77.3,1.8,113.8,13.6c5.9,1.9,11.8,3.9,17.7,5.9c-22.3-9-45.3-16.5-69-20.3C1150.7,923,1135.7,921.9,1120.7,921.9z"/>
	<path id="Shape_29_" d="M1483.5,1081h-7c-45.4-0.4-90.6-6.3-134.4-17.5c-43.2-11.1-78-30.8-111.7-49.9c-24.3-13.7-49.5-28-78-39.2
		c-14.9-5.9-30.5-10-46.5-12.1c-15.2-2-30.5-2.6-45.8-1.7c-30.4,1.6-60,7.7-91.4,14.2c-21.2,4.4-43.2,8.9-65.3,11.8
		c-52.8,7-107.4,10.6-160.1,14.1c-39.6,2.6-80.6,5.3-120.5,9.5c-36.6,3.8-74,8.7-110.1,13.5c-81.5,10.7-165.9,21.8-247.9,20.8
		c-44.1-0.5-84.1-4.4-122.2-11.9c-41.7-8.1-82-21.1-120-38.7l-0.6-0.3h0.7c188.8,10.2,386.3,12,586.8,5.4
		c106.5-3.5,194-10.7,275.5-22.7c24.9-3.7,52.1-10.9,81-18.5c33.5-8.9,68-18.1,101.2-22.1c37.6-4.6,67.8-1.6,92.3,9
		c31.9,13.8,54.1,30,75.7,45.7c33,24,64.2,46.8,124.6,55.7c46.9,7,97.3,7.8,149.9,2.6c46.4-4.6,94.4-13.8,147.2-28.1
		c16.3-4.4,40.5-12.5,71.2-22.7c98-32.6,252.4-84,357.5-84c52.4,0,92.6,12.8,107.4,47v0.2h-0.1c-28.4-0.4-57.3-1.7-85.3-2.9
		c-75.6-3.3-153.9-6.7-229.9,5.4c-54.3,8.6-100.5,31.5-145.2,53.6c-37.9,18.7-77,38.1-121,48.9
		C1569.7,1076.2,1526.7,1081.2,1483.5,1081z M1074.4,959.9c10.5,0,21.1,0.7,31.5,2.1c16,2.2,31.7,6.3,46.6,12.2
		c28.5,11.2,53.7,25.5,78,39.2c33.7,19,68.5,38.7,111.6,49.8c43.8,11.2,88.9,17,134.4,17.5c45.5,0.7,90.9-4.3,134.9-14.9
		c44-10.8,83.1-30.1,120.9-48.8c44.8-22.1,91-45,145.3-53.6c76-12.1,154.3-8.7,229.9-5.4c27.9,1.2,56.8,2.5,85.1,2.9
		c-14.9-34-54.9-46.7-107.1-46.7c-105,0-259.4,51.4-357.4,84c-30.7,10.2-54.9,18.3-71.2,22.7c-52.7,14.2-100.9,23.4-147.2,28.1
		c-52.6,5.3-103,4.4-150-2.6c-60.4-9-91.7-31.7-124.7-55.8c-21.5-15.7-43.8-31.9-75.6-45.7c-24.5-10.6-54.7-13.6-92.2-9
		c-33.2,4-67.7,13.2-101.1,22.1c-28.8,7.7-56,14.9-81,18.5c-81.5,12-169.1,19.2-275.6,22.7c-78.6,2.6-156.6,3.9-234,3.9
		c-119.8,0-237.5-3.1-352.2-9.3c37.8,17.5,77.9,30.4,119.3,38.4c38,7.5,78,11.4,122.1,11.9c82,1,166.3-10.1,247.8-20.8
		c36.1-4.8,73.5-9.7,110.1-13.5c39.9-4.1,80.9-6.8,120.5-9.5c52.8-3.5,107.3-7.1,160.1-14.1c22.1-2.9,44-7.5,65.2-11.8
		c31.4-6.5,61-12.6,91.4-14.2C1065,960.1,1069.7,959.9,1074.4,959.9z"/>
	<path id="Shape_30_" d="M1424.3,1111c-19.9,0-39.9-0.9-59.7-2.8c-40.3-3.7-79.9-11.9-118-24.4c-38.7-12.9-73.2-30.1-102.6-51
		c-9.4-6.7-16.7-14.6-23.7-22.3c-12-13.1-23.4-25.4-43.9-30.5c-28.7-7.2-71.3,1.5-108.9,9.2c-15.5,3.1-29.9,6.1-42.2,7.7
		c-106.9,13.7-214.8,26.2-320.6,37.1c-105.2,10.8-213.1,20.5-320.5,28.8c-7.3,0.6-14.9,1.2-22.2,1.8c-42.7,3.6-86.9,7.3-129,2.3
		c-47.9-5.7-84.8-22-112.8-50.1l-0.3-0.3h0.4c85.7,8.4,176.6,12.4,277.7,12.4h7.4c100.3-0.2,200.5-4.3,285.3-8.4
		c111.8-5.3,205.5-11.5,299.7-24.1c23.4-3.1,45.7-8.1,67.2-12.9c33.4-7.4,64.9-14.4,95.2-13.4c33.9,1,62,11.8,88.5,34
		c64,53.5,139.8,85,225.4,93.6c77.3,7.7,161.7-3,251.1-32.1c32.2-10.5,62.3-23.7,91.4-36.5c52.4-23,102-44.7,162.4-51.5
		c7.4-0.8,28.6-0.9,61.3-0.3c30.2,0.6,67.3,1.7,104.4,3.2c68.9,2.8,143.4,7.1,146.5,10.8c0.1,0.1,0.2,0.3,0.1,0.5v0.1h-0.1
		c-46.3,2.8-94.4,0.3-141-2c-60.2-3.1-122.4-6.3-181.4,1.9c-57.4,8-109.9,31.2-160.7,53.6c-32.2,14.3-65.5,29-99.9,39.7
		C1546.5,1102.2,1485.5,1111,1424.3,1111z M1051.2,977c8.5-0.1,17,0.8,25.3,2.7c20.6,5.1,32,17.5,44,30.6c7,7.6,14.3,15.4,23.6,22.2
		c29.2,21,63.7,38.1,102.4,51c38.1,12.5,77.8,20.7,118,24.3c80.3,7.7,164.1-0.4,236.1-22.9c34.3-10.7,67.6-25.5,99.8-39.7
		c50.8-22.5,103.3-45.7,160.8-53.7c59-8.2,121.3-5,181.5-1.9c46.5,2.4,94.6,4.8,140.8,2c0,0,0-0.1,0-0.1c-2.5-3-59.9-7.2-146.3-10.7
		c-68-2.7-149.2-4.7-165.6-2.9c-60.4,6.7-109.9,28.4-162.3,51.5c-29.1,12.8-59.2,26-91.5,36.5c-89.4,29-173.9,39.9-251.2,32.1
		c-85.7-8.6-161.6-40.1-225.6-93.6c-26.4-22.1-54.5-32.9-88.3-33.9c-30.3-1-61.8,6-95.2,13.4c-21.6,4.8-43.8,9.7-67.2,12.9
		c-94.1,12.7-187.9,18.8-299.7,24.1c-84.7,4.1-184.9,8.2-285.3,8.4c-104,0.2-197.1-3.9-284.8-12.4c27.9,27.8,64.7,44.1,112.4,49.7
		c42,5,86.2,1.3,128.9-2.3c7.3-0.6,14.9-1.3,22.2-1.8c107.4-8.3,215.2-18,320.5-28.8c105.8-10.9,213.7-23.3,320.6-37.1
		c12.2-1.6,26.7-4.5,42.2-7.7C995.2,983.2,1025.6,977,1051.2,977z"/>
	<path id="Shape_31_" d="M1445.7,1147c-29.2-0.1-58.3-2.1-87.1-6c-45.3-6-89.8-16.2-132.8-30.3c-41.9-13.8-80.8-31.1-112.5-50.1
		c-23.4-14-43.9-24.1-62.6-30.7c-17.5-6.3-36-10-54.8-11.1c-35.6-1.8-72,5.7-128.5,18.2c-46.6,10.2-94,17-141.8,20.3
		c-28.3,2.1-57.9,3.3-92,3.7c-36.8,2.6-75.5,4.1-116.5,4.6c-23.6,2.6-50.1,6.2-78.5,10c-79.6,10.6-169.8,22.7-248.7,22.2
		c-43.2-0.3-77.8-4.2-105.9-12.1c-14.1-3.8-27.5-9.4-39.9-16.6c-11.2-6.6-20.7-15.3-27.9-25.5l-0.2-0.2h0.3
		c59.7,2.4,120.1,6.1,178.6,9.7c75.3,4.7,153.2,9.5,229.8,11.4c32.2,0.8,62.9,1.1,92.3,0.7c25.5-2.9,47.6-4.6,64.7-4.5
		c18.5,0.2,35.7,0.1,51.8,0c7.3-0.5,14.6-1.1,21.8-1.7c55.1-4.7,111-17.8,165.1-30.6c58.9-13.9,119.7-28.2,178.8-31.3
		c25.7-1.3,46.9,2.3,66.7,11.3c17.7,8.1,32.3,19.6,47.7,31.8c13.4,10.7,27.4,21.7,44.7,31.6c28.5,16.3,64.6,29,107.5,37.7
		c39.7,8.1,83.2,12.5,129.5,13.1c89.5,1.1,178.1-12.7,237-36.8c20.4-8.4,39.9-17.3,58.8-25.8c56.7-25.8,110.3-50.2,178.5-57.1
		c19.2-1.9,93.7-7.2,164.3-7.2l0,0c40.4,0,72.7,1.7,96.3,5.2c28.8,4.2,44.3,10.9,46,19.9v0.2h-0.2c-41,0.3-84.7-3.9-126.9-7.9
		c-70.7-6.8-143.9-13.7-210.3-0.8c-54.8,10.7-102.1,37.4-147.9,63.3c-24.6,13.9-50.2,28.4-76.7,40.1
		c-34.2,15.2-74.6,24.9-120.2,28.9C1478.2,1146.3,1462.2,1147,1445.7,1147z M985.1,1018.4c3.6,0,7.2,0.1,10.8,0.3
		c18.8,1,37.3,4.8,54.8,11.1c18.8,6.6,39.3,16.7,62.7,30.7c31.7,19,70.6,36.3,112.4,50.1c43,14.1,87.5,24.2,132.7,30.2
		c47.4,6.3,93,7.6,135.3,3.9c45.6-4,86-13.7,120.1-28.9c26.4-11.8,52-26.2,76.8-40.2c45.8-25.9,93.2-52.7,148-63.4
		c66.5-12.9,139.6-6,210.4,0.8c42.2,4,85.8,8.2,126.7,7.9c-1.9-8.9-17.3-15.5-45.8-19.5c-23.5-3.4-55.9-5.2-96.2-5.2l0,0
		c-70.6,0-145.1,5.3-164.2,7.2c-68.2,6.9-121.7,31.3-178.4,57.1c-18.9,8.6-38.4,17.5-58.8,25.8c-56.7,23.2-140.9,36.9-226.9,36.9
		c-3.4,0-6.8,0-10.2-0.1c-46.3-0.6-89.9-5-129.5-13.1c-42.9-8.8-79.1-21.5-107.6-37.8c-17.4-9.9-31.3-21-44.7-31.6
		c-15.5-12.2-29.9-23.7-47.6-31.8c-19.7-9-40.9-12.6-66.6-11.3c-59,3-119.9,17.4-178.7,31.3c-54.1,12.8-110,25.9-165.1,30.6
		c-5.8,0.5-11.6,0.9-17.5,1.4c32.3-0.5,60.5-1.6,87.6-3.6c47.8-3.3,95.2-10.1,141.8-20.3C918.1,1025.7,952.7,1018.4,985.1,1018.4z
		 M16.5,1043.8c7.2,10.1,16.7,18.7,27.7,25.2c12.3,7.2,25.7,12.8,39.8,16.6c28,7.9,62.6,11.8,105.8,12.1
		c78.9,0.5,169.1-11.6,248.7-22.2c27.4-3.7,53-7.1,76-9.7c-28.7,0.3-58.6,0-89.8-0.8c-76.7-1.9-154.5-6.8-229.8-11.4
		C136.5,1049.9,76.1,1046.2,16.5,1043.8z M579.8,1061.2c-16.3,0-36.7,1.6-60.2,4.2c38.4-0.5,74.8-1.8,109.5-4.2
		c-14.8,0.1-30.5,0.2-47.4,0H579.8z"/>
	<path id="Shape_32_" d="M830,886c-44.3,0-89.7-6.1-134.2-12c-23.9-3.2-46.6-6.2-69.1-8.4c-33.1-3.1-67.5-6.8-100.6-10.4
		c-84.3-9.1-171.5-18.5-254-20.6c-2.2,0-4.5-0.1-6.8,0c-19.7,3.9-40.4,10-61.8,16.4c-64.3,19.2-130.8,39-177.4-6.1l0.2-0.2
		c11,7.8,23.5,13.6,36.9,16.9c12.6,3,25.7,4.2,38.7,3.5c26.2-1.2,53.6-8.4,80.1-15.4c27.7-7.3,56.2-14.8,83.3-15.4
		c12.2-2.5,24.6-3.8,37-3.9c105.8,0.9,216.4,10.1,348.3,28.9c67.1,9.5,118.5,13.1,166.6,11.4c58.4-2,111.6-12,162.8-30.7
		c16.8-6.1,32.1-14.6,46.7-24.1l2.4-2c15.7-12.6,30.5-24.7,47.5-34.7c17.7-13.4,35-25.9,54.2-35.3c11.4-5.7,23.5-10,36.1-12.8
		c13.5-2.9,27.5-3.9,41.3-2.8c23.3,1.7,46.9,8.6,72.1,20.9c22.5,11,44.2,25.2,65.2,39c29.1,19.1,59.1,38.8,92,50.5
		c46.6,16.4,95.7,26,145.6,28.3c49.8,2.5,99.8-1.8,148.3-12.5c42.9-9.4,95.6-37.8,151.2-67.8c32.7-17.6,66.4-35.8,100.3-51.3
		c38.4-17.6,71.3-29.1,100.6-35.2c35.6-7.4,66.4-7.1,94,0.9c15.3,4.5,29.6,11.3,42.3,20.3c14.6,10.5,27.4,22.9,37.9,36.8l0.2,0.3
		l-0.4-0.1c-9.8-2.4-19.8-4.9-29.4-7.3c-95.6-24-185.9-46.6-275.6,4.3c-8.6,4.9-17.2,9.9-25.6,14.6c-40.9,23.5-79.6,45.7-120.9,64
		c-46.4,20.6-89.1,33.3-134.3,39.8c-26.5,3.9-53.4,5.5-80.3,4.9c-25.8-0.6-51.6-3.3-76.9-8c-48.1-9-96.3-25.2-147.4-49.6
		c-9.8-4.7-19.5-9.5-28.9-14.2c-30.7-15.2-59.7-29.6-90.8-39.6c-15.6-5.1-31.8-8.8-48.2-10.9c-17.3-2.2-34.9-2.4-52.3-0.6
		c-23.5,2.3-46.2,9.5-66.2,21c-1.4,0.8-2.8,1.6-4.2,2.4l-9.8,7.5c-12.9,10-26,20.1-40.1,29.2c-21.3,17.2-43.5,34.7-71.8,47
		C915.3,880.3,873.1,886,830,886z M268.3,834.3c1.2,0,2.5,0,3.7,0c82.5,2.1,169.7,11.5,254,20.6c33.2,3.6,67.6,7.3,100.6,10.4
		c22.6,2.2,45.2,5.2,69.1,8.4c87.8,11.7,178.6,23.9,259-10.8c27.4-11.9,49.1-28.7,69.8-45.3c-13.8,9.1-28.8,16.7-44.6,22.7
		c-51.2,18.6-104.4,28.6-162.9,30.7c-48.2,1.7-99.6-1.9-166.7-11.4c-131.9-18.6-242.6-27.8-348.3-28.8c-11.9,0-23.9,1.2-35.5,3.6
		L268.3,834.3z M1170.7,754.6c9.6,0,19.3,0.6,28.8,1.8c16.5,2.1,32.6,5.8,48.3,10.9c31.2,10,60.2,24.4,90.9,39.6
		c9.4,4.7,19.2,9.5,28.9,14.2c51,24.5,99.2,40.7,147.3,49.6c25.3,4.7,51,7.4,76.9,8.1c26.8,0.6,53.6-1.1,80.1-4.9
		c45.2-6.5,87.9-19.2,134.2-39.8c41.2-18.3,79.9-40.5,120.8-64c8.3-4.8,17-9.7,25.6-14.6c89.8-51,180.1-28.3,275.8-4.4
		c9.5,2.4,19.3,4.8,29,7.2c-10.5-13.8-23.2-26.1-37.7-36.5c-12.7-8.9-26.9-15.8-42.2-20.2c-27.6-8-58.3-8.3-93.8-0.9
		c-29.3,6.1-62.2,17.6-100.6,35.2c-33.9,15.5-67.6,33.7-100.3,51.3c-55.7,30-108.3,58.4-151.3,67.8c-48.5,10.7-98.5,14.9-148.4,12.5
		c-49.9-2.3-99.1-11.9-145.7-28.3c-32.9-11.7-63-31.5-92.1-50.6c-21-13.8-42.7-28.1-65.1-39c-25.2-12.3-48.7-19.1-72-20.9
		c-13.8-1.1-27.7-0.2-41.2,2.7c-12.6,2.8-24.7,7.2-36,12.9c-18.6,9.1-35.3,21-52.4,34l2.3-1.3c20.1-11.5,42.8-18.7,66.3-21.1
		C1154.9,755.1,1162.8,754.6,1170.7,754.6L1170.7,754.6z M27.4,845.9c46.4,43.4,112.2,23.8,175.9,4.9c20.9-6.2,41.2-12.3,60.4-16.1
		c-26.6,0.8-54.6,8.2-81.7,15.3c-26.5,7-54,14.2-80.2,15.5c-13,0.7-26.1-0.5-38.8-3.5C50.2,858.7,38.1,853.2,27.4,845.9z
		 M1074.7,780.8c-16.1,9.8-30.4,21.3-45.4,33.5l-0.3,0.2c13.1-8.7,25.6-18.3,37.8-27.7C1069.4,784.8,1072,782.8,1074.7,780.8
		L1074.7,780.8z"/>
</g>
</svg>
