<?xml version="1.0" encoding="utf-8"?>
<!-- Generator: Adobe Illustrator 24.2.3, SVG Export Plug-In . SVG Version: 6.00 Build 0)  -->
<svg version="1.1" id="Capa_1" xmlns="http://www.w3.org/2000/svg" xmlns:xlink="http://www.w3.org/1999/xlink" x="0px" y="0px"
	 viewBox="0 0 105 105" style="enable-background:new 0 0 105 105;" xml:space="preserve">
<style type="text/css">
	.st0{fill:#09183E;}
	.st1{fill-rule:evenodd;clip-rule:evenodd;fill:#FFFFFF;}
	.st2{fill:#FFFFFF;}
	.st3{filter:url(#Adobe_OpacityMaskFilter);}
	.st4{clip-path:url(#SVGID_3_);}
	.st5{mask:url(#SVGID_1_);enable-background:new    ;}
	.st6{clip-path:url(#SVGID_7_);}
	.st7{clip-path:url(#SVGID_9_);fill-rule:evenodd;clip-rule:evenodd;fill:#FFFFFF;}
	.st8{fill-rule:evenodd;clip-rule:evenodd;fill:#09183E;}
	.st9{display:none;}
	.st10{display:inline;fill:#FFFFFF;}
	.st11{display:inline;}
	.st12{fill:#75B94C;}
</style>
<path class="st0" d="M52.5,0.3C23.7,0.3,0.3,23.7,0.3,52.5s23.4,52.2,52.2,52.2s52.2-23.4,52.2-52.2S81.3,0.3,52.5,0.3 M74.1,80.4
	H30.9c-8.3-6.4-13.7-16.5-13.7-27.9C17.2,33,33,17.2,52.5,17.2C72,17.2,87.8,33,87.8,52.5C87.8,63.8,82.4,73.9,74.1,80.4"/>
<path class="st1" d="M11.1,59.4l0.7,2.8l-0.9,0.2l-0.6-2.6l-1.2,0.3l0.6,2.6l-0.8,0.2l-0.7-2.8L7,60.3l1,4.1l5.3-1.2l-1-4.1
	L11.1,59.4z M11.4,73.4L10.9,72l2.8-2.1l-3.6,0.3l-0.6-1.3l2.7-2.3l-3.5,0.5l-0.6-1.3l5.6-0.6l0.5,1.3l-2.7,2.4l3.6-0.2l0.5,1.3
	L11.4,73.4z"/>
<path class="st2" d="M6.8,59l-0.3-2.8c-0.1-1,0.4-1.7,1.2-1.8c0.5-0.1,1,0.2,1.3,0.6c0.2-0.6,0.7-1.1,1.3-1.1
	c0.9-0.1,1.5,0.6,1.7,1.7l0.3,2.9L6.8,59z M8.7,56.3c0-0.4-0.3-0.6-0.6-0.6c-0.3,0-0.5,0.3-0.4,0.7l0.1,1.2l1-0.1L8.7,56.3L8.7,56.3
	z M10.8,55.9c0-0.4-0.3-0.6-0.6-0.6c-0.3,0-0.5,0.3-0.5,0.7l0.1,1.4l1.1-0.1L10.8,55.9z"/>
<defs>
	<filter id="Adobe_OpacityMaskFilter" filterUnits="userSpaceOnUse" x="0" y="0" width="105" height="105">
		<feColorMatrix  type="matrix" values="1 0 0 0 0  0 1 0 0 0  0 0 1 0 0  0 0 0 1 0"/>
	</filter>
</defs>
<mask maskUnits="userSpaceOnUse" x="0" y="0" width="105" height="105" id="SVGID_1_">
	<g class="st3">
		<g>
			<defs>
				<rect id="SVGID_2_" x="6" y="45" width="7" height="6"/>
			</defs>
			<clipPath id="SVGID_3_">
				<use xlink:href="#SVGID_2_"  style="overflow:visible;"/>
			</clipPath>
			<g>
				<defs>
					<rect id="SVGID_4_" x="6.4" y="45.5" width="105" height="105"/>
				</defs>
				<clipPath id="SVGID_5_" class="st4">
					<use xlink:href="#SVGID_4_"  style="overflow:visible;"/>
				</clipPath>
				<g transform="matrix(1 0 0 1 4.768372e-07 0)" style="clip-path:url(#SVGID_5_);">
					
						<image style="overflow:visible;" width="140" height="140" xlink:href="1823A099.png"  transform="matrix(0.75 0 0 0.75 6.3998 45.4755)">
					</image>
				</g>
			</g>
		</g>
	</g>
</mask>
<g class="st5">
	<g>
		<defs>
			<rect id="SVGID_6_" x="6" y="45" width="7" height="6"/>
		</defs>
		<clipPath id="SVGID_7_">
			<use xlink:href="#SVGID_6_"  style="overflow:visible;"/>
		</clipPath>
		<g class="st6">
			<defs>
				<rect id="SVGID_8_" width="105" height="105"/>
			</defs>
			<clipPath id="SVGID_9_">
				<use xlink:href="#SVGID_8_"  style="overflow:visible;"/>
			</clipPath>
			<path class="st7" d="M9,51c-1.5-0.1-2.7-1.5-2.6-3.1c0.1-0.8,0.5-1.6,1.1-2.1l0.8,1c-0.4,0.3-0.6,0.7-0.7,1.1
				c-0.1,0.8,0.6,1.6,1.5,1.6c0.9,0.1,1.6-0.6,1.7-1.4c0-0.5-0.2-0.9-0.5-1.2l0.9-0.9c0.6,0.6,0.8,1.4,0.8,2.2
				C11.9,49.9,10.5,51.1,9,51"/>
		</g>
	</g>
</g>
<path class="st2" d="M9.4,45.4C8,45.1,7,43.5,7.3,42c0.4-1.5,1.9-2.6,3.4-2.2c1.5,0.3,2.5,1.9,2.1,3.5C12.5,44.7,10.9,45.8,9.4,45.4
	 M10.4,41.1c-0.8-0.2-1.7,0.3-1.9,1.1c-0.2,0.8,0.4,1.6,1.2,1.8c0.8,0.2,1.7-0.3,1.9-1.1C11.8,42.1,11.3,41.3,10.4,41.1"/>
<path class="st1" d="M23.8,17.8l-1.3,1l-0.8-0.9l3.6-2.9l0.8,0.9l-1.3,1l2.6,3.3L26.5,21L23.8,17.8z M17.3,22.4l0.9-1l4,0.5
	l-2.3-2.2l0.9-1l3.9,3.7l-0.9,1l-4-0.5l2.3,2.2l-0.9,1L17.3,22.4z M15.7,26.5l0.7,0.5l1.6-2.1l1,0.7l-1.6,2.1l0.8,0.6l1.7-2.4l1,0.7
	l-2.5,3.4l-4.4-3.2l2.5-3.4l1,0.7L15.7,26.5z M12.8,31.1L12,32.5L11,31.9l2.3-4l1.1,0.6l-0.8,1.4l3.7,2l-0.7,1.2L12.8,31.1z
	 M8.5,37.8L9,36.5l3.9-1l-3-1.2l0.5-1.3l5.1,2L15,36.3l-3.9,1l3,1.2l-0.5,1.3L8.5,37.8z"/>
<path class="st2" d="M33.8,15.4l-1.9,1l0.1,0.8l-1.3,0.7L30,12.1l1.3-0.7l4.5,3.8l-1.3,0.7L33.8,15.4z M32.9,14.6l-1.4-1.2l0.2,1.8
	L32.9,14.6z"/>
<path class="st1" d="M62.5,7.6l1.3,0.3l-1.3,5.3l-1.3-0.3L62.5,7.6z M56,11.2l0.9-0.8c0.5,0.5,1,0.8,1.7,0.9
	c0.5,0.1,0.8-0.1,0.8-0.4c0.1-0.3-0.2-0.4-0.9-0.7c-1.1-0.4-1.9-0.9-1.8-1.9c0.2-1,1.1-1.6,2.3-1.4C60,7,60.6,7.4,61.1,7.9l-0.8,0.8
	C59.9,8.3,59.3,8,58.8,8c-0.4-0.1-0.7,0.1-0.7,0.4c-0.1,0.3,0.2,0.5,1,0.8C60.2,9.5,61,10,60.8,11c-0.2,1.1-1.1,1.6-2.4,1.4
	C57.4,12.3,56.6,11.8,56,11.2 M51,11l0.8-0.9c0.5,0.4,1.1,0.7,1.8,0.7c0.5,0,0.8-0.2,0.8-0.5c0-0.3-0.2-0.4-1-0.6
	c-1.2-0.3-2-0.6-2-1.7c0-1,0.9-1.7,2.1-1.7c0.9,0,1.6,0.3,2.2,0.8L55,8.1c-0.5-0.4-1-0.6-1.5-0.6c-0.4,0-0.7,0.2-0.7,0.4
	c0,0.3,0.3,0.4,1.1,0.6c1.2,0.3,2,0.7,2,1.7c0,1.1-0.9,1.7-2.2,1.7C52.5,11.9,51.7,11.6,51,11 M47.4,7.9l0.1,0.8l2.6-0.2l0.1,1.2
	l-2.6,0.2l0.1,1l2.9-0.3l0.1,1.2l-4.3,0.4L46,6.8l4.3-0.4l0.1,1.2L47.4,7.9z M40.4,10.7c-0.3-1.5,0.7-3,2.2-3.4
	c0.8-0.2,1.6,0,2.3,0.4l-0.8,1.1c-0.4-0.3-0.8-0.4-1.3-0.3c-0.8,0.2-1.3,1-1.2,1.9c0.2,0.8,1,1.4,1.8,1.2c0.5-0.1,0.8-0.4,1-0.8
	l1.1,0.6c-0.4,0.7-1.1,1.2-1.9,1.4C42.3,13.2,40.7,12.2,40.4,10.7 M35,12.6c-0.5-1.4,0.3-3.1,1.8-3.6c0.8-0.3,1.6-0.2,2.4,0.1
	l-0.6,1.2c-0.4-0.2-0.9-0.3-1.3-0.1c-0.8,0.3-1.2,1.2-0.9,2c0.3,0.8,1.2,1.3,2,1c0.4-0.2,0.8-0.5,0.9-0.9l1.2,0.5
	c-0.3,0.8-0.9,1.3-1.7,1.6C37.2,14.8,35.5,14,35,12.6"/>
<path class="st2" d="M65.2,8.2l2.7,0.9c0.9,0.3,1.4,1.1,1.2,1.8c-0.2,0.5-0.6,0.8-1.1,0.9c0.5,0.5,0.7,1.1,0.5,1.6
	c-0.3,0.8-1.2,1.1-2.2,0.8l-2.8-1L65.2,8.2z M66.3,13.2c0.4,0.1,0.7,0,0.8-0.3c0.1-0.3-0.1-0.6-0.5-0.7l-1.3-0.4l-0.4,1L66.3,13.2z
	 M66.8,11.1c0.4,0.1,0.7,0,0.8-0.3c0.1-0.3-0.1-0.6-0.4-0.7l-1.1-0.4l-0.3,0.9L66.8,11.1z"/>
<path class="st1" d="M95.5,37l0.4,1.3L90.8,40l-0.4-1.3L95.5,37z M90.2,32.3l2.8-1.2l0.6,1.2l-2.7,1.2c-0.7,0.3-1,1-0.7,1.6
	c0.3,0.6,1,0.8,1.7,0.5l2.7-1.2l0.6,1.2l-2.8,1.2c-1.3,0.6-2.7,0.1-3.3-1.3C88.4,34.3,88.9,32.9,90.2,32.3 M89,28.9l1.3,2.1
	l-1.9,1.2c-0.8-0.1-1.5-0.7-2-1.4c-0.9-1.3-0.5-3.2,0.8-4c1.3-0.8,3.1-0.4,4,1c0.4,0.7,0.6,1.6,0.4,2.4l-1.3-0.4
	c0.1-0.4,0.1-1-0.2-1.4c-0.5-0.7-1.5-0.9-2.2-0.5c-0.7,0.5-1,1.4-0.5,2.2c0.2,0.3,0.4,0.5,0.7,0.6l0.6-0.4l-0.6-1L89,28.9z
	 M82.6,22.8l1.2-4l1.1,1.1L84,22.4l2.6-0.6l1,1.1l-4,0.9L82.2,25l-0.9-1L82.6,22.8z M80.1,17.4l-1.3-1l0.8-0.9l3.6,2.9l-0.8,0.9
	l-1.3-1l-2.7,3.2l-1-0.9L80.1,17.4z M77.6,14l1.1,0.8l-3.1,4.5l-1.1-0.8L77.6,14z M74.6,17.1l-0.6,1l-3.4-1.9l2.7-4.7l1.2,0.7
	l-2.1,3.6L74.6,17.1z M70.8,10.3l1.2,0.6l-2.3,4.9l-1.2-0.6L70.8,10.3z"/>
<path class="st2" d="M96.4,39.6l0.4,1.9c0.4,1.8-0.4,3.3-2,3.7c-1.6,0.3-2.9-0.7-3.4-2.5l-0.4-1.9L96.4,39.6z M92.8,42.7
	c0.2,0.9,1,1.4,1.8,1.2c0.9-0.2,1.3-1,1.1-1.9l-0.2-0.8l-2.9,0.6L92.8,42.7z"/>
<path class="st1" d="M90.1,68.5l0.5,1.1c-0.6,0.3-1.1,0.7-1.4,1.3c-0.2,0.4-0.2,0.8,0.1,0.9c0.3,0.1,0.5,0,1-0.7
	c0.8-0.9,1.4-1.5,2.4-1c0.9,0.5,1.2,1.5,0.6,2.6c-0.4,0.8-1,1.3-1.7,1.6l-0.5-1c0.6-0.3,1-0.7,1.2-1.1c0.2-0.4,0.1-0.7-0.1-0.8
	c-0.3-0.1-0.5,0-1,0.7c-0.8,1-1.4,1.5-2.4,1c-1-0.5-1.2-1.5-0.6-2.7C88.6,69.5,89.3,68.8,90.1,68.5 M94.4,66.6l-0.8-0.3l-0.9,2.5
	l-1.1-0.4l0.9-2.5l-0.9-0.3l-1,2.7l-1.1-0.4l1.5-4l5.1,1.9l-1.5,4l-1.1-0.4L94.4,66.6z M97.6,59.3l-0.3,1.3l-3.6,1.6l3.1,0.7
	l-0.3,1.3l-5.3-1.2l0.3-1.3l3.6-1.6L92,59.5l0.3-1.3L97.6,59.3z M97.9,56.5l-0.2,1.3l-5.4-0.6l0.1-1.3L97.9,56.5z M93.8,55.3l-1.2,0
	l0.1-3.9l5.4,0.1l0,1.3l-4.2-0.1L93.8,55.3z M96.6,47.4l-0.8,0.1l0.2,2.6l-1.2,0.1l-0.2-2.6l-1,0.1l0.3,2.9l-1.2,0.1l-0.4-4.2
	l5.4-0.5l0.4,4.2l-1.2,0.1L96.6,47.4z"/>
<path class="st8" d="M38.5,60.7c-0.3,0-0.5,0.1-0.7,0.3c-0.2,0.2-0.2,0.6-0.2,1c0,0.8,0.3,1.3,1,1.3c0.2,0,0.4,0,0.6-0.1
	c0.2-0.1,0.4-0.1,0.5-0.2v1c-0.4,0.2-0.8,0.2-1.2,0.2c-0.7,0-1.2-0.2-1.5-0.6c-0.4-0.4-0.5-0.9-0.5-1.7c0-0.5,0.1-0.9,0.3-1.2
	c0.2-0.3,0.4-0.6,0.7-0.8c0.3-0.2,0.7-0.3,1.1-0.3c0.5,0,0.9,0.1,1.4,0.3l-0.4,0.9c-0.2-0.1-0.3-0.1-0.5-0.2
	C38.8,60.7,38.6,60.7,38.5,60.7"/>
<path class="st0" d="M43.7,62.4c0,0.6-0.1,1-0.4,1.3c-0.3,0.3-0.7,0.5-1.3,0.5c-0.5,0-0.9-0.2-1.2-0.5c-0.3-0.3-0.5-0.8-0.5-1.3
	c0-0.6,0.1-1,0.4-1.3c0.3-0.3,0.7-0.5,1.3-0.5c0.3,0,0.6,0.1,0.9,0.2c0.3,0.1,0.5,0.3,0.6,0.6C43.6,61.8,43.7,62.1,43.7,62.4
	 M41.5,62.4c0,0.3,0,0.5,0.1,0.7c0.1,0.2,0.2,0.2,0.4,0.2c0.2,0,0.3-0.1,0.4-0.2c0.1-0.2,0.1-0.4,0.1-0.7s0-0.5-0.1-0.7
	c-0.1-0.1-0.2-0.2-0.4-0.2c-0.2,0-0.3,0.1-0.4,0.2C41.5,61.9,41.5,62.2,41.5,62.4"/>
<path class="st8" d="M48.5,64.2v-1.9c0-0.2,0-0.4-0.1-0.5c-0.1-0.1-0.2-0.2-0.3-0.2c-0.2,0-0.3,0.1-0.4,0.2
	c-0.1,0.2-0.1,0.4-0.1,0.7v1.6h-1.2v-1.9c0-0.2,0-0.4-0.1-0.5c-0.1-0.1-0.2-0.2-0.3-0.2c-0.2,0-0.3,0.1-0.4,0.3
	c-0.1,0.2-0.1,0.4-0.1,0.8v1.5h-1.2v-3.4h0.9l0.1,0.4h0.1c0.1-0.2,0.2-0.3,0.4-0.4c0.2-0.1,0.4-0.1,0.6-0.1c0.5,0,0.8,0.1,1,0.4h0.1
	c0.1-0.1,0.2-0.3,0.4-0.3c0.2-0.1,0.4-0.1,0.6-0.1c0.4,0,0.7,0.1,0.9,0.3c0.2,0.2,0.3,0.5,0.3,0.9v2.2H48.5z"/>
<path class="st0" d="M52.6,64.2c-0.2,0-0.3,0-0.5-0.1c-0.2-0.1-0.3-0.2-0.4-0.3h-0.1c0,0.2,0.1,0.4,0.1,0.4v1.4h-1.2v-4.9h1l0.2,0.4
	h0.1c0.2-0.3,0.5-0.5,0.9-0.5c0.4,0,0.7,0.2,0.9,0.5c0.2,0.3,0.3,0.7,0.3,1.3s-0.1,1-0.3,1.3C53.3,64,52.9,64.2,52.6,64.2
	 M52.2,61.6c-0.2,0-0.3,0.1-0.4,0.2c-0.1,0.1-0.1,0.3-0.1,0.5v0.1c0,0.3,0,0.5,0.1,0.6c0.1,0.1,0.2,0.2,0.4,0.2
	c0.1,0,0.3-0.1,0.3-0.2c0.1-0.1,0.1-0.3,0.1-0.6c0-0.3,0-0.5-0.1-0.6C52.4,61.7,52.3,61.6,52.2,61.6"/>
<rect x="54.5" y="59.5" class="st8" width="1.2" height="4.7"/>
<path class="st0" d="M60.7,64.2l-0.2-0.5h0c-0.2,0.2-0.3,0.3-0.5,0.4c-0.2,0.1-0.4,0.1-0.6,0.1c-0.3,0-0.6-0.1-0.8-0.3
	c-0.2-0.2-0.3-0.5-0.3-0.8c0-0.4,0.1-0.6,0.4-0.8c0.3-0.2,0.6-0.3,1.1-0.3l0.6,0v0c0-0.3-0.1-0.4-0.4-0.4c-0.3,0-0.6,0.1-0.9,0.3
	L58.6,61c0.4-0.2,0.9-0.3,1.5-0.3c0.4,0,0.8,0.1,1,0.3c0.2,0.2,0.4,0.5,0.4,0.9v2.2H60.7z M59.8,63.4c0.1,0,0.3,0,0.4-0.1
	c0.1-0.1,0.2-0.2,0.2-0.4v-0.3l-0.3,0c-0.4,0-0.6,0.2-0.6,0.4C59.5,63.3,59.6,63.4,59.8,63.4z M56.4,59.9c0-0.2,0-0.3,0.1-0.4
	c0.1-0.1,0.3-0.1,0.5-0.1c0.2,0,0.4,0,0.5,0.1c0.1,0.1,0.1,0.2,0.1,0.4c0,0.3-0.2,0.5-0.6,0.5C56.7,60.4,56.4,60.2,56.4,59.9z
	 M56.5,64.2h1.2v-3.4h-1.2V64.2z"/>
<path class="st8" d="M68.1,63.3c0.2,0,0.3,0,0.6-0.1V64c-0.1,0.1-0.3,0.1-0.4,0.1c-0.2,0-0.3,0-0.5,0c-0.4,0-0.7-0.1-0.9-0.3
	c-0.2-0.2-0.3-0.5-0.3-0.9v-1.4h-0.4v-0.5l0.5-0.4l0.3-0.7h0.8v0.7h0.8v0.9h-0.8V63C67.8,63.2,67.9,63.3,68.1,63.3 M64.5,64.2v-1.9
	c0-0.2,0-0.4-0.1-0.5c-0.1-0.1-0.2-0.2-0.3-0.2c-0.2,0-0.3,0.1-0.4,0.2c-0.1,0.2-0.1,0.4-0.1,0.8v1.5h-1.2v-3.4h0.9l0.1,0.4h0.1
	c0.1-0.2,0.2-0.3,0.4-0.4c0.2-0.1,0.4-0.1,0.6-0.1c0.4,0,0.7,0.1,0.9,0.3c0.2,0.2,0.3,0.5,0.3,0.9v2.2H64.5z"/>
<path class="st0" d="M74.1,49.6v-2.5h5.6v5.1c-1.2,1.3-3.1,2.1-4.9,2.1c-3.6,0-6.6-2.8-6.6-6.2c0-3.4,3-6.2,6.6-6.2
	c1.9,0,3.7,0.8,4.9,2.1l-2.5,2.2c-0.6-0.8-1.5-1.2-2.5-1.2c-1.7,0-3.1,1.4-3.1,3.1c0,1.7,1.4,3.1,3.1,3.1c0.6,0,1.2-0.2,1.7-0.5
	v-1.2H74.1L74.1,49.6z M60.6,50h2.2l-1.1-2.9L60.6,50z M64.4,54.1l-0.6-1.6h-4.2L59,54.1h-3.8l4.6-12h3.8l4.6,12H64.4z M50.3,54.3
	c-3.5,0-6.5-2.8-6.5-6.2c0-3.4,3-6.2,6.5-6.2c1.8,0,3.6,0.8,4.9,2.1l-2.5,2.2c-0.6-0.7-1.4-1.2-2.4-1.2c-1.6,0-3,1.4-3,3.1
	c0,1.7,1.4,3.1,3,3.1c1,0,1.8-0.5,2.4-1.2l2.5,2.2C53.9,53.5,52.2,54.3,50.3,54.3z M28.3,54.1l-3.3-12h3.6l1.5,6.9l2.3-6.9h3.6
	l2.3,6.9l1.5-6.9h3.6l-3.3,12h-3.4l-2.5-6.9l-2.5,6.9H28.3z"/>
<g class="st9">
	<path class="st10" d="M29.4,89.5c0-1.3,1-2.2,2.3-2.2c1.4,0,2.3,0.9,2.3,2.2c0,1.3-1,2.2-2.3,2.2C30.3,91.7,29.4,90.8,29.4,89.5z
		 M33,89.5c0-0.8-0.6-1.4-1.3-1.4c-0.7,0-1.3,0.5-1.3,1.4s0.6,1.4,1.3,1.4C32.4,90.8,33,90.3,33,89.5z"/>
	<path class="st10" d="M41.8,87.3v2.4c0,1.3-0.7,2-1.9,2c-0.6,0-1.1-0.2-1.5-0.7c-0.3,0.5-0.8,0.7-1.5,0.7c-1.3,0-1.9-0.7-1.9-2
		v-2.4h1v2.3c0,0.8,0.3,1.2,0.9,1.2c0.6,0,0.9-0.4,0.9-1.2v-2.3h1v2.3c0,0.8,0.3,1.2,0.9,1.2c0.6,0,0.9-0.4,0.9-1.2v-2.3H41.8z"/>
	<path class="st10" d="M47.3,89.5c0-1.3,1-2.2,2.3-2.2c1.4,0,2.3,0.9,2.3,2.2c0,1.3-1,2.2-2.3,2.2C48.3,91.7,47.3,90.8,47.3,89.5z
		 M50.9,89.5c0-0.8-0.6-1.4-1.3-1.4c-0.7,0-1.3,0.5-1.3,1.4s0.6,1.4,1.3,1.4C50.4,90.8,50.9,90.3,50.9,89.5z"/>
	<path class="st10" d="M60.8,89.5c0-1.3,1-2.2,2.4-2.2c0.9,0,1.5,0.4,1.9,1l-0.8,0.5c-0.3-0.4-0.7-0.6-1.1-0.6
		c-0.8,0-1.3,0.5-1.3,1.4c0,0.9,0.6,1.4,1.3,1.4c0.4,0,0.8-0.2,1.1-0.6l0.8,0.5c-0.3,0.7-1,1-1.9,1C61.8,91.7,60.8,90.8,60.8,89.5z"
		/>
	<path class="st10" d="M65.5,89.5c0-1.3,1-2.2,2.4-2.2c0.9,0,1.5,0.4,1.9,1l-0.8,0.5c-0.3-0.4-0.7-0.6-1.1-0.6
		c-0.8,0-1.3,0.5-1.3,1.4c0,0.9,0.6,1.4,1.3,1.4c0.4,0,0.8-0.2,1.1-0.6l0.8,0.5c-0.3,0.7-1,1-1.9,1C66.5,91.7,65.5,90.8,65.5,89.5z"
		/>
	<path class="st10" d="M73.8,90.4l0.5,0.6c-0.4,0.5-1,0.7-1.8,0.7c-1.5,0-2.4-0.9-2.4-2.2s1-2.2,2.3-2.2c1.2,0,2.2,0.8,2.2,2.2
		l-3.4,0.7c0.2,0.5,0.7,0.8,1.3,0.8C73.1,90.9,73.5,90.7,73.8,90.4z M71.2,89.4L71.2,89.4l2.5-0.5c-0.1-0.5-0.6-0.9-1.2-0.9
		C71.7,88.1,71.2,88.6,71.2,89.4z"/>
	<path class="st10" d="M75.1,91.2l0.4-0.8c0.4,0.3,1,0.4,1.5,0.4c0.6,0,0.9-0.2,0.9-0.5c0-0.8-2.7,0-2.7-1.8c0-0.8,0.7-1.4,1.9-1.4
		c0.6,0,1.2,0.1,1.6,0.4l-0.4,0.8c-0.4-0.2-0.8-0.3-1.3-0.3c-0.6,0-0.9,0.2-0.9,0.5c0,0.9,2.7,0.1,2.7,1.8c0,0.8-0.8,1.4-2,1.4
		C76.3,91.7,75.5,91.5,75.1,91.2z"/>
	<path class="st10" d="M79.4,91.2l0.4-0.8c0.4,0.3,1,0.4,1.5,0.4c0.6,0,0.9-0.2,0.9-0.5c0-0.8-2.7,0-2.7-1.8c0-0.8,0.7-1.4,1.9-1.4
		c0.6,0,1.2,0.1,1.6,0.4l-0.4,0.8c-0.4-0.2-0.8-0.3-1.3-0.3c-0.6,0-0.9,0.2-0.9,0.5c0,0.9,2.7,0.1,2.7,1.8c0,0.8-0.8,1.4-2,1.4
		C80.5,91.7,79.8,91.5,79.4,91.2z"/>
	<path class="st10" d="M28.3,84v7.6h-1.4v-3.3h-3.9v3.3h-1.4V84h1.4v3.1h3.9V84H28.3z"/>
	<path class="st10" d="M47.9,85.9c-0.7-0.4-1.4-0.7-2.2-0.7v6.5h-1.4v-6.5c-0.8,0.1-1.5,0.3-2.2,0.7l-0.5-1.1c1-0.6,2.2-0.9,3.4-0.9
		c1.2,0,2.4,0.3,3.4,0.9L47.9,85.9z"/>
	<path class="st10" d="M59.7,87.5v4.2h-1.4v-2h-4v2H53v-4.2c0-2.3,1.4-3.5,3.4-3.5C58.4,84,59.7,85.2,59.7,87.5z M58.3,88.5v-1.2
		c0-1.4-0.8-2.1-2-2.1c-1.2,0-2,0.7-2,2.1v1.2H58.3z"/>
</g>
<g class="st9">
	<path class="st10" d="M51.7,83.9c0.5,0.5,0.9,0.9,1.3,1.4c0,0-4.1,4.1-6,6c-0.5,0.5-0.5,0.5,0,1c1.9,1.9,5.9,5.9,6,5.9
		c-0.5,0.5-0.9,0.9-1.4,1.3c0,0-4.4-4.4-6.5-6.5c-0.9-0.9-0.9-1.7,0-2.6C47.2,88.3,51.7,83.9,51.7,83.9z"/>
	<path class="st2" d="M54.9,88.5c0.5-0.5,0.9-0.9,1.4-1.4c0.8,0.8,3.2,3.2,3.5,3.5c0.5,0.6,0.6,1.4,0,2c-1.2,1.2-2.4,2.4-3.6,3.6
		c-0.4-0.4-0.8-0.9-1.2-1.4c0.6-0.6,2.5-2.4,2.7-2.7c0.4-0.4,0.4-0.5,0-0.9C56.9,90.4,55,88.6,54.9,88.5z"/>
	<g class="st11">
		<path class="st2" d="M60.3,89.3c0,0.9-0.3,1.6-0.8,2.1c-0.5,0.5-1.3,0.7-2.2,0.8l-0.1,2.1H56l-0.1-3.3h1c0.3,0,0.6,0,0.9-0.1
			c0.2-0.1,0.4-0.2,0.6-0.3c0.1-0.1,0.2-0.3,0.3-0.5c0.1-0.2,0.1-0.4,0.1-0.7c0-0.4-0.1-0.8-0.3-1.1s-0.4-0.6-0.7-0.8
			c-0.3-0.2-0.7-0.4-1.1-0.5c-0.4-0.1-0.9-0.2-1.4-0.2H55v-1.3h0.2c0.6,0,1.1,0.1,1.6,0.2c0.5,0.1,0.9,0.3,1.3,0.4
			c0.4,0.2,0.7,0.4,1,0.7c0.3,0.3,0.5,0.5,0.7,0.8c0.2,0.3,0.3,0.6,0.4,0.9C60.3,88.8,60.3,89,60.3,89.3z M56.6,95.5
			c0.2,0,0.3,0,0.4,0.1c0.1,0.1,0.3,0.1,0.4,0.2c0.1,0.1,0.2,0.2,0.2,0.4c0.1,0.1,0.1,0.3,0.1,0.4c0,0.2,0,0.3-0.1,0.4
			c-0.1,0.1-0.1,0.3-0.2,0.4c-0.1,0.1-0.2,0.2-0.4,0.2c-0.1,0.1-0.3,0.1-0.4,0.1c-0.2,0-0.3,0-0.4-0.1c-0.1-0.1-0.3-0.1-0.4-0.2
			c-0.1-0.1-0.2-0.2-0.2-0.4c-0.1-0.1-0.1-0.3-0.1-0.4c0-0.2,0-0.3,0.1-0.4c0.1-0.1,0.1-0.3,0.2-0.4c0.1-0.1,0.2-0.2,0.4-0.2
			C56.3,95.5,56.4,95.5,56.6,95.5z"/>
	</g>
</g>
<g>
	<g>
		<path class="st12" d="M20,83.6h-3.4l-7.4,21.1H12l2.3-6.6h7.8l2.3,6.6h3l0,0L20,83.6z M14.9,95.9l2.1-6.1c0.4-1.3,0.8-2.6,1.1-3.8
			h0.1c0.3,1.2,0.7,2.5,1.1,3.8l2.1,6.1H14.9z"/>
		<path class="st12" d="M74.1,62.5l-14.9,42.1l0,0.1h5.8l4.6-13.3h15.5l4.7,13.3h6l-15-42.2H74.1z M70.8,87.2L75.1,75
			c0.8-2.6,1.6-5.1,2.2-7.6h0.1c0.7,2.4,1.3,4.9,2.3,7.7L84,87.2H70.8z"/>
		<path class="st12" d="M46.3,73.1h-5.9l-12.9,31.6l0,0h5.1l4-9.9H50l4.1,9.9h5.2l0-0.1L46.3,73.1z M37.5,91.6l3.7-9.2
			c0.7-1.9,1.4-3.8,1.9-5.7h0.1c0.6,1.8,1.1,3.7,2,5.8l3.7,9.1H37.5z"/>
		<polygon class="st12" points="27.4,104.7 27.5,104.7 27.4,104.7 		"/>
		<polygon class="st12" points="59.2,104.7 59.3,104.7 59.2,104.6 		"/>
	</g>
</g>
</svg>
