<?xml version="1.0" encoding="utf-8"?>
<!-- Generator: Adobe Illustrator 24.2.3, SVG Export Plug-In . SVG Version: 6.00 Build 0)  -->
<svg version="1.1" id="Capa_1" xmlns="http://www.w3.org/2000/svg" xmlns:xlink="http://www.w3.org/1999/xlink" x="0px" y="0px"
	 viewBox="0 0 1080 1080" style="enable-background:new 0 0 1080 1080;" xml:space="preserve">
<style type="text/css">
	.st0{fill:#72B5E8;}
	.st1{fill:#A8CFF0;}
	.st2{fill:#D1EBFF;}
	.st3{fill:#FFFFFF;}
	.st4{fill:#EB4680;}
	.st5{fill:#D62D69;}
	.st6{opacity:0.7;fill:#FFFFFF;enable-background:new    ;}
	.st7{fill:#3F92D1;}
	.st8{fill:#4F9FDB;}
	.st9{fill:#03336E;}
	.st10{fill:#001A46;}
	.st11{fill:#FFCC00;}
	.st12{fill:#0FBAB8;}
	.st13{fill:#2672AB;}
	.st14{fill:#084C94;}
	.st15{fill:#0BA19F;}
	.st16{fill:#FFD70F;}
	.st17{fill:#D99F00;}
	.st18{fill:#B08100;}
	.st19{fill:#FFDE17;}
	.st20{fill:#3ECFCD;}
	.st21{fill:#F76195;}
	.st22{opacity:0.2;fill:#92B4D1;enable-background:new    ;}
</style>
<g>
	<g>
		<g>
			<path class="st0" d="M903.6,614.7c-23.6-13.6-42.7-46.6-42.7-73.6c0-10,2.7-17.8,7.2-22.9c-12.9,0.9-21.7,11.8-21.7,30
				c0,27.1,19.1,60,42.7,73.6c14.8,8.6,27.8,7.4,35.5-1.4C918.4,620.9,911.2,619.1,903.6,614.7z"/>
			<path class="st1" d="M945.1,605.8c0-3.4-0.3-6.9-0.7-10.3l17.3-2.2c-1.8-8.7-4.4-17.5-7.8-26.1l-19.7-5.9
				c-3.4-7.4-7.6-14.5-12.2-21.1l4.7-19.8c-5.8-7.3-12.1-14-18.8-19.8l-10.6,13.7c-2.8-2.1-5.7-4.1-8.7-5.8c-2.9-1.7-5.8-3-8.7-4.2
				l-10.6-25.9c-6.7-1.8-13-2.4-18.8-1.9l4.7,25.3c-4.7,1.2-8.8,3.6-12.2,7L823.3,492c-3.4,4.7-6.1,10.4-7.8,17.1l17.3,22.1
				c-0.4,3-0.7,6.1-0.7,9.5s0.3,6.9,0.7,10.3l-17.3,2.2c1.8,8.7,4.4,17.5,7.8,26.1l19.7,5.9c3.4,7.4,7.6,14.5,12.2,21.1l-4.7,19.8
				c5.8,7.3,12.1,14,18.8,19.8l10.6-13.7c2.8,2.1,5.7,4.1,8.7,5.8c2.9,1.7,5.8,3,8.7,4.2l10.6,25.9c6.7,1.8,13,2.4,18.8,1.9
				l-4.7-25.3c4.7-1.2,8.8-3.6,12.2-7l19.7,16.8c3.4-4.7,6.1-10.4,7.8-17.1l-17.3-22.1C944.8,612.3,945.1,609.2,945.1,605.8z
				 M889.1,621.8c-23.6-13.6-42.7-46.6-42.7-73.6s19.1-38,42.7-24.3c23.6,13.6,42.7,46.6,42.7,73.6
				C931.8,624.5,912.7,635.4,889.1,621.8z"/>
			<polygon class="st0" points="896.4,494.6 885.8,468.7 869.3,478.2 879.9,504.1 			"/>
			<path class="st2" d="M879.9,504.1c2.8,1.1,5.7,2.5,8.7,4.2c2.9,1.7,5.8,3.7,8.7,5.8l10.6-13.7l0,0c0,0-1.8-1.1-2.7-1.6
				c-2.9-1.7-5.8-3-8.7-4.2L879.9,504.1z"/>
			<path class="st2" d="M885.8,468.7c-6.7-1.8-13-2.4-18.8-1.9l-16.5,9.5c5.8-0.5,12.1,0.1,18.8,1.9L885.8,468.7z"/>
			<path class="st2" d="M943.1,510.7c-5.8-7.3-12.1-14-18.8-19.8l-16.5,9.5c6.7,5.9,13,12.6,18.8,19.8L943.1,510.7z"/>
			<polygon class="st0" points="926.6,520.2 921.9,540.1 938.4,530.6 943.1,510.7 			"/>
			<path class="st0" d="M921.9,540.1c4.7,6.6,8.8,13.8,12.2,21.1l16.5-9.5c-3.4-7.4-7.6-14.5-12.2-21.1L921.9,540.1z"/>
			<polygon class="st2" points="934.1,561.2 953.8,567.1 970.3,557.6 950.7,551.7 			"/>
			<path class="st0" d="M953.8,567.1c3.4,8.7,6.1,17.4,7.8,26.1l16.5-9.5c-1.8-8.7-4.4-17.5-7.8-26.1L953.8,567.1z"/>
			<path class="st0" d="M855.2,501.5l-1.4-7.4l-14-11.9l-16.5,9.5l19.7,16.8C846.4,505.1,850.5,502.8,855.2,501.5z"/>
			<path class="st0" d="M961.6,637.4c-1.8,6.7-4.4,12.4-7.8,17.1l16.5-9.5c3.4-4.7,6.1-10.4,7.8-17.1L961.6,637.4z"/>
			<path class="st0" d="M960.9,605.8c0.4-3,0.7-6.1,0.7-9.5c0-1-0.1-2-0.1-3l-17.1,2.2c0.4,3.5,0.7,7,0.7,10.3
				c0,3.4-0.3,6.5-0.7,9.5L960.9,605.8z"/>
			<polygon class="st2" points="944.4,615.3 961.6,637.4 978.2,627.9 960.9,605.8 			"/>
			<path class="st0" d="M934.1,637.7c-3.4,3.4-7.6,5.7-12.2,7l4.7,25.3l16.5-9.5l-3.3-17.9L934.1,637.7z"/>
			<path class="st2" d="M832.1,543.2l-16.6,9.8l17.3-2.2C832.4,548.3,832.2,545.7,832.1,543.2z"/>
			<path class="st0" d="M879.9,632.2l-10.6,13.7l16.7-9.5C883.9,635.1,881.9,633.7,879.9,632.2z"/>
			<g>
				<path class="st3" d="M853.2,502.7v-0.3c-0.8,0.3-1.5,0.7-2.3,1C851.6,503.2,852.4,502.9,853.2,502.7z"/>
				<path class="st3" d="M830.6,551.1l-14.3,1.8c0.1,0.3,0.1,0.6,0.2,0.8l14.2-1.8C830.7,551.7,830.7,551.4,830.6,551.1z"/>
				<path class="st3" d="M925.7,521.3l-4.7,19.8c4.7,6.6,8.8,13.8,12.2,21.1l19.7,5.9c3.3,8.4,5.9,16.9,7.6,25.3l1.9-0.3
					c-1.8-8.7-4.4-17.5-7.8-26.1l-19.7-5.9c-3.4-7.4-7.6-14.5-12.2-21.1l4.7-19.8c-5.8-7.3-12.1-14-18.8-19.8l-0.6,2.2
					C914.2,508.1,920.2,514.4,925.7,521.3z"/>
				<path class="st3" d="M889.2,621.5c-23.6-13.6-42.7-46.6-42.7-73.6c0-12,3.7-20.7,10-25.6c-7.2,4.6-11.6,13.8-11.6,26.8
					c0,27.1,19.1,60,42.7,73.6c11.9,6.9,22.7,7.5,30.4,2.9c-0.6,0.2-1.2,0.3-1.8,0.4C908.9,628.7,899.5,627.4,889.2,621.5z"/>
				<path class="st3" d="M925.1,643.8c2.8-1,5.4-2.5,7.8-4.4l-0.7-0.6C930,640.9,927.6,642.6,925.1,643.8z"/>
				<path class="st3" d="M842.3,509c-0.7,0,0-0.6,0.7-1.1l-18.9-16.1c-0.5,0.7-1,1.6-0.1,1.7L842.3,509z"/>
				<path class="st3" d="M921.4,645.8l4.5,24.2c-0.5,0,0.5,0,1.5-0.1l-4.7-25C921.8,645.2,920.9,645.6,921.4,645.8z"/>
				<path class="st3" d="M945.9,605.7c0-3.1-0.3-6.3-0.6-9.5l-1.7,0.1c0.4,3.5,0.7,7,0.7,10.3c0,3.4-0.3,6.5-0.7,9.5l17.3,22.1
					c-1.5,5.6-3.6,10.5-6.3,14.7l0.1,1.4c3.4-4.7,6.1-10.4,7.8-17.1l-17.3-22.1C945.6,612.2,945.9,609.1,945.9,605.7z"/>
				<path class="st3" d="M868.6,478.9l10.6,25.9c2.8,1.1,5.7,2.5,8.7,4.2c2.9,1.7,5.8,3.7,8.6,5.8l0.3-1.6c-2.4-1.8-4.9-3.5-7.4-5
					c-2.9-1.7-5.8-3-8.7-4.2l-10.6-25.9c-6.7-1.8-13-2.4-18.8-1.9l0.2,1.1C856.5,477.2,863,477.3,868.6,478.9z"/>
				<path class="st3" d="M877.9,633.3l-8.9,11.4c0.4,0.3,0.7,0.7,1.1,1l9-11.6C878.7,633.9,878.3,633.6,877.9,633.3z"/>
			</g>
		</g>
		<g>
			<path class="st0" d="M897.5,411.7c-35.5-20.5-64.2-70.1-64.2-110.8c0-15.1,4-26.8,10.8-34.5c-19.5,1.4-32.6,17.7-32.6,45.2
				c0,40.7,28.7,90.3,64.2,110.8c22.3,12.9,41.8,11.1,53.3-2C919.7,421,908.9,418.3,897.5,411.7z"/>
			<path class="st1" d="M959.9,398.2c0-5.1-0.4-10.3-1.1-15.6l26-3.3c-2.6-13.1-6.6-26.3-11.8-39.3l-29.6-8.9
				c-5.2-11.1-11.4-21.8-18.4-31.8l7.1-29.8c-8.8-10.9-18.3-21-28.3-29.9l-15.9,20.6c-4.3-3.2-8.6-6.2-13-8.8
				c-4.4-2.6-8.8-4.5-13-6.3l-15.9-39c-10.1-2.8-19.6-3.7-28.3-2.9l7.1,38c-7,1.9-13.2,5.4-18.4,10.5l-29.6-25.2
				c-5.1,7.1-9.1,15.7-11.8,25.7l26,33.3c-0.7,4.5-1.1,9.2-1.1,14.3c0,5.1,0.4,10.3,1.1,15.6l-26,3.3c2.6,13.1,6.6,26.3,11.8,39.3
				l29.6,8.9c5.2,11.1,11.4,21.8,18.4,31.8l-7.1,29.8c8.8,10.9,18.3,21,28.3,29.9l15.9-20.6c4.3,3.2,8.6,6.2,13,8.8
				c4.4,2.6,8.8,4.5,13,6.3l15.9,39c10.1,2.8,19.6,3.7,28.3,2.9l-7.1-38c7-1.9,13.2-5.4,18.4-10.5l29.6,25.2
				c5.1-7.1,9.1-15.7,11.8-25.7l-26-33.3C959.4,408,959.9,403.3,959.9,398.2z M875.6,422.4c-35.5-20.5-64.2-70.1-64.2-110.8
				s28.7-57.1,64.2-36.6s64.2,70.1,64.2,110.8S911.1,442.8,875.6,422.4z"/>
			<polygon class="st0" points="886.7,231 870.8,192 845.9,206.3 861.8,245.3 			"/>
			<path class="st2" d="M861.8,245.3c4.3,1.7,8.6,3.7,13,6.3s8.8,5.6,13,8.8l15.9-20.6l0,0c0,0-2.7-1.7-4.1-2.5
				c-4.4-2.6-8.8-4.5-13-6.3L861.8,245.3z"/>
			<path class="st2" d="M870.8,192c-10.1-2.8-19.6-3.7-28.3-2.9l-24.9,14.3c8.8-0.8,18.3,0.1,28.3,2.9L870.8,192z"/>
			<path class="st2" d="M956.9,255.3c-8.8-10.9-18.3-21-28.3-29.9l-24.9,14.3c10.1,8.8,19.6,18.9,28.3,29.9L956.9,255.3z"/>
			<polygon class="st0" points="932.1,269.6 925,299.4 949.9,285.1 956.9,255.3 			"/>
			<path class="st0" d="M925,299.4c7,10,13.2,20.7,18.4,31.8l24.9-14.3c-5.2-11.1-11.4-21.8-18.4-31.8L925,299.4z"/>
			<polygon class="st2" points="943.4,331.2 973,340.1 997.8,325.8 968.3,316.9 			"/>
			<path class="st0" d="M973,340.1c5.1,13,9.1,26.2,11.8,39.3l24.9-14.3c-2.6-13.1-6.6-26.3-11.8-39.3L973,340.1z"/>
			<path class="st0" d="M824.6,241.5l-2.1-11.1l-21-17.9l-24.9,14.3l29.6,25.2C811.4,246.9,817.6,243.3,824.6,241.5z"/>
			<path class="st0" d="M984.7,445.8c-2.6,10-6.6,18.6-11.8,25.7l24.9-14.3c5.1-7.1,9.1-15.7,11.8-25.7L984.7,445.8z"/>
			<path class="st0" d="M983.7,398.3c0.7-4.5,1.1-9.2,1.1-14.3c0-1.5-0.1-3-0.2-4.5l-25.8,3.3c0.7,5.3,1.1,10.5,1.1,15.6
				s-0.4,9.8-1.1,14.3L983.7,398.3z"/>
			<polygon class="st2" points="958.8,412.5 984.7,445.8 1009.6,431.5 983.7,398.3 			"/>
			<path class="st0" d="M943.4,446.3c-5.2,5.1-11.4,8.6-18.4,10.5l7.1,38l24.9-14.3l-5-27L943.4,446.3z"/>
			<path class="st2" d="M789.9,304.2l-25,14.7l26-3.3C790.4,311.8,790.1,308,789.9,304.2z"/>
			<path class="st0" d="M861.8,438l-15.9,20.6l25.1-14.3C867.9,442.3,864.8,440.2,861.8,438z"/>
			<g>
				<path class="st3" d="M821.6,243.2l-0.1-0.4c-1.2,0.5-2.3,1-3.4,1.6C819.3,243.9,820.4,243.5,821.6,243.2z"/>
				<path class="st3" d="M787.7,316l-21.5,2.7c0.1,0.4,0.2,0.8,0.3,1.3l21.4-2.7C787.8,316.9,787.7,316.5,787.7,316z"/>
				<path class="st3" d="M930.7,271.2l-7.1,29.8c7,10,13.2,20.7,18.4,31.8l29.6,8.9c5,12.6,8.8,25.4,11.5,38l2.9-0.5
					c-2.6-13.1-6.6-26.3-11.8-39.3l-29.6-8.9c-5.2-11.1-11.4-21.8-18.4-31.8l7.1-29.8c-8.8-10.9-18.3-21-28.3-29.9l-1,3.3
					C913.5,251.3,922.4,260.9,930.7,271.2z"/>
				<path class="st3" d="M875.8,421.9c-35.5-20.5-64.2-70.1-64.2-110.8c0-18,5.6-31.1,15-38.5c-10.8,6.9-17.4,20.8-17.4,40.3
					c0,40.7,28.7,90.3,64.2,110.8c17.9,10.3,34.1,11.3,45.7,4.4c-0.9,0.3-1.8,0.4-2.7,0.6C905.4,432.7,891.3,430.8,875.8,421.9z"/>
				<path class="st3" d="M929.8,455.5c4.3-1.5,8.2-3.7,11.7-6.6l-1.1-0.9C937.2,451.1,933.6,453.6,929.8,455.5z"/>
				<path class="st3" d="M805.3,252.6c-1.1,0,0-0.8,1.1-1.7l-28.5-24.3c-0.8,1.1-1.5,2.3-0.2,2.5L805.3,252.6z"/>
				<path class="st3" d="M924.3,458.5l6.8,36.4c-0.8,0,0.8-0.1,2.3-0.2l-7-37.6C924.9,457.6,923.5,458.1,924.3,458.5z"/>
				<path class="st3" d="M961.1,398.1c0-4.7-0.4-9.5-1-14.3l-2.6,0.2c0.7,5.3,1.1,10.5,1.1,15.6s-0.4,9.8-1.1,14.3l26,33.3
					c-2.2,8.4-5.5,15.8-9.5,22.2l0.2,2.1c5.1-7.1,9.1-15.7,11.8-25.7l-26-33.3C960.7,407.9,961.1,403.2,961.1,398.1z"/>
				<path class="st3" d="M844.8,207.3l15.9,39c4.3,1.7,8.6,3.7,13,6.3c4.4,2.6,8.8,5.6,13,8.8l0.5-2.5c-3.7-2.7-7.4-5.3-11.2-7.5
					c-4.4-2.6-8.8-4.5-13-6.3l-15.9-39c-10.1-2.8-19.6-3.7-28.3-2.9l0.3,1.6C826.6,204.8,836.5,205,844.8,207.3z"/>
				<path class="st3" d="M858.8,439.7l-13.3,17.2c0.6,0.5,1.1,1,1.7,1.5l13.5-17.4C860,440.6,859.4,440.1,858.8,439.7z"/>
			</g>
		</g>
		<path class="st4" d="M907,189.1c0.2-4.1,3-5.9,6.3-4s5.8,6.8,5.6,10.9c-0.2,4.1-3,5.9-6.3,4C909.3,198.1,906.8,193.3,907,189.1z"
			/>
		<path class="st4" d="M888.6,681.1c0.1-2.7,2-3.9,4.2-2.7c2.2,1.3,3.9,4.5,3.7,7.2c-0.1,2.7-2,3.9-4.2,2.7S888.4,683.8,888.6,681.1
			z"/>
		<g>
			<path class="st4" d="M1008.8,482.2c-0.5,0-0.9-0.2-1.2-0.6c-0.4-0.5-0.4-1.2-0.1-1.7l7.4-12.6c0.4-0.7,1.4-1,2.1-0.6
				s1,1.4,0.6,2.1l-5.4,9.2l10.9-3.3c0.8-0.2,1.7,0.2,1.9,1c0.3,0.8-0.2,1.7-1,1.9l-14.6,4.5
				C1009.1,482.2,1008.9,482.2,1008.8,482.2z"/>
		</g>
		<g>
			<path class="st5" d="M881.1,537.9c5.8,3.3,10.8,9.7,13.7,16.5c0,0.1,3.3-1,4.5-1.5c2.8-1.1,6.5-0.7,10.5,1.6
				c9,5.2,16.3,17.7,16.3,28c0,18.8-32.2,25.4-32.2,25.4s-30.7-41-30.7-59.8c0-5.1-2.2-6.7,0.7-8.4c0.3-0.1,6.1-3.2,6.4-3.4
				C873.3,535.1,877,535.5,881.1,537.9z"/>
			<path class="st4" d="M875.7,540.8c6.3,3.6,11.7,10.8,14.4,18.3c2.7-4.4,8.1-5.3,14.4-1.7c9,5.2,16.3,17.7,16.3,28
				c0,18.8-30.7,24.4-30.7,24.4s-30.7-41-30.7-59.8C859.5,539.8,866.7,535.7,875.7,540.8z"/>
			<g>
				<path class="st6" d="M874.8,541.2c6.3,3.6,12.4,10.8,15.1,18.3c0.6-0.9-0.2-0.6,0.6-1.2c-2.8-7.2-8-13.9-14-17.3
					c-4.9-2.8-8.6-3.5-11.5-1.7C867.7,538.6,871.1,539.1,874.8,541.2z"/>
				<path class="st6" d="M904.9,557.4c-4.9-2.8-8.7-2.9-11.2-1.4c2.7-0.8,6.1-0.3,9.8,1.8c9,5.2,16.3,17.7,16.3,28
					c0,8.7-6.6,14.6-13.7,18.4c7.9-3.7,15-9.2,15-18.9C921.2,575.1,913.9,562.6,904.9,557.4z"/>
			</g>
		</g>
		<g>
			<path class="st4" d="M1013.5,480.1l-2.1-2.3c16.5-15,25.3-39.5,25.3-70.8c0-77.9-55.2-173.2-123.1-212.4l1.5-2.7
				c68.7,39.7,124.7,136.1,124.7,215C1039.8,439.2,1030.7,464.5,1013.5,480.1z"/>
		</g>
		<g>
			<g>
				<path class="st1" d="M1062.2,427.6L1062.2,427.6c-0.9,0-1.5-0.7-1.5-1.6c0-1,0-2,0-3.1c0-0.8,0.7-1.5,1.5-1.5s1.5,0.7,1.5,1.5
					c0,1,0,2.1,0,3.1C1063.8,427,1063.1,427.6,1062.2,427.6z"/>
			</g>
			<g>
				<path class="st1" d="M977.6,534.2c-0.8,0-1.5-0.7-1.5-1.5s0.7-1.5,1.5-1.5c2,0,4-0.1,6-0.2c0.8-0.1,1.6,0.6,1.6,1.4
					c0.1,0.8-0.6,1.6-1.4,1.6C981.8,534.1,979.7,534.1,977.6,534.2L977.6,534.2z M968.5,533.8L968.5,533.8c-2.1-0.2-4.2-0.4-6.3-0.7
					c-0.8-0.1-1.4-0.9-1.3-1.7s0.9-1.4,1.7-1.3c2,0.3,4,0.5,6,0.7c0.8,0.1,1.5,0.8,1.4,1.7C970,533.2,969.3,533.8,968.5,533.8z
					 M992.8,532.8c-0.7,0-1.4-0.5-1.5-1.3s0.4-1.6,1.2-1.8c2-0.4,3.9-0.8,5.8-1.3c0.8-0.2,1.7,0.3,1.9,1.1c0.2,0.8-0.3,1.7-1.1,1.9
					c-2,0.5-4,1-6.1,1.4C993,532.7,992.9,532.8,992.8,532.8z M1007.4,528.6c-0.6,0-1.2-0.4-1.4-1c-0.3-0.8,0.1-1.7,0.9-2
					c1.8-0.7,3.7-1.5,5.5-2.4c0.8-0.4,1.7-0.1,2.1,0.7s0.1,1.7-0.7,2.1c-1.8,0.9-3.8,1.8-5.7,2.5
					C1007.8,528.6,1007.6,528.6,1007.4,528.6z M1020.9,521.6c-0.5,0-1-0.2-1.3-0.7c-0.5-0.7-0.3-1.7,0.4-2.1
					c1.7-1.1,3.3-2.3,4.8-3.5c0.7-0.5,1.6-0.4,2.2,0.3c0.5,0.7,0.4,1.6-0.3,2.2c-1.6,1.3-3.3,2.5-5.1,3.6
					C1021.5,521.5,1021.2,521.6,1020.9,521.6z M1032.7,511.9c-0.4,0-0.8-0.2-1.1-0.5c-0.6-0.6-0.6-1.6,0-2.2
					c1.4-1.4,2.8-2.9,4.1-4.4c0.6-0.6,1.5-0.7,2.2-0.2c0.6,0.6,0.7,1.5,0.2,2.2c-1.3,1.6-2.8,3.1-4.2,4.6
					C1033.5,511.8,1033.1,511.9,1032.7,511.9z M1042.4,500.2c-0.3,0-0.6-0.1-0.9-0.3c-0.7-0.5-0.9-1.4-0.4-2.1
					c1.1-1.6,2.2-3.3,3.2-5.1c0.4-0.7,1.4-1,2.1-0.5c0.7,0.4,1,1.4,0.5,2.1c-1,1.8-2.2,3.5-3.3,5.2
					C1043.4,500,1042.9,500.2,1042.4,500.2z M1050,487c-0.2,0-0.4,0-0.7-0.1c-0.8-0.4-1.1-1.3-0.7-2c0.8-1.8,1.6-3.6,2.4-5.5
					c0.3-0.8,1.2-1.2,2-0.9c0.8,0.3,1.2,1.2,0.8,2c-0.8,1.9-1.6,3.8-2.5,5.7C1051.1,486.6,1050.6,487,1050,487z M1055.5,472.8
					c-0.2,0-0.3,0-0.5-0.1c-0.8-0.3-1.3-1.1-1-1.9c0.6-1.9,1.2-3.8,1.7-5.8c0.2-0.8,1.1-1.3,1.9-1.1c0.8,0.2,1.3,1.1,1.1,1.9
					c-0.5,2-1.1,4-1.7,5.9C1056.8,472.3,1056.2,472.8,1055.5,472.8z M1059.2,458c-0.1,0-0.2,0-0.3,0c-0.8-0.2-1.4-1-1.2-1.8
					c0.4-1.9,0.7-3.9,1-5.9c0.1-0.8,0.9-1.4,1.8-1.3c0.8,0.1,1.4,0.9,1.3,1.8c-0.3,2.1-0.7,4.1-1.1,6.1
					C1060.6,457.5,1060,458,1059.2,458z M1061.4,442.9c-0.1,0-0.1,0-0.2,0c-0.8-0.1-1.5-0.8-1.4-1.7c0.2-2,0.4-4,0.5-6
					c0.1-0.8,0.7-1.5,1.6-1.4c0.8,0.1,1.5,0.8,1.4,1.6c-0.1,2.1-0.3,4.1-0.5,6.1C1062.9,442.3,1062.2,442.9,1061.4,442.9z"/>
			</g>
			<g>
				<path class="st1" d="M953.3,531.5c-0.1,0-0.2,0-0.3,0c-1-0.2-2-0.5-3-0.7c-0.8-0.2-1.3-1-1.1-1.9c0.2-0.8,1-1.3,1.9-1.1
					c1,0.2,2,0.5,3,0.7c0.8,0.2,1.4,1,1.2,1.8C954.6,531,954,531.5,953.3,531.5z"/>
			</g>
		</g>
		<g>
			<g>
				<path class="st1" d="M756.4,288.1c-0.7,0-1.4-0.5-1.5-1.3c-0.2-1-0.4-2-0.5-3.1c-0.1-0.8,0.4-1.6,1.3-1.8
					c0.8-0.2,1.6,0.4,1.8,1.3c0.2,1,0.3,2,0.5,3c0.2,0.8-0.4,1.6-1.2,1.8C756.6,288.1,756.5,288.1,756.4,288.1z"/>
			</g>
			<g>
				<path class="st1" d="M1039.8,319.4c-0.6,0-1.2-0.4-1.4-1c-0.8-1.9-1.6-3.8-2.4-5.7c-0.3-0.8,0-1.7,0.8-2s1.7,0,2,0.8
					c0.8,1.9,1.6,3.9,2.4,5.8c0.3,0.8-0.1,1.7-0.8,2C1040.2,319.3,1040,319.4,1039.8,319.4z M1033.6,305.1c-0.6,0-1.1-0.3-1.4-0.9
					c-0.9-1.9-1.7-3.8-2.6-5.6c-0.4-0.8,0-1.7,0.7-2.1c0.8-0.4,1.7,0,2.1,0.7c0.9,1.9,1.8,3.8,2.7,5.7c0.4,0.8,0,1.7-0.8,2
					C1034.1,305,1033.9,305.1,1033.6,305.1z M1026.9,291c-0.6,0-1.1-0.3-1.4-0.8c-0.9-1.8-1.9-3.7-2.9-5.5c-0.4-0.8-0.1-1.7,0.6-2.1
					c0.8-0.4,1.7-0.1,2.1,0.6c1,1.8,1.9,3.7,2.9,5.6c0.4,0.8,0.1,1.7-0.7,2.1C1027.3,291,1027.1,291,1026.9,291z M1019.5,277.3
					c-0.5,0-1.1-0.3-1.3-0.8c-1-1.8-2-3.6-3.1-5.4c-0.4-0.7-0.2-1.7,0.6-2.1c0.7-0.4,1.7-0.2,2.1,0.6c1.1,1.8,2.1,3.6,3.1,5.4
					c0.4,0.7,0.2,1.7-0.6,2.1C1020,277.2,1019.8,277.3,1019.5,277.3z M754.5,275.9c-0.8,0-1.4-0.6-1.5-1.3c-0.3-2.1-0.5-4.2-0.7-6.2
					c-0.1-0.8,0.5-1.6,1.4-1.7c0.8-0.1,1.6,0.5,1.7,1.4c0.2,2,0.5,4.1,0.7,6.1c0.1,0.8-0.5,1.6-1.3,1.7
					C754.6,275.9,754.6,275.9,754.5,275.9z M1011.6,263.9c-0.5,0-1-0.3-1.3-0.7c-1.1-1.8-2.2-3.5-3.3-5.3c-0.5-0.7-0.2-1.7,0.5-2.1
					c0.7-0.5,1.7-0.3,2.1,0.5c1.1,1.8,2.2,3.5,3.3,5.3c0.4,0.7,0.2,1.7-0.5,2.1C1012.2,263.8,1011.9,263.9,1011.6,263.9z
					 M752.9,260.4c-0.8,0-1.5-0.6-1.5-1.4c-0.1-2.1-0.3-4.2-0.3-6.3c0-0.8,0.6-1.6,1.5-1.6c0,0,0,0,0.1,0c0.8,0,1.5,0.6,1.5,1.5
					c0.1,2,0.2,4.1,0.3,6.2c0.1,0.8-0.6,1.6-1.4,1.6C753,260.4,753,260.4,752.9,260.4z M1003.2,250.8c-0.5,0-1-0.2-1.3-0.7
					c-1.2-1.7-2.3-3.4-3.5-5.1c-0.5-0.7-0.3-1.7,0.4-2.1c0.7-0.5,1.7-0.3,2.1,0.4c1.2,1.7,2.4,3.4,3.5,5.1c0.5,0.7,0.3,1.7-0.4,2.1
					C1003.8,250.7,1003.5,250.8,1003.2,250.8z M752.4,244.8L752.4,244.8c-0.9,0-1.5-0.7-1.5-1.5c0-2.1,0-4.2,0.1-6.3
					c0-0.8,0.7-1.5,1.5-1.5c0,0,0,0,0.1,0c0.8,0,1.5,0.7,1.5,1.6c-0.1,2-0.1,4.1-0.1,6.2C754,244.2,753.3,244.8,752.4,244.8z
					 M994.2,238.1c-0.5,0-0.9-0.2-1.2-0.6c-1.2-1.7-2.5-3.3-3.7-5c-0.5-0.7-0.4-1.6,0.3-2.2c0.7-0.5,1.6-0.4,2.2,0.3
					c1.3,1.7,2.5,3.3,3.7,5c0.5,0.7,0.4,1.6-0.3,2.1C994.9,238,994.6,238.1,994.2,238.1z M753.1,229.3L753.1,229.3
					c-0.9-0.1-1.6-0.8-1.5-1.7c0.2-2.1,0.4-4.2,0.6-6.2c0.1-0.8,0.9-1.4,1.7-1.3c0.8,0.1,1.4,0.9,1.3,1.7c-0.2,2-0.5,4.1-0.6,6.1
					C754.6,228.7,753.9,229.3,753.1,229.3z M984.7,225.8c-0.4,0-0.9-0.2-1.2-0.6c-1.3-1.6-2.6-3.2-3.9-4.8c-0.5-0.7-0.5-1.6,0.2-2.2
					c0.6-0.5,1.6-0.5,2.2,0.2c1.3,1.6,2.7,3.2,4,4.8c0.5,0.7,0.4,1.6-0.2,2.2C985.4,225.7,985.1,225.8,984.7,225.8z M974.7,213.9
					c-0.4,0-0.8-0.2-1.2-0.5c-1.4-1.5-2.7-3.1-4.1-4.6c-0.6-0.6-0.5-1.6,0.1-2.2c0.6-0.6,1.6-0.5,2.2,0.1c1.4,1.5,2.8,3.1,4.2,4.6
					c0.6,0.6,0.5,1.6-0.1,2.2C975.4,213.8,975.1,213.9,974.7,213.9z M755.2,213.9c-0.1,0-0.2,0-0.3,0c-0.8-0.2-1.4-1-1.2-1.8
					c0.4-2.1,0.8-4.1,1.3-6.2c0.2-0.8,1-1.4,1.8-1.2s1.3,1,1.2,1.8c-0.5,2-0.9,4-1.2,6C756.5,213.4,755.9,213.9,755.2,213.9z
					 M964.2,202.5c-0.4,0-0.8-0.2-1.1-0.5c-1.4-1.5-2.9-3-4.4-4.4c-0.6-0.6-0.6-1.6,0-2.2c0.6-0.6,1.6-0.6,2.2,0
					c1.5,1.5,2.9,2.9,4.4,4.4c0.6,0.6,0.6,1.6,0,2.2C964.9,202.4,964.6,202.5,964.2,202.5z M758.8,198.8c-0.1,0-0.3,0-0.4-0.1
					c-0.8-0.2-1.3-1.1-1-1.9c0.6-2,1.3-4,2-6c0.3-0.8,1.2-1.2,2-0.9s1.2,1.2,0.9,2c-0.7,1.9-1.3,3.8-1.9,5.8
					C760.1,198.3,759.5,198.8,758.8,198.8z M953,191.6c-0.4,0-0.8-0.1-1-0.4c-1.5-1.4-3-2.8-4.6-4.2c-0.6-0.6-0.7-1.5-0.1-2.2
					c0.6-0.6,1.5-0.7,2.2-0.1c1.6,1.4,3.1,2.8,4.6,4.2c0.6,0.6,0.7,1.6,0.1,2.2C953.9,191.4,953.5,191.6,953,191.6z M764.3,184.2
					c-0.2,0-0.4,0-0.6-0.1c-0.8-0.4-1.1-1.3-0.8-2c0.9-1.9,1.8-3.8,2.8-5.7c0.4-0.7,1.3-1,2.1-0.6c0.7,0.4,1,1.3,0.6,2.1
					c-1,1.8-1.9,3.6-2.7,5.5C765.4,183.9,764.9,184.2,764.3,184.2z M941.4,181.3c-0.3,0-0.7-0.1-1-0.4c-1.6-1.3-3.2-2.6-4.8-3.9
					c-0.7-0.5-0.8-1.5-0.2-2.2c0.5-0.7,1.5-0.8,2.2-0.2c1.6,1.3,3.2,2.6,4.9,4c0.7,0.5,0.7,1.5,0.2,2.2
					C942.3,181.1,941.8,181.3,941.4,181.3z M929.1,171.7c-0.3,0-0.6-0.1-0.9-0.3c-1.7-1.2-3.3-2.4-5-3.6c-0.7-0.5-0.9-1.4-0.4-2.1
					c0.5-0.7,1.4-0.9,2.1-0.4c1.7,1.2,3.4,2.4,5.1,3.7c0.7,0.5,0.8,1.5,0.3,2.1C930.1,171.5,929.6,171.7,929.1,171.7z M771.9,170.7
					c-0.3,0-0.6-0.1-0.9-0.3c-0.7-0.5-0.9-1.4-0.4-2.1c1.2-1.8,2.4-3.5,3.7-5.1c0.5-0.7,1.5-0.8,2.2-0.3s0.8,1.5,0.3,2.2
					c-1.2,1.6-2.4,3.2-3.6,4.9C772.8,170.4,772.4,170.7,771.9,170.7z M916.3,162.8c-0.3,0-0.6-0.1-0.8-0.2c-1.7-1.1-3.5-2.2-5.2-3.3
					c-0.7-0.4-1-1.4-0.5-2.1c0.4-0.7,1.4-1,2.1-0.5c1.8,1.1,3.6,2.2,5.3,3.3c0.7,0.5,0.9,1.4,0.5,2.1
					C917.3,162.6,916.8,162.8,916.3,162.8z M781.7,158.6c-0.4,0-0.8-0.1-1.1-0.4c-0.6-0.6-0.6-1.6,0-2.2c1.5-1.5,3-3,4.6-4.3
					c0.6-0.5,1.6-0.5,2.2,0.2c0.6,0.6,0.5,1.6-0.2,2.2c-1.5,1.3-3,2.7-4.5,4.2C782.5,158.5,782.1,158.6,781.7,158.6z M903,154.9
					c-0.2,0-0.5-0.1-0.7-0.2c-1.8-1-3.7-2-5.5-2.9c-0.8-0.4-1.1-1.3-0.7-2.1s1.3-1.1,2.1-0.7c1.8,0.9,3.7,1.9,5.6,2.9
					c0.7,0.4,1,1.3,0.6,2.1C904,154.6,903.5,154.9,903,154.9z M793.6,148.7c-0.5,0-1-0.2-1.3-0.7c-0.5-0.7-0.3-1.7,0.4-2.1
					c1.8-1.2,3.6-2.3,5.4-3.3c0.7-0.4,1.7-0.1,2.1,0.6c0.4,0.7,0.1,1.7-0.6,2.1c-1.8,1-3.5,2-5.2,3.1
					C794.2,148.7,793.9,148.7,793.6,148.7z M889,148c-0.2,0-0.4,0-0.6-0.1c-1.9-0.8-3.8-1.6-5.7-2.4c-0.8-0.3-1.2-1.2-0.9-2
					c0.3-0.8,1.2-1.2,2-0.9c1.9,0.8,3.8,1.6,5.8,2.4c0.8,0.3,1.1,1.3,0.8,2C890.2,147.7,889.6,148,889,148z M874.5,142.4
					c-0.2,0-0.3,0-0.5-0.1c-2-0.7-3.9-1.3-5.9-1.8c-0.8-0.2-1.3-1.1-1.1-1.9c0.2-0.8,1.1-1.3,1.9-1.1c2,0.6,4,1.2,6,1.8
					c0.8,0.3,1.2,1.1,1,1.9C875.7,142,875.1,142.4,874.5,142.4z M807.4,141.6c-0.6,0-1.2-0.4-1.4-1c-0.3-0.8,0.1-1.7,0.9-2
					c1.9-0.8,4-1.5,6-2.1c0.8-0.2,1.7,0.2,1.9,1c0.2,0.8-0.2,1.7-1,1.9c-2,0.6-3.9,1.3-5.8,2C807.8,141.6,807.6,141.6,807.4,141.6z
					 M859.5,138.4c-0.1,0-0.2,0-0.3,0c-2-0.4-4.1-0.8-6-1.1c-0.8-0.1-1.4-0.9-1.3-1.7s0.9-1.4,1.7-1.3c2.1,0.3,4.1,0.7,6.2,1.1
					c0.8,0.2,1.4,1,1.2,1.8C860.8,137.9,860.2,138.4,859.5,138.4z M822.4,137.4c-0.7,0-1.4-0.5-1.5-1.3s0.4-1.6,1.2-1.8
					c2.1-0.4,4.2-0.7,6.3-0.9c0.8-0.1,1.6,0.5,1.7,1.4c0.1,0.8-0.5,1.6-1.4,1.7c-2,0.2-4.1,0.5-6,0.8
					C822.5,137.4,822.5,137.4,822.4,137.4z M844.1,136.3C844,136.3,844,136.3,844.1,136.3c-2.2-0.1-4.2-0.2-6.2-0.2
					c-0.8,0-1.5-0.7-1.5-1.5s0.7-1.5,1.5-1.5c2.1,0,4.2,0.1,6.3,0.2c0.8,0.1,1.5,0.8,1.4,1.6C845.6,135.7,844.9,136.3,844.1,136.3z"
					/>
			</g>
			<g>
				<path class="st1" d="M1044.3,331.1c-0.6,0-1.2-0.4-1.4-1l-1.1-2.9c-0.3-0.8,0.1-1.7,0.9-2s1.7,0.1,2,0.9l1.1,2.9
					c0.3,0.8-0.1,1.7-0.9,2C1044.7,331.1,1044.5,331.1,1044.3,331.1z"/>
			</g>
		</g>
		<g>
			<g>
				<path class="st4" d="M988.6,560.5c-0.6,0-1.2-0.4-1.4-1c-0.4-0.9-0.8-1.9-1.2-2.8c-0.3-0.8,0-1.7,0.8-2s1.7,0,2,0.8
					c0.4,1,0.8,1.9,1.2,2.9c0.3,0.8-0.1,1.7-0.8,2C989,560.4,988.8,560.5,988.6,560.5z"/>
			</g>
			<g>
				<path class="st4" d="M946.2,703.6L946.2,703.6c-2.1,0-4.1-0.1-6.2-0.3c-0.8-0.1-1.5-0.8-1.4-1.7c0.1-0.8,0.9-1.4,1.7-1.4
					c2,0.2,4,0.3,5.9,0.3c0.8,0,1.5,0.7,1.5,1.5C947.7,702.9,947,703.6,946.2,703.6z M955.3,702.9c-0.7,0-1.4-0.5-1.5-1.3
					s0.5-1.6,1.3-1.7c2-0.3,3.9-0.7,5.8-1.2c0.8-0.2,1.7,0.3,1.9,1.1c0.2,0.8-0.3,1.7-1.1,1.9c-2,0.5-4,1-6.1,1.3
					C955.4,702.9,955.3,702.9,955.3,702.9z M931.1,701.9c-0.1,0-0.2,0-0.3,0c-2-0.4-4-0.9-6-1.5c-0.8-0.2-1.3-1.1-1.1-1.9
					c0.2-0.8,1.1-1.3,1.9-1.1c2,0.6,3.9,1.1,5.8,1.5c0.8,0.2,1.4,1,1.2,1.8C932.4,701.4,931.8,701.9,931.1,701.9z M969.8,698.6
					c-0.6,0-1.1-0.3-1.4-0.9c-0.4-0.8,0-1.7,0.7-2c1.8-0.8,3.5-1.8,5.2-2.8c0.7-0.5,1.7-0.2,2.1,0.5c0.5,0.7,0.2,1.7-0.5,2.1
					c-1.8,1.1-3.6,2.1-5.5,3C970.2,698.5,970,698.6,969.8,698.6z M916.5,697.4c-0.2,0-0.4,0-0.6-0.1c-1.9-0.7-3.8-1.5-5.7-2.4
					c-0.8-0.4-1.1-1.3-0.8-2c0.4-0.8,1.3-1.1,2-0.8c1.9,0.8,3.7,1.6,5.5,2.3c0.8,0.3,1.2,1.2,0.9,2
					C917.7,697,917.1,697.4,916.5,697.4z M982.3,690.1c-0.4,0-0.8-0.2-1.1-0.5c-0.6-0.6-0.5-1.6,0.1-2.2c1.4-1.3,2.8-2.8,4.1-4.3
					c0.6-0.6,1.5-0.7,2.2-0.2c0.6,0.5,0.7,1.5,0.2,2.2c-1.4,1.6-2.8,3.1-4.3,4.5C983.1,689.9,982.7,690.1,982.3,690.1z M991.9,678.3
					c-0.3,0-0.6-0.1-0.8-0.2c-0.7-0.4-1-1.4-0.5-2.1c1-1.7,2-3.4,2.9-5.2c0.4-0.8,1.3-1.1,2.1-0.7c0.8,0.4,1.1,1.3,0.7,2.1
					c-0.9,1.9-1.9,3.7-3,5.5C992.9,678,992.4,678.3,991.9,678.3z M998.3,664.5c-0.2,0-0.3,0-0.5-0.1c-0.8-0.3-1.2-1.1-1-2
					c0.6-1.8,1.2-3.8,1.7-5.7c0.2-0.8,1-1.3,1.9-1.1c0.8,0.2,1.3,1.1,1.1,1.9c-0.5,2-1.1,4-1.8,5.9
					C999.5,664.1,998.9,664.5,998.3,664.5z M1001.9,649.8c-0.1,0-0.2,0-0.3,0c-0.8-0.1-1.4-0.9-1.3-1.8c0.3-1.9,0.6-3.9,0.8-5.9
					c0.1-0.8,0.9-1.5,1.7-1.4c0.8,0.1,1.5,0.8,1.4,1.7c-0.2,2.1-0.5,4.1-0.8,6.1C1003.3,649.2,1002.7,649.8,1001.9,649.8z
					 M1003.4,634.6C1003.4,634.6,1003.3,634.6,1003.4,634.6c-0.9,0-1.6-0.7-1.5-1.6c0-1.4,0.1-2.8,0.1-4.2V627
					c0-0.8,0.7-1.5,1.5-1.6c0.9,0.1,1.5,0.7,1.6,1.5v1.9c0,1.5,0,2.9-0.1,4.3C1004.9,634,1004.2,634.6,1003.4,634.6z M1003,619.4
					c-0.8,0-1.5-0.6-1.5-1.4c-0.1-2-0.3-4-0.6-6c-0.1-0.8,0.5-1.6,1.4-1.7c0.8-0.1,1.6,0.5,1.7,1.4c0.2,2,0.4,4.1,0.6,6.1
					c0.1,0.8-0.6,1.6-1.4,1.7C1003.1,619.4,1003.1,619.4,1003,619.4z M1001.2,604.3c-0.7,0-1.4-0.5-1.5-1.3c-0.3-2-0.7-4-1.1-5.9
					c-0.2-0.8,0.4-1.6,1.2-1.8c0.8-0.2,1.6,0.4,1.8,1.2c0.4,2,0.8,4,1.1,6c0.1,0.8-0.4,1.6-1.3,1.8
					C1001.4,604.3,1001.3,604.3,1001.2,604.3z M998.1,589.4c-0.7,0-1.3-0.5-1.5-1.2c-0.5-2-1-3.9-1.6-5.8c-0.2-0.8,0.2-1.7,1.1-1.9
					c0.8-0.2,1.7,0.2,1.9,1.1c0.6,2,1.1,4,1.6,5.9c0.2,0.8-0.3,1.7-1.1,1.9C998.3,589.4,998.2,589.4,998.1,589.4z M993.8,574.8
					c-0.6,0-1.2-0.4-1.5-1.1c-0.6-1.9-1.3-3.8-2-5.7c-0.3-0.8,0.1-1.7,0.9-2s1.7,0.1,2,0.9c0.7,1.9,1.4,3.9,2,5.8
					c0.3,0.8-0.2,1.7-1,1.9C994.1,574.7,994,574.8,993.8,574.8z"/>
			</g>
			<g>
				<path class="st4" d="M902.7,690.9c-0.3,0-0.5-0.1-0.7-0.2c-0.9-0.5-1.8-1-2.7-1.5c-0.7-0.4-1-1.4-0.6-2.1c0.4-0.7,1.4-1,2.1-0.6
					c0.9,0.5,1.8,1,2.7,1.5c0.7,0.4,1,1.3,0.6,2.1C903.7,690.6,903.2,690.9,902.7,690.9z"/>
			</g>
		</g>
		<g>
			<path class="st4" d="M984.9,562L984.9,562c-0.9-0.1-1.6-0.8-1.5-1.6l0.5-8.2c0-0.6,0.4-1.1,0.9-1.3s1.1-0.2,1.6,0.2l6.9,5.1
				c0.7,0.5,0.8,1.5,0.3,2.1c-0.5,0.7-1.5,0.8-2.1,0.3l-4.6-3.4l-0.3,5.4C986.4,561.3,985.8,562,984.9,562z"/>
		</g>
	</g>
	<path class="st3" d="M427.1,289.6c-0.1-10.1-14.3-18.3-31.7-18.3c-17.5,0-31.6,8.1-31.6,18.2c0,9.2,12,16.9,27.4,18.1v5.1
		c-2.9,0.4-5.1,2-5.1,3.8l0.1,17.5c0,2.2,3.1,4,6.9,4h5.2c3.8,0,6.8-1.8,6.8-3.9l-0.1-17.5c0-1.8-2.2-3.4-5.1-3.8v-5.1
		C415.3,306.4,427.1,298.8,427.1,289.6z"/>
	<g>
		<path class="st2" d="M810.2,1004L260.6,686.5c-21.3-12.3-38.5-45.2-38.5-73.6V113c0-28.4,17.2-41.4,38.5-29.1l549.6,317.5
			c21.3,12.3,38.5,45.2,38.5,73.6v499.9C848.7,1003.2,831.5,1016.3,810.2,1004z"/>
		<path class="st7" d="M825.5,393.5L275.9,76c-8.4-4.9-16.2-5.8-22.5-3.3c-0.8,0.3-15.9,8.1-16.6,8.5l0,0c6.6-3.2,14.9-2.6,24,2.6
			l549.6,317.5c21.3,12.3,38.5,45.2,38.5,73.6v499.9c0,17.7-6.7,29.4-16.9,32.8c0.8,0,1.9-0.3,3.4-1.1c0.5-0.3,16.5-8.9,16.9-9.3
			c7.3-5.1,11.9-15.7,11.9-30.2V467.1C864,438.7,846.7,405.8,825.5,393.5z"/>
		<path class="st8" d="M821.1,395.5L271.5,78c-8.4-4.9-16.2-5.8-22.5-3.3c-0.8,0.3-11.5,6-12.3,6.4l0,0c6.6-3.2,14.9-2.6,24,2.6
			l549.6,317.5L821.1,395.5z"/>
		<path class="st3" d="M812.1,400.4L262.5,83c-8.7-5-16.7-5.8-23.2-3c5.5-0.9,11.8,0.5,18.6,4.4l549.6,317.5
			c21.3,12.3,38.5,45.2,38.5,73.6v499.9c0,16.7-6,28.1-15.3,32.1c11.9-1.9,19.9-14.1,19.9-33.5V474
			C850.6,445.7,833.3,412.7,812.1,400.4z"/>
		<path class="st9" d="M243.8,157.4v455.5c0,22.2,10.6,44,27.7,54.9l543.7,314c0.2,0.1,0.5,0.3,0.9,0.5c4.9,2.8,11-0.7,11-6.4V494.4
			L243.8,157.4z"/>
		<path class="st10" d="M826.3,978.3c-0.4-0.2-0.7-0.4-0.9-0.5l-543.7-314c-17.1-10.9-27.7-32.6-27.7-54.9V163.4l-10.2-5.9V613
			c0,22.2,10.6,44,27.7,54.9l543.7,314c0.2,0.1,0.5,0.3,0.9,0.5c4.2,2.4,9.1,0.2,10.6-4C826.5,978.3,826.4,978.3,826.3,978.3z"/>
		<g>
			<path class="st11" d="M796.5,439.7c0,6.7,4.7,14.9,10.6,18.3s10.6,0.7,10.6-6s-4.7-14.9-10.6-18.3
				C801.3,430.3,796.5,433,796.5,439.7z"/>
			<path class="st4" d="M769.2,423.8c0,6.7,4.7,14.9,10.6,18.3s10.6,0.7,10.6-6s-4.7-14.9-10.6-18.3
				C773.9,414.4,769.2,417.1,769.2,423.8z"/>
			<path class="st12" d="M741.8,408c0,6.7,4.7,14.9,10.6,18.3s10.6,0.7,10.6-6s-4.7-14.9-10.6-18.3
				C746.6,398.5,741.8,401.2,741.8,408z"/>
		</g>
	</g>
	<path class="st0" d="M602.4,392.8l-39.9-23c-4-2.3-7.3-0.5-7.3,4.2c0,4.6,3.3,10.3,7.3,12.6l39.9,23c4,2.3,7.3,0.5,7.3-4.2
		C609.7,400.7,606.4,395.1,602.4,392.8z M668,430.7l-39.9-23c-4-2.3-7.3-0.5-7.3,4.2c0,4.6,3.3,10.3,7.3,12.6l39.9,23
		c4,2.3,7.3,0.5,7.3-4.2S672,433,668,430.7z M733.7,468.6l-39.9-23c-4-2.3-7.3-0.5-7.3,4.2c0,4.6,3.3,10.3,7.3,12.6l39.9,23
		c4,2.3,7.3,0.5,7.3-4.2S737.7,470.9,733.7,468.6z M799.3,506.5l-39.9-23c-4-2.3-7.3-0.5-7.3,4.2c0,4.6,3.3,10.3,7.3,12.6l39.9,23
		c4,2.3,7.3,0.5,7.3-4.2C806.6,514.4,803.3,508.8,799.3,506.5z"/>
	<g>
		<g>
			<polygon class="st13" points="444.1,425.7 444.1,597.3 462.9,586.3 462.9,414.2 			"/>
			<polygon class="st7" points="444.2,425.7 444.2,597.3 69.8,382.6 69.8,210.5 			"/>
			<polygon class="st0" points="69.8,210.5 444.2,425.7 462.9,414.2 88.4,199.2 			"/>
			<polygon class="st6" points="69.8,210.5 444.2,425.7 462.9,414.2 444.2,423.1 			"/>
		</g>
		<g>
			<polygon class="st3" points="389.4,535.1 389.4,527.8 271.2,460.6 271.2,467.9 			"/>
			<polygon class="st3" points="220,325.1 220,332.3 418.7,446 418.7,438.7 			"/>
			<polygon class="st3" points="290,426 220,385.6 220,392.9 290,433.3 			"/>
			<polygon class="st3" points="337.3,483.6 337.3,490.9 366.2,506.5 366.2,499.2 			"/>
			<polygon class="st3" points="332.8,420.5 220,355.3 220,362.6 332.8,427.7 			"/>
			<polygon class="st3" points="261.3,394.3 220,370.5 220,377.8 261.3,401.6 			"/>
			<polygon class="st3" points="250.8,441 330.1,486.8 330.1,479.5 250.8,433.7 			"/>
			<polygon class="st3" points="268.5,398.5 268.5,405.8 379.8,469 379.8,461.7 			"/>
			<polygon class="st3" points="297.1,430.1 297.1,437.4 352.8,469.6 352.8,462.3 			"/>
			<polygon class="st3" points="243.7,429.6 220,415.9 220,423.2 243.7,436.8 			"/>
			<polygon class="st3" points="340,431.9 418.7,476.3 418.7,469 340,424.6 			"/>
			<polygon class="st3" points="387,473.1 418.7,491.4 418.7,484.1 387,465.8 			"/>
			<polygon class="st3" points="220,347.5 418.7,461.1 418.7,453.8 220,340.2 			"/>
			<polygon class="st3" points="360,473.7 418.7,506.5 418.7,499.3 360,466.4 			"/>
			<polygon class="st3" points="264,456.5 220,431 220,438.3 264,463.7 			"/>
			<polygon class="st3" points="396.5,539.2 418.7,552 418.7,544.7 396.5,531.9 			"/>
			<polygon class="st3" points="373.4,510.7 418.7,536.8 418.7,529.5 373.4,503.4 			"/>
			<polygon class="st3" points="220,408.1 418.7,521.7 418.7,514.4 220,400.8 			"/>
		</g>
		<path class="st13" d="M178.5,296.2l-65.3-37.8c-11.4-6.6-20.7,0.4-20.7,15.6v75.6c0,15.2,9.3,32.9,20.7,39.5l65.3,37.8
			c11.4,6.6,20.7-0.4,20.7-15.6v-75.6C199.2,320.5,189.9,302.8,178.5,296.2z"/>
		<path class="st14" d="M186.6,420.8L121.3,383c-11.4-6.6-20.7-24.3-20.7-39.5V268c0-4.8,0.9-8.8,2.6-11.8
			c-6.3,1.1-10.6,7.6-10.6,17.9v75.6c0,15.2,9.3,32.9,20.7,39.5l65.3,37.8c7.8,4.5,14.6,2.7,18.1-3.8
			C193.7,423.6,190.2,422.9,186.6,420.8z"/>
		<g>
			<path class="st12" d="M127.8,317.4l-65.3-37.8c-11.4-6.6-20.7,0.4-20.7,15.6v75.6c0,15.2,9.3,32.9,20.7,39.5l65.3,37.8
				c11.4,6.6,20.7-0.4,20.7-15.6v-75.6C148.5,341.7,139.2,324,127.8,317.4z"/>
			<path class="st15" d="M138.5,311.1l-65.3-37.8c-4.9-2.8-9.4-3.1-12.9-1.4l-0.1-0.1l-11.3,6.6v0.1c3.6-2.2,8.4-2,13.6,1l65.3,37.8
				c11.4,6.6,20.7,24.3,20.7,39.5v75.6c0,7.4-2.2,12.8-5.8,15.7l6.3-4.1c5.3-3,10.1-7.8,10.1-17.8v-75.6
				C159.1,335.4,149.9,317.7,138.5,311.1z"/>
			<path class="st6" d="M129,316.4l-65.3-37.8c-5.7-3.3-10.8-3.2-14.5-0.4c3.4-1.3,7.5-0.8,12,1.8l65.3,37.8
				c11.4,6.6,20.7,24.3,20.7,39.5v75.6c0,7.7-2.3,13.2-6.1,16c5.2-2,8.6-8.2,8.6-17.4v-75.6C149.6,340.7,140.4,323,129,316.4z"/>
			<path class="st3" d="M59.2,300.5V387l70.8,40.9v-86.5L59.2,300.5z M125.4,420l-61.7-35.7v-76l61.7,35.7V420z"/>
			<path class="st3" d="M114.4,356.7c0,5.7-4,8-8.9,5.1s-8.9-9.8-8.9-15.4s4-8,8.9-5.1S114.4,351.1,114.4,356.7z"/>
			<polygon class="st3" points="61.5,364 80,340.2 98.7,387.5 112.3,376.5 127.3,417.3 127.1,421.5 61.8,386.6 			"/>
		</g>
	</g>
	<g>
		<g>
			<path class="st11" d="M925.5,367.3c0,11.8-4.1,20.1-10.7,24.1c-0.2,0.1-11.3,7-11.5,7.1c-6.9,3.8-2.5-4.9-12.9-10.9
				c-21-12.1-38-41.4-38-65.5c0-11.9-11-12-4.3-16c0.2-0.1,12.6-7.2,12.8-7.3c6.8-3.7,16.2-3,26.5,2.9
				C908.5,313.9,925.5,343.2,925.5,367.3z"/>
			<path class="st3" d="M876.9,308.2c-10.1-5.8-19.2-6.6-26-3.2c6.3-1.8,14.2-0.4,22.7,4.5c21,12.1,38,41.4,38,65.5
				c0,12.5-4.6,21.2-12,24.8c9.3-2.6,15.3-11.8,15.3-26.1C914.9,349.7,897.9,320.3,876.9,308.2z"/>
			
				<ellipse transform="matrix(0.8633 -0.5047 0.5047 0.8633 -58.3809 489.8675)" class="st16" cx="875.1" cy="352.7" rx="30.9" ry="53.5"/>
		</g>
		<path class="st17" d="M868.3,337.1c0,3.4-2.4,4.7-5.3,3s-5.3-5.8-5.3-9.2c0-3.4,2.4-4.7,5.3-3S868.3,333.7,868.3,337.1z"/>
		<path class="st17" d="M889.9,349.6c0,3.4-2.4,4.7-5.3,3s-5.3-5.8-5.3-9.2c0-3.4,2.4-4.7,5.3-3S889.9,346.2,889.9,349.6z"/>
		<path class="st17" d="M853.6,351.1l5,0.8c2.3,8.7,8.4,17.2,15.3,21.2c6.6,3.8,12.7,2.6,15.1-3.1l4.9,5c-3.2,7.6-11.2,9.3-20.1,4.2
			C864.8,373.9,856.6,362.6,853.6,351.1z"/>
		<path class="st18" d="M864.5,339.1c-2.9-1.7-5.3-5.8-5.3-9.2c0-1.1,0.3-2,0.7-2.6c-1.4,0.3-2.3,1.6-2.3,3.7c0,3.4,2.4,7.5,5.3,9.2
			c2,1.1,3.7,0.9,4.6-0.4C866.7,339.9,865.7,339.7,864.5,339.1z"/>
		<path class="st18" d="M886.1,351.5c-2.9-1.7-5.3-5.8-5.3-9.2c0-1.1,0.3-2,0.7-2.6c-1.4,0.3-2.3,1.6-2.3,3.7c0,3.4,2.4,7.5,5.3,9.2
			c2,1.1,3.7,0.9,4.6-0.4C888.3,352.4,887.3,352.2,886.1,351.5z"/>
		<g>
			<path class="st18" d="M889.6,370.6L889,370c-0.6,1.3-1.3,2.4-2.3,3.3C887.8,372.6,888.8,371.7,889.6,370.6z"/>
			<path class="st18" d="M875.4,378.1c-8.7-5-16.5-15.6-19.8-26.7l-2-0.3c3,11.6,11.2,22.9,20.3,28.1c6.6,3.8,12.8,3.8,16.9,0.4
				C886.7,381.8,881.2,381.4,875.4,378.1z"/>
		</g>
	</g>
	<g>
		<g>
			<polygon class="st13" points="906.9,744.8 906.9,954.3 925.6,943.4 925.6,733.3 			"/>
			<polygon class="st7" points="906.9,744.8 906.9,954.3 497.2,719.4 497.2,509.3 			"/>
			<polygon class="st0" points="497.2,509.3 906.9,744.8 925.6,733.3 515.7,498 			"/>
			<polygon class="st6" points="497.2,509.3 906.9,744.8 925.6,733.3 906.9,742.2 			"/>
		</g>
		
			<ellipse transform="matrix(0.8633 -0.5047 0.5047 0.8633 -291.6789 521.9748)" class="st13" cx="817.7" cy="799.4" rx="52.3" ry="90.7"/>
		<path class="st14" d="M823.9,867.8c-35.5-20.5-64.3-70.2-64.3-110.9c0-15.2,4-27,10.9-34.8c-10.6,7-17,20.9-17,40.2
			c0,40.8,28.8,90.4,64.3,110.9c22.3,12.9,41.9,11.2,53.4-1.9C859.4,879.2,842.6,878.6,823.9,867.8z"/>
		<g>
			<path class="st13" d="M637.3,624.4l-13.8-8v155.8l13.8,8V624.4z M657.2,616.6l-13.8-8v174.9l13.8,8V616.6z M677.7,651.8l-13.8-8
				v151.5l13.8,8V651.8z M582.4,662.7v85.4l13.8,8v-85.4L582.4,662.7z M616.8,639l-13.8-8v128.8l13.8,8V639z M697.8,695l-13.8-8v120
				l13.8,8V695z M717.5,744.5l-13.8-8v82l13.8,8V744.5z M575.8,647.9l-13.8-8v95.8l13.8,8V647.9z M520.9,653.6v58l13.8,8v-58
				L520.9,653.6z M555.3,630.8l-13.8-8v100.5l13.8,8V630.8z"/>
			<path class="st1" d="M637.3,685.5l-13.8-8v94.6l13.8,8V685.5z M657.2,642.5l-13.8-8v149l13.8,8V642.5z M677.7,679.4l-13.8-8
				v123.8l13.8,8V679.4z M582.4,683.5v64.6l13.8,8v-64.6L582.4,683.5z M616.8,681l-13.8-8v86.8l13.8,8V681z M575.8,655.8l-13.8-8
				v87.9l13.8,8V655.8z M520.9,694.8v16.8l13.8,8v-16.8L520.9,694.8z M555.3,694.9l-13.8-8v36.5l13.8,8V694.9z M697.8,717.3l-13.8-8
				V807l13.8,8V717.3z M717.5,756.6l-13.8-8v69.8l13.8,8V756.6z"/>
			<g>
				<polygon class="st3" points="677.7,681.2 663.8,673.2 663.8,671.4 677.7,679.4 				"/>
				<polygon class="st3" points="657.2,644.2 643.4,636.3 643.4,634.5 657.2,642.5 				"/>
				<polygon class="st3" points="717.5,758.4 703.7,750.4 703.7,748.7 717.5,756.6 				"/>
				<polygon class="st3" points="637.3,687.3 623.4,679.3 623.4,677.6 637.3,685.5 				"/>
				<polygon class="st3" points="697.8,719.1 684,711.1 684,709.4 697.8,717.3 				"/>
				<polygon class="st3" points="555.3,696.6 541.4,688.6 541.4,686.9 555.3,694.9 				"/>
				<polygon class="st3" points="575.8,657.5 561.9,649.5 561.9,647.8 575.8,655.8 				"/>
				<polygon class="st3" points="534.8,702.8 534.8,704.5 520.9,696.6 520.9,694.8 				"/>
				<polygon class="st3" points="616.8,682.7 602.9,674.7 602.9,673 616.8,681 				"/>
				<polygon class="st3" points="596.3,693.2 582.4,685.2 582.4,683.5 596.3,691.5 				"/>
			</g>
		</g>
		<g>
			<g>
				<path class="st11" d="M754.5,772.2c0.8-30.8,23.2-43,50.7-27.2c14.1,8.2,26.9,22.2,36.2,38.3l10.1-2.5
					c-11.5-20.9-28-39.4-46.3-50c-34.6-20-62.7-4.2-63.1,35.1l8.1,7.4L754.5,772.2z"/>
				<path class="st11" d="M830.6,868.3c-7.5,0.7-16.2-1.4-25.5-6.8c-26-15-47.5-50-50.4-80.7l-12.4-6.3c0,0.2-4.1,1.1-4.1,1.3
					c3.6,38.2,34.5,81.1,66.9,99.8c11.8,6.8,19.7,10.4,29.2,9.4c0.4,0,3.8-1,4.2-1.1L830.6,868.3z"/>
				<path class="st11" d="M846.1,792.6c6.2,13.2,9.8,27.2,9.8,40c0,18.4-7.5,30.5-19.2,34.5l7.9,15.5c14.4-5,23.7-20,23.7-42.8
					c0-15.9-4.5-33.3-12.1-49.7L846.1,792.6z"/>
			</g>
			<path class="st11" d="M822.6,818.1c-3.4-2.9-6.5-6.6-8.9-10.7c-1.5-2.5-1.4-5.1,0-6c1.9-1.1,3.5-2.8,4.5-5.1
				c1.6,0.4,3.5-0.1,3.5-2.3s-1-4.6-2.3-5.8c-0.4-9.3-3.6-18.9-14.3-25.1c-3.8-2.2-6.6-2.9-8.7-2.5c-0.5,0.1-4.8,1.2-5.2,1.4
				c-2.9,1.4-0.2,4.6-0.4,9.6c-1.3-0.3-2.3,1-2.3,3.2c0,2.1,1.9,4.9,3.5,6.3c1.1,3.5,2.7,7.1,4.5,10.3c1.4,2.5,1.5,5.2,0,6
				c-2.4,1.3-5.5,1.4-8.9,0.4c-1.4-0.4-2.6-0.5-3.7-0.1c-0.3,0.1-4.1,1.1-4.4,1.2c-2,1,0.3,2.5,0.3,5.8v9.6c0,1.9,1.3,4.1,2.9,5.1
				l41.3,27.3c0.7,0.4,4.8-1,5.3-1.2c0.7-0.2,1.1-0.9,1.1-2v-9.6C830.5,828.6,827.1,822,822.6,818.1z"/>
			<g>
				<path class="st3" d="M751.7,773c0.8-30.8,23.2-43,50.7-27.2c14.1,8.2,26.9,22.2,36.2,38.3l10.1-2.5c-11.5-20.9-28-39.4-46.3-50
					c-34.6-20-62.7-4.2-63.1,35.1L751.7,773z"/>
				<path class="st3" d="M827.9,869.1c-7.5,0.7-16.2-1.4-25.5-6.8c-26-15-47.5-50-50.4-80.7l-12.4-6.3
					c3.3,38.3,30.2,82.3,62.8,101.1c12.3,7.1,23.7,9.6,33.4,8.3L827.9,869.1z"/>
				<path class="st3" d="M843.4,793.4c6.2,13.2,9.8,27.2,9.8,40c0,18.4-7.5,30.5-19.2,34.5l7.9,15.5c14.4-5,23.7-20,23.7-42.8
					c0-15.9-4.5-33.3-12.1-49.7L843.4,793.4z"/>
			</g>
			<path class="st3" d="M819.8,818.9c-3.4-2.9-6.5-6.6-8.9-10.7c-1.5-2.5-1.4-5.1,0-6c1.9-1.1,3.5-2.8,4.5-5.1
				c1.6,0.4,3.5-0.1,3.5-2.3s-1-4.6-2.3-5.8c-0.4-9.3-3.6-18.9-14.3-25.1c-10.7-6.2-13.9-0.3-14.3,8.6c-1.3-0.3-2.3,1-2.3,3.2
				c0,2.1,1.9,4.9,3.5,6.3c1.1,3.5,2.7,7.1,4.5,10.3c1.4,2.5,1.5,5.2,0,6c-2.4,1.3-5.5,1.4-8.9,0.4c-4.5-1.4-7.9,1.4-7.9,6.9v9.6
				c0,1.9,1.3,4.1,2.9,5.1l44.7,25.8c1.6,0.9,2.9,0.2,2.9-1.7v-9.6C827.7,829.3,824.4,822.8,819.8,818.9z"/>
			<g>
				<path class="st19" d="M750.1,773.4c0.8-30.8,23.2-43,50.7-27.2c14.1,8.2,26.9,22.2,36.2,38.3l10.1-2.5
					c-11.5-20.9-28-39.4-46.3-50c-34.6-20-62.7-4.2-63.1,35.1L750.1,773.4z"/>
				<path class="st19" d="M826.3,869.5c-7.5,0.7-16.2-1.4-25.5-6.8c-26-15-47.5-50-50.4-80.7l-12.4-6.3
					c3.3,38.3,30.2,82.3,62.8,101.1c12.3,7.1,23.7,9.6,33.4,8.3L826.3,869.5z"/>
				<path class="st19" d="M841.8,793.8c6.2,13.2,9.8,27.2,9.8,40c0,18.4-7.5,30.5-19.2,34.5l7.9,15.5c14.4-5,23.7-20,23.7-42.8
					c0-15.9-4.5-33.3-12.1-49.7L841.8,793.8z"/>
			</g>
			<path class="st19" d="M818.3,819.3c-3.4-2.9-6.5-6.6-8.9-10.7c-1.5-2.5-1.4-5.1,0-6c1.9-1.1,3.5-2.8,4.5-5.1
				c1.6,0.4,3.5-0.1,3.5-2.3s-1-4.6-2.3-5.8c-0.4-9.3-3.6-18.9-14.3-25.1c-10.7-6.2-13.9-0.3-14.3,8.6c-1.3-0.3-2.3,1-2.3,3.2
				c0,2.1,1.9,4.9,3.5,6.3c1.1,3.5,2.7,7.1,4.5,10.3c1.4,2.5,1.5,5.2,0,6c-2.4,1.3-5.5,1.4-8.9,0.4c-4.5-1.4-7.9,1.4-7.9,6.9v9.6
				c0,1.9,1.3,4.1,2.9,5.1l44.7,25.8c1.6,0.9,2.9,0.2,2.9-1.7v-9.6C826.1,829.7,822.8,823.1,818.3,819.3z"/>
		</g>
	</g>
	<g>
		<g>
			<polygon class="st15" points="499.4,692.1 499.4,779.9 514.1,771.8 514.1,683.5 			"/>
			<polygon class="st12" points="499.5,692.1 499.5,779.9 174.7,592.4 174.7,504.1 			"/>
			<polygon class="st20" points="174.7,504.1 499.5,692.1 514.1,683.5 189.3,495.7 			"/>
			<polygon class="st6" points="174.7,504.1 499.5,692.1 514.1,683.5 499.8,689.8 			"/>
		</g>
		<polygon class="st3" points="483,753.3 190.8,582.7 190.8,531 483,701.6 		"/>
		<g>
			<path class="st14" d="M203,545.6l5.9,3.4l2.7,28.2l0.1,0.1l2.9-25l6.7,3.9l2.9,28.3l0.1,0.1l2.7-25.1l5.3,3.1l-4,34.7l-7.6-4.4
				l-2.8-24l-0.1-0.1l-2.8,20.8l-8.1-4.7L203,545.6z"/>
			<path class="st14" d="M238,566l5.9,3.4l2.7,28.2l0.1,0.1l2.9-25l6.7,3.9l2.9,28.3l0.1,0.1l2.7-25.1l5.3,3.1l-4,34.7l-7.6-4.4
				l-2.8-24l-0.1-0.1L250,610l-8.1-4.7L238,566z"/>
			<path class="st14" d="M273.3,586l5.9,3.4l2.7,28.2l0.1,0.1l2.9-25l6.7,3.9l2.9,28.3l0.1,0.1l2.7-25.1l5.3,3.1l-4,34.7l-7.6-4.4
				l-2.8-24l-0.1-0.1l-2.8,20.8l-8.1-4.7L273.3,586z"/>
		</g>
	</g>
	<g>
		<g>
			<polygon class="st11" points="322.2,240.5 322.2,301.7 331.4,296.6 331.4,234.9 			"/>
			<polygon class="st16" points="322.2,240.5 322.2,301.7 267.8,270.2 267.8,208.5 			"/>
			<polygon class="st19" points="267.8,208.5 322.2,240.5 331.4,234.9 276.8,203.1 			"/>
			<polygon class="st3" points="267.8,208.5 322.2,240.5 331.4,234.9 321.8,237.5 			"/>
		</g>
		<g>
			<polygon class="st5" points="370.1,220 370.1,319.1 385,310.9 385,211 			"/>
			<polygon class="st21" points="282,168.3 370.2,220 385,211 296.6,159.6 			"/>
			<polygon class="st6" points="282,168.3 370.2,220 385,211 370.6,217.9 			"/>
		</g>
		<polygon class="st4" points="282,168.3 282,209.4 328.7,236.8 328.7,295.1 370.2,319.1 370.2,220 		"/>
	</g>
	<g>
		<g>
			<polygon class="st15" points="558.6,459.3 558.6,527.8 569,522.1 569,453.1 			"/>
			<polygon class="st12" points="558.7,459.3 558.7,527.8 497.8,492.6 497.8,423.6 			"/>
			<polygon class="st20" points="497.8,423.6 558.7,459.3 569,453.1 507.9,417.6 			"/>
			<polygon class="st6" points="497.8,423.6 558.7,459.3 569,453.1 558.2,456 			"/>
		</g>
		<g>
			<polygon class="st15" points="638.6,505.5 638.6,573.9 648.9,568.2 648.9,499.2 			"/>
			<polygon class="st12" points="638.7,505.5 638.7,573.9 577.7,538.7 577.7,469.7 			"/>
			<polygon class="st20" points="577.7,469.7 638.7,505.5 648.9,499.2 587.9,463.7 			"/>
			<polygon class="st6" points="577.7,469.7 638.7,505.5 648.9,499.2 638.1,502.2 			"/>
		</g>
		<g>
			<polygon class="st15" points="718,551.1 718,619.5 728.3,613.8 728.3,544.8 			"/>
			<polygon class="st12" points="718.1,551.1 718.1,619.5 657.2,584.3 657.2,515.3 			"/>
			<polygon class="st20" points="657.2,515.3 718.1,551.1 728.3,544.8 667.3,509.3 			"/>
			<polygon class="st6" points="657.2,515.3 718.1,551.1 728.3,544.8 717.6,547.8 			"/>
		</g>
		<g>
			<polygon class="st15" points="796.4,595.6 796.4,664 806.7,658.4 806.7,589.4 			"/>
			<polygon class="st12" points="796.5,595.6 796.5,664 735.6,628.9 735.6,559.9 			"/>
			<polygon class="st20" points="735.6,559.9 796.5,595.6 806.7,589.4 745.7,553.9 			"/>
			<polygon class="st6" points="735.6,559.9 796.5,595.6 806.7,589.4 795.9,592.3 			"/>
		</g>
		<path class="st3" d="M699.8,580c-2.2-1.8-4.1-4.2-5.6-6.7c-0.9-1.6-0.9-3.3,0-3.8c1.2-0.7,2.2-1.8,2.9-3.2c1,0.3,2.2-0.1,2.2-1.4
			c0-1.4-0.6-2.9-1.4-3.6c-0.2-5.9-2.3-12-9.1-15.9c-6.8-3.9-8.8-0.2-9.1,5.5c-0.8-0.2-1.4,0.6-1.4,2s1.2,3.1,2.2,4
			c0.7,2.2,1.7,4.5,2.9,6.5c0.9,1.6,0.9,3.3,0,3.8c-1.5,0.8-3.5,0.9-5.6,0.2c-2.9-0.9-5,0.9-5,4.4v6.1c0,1.2,0.8,2.6,1.9,3.2
			l28.3,16.3c1,0.6,1.9,0.1,1.9-1.1v-6.1C704.7,586.6,702.6,582.5,699.8,580z"/>
		<path class="st3" d="M746.6,624l9.9,5.7V612l-9.9-5.7V624z M762.2,633.1l9.9,5.7v-32.4l-9.9-5.7V633.1z M777.8,594.9v47.2l9.9,5.7
			v-47.2L777.8,594.9z"/>
		<path class="st3" d="M624.1,531.8c0-0.9-0.1-1.9-0.2-2.8l4.7-0.6c-0.5-2.3-1.2-4.7-2.1-7.1l-5.3-1.6c-0.9-2-2-3.9-3.3-5.7l1.3-5.4
			c-1.6-2-3.3-3.8-5.1-5.4l-2.9,3.7c-0.8-0.6-1.5-1.1-2.3-1.6s-1.6-0.8-2.3-1.1l-2.9-7c-1.8-0.5-3.5-0.7-5.1-0.5l1.3,6.8
			c-1.3,0.3-2.4,1-3.3,1.9l-5.3-4.5c-0.9,1.3-1.6,2.8-2.1,4.6l4.7,6c-0.1,0.8-0.2,1.7-0.2,2.6c0,0.9,0.1,1.9,0.2,2.8l-4.7,0.6
			c0.5,2.3,1.2,4.7,2.1,7.1l5.3,1.6c0.9,2,2,3.9,3.3,5.7l-1.3,5.4c1.6,2,3.3,3.8,5.1,5.4l2.9-3.7c0.8,0.6,1.5,1.1,2.3,1.6
			s1.6,0.8,2.3,1.1l2.9,7c1.8,0.5,3.5,0.7,5.1,0.5l-1.3-6.8c1.3-0.3,2.4-1,3.3-1.9l5.3,4.5c0.9-1.3,1.6-2.8,2.1-4.6l-4.7-6
			C624,533.5,624.1,532.7,624.1,531.8z M608.8,530c-3.4-2-6.1-6.7-6.1-10.6c0-3.9,2.7-5.5,6.1-3.5s6.1,6.7,6.1,10.6
			S612.2,532,608.8,530z"/>
		<g>
			<path class="st3" d="M509.1,450.8l19.6,30.6l19.6-8l0,0c-0.6-0.9-1.4-1.8-2.3-2.3l-34.6-20C510.5,450.8,509.7,450.6,509.1,450.8
				L509.1,450.8z"/>
			<path class="st3" d="M548.4,473.6l-19.7,11.2l-5.6-9.6l-14,5.7c0,0,0-0.1-0.1-0.1l13.1-7.4l-13-22.5c-0.9,0.3-1.5,1.2-1.5,2.6
				v23.4c0,2.4,1.7,5.4,3.8,6.6l34.6,20c2.1,1.2,3.8,0.2,3.8-2.2v-23.4C549.8,476.5,549.3,474.9,548.4,473.6z M548.3,503.5l-14-21.9
				l1-0.6L548.3,503.5C548.4,503.5,548.3,503.5,548.3,503.5z"/>
		</g>
	</g>
	<g>
		<g>
			<polygon class="st13" points="251.9,659.4 251.9,747.1 265.8,739.3 265.8,651 			"/>
			<polygon class="st7" points="252,659.4 252,747.1 16.3,611.1 16.3,522.9 			"/>
			<polygon class="st0" points="16.3,522.9 252,659.4 265.8,651 30,514.7 			"/>
			<polygon class="st6" points="16.3,522.9 252,659.4 265.8,651 251.4,656.8 			"/>
		</g>
		<path class="st3" d="M107.4,590l-43.1-24.9c-2.6-1.5-4.8-0.3-4.8,2.7V597c0,3,2.1,6.7,4.8,8.3l26.9,15.5l13.5,23.2v-15.5l2.7,1.6
			c2.6,1.5,4.8,0.3,4.8-2.7v-29.2C112.2,595.2,110,591.5,107.4,590z M77,595.4c-1.4,0.8-3.7-0.5-5.1-2.9s-1.4-5,0-5.8
			s3.7,0.5,5.1,2.9S78.4,594.6,77,595.4z M88.7,602.1c-1.4,0.8-3.7-0.5-5.1-2.9c-1.4-2.4-1.4-5,0-5.8s3.7,0.5,5.1,2.9
			S90.1,601.4,88.7,602.1z M100.3,608.9c-1.4,0.8-3.7-0.5-5.1-2.9c-1.4-2.4-1.4-5,0-5.8s3.7,0.5,5.1,2.9
			C101.7,605.5,101.7,608.1,100.3,608.9z M55.9,594.9v-23.7l-16.5-9.5c-2.6-1.5-4.8-0.3-4.8,2.7v29.2c0,3,2.1,6.7,4.8,8.3l2.7,1.6
			V619l13.5-7.7l26.9,15.5c2.6,1.5,4.8,0.3,4.8-2.7v-1.4l-23-13.3C59.7,606.7,55.9,600.2,55.9,594.9z"/>
		<polygon class="st3" points="122,604.6 122,611.9 234.6,676.9 234.6,669.6 		"/>
		<polygon class="st3" points="199,679.4 122,634.9 122,642.2 199,686.7 		"/>
		<polygon class="st3" points="122,627.1 234.6,692.1 234.6,684.8 122,619.8 		"/>
	</g>
	<g>
		<path class="st22" d="M409,842.8l-73.2-41.1c6.3-4.6,10-10.1,10-16.1c0-16.4-27.9-29.6-62.4-29.6S221,769.3,221,785.6
			c0,16.4,27.9,29.6,62.4,29.6c7.2,0,14.1-0.6,20.5-1.7l78.8,44.3c5.1,2.9,14,2.6,19.9-0.8C409.1,853.8,416.8,847.5,409,842.8z"/>
		<g>
			<g>
				<path class="st10" d="M408.7,834.8c4.4,8.1,1.3,18.3-6.8,22.7c-8.1,4.4-18.3,1.3-22.7-6.8c-4.4-8.1-1.3-18.3,6.8-22.7
					C394.2,823.6,404.3,826.6,408.7,834.8z"/>
				<path class="st14" d="M355.7,729.4l-36.3,19.5l54.1,99.8l0,0c0,0,0,0.1,0.1,0.1c3.1,5.8,13.8,6.2,23.8,0.8s15.6-14.5,12.4-20.3
					l-0.1-0.1l0,0L355.7,729.4z"/>
				<path class="st13" d="M355.8,729.5c3.1,5.8-2.4,14.9-12.4,20.3c-10,5.4-20.7,5-23.8-0.8c-3.1-5.8,2.4-14.9,12.4-20.3
					C342,723.3,352.6,723.7,355.8,729.5z"/>
				<path class="st10" d="M332,702.9l-21.6,11.6l15.3,28.5l0,0v0.1c1.9,3.5,8.2,3.7,14.2,0.5s9.3-8.6,7.4-12.1c0,0,0-0.1-0.1-0.1
					l0,0L332,702.9z"/>
			</g>
			<g>
				<path class="st0" d="M271.1,474.1c-26.9-15.5-51.2-17.3-69-7.6c-0.5,0.3-26.1,14.5-26.9,15.8c18.1-13.7,45-13.5,74.9,3.8
					C304.7,517.6,349,594,349,656.7c0,32-11.5,54.2-30.1,64.1c1.3-0.4,2.9-1,4.8-2.1c0.5-0.3,18-10.9,18.5-11.2
					c17.2-10.5,27.7-32.2,27.7-62.8C370,582,325.7,505.7,271.1,474.1z"/>
			</g>
			<path class="st2" d="M250.1,486.1c-54.6-31.5-98.9-6.3-98.9,56.4s44.3,139,98.9,170.6c54.6,31.5,98.9,6.3,98.9-56.4
				S304.7,517.6,250.1,486.1z M248.6,698.1c-46.3-26.8-83.9-91.6-83.9-144.7c0-53.2,37.6-74.6,83.9-47.8
				c46.3,26.8,83.9,91.6,83.9,144.7S295,724.9,248.6,698.1z"/>
			<path class="st0" d="M266,688.4c-46.3-26.8-83.9-91.6-83.9-144.7c0-21.7,6.3-38.1,16.8-48.1c-20.7,5.6-34.2,26-34.2,57.8
				c0,53.2,37.6,118,83.9,144.7c27.4,15.8,51.8,14.8,67.1,0.3C301.8,702.1,284.6,699.1,266,688.4z"/>
			<path class="st3" d="M254.8,483.7c-26.2-15.1-50-17.2-67.7-8.3c16.5-4.6,40.7-2.1,62.9,10.7c54.6,31.5,98.9,107.9,98.9,170.6
				c0,32.6-15.8,56-35,65.6c24.1-6.8,39.8-30.8,39.8-68C353.7,591.6,309.5,515.3,254.8,483.7z"/>
		</g>
	</g>
</g>
</svg>
