<?xml version="1.0" encoding="utf-8"?>
<!-- Generator: Adobe Illustrator 24.2.3, SVG Export Plug-In . SVG Version: 6.00 Build 0)  -->
<svg version="1.1" id="Capa_1" xmlns="http://www.w3.org/2000/svg" xmlns:xlink="http://www.w3.org/1999/xlink" x="0px" y="0px"
	 viewBox="0 0 1080 1080" style="enable-background:new 0 0 1080 1080;" xml:space="preserve">
<style type="text/css">
	.st0{fill:#E0F3FF;}
	.st1{fill:url(#SVGID_1_);}
	.st2{fill:url(#SVGID_2_);}
	.st3{fill:#E5E2FF;}
	.st4{fill:url(#SVGID_3_);}
	.st5{opacity:0.62;fill:url(#SVGID_4_);enable-background:new    ;}
	.st6{opacity:0.62;fill:url(#SVGID_5_);enable-background:new    ;}
	.st7{opacity:0.5;fill:url(#SVGID_6_);enable-background:new    ;}
	.st8{fill:#FFFFFF;}
	.st9{clip-path:url(#SVGID_8_);}
	.st10{fill:url(#SVGID_9_);}
	.st11{opacity:0.5;fill:url(#SVGID_10_);enable-background:new    ;}
	.st12{opacity:0.5;fill:url(#SVGID_11_);enable-background:new    ;}
	.st13{fill:url(#SVGID_12_);}
	.st14{fill:url(#SVGID_13_);}
	.st15{opacity:0.76;fill:url(#SVGID_14_);enable-background:new    ;}
	.st16{opacity:0.76;fill:url(#SVGID_15_);enable-background:new    ;}
	.st17{opacity:0.76;fill:url(#SVGID_16_);enable-background:new    ;}
	.st18{fill:#FE9083;}
	.st19{fill:url(#SVGID_17_);}
	.st20{opacity:0.5;fill:url(#SVGID_18_);enable-background:new    ;}
	.st21{fill:url(#SVGID_19_);}
	.st22{opacity:0.5;fill:url(#SVGID_20_);enable-background:new    ;}
	.st23{fill:url(#SVGID_21_);}
	.st24{fill:url(#SVGID_22_);}
	.st25{fill:#CB4D7A;}
	.st26{fill:#EE8183;}
	.st27{fill:url(#SVGID_23_);}
	.st28{opacity:0.6;fill:url(#SVGID_24_);enable-background:new    ;}
	.st29{fill:url(#SVGID_25_);}
	.st30{fill:#E28183;}
	.st31{opacity:0.91;fill:url(#SVGID_26_);enable-background:new    ;}
	.st32{fill:url(#SVGID_27_);}
	.st33{opacity:0.6;fill:url(#SVGID_28_);enable-background:new    ;}
	.st34{fill:url(#SVGID_29_);}
	.st35{fill:url(#SVGID_30_);}
	.st36{opacity:0.91;fill:url(#SVGID_31_);enable-background:new    ;}
	.st37{opacity:0.5;fill:url(#SVGID_32_);enable-background:new    ;}
	.st38{opacity:0.5;fill:url(#SVGID_33_);enable-background:new    ;}
	.st39{opacity:0.5;fill:url(#SVGID_34_);enable-background:new    ;}
	.st40{opacity:0.5;fill:url(#SVGID_35_);enable-background:new    ;}
	.st41{opacity:0.5;fill:url(#SVGID_36_);enable-background:new    ;}
	.st42{opacity:0.5;fill:url(#SVGID_37_);enable-background:new    ;}
	.st43{opacity:0.5;fill:url(#SVGID_38_);enable-background:new    ;}
	.st44{opacity:0.5;fill:url(#SVGID_39_);enable-background:new    ;}
	.st45{opacity:0.5;fill:url(#SVGID_40_);enable-background:new    ;}
	.st46{opacity:0.76;fill:url(#SVGID_41_);enable-background:new    ;}
	.st47{opacity:0.5;fill:url(#SVGID_42_);enable-background:new    ;}
	.st48{opacity:0.3;fill:url(#SVGID_43_);enable-background:new    ;}
	.st49{opacity:0.5;fill:url(#SVGID_44_);enable-background:new    ;}
	.st50{opacity:0.5;fill:url(#SVGID_45_);enable-background:new    ;}
	.st51{opacity:0.5;fill:url(#SVGID_46_);enable-background:new    ;}
	.st52{opacity:0.5;fill:url(#SVGID_47_);enable-background:new    ;}
	.st53{fill:url(#SVGID_48_);}
	.st54{fill:#EBEFFF;}
	.st55{opacity:0.5;fill:url(#SVGID_49_);enable-background:new    ;}
	.st56{opacity:0.3;fill:url(#SVGID_50_);enable-background:new    ;}
	.st57{opacity:0.5;fill:url(#SVGID_51_);enable-background:new    ;}
	.st58{opacity:0.5;fill:url(#SVGID_52_);enable-background:new    ;}
	.st59{opacity:0.5;fill:url(#SVGID_53_);enable-background:new    ;}
	.st60{opacity:0.5;fill:#7A4AC0;enable-background:new    ;}
	.st61{fill:url(#SVGID_54_);}
	.st62{fill:url(#SVGID_55_);}
	.st63{fill:url(#SVGID_56_);}
	.st64{opacity:0.6;fill:url(#SVGID_57_);enable-background:new    ;}
	.st65{fill:#38368E;}
	.st66{fill:url(#SVGID_58_);}
	.st67{fill:url(#SVGID_59_);}
	.st68{fill:#FFEBED;}
	.st69{fill:#7F9EC9;}
	.st70{fill:#131163;}
	.st71{fill:#C6659C;}
	.st72{fill:#CB5F7D;}
	.st73{fill:#9F4A8B;}
	.st74{fill:#FFBCAF;}
	.st75{opacity:0.6;fill:url(#SVGID_60_);enable-background:new    ;}
	.st76{fill:url(#SVGID_61_);}
	.st77{fill:#D2726C;}
	.st78{opacity:0.6;fill:url(#SVGID_62_);enable-background:new    ;}
	.st79{opacity:0.6;fill:url(#SVGID_63_);enable-background:new    ;}
	.st80{opacity:0.5;fill:url(#SVGID_64_);enable-background:new    ;}
	.st81{fill:url(#SVGID_65_);}
	.st82{fill:url(#SVGID_66_);}
	.st83{fill:url(#SVGID_67_);}
	.st84{opacity:0.8;fill:url(#SVGID_68_);enable-background:new    ;}
	.st85{opacity:0.8;fill:url(#SVGID_69_);enable-background:new    ;}
	.st86{fill:#34C7FF;}
	.st87{fill:url(#SVGID_70_);}
	.st88{fill:url(#SVGID_71_);}
	.st89{fill:url(#SVGID_72_);}
	.st90{opacity:0.6;fill:#36D1F7;enable-background:new    ;}
	.st91{fill:#744CA2;}
	.st92{opacity:0.6;fill:url(#SVGID_73_);enable-background:new    ;}
	.st93{opacity:0.3;fill:url(#SVGID_74_);enable-background:new    ;}
	.st94{opacity:0.3;fill:url(#SVGID_75_);enable-background:new    ;}
	.st95{opacity:0.3;fill:url(#SVGID_76_);enable-background:new    ;}
	.st96{opacity:0.3;fill:url(#SVGID_77_);enable-background:new    ;}
	.st97{fill:#D1D4FB;}
	.st98{fill:#E0FFFF;}
	.st99{fill:url(#SVGID_78_);}
	.st100{fill:url(#SVGID_79_);}
	.st101{opacity:0.81;fill:url(#SVGID_80_);enable-background:new    ;}
	.st102{fill:#473DA2;}
	.st103{fill:url(#SVGID_81_);}
	.st104{fill:url(#SVGID_82_);}
	.st105{fill:url(#SVGID_83_);}
	.st106{fill:url(#SVGID_84_);}
	.st107{fill:url(#SVGID_85_);}
	.st108{opacity:0.73;fill:url(#SVGID_86_);enable-background:new    ;}
	.st109{fill:#953DA2;}
	.st110{opacity:0.73;fill:url(#SVGID_87_);enable-background:new    ;}
	.st111{fill-rule:evenodd;clip-rule:evenodd;fill:url(#SVGID_88_);}
	.st112{fill-rule:evenodd;clip-rule:evenodd;fill:url(#SVGID_89_);}
	.st113{fill-rule:evenodd;clip-rule:evenodd;fill:url(#SVGID_90_);}
	.st114{opacity:0.5;fill-rule:evenodd;clip-rule:evenodd;fill:#601734;enable-background:new    ;}
	.st115{fill-rule:evenodd;clip-rule:evenodd;fill:#B3D9FF;}
	.st116{fill:#FF1D9C;}
	.st117{fill:#6877FF;}
	.st118{fill:#4F31E0;}
	.st119{fill-rule:evenodd;clip-rule:evenodd;fill:url(#SVGID_91_);}
	.st120{fill-rule:evenodd;clip-rule:evenodd;fill:url(#SVGID_92_);}
	.st121{fill-rule:evenodd;clip-rule:evenodd;fill:url(#SVGID_93_);}
	.st122{fill-rule:evenodd;clip-rule:evenodd;fill:url(#SVGID_94_);}
</style>
<ellipse class="st0" cx="444.9" cy="589.3" rx="371.8" ry="371.8"/>
<g>
	
		<linearGradient id="SVGID_1_" gradientUnits="userSpaceOnUse" x1="142.3191" y1="638.3848" x2="142.3191" y2="467.545" gradientTransform="matrix(0.906 -0.4233 0.4233 0.906 -196.4135 187.2941)">
		<stop  offset="0" style="stop-color:#DBCCFF"/>
		<stop  offset="1" style="stop-color:#D1BBFF"/>
	</linearGradient>
	<path class="st1" d="M171.6,565.6c-9.2-15.7-25.3-22.3-25.3-22.3l-5.7,2.6l12.7,23c-1.7,8.9-7.8,13.8-7.8,13.8l0,0
		c0,0-7.6,1.6-15.5-2.8l-9.6-24.5l-5.7,2.6c0,0-5.4,16.6,0.8,33.7c0,0,2.4,5.6,2.8,6.1c2.2,2.6,8.1,5.7,19.3,4.9l38.9,74.2
		c-3.2,5.6-3.8,12.5-0.9,18.7c4.8,10.2,16.9,14.5,27,9.9c10.2-4.8,14.5-16.9,9.9-27c-2.9-6.2-8.6-10.3-14.9-11.4l-31.9-77.3
		c7.6-8,9.2-14.4,8.6-18C174.3,570.9,171.6,565.6,171.6,565.6z M203.6,693.5l-10.3,4.8l-9.3-6.5l1-11.3l10.3-4.8l9.3,6.5
		L203.6,693.5z"/>
	
		<linearGradient id="SVGID_2_" gradientUnits="userSpaceOnUse" x1="142.3403" y1="644.9577" x2="142.3403" y2="474.1661" gradientTransform="matrix(0.906 -0.4233 0.4233 0.906 -196.4135 187.2941)">
		<stop  offset="0" style="stop-color:#B5A6E7"/>
		<stop  offset="1" style="stop-color:#7760BF"/>
	</linearGradient>
	<path class="st2" d="M174.4,571.6c-9.2-15.7-25.3-22.3-25.3-22.3l-5.7,2.6l12.7,23c-1.7,8.9-7.8,13.8-7.8,13.8l0,0
		c0,0-7.6,1.6-15.5-2.8l-9.6-24.5l-5.7,2.6c0,0-5.4,16.6,0.8,33.7c0,0,8.8,11.8,22.2,10.9l38.9,74.2c-3.2,5.6-3.8,12.5-0.9,18.7
		c4.8,10.2,16.9,14.5,27,9.9c10.2-4.8,14.5-16.9,9.9-27c-2.9-6.2-8.6-10.3-14.9-11.4l-31.9-77.3
		C177.8,585.9,174.4,571.6,174.4,571.6z M206.3,699.4l-10.3,4.8l-9.3-6.5l1-11.3l10.3-4.8l9.3,6.5L206.3,699.4z"/>
	<rect x="116" y="556.3" transform="matrix(0.906 -0.4233 0.4233 0.906 -225.6908 103.025)" class="st3" width="6.2" height="6.6"/>
	
		<rect x="141.7" y="544.3" transform="matrix(0.906 -0.4233 0.4233 0.906 -218.1941 112.7659)" class="st3" width="6.2" height="6.6"/>
	
		<rect x="194.1" y="695.5" transform="matrix(0.906 -0.4233 0.4233 0.906 -277.0352 150.2437)" class="st3" width="11.3" height="6.6"/>
	<g>
		
			<linearGradient id="SVGID_3_" gradientUnits="userSpaceOnUse" x1="142.4063" y1="602.4576" x2="142.4063" y2="530.5035" gradientTransform="matrix(0.906 -0.4233 0.4233 0.906 -196.4135 187.2941)">
			<stop  offset="0" style="stop-color:#B5A6E7"/>
			<stop  offset="1" style="stop-color:#7760BF"/>
		</linearGradient>
		<path class="st4" d="M148.9,614.1l31.4,60.3c8.2,0.4,12.7-6,12.7-6l-25.6-63C156,605,148.9,614.1,148.9,614.1z M190.6,669.1
			c-0.9,0.8-2.3,1.9-4.1,2.6c-1.4,0.7-2.8,1.1-4.3,1.3l-31.4-59.1c1.6-1.4,4.2-3.4,7.5-5c2.5-1.2,5.2-2,7.8-2.2L190.6,669.1z"/>
		<path class="st3" d="M190.6,669.1l2.4-0.5c0,0-3.6,6.3-12.7,6l1.9-1.5C182.2,673,186.7,672.5,190.6,669.1z"/>
		
			<linearGradient id="SVGID_4_" gradientUnits="userSpaceOnUse" x1="132.206" y1="532.0162" x2="152.6468" y2="532.0162" gradientTransform="matrix(0.906 -0.4233 0.4233 0.906 -196.4135 187.2941)">
			<stop  offset="0" style="stop-color:#8B8BE0"/>
			<stop  offset="1" style="stop-color:#A177B7"/>
		</linearGradient>
		<path class="st5" d="M148.9,614.1l1.9-0.2c0,0,5.4-5.6,15.3-7.2l1.4-1.2c0,0-4-0.7-10.3,2.2C151,610.6,148.9,614.1,148.9,614.1z"
			/>
	</g>
	
		<linearGradient id="SVGID_5_" gradientUnits="userSpaceOnUse" x1="142.3829" y1="536.7604" x2="142.3829" y2="524.3936" gradientTransform="matrix(0.906 -0.4233 0.4233 0.906 -196.4135 187.2941)">
		<stop  offset="0" style="stop-color:#FFFFFF"/>
		<stop  offset="1" style="stop-color:#A177B7"/>
	</linearGradient>
	<path class="st6" d="M140.6,608.6c0,0,15.1-2.7,27.9-13l4.1,9.9c0,0-4.6-4.6-14.7-0.5c-11.9,4.9-11.2,14.4-11.2,14.4L140.6,608.6z"
		/>
	
		<linearGradient id="SVGID_6_" gradientUnits="userSpaceOnUse" x1="153.2594" y1="609.9704" x2="153.2594" y2="530.6031" gradientTransform="matrix(0.906 -0.4233 0.4233 0.906 -196.4135 187.2941)">
		<stop  offset="0" style="stop-color:#000000"/>
		<stop  offset="1" style="stop-color:#FFFFFF"/>
	</linearGradient>
	<path class="st7" d="M172.7,605.5c-2.9-2.1-6.2-2.1-6.2-2.1l30.4,73.4l3.7-3.8L172.7,605.5z"/>
	<path class="st8" d="M172.7,605.5c0,0-3.2,9.8,6,14.4L172.7,605.5z"/>
</g>
<g>
	<g>
		<defs>
			<rect id="SVGID_7_" x="-200.5" y="-5.8" width="1439.2" height="1085.6"/>
		</defs>
		<clipPath id="SVGID_8_">
			<use xlink:href="#SVGID_7_"  style="overflow:visible;"/>
		</clipPath>
		<g class="st9">
			<g>
				<linearGradient id="SVGID_9_" gradientUnits="userSpaceOnUse" x1="471.991" y1="1079.9" x2="471.991" y2="865.7001">
					<stop  offset="0" style="stop-color:#6456C0"/>
					<stop  offset="1" style="stop-color:#5F2C95"/>
				</linearGradient>
				<path class="st10" d="M630.1,1079.9H517.4c-11.8-65.5-39.2-150.8-39.2-150.8c-6.6-4-19.7,0.9-19.7,0.9l-41.2,149.8h-103
					c-5.5-92.4,45.1-197.5,45.1-197.5l0,0c-0.2-0.4-1.8-3.6-1.4-5.8c0.2-1,1.9-2.7,3.8-4.5c2.8-2.5,6.1-5.1,6.1-5.1l192.1-1.2
					c0,0,2,1,4.4,2.4l0,0c4.2,2.5,9.9,6.4,9.9,9.4c0,4-1.6,6.5-2,7.1l-0.1,0.1C613.5,962.6,630.1,1079.9,630.1,1079.9z"/>
				
					<radialGradient id="SVGID_10_" cx="412.09" cy="890.6941" r="64.8369" gradientTransform="matrix(0.6462 0.1491 -0.3852 1.6696 444.5028 -545.6955)" gradientUnits="userSpaceOnUse">
					<stop  offset="0" style="stop-color:#4B474B"/>
					<stop  offset="1" style="stop-color:#000000"/>
				</radialGradient>
				<path class="st11" d="M409.6,1012.5c-13.8,59.7-43.7,103.9-66.9,98.6S312,1053,325.8,993.2c13.8-59.7,43.7-103.9,66.9-98.6
					C415.8,899.9,423.4,952.8,409.6,1012.5z"/>
				
					<radialGradient id="SVGID_11_" cx="482.1006" cy="859.3536" r="64.8415" gradientTransform="matrix(0.6386 -0.179 0.4623 1.6499 -137.8487 -329.7515)" gradientUnits="userSpaceOnUse">
					<stop  offset="0" style="stop-color:#4B474B"/>
					<stop  offset="1" style="stop-color:#000000"/>
				</radialGradient>
				<path class="st12" d="M608.7,990.2c16.6,59.1,11.4,112.2-11.4,118.6c-22.8,6.4-54.9-36.3-71.4-95.4
					c-16.6-59.1-11.4-112.2,11.4-118.6C560.2,888.4,592.1,931.1,608.7,990.2z"/>
				<g>
					<linearGradient id="SVGID_12_" gradientUnits="userSpaceOnUse" x1="402.6" y1="1004.8" x2="458.7327" y2="1004.8">
						<stop  offset="0" style="stop-color:#9E8CEF"/>
						<stop  offset="1" style="stop-color:#CAAFEE"/>
					</linearGradient>
					<path class="st13" d="M403.8,1080l-1.2-0.2c13.1-77.2,46.4-142,46.8-142.6l0.1-0.2l8.5-7.4l0.8,0.9l-8.4,7.3
						C448.9,940.7,416.7,1004.3,403.8,1080z"/>
				</g>
				<g>
					
						<linearGradient id="SVGID_13_" gradientUnits="userSpaceOnUse" x1="593.8286" y1="1004.8" x2="649.9286" y2="1004.8" gradientTransform="matrix(-1 0 0 1 1127.6285 0)">
						<stop  offset="0" style="stop-color:#9E8CEF"/>
						<stop  offset="1" style="stop-color:#CAAFEE"/>
					</linearGradient>
					<path class="st14" d="M532.6,1080c-12.9-75.7-46-140-47.4-142.8l-7.5-6.7l0.8-0.9l7.7,6.9c0.4,0.7,34.5,66,47.6,143.3
						L532.6,1080z"/>
				</g>
				<linearGradient id="SVGID_14_" gradientUnits="userSpaceOnUse" x1="464.4" y1="1079.9" x2="464.4" y2="865.8001">
					<stop  offset="0" style="stop-color:#CCCCFF"/>
					<stop  offset="1" style="stop-color:#755CBB"/>
				</linearGradient>
				<path class="st15" d="M574.4,877.7c0,4-1.6,6.5-2,7.1l-0.1,0.1c-40,9.1-70.5,46.4-70.5,46.4c21.8,41.9,58.2,148.6,58.2,148.6
					h-42.8C505.4,1014.4,478,929,478,929c-6.6-4-19.7,0.9-19.7,0.9l-41.2,149.8h-26.7c9.6-62.8,37.8-139.5,37.8-139.5
					c-27.7-32.2-68.9-58-68.9-58l0,0l-4.9-3l3.5-2.6c17.9,17.1,75.3,39.4,77,40.1l-73.2-44.6c2.8-2.5,6.1-5.1,6.1-5.1l192.1-1.2
					c0,0,2,1,4.4,2.4l-52.5,28.9L574.4,877.7z"/>
				<linearGradient id="SVGID_15_" gradientUnits="userSpaceOnUse" x1="489.3" y1="972.9" x2="489.3" y2="914.5">
					<stop  offset="0" style="stop-color:#CCCCFF"/>
					<stop  offset="1" style="stop-color:#755CBB"/>
				</linearGradient>
				<polygon class="st16" points="478.1,929 500.5,914.5 495.2,929 491.3,972.9 				"/>
				<linearGradient id="SVGID_16_" gradientUnits="userSpaceOnUse" x1="421.7" y1="951.4" x2="421.7" y2="894.2">
					<stop  offset="0" style="stop-color:#CCCCFF"/>
					<stop  offset="1" style="stop-color:#755CBB"/>
				</linearGradient>
				<polygon class="st17" points="458.4,929.9 435.1,916.7 385,894.2 448.7,936.3 452.5,951.4 				"/>
			</g>
			<path class="st18" d="M522.6,479.3c0.1,1.1,0.3,1.6,0.3,1.6c-1.2,4.9-2.5,9.5-4,13.6c-4.7,13.5-10.5,23.1-14.9,29.1
				c-3.8,5.2-6.5,7.6-6.5,7.6c-34.9-11-52.2-45.2-58.9-62.3c0-0.1-0.1-0.2-0.1-0.3c-1.3-3.2-2.1-5.8-2.6-7.5l0,0
				c-0.4-1.4-0.6-2.1-0.6-2.1c0.1-0.3,0.3-0.6,0.4-0.9l0.1-0.1c0.6-1.2,1.2-2.4,1.7-3.6c4.6-10.1,7.6-19.4,9.6-26.7
				c1.7-6.2,2.6-11.1,3-13.7c0.2-1.4,0.3-2.1,0.3-2.1l16.3,8.6l56.2,29.8c-0.9,5.2-1.2,10-1.2,14.3c0,3,0,5.7,0.2,8
				c0.2,2.8,0.5,5,0.7,6.4l0,0C522.6,479.1,522.6,479.2,522.6,479.3z"/>
			<linearGradient id="SVGID_17_" gradientUnits="userSpaceOnUse" x1="479.7638" y1="543.6" x2="479.7638" y2="458.1816">
				<stop  offset="0" style="stop-color:#D5CDF8"/>
				<stop  offset="1" style="stop-color:#F3EDFB"/>
			</linearGradient>
			<path class="st19" d="M507.1,534.9c-3.2,3.2-7,6.1-11.6,8.5c-0.1,0.1-0.2,0.1-0.3,0.2c0,0-0.1-0.1-0.3-0.2l0,0
				c-1.3-0.8-5.4-3.3-11-7.5c-14.6-11-39.1-33.4-46.2-63.6v-0.1c-0.8-3.6-1.4-7.2-1.7-11l0,0c-0.1-1-0.1-2-0.2-2.9
				c0,0,4.9,11.4,13.3,23.8c10,14.5,24.8,30.4,42.7,30.5c15.4,0.1,23.3-10.4,27.3-20.1c1.7-4.1,2.7-8.1,3.2-11l0,0
				c0.2-0.9,0.3-1.7,0.4-2.2l0,0c0-0.3,0.1-0.6,0.1-0.9c0.1-1.1,0.2-1.7,0.2-1.7S528.9,513.2,507.1,534.9z"/>
			<linearGradient id="SVGID_18_" gradientUnits="userSpaceOnUse" x1="435.8" y1="500.85" x2="523.7471" y2="500.85">
				<stop  offset="0" style="stop-color:#CCCCFF"/>
				<stop  offset="1" style="stop-color:#755CBB"/>
			</linearGradient>
			<path class="st20" d="M507.1,534.9c-3.2,3.2-7,6.1-11.6,8.5h-0.3h-0.3l0,0c-1.3-0.8-5.4-3.3-11-7.5c-14.6-11-39.1-33.4-46.2-63.6
				v-0.1c-0.8-3.6-1.4-7.2-1.7-11l0,0c-0.1-1-0.1-2-0.2-2.9c0,0,4.9,11.4,13.3,23.8c0,0,9.7,26.7,30.7,39.8
				c10.5,6.6,18.5,5.7,24.3,1.8c5.9-3.9,9.7-10.6,11.9-15.7c2.2-5.1,2.9-9.9,3-13.4c0-0.8,0-1.5,0-2.1c1.7-4.1,2.7-8.1,3.2-11l0,0
				c0.2-0.9,0.3-1.7,0.4-2.2l0,0c0-0.3,0.1-0.6,0.1-0.9c0.1-1.1,0.2-1.7,0.2-1.7S528.9,513.2,507.1,534.9z"/>
			<linearGradient id="SVGID_19_" gradientUnits="userSpaceOnUse" x1="454.7735" y1="885.0015" x2="454.7735" y2="454.8">
				<stop  offset="0" style="stop-color:#9E8CEF"/>
				<stop  offset="1" style="stop-color:#CAAFEE"/>
			</linearGradient>
			<path class="st21" d="M641.8,752.4c-0.3,0.1-0.4,0.2-0.4,0.2c-2,0.2-8.1-1.1-16.1-8l0,0c0,0,0,0-0.1-0.1c0,0,0-0.1-0.1-0.1
				c-6.7-5.9-14.7-15.7-22.8-31.7c-16.1-32.1-20.7-53.6-21.4-57.3l-0.1-0.6l-9.4,14.8c-6.3,19.1-18.4,98.2-18.2,101.6
				c0.2,3.4,10.6,20,10.4,22.1l0,0c-0.3,2.1-5,6.6-6.3,11.5c-0.9,3.3,5.5,13.7,10,21.4l0,0c2.3,4,4.1,7.3,4.1,8.6
				c0,3.6-11.3,21.4-11.3,21.4v9.6l-0.2,0.2l-0.5,0.5l-0.4,0.4c-4.3,3.4-22.6,14.5-79.8,17.7c-67.7,3.6-112.9-18.2-112.9-18.2
				l3.4-9.4c0,0-3.1-2.7-3.4-4.1c-0.2-1.4,2.5-4.6,2.5-4.6s-6.8-3.6-6.8-8.2c0-4.5,13.7-18.6,13.2-30.7c-0.5-12-10.9-22.7-12.3-29.5
				s17.8-23.6,17.8-23.6C364.3,704.5,361.2,635,361.2,635l-3.1-3.6c0,0-19.5,44.5-37.3,66.4c-2.1,2.6-4.3,5.2-6.6,7.6
				c-5,5.4-10.2,10.3-15.2,14.7c-12.3,10.7-23.4,17.8-26.3,17.2c-4.6-0.9-22.7-36.8-21.9-73.6c0.4-17.5,10.9-37.1,21.9-52.8
				c1.2-1.7,2.3-3.3,3.5-5c7.8-10.5,15.2-18.8,18.8-22.6c1.4-1.5,2.1-2.2,2.1-2.2s-2.5-8-4.2-15c0-0.2-0.1-0.3-0.1-0.5
				c0-0.1,0-0.2,0-0.2c0-0.1,0-0.2,0-0.2c-1-4.3-1.7-8-1.1-8.9c1.5-2.4,10.3-5.2,11.8-6.9c1.5-1.9,7.9-32.4,12.7-35.7
				c4.7-3.2,12.8-5.6,40.1-16.2c1.4-0.5,2.7-1.1,4.2-1.7c30.6-12.1,60.6-26.8,60.6-26.8l11.5-14.2h5.2l-1.7,3.6l-0.1,0.1
				c0.8,3.6,1.8,7.1,2.8,10.4c0,0.1,0,0.2,0.1,0.3c15.8,50,56.5,66,56.5,66c28.3-20.9,27.7-54.1,27.7-54.1v-4.6l5.3,1.6l3.6,8.6
				c0,0,6.2,9.6,30.5,20.2c4.2,1.9,8.7,4.2,13.4,6.8c22.3,12.6,47.1,32.2,48.9,36.3c0.2,0.4,0.4,1.1,0.7,2.1l0,0
				c2.6,10.3,8,48.7,13,62.5c3.1,8.6,8,13.3,11.6,15.7l0,0c2.7,1.9,4.7,2.4,4.7,2.4c0.4,2.1,0.8,4.2,1.1,6.2
				C666.1,704.7,646.2,749.3,641.8,752.4z"/>
			<linearGradient id="SVGID_20_" gradientUnits="userSpaceOnUse" x1="275.9111" y1="616.9" x2="380.735" y2="616.9">
				<stop  offset="0" style="stop-color:#CCCCFF"/>
				<stop  offset="1" style="stop-color:#755CBB"/>
			</linearGradient>
			<path class="st22" d="M380.8,628.4l-19.7,6.6l-3.1-3.6c0,0-19.5,44.5-37.3,66.4c-2.1,2.6-4.3,5.2-6.6,7.6
				c-5,5.4-10.2,10.3-15.2,14.7l-15-64.9l-7.6-49.3c7.8-10.5,15.2-18.8,18.8-22.6c1.4-1.5,2.1-2.2,2.1-2.2s-2.5-8-4.2-15
				c0-0.2-0.1-0.3-0.1-0.5c0-0.1,0-0.2,0-0.2c0-0.1,0-0.2,0-0.2c-1-4.3-1.7-8-1.1-8.9c1.5-2.4,10.3-5.2,11.8-6.9
				c1.5-1.9,7.9-32.4,12.7-35.7c0,0-3.1,29.4,13.7,66.7l8.2,11.5L362,611C361.7,610.7,370.8,622.8,380.8,628.4z"/>
			<linearGradient id="SVGID_21_" gradientUnits="userSpaceOnUse" x1="272.7474" y1="737.2" x2="272.7474" y2="535.9999">
				<stop  offset="0" style="stop-color:#9E8CEF"/>
				<stop  offset="1" style="stop-color:#DAC7F3"/>
			</linearGradient>
			<path class="st23" d="M323.6,681.5c-4.2,31.5-51.2,55.7-51.2,55.7c-10.4,0-22.2-18.2-32.7-40.6c-10.6-22.5-11.2-86.9-11.8-90.9
				s-6.4-11.9-6.8-15.3c-0.3-3.4,9.6-10.4,9.6-10.4l-0.1-0.2l-0.1-0.2c-1.1-2.2-6.8-14.6-6.4-16.9c0.5-2.5,11.5-7.9,11.5-7.9
				l0.7,12.3c0,0,25.9-4.9,34.7-24.9l1.6-6.2l4.3,2.8v26.4c0,0,0.9,4.1,2.2,4.1s11.4-5.1,13.6-4.3c2.1,0.7,4.2,14.8,7,16.6
				c2.8,1.9,10.3,7,11.4,9.6c0.5,1.2,0.6,5.2,0.6,10c0.1,5.9,0.1,12.8,1,16.7C314.2,624.8,327.8,649.9,323.6,681.5z"/>
			<linearGradient id="SVGID_22_" gradientUnits="userSpaceOnUse" x1="618.756" y1="679.338" x2="753.8815" y2="679.338">
				<stop  offset="0" style="stop-color:#A999F1"/>
				<stop  offset="1" style="stop-color:#DAC7F3"/>
			</linearGradient>
			<path class="st24" d="M752.9,654.5c-2.1,3.3-12.7,10.3-15.4,13.1c-2.7,2.7,0,11.7,0,11.7c-44.5,47.2-91,71-95.7,73.2
				c-0.3,0.1-0.4,0.2-0.4,0.2c-28-18.8-25.6-49.8-16.3-75.9c8.9-25.1,24.1-45.6,24.8-46.5l0,0l0,0c0.5-0.2,8.5-3.5,14.2-3.9
				c1.9-0.1,3.6,0.6,5.3,1.7c3.4,2.1,6.2,5.5,9.1,4.1c4.1-2.1,13.3-23.7,19.5-24.3c4.3-0.4,10.3,4,14.4,6.5c1.8,1.1,3.1,1.9,3.8,1.7
				c2.2-0.6,10-9.9,10.6-10.1c0.6-0.3,4.1,2.3,4.1,2.3l-2.4,3c3.8,21.9,16.2,36.5,16.2,36.5l8.3-12.2
				C752.9,635.5,755.1,651.1,752.9,654.5z"/>
			<path class="st25" d="M522.8,478.4c0,0.3-0.1,0.6-0.1,1c-0.1,0.7-0.3,1.3-0.5,2l0,0c-2.8,10.5-14.4,21.4-29,16.2
				c-15.9-5.7-46.2-69.8-46.2-69.8l3-13.7l71.8,58.6l0.8,5.6L522.8,478.4z"/>
			<g>
				<path class="st26" d="M283.5,466.6c0,0-4.4-24.2-2.4-42.1s-0.5-38.2-0.5-38.2s-4.3-1.9-7.5,0s-10.6,20.3-7.2,35.1
					c3.3,14.8,0.8,50.5,0.8,50.5h-5l-10.9-15l-5.3-1.6c0,0-30.6,28.8-30.1,45.9l4,15.2l37.6-1.3l24.5-28L283.5,466.6z"/>
				<linearGradient id="SVGID_23_" gradientUnits="userSpaceOnUse" x1="228.75" y1="508.4888" x2="228.75" y2="455.47">
					<stop  offset="1.598750e-02" style="stop-color:#FFC2A9"/>
					<stop  offset="1" style="stop-color:#FF9595"/>
				</linearGradient>
				<path class="st27" d="M245.4,455.5c0,0,0.8,19.1,5.1,35.4c0,0-0.7,6.7-8.6,7.1l-2-2.1c0,0-1.4,7.6-8.3,8.2l-6.6-6.6l1.7,5.5
					c0,0-2.3,5.8-8.6,5.6c0,0-10.4-8.2-11.1-18.8l10.3-8.8v-6.7l12.3-8.6l0.2-4.9C229.9,460.6,237.1,455.3,245.4,455.5z"/>
				<linearGradient id="SVGID_24_" gradientUnits="userSpaceOnUse" x1="262.2" y1="507.3" x2="262.2" y2="419.4">
					<stop  offset="0" style="stop-color:#FFEADB"/>
					<stop  offset="0.9944" style="stop-color:#C27CB6"/>
				</linearGradient>
				<path class="st28" d="M281.6,419.4c0,0-1.9,4.7-4.5,6.5c-2.6,1.9-10.2,3.2-10.2,3.2l-0.4,42.9h-5l-10.9-15c0,0,5.6,8.6,5.9,15
					l-4.3,2.1l-3.7-12.9l-1.8,9.3l1.8,11.5c0,0,6.4-5.6,18.2-5.8l1.8,3.2c0,0-21.2,17.6-26.1,27.9c0,0,10.4-13.3,34.4-27.9l2.2-7
					l3-16.8C282,455.4,279.1,431.2,281.6,419.4z"/>
				<linearGradient id="SVGID_25_" gradientUnits="userSpaceOnUse" x1="259.2808" y1="566.9" x2="259.2808" y2="431.5">
					<stop  offset="1.598750e-02" style="stop-color:#FFC2A9"/>
					<stop  offset="1" style="stop-color:#FF9595"/>
				</linearGradient>
				<path class="st29" d="M299.4,494c-2,5.9-22.6,30.5-24.9,35.7c-2.2,5.3-3.6,12.3-3.6,12.3c-10.2,21.9-34.7,24.9-34.7,24.9
					l-1.2-19.7c0,0-13.2-7.6-15.4-11.7v-0.1l-0.3-0.7c-0.7-3.9-0.1-18.2-0.1-18.2l23-9.4c10-13,34.4-27.9,34.4-27.9l1.2-6.8
					c-17.5-8.6-14.5-34.6-11.6-37.8c2.9-3.1,8.4-3.1,8.4-3.1s6.3,20.9,10.4,30.7C289.2,472,301.3,488.2,299.4,494z"/>
				<path class="st30" d="M229.9,460.6c0,0,2.5,23.8,10.2,35.2c0,0-9.6-11.9-10.3-30.4L229.9,460.6z"/>
				<path class="st30" d="M217.4,474.2c0,0,2.5,19.2,14.4,29.9c0,0-10.4-5.3-14.4-23.1V474.2z"/>
				<linearGradient id="SVGID_26_" gradientUnits="userSpaceOnUse" x1="235.1" y1="545.85" x2="277.7" y2="545.85">
					<stop  offset="1.598750e-02" style="stop-color:#D1A1D6"/>
					<stop  offset="0.9944" style="stop-color:#BD89C4"/>
				</linearGradient>
				<path class="st31" d="M277.7,524.7c0,0-26,25.2-42.6,22.6l1.2,19.7c0,0,27.2-2.3,36.1-31C272.3,535.9,275.5,527.7,277.7,524.7z"
					/>
			</g>
			<g>
				<linearGradient id="SVGID_27_" gradientUnits="userSpaceOnUse" x1="756.5778" y1="649.5" x2="756.5778" y2="468.3417">
					<stop  offset="1.598750e-02" style="stop-color:#FFC2A9"/>
					<stop  offset="1" style="stop-color:#FF9595"/>
				</linearGradient>
				<path class="st32" d="M827.1,559.1c0,0-23.8,43.6-51.8,57h-9.6l-22.1,33.4c0,0-14.3-9-15.3-38.4c0,0,5-5.2,6.2-11.1
					c0,0-7.9-6.2-10-10.7c-2.1-4.6-2.8-18.2-4.4-23.8c-1.5-5.6-14.4-17.3-17.3-18.7c-2.8-1.5-15.9-2.2-15.9-2.2s-1.9-4.7,0-6.9
					s22.2-10.2,33.2-2.6c0,0,0.8,5.8,2,8.8c1.3,3,10.9,13.8,12.4,13.8s8-5.5,10.9-9.7c2.7-4.1,17.4-35.6,21-46.4
					c0-0.1,0-0.2,0.1-0.3c0-0.2,0.1-0.3,0.1-0.5c0-0.1,0.1-0.2,0.1-0.3v-0.1c2.7-9.3,18.6-26.9,27.1-31.8c0,0,3.6-0.9,5.6,3.6
					c0,0-6.8,19.4-14,30.9c-1.2,2-2.5,4.2-3.8,6.6l0,0c-6.1,11.1-12.9,25.8-13.9,27.9l-0.1,0.3l3.8,2l10.3-9.8l10.5-10l24.1,25.5
					l-2.3,3l-7.5,9.7l3.8,0.7l8.9-9.8L827.1,559.1z"/>
				<linearGradient id="SVGID_28_" gradientUnits="userSpaceOnUse" x1="777.9" y1="591.5" x2="777.9" y2="501.4925">
					<stop  offset="0" style="stop-color:#FFEADB"/>
					<stop  offset="0.9944" style="stop-color:#C27CB6"/>
				</linearGradient>
				<path class="st33" d="M821.4,568.3l-7.6,11.2c0,0-41.9-32.3-51-35s-12.4-0.9-12.4-0.9l-9.4,12c0,0,17.3,15.3,18.7,35.9
					c0,0-5.8-26.1-25.3-34c1.5,0,8-5.5,10.9-9.7c2.7-4.1,17.4-35.6,21-46.4c-0.5,1.9-1.1,5.4,0.4,8.2c2.1,3.8,14.2,0.2,14.9,0l0,0
					l-14,27.9l-0.1,0.3l3.8,2l10.3-9.8l-5.2,11.9l37.4,6.6l-7.5,9.7l3.8,0.7L821.4,568.3z"/>
				<linearGradient id="SVGID_29_" gradientUnits="userSpaceOnUse" x1="795.8" y1="560.4" x2="795.8" y2="520.0604">
					<stop  offset="0" style="stop-color:#FFB0B0"/>
					<stop  offset="0.984" style="stop-color:#FFC2A9"/>
				</linearGradient>
				<path class="st34" d="M792.3,520.1c0,0,7.2-1.1,12,8.3l-1.1,3c0,0,7.1,1.4,14,12.9c0,0-6.1,11-21.1,16.1c0,0-6.9-2-8.2-7.9
					l1.4-3.8l-5.5,4.1c0,0-6.5,2-9.4-7.7L792.3,520.1z"/>
				<linearGradient id="SVGID_30_" gradientUnits="userSpaceOnUse" x1="819.2202" y1="566.6267" x2="819.2202" y2="544.5246">
					<stop  offset="0" style="stop-color:#FFB0B0"/>
					<stop  offset="0.984" style="stop-color:#FFC2A9"/>
				</linearGradient>
				<path class="st35" d="M829.3,556c0,0,1.6-6.9-6-11.5L809,560.4c0,0,0.4,5.1,6.6,6.2C815.6,566.7,825.4,563.2,829.3,556z"/>
				<linearGradient id="SVGID_31_" gradientUnits="userSpaceOnUse" x1="724.6" y1="610.65" x2="765.7" y2="610.65">
					<stop  offset="1.598750e-02" style="stop-color:#D1A1D6"/>
					<stop  offset="0.9944" style="stop-color:#BD89C4"/>
				</linearGradient>
				<path class="st36" d="M724.6,589.3c0,0,16.7,18.6,41.1,26.7l-10.5,16l-22-27.9l1.4-4C734.6,600.1,725.8,593.5,724.6,589.3z"/>
				<path class="st30" d="M803.2,531.5c0,0-6.9,11.5-14,17.3l-1.4,3.8c0,0,13.6-9.2,18.5-19.7C806.4,532.9,804.8,531.7,803.2,531.5z
					"/>
			</g>
			<linearGradient id="SVGID_32_" gradientUnits="userSpaceOnUse" x1="667.3408" y1="752.7321" x2="667.3408" y2="550.1">
				<stop  offset="0" style="stop-color:#CCCCFF"/>
				<stop  offset="1" style="stop-color:#755CBB"/>
			</linearGradient>
			<path class="st37" d="M752.9,654.5c-2.1,3.3-12.7,10.3-15.4,13.1c-2.7,2.7,0,11.7,0,11.7c-44.5,47.2-91,71-95.7,73.2
				c-0.3,0.1-0.4,0.2-0.4,0.2c-3.6,0.5-21.4-4.5-39.1-40c-16.1-32.1-20.7-53.6-21.4-57.3l-0.1-0.6l3.9-5.3l5.8-65.4l4.1,13.2
				c15.4-18.6,30-47.2,30-47.2l0.7,2.1l0,0c2.6,10.3,8,48.7,13,62.5c3.1,8.6,8,13.3,11.6,15.7l0,0l0,0c-14.3,13-21.3,31.6-24.8,46.5
				c-3.2,13.7-3.4,24-3.4,24s3.9-18.5,16.4-40.7c4.5-8.1,11.1-15.3,17.6-21.2c4.9-4.5,9.8-8.2,13.8-11c3.4,2.1,6.2,5.5,9.1,4.1
				c-18.7,28.1-18.3,83.7-0.7,73.1c17.6-10.6,21.6-33.1,21.6-33.1c-4.2-27.4-2.9-58.4,0.4-64.2c4,0.1,15.6,8.3,16.3,8.1
				c-1.1,32.2,14.1,53.8,14.1,53.8l10-15.4c-14.5-24.5-13.5-48.4-13.5-48.4c0.6-0.3,4.1,2.3,4.1,2.3l-2.4,3
				c3.8,21.9,16.2,36.5,16.2,36.5l8.3-12.2C752.9,635.5,755.1,651.1,752.9,654.5z"/>
			<linearGradient id="SVGID_33_" gradientUnits="userSpaceOnUse" x1="221.3" y1="712.1008" x2="560" y2="712.1008">
				<stop  offset="0" style="stop-color:#CCCCFF"/>
				<stop  offset="1" style="stop-color:#755CBB"/>
			</linearGradient>
			<path class="st38" d="M560,856.3v9.6l-0.2,0.2l-0.5,0.5l-0.4,0.4c-4.3,3.4-22.6,14.5-79.8,17.7c-67.7,3.6-112.9-18.2-112.9-18.2
				l3.4-9.4c0,0-3.1-2.7-3.4-4.1c-0.2-1.4,2.5-4.6,2.5-4.6s-6.8-3.6-6.8-8.2c0-4.1,11.1-16,12.9-27.1c0.2-1.2,0.3-2.3,0.3-3.5
				c-0.5-12-10.8-22.6-12.3-29.4c0-0.1,0-0.1,0-0.1c-1.4-6.8,17.8-23.6,17.8-23.6c-16.4-51.8-19.5-121.3-19.5-121.3l-3.1-3.6
				c0,0-19.5,44.5-37.3,66.4s-43.6,40.5-48.1,39.5c-10.4,0-22.2-18.2-32.7-40.6c-10.6-22.5-11.2-86.9-11.8-90.9s-6.4-11.9-6.8-15.3
				c11.3,19.5,29.5,13.8,29.5,13.8c-13.1,0.3-19.9-24.2-19.9-24.2l-0.1-0.2l-0.1-0.2l-6.4-16.9c0.7,0.8,15.7,17.6,30.2,7.2
				c14.8-10.6,22.5-31.1,22.5-31.1v26.4c0,0,0.9,4.1,2.2,4.1c-0.9,12.1-3.4,26.9-6.5,41.5c-6.7,31.5-16,61.9-16,61.9
				s25.1-13.7,33.9-48.1c4.2-16.5,4.9-30.8,4.5-41.4c-0.4-9-1.6-15-2.1-17.3c0-0.2-0.1-0.3-0.1-0.5c0-0.1,0-0.2,0-0.2v-0.1l2.4,5.2
				l4.6,11.4c5.4,44.3-5.7,111.1-5.7,111.1c16.1-20,19.4-64.2,18.7-75c-0.3-5.2-0.7-11.4-1-16.7c-0.4-5.7-0.6-10-0.6-10l32.9,19.6
				l-6.1-19.2L362,611c0,0,21.5,25.9,43.6,28.9c22.2,3,103.3,1.3,103.3,1.3s-70.6,4.5-91.2,10.6s-24.5,13-24.5,13
				c14.9,75.8,97.3,101.3,99.9,102.1C418.3,755.6,383.4,692,383.4,692s-1.3,35.7,4.5,49.4s39.7,47,83.4,53.9c3.7,0.6,7.3,1,10.8,1.1
				c36.8,1.8,67.3-17.1,70.4-19.1c0.2-0.1,0.3-0.2,0.3-0.2s0,0-0.1,0.1c-1.2,1.8-16.3,23-77.2,25.3c-3.7,0.1-7.3,0.1-10.8,0l0,0
				c-56.4-2.3-85.2-40-85.2-40s-20.9,11.2-7.5,27.9c0.1,0.2,0.3,0.4,0.4,0.5c3.9,4.5,12.6,10.1,22.8,15.8c0.3,0.2,0.6,0.3,0.9,0.5
				c12.4,6.8,26.8,13.9,38.1,19.7c0.1,0,0.1,0,0.2,0.1c6.8,3.6,12.5,6.6,15.6,9l0,0c3.1,2.3,3.8,3.8,0.7,4.2
				c-15.7,1.9-75.5-11.2-77.9-7.6c-2.4,3.6,2.9,13,2.9,13c54.8,27.1,172,13.8,175.7,13.4c-98.1,25.1-178.4-6.7-178.4-6.7l2.6,9.4
				c0,0,43.7,15.1,95.2,16.4c51.5,1.2,83.7-12,83.7-12L560,856.3z"/>
			<linearGradient id="SVGID_34_" gradientUnits="userSpaceOnUse" x1="519.9" y1="655.2" x2="584.7" y2="655.2">
				<stop  offset="0" style="stop-color:#CCEDFF"/>
				<stop  offset="1" style="stop-color:#755CBB"/>
			</linearGradient>
			<path class="st39" d="M519.9,640.6c0,0,39,2.1,64.8,9l-13.3,20.2C571.4,669.7,551.4,652.1,519.9,640.6z"/>
			<linearGradient id="SVGID_35_" gradientUnits="userSpaceOnUse" x1="461.1" y1="768.8344" x2="556.4" y2="768.8344">
				<stop  offset="0" style="stop-color:#CCEDFF"/>
				<stop  offset="1" style="stop-color:#755CBB"/>
			</linearGradient>
			<path class="st40" d="M556.4,748.1c0,0-24.3,20.3-48.3,29.7c-23.9,9.4-47,10.3-47,10.3s13.8,4.1,47.6-1.4
				c33.9-5.5,45.5-23.8,45.5-23.8L556.4,748.1z"/>
			<linearGradient id="SVGID_36_" gradientUnits="userSpaceOnUse" x1="465.4967" y1="811.884" x2="567.2" y2="811.884">
				<stop  offset="0" style="stop-color:#CCEDFF"/>
				<stop  offset="1" style="stop-color:#755CBB"/>
			</linearGradient>
			<path class="st41" d="M567.2,826.3L567.2,826.3c-45,11.6-102.2-5.1-101.7-7c0.5-2.1,15.6,0.9,50.9-6.2
				c34.2-6.8,46.5-18.9,47.2-19.7c-0.3,2.1-5,6.6-6.3,11.5C556.4,808.2,562.8,818.6,567.2,826.3z"/>
			<linearGradient id="SVGID_37_" gradientUnits="userSpaceOnUse" x1="378" y1="705.2" x2="378" y2="591">
				<stop  offset="0" style="stop-color:#CCEDFF"/>
				<stop  offset="1" style="stop-color:#755CBB"/>
			</linearGradient>
			<path class="st42" d="M444.9,646.6c-38.5,3.9-48.8,14.6-48.8,14.6c-10.8,1.4-35.1-26.4-35.1-26.4l-3.1-3.6
				c0,0-19.5,44.5-37.3,66.4c-2.1,2.6-4.3,5.2-6.6,7.6l2.5-5.7c0,0,4.1-2,5.4-23.6c1.3-21.7-9.1-53.9-9.2-58.3s-1.6-26.6-1.6-26.6
				l32.9,19.6l-6.1-19.2l23.9,19.2c0,0,9.4,14.1,33.1,25.9C417.1,647.7,442.2,646.8,444.9,646.6z"/>
			<linearGradient id="SVGID_38_" gradientUnits="userSpaceOnUse" x1="387.15" y1="714.9" x2="387.15" y2="628.3">
				<stop  offset="0" style="stop-color:#CCEDFF"/>
				<stop  offset="1" style="stop-color:#755CBB"/>
			</linearGradient>
			<path class="st43" d="M357.8,631.3l22.9-3c0,0,9.2,6.1,27.5,13.6L393,664.5c0,0,6.1,32.2,23.5,50.4c0,0-46.4-25.8-52.8-47.3
				L357.8,631.3z"/>
			<linearGradient id="SVGID_39_" gradientUnits="userSpaceOnUse" x1="250.35" y1="604.2184" x2="250.35" y2="538.8">
				<stop  offset="0" style="stop-color:#CCEDFF"/>
				<stop  offset="1" style="stop-color:#755CBB"/>
			</linearGradient>
			<path class="st44" d="M224,562.7l6.5,17.3c0,0,6.6,23.2,19.9,24.2s26.3-39,26.3-39v-26.4c0,0-14.1,30.3-29.3,33.7
				C232.1,575.8,224,562.7,224,562.7z"/>
			<linearGradient id="SVGID_40_" gradientUnits="userSpaceOnUse" x1="303.269" y1="546.5499" x2="329.6269" y2="546.5499">
				<stop  offset="0" style="stop-color:#CCEDFF"/>
				<stop  offset="1" style="stop-color:#755CBB"/>
			</linearGradient>
			<path class="st45" d="M303.3,549.1c0,0,11.8,23.6,26.4,30.8c0,0-17.3-42-13.7-66.7C316,513.3,309.6,517.3,303.3,549.1z"/>
			<linearGradient id="SVGID_41_" gradientUnits="userSpaceOnUse" x1="589.7499" y1="705.3" x2="589.7499" y2="584">
				<stop  offset="0" style="stop-color:#CCCCFF"/>
				<stop  offset="1" style="stop-color:#755CBB"/>
			</linearGradient>
			<path class="st46" d="M590.5,584l4.1,13.2l4.1,108.1c0,0-10.4-20.6-17.9-49.9l3.8-5.9C584.7,649.5,591.2,608.7,590.5,584z"/>
			<linearGradient id="SVGID_42_" gradientUnits="userSpaceOnUse" x1="726.0878" y1="679.2247" x2="726.0878" y2="615.8247">
				<stop  offset="0" style="stop-color:#CCCCFF"/>
				<stop  offset="1" style="stop-color:#755CBB"/>
			</linearGradient>
			<path class="st47" d="M716.1,615.9c0,0-2.3,53.1,20.2,57.7l1.1,5.7C737.5,679.2,708.3,678.2,716.1,615.9z"/>
			<linearGradient id="SVGID_43_" gradientUnits="userSpaceOnUse" x1="654.2001" y1="676.3857" x2="654.2001" y2="627.9857">
				<stop  offset="0" style="stop-color:#CCCCFF"/>
				<stop  offset="1" style="stop-color:#755CBB"/>
			</linearGradient>
			<path class="st48" d="M678.4,632c0,0-0.9,1.9-9.1-4.1c0,0-28.4,20.1-39.3,48.4c0,0,17.5-26.1,26.8-28.8
				c9.3-2.8,11.5,7.6,11.5,7.6S672.1,640.5,678.4,632z"/>
			<linearGradient id="SVGID_44_" gradientUnits="userSpaceOnUse" x1="236.6205" y1="608.4129" x2="236.6205" y2="590.4276">
				<stop  offset="0" style="stop-color:#CCEDFF"/>
				<stop  offset="1" style="stop-color:#755CBB"/>
			</linearGradient>
			<path class="st49" d="M221,590.4c0,0,10.9,20.1,31.3,13.8c0,0-12.3,8.3-24.5,1.6C227.8,605.8,220.2,592.7,221,590.4z"/>
			<linearGradient id="SVGID_45_" gradientUnits="userSpaceOnUse" x1="284.7496" y1="663.2" x2="284.7496" y2="564.9">
				<stop  offset="0" style="stop-color:#CCCCFF"/>
				<stop  offset="1" style="stop-color:#755CBB"/>
			</linearGradient>
			<path class="st50" d="M292.5,564.9c0,0,15,56.1-24.1,98.3c0,0,25.5-13.1,31.2-43.2C305.4,589.8,292.5,564.9,292.5,564.9z"/>
			<linearGradient id="SVGID_46_" gradientUnits="userSpaceOnUse" x1="537.5679" y1="594.1" x2="537.5679" y2="520.1">
				<stop  offset="0" style="stop-color:#CCEDFF"/>
				<stop  offset="1" style="stop-color:#755CBB"/>
			</linearGradient>
			<path class="st51" d="M561.5,520.1c0,0-1.7,25.4-13.9,43.5c-12.1,18.2-36.2,30.5-36.2,30.5s30.3-11.1,44.1-26.8
				C569.4,551.5,561.5,520.1,561.5,520.1z"/>
			<linearGradient id="SVGID_47_" gradientUnits="userSpaceOnUse" x1="440.5778" y1="584.1" x2="440.5778" y2="481.9">
				<stop  offset="0" style="stop-color:#CCEDFF"/>
				<stop  offset="1" style="stop-color:#755CBB"/>
			</linearGradient>
			<path class="st52" d="M406.8,481.9c0,0,0,21.2,6.8,42.8c6.8,21.6,66,59.4,66,59.4s-61-25.4-72.8-48.1
				C395,513.2,406.8,481.9,406.8,481.9z"/>
			<linearGradient id="SVGID_48_" gradientUnits="userSpaceOnUse" x1="406.2" y1="602.7902" x2="576.8" y2="602.7902">
				<stop  offset="0" style="stop-color:#8642A0"/>
				<stop  offset="1" style="stop-color:#6456C0"/>
			</linearGradient>
			<path class="st53" d="M406.2,582.9v34.5c0,0,79.5-0.7,168.5,5.3l2.1-31C576.7,591.6,499.3,582.4,406.2,582.9z"/>
			<g>
				<path class="st54" d="M420.9,590.7c0-0.6,0.3-0.9,0.9-0.9l16.1,0.5c1.6,0,2.9,0.3,4,0.7s2,1.1,2.6,1.8c0.7,0.8,1.2,1.7,1.5,2.7
					c0.3,1.1,0.4,2.2,0.4,3.5l-0.1,4.4c0,1.3-0.2,2.4-0.6,3.5s-0.9,2-1.6,2.6c-0.7,0.7-1.7,1.3-2.7,1.7c-1.2,0.4-2.5,0.5-4.1,0.5
					l-8.7-0.3l-1.8-5.1h-0.2l-0.2,5l-6.1-0.2L420.9,590.7z M426.6,605.9l10.3,0.3c1.2,0,2-0.2,2.5-0.7s0.8-1.4,0.8-2.7l0.1-3.6
					c0-1.4-0.2-2.2-0.7-2.7s-1.3-0.8-2.4-0.8l-9.9-0.3c-0.1,0-0.3,0-0.3,0.1c-0.1,0.1-0.1,0.2-0.1,0.3L426.6,605.9z"/>
				<path class="st54" d="M455.1,600h-0.2l-0.2,6.4c0,0.3,0.1,0.4,0.4,0.4l18.1,0.6L473,613l-23.7-0.7c-0.6,0-0.9-0.3-0.8-0.9
					l0.6-19.7c0-0.6,0.3-0.9,0.9-0.9l23,0.7c0.6,0,0.9,0.3,0.9,0.9l-0.2,5.6l-5.7,2h-0.2l0.1-2.8c0-0.2-0.1-0.3-0.3-0.3l-12.2-0.4
					c-0.2,0-0.3,0-0.3,0.1c-0.1,0.1-0.1,0.2-0.1,0.3l-0.1,2.6l10.1,0.3l-0.1,4.4l-8.4-0.3L455.1,600z"/>
				<path class="st54" d="M495.3,599.6h-0.2l0.1-2.3c0-0.2-0.1-0.4-0.4-0.4l-11.3-0.4c-0.4,0-0.7,0.1-0.9,0.2
					c-0.2,0.2-0.3,0.4-0.3,0.8v0.5c0,0.4,0,0.7,0.2,0.8c0.1,0.1,0.4,0.2,0.8,0.3l13.3,2.2c0.9,0.1,1.6,0.4,2.1,0.6
					c0.6,0.3,1.1,0.6,1.4,1c0.4,0.4,0.6,0.9,0.8,1.6c0.1,0.6,0.2,1.3,0.2,2.1l-0.1,1.7c0,0.9-0.2,1.7-0.4,2.3
					c-0.2,0.7-0.6,1.3-1.1,1.7c-0.5,0.5-1.2,0.8-2,1s-1.9,0.3-3,0.3l-19.1-0.6l0.2-5.6l17.1,0.5c0.5,0,0.9-0.1,1.1-0.3
					s0.3-0.5,0.3-1V606c0-0.4,0-0.7-0.2-0.8c-0.1-0.2-0.4-0.3-0.8-0.3l-12.8-2.1c-0.9-0.1-1.6-0.4-2.2-0.6c-0.6-0.3-1.1-0.6-1.5-1
					s-0.7-0.9-0.8-1.5c-0.2-0.6-0.2-1.3-0.2-2.1v-1.5c0-1.6,0.5-2.7,1.4-3.6c0.9-0.8,2.2-1.2,4.2-1.2l19,0.6c0.6,0,0.9,0.4,0.9,1
					l-0.1,4.4L495.3,599.6z"/>
				<path class="st54" d="M503.3,613.8l0.7-21.5l6.1,0.2l-0.7,21.5L503.3,613.8z"/>
				<path class="st54" d="M531.9,605.5c0-0.3,0-0.7,0-1c0-0.4,0-0.7-0.1-0.9v-0.3l6.1,0.2l-0.3,10.5c0,0.6-0.3,0.8-0.8,0.8
					l-16.1-0.5c-1.6-0.1-2.9-0.3-4-0.7s-2-1.1-2.6-1.8c-0.7-0.8-1.2-1.7-1.5-2.7c-0.3-1.1-0.4-2.2-0.4-3.5l0.1-4.4
					c0-1.3,0.2-2.4,0.6-3.5c0.4-1.1,0.9-2,1.6-2.6c0.7-0.7,1.7-1.3,2.7-1.7c1.2-0.4,2.5-0.5,4.1-0.5l16,0.5c0.6,0,0.9,0.3,0.8,0.9
					L538,599l-5.7,1.9h-0.2l0.1-2c0-0.2-0.1-0.3-0.3-0.3l-10.3-0.3c-0.6,0-1.1,0-1.5,0.1s-0.8,0.3-1,0.5c-0.3,0.3-0.5,0.6-0.6,1.1
					c-0.1,0.4-0.2,1-0.2,1.7l-0.1,3.8c0,1.3,0.2,2.2,0.7,2.7s1.3,0.8,2.4,0.9l10.2,0.3c0.2,0,0.3-0.1,0.3-0.4L531.9,605.5
					L531.9,605.5z"/>
				<path class="st54" d="M550.7,593.8c0.5,0,0.8,0.1,1,0.2c0.2,0.1,0.4,0.4,0.5,0.7l7.7,15.6c0.1,0.2,0.3,0.4,0.6,0.4h0.3
					c0.3,0,0.5-0.1,0.5-0.5l0.5-16.1l5.5,0.2l-0.6,20.6c0,0.6-0.3,0.9-0.9,0.8l-8.7-0.3c-0.4,0-0.7-0.1-0.9-0.2
					c-0.2-0.1-0.4-0.4-0.6-0.7l-8-15.6c-0.1-0.2-0.3-0.4-0.6-0.4h-0.3c-0.3,0-0.5,0.1-0.5,0.5l-0.5,16.1l-5.5-0.2l0.6-20.6
					c0-0.6,0.3-0.9,0.9-0.9L550.7,593.8z"/>
			</g>
			<linearGradient id="SVGID_49_" gradientUnits="userSpaceOnUse" x1="420.9" y1="504.3" x2="531.9" y2="504.3">
				<stop  offset="0" style="stop-color:#CCCCFF"/>
				<stop  offset="1" style="stop-color:#755CBB"/>
			</linearGradient>
			<path class="st55" d="M531.9,486.5c-1.9,22.4-8.7,37.9-15.9,48.3c-10,14.4-20.8,19.3-20.8,19.3c-10.8-4.7-20.1-10.5-28.2-17
				c-34.2-27.3-45.2-65.2-46.1-68.3c14.4,34.9,35.6,56,51.7,67.9c13,9.7,22.6,13.3,22.6,13.3v-11.1c-2.5-1-5.1-2-7.4-3.2
				c-28.3-14.3-43.1-44-50.2-63.3v-0.1c-3.8-10.4-5.3-17.8-5.3-17.8h5.2l-1.7,3.6l-0.1,0.1c0.8,3.6,1.8,7.1,2.8,10.4
				c0,0.1,0,0.2,0.1,0.3c15.8,50,56.5,66,56.5,66c28.3-20.9,27.7-54.1,27.7-54.1v-4.6l5.3,1.6L531.9,486.5z"/>
			<linearGradient id="SVGID_50_" gradientUnits="userSpaceOnUse" x1="706.128" y1="672" x2="706.128" y2="607.8">
				<stop  offset="0" style="stop-color:#CCCCFF"/>
				<stop  offset="1" style="stop-color:#755CBB"/>
			</linearGradient>
			<path class="st56" d="M699.8,607.8c0,0-7.7,25.1-0.4,64.2c0,0,3.6-49.5,6.3-53.9c2.7-4.3,10.3-2.2,10.3-2.2
				S704.1,609.2,699.8,607.8z"/>
			<linearGradient id="SVGID_51_" gradientUnits="userSpaceOnUse" x1="615.3999" y1="744.4" x2="615.3999" y2="550.1">
				<stop  offset="0" style="stop-color:#CCCCFF"/>
				<stop  offset="1" style="stop-color:#755CBB"/>
			</linearGradient>
			<path class="st57" d="M625.1,744.4c-6.7-5.9-14.7-15.7-22.8-31.7c-16.1-32.1-20.7-53.6-21.4-57.3l3.8-5.9l5.1-49.4l4.8-2.8
				c0,0,17.1-18.8,30-47.2c0.2,0.4,0.4,1.1,0.7,2.1l0,0c2.6,10.3,8,48.7,13,62.5c3.1,8.6,8,13.3,11.6,15.7c0,0-29.5,43.8-30.9,75.1
				C617.6,733.7,624,743,625.1,744.4z"/>
			<linearGradient id="SVGID_52_" gradientUnits="userSpaceOnUse" x1="406.3" y1="835.8" x2="406.3" y2="780.0539">
				<stop  offset="0" style="stop-color:#CCCCFF"/>
				<stop  offset="1" style="stop-color:#755CBB"/>
			</linearGradient>
			<path class="st58" d="M449.8,835.8c0,0-53.2-8.7-75-22.7l0,0c0.2-1.2,0.3-2.3,0.3-3.5c-0.5-12-10.8-22.6-12.3-29.4
				c0.2,0.7,1.8,4.2,9.4,10.7c4.8,4.1,12,9.4,22.8,15.8c0.3,0.2,0.6,0.3,0.9,0.5c15.3,9.1,28.6,15.2,38.1,19.7c0.1,0,0.1,0,0.2,0.1
				C442.7,830.8,448.2,833.5,449.8,835.8C449.8,835.7,449.8,835.8,449.8,835.8z"/>
			<linearGradient id="SVGID_53_" gradientUnits="userSpaceOnUse" x1="514.55" y1="820.4932" x2="514.55" y2="793.4">
				<stop  offset="0" style="stop-color:#CCCCFF"/>
				<stop  offset="1" style="stop-color:#755CBB"/>
			</linearGradient>
			<path class="st59" d="M563.6,793.4c-0.3,2.1-5,6.6-6.3,11.5c0,0-19.5,20.7-91.8,14.4c0.5-2.1,15.6,0.9,50.9-6.2
				C550.5,806.2,562.9,794.1,563.6,793.4z"/>
			<path class="st60" d="M575.6,513.7l-46.2,14.9l-13.6,6.2h-0.1H507h-11.9l-7.4,0.6l-3.9,0.3l-11.2,0.9l-5.7,0.5l-55.4-20l-9.9-3.6
				L356,497c1.4-0.5,2.7-1.1,4.2-1.7c30.6-12.1,60.6-26.8,60.6-26.8l11.5-14.2h5.2c4.6-10.1,7.6-19.4,9.6-26.7l3-13.7
				c0.2-1.4,0.3-2.1,0.3-2.1l16.3,8.6l55,44c0,3,0,5.7,0.2,8l0.8,5.6c0.1-1.1,0.2-1.7,0.2-1.7l5.3,1.6l3.6,8.6
				c0,0,6.2,9.6,30.5,20.2C566.6,508.7,571,510.9,575.6,513.7z"/>
			<g>
				<linearGradient id="SVGID_54_" gradientUnits="userSpaceOnUse" x1="513.3877" y1="472.5373" x2="513.3877" y2="287.4246">
					<stop  offset="1.598750e-02" style="stop-color:#FFC2A9"/>
					<stop  offset="1" style="stop-color:#FF9595"/>
				</linearGradient>
				<path class="st61" d="M540.5,471.5c0,0-21.6,4.9-45.3-6.6s-43.7-45.5-45-53.9c-1.2-8.5,9.1-30.7,9.1-47.8
					c0-17.2-8.5-47,5.8-63.1c14.3-16,79.7-18.5,100.9,2.1c0,0,6.5,16.5,6.5,25.9c0,2.2-0.4,5.6-1,9.4c-0.2,1.4-0.5,2.9-0.7,4.5
					c-1.9,11.3-4.5,25.1-3.3,31.1c0.4,2.1,1.1,4.1,1.9,5.9l0,0c2.6,6.1,6.5,10.8,7.2,16.1C577.6,401.8,568.4,450.3,540.5,471.5z"/>
				<linearGradient id="SVGID_55_" gradientUnits="userSpaceOnUse" x1="444.328" y1="397.7679" x2="444.328" y2="343.2">
					<stop  offset="1.598750e-02" style="stop-color:#FFC2A9"/>
					<stop  offset="1" style="stop-color:#FF9595"/>
				</linearGradient>
				<path class="st62" d="M459.1,358.1c0,0-5.9-14.7-20.7-14.9c0,0-8.6,3.4-10,10c0,0,3.2,23.8,6.8,34.9c3.6,11.1,17,9.6,17,9.6
					S463.9,379.9,459.1,358.1z"/>
				<linearGradient id="SVGID_56_" gradientUnits="userSpaceOnUse" x1="539.1957" y1="418.4223" x2="541.485" y2="406.5025">
					<stop  offset="0" style="stop-color:#E1616A"/>
					<stop  offset="1" style="stop-color:#FF8883"/>
				</linearGradient>
				<path class="st63" d="M515.9,406.8c0,0,4.9-0.4,7,1.2s9.9,9.1,19.6,11.1c9.8,2.1,16.3-6.2,18.5-6.7c2.1-0.4,4.4,2.5,4.4,2.5
					s-0.9-3.4-6-5c0,0-2.1,7.8-16.2,5.2c-14.2-2.6-20.2-9-20.2-9l-0.7-1.3C522.2,404.8,518.2,405.7,515.9,406.8z"/>
				<linearGradient id="SVGID_57_" gradientUnits="userSpaceOnUse" x1="518.6" y1="409.296" x2="518.6" y2="290.096">
					<stop  offset="0" style="stop-color:#FFEADB"/>
					<stop  offset="0.9944" style="stop-color:#C27CB6"/>
				</linearGradient>
				<path class="st64" d="M495,333.4l0.2-1.6c0,0,14.2-24.8,42.1-25.5c27.9-0.7,34.3,16.8,34.3,16.8l5.2-7.9l-11.8-24l-82.1-1.4
					l-20,16.1l-2.5,39.5l8.9,52.1L491,409l6.2-5.4c-2.2-17.5-15.2-33.4-15.2-33.4l9.5-6.5c0,0,24.3,11.8,38.4,8.2
					c0,0,10.5-30.8,10-53.7C539.4,318.4,503.4,323.8,495,333.4z"/>
				<path class="st65" d="M493.7,335.2c0,0,1.4-8.9,16.4-12.5c16.8-4,30.5-7.3,30.5-7.3s-2.9,9.8-8.6,13.5c0,0-17.8-0.7-26.7,1.4
					C496.3,332.3,493.7,335.2,493.7,335.2z"/>
				<path class="st65" d="M571.5,323.2c0,0-8.5,6.5-14.4,22.3c0,0,5.6-7.2,10.6-7.1c3.5,0.1,2.9,3.5,2.9,3.5
					S574.3,332.5,571.5,323.2z"/>
				<linearGradient id="SVGID_58_" gradientUnits="userSpaceOnUse" x1="512.65" y1="360.4379" x2="512.65" y2="336.8134">
					<stop  offset="0" style="stop-color:#CF6074"/>
					<stop  offset="1" style="stop-color:#F37270"/>
				</linearGradient>
				<path class="st66" d="M499.4,360.4c0,0,0.9-18.8,19.3-23.6c0,0,6.6,8.5,7.2,18.2C525.9,355,516.2,353.2,499.4,360.4z"/>
				<linearGradient id="SVGID_59_" gradientUnits="userSpaceOnUse" x1="559.8714" y1="367.9373" x2="559.8714" y2="347.3715">
					<stop  offset="0" style="stop-color:#CF6074"/>
					<stop  offset="1" style="stop-color:#FF817F"/>
				</linearGradient>
				<path class="st67" d="M552.1,367.9c0,0,1.5-15,10.2-20.6c0,0,5.9,4.4,5.3,17C567.4,364.3,562.4,362.4,552.1,367.9z"/>
				<path class="st68" d="M499.4,360.4c0,0,6,7.3,22.7,8.8c0,0,3.2-4.9,2.9-14.4C525,354.8,509.6,353.4,499.4,360.4z"/>
				<path class="st68" d="M552.1,367.9v2.2c0,0,2.5,5.4,11.8,6.2c0,0,3-4.7,3.2-12.2C567.1,364.3,561.3,362.8,552.1,367.9z"/>
				<path class="st69" d="M517.3,354.4c0,0-4.2,5.2-3.9,13.3c0,0,5.6,1.3,8.7,1.5c0,0,3.7-5.1,2.9-14.4
					C525,354.8,520.1,353.9,517.3,354.4z"/>
				<path class="st69" d="M560.9,364.5c0,0-2.4,2.5-2.8,10.4c0,0,3.3,1.5,6,1.5c0,0,3.3-4.8,3.2-12.2
					C567.1,364.3,564.8,363.3,560.9,364.5z"/>
				<path class="st65" d="M515.9,368.4c0,0-1.6-10.2,4.3-14.1l4.8,0.6c0,0,1.6,8.1-2.9,14.4C522.1,369.2,517.4,368.7,515.9,368.4z"
					/>
				<path class="st65" d="M562.9,364.1c0,0-2.1,4.5-3.1,11.6c0,0,1.7,0.7,4.1,0.8c0,0,3.3-4,3.2-12.2
					C567.1,364.3,564.6,363.6,562.9,364.1z"/>
				<path class="st70" d="M499.4,360.4c0,0,11.1-6.4,30.1-2.8L526,355C525.9,355,512.5,350.8,499.4,360.4z"/>
				<path class="st70" d="M552.1,367.9c0,0,8.9-4.8,19.3-2.2l-4.3-3.2C567.1,362.5,560.1,361.5,552.1,367.9z"/>
				<path class="st8" d="M511.4,360.4c0,0,3-0.7,5.8,2.1C517.2,362.5,513.4,363.6,511.4,360.4z"/>
				<path class="st8" d="M556.2,369.2c0,0,4.8-0.9,6.3,1.3C562.6,370.4,560,372.2,556.2,369.2z"/>
				<path class="st71" d="M500.5,361.6c0,0,8.7,8.6,22.6,10.6l0.4-5.1l-1.3,2.1C522.1,369.2,508.8,368.4,500.5,361.6z"/>
				<path class="st71" d="M552.1,370.2c0,0,1.6,5.6,12.8,8l-0.4-2.7l-0.6,1C563.9,376.4,555.9,375.4,552.1,370.2z"/>
				<path class="st72" d="M529.5,392.2c0,0,4.2-0.9,11.9,0s16.4,3,21.2,0c0,0-6.3,6.3-11.8,7.2c-5.5,1-13.8-3.8-13.8-3.8l-3.6,0.1
					C533.4,395.7,530.5,394.4,529.5,392.2z"/>
				<path class="st73" d="M533.9,395.7c0,0,1.9-1.2,3.5-0.9c1.6,0.3,3.2,2.6,3.2,2.6S537.3,395.6,533.9,395.7z"/>
				<path class="st74" d="M562.6,392.2c2.1-2-8.4-20.6-13.5-21.3c-5-0.7-9.7,20.9-9.7,20.9s6.9,1,13.7,1.9
					C559.9,394.7,562.6,392.2,562.6,392.2z"/>
				<linearGradient id="SVGID_60_" gradientUnits="userSpaceOnUse" x1="561.874" y1="379.9" x2="561.874" y2="333.5904">
					<stop  offset="0" style="stop-color:#FFEADB"/>
					<stop  offset="0.9944" style="stop-color:#C27CB6"/>
				</linearGradient>
				<path class="st75" d="M570.1,333.6c-2.8-0.4-12.8,11.8-12.8,11.8s-6.3,19.7-5.1,25.5c1.3,5.9,16.7,9,16.7,9l0.7-1.1l0,0
					c-0.8-1.9-1.5-3.8-1.9-5.9c-1.3-6.1,1.4-19.8,3.3-31.1c0,0,0.6-2.3,0.7-4.5C571.6,335.5,571.3,333.7,570.1,333.6z"/>
				<linearGradient id="SVGID_61_" gradientUnits="userSpaceOnUse" x1="515.9913" y1="474.8817" x2="515.9913" y2="250.3">
					<stop  offset="0" style="stop-color:#2E33A0"/>
					<stop  offset="1" style="stop-color:#0665A5"/>
				</linearGradient>
				<path class="st76" d="M569.6,413.6c-3.2-6.6-1.3-10.2-28.9-13.8c-39.2-5.2-42.6,6.8-49.2,5c-0.2-0.1-0.5-0.2-0.8-0.3
					c-7.2-2.8-24.2-19.5-24.7-42.1c-0.5-23.4,15.2-40,15.2-40c-5.7-4.8-8-18.6-1.9-24.5c6.2-5.9,16.6-4.5,42.3-1.9
					c25.7,2.7,25.7,1.2,25.7,1.2c8.2,2.1,12.8,9.8,14.2,12.2c0.3,0.5,0.4,0.8,0.4,0.8l3.2-2.9c8.6,12.5,7,26.2,7,26.2
					s14.1-28.6,12.5-32.7c-2.9-7.5-11-18.4-11.5-19.1l0,0c0,0-2.2-21.8-9.1-21.8c-6.8,0-35.9,6.5-35.9,6.5
					c3.2-7.5,2.7-16.1,2.7-16.1s0,0-0.1,0.1c-9.5,8.5-18.7,9.5-31.9,15.5c-6.6,3.1-9.8,6-12.3,8.9l-0.9,1.1l-1,1.2
					c-0.9,1.2-1.9,2.3-2.9,3.5c0,0.1-0.1,0.1-0.1,0.1l-0.1,0.1c-1.1,1.2-2.3,2.3-3.8,3.6c-8.6,7-27.6,11.7-29.9,19.1
					c-2.2,7.4,2.8,17.6,5.6,28c2.7,10.4,1.5,19.7,1.5,19.7s9.1,11.6,6.1,28.7c-2.6,15.3-8.5,17.8-8.5,17.8
					c-4.1,8.4-2.1,16.3-2.1,16.3c8.4,33.4,43.1,53.3,43.1,53.3c30.8,11.5,51.3,6.5,51.3,6.5l0,0c22.5-14.6,30.2-63.2,30.6-65.4
					C574.6,408.9,570.5,415.4,569.6,413.6z M555.7,444.5c-5.5-0.9-6.6-14.7-8.4-16.5c-1.9-1.8-11.7-1.1-11.7-1.1
					s-9.1,10.3-12.7,10.6c-3.6,0.3-23-7.6-18.8-19.4s18.8-13.4,18.8-13.4s7.6,6.3,18.9,7.1c11.3,0.8,15.4-1.4,16.8-2
					c1.4-0.6,8.7,2.7,8.5,13C567,430.2,561.2,445.4,555.7,444.5z"/>
				<path class="st77" d="M554.4,375.1c0,0,9.8,12.2,8.9,16.7c-1,5-12.4,7.7-12.4,7.7s9.1-3.1,10.9-7.7
					C561.8,391.8,559.4,382.6,554.4,375.1z"/>
				<linearGradient id="SVGID_62_" gradientUnits="userSpaceOnUse" x1="574.9133" y1="333.4" x2="574.9133" y2="281.5628">
					<stop  offset="0" style="stop-color:#FFEADB"/>
					<stop  offset="0.9944" style="stop-color:#8860C7"/>
				</linearGradient>
				<path class="st78" d="M572.1,333.4c0,0,1.6-13.7-7-26.2c6.9-12.4,7.9-25.7,7.9-25.7l0,0c2.3,5.8,3.7,17,3.7,17l7.9,2.1
					C586.2,304.7,572.1,333.4,572.1,333.4z"/>
				<linearGradient id="SVGID_63_" gradientUnits="userSpaceOnUse" x1="504.264" y1="474.6816" x2="504.264" y2="249.9">
					<stop  offset="0" style="stop-color:#CCC2DB"/>
					<stop  offset="0.9944" style="stop-color:#8860C7"/>
				</linearGradient>
				<path class="st79" d="M561.5,309.4c-1.4-2.4-6-10.1-14.2-12.2c0,0,0,1.6-25.7-1.2c-25.7-2.7-36.1-4.1-42.3,1.9
					c-6.2,6-3.9,19.7,1.9,24.5c0,0-15.7,16.6-15.2,40c0.4,22.6,17.5,39.2,24.7,42.1l-0.3,2.5c0,0,1.3,51.5,13.9,55.6
					c12.5,4.1,38.6,2,40.9,4.4c2.3,2.3-0.3,6.2-0.6,6.6l0,0c0,0-20.3,5-51.3-6.5c0,0-34.8-19.9-43.1-53.3c0,0-2-7.9,2.1-16.3
					c0,0,5.9-2.5,8.5-17.8c3-17.1-6.1-28.7-6.1-28.7s1.3-9.3-1.5-19.7c-2.7-10.4-7.9-20.6-5.6-28c14.5,2.2,24.1-5.3,24.1-5.3
					s2.5-3.5,13.8-5.4c11.2-1.9,56.4,2.7,56.4,2.7s-4.5-3.8-14.1-6.2c-9-2.3-39.8,0.4-43.1,0.7c3.5-0.6,38.5-6.6,42.5-5.5
					c4.2,1.3,19.3,8.2,19.3,8.2c-1.4-6.9-14.9-23.6-14.9-23.6s-19.1,0.3-31.6,2.9c-11.1,2.3-17.3,7.4-18.5,8.5l2.9-3.5l1-1.2
					l0.9-1.1l4.4-0.8l22-8.9c7.3-3.9,16.8-13.7,18-14.8c0.1-0.1,0.1-0.1,0.1-0.1s0.5,8.6-2.7,16.1c18.5-2.2,24.8-1.2,24.8-1.2
					C561.2,277.1,561.5,309.4,561.5,309.4z"/>
				<linearGradient id="SVGID_64_" gradientUnits="userSpaceOnUse" x1="519.2845" y1="474.7767" x2="519.2845" y2="465.1326">
					<stop  offset="0" style="stop-color:#776D7E"/>
					<stop  offset="1" style="stop-color:#9D68C2"/>
				</linearGradient>
				<path class="st80" d="M493.2,467.3c0,0,11.3-2.7,28.5-2.1c17.1,0.7,26.9,0.8,22.7,8.5C544.5,473.7,522.9,478.6,493.2,467.3z"/>
				<linearGradient id="SVGID_65_" gradientUnits="userSpaceOnUse" x1="547.7" y1="266.349" x2="547.7" y2="259.1801">
					<stop  offset="0" style="stop-color:#1F77D1"/>
					<stop  offset="1" style="stop-color:#0686C9"/>
				</linearGradient>
				<path class="st81" d="M552.8,265.2c0,0,10.4-4.1,14.5-3.4c0,0-1.7-2.1-3.3-2.6c-1.7-0.5-35.9,7.1-35.9,7.1
					S549.4,263.8,552.8,265.2z"/>
				<linearGradient id="SVGID_66_" gradientUnits="userSpaceOnUse" x1="501.9" y1="289.9525" x2="501.9" y2="268.756">
					<stop  offset="0" style="stop-color:#1F77D1"/>
					<stop  offset="1" style="stop-color:#0686C9"/>
				</linearGradient>
				<path class="st82" d="M531.6,269.1c0,0-0.8,11.3-4.4,15.4l-42.5,5.5l-12.5-2.1c0,0,4.8-2.1,10.2-8.2
					C487.7,273.3,515.4,267.3,531.6,269.1z"/>
				<linearGradient id="SVGID_67_" gradientUnits="userSpaceOnUse" x1="578.8" y1="300.6987" x2="578.8" y2="281.5648">
					<stop  offset="0" style="stop-color:#1F77D1"/>
					<stop  offset="1" style="stop-color:#0686C9"/>
				</linearGradient>
				<path class="st83" d="M573,281.6c0,0,3.4,11.1,3.7,17.1l7.9,2.1C584.6,300.7,582.2,292.3,573,281.6z"/>
				<linearGradient id="SVGID_68_" gradientUnits="userSpaceOnUse" x1="452.3519" y1="384.796" x2="427.8773" y2="354.8115">
					<stop  offset="0" style="stop-color:#FFEADB"/>
					<stop  offset="0.9944" style="stop-color:#B060F4"/>
				</linearGradient>
				<path class="st84" d="M457.4,378.2c0,0-3-14.4-10.3-21.4c-7.3-7.1-15.6-4.8-15.6-4.8s2.2,26.6,4.7,33c2.3,6.4,6.1,8.2,6.1,8.2
					s-5.1-4.5-5.8-13.3c-0.7-8.8-0.9-21.2,1-22.6c2-1.5,9.8,4.3,9.8,4.3s-2.4,3-3.9,10.8s4,13.5,6.1,13.4s-0.1-9.1,0.2-11.6
					C449.9,371.6,454.3,372.1,457.4,378.2z"/>
				<linearGradient id="SVGID_69_" gradientUnits="userSpaceOnUse" x1="454.9116" y1="380.9678" x2="442.8782" y2="366.2254">
					<stop  offset="0" style="stop-color:#FFEADB"/>
					<stop  offset="0.9944" style="stop-color:#B060F4"/>
				</linearGradient>
				<path class="st85" d="M450.1,360.4c0,0-8,5.3-7.1,16s7,10.3,7,8s-1.2-8.1-0.6-11.3c0.6-3.3,6-1.8,6-1.8S451.8,362.7,450.1,360.4
					z"/>
				<path class="st86" d="M575,408.3c0,0-10,45.3-30.6,65.4C544.5,473.7,567.9,464.5,575,408.3z"/>
				<path class="st86" d="M563.9,259.2c0,0,5.3,4.1,6.2,18.3s-5.2,29.9-5.2,29.9s7.9-11.7,8.6-24.6
					C574.5,269.8,568.1,260.8,563.9,259.2z"/>
			</g>
			<linearGradient id="SVGID_70_" gradientUnits="userSpaceOnUse" x1="500.6" y1="291.881" x2="542" y2="291.881">
				<stop  offset="0" style="stop-color:#1F77D1"/>
				<stop  offset="1" style="stop-color:#0686C9"/>
			</linearGradient>
			<path class="st87" d="M500.6,288.8c0,0,12.1,4.1,25.4,5.3c13.3,1.2,16,1.5,16,1.5s-5.4-5.2-16.7-6.7
				C513.8,287.3,500.6,288.8,500.6,288.8z"/>
			<linearGradient id="SVGID_71_" gradientUnits="userSpaceOnUse" x1="558.9774" y1="415.619" x2="571.5397" y2="415.619">
				<stop  offset="0" style="stop-color:#1F77D1"/>
				<stop  offset="1" style="stop-color:#0686C9"/>
			</linearGradient>
			<path class="st88" d="M559.1,409.3c0,0,5.8,0,8.1,7.2c1.9,5.8,2.3,10.8,2.3,10.8l2.1-8c0,0-2.6-10.1-5.5-12.4
				c-2-1.7-5.5-3.3-7.1-2.9L559.1,409.3z"/>
			<linearGradient id="SVGID_72_" gradientUnits="userSpaceOnUse" x1="543.4678" y1="406.3358" x2="557.0171" y2="406.3358">
				<stop  offset="0" style="stop-color:#1F77D1"/>
				<stop  offset="1" style="stop-color:#0686C9"/>
			</linearGradient>
			<path class="st89" d="M543.5,402l1,8.6c0,0,7,0.6,11.7-1.4l0.9-5.3C557,404,548,401.8,543.5,402z"/>
			<path class="st86" d="M575.6,513.7c0,0,41.3,30.2,46.7,40.6c5.4,10.3,7.5,43,14.7,57c0,0-5-23-8.4-41.1
				c-3.5-18.1-2.6-18.4-4.6-22.7C622.2,542.9,591.4,521.5,575.6,513.7z"/>
			<path class="st86" d="M568.3,681.7c0,0-19.9,85.2-19,91s13.8,17.5,14.4,20.7c0,0-9.9,13.2-9.4,16.1c0.5,2.9,17.3,21.4,16.8,27.1
				c-0.1,1.7-11,19.6-11,19.6s12.3-17.7,12.9-20.5s-15.1-26.5-15.5-28.9c-1.2-6.2,7.8-10.7,8.1-14.8s-12.2-14.1-12.3-20.8
				C553.1,764.6,568.3,681.7,568.3,681.7z"/>
			<path class="st86" d="M572.3,884.9c0,0,43.1,97.4,57.7,195C630.1,1079.9,627.6,984.7,572.3,884.9z"/>
			<path class="st74" d="M299.4,494c0,0-11.1-2.3-15.7-12.1c-4.6-9.8-1.6-23.8-1.6-23.8s8.7,16.7,13.1,22.5
				C299.4,486.3,300.5,492.9,299.4,494z"/>
		</g>
	</g>
</g>
<g>
	<path class="st90" d="M643.1,443.3l7.7,220.2c0.3,8.7,7.5,15.6,16.2,15.6h379.4c8.8,0,16-7,16.2-15.8l5.3-222.8
		c0.2-9.2-7.1-16.7-16.3-16.6l-392.3,2.5C650,426.5,642.8,434.1,643.1,443.3z"/>
	<g>
		<path class="st91" d="M1046.4,679.7H667c-9.1,0-16.5-7.1-16.8-16.2l-7.7-220.2c-0.2-4.6,1.5-8.9,4.7-12.2c3.2-3.3,7.4-5.2,12-5.2
			l392.3-2.5c4.6,0,8.9,1.8,12.1,5.1s5,7.6,4.8,12.2l-5.3,222.8C1063,672.5,1055.5,679.7,1046.4,679.7z M1051.6,424.4L1051.6,424.4
			L659.2,427c-4.3,0-8.2,1.8-11.1,4.8c-2.9,3-4.5,7.1-4.3,11.3l7.7,220.2c0.3,8.5,7.1,15,15.6,15h379.4c8.4,0,15.4-6.8,15.6-15.2
			l5.3-222.8c0.1-4.3-1.5-8.3-4.5-11.3C1059.8,426.1,1055.8,424.4,1051.6,424.4z"/>
	</g>
	<linearGradient id="SVGID_73_" gradientUnits="userSpaceOnUse" x1="643.6954" y1="439.2996" x2="1068.231" y2="439.2996">
		<stop  offset="0" style="stop-color:#9D68C2"/>
		<stop  offset="1" style="stop-color:#AEC2FF"/>
	</linearGradient>
	<path class="st92" d="M643.7,454.5h423.8l0.7-11.6c0.6-10.3-7.6-18.9-17.9-18.8l-392.1,3.1c-8.2,0.1-14.7,6.8-14.5,15L643.7,454.5z
		"/>
	<linearGradient id="SVGID_74_" gradientUnits="userSpaceOnUse" x1="729.85" y1="599.7" x2="729.85" y2="471.6">
		<stop  offset="0" style="stop-color:#CCEDFF"/>
		<stop  offset="1" style="stop-color:#9D68C2"/>
	</linearGradient>
	<polygon class="st93" points="665,472.3 665,599.7 794.7,599.7 794.7,471.6 	"/>
	<linearGradient id="SVGID_75_" gradientUnits="userSpaceOnUse" x1="948.2" y1="537.2" x2="948.2" y2="480.8">
		<stop  offset="0" style="stop-color:#CCEDFF"/>
		<stop  offset="1" style="stop-color:#9D68C2"/>
	</linearGradient>
	<rect x="920" y="480.8" class="st94" width="56.4" height="56.4"/>
	<linearGradient id="SVGID_76_" gradientUnits="userSpaceOnUse" x1="1014.8" y1="537.2" x2="1014.8" y2="480.8">
		<stop  offset="0" style="stop-color:#CCEDFF"/>
		<stop  offset="1" style="stop-color:#9D68C2"/>
	</linearGradient>
	<rect x="986.6" y="480.8" class="st95" width="56.4" height="56.4"/>
	<linearGradient id="SVGID_77_" gradientUnits="userSpaceOnUse" x1="880.5" y1="537.2" x2="880.5" y2="480.8">
		<stop  offset="0" style="stop-color:#CCEDFF"/>
		<stop  offset="1" style="stop-color:#9D68C2"/>
	</linearGradient>
	<rect x="852.3" y="480.8" class="st96" width="56.4" height="56.4"/>
	<rect x="898.8" y="570.1" class="st97" width="144.3" height="13.5"/>
	<rect x="862.6" y="590.7" class="st97" width="180.4" height="4.2"/>
	<rect x="864.3" y="544.4" class="st97" width="34.5" height="4.2"/>
	<rect x="931" y="544.4" class="st97" width="34.5" height="4.2"/>
	<rect x="997.6" y="544.4" class="st97" width="34.5" height="4.2"/>
	<rect x="852.3" y="597.4" class="st97" width="58" height="4.2"/>
	<rect x="862.6" y="604.2" class="st97" width="180.4" height="4.2"/>
	<rect x="852.3" y="610.9" class="st97" width="190.7" height="4.2"/>
	<rect x="852.3" y="617.6" class="st97" width="190.7" height="4.2"/>
	<rect x="862.6" y="644.8" class="st97" width="180.4" height="4.2"/>
	<rect x="852.3" y="651.5" class="st97" width="190.7" height="4.2"/>
	<rect x="852.3" y="658.2" class="st97" width="190.7" height="4.2"/>
	<rect x="852.3" y="624.4" class="st97" width="183" height="4.2"/>
	<rect x="862.6" y="631.1" class="st97" width="180.4" height="4.2"/>
	<rect x="852.3" y="637.7" class="st97" width="154.5" height="4.2"/>
	<g>
		<path class="st98" d="M701.3,574.1c-20.3,0-36.9-16.6-36.9-36.9s16.6-36.9,36.9-36.9s36.9,16.6,36.9,36.9
			C738.2,557.6,721.7,574.1,701.3,574.1z M701.3,502.7c-19,0-34.5,15.5-34.5,34.5s15.5,34.5,34.5,34.5s34.5-15.5,34.5-34.5
			C735.8,518.1,720.3,502.7,701.3,502.7z"/>
	</g>
	<circle class="st8" cx="701.3" cy="537.2" r="20"/>
	<g>
		<path class="st98" d="M794.7,508.5c-20.3,0-36.9-16.6-36.9-36.9s16.6-36.9,36.9-36.9s36.9,16.6,36.9,36.9
			C831.6,491.9,815,508.5,794.7,508.5z M794.7,437c-19,0-34.5,15.5-34.5,34.5s15.5,34.5,34.5,34.5s34.5-15.5,34.5-34.5
			S813.7,437,794.7,437z"/>
	</g>
	<ellipse class="st8" cx="794.7" cy="471.5" rx="18.8" ry="18.8"/>
	<g>
		<polygon class="st8" points="658.5,437.1 661.2,433.1 675.8,445.8 673.5,448.9 		"/>
		<polygon class="st8" points="676.2,437.1 673.5,433.1 658.9,445.8 661.1,448.9 		"/>
	</g>
	<rect x="926.6" y="435.9" class="st8" width="130.6" height="6.5"/>
</g>
<g>
	<linearGradient id="SVGID_78_" gradientUnits="userSpaceOnUse" x1="273.7" y1="398.6" x2="273.7" y2="339.5">
		<stop  offset="0" style="stop-color:#D93DE3"/>
		<stop  offset="1" style="stop-color:#FF6DBA"/>
	</linearGradient>
	<polygon class="st99" points="239.3,341.4 239.3,398 307.2,398.6 308.1,339.5 	"/>
	<linearGradient id="SVGID_79_" gradientUnits="userSpaceOnUse" x1="309.8" y1="398.6" x2="309.8" y2="339.5">
		<stop  offset="0" style="stop-color:#A242EA"/>
		<stop  offset="1" style="stop-color:#FE117E"/>
	</linearGradient>
	<polygon class="st100" points="308.1,339.5 312.4,346.9 310.3,398.5 307.2,398.6 	"/>
	<polygon class="st8" points="251.4,360.5 257.7,351.3 291.6,379.7 286.4,386.7 	"/>
	<polygon class="st8" points="292.4,360.5 286.2,351.3 252.3,379.7 257.5,386.7 	"/>
</g>
<g>
	<linearGradient id="SVGID_80_" gradientUnits="userSpaceOnUse" x1="263.4204" y1="1020.7496" x2="295.3557" y2="766.4786">
		<stop  offset="0" style="stop-color:#067EFF"/>
		<stop  offset="1" style="stop-color:#3E37A0"/>
	</linearGradient>
	<path class="st101" d="M397.5,1008.3h-232c-10.3,0-18.7-8.2-19-18.5l-4.3-190.3c-0.2-10.6,8.3-19.4,19-19.4h241.4
		c10.7,0,19.3,8.8,19,19.5l-5.2,190.3C416.2,1000.1,407.7,1008.3,397.5,1008.3z"/>
	<g>
		<path class="st102" d="M397.5,1008.9h-232c-10.5,0-19.3-8.6-19.6-19.1l-4.3-190.3c-0.1-5.3,1.9-10.3,5.6-14.2
			c3.7-3.8,8.7-5.9,14.1-5.9h241.4c5.4,0,10.3,2.1,14.1,6c3.7,3.8,5.7,8.9,5.6,14.2l-5.2,190.3
			C416.8,1000.5,408.2,1008.9,397.5,1008.9z M161.2,780.7c-5,0-9.7,2-13.2,5.6s-5.4,8.3-5.3,13.3l4.3,190.3c0.2,10,8.5,18,18.4,18
			h231.9c10.1,0,18.2-7.9,18.4-17.9l5.2-190.3c0.1-5-1.8-9.8-5.2-13.4c-3.5-3.6-8.2-5.6-13.2-5.6L161.2,780.7L161.2,780.7z"/>
	</g>
	<g>
		<rect x="204.8" y="819" class="st8" width="121.9" height="5.2"/>
		<rect x="204.8" y="831.7" class="st8" width="61" height="5.2"/>
		<rect x="204.8" y="842.3" class="st8" width="61" height="5.2"/>
		<rect x="272.6" y="842.3" class="st8" width="48.5" height="5.2"/>
		<rect x="204.8" y="852.9" class="st8" width="98.3" height="5.2"/>
		<rect x="204.8" y="863.5" class="st8" width="34.9" height="5.2"/>
		<rect x="246.9" y="895.4" class="st8" width="60.5" height="5.2"/>
		<rect x="204.8" y="874.1" class="st8" width="109.7" height="5.2"/>
		<rect x="204.8" y="884.7" class="st8" width="84.3" height="5.2"/>
		<rect x="204.8" y="895.4" class="st8" width="39.7" height="5.2"/>
		<rect x="204.8" y="905.9" class="st8" width="61" height="5.2"/>
		<rect x="204.8" y="916.5" class="st8" width="17.5" height="5.2"/>
		<rect x="229.5" y="916.5" class="st8" width="63.5" height="5.2"/>
		<rect x="246.9" y="926.8" class="st8" width="60.5" height="5.2"/>
		<rect x="204.8" y="926.8" class="st8" width="39.7" height="5.2"/>
		<rect x="204.8" y="937.4" class="st8" width="61" height="5.2"/>
		<rect x="204.8" y="948.1" class="st8" width="17.5" height="5.2"/>
		<rect x="229.5" y="948.1" class="st8" width="63.5" height="5.2"/>
	</g>
</g>
<linearGradient id="SVGID_81_" gradientUnits="userSpaceOnUse" x1="1009.1" y1="392.1" x2="1009.1" y2="370.6622">
	<stop  offset="0" style="stop-color:#459FFF"/>
	<stop  offset="1" style="stop-color:#A96DFF"/>
</linearGradient>
<path class="st103" d="M1019.8,381.4c0,6-4.8,10.7-10.7,10.7c-6,0-10.7-4.8-10.7-10.7c0-6,4.8-10.7,10.7-10.7
	C1015,370.7,1019.8,375.5,1019.8,381.4z"/>
<linearGradient id="SVGID_82_" gradientUnits="userSpaceOnUse" x1="67.8" y1="398.9531" x2="67.8" y2="372.2715">
	<stop  offset="0" style="stop-color:#459FFF"/>
	<stop  offset="1" style="stop-color:#A96DFF"/>
</linearGradient>
<path class="st104" d="M81.2,385.6c0,7.3-6,13.4-13.4,13.4c-7.3,0-13.4-6-13.4-13.4c0-7.3,6-13.4,13.4-13.4
	C75.2,372.3,81.2,378.2,81.2,385.6z"/>
<linearGradient id="SVGID_83_" gradientUnits="userSpaceOnUse" x1="1040.6" y1="392.1" x2="1040.6" y2="370.6622">
	<stop  offset="0" style="stop-color:#B31A8F"/>
	<stop  offset="1" style="stop-color:#FE117E"/>
</linearGradient>
<circle class="st105" cx="1040.6" cy="381.4" r="10.7"/>
<linearGradient id="SVGID_84_" gradientUnits="userSpaceOnUse" x1="857.1" y1="797.1687" x2="857.1" y2="782.0098">
	<stop  offset="0" style="stop-color:#8642A0"/>
	<stop  offset="1" style="stop-color:#6456C0"/>
</linearGradient>
<circle class="st106" cx="857.1" cy="789.6" r="7.6"/>
<linearGradient id="SVGID_85_" gradientUnits="userSpaceOnUse" x1="69" y1="871.9305" x2="69" y2="858.3787">
	<stop  offset="0" style="stop-color:#8642A0"/>
	<stop  offset="1" style="stop-color:#6456C0"/>
</linearGradient>
<circle class="st107" cx="69" cy="865.2" r="6.7"/>
<g>
	<linearGradient id="SVGID_86_" gradientUnits="userSpaceOnUse" x1="126.0041" y1="799.7534" x2="126.0041" y2="685.4459">
		<stop  offset="0" style="stop-color:#D906E3"/>
		<stop  offset="1" style="stop-color:#FF6DF9"/>
	</linearGradient>
	<path class="st108" d="M184.6,798.6c-150.5-6.7-132.8,34.1-137.1-93.9c-0.3-9.9,7.6-18.1,17.5-18.1c155.5,6.8,141.4-34.5,137.2,95
		C201.7,791.1,193.9,798.6,184.6,798.6z"/>
	<g>
		<path class="st109" d="M184.6,799.2h-117c-9.8,0-17.8-7.7-18.1-17.5c1.6-10.3-8.1-83.9,2.5-90.2c1.3-10.9,127.4-3.4,135-5.5
			c10-0.1,18.6,8.7,18.1,18.7c0,0-2.3,77-2.3,77C202.3,791.5,194.3,799.2,184.6,799.2z M64.9,687.3c-9.2-0.2-17.4,8.2-16.8,17.5
			c0,0,2.6,77,2.6,77c0.3,9.2,7.7,16.3,16.9,16.3h117c9.2,0,16.6-7.2,16.9-16.4C206,652.2,219,694.2,64.9,687.3L64.9,687.3z"/>
	</g>
	<g>
		<polygon class="st8" points="98.7,714.4 69.9,747.9 99.2,772.7 99.2,759.9 82.3,745.1 98,727.4 		"/>
	</g>
	<g>
		<polygon class="st8" points="149.4,715.8 178.3,749.3 148.9,774.3 148.9,761.4 165.9,746.7 147,726.7 		"/>
	</g>
	<g>
		<polygon class="st8" points="105,772.7 130.1,717.4 141.9,717.4 113.5,772.7 		"/>
	</g>
</g>
<g>
	<linearGradient id="SVGID_87_" gradientUnits="userSpaceOnUse" x1="898.7" y1="957.1" x2="898.7" y2="817">
		<stop  offset="0" style="stop-color:#D906E3"/>
		<stop  offset="1" style="stop-color:#FF6DF9"/>
	</linearGradient>
	<path class="st110" d="M972.1,957.1H825.6c-11.8,0-21.5-9.4-21.9-21.1l-3.2-96.4c-0.4-12.4,9.5-22.6,21.9-22.6H975
		c12.3,0,22.3,10.2,21.9,22.6L994,936C993.6,947.7,983.9,957.1,972.1,957.1z"/>
	<g>
		<path class="st109" d="M972.1,957.6H825.6c-12.2,0-22.1-9.6-22.5-21.7l-3.2-96.4c-0.2-6.2,2.1-11.9,6.3-16.4
			c4.3-4.4,10-6.8,16.1-6.8H975c6.2,0,11.8,2.4,16.1,6.8c4.3,4.4,6.5,10.2,6.3,16.3l-2.9,96.4C994.1,948.1,984.3,957.6,972.1,957.6z
			 M822.4,817.7c-5.9,0-11.2,2.3-15.3,6.4c-4,4.2-6.2,9.7-6,15.5l3.2,96.4c0.4,11.5,9.8,20.5,21.3,20.5H972
			c11.5,0,20.9-9.1,21.3-20.6l2.9-96.4c0.2-5.8-2-11.3-6-15.4c-4-4.2-9.5-6.4-15.2-6.4H822.4L822.4,817.7z"/>
	</g>
	<rect x="829.9" y="832.6" class="st97" width="134.1" height="79.7"/>
	<polygon class="st8" points="885.1,852.3 885.1,892.4 919.4,870.6 	"/>
	<rect x="829.9" y="926.9" class="st97" width="134.1" height="7.3"/>
	<rect x="829.9" y="926.9" class="st8" width="34.8" height="7.3"/>
</g>
<g>
	<g>
		
			<linearGradient id="SVGID_88_" gradientUnits="userSpaceOnUse" x1="793.423" y1="805.506" x2="781.4872" y2="703.0604" gradientTransform="matrix(0.9656 0.26 -0.26 0.9656 160.2893 -105.385)">
			<stop  offset="0" style="stop-color:#1852A0"/>
			<stop  offset="1" style="stop-color:#067ED3"/>
		</linearGradient>
		<path class="st111" d="M731.6,807.4l-7,20C728.5,816.3,734.1,809.2,731.6,807.4z M724.7,827.4l-7,20
			C719.4,846.8,720.8,838.4,724.7,827.4z M731.6,807.4l-7,20C728.5,816.3,734.1,809.2,731.6,807.4z M724.7,827.4l-7,20
			C719.4,846.8,720.8,838.4,724.7,827.4z M744.9,844.7l6.8,3.8l7.3-20l-7.9-1.3c0.1-0.8,0.3-1.5,0.4-2.2c0.6-3.4,0.8-6.8,0.7-10
			l8.2-5.2l-3.7-17.7l-7.9,7.5c-1.1-2.2-2.4-4.2-4-5.9c-0.4-0.5-0.9-0.9-1.4-1.4l4.8-11.1l-12.8-4.2l0,0l-3.1,11.2
			c-2.8,0-5.8,0.7-8.7,2.1l-1.4-10.6L708,790.4l3.2,9.4c-2.5,2.9-4.9,6.2-6.9,10.1l-6.8-3.8l-7.3,20l7.9,1.3
			c-0.9,4.2-1.2,8.3-1.1,12.2l-8.2,5.2l3.7,17.7l7.9-7.5c1.4,2.9,3.2,5.3,5.4,7.2l-4.8,11.1l12.6,4.9l2-7.1l1.4-4.9
			c2.8,0,5.8-0.7,8.7-2l1.4,10.6l14.2-10.7l-3.2-9.4c2-2.2,3.9-4.9,5.6-7.7C744,846.4,744.4,845.6,744.9,844.7z M724.7,827.4
			c-3.9,11,0,22.5-7,20c-7-2.4-9.6-13.5-5.8-24.5c3.9-11,12.7-18.1,19.7-15.6C738.7,809.8,728.5,816.3,724.7,827.4z M731.6,807.4
			l-7,20C728.5,816.3,734.1,809.2,731.6,807.4z M724.7,827.4l-7,20C719.4,846.8,720.8,838.4,724.7,827.4z"/>
	</g>
	
		<linearGradient id="SVGID_89_" gradientUnits="userSpaceOnUse" x1="781.7601" y1="805.9398" x2="781.7601" y2="701.0775" gradientTransform="matrix(0.9656 0.26 -0.26 0.9656 160.2893 -105.385)">
		<stop  offset="0" style="stop-color:#1852A0"/>
		<stop  offset="1" style="stop-color:#067ED3"/>
	</linearGradient>
	<path class="st112" d="M751.6,848.6l7.3-20l-7.5-3.5l-1.2-0.6l0.8-11l8.3-4.1l-2.7-17.2l-18.1-5.9l3.3,7.9l6.3-12.9l-12.8-4.2
		l-5.3-1.8l-12.7-4.9L715,779l-11-5.3l-14.2,10.7l4.3,11.5l-13.2,36.6l-6.5,23.8l12.5,1.4l-4.1,9.5l12.7,4.9l18.1,5.9l-2.9-5.9
		l-1.9-3.5l6.7,2.1l11.4,3.7l14.2-10.7l-8.7-10.3l11-6.8L751.6,848.6z M711.9,822.9c3.9-11,12.7-18.1,19.7-15.6l-7,20l-7,20
		C710.6,845,708,834,711.9,822.9z"/>
	<g>
		
			<linearGradient id="SVGID_90_" gradientUnits="userSpaceOnUse" x1="750.132" y1="743.5118" x2="742.4159" y2="677.2842" gradientTransform="matrix(0.9438 0.3306 -0.5202 1.4851 371.6919 -480.1923)">
			<stop  offset="0" style="stop-color:#188DC1"/>
			<stop  offset="1" style="stop-color:#06BFE7"/>
		</linearGradient>
		<path class="st113" d="M733.6,842.6l7.3-20l-7.9-1.3c0.8-4.2,1.2-8.3,1.1-12.2l8.2-5.2l-3.7-17.7l-7.9,7.5
			c-1.4-2.9-3.2-5.4-5.4-7.2l4.8-11.1l-12.6-4.9l-3.3,12c-2.8,0-5.8,0.7-8.7,2.1l-1.4-10.6l-14.2,10.6l3.2,9.4
			c-2.5,2.9-4.9,6.2-6.9,10.1l-6.8-3.8l-7.3,20l7.9,1.3c-0.8,4.2-1.2,8.3-1.1,12.2l-8.2,5.2l3.7,17.7l7.9-7.5
			c1.4,2.9,3.2,5.4,5.4,7.2l-4.8,11.1l12.6,4.9l3.3-12c2.8,0,5.8-0.7,8.7-2.1l1.4,10.5l14.2-10.6l-3.2-9.4c2.5-2.9,4.9-6.2,6.9-10.1
			L733.6,842.6z M699.5,841.5c-7-2.4-9.6-13.4-5.7-24.5c3.9-11,12.7-18.1,19.7-15.5c7,2.4,9.6,13.4,5.7,24.5
			C715.4,837,706.5,844,699.5,841.5z"/>
	</g>
	<polygon class="st114" points="760.4,809.8 742.3,804 734.1,809.2 752.1,815 	"/>
	<polygon class="st115" points="741.2,864.2 723.1,858.3 719.8,848.9 738,854.7 	"/>
	<polygon class="st114" points="725.3,786.7 735.2,789.5 738.6,786.3 745.1,788.5 748.2,781.4 730.1,775.6 	"/>
	<path class="st114" d="M698.9,860.4l9.5,3.9l-0.8-6C707.6,858.4,702.5,861.1,698.9,860.4z"/>
	<path class="st114" d="M700.4,806.1l16,8.4c0,0,2.3-3.1,4.1-4.4C720.4,810.2,716.3,792.7,700.4,806.1z"/>
</g>
<polygon class="st116" points="333.9,209 349.3,239.8 339.1,244.5 324.6,216.2 "/>
<polygon class="st117" points="509.3,121.8 523.5,137.4 529.1,130.9 515.6,116.1 "/>
<polygon class="st118" points="711.3,358.1 697,367.3 691.2,355.7 706.9,346 "/>
<polygon class="st118" points="782,941.9 761.4,957.2 755.6,945.7 775.7,933.6 "/>
<g>
	<linearGradient id="SVGID_91_" gradientUnits="userSpaceOnUse" x1="742.3669" y1="178.4202" x2="770.5078" y2="73.9102">
		<stop  offset="0" style="stop-color:#188DC1"/>
		<stop  offset="1" style="stop-color:#06BFE7"/>
	</linearGradient>
	<polygon class="st119" points="708.9,169.4 705.5,84.9 811.3,84.9 806.9,169.2 	"/>
	<linearGradient id="SVGID_92_" gradientUnits="userSpaceOnUse" x1="695.6019" y1="166.7435" x2="716.8204" y2="87.9423">
		<stop  offset="0" style="stop-color:#1852A0"/>
		<stop  offset="1" style="stop-color:#067ED3"/>
	</linearGradient>
	<polygon class="st120" points="705.5,84.9 702.3,89.8 705.5,169.4 708.9,169.4 	"/>
	<polygon class="st8" points="740.6,101.8 724,99.9 726.3,157.9 740.6,156.4 740.6,150.3 732.3,150.6 731.4,105.9 740.6,106.3 	"/>
	<polygon class="st8" points="774.5,101.8 791.1,99.9 788.9,157.9 774.5,156.4 774.5,150.3 782.8,150.6 783.8,105.9 774.5,106.3 	
		"/>
</g>
<g>
	
		<linearGradient id="SVGID_93_" gradientUnits="userSpaceOnUse" x1="527.3557" y1="246.9717" x2="546.555" y2="175.6691" gradientTransform="matrix(-1 0 0 1 686.6559 0)">
		<stop  offset="0" style="stop-color:#188DC1"/>
		<stop  offset="1" style="stop-color:#06BFE7"/>
	</linearGradient>
	<polygon class="st121" points="182.1,240.8 184.4,183.1 112.4,183.1 115.3,240.6 	"/>
	
		<linearGradient id="SVGID_94_" gradientUnits="userSpaceOnUse" x1="495.4795" y1="239.0079" x2="509.9669" y2="185.2043" gradientTransform="matrix(-1 0 0 1 686.6559 0)">
		<stop  offset="0" style="stop-color:#1852A0"/>
		<stop  offset="1" style="stop-color:#067ED3"/>
	</linearGradient>
	<polygon class="st122" points="184.4,183.1 186.6,186.5 184.4,240.8 182.1,240.8 	"/>
	<path class="st8" d="M156.6,194.6c0,0,7.9-0.3,9.3,0.3c1.4,0.7-0.4,14.1-0.4,14.1l3.1,3l-2.9,2.9c0,0,0.2,13.7-1.7,14.9
		s-8.2,0-8.2,0v-3.4c0,0,5.2,0.3,6.1-0.4c0.9-0.7,0.8-12.7,0.8-12.7l1.4-1.7l-1.4-1.8c0,0,0.3-8.5,0.1-10.8
		c-0.1-1.6-6.2-1.7-6.2-1.7L156.6,194.6L156.6,194.6z"/>
	<path class="st8" d="M138.5,194.6c0,0-7.9-0.3-9.3,0.3c-1.4,0.7,0.4,14.1,0.4,14.1l-3.1,3l2.9,2.9c0,0-0.2,13.7,1.7,14.9
		s8.2,0,8.2,0v-3.4c0,0-5.2,0.3-6.1-0.4c-0.9-0.7-0.8-12.7-0.8-12.7l-1.4-1.7l1.4-1.8c0,0-0.3-8.5-0.1-10.8c0.1-1.6,6.2-1.7,6.2-1.7
		L138.5,194.6L138.5,194.6z"/>
</g>
<g>
	<g>
		<path class="st91" d="M634,282l-17.7-49.1l45.8,10.2L634,282z M618.2,234.5l16.1,44.9l25.7-35.6L618.2,234.5z"/>
	</g>
	<g>
		<polygon class="st91" points="759.5,978.4 775,955.8 776,956.6 760.4,979.1 		"/>
	</g>
	<g>
		<polygon class="st91" points="614.9,771.4 598.3,749.4 599.2,748.7 615.9,770.7 		"/>
	</g>
	<g>
		<polygon class="st91" points="100.8,926.4 67.5,900.8 68.2,899.7 101.5,925.3 		"/>
	</g>
	<g>
		<polygon class="st91" points="71.7,930.1 96.6,895.4 97.5,896.1 72.6,930.9 		"/>
	</g>
	<g>
		<polygon class="st91" points="25.5,538 26.1,536.8 47.6,548.9 47,550 		"/>
	</g>
	<g>
		<polygon class="st91" points="874.3,241.3 873.4,240.5 898.3,210.3 899.2,211.1 		"/>
	</g>
	<g>
		<polygon class="st91" points="389.9,314.8 390.9,314.2 402.1,338.1 401,338.6 		"/>
	</g>
	<g>
		<polygon class="st91" points="214,739.9 242.6,714.4 243.4,715.4 214.7,740.9 		"/>
	</g>
</g>
</svg>
