<?xml version="1.0" encoding="utf-8"?>
<!-- Generator: Adobe Illustrator 24.2.3, SVG Export Plug-In . SVG Version: 6.00 Build 0)  -->
<svg version="1.1" id="Capa_1" xmlns="http://www.w3.org/2000/svg" xmlns:xlink="http://www.w3.org/1999/xlink" x="0px" y="0px"
	 viewBox="0 0 250 250" style="enable-background:new 0 0 250 250;" xml:space="preserve">
<style type="text/css">
	.st0{fill:#0066CC;}
	.st1{fill:#006600;}
</style>
<g>
	<path class="st0" d="M50,80.4c1-1.5,1.8-3,3-4.3C69.3,59.6,87.8,46.5,109.5,38c14.8-5.8,30.2-8.4,46.1-6.9
		c12.5,1.3,24.3,4.9,35.6,10.2c18.6,8.7,34.9,20.8,49.2,35.5c3.3,3.4,3.3,6.3,0,9.6c-16.4,16.8-35.2,30.1-57,38.7
		c-14.8,5.8-30.2,8.4-46.1,6.9c-12.5-1.3-24.3-4.9-35.6-10.2c-18.4-8.6-34.6-20.4-48.7-34.9c-1.2-1.2-2-2.8-3-4.3
		C50,81.9,50,81.1,50,80.4z M146.4,42c-21.8,0-39.5,17.9-39.5,39.6s17.9,39.5,39.6,39.5S186,103.3,186,81.5
		C186,59.7,168.2,41.9,146.4,42z"/>
	<path class="st0" d="M158.9,56.5c-7.3,8.5-8.6,14.8-4.6,21.9c3.8,6.9,10.1,9.4,19.7,8.1c0.3,8.3-9.3,19.1-19.6,22.1
		c-12.3,3.6-25.6-1.7-32.2-13c-6.4-10.9-4.6-25,4.4-34.1C135.2,52.8,149.1,50.7,158.9,56.5z"/>
</g>
<g>
	
		<image style="overflow:visible;enable-background:new    ;" width="199" height="199" xlink:href="36942921.png"  transform="matrix(1 0 0 1 -29 69)">
	</image>
</g>
<g>
	<path class="st1" d="M53.1,214.8c-0.3-0.2-0.6-0.4-0.9-0.6c-1.1-0.9-1.4-2.1-0.7-3.7c3.1-7.3,6.3-14.7,9.4-22
		c1.5-3.6,3.1-7.2,4.6-10.8c0.1-0.3,0.3-0.7,0.4-1.1c-0.4,0-0.7,0-1.1,0c-7.1,0-14.2,0-21.3,0c-2.6,0-3.8-1.6-2.9-4.1
		c5.3-16,10.6-32,15.9-48c0.6-1.8,1.4-2.4,3.3-2.4c10.5,0,21,0,31.6,0c2.8,0,4,2.1,2.6,4.5c-6.2,10.8-12.3,21.7-18.5,32.5
		c-0.2,0.3-0.4,0.7-0.7,1.2c0.4,0,0.7,0,1,0c7,0,14,0,21,0c1.3,0,2.3,0.4,2.9,1.6c0.6,1.3,0.1,2.3-0.8,3.3c-2.7,3.1-5.5,6.2-8.2,9.3
		c-11.4,12.9-22.9,25.8-34.3,38.7c-0.6,0.6-1.3,1-2,1.6C54,214.8,53.5,214.8,53.1,214.8z"/>
</g>
</svg>
