<?xml version="1.0" encoding="UTF-8" standalone="no"?>
<svg
   width="546"
   height="465"
   fill="none"
   viewBox="0 0 546 465"
   version="1.1"
   id="svg2943"
   sodipodi:docname="problems_1.svg"
   inkscape:version="1.1.2 (b8e25be833, 2022-02-05)"
   inkscape:export-filename="E:\cole\- SOFTWARE\- TFG\tfg\src\img\problems_1.png"
   inkscape:export-xdpi="363.828"
   inkscape:export-ydpi="363.828"
   xmlns:inkscape="http://www.inkscape.org/namespaces/inkscape"
   xmlns:sodipodi="http://sodipodi.sourceforge.net/DTD/sodipodi-0.dtd"
   xmlns:xlink="http://www.w3.org/1999/xlink"
   xmlns="http://www.w3.org/2000/svg"
   xmlns:svg="http://www.w3.org/2000/svg">
  <sodipodi:namedview
     id="namedview2945"
     pagecolor="#505050"
     bordercolor="#eeeeee"
     borderopacity="1"
     inkscape:pageshadow="0"
     inkscape:pageopacity="0"
     inkscape:pagecheckerboard="0"
     showgrid="false"
     inkscape:zoom="1.2606269"
     inkscape:cx="261.77451"
     inkscape:cy="218.93868"
     inkscape:window-width="1600"
     inkscape:window-height="837"
     inkscape:window-x="-1608"
     inkscape:window-y="159"
     inkscape:window-maximized="1"
     inkscape:current-layer="svg2943" />
  <g
     filter="url(#filter0_d)"
     id="g2564">
    <path
       fill-rule="evenodd"
       clip-rule="evenodd"
       d="M0 304.403c-.042 5.243 3.403 10.494 10.337 14.495l237.705 137.137c13.783 7.953 36.132 7.953 49.915 0l237.704-137.137c6.934-4.001 10.38-9.252 10.337-14.495H546v-14.432h-10.564L297.957 152.964c-13.783-7.952-36.132-7.952-49.915 0L10.563 289.971H0v14.432z"
       fill="url(#paint0_linear)"
       id="path2562" />
  </g>
  <path
     d="M410.043 212.085l42.296-23.963c4.57-2.56 4.62-9.132.089-11.761l-66.688-38.689"
     stroke="#D100EF"
     stroke-width="2.7"
     stroke-linecap="round"
     id="path2566"
     style="stroke:#3333ff;stroke-opacity:1" />
  <path
     d="M395.191 203.967l31.48-18.702c2.224-1.318 2.209-4.547-.028-5.842l-30.106-17.934"
     stroke="#D100EF"
     stroke-width="2.7"
     stroke-linecap="round"
     id="path2568" />
  <path
     fill-rule="evenodd"
     clip-rule="evenodd"
     d="M389.787 159.459c0-1.078 1.51-1.952 3.375-1.952s3.375.874 3.375 1.952c0 1.079-1.51 1.953-3.375 1.953s-3.375-.874-3.375-1.953zm-10.798-23.817c0-1.078 1.511-1.952 3.375-1.952 1.865 0 3.376.874 3.376 1.952 0 1.078-1.511 1.952-3.376 1.952-1.864 0-3.375-.874-3.375-1.952zm65.162-13.91c0-1.078 1.511-1.952 3.376-1.952 1.863 0 3.375.874 3.375 1.952 0 1.08-1.512 1.954-3.375 1.954-1.865 0-3.376-.874-3.376-1.954z"
     fill="#D100EF"
     stroke="#D100EF"
     stroke-width="2.7"
     stroke-linecap="round"
     id="path2570"
     style="stroke:#3333ff;stroke-opacity:1;fill:#3333ff;fill-opacity:1" />
  <path
     d="M424.894 221.556l49.137-26.52a9.474 9.474 0 004.968-8.46l-.328-25.295a7.316 7.316 0 00-3.597-6.207l-21.144-12.725a12.232 12.232 0 01-6.011-10.366l-.392-8.091m.566 32.086l-45.531-26.346"
     stroke="#D100EF"
     stroke-width="2.7"
     stroke-linecap="round"
     id="path2572"
     style="stroke:#3333ff;stroke-opacity:1;stroke-width:2.7;stroke-miterlimit:4;stroke-dasharray:none" />
  <path
     fill-rule="evenodd"
     clip-rule="evenodd"
     d="M395.811 128.125c0-1.079 1.511-1.952 3.376-1.952 1.863 0 3.375.873 3.375 1.952s-1.512 1.953-3.375 1.953c-1.865 0-3.376-.874-3.376-1.953zm52.282 29.805c0-1.078 1.511-1.952 3.375-1.952 1.863 0 3.376.874 3.376 1.952 0 1.08-1.513 1.953-3.376 1.953-1.864 0-3.375-.873-3.375-1.953z"
     fill="#D100EF"
     stroke="#D100EF"
     stroke-width="2.7"
     stroke-linecap="round"
     id="path2574"
     style="stroke:#3333ff;stroke-opacity:1;fill:#3333ff;fill-opacity:1" />
  <path
     d="M406 392.589l23.878 14.811a9.481 9.481 0 014.475 8.053v29.902m-14.851-62.237l64.132 36.568M434.353 375l78.394 46.188m-63.542-1.54v35.178"
     stroke="#D100EF"
     stroke-width="2.7"
     stroke-linecap="round"
     id="path2576"
     style="stroke:#3333ff;stroke-opacity:1" />
  <path
     fill-rule="evenodd"
     clip-rule="evenodd"
     d="m 519.498,423.217 c 0,1.078 -1.511,1.952 -3.376,1.952 -1.864,0 -3.375,-0.874 -3.375,-1.952 0,-1.078 1.511,-1.952 3.375,-1.952 1.865,0 3.376,0.874 3.376,1.952 z m -29.113,-1.501 c 0,1.078 -1.511,1.952 -3.376,1.952 -1.864,0 -3.375,-0.874 -3.375,-1.952 0,-1.078 1.511,-1.952 3.375,-1.952 1.865,0 3.376,0.874 3.376,1.952 z m -52.656,25.668 c 0,1.08 -1.511,1.953 -3.376,1.953 -1.864,0 -3.375,-0.873 -3.375,-1.953 0,-1.078 1.511,-1.952 3.375,-1.952 1.865,0 3.376,0.874 3.376,1.952 z m 14.851,9.395 c 0,1.079 -1.51,1.952 -3.375,1.952 -1.865,0 -3.375,-0.873 -3.375,-1.952 0,-1.079 1.51,-1.953 3.375,-1.953 1.865,0 3.375,0.874 3.375,1.953 z m 0,-39.083 c 0,1.078 -1.51,1.952 -3.375,1.952 -1.865,0 -3.375,-0.874 -3.375,-1.952 0,-1.079 1.51,-1.953 3.375,-1.953 1.865,0 3.375,0.874 3.375,1.953 z"
     fill="#d100ef"
     stroke="#D100EF"
     stroke-width="2.7"
     stroke-linecap="round"
     id="path2578"
     style="mix-blend-mode:normal;stroke:#3333ff;stroke-opacity:1;fill:#3333ff;fill-opacity:1" />
  <path
     d="M166 203.411L142.122 188.6a9.481 9.481 0 01-4.475-8.053v-29.902m14.851 62.237l-64.132-36.568M137.647 221l-78.394-46.188m63.542 1.54v-35.178"
     stroke="#D100EF"
     stroke-width="2.7"
     stroke-linecap="round"
     id="path2580"
     style="stroke:#3333ff;stroke-opacity:1;stroke-width:2.7;stroke-miterlimit:4;stroke-dasharray:none" />
  <path
     fill-rule="evenodd"
     clip-rule="evenodd"
     d="M52.502 172.783c0-1.078 1.511-1.952 3.376-1.952 1.864 0 3.375.874 3.375 1.952 0 1.078-1.51 1.952-3.375 1.952s-3.376-.874-3.376-1.952zm29.113 1.501c0-1.078 1.511-1.952 3.376-1.952 1.864 0 3.375.874 3.375 1.952 0 1.078-1.51 1.952-3.375 1.952s-3.376-.874-3.376-1.952zm52.656-25.668c0-1.08 1.511-1.953 3.376-1.953 1.864 0 3.375.873 3.375 1.953 0 1.078-1.511 1.952-3.375 1.952-1.865 0-3.376-.874-3.376-1.952zm-14.851-9.395c0-1.079 1.51-1.952 3.375-1.952s3.375.873 3.375 1.952-1.51 1.953-3.375 1.953-3.375-.874-3.375-1.953zm0 39.083c0-1.078 1.51-1.952 3.375-1.952s3.375.874 3.375 1.952c0 1.079-1.51 1.953-3.375 1.953s-3.375-.874-3.375-1.953z"
     fill="#D100EF"
     stroke="#D100EF"
     stroke-width="2.7"
     stroke-linecap="round"
     id="path2582"
     style="stroke:#3333ff;stroke-opacity:1;fill:#3333ff;fill-opacity:1" />
  <path
     d="M96.545 365.284l-42.482 22.655a10.693 10.693 0 00-5.591 9.402v29.046m62.418-52.803l-47.195 26.195m63.093-16.869c-8.514 4.698-43.17 23.27-43.17 23.27-2.299 1.272-2.378 4.554-.144 5.937l9.789 6.061M155 401c-7.533 4.409-40.227 22.404-40.227 22.404a10.693 10.693 0 00-5.278 9.702l.477 10.821"
     stroke="#D100EF"
     stroke-width="2.7"
     stroke-linecap="round"
     id="path2584"
     style="stroke:#3333ff;stroke-opacity:1" />
  <path
     fill-rule="evenodd"
     clip-rule="evenodd"
     d="M45.097 428.612c0-1.078 1.512-1.954 3.375-1.954 1.865 0 3.376.876 3.376 1.954 0 1.078-1.511 1.952-3.376 1.952-1.863 0-3.375-.874-3.375-1.952zm47.27-8.48c0-1.079 1.51-1.954 3.375-1.954s3.376.875 3.376 1.954c0 1.078-1.511 1.952-3.376 1.952-1.864 0-3.375-.874-3.375-1.952zm13.94 25.916c0-1.079 1.511-1.954 3.375-1.954 1.863 0 3.375.875 3.375 1.954 0 1.078-1.512 1.952-3.375 1.952-1.864 0-3.375-.874-3.375-1.952zm-49.363-44.317c0-1.078 1.512-1.952 3.376-1.952 1.864 0 3.375.874 3.375 1.952 0 1.079-1.51 1.954-3.375 1.954-1.864 0-3.376-.875-3.376-1.954z"
     fill="#D100EF"
     stroke="#D100EF"
     stroke-width="2.7"
     stroke-linecap="round"
     id="path2586"
     style="stroke:#3333ff;stroke-opacity:1;fill:#3333ff;fill-opacity:1" />
  <path
     fill-rule="evenodd"
     clip-rule="evenodd"
     d="M248.043 445.035L10.337 307.898c-13.783-7.952-13.783-20.845 0-28.797l237.706-137.137c13.783-7.952 36.131-7.952 49.914 0l237.706 137.137c13.783 7.952 13.783 20.845 0 28.797L297.957 445.035c-13.783 7.953-36.131 7.953-49.914 0z"
     fill="#F4F4F4"
     id="path2588" />
  <path
     fill-rule="evenodd"
     clip-rule="evenodd"
     d="M248.043 443.035L10.337 305.898c-13.783-7.952-13.783-20.845 0-28.797l237.706-137.137c13.783-7.952 36.131-7.952 49.914 0l237.706 137.137c13.783 7.952 13.783 20.845 0 28.797L297.957 443.035c-13.783 7.953-36.131 7.953-49.914 0z"
     fill="#FDFDFD"
     id="path2590" />
  <path
     fill-rule="evenodd"
     clip-rule="evenodd"
     d="M411.699 321.631c-23.029 0-82.112 47.02-107.143 58-25.031 10.98-66.082 24.898-77.095 14.972-11.014-9.926 1.011-68.905-17.011-68.905-18.023 0-92.089-9.002-107.108-20.98-15.018-11.978 3.993-55.897 28.023-66.876 11.57-5.287 65.683 28.922 79.085 16.693 14.431-13.169-5.765-62.941 9.011-79.577 14.776-16.636 32.527-15.38 50.061 9.981 17.511 25.328 50.547 95.897 64.055 98.54 27.033 5.289 130.186 8.207 115.167 23.18-15.018 14.972-14.017 14.972-37.045 14.972z"
     fill="#D7DAE8"
     fill-opacity=".231"
     id="path2592" />
  <path
     fill-rule="evenodd"
     clip-rule="evenodd"
     d="M244.634 34.308l-.699 12.505 14.007 4.974 1.149-12.6-5.137-5.704-9.32.825z"
     fill="#AE9A8D"
     id="path2594" />
  <path
     fill-rule="evenodd"
     clip-rule="evenodd"
     d="M258.803 36.537s.315 9.589-1.423 10.361c-1.734.77-11.527-5.402-11.527-5.402l-1.918 19.58 16.924 11.767 9.808-3.32v-9.607l-6.489-22.127-5.375-1.252z"
     fill="#8B92B0"
     id="path2596" />
  <path
     fill-rule="evenodd"
     clip-rule="evenodd"
     d="M321.983 79.235l-7.705 7.952s3.005 2.666 7.195-2.822c2.782-3.619.51-5.13.51-5.13z"
     fill="#F0C6B4"
     id="path2598" />
  <path
     fill-rule="evenodd"
     clip-rule="evenodd"
     d="M310.213 96l1.087 3h.857l17.672-27.324-3.66-6.974-.829-.65L310.213 96z"
     fill="#42424D"
     id="path2600" />
  <path
     fill-rule="evenodd"
     clip-rule="evenodd"
     d="M311.276 99.05l17.691-27.28-3.639-7.804L308.239 91l3.037 8.05z"
     fill="#121214"
     id="path2602" />
  <path
     fill-rule="evenodd"
     clip-rule="evenodd"
     d="M310.713 89.155l2.38 5.14 14.75-22.525-2.791-5.259-14.339 22.644z"
     fill="#A9B4D0"
     id="path2604" />
  <path
     fill-rule="evenodd"
     clip-rule="evenodd"
     d="M308.675 77.782l-.504 6.716 5.124 1.099 2.712-4.086s-.3 3.176 1.496 1.96c.904-.586 4.226-4.687 2.049-7.225-.589-.445-10.877 1.537-10.877 1.537z"
     fill="#E7D7CD"
     id="path2606" />
  <path
     fill-rule="evenodd"
     clip-rule="evenodd"
     d="M304.051 76.181l-1.988 7.839 6.877.73s-1.075-4.38.584-7.854c-.498-.168-5.473-.715-5.473-.715z"
     fill="#fff"
     id="path2608" />
  <path
     fill-rule="evenodd"
     clip-rule="evenodd"
     d="M281.396 71.752L270.213 54.19s-3.61-11.671-9.696-14.514c-1.627-.8-4.26 2.116-4.26 2.116l3.28 6.328L263 66.906s8.584 11.323 10.358 13.656c1.781 2.333 31.158 4.22 31.158 4.22s-2.108-5.332 1.001-9.924c-1.747-.248-24.121-3.106-24.121-3.106z"
     fill="#A3A9C4"
     id="path2610" />
  <path
     fill-rule="evenodd"
     clip-rule="evenodd"
     d="M269.054 59.652l5.011 11.686s4.737-2.4 4.737-6.803c-.007-6.789-6.713-11.485-13.345-21.89-1.014-.167 3.597 17.007 3.597 17.007z"
     fill="#121214"
     id="path2612" />
  <path
     fill-rule="evenodd"
     clip-rule="evenodd"
     d="M247.027 153.352c-.412-1.014-13.834-9.369-14.008-6.147-2.232 11.366-7.2 16.169-7.374 19.977-.535 11.772 5.802 12.85 4.266 34.11 0 0 .998 16.273 9.069 14.34 2.749-.635 2.727-3.481 2.727-3.481-1.084-2.538-2.177-5.28-2.473-8.013-.574-5.326-1.738-33.132.488-36.653 2.245-3.54 5.647-8.346 7.305-14.133z"
     fill="#D5C6BC"
     id="path2614" />
  <path
     fill-rule="evenodd"
     clip-rule="evenodd"
     d="M229.708 201.437c-.458 4.598-.238 9.835 2.116 15.537 2.98 7.188 11.256 6.397 11.928 4.712.953-2.33-1.979-8.789-2.248-9.394-8.123 9.833-11.796-10.855-11.796-10.855z"
     fill="#000"
     id="path2616" />
  <path
     fill-rule="evenodd"
     clip-rule="evenodd"
     d="M257.806 148.698l2.189 13.763s-4.434 8.2-5.344 12.096c-.894 3.903-.278 23.532-1.499 25.856 0 0-1.038 5.719 5.839 9.509 6.932 3.793 11.039.94 11.039.94-1.768-1.563-3.439-3.548-4.568-6.727-3.363-17.76 5.359-33.673 7.301-37.667 1.893-3.958-.705-13.027 2.04-26.021-2.257-1.062-16.997 8.251-16.997 8.251z"
     fill="#D5C6BC"
     id="path2618" />
  <path
     fill-rule="evenodd"
     clip-rule="evenodd"
     d="M272.273 211.886c-12.239 1.918-16.878-10.449-16.878-10.449-.864 1.612-3.61 6.431-1.548 9.127 2.925 3.787 5.102 2.238 8.391 4.141 4.605 2.641 7.25 7.775 14.179 8.608 4.052.504 4.358-3.591 1.435-6.852-1.548-1.683-4.324-3.405-5.579-4.575z"
     fill="#000"
     id="path2620" />
  <path
     fill-rule="evenodd"
     clip-rule="evenodd"
     d="M269.928 96.383l-23.373-1.826s-11.235 19.26-12.975 24.747c-1.729 5.469-1.86 25.154-1.86 25.154s1.111 6.522 9.185 7.909c14.735 2.498 35.085-7.671 36.065-10.233 1.344-17.48 1.307-32.263-.626-39.054-.95-3.304-6.416-6.697-6.416-6.697z"
     fill="#A3A9C4"
     id="path2622" />
  <path
     fill-rule="evenodd"
     clip-rule="evenodd"
     d="M240.695 106.085l-8.975 16.435s8.556 12.883 29.795 1.585c2.611-1.674 3.445-6.205 3.445-6.205 7.411 5.728 11.302-5.625 11.302-5.625l-7.345-11.61-28.222 5.42z"
     fill="#565D7B"
     id="path2624" />
  <path
     fill-rule="evenodd"
     clip-rule="evenodd"
     d="M279.548 63.78c.629-5.194-9.452-15.635-14.829-27.242-1.457-.064-2.462 2.822-2.462 2.822s7.335 20.096 2.987 27.18c-1.231 2.123 1.017 34.95 1.017 34.95s-.144 13.901 1.307 15.144c3.35 2.864 11.112-4.102 10.984-8.813-.07-3.885-3.106-16.038-4.101-20.026-.996-3.964-1.191-15.611-1.191-15.611s5.674-3.167 6.288-8.404z"
     fill="#C3C9DF"
     id="path2626" />
  <path
     fill-rule="evenodd"
     clip-rule="evenodd"
     d="M241.828 42.659c-1.744.577-7.698 7.46-9.515 9.277.18 1.03 7.228 35.38 9.356 40.12-11.323 17.381-9.891 29.446-9.891 29.446s5.039 4.999 11.498 5.338c13.674.761 18.859-3.078 20.365-5.338 1.536-2.22 2.66-8.553 2.66-15.155 1.212-17.65.47-31.957-1.023-38.666-12.924-8.086-21.697-25.608-23.45-25.022z"
     fill="#C3C9DF"
     id="path2628" />
  <path
     fill-rule="evenodd"
     clip-rule="evenodd"
     d="M234.774 105.792l14.838 3.356-13.962-5.43-.876 2.074zm3.053-9.378l11.421 2.638-10.043-4.495-1.378 1.857z"
     fill="#121214"
     id="path2630" />
  <path
     fill-rule="evenodd"
     clip-rule="evenodd"
     d="M237.149 85.025s3.872-14.16 1.802-17.95c-1.79-.213-1.802 17.95-1.802 17.95zm28.85-9.251s-1.338 14.783.815 29.966c-.928-17.01.126-30.15.126-30.15s3.23-4.247-1.149-8.516c3.613 4.883.208 8.7.208 8.7zm-19.01-2.593c1.49 13.559 13.421 6.694 13.421 6.694s-9.827 3.621-13.421-6.694z"
     fill="#565D7B"
     id="path2632" />
  <path
     fill-rule="evenodd"
     clip-rule="evenodd"
     d="M273.657 19.976c-.412-.91-12.185 0-12.185 0l-8.376 14.915s4.233 7.466 13.183 6.959c2.538-.12 3.979-7.46 3.979-7.46s2.394.064 2.489-1.158c.195-2.57-.736-5.866-.736-5.866s2.046-3.322 1.646-7.39z"
     fill="#D5C6BC"
     id="path2634" />
  <path
     fill-rule="evenodd"
     clip-rule="evenodd"
     d="M265.734 10.33c-12.924-8.81-16.68-1.63-19.089-.537-13.925 3.56-9.134 28.182-13.925 41.772 1.154-1.259 4.907-5.567 5.631-4.154 3.06 6.15 9.79 6.63 9.79 6.63s2.471-8.028 1.136-13.916c2.739-.662 16.964-1.325 22.552-17.238-.263-1.368 3.985-3.34 3.716-4.968-.229-1.622-3.105-3.185-9.811-7.589z"
     fill="#565D7B"
     id="path2636" />
  <path
     fill-rule="evenodd"
     clip-rule="evenodd"
     d="M250.042 9.056c12.344 1.741 20.387 10.368 20.387 10.368S263.473 8.86 250.042 9.056z"
     fill="#363B53"
     id="path2638" />
  <path
     fill-rule="evenodd"
     clip-rule="evenodd"
     d="M248.799 97.61l-7.918 4.832 6.276 6.779s4.357.733 5.157-4.913c.904-6.227-3.515-6.697-3.515-6.697z"
     fill="#000"
     id="path2640" />
  <path
     fill-rule="evenodd"
     clip-rule="evenodd"
     d="M259.478 102.837s2.587-3.484-1.615-5.13c-1.292-.507-6.761 1.151-6.761 1.151l-4.153-.684-1.884.947-1.13 5.491 6.602 1.212s1.228 3.719 2.849 4.858c1.613 1.091 6.273 1.768 7.329.852 1.084-.907 1.848-4.986.962-6.309-.879-1.328-2.199-2.388-2.199-2.388z"
     fill="#E7D7CD"
     id="path2642" />
  <path
     fill-rule="evenodd"
     clip-rule="evenodd"
     d="M247.441 97.61l-3.506 7.861 6.089.993s-1.973-3.741 1.429-8.029c-2.593-.17-4.012-.824-4.012-.824z"
     fill="#fff"
     id="path2644" />
  <path
     fill-rule="evenodd"
     clip-rule="evenodd"
     d="M237.295 93.77c-1.063-2 2.415-30.338 2.415-30.338s.996-8.794-4.641-11.1c-5.644-2.32-9.421 3.484-9.293 8.62.162 5.143-.986 38.792 1.164 41.448 2.162 2.633 20.243 7.122 20.243 7.122s-3.668-6.648 1.643-11.61c0 0-7.919-1.659-11.531-4.141z"
     fill="#A3A9C4"
     id="path2646" />
  <path
     fill-rule="evenodd"
     clip-rule="evenodd"
     d="M228.666 99.205c4.907-4.101 8.85-4.648 8.85-4.648s-8.138.022-8.85 4.648z"
     fill="#565D7B"
     id="path2648" />
  <path
     fill-rule="evenodd"
     clip-rule="evenodd"
     d="M263.673 101.715c-.806-.458-1.765-.776-2.776-.937l-1.658-.113c-1.564 0-3.133.348-4.334 1.05-2.412 1.393-2.412 3.655 0 5.057 2.437 1.405 6.361 1.405 8.768 0 2.421-1.402 2.421-3.677 0-5.057z"
     fill="#fff"
     id="path2650" />
  <path
     fill-rule="evenodd"
     clip-rule="evenodd"
     d="M263.146 101.565c-.715-.403-1.542-.671-2.428-.803l-1.444-.097c-1.362 0-2.712.302-3.747.9-1.781 1.023-2.055 2.578-.846 3.741.22-.207.513-.446.846-.641 1.035-.577 2.385-.904 3.747-.904l1.444.11c.886.14 1.713.4 2.428.794.333.195.614.434.837.641 1.197-1.163.931-2.739-.837-3.741z"
     fill="#BABFD4"
     id="path2652" />
  <path
     fill-rule="evenodd"
     clip-rule="evenodd"
     d="M260.828 103.828l-1.444-.11c-1.362 0-2.712.327-3.747.904a4.874 4.874 0 00-.846.641c.22.266.513.483.846.657 2.104 1.215 5.512 1.215 7.619 0a2.7 2.7 0 00.836-.657 4.848 4.848 0 00-.836-.641c-.715-.394-1.542-.653-2.428-.794z"
     fill="#351E08"
     id="path2654" />
  <path
     fill-rule="evenodd"
     clip-rule="evenodd"
     d="M263.665 106.228c-2.406 1.405-6.33 1.405-8.767 0-1.13-.668-1.75-1.526-1.796-2.372l-.006 10.291c0 .922.608 1.826 1.802 2.525 2.437 1.408 6.361 1.408 8.767 0 1.283-.727 1.89-1.698 1.802-2.672v-8.181l.015-2.101c-.015.919-.611 1.808-1.817 2.51z"
     fill="#BABFD4"
     id="path2656" />
  <path
     fill-rule="evenodd"
     clip-rule="evenodd"
     d="M234.774 190.022a39.583 39.583 0 002.369-4.816 34.536 34.536 0 01-2.369 4.816zm3.841-9.622zm34.596 27.911a14.512 14.512 0 00-1.154-5.57c.919 2.085 1.227 3.945 1.154 5.57z"
     fill="#C09E90"
     id="path2658" />
  <path
     fill-rule="evenodd"
     clip-rule="evenodd"
     d="M127.748 157.518c-1.082-.516-4.232-1.607-4.232-1.607l-6.136 2.069v1.775s-.392 3.535 1.594 5.089c2.004 1.552 1.636 1.435 3.963 1.619 2.341.156 5.443-.129 6.589-.932 1.155-.803 1.308-3.194 1.308-3.194s-2.344-1.343-3.086-4.819z"
     fill="#F0C6B4"
     id="path2660" />
  <path
     fill-rule="evenodd"
     clip-rule="evenodd"
     d="M132.537 161.558c-1.953 3.942-13.847 1.198-13.455-2.581-1.312 1.836-2.222 5.876-1.45 7.486.767 1.594 10.237 2.36 10.237 2.36s15.793 6.57 17.785 3.268c3.362-5.714-5.259-5.791-13.117-10.533z"
     fill="#16A89F"
     id="path2662" />
  <path
     fill-rule="evenodd"
     clip-rule="evenodd"
     d="M172.515 122.491l7.873 11.404s3.972-5.717 1.131-13.632c-.469-1.3-9.004 2.228-9.004 2.228z"
     fill="#565D7B"
     id="path2664" />
  <path
     fill-rule="evenodd"
     clip-rule="evenodd"
     d="M177.452 119.182c-13.393 3.078-25.781.571-27.423 1.441-1.646.886-5.097 5.696-5.097 5.696s12.078 18.32 12.078 16.947c-.487-13.302 21.742-9.277 23.449-8.998-6.651-8.12-1.392-15.901-3.007-15.086z"
     fill="#A3A9C4"
     id="path2666" />
  <path
     fill-rule="evenodd"
     clip-rule="evenodd"
     d="M151.061 128.32l6.43 13.13s.405-1.379 1.965-3.58c-4.637-6.601-8.395-9.55-8.395-9.55z"
     fill="#565D7B"
     id="path2668" />
  <path
     fill-rule="evenodd"
     clip-rule="evenodd"
     d="M189.684 116.832c-3.608-1.778-20.887-6.69-24.525-8.679-1.958-.849-3.178-3.195-6.102-3.802-2.902-.64-7.996-.551-7.996-.551v8.982s2.756 2.422 4.766 2.664c2.029.257 7.699-1.867 8.759-1.334 2.719 1.119 7.674 4.194 11.493 6.239-.524 2.826-.352 6.174 1.226 8.62.444.117 14.126-2.492 14.861-4.751.472-1.438 1.137-5.598-2.482-7.388z"
     fill="#E7D7CD"
     id="path2670" />
  <path
     fill-rule="evenodd"
     clip-rule="evenodd"
     d="M178.644 122.189s5.321 5.169 8.992 4.319c1.821.243-8.992-4.319-8.992-4.319z"
     fill="#CBBBB1"
     id="path2672" />
  <path
     fill-rule="evenodd"
     clip-rule="evenodd"
     d="M160.91 105.679l-13.497-1.87a1.535 1.535 0 00-1.713 1.327l-.754 5.396a1.542 1.542 0 001.309 1.741l13.482 1.867a1.546 1.546 0 001.737-1.325l.742-5.41a1.52 1.52 0 00-1.306-1.726z"
     fill="#212121"
     id="path2674" />
  <path
     fill-rule="evenodd"
     clip-rule="evenodd"
     d="M145.782 111.115l13.206 1.828.889-6.46-13.203-1.836-.892 6.468z"
     fill="#2D68FF"
     id="path2676" />
  <path
     fill-rule="evenodd"
     clip-rule="evenodd"
     d="M129.829 113.397c2.111 4.602.551 9.958.551 9.958l9.189 15.119 4.854.555 3.329-4.721-1.468-16.395s-18.916-6.594-16.455-4.516z"
     fill="#DACCC3"
     id="path2678" />
  <path
     fill-rule="evenodd"
     clip-rule="evenodd"
     d="M116.066 282.964c-.353 1.404.044 4.306-.075 6.534-.153 3.238 2.602 9.084 5.035 12.824 2.434 3.743 8.778 2.903 9.976.803.539-.917-.45-3.927-1.732-7.039l-12.354-11.419-.85-1.703z"
     fill="#212121"
     id="path2680" />
  <path
     fill-rule="evenodd"
     clip-rule="evenodd"
     d="M117.546 234.929c-1.783 6.582-4.051 8.096-4.514 12.915-.953 9.899 4.514 19.636 3.383 32.297-.07.83-.22 1.499-.392 2.139 0 0 1.677 10.473 6.433 13.026 4.741 2.56 6.764.772 6.764.772-1.701-4.077-4.729-10.756-4.729-10.756s.034-28.069.684-34.394c3.736-5.521 6.813-13.467 6.813-13.467s-12.658-9.09-14.442-2.532z"
     fill="#E7D7CD"
     id="path2682" />
  <path
     fill-rule="evenodd"
     clip-rule="evenodd"
     d="M139.062 294.315c1.048 3.586 6.469 3.862 8.002 4.055 12.743 13.327 16.687 7.999 17.368 6.644.757-1.512-1.594-4.556-4.527-7.514l-18.108-12.833c-.484 3.213-3.787 6.107-2.735 9.648z"
     fill="#212121"
     id="path2684" />
  <path
     fill-rule="evenodd"
     clip-rule="evenodd"
     d="M148.326 248.422s-3.203 4.807-5.143 10.16c-1.94 5.355-.49 21.609-.974 24.819 0 0-2.146 4.313 4.315 9.007 10.898 7.912 13.311 4.497 13.311 4.497-3.969-4.01-7.65-8.556-7.65-8.556s-.969-16.147 5.397-30.981c1.37-1.723 4.131-5.374 3.889-8.287-.886-10.959 1.069-19.595 1.069-19.595l-16.47 4.307 2.256 14.629z"
     fill="#E7D7CD"
     id="path2686" />
  <path
     fill-rule="evenodd"
     clip-rule="evenodd"
     d="M120.104 198.939c-1.493 2.195-2.755 38.998-2.755 38.998s3.812 5.021 11.321 5.052c16.418.027 33.149-9.504 33.149-9.504s4.192-31.333-1.637-45.451c-2.13-3.231-31.512-1.762-40.078 10.905z"
     fill="#A3A9C4"
     id="path2688" />
  <path
     fill-rule="evenodd"
     clip-rule="evenodd"
     d="M130.564 122.189c-.107.736-.956 4.862-.956 4.862l10.782 10.236 2.145-1.18s.61-4.485-11.971-13.918zm12.305 1.668c-1.962 4.623-.255 9.74-.255 9.74l2.259-.984v-6.935s-.052-6.441-2.004-1.821z"
     fill="#fff"
     id="path2690" />
  <path
     fill-rule="evenodd"
     clip-rule="evenodd"
     d="M143.632 122.189s1.122 10.251-1.955 11.815c-3.607 1.827-15.189-9.384-14.389-8.897-4.708 9.259-9.939 12.309-9.939 12.309l2.084 21.533s6.914 12.661 6.914 19.485c0 6.803-8.149 13.133-8.998 20.426 0 0 2.065-2.909 7.545-2.428 5.011.439 18.079 9.157 25.484 7.548.432-3.529 1.875-7.784 1.875-7.784s1.469 2.916 1.72 5.736c5.284-5.15 6.2-16.809 6.2-16.809s-3.286-13.026-2.679-26.174c.583-.399 5.48-3.406 5.593-8.28.114-4.875-14.695-24.185-15.572-28.48h-3.883z"
     fill="#C3C9DF"
     id="path2692" />
  <path
     fill-rule="evenodd"
     clip-rule="evenodd"
     d="M132.673 155.911c.787 15.482 13.546 9.381 13.546 9.381s-10.325 3.777-13.546-9.381z"
     fill="#565D7B"
     id="path2694" />
  <path
     fill-rule="evenodd"
     clip-rule="evenodd"
     d="M145.683 94.599h-7.387l-6.083 4.794-4.058 5.849-1.612 4.627s.153 3.24 3.871 3.433c1.201 2.394 3.506 2.964 3.506 2.964s0 3.409 1.143 4.697c1.131 1.297 7.619 5.613 9.973 5.938 2.338.313 5.897-.978 6.231-2.351.309-1.389 2.108-12.333 2.528-15.108.965-6.649-1.217-10.444-1.217-10.444l-6.895-4.4z"
     fill="#E7D7CD"
     id="path2696" />
  <path
     fill-rule="evenodd"
     clip-rule="evenodd"
     d="M131.574 90.681s-11.067 2.425-12.765 13.216c-1.707 10.791 5.103 20.362 6.157 20.206 6.166-3.084 7.861-9.252 7.861-9.252l-.554-11.754 4.946-9.507-5.645-2.909z"
     fill="#565D7B"
     id="path2698" />
  <path
     fill-rule="evenodd"
     clip-rule="evenodd"
     d="M133.357 90.681c-3.111 0-5.627 2.158-5.627 4.835 0 2.688 2.516 4.865 5.627 4.865 3.132 0 5.658-2.177 5.658-4.865 0-2.677-2.526-4.835-5.658-4.835z"
     fill="#8D9FDB"
     id="path2700" />
  <path
     fill-rule="evenodd"
     clip-rule="evenodd"
     d="M130.549 95.32c-14.061 15.933 1.373 22.668 2.314 21.046.935-1.622-2.724-5.923 0-6.321 2.722-.405 4.171 5.438 5.587 4.736 1.425-.677 1.585-3.651 1.585-3.651s1.928-.445 2.623-1.085c.705-.656.393-4.467 1.643-5.111 1.26-.659 9.771.071 10.831-4.049.622-2.48-13.871-17.698-24.583-5.565z"
     fill="#565D7B"
     id="path2702" />
  <path
     fill-rule="evenodd"
     clip-rule="evenodd"
     d="M114.883 179.248c-2.016-.31-9.188 3.216-14.423 3.412-1.673-.212-11.394-2.965-11.315-1.171.08 1.766 3.519 1.646 3.05 2.961-1.465 2.992-7.31 2.621-7.193 3.961.125 1.34 9.127 4.151 12.044 2.689 2.912-1.472 4.046-3.412 4.046-3.412s18.162 3.727 22.486-.963c1.695-1.861 1.707-14.123 1.707-14.123h-10.402s-.144 5.401 0 6.646z"
     fill="#E7D7CD"
     id="path2704" />
  <path
     fill-rule="evenodd"
     clip-rule="evenodd"
     d="M123.992 172.618s4.024.62 5.112-1.214c-.846-6.201-.239-23.611-1.434-24.69-6.219 8.758-3.678 25.904-3.678 25.904z"
     fill="#B8B8B8"
     id="path2706" />
  <path
     fill-rule="evenodd"
     clip-rule="evenodd"
     d="M122.98 135.865c-10.954-1.1-9.357 15.828-9.357 15.828s-1.177 18.376-1.027 19.715c3.825 5.114 14.769 1.907 14.769-.809 0-2.722-.891-14.657.555-23.538.297-1.707 1.968-10.101-4.94-11.196z"
     fill="#A3A9C4"
     id="path2708" />
  <path
     fill-rule="evenodd"
     clip-rule="evenodd"
     d="M375.385 131.83s-4.51 3.277-5.997 5.612c-1.469 2.302-.585 5.682-1.298 10.891-.612 4.475 8.204 1.611 8.204 1.611s.955-2.299.505-3.794c1.166-2.042 1.588-3.995 1.588-3.995l-3.002-10.325z"
     fill="#E7D7CD"
     id="path2710" />
  <path
     fill-rule="evenodd"
     clip-rule="evenodd"
     d="M388.17 105.617a1.452 1.452 0 00-.627-.917l.097-.379s-.93 0-1.646.385l-17.491 10.078c-.918.531-1.478 1.834-1.236 2.861l7.378 29.63c.196.81.823 1.238 1.536 1.146h.015l.86-.131-.043-.214 17.292-9.952c.927-.538 1.472-1.84 1.218-2.892l-7.353-29.615z"
     fill="#303033"
     id="path2712" />
  <path
     fill-rule="evenodd"
     clip-rule="evenodd"
     d="M389 105.478c-.251-1.055-1.215-1.458-2.154-.917l-17.506 10.077c-.918.541-1.472 1.84-1.218 2.867l7.365 29.637c.239 1.024 1.224 1.446 2.157.902l17.491-10.081c.936-.526 1.475-1.837 1.218-2.879L389 105.478z"
     fill="#121214"
     id="path2714" />
  <path
     fill-rule="evenodd"
     clip-rule="evenodd"
     d="M371.12 120.802l6.108 24.542 17.971-10.359-6.105-24.551-17.974 10.368z"
     fill="#fff"
     id="path2716" />
  <path
     fill-rule="evenodd"
     clip-rule="evenodd"
     d="M377.24 137.292l1.411 5.698 4.192-2.403-1.423-5.7-4.18 2.405zm3.909-9.157l2.788 11.529 4.186-2.399-2.819-11.548-4.155 2.418zm3.573-9.173l4.158 17.215 4.189-2.415-4.174-17.215-4.173 2.415z"
     fill="#2D68FF"
     id="path2718" />
  <path
     fill-rule="evenodd"
     clip-rule="evenodd"
     d="M388.256 112.642l-5.374 3.374.753 5.322-5.229 4.178v6.049l-2.513 2.454-.015.59.303.114.278-.104 2.773-2.684v-6.034l5.297-4.227-.75-5.236 4.926-3.093.135-.566-.584-.137z"
     fill="#DE3CE1"
     id="path2720" />
  <path
     fill-rule="evenodd"
     clip-rule="evenodd"
     d="M378.565 130.059c-.517.101-.86.676-.765 1.275.116.593.643 1.011 1.184.908.52-.098.869-.658.747-1.269-.11-.587-.63-1.015-1.166-.914zm-.005-5.611c-.536.107-.866.682-.747 1.281.11.617.636 1.014 1.154.917.535-.095.878-.67.761-1.281-.116-.599-.645-1.012-1.168-.917zm5.279-4.416c-.527.101-.863.672-.762 1.278.104.599.624 1.024 1.169.92.535-.098.866-.676.755-1.281-.113-.59-.642-1.009-1.162-.917zm-.519-4.409c-.529.116-.86.663-.759 1.275.129.608.64 1.017 1.175.907.517-.085.875-.66.753-1.244-.113-.62-.631-1.03-1.169-.938z"
     fill="#DE3CE1"
     id="path2722" />
  <path
     fill-rule="evenodd"
     clip-rule="evenodd"
     d="M374.99 134.945c-.799-.605-3.36 3.665-5.334 5.242-1.93 1.596-1.569 6.514-1.569 6.514l4.951 1.809s1.334-2.876.235-6.541c-.235-.495 3.434-5.743 1.717-7.024z"
     fill="#E7D7CD"
     id="path2724" />
  <path
     fill-rule="evenodd"
     clip-rule="evenodd"
     d="M438.952 133.052v35.463s6.521.727 9.461-5.016c2.216-4.331 8.088-19.516 5.967-26.174-2.57-8.042-15.428-4.273-15.428-4.273z"
     fill="#A3A9C4"
     id="path2726" />
  <path
     fill-rule="evenodd"
     clip-rule="evenodd"
     d="M398.752 135.584c-.85.079-5.93-.459-6.205 1.073-.325 1.736 10.734 1.659 10.465 4.239-.248 2.464-6.717-.153-7.246 1.758-.392 1.326 4.758 2.882 6.998 3.671 2.231.797 5.609 1.137 5.609 1.137l4.587-5.258s-5.52-5.664-6.132-6.284c-.634-.584-2.767-1.807-8.076-.336z"
     fill="#E7D7CD"
     id="path2728" />
  <path
     fill-rule="evenodd"
     clip-rule="evenodd"
     d="M408.184 148.478c1.383 1.222 3.247 1.715 3.247 1.715l4.198-7.81s-1.267-.975-1.775-1.382c-4.036-.11-7.065 6.285-5.67 7.477z"
     fill="#F5F5F5"
     id="path2730" />
  <path
     fill-rule="evenodd"
     clip-rule="evenodd"
     d="M428.038 293.842s-.652-.027-2.99 0c-2.31.043-2.543 3.787-.591 5.135 1.95 1.358 6.644 5.817 6.644 5.817s3.323 6.214 5.278 7.208c2.723 1.403 6.092.317 6.616-1.397.535-1.715-.94-11.557-.94-11.557l-14.017-5.206z"
     fill="#000"
     id="path2732" />
  <path
     fill-rule="evenodd"
     clip-rule="evenodd"
     d="M443.397 202.958c-.131-1.44-7.432-6.933-12.57-6.939-6.209-.012-10.419 5.753-10.658 7.635-.716 13.275 3.039 37.404 4.422 47.252 1.365 9.876.606 35.824-.254 43.89-.848 8.076 19.406 9.415 19.575 3.057.201-6.346 1.214-35.576 0-47.439-1.215-11.838-.273-44.281-.515-47.456z"
     fill="#C3C9DF"
     id="path2734" />
  <path
     fill-rule="evenodd"
     clip-rule="evenodd"
     d="M423.785 244.448l4.051-23.976-4.697 1.504.646 22.472z"
     fill="#565D7B"
     id="path2736" />
  <path
     fill-rule="evenodd"
     clip-rule="evenodd"
     d="M404.574 306.057s-7.987 1.121-12.258 1.916c-4.296.795-3.856 7.324 2.313 8.494 4.844.908 17.785 3.592 23.546 3.922 5.756.361 4.74-10.016 4.74-10.016l-18.341-4.316z"
     fill="#000"
     id="path2738" />
  <path
     fill-rule="evenodd"
     clip-rule="evenodd"
     d="M401.813 212.736c-.731 13.278 3.017 37.401 4.407 47.262 1.395 9.854.609 35.823-.254 43.889-.854 8.067 19.391 9.412 19.596 3.051.199-6.358 1.224-35.576 0-47.442-1.237-11.844 1.814-46.405 1.814-46.405s-25.147-3.778-25.563-.355z"
     fill="#C3C9DF"
     id="path2740" />
  <path
     fill-rule="evenodd"
     clip-rule="evenodd"
     d="M438.607 205.177l-8.463-12.215-4.578 20.532-23.846 2.063c2.876 8.54 31.184 10.982 43.785-11.044 0-1.005-6.898.664-6.898.664zm5.952-40.115s8.902-10.494 6.815-17.949c-4.679 4.463-6.815 17.949-6.815 17.949z"
     fill="#565D7B"
     id="path2742" />
  <path
     fill-rule="evenodd"
     clip-rule="evenodd"
     d="M451.267 141.342c-1.855-7.892-7.47-9.512-7.47-9.512s-28.011 6.862-31.438 9.063c-5.627 4.408-7.096 7.339-10.422 10.071-.6 1.345-2.05 43.878-3.277 63.7 2.084 2.546 6.533 6.428 15.948 6.428 8.614 0 15.444-5.532 15.444-5.532s1.567-8.77 0-16.961c3.889 5.868 2.665 15.399 2.665 15.399s9.605-5.988 11.469-10.503c.101-5.636-2.583-13.486-1.937-27.405.624-13.932 11.652-23.707 9.018-34.748z"
     fill="#C3C9DF"
     id="path2744" />
  <path
     fill-rule="evenodd"
     clip-rule="evenodd"
     d="M424.783 122.555l-10.771 2.389s.554 2.381 1.089 3.751c1.232 2.96.855 7.509.855 7.509l.401 2.904 14.034-2.931 3.103-4.047v-1.415l-1.062-3.824-7.649-4.336z"
     fill="#E7D7CD"
     id="path2746" />
  <path
     fill-rule="evenodd"
     clip-rule="evenodd"
     d="M426.384 141.387c8.414-2.247 10.048-8.654 10.048-8.654l-24.241 8.654s5.776 2.258 14.193 0z"
     fill="#565D7B"
     id="path2748" />
  <path
     fill-rule="evenodd"
     clip-rule="evenodd"
     d="M413.705 135.788l-1.514 5.599s16.978 2.555 24.241-8.654c-.833-1.087-1.815-3.093-1.815-3.093-9.308 9.533-20.912 6.148-20.912 6.148z"
     fill="#fff"
     id="path2750" />
  <path
     fill-rule="evenodd"
     clip-rule="evenodd"
     d="M408.497 106.692c-2.676 6.883.409 20.202 2.104 21.322 3.652 2.383 8.035-.96 8.035-.96l-.669-15.8s-8.377-5.991-9.47-4.562z"
     fill="#E7D7CD"
     id="path2752" />
  <path
     fill-rule="evenodd"
     clip-rule="evenodd"
     d="M418.636 96.446c-4.01.356-4.931 3.132-4.931 3.132s-3.98-.892-4.919 2.056c-.587 1.804-.057 4.713-.187 6.502-.978 15.049 11.343 24.814 12.547 25.346 1.364.597 11.822 1.423 12.734-6.134.475-4 3.916-8.986 1.968-16.531-2.423-9.435-13.191-14.749-17.212-14.371z"
     fill="#565D7B"
     id="path2754" />
  <path
     fill-rule="evenodd"
     clip-rule="evenodd"
     d="M413.705 99.578s8.043 2.556 12.423 6.128c-2.718-5.745-12.423-6.128-12.423-6.128z"
     fill="#363B53"
     id="path2756" />
  <path
     fill-rule="evenodd"
     clip-rule="evenodd"
     d="M401.72 173.021l7.848-4.512-7.711 1.492-.137 3.02z"
     fill="#565D7B"
     id="path2758" />
  <path
     fill-rule="evenodd"
     clip-rule="evenodd"
     d="M365.008 149.141c-.089 1.825.63 3.597.63 3.597l8.758-1.461v-2.271c-2.381-3.243-9.284-1.721-9.388.135z"
     fill="#F5F5F5"
     id="path2760" />
  <path
     fill-rule="evenodd"
     clip-rule="evenodd"
     d="M400.556 152.057l-16.655 6.358s-5.012-4.729-7.986-9.286c-2.978-4.567-12.155-.541-10.775 3.827 4.609 14.577 10.732 21.43 14.036 21.558 3.311.113 31.093-5.383 31.093-5.383s10.716-4.092 8.194-13.693c-2.542-9.607-17.907-3.381-17.907-3.381z"
     fill="#A3A9C4"
     id="path2762" />
  <g
     opacity=".522"
     fill-rule="evenodd"
     clip-rule="evenodd"
     id="g2772">
    <path
       d="M251 2a2 2 0 012-2h70a2 2 0 012 2v321.7a.666.666 0 01-.224.498l-3.461 3.06c-19.407 17.158-47.627 19.945-70.016 6.916a.602.602 0 01-.299-.52V2z"
       fill="url(#paint1_linear)"
       id="path2764"
       style="fill-opacity:1.0;fill:url(#linearGradient23990)" />
    <path
       d="M303.283 2a2 2 0 012-2h8.065a2 2 0 012 2v321.989a.036.036 0 01-.006.02l-8.499 12.075c-1.459 2.074-4.651.21-3.562-2.08l.002-.009V2z"
       fill="url(#paint2_linear)"
       id="path2766"
       style="fill-opacity:1.0" />
    <path
       d="M282.741 2a2 2 0 012-2h8.498a2 2 0 012 2v321.987a.048.048 0 01-.006.024l-6.702 12.202c-1.749 3.185-6.608 1.331-5.791-2.21l.001-.007V2z"
       fill="url(#paint3_linear)"
       id="path2768"
       style="fill-opacity:1.0;fill:url(#linearGradient23972)" />
    <path
       d="M261.024 2a2 2 0 012-2h8.498a2 2 0 012 2v321.987a.04.04 0 01-.007.024l-6.701 12.202c-1.749 3.185-6.608 1.331-5.791-2.21l.001-.007V2z"
       fill="url(#paint4_linear)"
       id="path2770"
       style="fill-opacity:1.0" />
  </g>
  <rect
     x="265"
     y="109"
     width="4"
     height="4"
     rx="2"
     fill="#DE3CE1"
     id="rect2774"
     style="fill:#3333ff;fill-opacity:1" />
  <rect
     x="291"
     y="71"
     width="3"
     height="3"
     rx="1.5"
     fill="#DE3CE1"
     id="rect2776"
     style="fill:#3333ff;fill-opacity:1" />
  <rect
     x="277"
     y="55"
     width="3"
     height="3"
     rx="1.5"
     fill="#DE3CE1"
     id="rect2778"
     style="fill:#3333ff;fill-opacity:1" />
  <rect
     x="308"
     y="45"
     width="2"
     height="2"
     rx="1"
     fill="#DE3CE1"
     id="rect2780"
     style="fill:#3333ff;fill-opacity:1" />
  <rect
     x="272"
     y="30"
     width="2"
     height="2"
     rx="1"
     fill="#DE3CE1"
     id="rect2782"
     style="fill:#3333ff;fill-opacity:1" />
  <rect
     x="312"
     y="107"
     width="2"
     height="2"
     rx="1"
     fill="#DE3CE1"
     id="rect2784"
     style="fill:#3333ff;fill-opacity:1" />
  <path
     fill-rule="evenodd"
     clip-rule="evenodd"
     d="M261.184 148.073c-2.517.863-3.394 4.762-3.394 4.762l-1.894 15.618s-.498 21.992 3.599 25.104c5.932 4.511 11.892 7.623 13.224 7.653 2.047 0 20.452-11.845 20.452-11.845l-12.302-49.425-19.685 8.133z"
     fill="#244AAC"
     id="path2786" />
  <path
     fill-rule="evenodd"
     clip-rule="evenodd"
     d="M281.536 131.305c-11.611 9.489-22.636 12.093-25.44 16.711-2.835 4.608-4.038 19.437-2.771 19.517 1.299.091 1.179-16.007 3.996-18.119 2.786-2.136 10.783 1.729 12.497 7.265 1.702 5.517 19.282-18.795 19.282-18.795s-4.83-9.458-7.564-6.579z"
     fill="#2D68FF"
     id="path2788" />
  <path
     fill-rule="evenodd"
     clip-rule="evenodd"
     d="M316.152 169.308c-12.871 1.02-5.003 0-5.003 0s-12.468-14.875-13.49-19.979c-1.855-9.371 13.953-14.796 18.594-4.623 5.252 10.043-.101 24.602-.101 24.602z"
     fill="#742376"
     id="path2790" />
  <path
     fill-rule="evenodd"
     clip-rule="evenodd"
     d="M295.516 130.812c-.308-.324-6.598-3.112-6.598-3.112l-5.899 6.527-.641 5.211-2.062 6.31.87 4.85 5.899 2.791s3.43 1.762 3.901 1.762c.48 0 8.773-2.236 9.17-2.49.404-.236 3.898-4.376 3.898-4.376l-1.384-8.847s-6.809-8.304-7.154-8.626z"
     fill="#C7A496"
     id="path2792" />
  <path
     fill-rule="evenodd"
     clip-rule="evenodd"
     d="M307.638 312.341c-1.14-2.332-14.159-4.101-14.159-4.101s-1.469 8.559-.742 10.579c.711 1.976 6.684 1.735 9.433 2.901 2.752 1.162 6.653 4.944 9.277 6.242 2.609 1.307 5.963 2.173 7.448 1.848 1.484-.349 3.281-2.117 2.355-4.042-1.983-4.125-12.46-11.08-13.612-13.427z"
     fill="#000"
     id="path2794" />
  <path
     fill-rule="evenodd"
     clip-rule="evenodd"
     d="M288.632 227.398s10.726 38.161 9.934 41.769c-3.36 14.853-3.962 31.463-4.783 38.412.895 6.68 15.643 8.302 16.248 2.751.596-5.545 3.44-21.686 6.293-40.722 1.112-7.418.428-38.223-5.74-65.408-18.158 8.394-21.952 23.198-21.952 23.198z"
     fill="#36364D"
     id="path2796" />
  <path
     fill-rule="evenodd"
     clip-rule="evenodd"
     d="M271.405 310.502c-.156-.943-4.762-2.262-4.762-2.262s-7.698.872-7.711 3.449c-.033 2.576 2.075 6.735 4.851 13.118 2.991 6.888 13.014 4.07 13.982 3.094.379-.389.547-2.76-.208-4.541-.696-1.616-5.367-9.367-6.152-12.858z"
     fill="#000"
     id="path2798" />
  <path
     fill-rule="evenodd"
     clip-rule="evenodd"
     d="M263.989 264.25c-6.953 21.239-5.01 38.311-4.096 44.991.916 6.64 14.256 4.244 14.843-1.313.62-5.526-1.115-20.254 4.564-34.452 6.405-16.087 13.725-45.105 13.725-45.105 15.594-11.863 17.882-24.171 17.882-24.171l-39.474.052s-4.264 6.083-4.111 16.469c.168 10.355-2.609 39.896-3.333 43.529z"
     fill="#48486D"
     id="path2800" />
  <path
     fill-rule="evenodd"
     clip-rule="evenodd"
     d="M273.516 201.856l-2.365 4.605s6.4 20.839 39.474-.052c-.223-2.019.64-6.969.64-6.969l-37.749 2.416z"
     fill="#602B13"
     id="path2802" />
  <path
     fill-rule="evenodd"
     clip-rule="evenodd"
     d="M303.588 136.88l-5.059 4.339s2.841 6.873-.7 9.064c-4.472 2.732-13.043-3.424-14.265-4.606-1.222-1.184-1.268-4.173-.538-7.191-8.883 9.496-16.93 14.952-16.93 14.952s-2.052 14.541-.43 19.492c4.212 10.875 9.167 19.232 8.739 26.903.905 2.889 3.364 9.728 14.462 8.847 12.766-1.004 21.069-8.045 22.44-9.563 2.511-16.515 4.805-34.238 4.967-40.793.388-13.026-12.686-21.444-12.686-21.444z"
     fill="#DB42DE"
     id="path2804" />
  <path
     fill-rule="evenodd"
     clip-rule="evenodd"
     d="M303.206 137.525c-2.56-2.338-5.646 2.408-4.185 2.754 11.788 5.278 17.406 19.73 17.406 19.73l-.019-4.433s-1.145-10.356-13.202-18.051z"
     fill="#244AAC"
     id="path2806" />
  <path
     fill-rule="evenodd"
     clip-rule="evenodd"
     d="M272.26 149.126c-2.554 1.034-4.164 3.433-4.164 3.433s10.717-1.93 13.875 14.3c1.03 5.352-2.23 9.568-2.23 9.568l3.492 2.081c2.547-4.054 3.98-8.904 2.474-14.425-4.289-15.719-13.447-14.957-13.447-14.957z"
     fill="#2D68FF"
     id="path2808" />
  <path
     fill-rule="evenodd"
     clip-rule="evenodd"
     d="M268.188 186.982l-.092 4.458s9.369-4.752 14.376-12.699l-3.491-2.081c-3.367 6.414-10.793 10.322-10.793 10.322z"
     fill="#121214"
     id="path2810" />
  <path
     fill-rule="evenodd"
     clip-rule="evenodd"
     d="M302.206 113.667l-6.757-1.267-7.567 1.313s-7.096 4.626-7.511 7.016c-.456 2.399 2.059 10.652 2.059 10.652s.271 2.032 1.637 3.617c1.362 1.576 3.311 1.42 3.311 1.42s3.397 9.669 14.077 10.285c1.188.058 3.559-1.065 4.325-2.072.764-1.013 2.878-10.866 2.401-13.507-.201-1.111-.721-2.485-.721-2.485s.81-1.392.81-2.044c0-7.494-6.064-12.928-6.064-12.928z"
     fill="#F0C6B4"
     id="path2812" />
  <path
     fill-rule="evenodd"
     clip-rule="evenodd"
     d="M299.88 111.811c-10.331-6.95-19.55 2.111-20.036 10.492-.461 7.605 3.174 10.251 3.174 10.251s-1.457-4.051 1.237-4.146c1.509-.076 4.423 4.957 5.621 6.077.605-2.295 2.034-6.159 1.295-8.843-.812-3.002-4.026-5.049-2.166-7.277 2.86-3.439 8.517 3.834 13.011.989.925-.637 3.617-3.067-2.136-7.543z"
     fill="#05081E"
     id="path2814" />
  <path
     fill-rule="evenodd"
     clip-rule="evenodd"
     d="M296.471 134.874c-.219-.6-.324-1.269-.353-1.908-.07-1.513.915-1.666 2.113-2.127 1.293-.501 2.608-.95 3.964-1.251 1.191-.264 2.446-.427 3.46-1.109.403-.269.753-.61 1.114-.932a14.406 14.406 0 013.03-2.064c.897-.454 2.298-1.227 2.085.487a19.692 19.692 0 01-1.381 5.163c-.351.83-1.687 1.529-2.485 1.806-.64.223-1.128-.455-1.426-.928-.253-.401-.57-1.747-.933-1.884-.709-.273-.866 1.295-.973 1.722-.527 2.141-1.422 3.618-3.446 4.451-.778.318-1.608.58-2.448.505-1.242-.112-1.948-.919-2.321-1.931z"
     fill="#20211F"
     id="path2816" />
  <path
     fill-rule="evenodd"
     clip-rule="evenodd"
     d="M285.868 129.23c1.314-1.008 3.731.161 5.103.582 1.284.393 2.583.777 3.84 1.259.801.308 1.657.355 1.844 1.3l-.077.366-.332-.027c-2.103-.868-7.838-2.211-8.476-2.324a3.261 3.261 0 00-1.066-.023c-.092.015-.886-1.094-.836-1.133z"
     fill="#20211F"
     id="path2818" />
  <path
     opacity=".859"
     fill-rule="evenodd"
     clip-rule="evenodd"
     d="M303.064 130.078l-2.064.682-.963 5.24 1.84-1.113 1.187-4.809z"
     fill="url(#paint5_linear)"
     id="path2820" />
  <path
     opacity=".859"
     fill-rule="evenodd"
     clip-rule="evenodd"
     d="M311.148 126l-2.064 1.174-.963 5.24 1.84-1.113 1.187-5.301z"
     fill="url(#paint6_linear)"
     id="path2822" />
  <path
     fill-rule="evenodd"
     clip-rule="evenodd"
     d="M337.62 143.221c-.253-.275-.834-.299-1.267-.039l-6.199 3.586c-.427.26-.879.921-.962 1.475v10.569c.083.474.535.643.962.364l7.729-4.461c.434-.251.816-.9.816-1.405v-7.901c0-.526-.202-1.175-.462-1.472l-.617-.716z"
     fill="#121214"
     id="path2824" />
  <path
     fill-rule="evenodd"
     clip-rule="evenodd"
     d="M335.302 154.154l2.382 4.241 1.195-1.313.858-2.258-3.293-2.644-1.142 1.974z"
     fill="#303033"
     id="path2826" />
  <path
     fill-rule="evenodd"
     clip-rule="evenodd"
     d="M336.181 154.156l-8.107 3.819s5.453-4.379 4.46-5.692c-.434-.661-5.251 2.062-6.931 2.512-1.665.441-4.014 5.282-4.543 7.256-4.206 5.18-20.613 8.953-24.86 15.707-2.767-4.049-6.836-7.88-6.836-7.88l-7.711-3.938-4.395 2.735-3.052 9.728s15.692 13.094 17.153 13.158c8.587.367 12.524-2.469 13.618-3.262 8.99-6.539 13.633-13.25 20.696-18.908 4.06-1.315 9.057-2.49 9.882-2.714 1.744.095 5.682-8.109 5.144-9.816-1.072-3.437-4.518-2.705-4.518-2.705z"
     fill="#F0C6B4"
     id="path2828" />
  <path
     fill-rule="evenodd"
     clip-rule="evenodd"
     d="M262.664 170.959c5.062 4.621 15.995 10.86 15.995 10.86 1.033-12.91 9.006-13.559 9.006-13.559s-13.967-12.592-18.222-15.131c-8.175-4.884-15.03 10.312-6.779 17.83z"
     fill="#742376"
     id="path2830" />
  <path
     fill-rule="evenodd"
     clip-rule="evenodd"
     d="M228.399 373.575s-2.843 2.378-4.058 3.024c-2.284 4.368-9.956 9.448-11.288 11.548-1.335 2.106-1.07 4.766-.429 5.626 1.693 2.295 5.128.489 6.229 0 4.107-1.846 10.681-8.506 10.681-8.506s5.507-1.484 7.002-4.854c.839-1.837-.946-6.838-.946-6.838h-7.191z"
     fill="#000"
     id="path2832" />
  <path
     fill-rule="evenodd"
     clip-rule="evenodd"
     d="M239.706 178.853c-4.995 9.106-2.118 19.417-2.118 19.417s.126-1.732.946-1.851c0 1.744 2.001 2.923 2.001 2.923l6.186-14.731-4.57-6.758s-1.468-.753-2.445 1z"
     fill="#565D7B"
     id="path2834" />
  <path
     fill-rule="evenodd"
     clip-rule="evenodd"
     d="M210.959 217.08l-6.402 14.006c6.682-.303 25.883-13.317 25.883-13.317l1.122-6.406-8.137-3.064s-1.73 2.537-2.939 2.69c-5.167 3.039-9.527 6.091-9.527 6.091z"
     fill="#E7D7CD"
     id="path2836" />
  <path
     fill-rule="evenodd"
     clip-rule="evenodd"
     d="M210.896 199.363c-.487 1.337-1.282 4.729-1.517 5.405-3.496 7.979-8.097 13.767-8.738 20.191-.305 3.098 2.553 6.229 4.249 6.146 0 0 2.02-1.598 3.003-3.048 4.252-6.207 5.109-11.808 5.109-11.808s.756-5.041 1.342-8.782c-.053-.247 4.063-.902 3.811-1.885.252-5.592-6.158-7.134-7.259-6.219z"
     fill="#E7D7CD"
     id="path2838" />
  <path
     fill-rule="evenodd"
     clip-rule="evenodd"
     d="M224.43 206.998c6.873 2.917 6.882 10.844 6.882 10.844s16.135-6.675 11.495-15.686c-4.653-8.995-18.377 4.842-18.377 4.842z"
     fill="#A3A9C4"
     id="path2840" />
  <path
     fill-rule="evenodd"
     clip-rule="evenodd"
     d="M251.07 196.056l-5.26 3.067-1.875 3.55-1.005 10.278 10.135 2.244 9.149-6.645.512-2.7-.386-6.727-11.27-3.067z"
     fill="#DACCC3"
     id="path2842" />
  <path
     fill-rule="evenodd"
     clip-rule="evenodd"
     d="M226.212 355.79c.577 5.693-.524 15.282-1.782 18.474.999 6.17 11.6 4.089 12.198.701-.598-3.737.219-14.78.734-19.754l-11.15.579z"
     fill="#EDE2DA"
     id="path2844" />
  <path
     fill-rule="evenodd"
     clip-rule="evenodd"
     d="M221.447 331.736c-.817 3.994 3.604 12.95 4.782 24.222 0 0 .617 2.684 5.149 2.696 5.267.01 6-3.274 6-3.274.99-9.501 1.952-14.496-2.586-22.968-.963 1.981 11.43-35.194 11.43-42.834 0-7.627 1.325-15.655 1.325-15.655s-14.857-16.32-19.229-13.195c-9.022 34.742-2.872 51.429-6.871 71.008z"
     fill="#A3A9C4"
     id="path2846" />
  <path
     fill-rule="evenodd"
     clip-rule="evenodd"
     d="M264.874 370.515c-1.508 3.847-13.524 13.485-12.648 16.386.879 2.917 9 2.917 12.821.628 3.154-1.892 6.145-7.03 6.145-7.03s3.284-1.797 3.87-3.471c.376-1.071.043-3.691-.284-5.883l-9.904-.63z"
     fill="#000"
     id="path2848" />
  <path
     fill-rule="evenodd"
     clip-rule="evenodd"
     d="M264.629 352.15c.832 6.97.733 13.761.052 18.876-1.634 5.824 9.247 5.347 9.904.63-.164-1.129-.346-2.228-.413-2.883-.543-5.852-.111-11.419.604-16.307l-10.147-.316z"
     fill="#EDE2DA"
     id="path2850" />
  <path
     fill-rule="evenodd"
     clip-rule="evenodd"
     d="M270.298 279.071c-2.112-9.549-9.882-16.809-9.882-16.809l-32.047-1.931s2.308 19.658 17.904 28.849c1.754 22.579 14.763 43.315 14.763 43.315s1.979 8.858 3.093 18.398c0 0 .255 2.424 4.588 2.727 4.656.309 5.559-2.412 5.559-2.412 1.187-8.181 3.164-14.529 2.535-17.464-1.006-4.732-5.776-11.181-5.776-11.181s1.397-33.9-.737-43.492z"
     fill="#C3C9DF"
     id="path2852" />
  <path
     fill-rule="evenodd"
     clip-rule="evenodd"
     d="M229.322 256.419s-.632 2.776-.953 4.194c22.524 21.348 35.798 5.135 35.798 5.135l-2.895-3.204-31.95-6.125z"
     fill="#121214"
     id="path2854" />
  <path
     fill-rule="evenodd"
     clip-rule="evenodd"
     d="M247.106 211.746c-3.25-2.402.752-9.632.752-9.632s-4.579-6.442-7.079-.437c-2.507 5.989-16.278 21.189-16.348 26.793-.065 5.595 5.062 10.1 5.062 10.1l.088 18.247s19.06 18.735 31.095 5.274c-1.24-9.644 10.65-17.476 13.231-34.258.32-5.503-1.672-11.817-1.672-11.817s-6.018-5.445-9.003-9.938c-4.915 4.42-12.858 8.068-16.126 5.668z"
     fill="#C3C9DF"
     id="path2856" />
  <path
     fill-rule="evenodd"
     clip-rule="evenodd"
     d="M237.67 243.788c-3.682-2.434-7.073-4.882-7.073-4.882s3.123 1.472 6.629 3.272c.142.547.29 1.086.444 1.61z"
     fill="#8B92B0"
     id="path2858" />
  <path
     fill-rule="evenodd"
     clip-rule="evenodd"
     d="M247.594 174.631l-5.059.863s-1.32 1.249-1.197 4.512c-1.245 2.751-.804 6.375-.804 6.375-1.138 1.723-.913 11.175 1.06 15.689.531 1.24 2.051 2.121 4.052 2.121 7.828 0 14.211-5.405 14.211-5.405l1.181-13.984-4.489-7.131-8.955-3.04z"
     fill="#E7D7CD"
     id="path2860" />
  <path
     fill-rule="evenodd"
     clip-rule="evenodd"
     d="M263.762 173.081c-2.997-5.738-7.049-4.725-10.468-4.015-8.615 1.83-13.447 9.797-13.447 9.797l1.64 3.006c2.063-4.763 6.001.021 6.001.021 9.142-1.564 7.517 7.765 7.517 7.765s.798-1.044 1.249-2.17c2.935 4.156 0 10.924 0 10.924l1.874-1.864s0 8.383-1.128 10.822c3.891.484 6.762-2.127 6.762-2.127s.755 1.598 2.001 2.752c15.392-17.165 1.501-36.178-2.001-34.911z"
     fill="#565D7B"
     id="path2862" />
  <path
     fill-rule="evenodd"
     clip-rule="evenodd"
     d="M249.097 176.486s7.554-4.915 10.098-4.915c.275 0 .49.058.632.183 1.434 1.31-10.73 4.732-10.73 4.732z"
     fill="#363B53"
     id="path2864" />
  <path
     fill-rule="evenodd"
     clip-rule="evenodd"
     d="M233.68 211.442l3.383 7.514s1.865-4.665.851-6.363c-1.046-1.693-4.234-1.151-4.234-1.151zm23.274 15.814s-10.348 10.762-11.011 11.61l-3.013 15.199c4.154.634 23.28-16.549 23.28-16.549l1.511-6.565-2.886-7.349-7.881 3.654z"
     fill="#E7D7CD"
     id="path2866" />
  <path
     fill-rule="evenodd"
     clip-rule="evenodd"
     d="M247.364 249.615s.493-1.543.469-3.82c.074-1.628-.238-3.492-1.166-5.582-.185-.435-.401-.87-.644-1.307 6 5.246 1.341 10.709 1.341 10.709z"
     fill="#CBBBB1"
     id="path2868" />
  <path
     fill-rule="evenodd"
     clip-rule="evenodd"
     d="M258.347 224.907c7.262 1.68 9.256 10.259 9.256 10.259s13.897-10.43 7.777-18.498c-6.127-8.084-17.033 8.239-17.033 8.239z"
     fill="#A3A9C4"
     id="path2870" />
  <path
     fill-rule="evenodd"
     clip-rule="evenodd"
     d="M218.263 195.631l-1.152.425 1.458 22.018 10.52 8.589.855-.667v-24.559l-11.681-5.806z"
     fill="#000307"
     id="path2872" />
  <path
     fill-rule="evenodd"
     clip-rule="evenodd"
     d="M217.111 196.056l.154 22.483 11.841 8.124-.017-24.656-11.978-5.951z"
     fill="#232625"
     id="path2874" />
  <path
     fill-rule="evenodd"
     clip-rule="evenodd"
     d="M230.723 208.928h-.831s-5.013 1.099-5.38 3.092c-.379 1.986.61 4.664 1.872 6.216 1.264 1.555 4.631 5.001 5.617 4.676 2.307 7.753 3.442 30.479 11.03 31.623 0 0 8.442-5.206 3.012-15.199-2.673-7.315-5.26-10.957-7.776-18.502-.996-5.653-4.418-11.175-7.544-11.906zm-18.618-3.433c2.489-.53 7.231 1.451 8.06 3.728.83 2.277-1.492 3.887-1.492 3.887s-4.045 2.243-6.164-.147c-1.538-1.726-2.904-6.89-.404-7.468z"
     fill="#E7D7CD"
     id="path2876" />
  <mask
     id="a"
     maskUnits="userSpaceOnUse"
     x="209"
     y="217"
     width="5"
     height="12">
    <path
       fill-rule="evenodd"
       clip-rule="evenodd"
       d="M209.013 228.163s.163-.251.425-.698a34.317 34.317 0 002.393-4.827c.608-1.484 1.166-3.146 1.486-4.817.044-.218.062-.334.062-.34.08 7.269-4.366 10.682-4.366 10.682z"
       fill="#fff"
       id="path2878" />
  </mask>
  <g
     mask="url(#a)"
     id="g2883">
    <path
       fill-rule="evenodd"
       clip-rule="evenodd"
       d="M209.013 228.163h4.446v-10.682h-4.446v10.682z"
       fill="#CBBBB1"
       id="path2881" />
  </g>
  <defs
     id="defs2941">
    <linearGradient
       id="linearGradient23998"
       x1="280.412"
       y1="0"
       x2="280.412"
       y2="332.679"
       gradientUnits="userSpaceOnUse">
      <stop
         stop-color="#DE3CE1"
         stop-opacity=".01"
         id="stop23992"
         style="stop-color:#3333ff;stop-opacity:0.01176471" />
      <stop
         offset=".818"
         stop-color="#DE3CE1"
         stop-opacity=".545"
         id="stop23994"
         style="stop-color:#3333ff;stop-opacity:0.54509807" />
      <stop
         offset="1"
         stop-color="#DE3CE1"
         stop-opacity=".01"
         id="stop23996"
         style="stop-color:#3333ff;stop-opacity:0.01176471" />
    </linearGradient>
    <linearGradient
       id="linearGradient23988"
       x1="280.412"
       y1="0"
       x2="280.412"
       y2="332.679"
       gradientUnits="userSpaceOnUse">
      <stop
         stop-color="#DE3CE1"
         stop-opacity=".01"
         id="stop23982"
         style="stop-color:#3333ff;stop-opacity:0.01176471" />
      <stop
         offset=".818"
         stop-color="#DE3CE1"
         stop-opacity=".545"
         id="stop23984"
         style="stop-color:#3333ff;stop-opacity:0.54509807" />
      <stop
         offset="1"
         stop-color="#DE3CE1"
         stop-opacity=".01"
         id="stop23986"
         style="stop-color:#3333ff;stop-opacity:0.01176471" />
    </linearGradient>
    <linearGradient
       id="linearGradient23980"
       x1="258.694"
       y1="0"
       x2="258.694"
       y2="332.679"
       gradientUnits="userSpaceOnUse">
      <stop
         stop-color="#DE3CE1"
         stop-opacity=".01"
         id="stop23974"
         style="stop-color:#3333ff;stop-opacity:0.01176471" />
      <stop
         offset=".818"
         stop-color="#DE3CE1"
         stop-opacity=".545"
         id="stop23976"
         style="stop-color:#3333ff;stop-opacity:0.54509807" />
      <stop
         offset="1"
         stop-color="#DE3CE1"
         stop-opacity=".01"
         id="stop23978"
         style="stop-color:#3333ff;stop-opacity:0.01176471" />
    </linearGradient>
    <linearGradient
       id="paint0_linear"
       x1="3.871"
       y1="460.883"
       x2="546"
       y2="460.883"
       gradientUnits="userSpaceOnUse">
      <stop
         stop-color="#EFF0F7"
         id="stop2885" />
      <stop
         offset="1"
         stop-color="#CDD1E2"
         id="stop2887" />
    </linearGradient>
    <linearGradient
       id="paint1_linear"
       x1="252.74001"
       y1="0"
       x2="252.74001"
       y2="332.772"
       gradientUnits="userSpaceOnUse"
       spreadMethod="pad">
      <stop
         stop-color="#DE3CE1"
         stop-opacity=".01"
         id="stop2890"
         style="stop-color:#3333ff;stop-opacity:0.01176471" />
      <stop
         offset=".818"
         stop-color="#DE3CE1"
         stop-opacity=".545"
         id="stop2892"
         style="stop-color:#3333ff;stop-opacity:0.54509807" />
      <stop
         offset="1"
         stop-color="#DE3CE1"
         stop-opacity=".01"
         id="stop2894"
         style="stop-color:#3333ff;stop-opacity:0.01176471" />
    </linearGradient>
    <linearGradient
       id="paint2_linear"
       x1="298.33099"
       y1="0"
       x2="298.33099"
       y2="330.479"
       gradientUnits="userSpaceOnUse"
       xlink:href="#paint3_linear">
      <stop
         stop-color="#DE3CE1"
         stop-opacity=".01"
         id="stop2897"
         style="stop-color:#3333ff;stop-opacity:0.01176471" />
      <stop
         offset=".818"
         stop-color="#DE3CE1"
         stop-opacity=".545"
         id="stop2899"
         style="stop-color:#3333ff;stop-opacity:0.54509807" />
      <stop
         offset="1"
         stop-color="#DE3CE1"
         stop-opacity=".01"
         id="stop2901"
         style="stop-color:#3333ff;stop-opacity:0.01176471" />
    </linearGradient>
    <linearGradient
       id="paint3_linear"
       x1="280.412"
       y1="0"
       x2="280.412"
       y2="332.679"
       gradientUnits="userSpaceOnUse">
      <stop
         stop-color="#DE3CE1"
         stop-opacity=".01"
         id="stop2904" />
      <stop
         offset=".818"
         stop-color="#DE3CE1"
         stop-opacity=".545"
         id="stop2906" />
      <stop
         offset="1"
         stop-color="#DE3CE1"
         stop-opacity=".01"
         id="stop2908" />
    </linearGradient>
    <linearGradient
       id="paint4_linear"
       x1="258.694"
       y1="0"
       x2="258.694"
       y2="332.67899"
       gradientUnits="userSpaceOnUse"
       xlink:href="#paint1_linear">
      <stop
         stop-color="#DE3CE1"
         stop-opacity=".01"
         id="stop2911"
         style="stop-color:#3333ff;stop-opacity:0.01176471" />
      <stop
         offset=".818"
         stop-color="#DE3CE1"
         stop-opacity=".545"
         id="stop2913"
         style="stop-color:#3333ff;stop-opacity:0.54509807" />
      <stop
         offset="1"
         stop-color="#DE3CE1"
         stop-opacity=".01"
         id="stop2915"
         style="stop-color:#3333ff;stop-opacity:0.01176471" />
    </linearGradient>
    <linearGradient
       id="paint5_linear"
       x1="302.89"
       y1="130.677"
       x2="303.146"
       y2="134.797"
       gradientUnits="userSpaceOnUse">
      <stop
         stop-color="#fff"
         id="stop2918" />
      <stop
         offset="1"
         stop-color="#3500DB"
         stop-opacity=".01"
         id="stop2920" />
    </linearGradient>
    <linearGradient
       id="paint6_linear"
       x1="310.979"
       y1="126.651"
       x2="311.189"
       y2="131.167"
       gradientUnits="userSpaceOnUse">
      <stop
         stop-color="#fff"
         id="stop2923" />
      <stop
         offset="1"
         stop-color="#3500DB"
         stop-opacity=".01"
         id="stop2925" />
    </linearGradient>
    <filter
       id="filter0_d"
       x="0"
       y="147"
       width="546"
       height="318"
       filterUnits="userSpaceOnUse"
       color-interpolation-filters="sRGB">
      <feFlood
         flood-opacity="0"
         result="BackgroundImageFix"
         id="feFlood2928" />
      <feColorMatrix
         in="SourceAlpha"
         values="0 0 0 0 0 0 0 0 0 0 0 0 0 0 0 0 0 0 127 0"
         id="feColorMatrix2930" />
      <feOffset
         dy="3"
         id="feOffset2932" />
      <feColorMatrix
         values="0 0 0 0 0.758371 0 0 0 0 0.779706 0 0 0 0 0.872157 0 0 0 1 0"
         id="feColorMatrix2934" />
      <feBlend
         in2="BackgroundImageFix"
         result="effect1_dropShadow"
         id="feBlend2936" />
      <feBlend
         in="SourceGraphic"
         in2="effect1_dropShadow"
         result="shape"
         id="feBlend2938" />
    </filter>
    <linearGradient
       inkscape:collect="always"
       xlink:href="#linearGradient23988"
       id="linearGradient23972"
       gradientUnits="userSpaceOnUse"
       x1="280.41199"
       y1="0"
       x2="280.41199"
       y2="332.67899" />
    <linearGradient
       inkscape:collect="always"
       xlink:href="#paint1_linear"
       id="linearGradient23990"
       gradientUnits="userSpaceOnUse"
       x1="252.74001"
       y1="0"
       x2="252.74001"
       y2="332.772"
       spreadMethod="pad" />
  </defs>
</svg>
