<?xml version="1.0" encoding="UTF-8" standalone="no"?>
<svg
   width="404"
   height="404"
   version="1.1"
   id="svg14348"
   sodipodi:docname="problems_5.svg"
   inkscape:version="1.1.2 (b8e25be833, 2022-02-05)"
   xmlns:inkscape="http://www.inkscape.org/namespaces/inkscape"
   xmlns:sodipodi="http://sodipodi.sourceforge.net/DTD/sodipodi-0.dtd"
   xmlns:xlink="http://www.w3.org/1999/xlink"
   xmlns="http://www.w3.org/2000/svg"
   xmlns:svg="http://www.w3.org/2000/svg">
  <sodipodi:namedview
     id="namedview14350"
     pagecolor="#505050"
     bordercolor="#eeeeee"
     borderopacity="1"
     inkscape:pageshadow="0"
     inkscape:pageopacity="0"
     inkscape:pagecheckerboard="0"
     showgrid="false"
     inkscape:zoom="2.0519802"
     inkscape:cx="201.75633"
     inkscape:cy="84.79614"
     inkscape:window-width="1600"
     inkscape:window-height="837"
     inkscape:window-x="-1608"
     inkscape:window-y="159"
     inkscape:window-maximized="1"
     inkscape:current-layer="g14166" />
  <defs
     id="defs14126">
    <path
       d="M14.215 238.63l169.148-97.438c10.19-5.87 26.71-5.87 36.9 0l169.147 97.439h14.216v14.343c.03 3.87-2.516 7.746-7.642 10.7L220.262 364.897c-10.189 5.871-26.71 5.871-36.899 0L7.642 263.673C2.516 260.72-.031 256.845 0 252.974v-14.343h14.215z"
       id="b" />
    <path
       d="M1.878 2.877a.924.924 0 01.015-.09l-.015.09z"
       id="e" />
    <path
       d="M8.345 11.8L6.488 5.573S2.805 2.45.761.877l6.328 3.886c.312 2.332.984 5.084 1.858 6.025l-.128.474c-.11.264-.272.439-.474.539z"
       id="g" />
    <path
       d="M0 5.513V21.34a5.174 5.174 0 005.175 5.174h7.382l3.18 6.361c.75 1.5 2.89 1.5 3.64 0l3.18-6.361h7.604a5.173 5.173 0 005.174-5.174V5.513A5.174 5.174 0 0030.16.338H5.175A5.175 5.175 0 000 5.513"
       id="j" />
    <linearGradient
       x1="2.1717768"
       y1="333.40022"
       x2="306.3452"
       y2="333.40022"
       id="c"
       gradientTransform="scale(1.3175537,0.75898232)"
       gradientUnits="userSpaceOnUse">
      <stop
         stop-color="#EFF0F7"
         offset="0%"
         id="stop14104" />
      <stop
         stop-color="#CDD1E2"
         offset="100%"
         id="stop14106" />
    </linearGradient>
    <linearGradient
       x1="44.765366"
       y1="218.54704"
       x2="130.27984"
       y2="327.11305"
       id="d"
       gradientTransform="matrix(1.2369105,0,0,0.80846595,91,4.556)"
       gradientUnits="userSpaceOnUse">
      <stop
         stop-opacity="0"
         offset="0%"
         id="stop14109" />
      <stop
         stop-opacity=".051"
         offset="24.735%"
         id="stop14111" />
      <stop
         stop-opacity=".081"
         offset="100%"
         id="stop14113" />
    </linearGradient>
    <filter
       x="0"
       y="0"
       width="1"
       height="1.0086018"
       filterUnits="objectBoundingBox"
       id="a">
      <feOffset
         dy="2"
         in="SourceAlpha"
         result="shadowOffsetOuter1"
         id="feOffset14116" />
      <feColorMatrix
         values="0 0 0 0 0.758370925 0 0 0 0 0.779705753 0 0 0 0 0.872156675 0 0 0 1 0"
         in="shadowOffsetOuter1"
         id="feColorMatrix14118" />
    </filter>
    <filter
       x="0"
       y="0"
       width="1.0424508"
       height="1"
       filterUnits="objectBoundingBox"
       id="i">
      <feOffset
         dx="1.5"
         in="SourceAlpha"
         result="shadowOffsetOuter1"
         id="feOffset14121" />
      <feColorMatrix
         values="0 0 0 0 0.128692844 0 0 0 0 0.291267986 0 0 0 0 0.707350128 0 0 0 1 0"
         in="shadowOffsetOuter1"
         id="feColorMatrix14123" />
    </filter>
  </defs>
  <g
     transform="translate(0,4.556)"
     id="g14132"
     style="fill:none;fill-rule:evenodd">
    <use
       fill="#000000"
       filter="url(#a)"
       xlink:href="#b"
       id="use14128"
       x="0"
       y="0"
       width="100%"
       height="100%" />
    <use
       fill="url(#c)"
       xlink:href="#b"
       id="use14130"
       style="fill:url(#c)"
       x="0"
       y="0"
       width="100%"
       height="100%" />
  </g>
  <g
     stroke="#d100ef"
     stroke-linecap="round"
     stroke-width="2.7"
     id="g14138"
     style="fill:none;fill-rule:evenodd;stroke:#3333ff;stroke-opacity:1">
    <path
       d="m 304.455,186.272 42.482,-22.655 a 10.693,10.693 0 0 0 5.591,-9.402 V 125.17 m -62.418,52.802 47.195,-26.195 m -63.093,16.869 c 5.676,-3.132 20.066,-10.888 43.17,-23.27 2.299,-1.272 2.378,-4.554 0.144,-5.937 l -9.789,-6.061"
       id="path14134"
       style="stroke:#3333ff;stroke-opacity:1" />
    <path
       d="m 355.903,122.944 c 0,1.078 -1.512,1.954 -3.375,1.954 -1.865,0 -3.376,-0.876 -3.376,-1.954 0,-1.078 1.511,-1.952 3.376,-1.952 1.863,0 3.375,0.874 3.375,1.952 z m -47.27,8.48 c 0,1.079 -1.51,1.954 -3.375,1.954 -1.865,0 -3.376,-0.875 -3.376,-1.954 0,-1.078 1.511,-1.952 3.376,-1.952 1.864,0 3.375,0.874 3.375,1.952 z m 35.423,18.401 c 0,1.078 -1.512,1.952 -3.376,1.952 -1.864,0 -3.375,-0.874 -3.375,-1.952 0,-1.078 1.51,-1.954 3.375,-1.954 1.864,0 3.376,0.876 3.376,1.954 z"
       fill="#d100ef"
       id="path14136"
       style="stroke:#3333ff;stroke-opacity:1;fill:#3333ff;fill-opacity:1" />
  </g>
  <g
     stroke="#d100ef"
     stroke-linecap="round"
     stroke-width="2.7"
     id="g14146"
     style="fill:none;fill-rule:evenodd;stroke:#3333ff;stroke-opacity:1">
    <path
       d="M 102.957,194.738 62.7,170.924 a 9.473,9.473 0 0 1 -4.646,-8.156 v -25.122 a 8.47,8.47 0 0 0 -4.224,-7.33 l -11.079,-6.41"
       id="path14140"
       style="stroke:#3333ff;stroke-opacity:1" />
    <path
       d="M 118.761,185.593 77.612,162.036 a 8.468,8.468 0 0 1 -4.257,-7.349 v -13.074 m 60.207,35.417 -38.44,-22.739 c -2.888,-1.709 -2.868,-5.904 0.037,-7.585 l 8.8,-5.092"
       id="path14142"
       style="stroke:#3333ff;stroke-opacity:1" />
    <path
       d="m 76.73,139.66 c 0,1.079 -1.51,1.953 -3.375,1.953 -1.863,0 -3.375,-0.874 -3.375,-1.952 0,-1.079 1.512,-1.954 3.375,-1.954 1.865,0 3.376,0.875 3.376,1.954 z M 42.75,121.952 c 0,1.079 -1.51,1.953 -3.375,1.953 -1.864,0 -3.375,-0.874 -3.375,-1.953 0,-1.078 1.51,-1.952 3.375,-1.952 1.865,0 3.376,0.874 3.376,1.952 z m 67.96,17.708 c 0,1.079 -1.51,1.953 -3.375,1.953 -1.863,0 -3.375,-0.874 -3.375,-1.952 0,-1.079 1.512,-1.954 3.375,-1.954 1.865,0 3.376,0.875 3.376,1.954"
       fill="#d100ef"
       id="path14144"
       style="stroke:#3333ff;stroke-opacity:1;fill:#3333ff;fill-opacity:1" />
  </g>
  <g
     stroke="#d100ef"
     stroke-linecap="round"
     stroke-width="2.7"
     id="g14154"
     style="fill:none;fill-rule:evenodd;stroke:#3333ff;stroke-opacity:1">
    <path
       d="m 321.043,308.375 40.257,23.813 a 9.473,9.473 0 0 1 4.646,8.156 v 25.122 a 8.47,8.47 0 0 0 4.224,7.33 l 11.079,6.411"
       id="path14148"
       style="stroke:#3333ff;stroke-opacity:1" />
    <path
       d="m 305.239,317.52 41.149,23.556 a 8.468,8.468 0 0 1 4.257,7.35 v 13.073 m -60.207,-35.416 38.44,22.738 c 2.888,1.709 2.868,5.904 -0.037,7.585 l -8.8,5.092"
       id="path14150"
       style="stroke:#3333ff;stroke-opacity:1" />
    <path
       d="m 347.27,363.452 c 0,-1.079 1.51,-1.953 3.375,-1.953 1.863,0 3.375,0.874 3.375,1.953 0,1.078 -1.512,1.953 -3.375,1.953 -1.865,0 -3.376,-0.875 -3.376,-1.953 z m 33.98,17.708 c 0,-1.078 1.51,-1.952 3.375,-1.952 1.864,0 3.375,0.874 3.375,1.952 0,1.078 -1.51,1.952 -3.375,1.952 -1.865,0 -3.376,-0.874 -3.376,-1.952 z m -67.96,-17.708 c 0,-1.079 1.51,-1.953 3.375,-1.953 1.863,0 3.375,0.874 3.375,1.953 0,1.078 -1.512,1.953 -3.375,1.953 -1.865,0 -3.376,-0.875 -3.376,-1.953 z"
       fill="#d100ef"
       id="path14152"
       style="stroke:#3333ff;stroke-opacity:1;fill:#3333ff;fill-opacity:1" />
  </g>
  <g
     stroke="#d100ef"
     stroke-linecap="round"
     stroke-width="2.7"
     id="g14166"
     style="fill:none;fill-rule:evenodd;stroke:#3333ff;stroke-opacity:1">
    <path
       d="m 86.957,309.47 -42.296,23.965 c -4.57,2.56 -4.62,9.131 -0.09,11.76 l 66.69,38.69"
       id="path14156"
       style="stroke:#3333ff;stroke-opacity:1" />
    <path
       d="M 101.81,317.589 70.328,336.29 c -2.224,1.318 -2.209,4.547 0.028,5.842 l 30.106,17.934"
       id="path14158"
       style="stroke:#3333ff;stroke-opacity:1" />
    <path
       d="m 107.213,362.097 c 0,1.078 -1.51,1.952 -3.375,1.952 -1.865,0 -3.375,-0.874 -3.375,-1.952 0,-1.079 1.51,-1.953 3.375,-1.953 1.865,0 3.375,0.874 3.375,1.953 z m 10.798,23.817 c 0,1.078 -1.51,1.952 -3.375,1.952 -1.865,0 -3.376,-0.874 -3.376,-1.952 0,-1.078 1.511,-1.952 3.376,-1.952 1.864,0 3.375,0.874 3.375,1.952 z m -65.162,13.91 c 0,1.078 -1.511,1.952 -3.376,1.952 -1.863,0 -3.375,-0.874 -3.375,-1.952 0,-1.08 1.512,-1.954 3.375,-1.954 1.865,0 3.376,0.874 3.376,1.954 z"
       fill="#d100ef"
       id="path14160"
       style="stroke:#3333ff;stroke-opacity:1;fill:#3333ff;fill-opacity:1" />
    <path
       d="m 72.106,300 -49.137,26.52 a 9.473,9.473 0 0 0 -4.968,8.46 l 0.328,25.295 a 7.318,7.318 0 0 0 3.597,6.208 l 21.144,12.725 a 12.228,12.228 0 0 1 6.01,10.365 l 0.393,8.092 m -0.566,-32.087 45.531,26.346"
       id="path14162"
       style="stroke:#3333ff;stroke-opacity:1" />
    <path
       d="m 101.189,393.43 c 0,1.08 -1.511,1.953 -3.376,1.953 -1.863,0 -3.375,-0.873 -3.375,-1.952 0,-1.079 1.512,-1.953 3.375,-1.953 1.865,0 3.376,0.874 3.376,1.953 z M 48.907,363.626 c 0,1.078 -1.51,1.952 -3.375,1.952 -1.863,0 -3.376,-0.874 -3.376,-1.952 0,-1.08 1.513,-1.953 3.376,-1.953 1.864,0 3.375,0.873 3.375,1.953 z"
       fill="#d100ef"
       id="path14164"
       style="stroke:#3333ff;stroke-opacity:1;fill:#3333ff;fill-opacity:1" />
  </g>
  <path
     d="M 183.363,358.533 7.642,257.308 c -10.19,-5.87 -10.19,-15.387 0,-21.256 L 183.363,134.827 c 10.19,-5.87 26.71,-5.87 36.9,0 l 175.72,101.225 c 10.19,5.87 10.19,15.386 0,21.256 l -175.72,101.225 c -10.19,5.87 -26.71,5.87 -36.9,0"
     fill="#f4f4f4"
     id="path14168"
     style="fill-rule:evenodd" />
  <path
     d="M 183.363,355.664 7.642,254.44 c -10.19,-5.87 -10.19,-15.386 0,-21.256 L 183.363,131.959 c 10.19,-5.87 26.71,-5.87 36.9,0 l 175.72,101.225 c 10.19,5.87 10.19,15.387 0,21.256 l -175.72,101.225 c -10.19,5.871 -26.71,5.871 -36.9,0"
     fill="#fdfdfd"
     id="path14170"
     style="fill-rule:evenodd" />
  <path
     d="m 189.311,285.748 c -6.254,-3.443 -45.403,-35.45 -51.406,-39.339 -7.434,-4.81 -14.727,-9.84 -22.088,-14.76 -4.718,-3.153 -9.44,-6.304 -14.161,-9.46 -5.403,-3.61 -8.524,-6.03 -5.493,-12.346 2.035,-4.239 5.944,-7.564 9.618,-10.37 7.336,-5.588 15.74,-9.353 23.711,-13.901 16.294,-9.295 33.299,-17.287 50.274,-25.266 7.45,-3.499 14.574,-5.081 21.663,-5.081 8.528,0 40.552,27.99 49.476,31.992 8.699,3.897 38,22.597 48.005,35.293 5.841,7.412 5.497,17.194 -0.553,24.436 -4.927,5.907 -9.388,4.39 -14.57,10.038 -3.52,3.837 -1.086,7.019 -5.475,10.001 -4.373,2.974 -7.859,-4.178 -12.845,-2.51 -0.596,0.198 -1.33,-1.277 -1.07,-2.11 -0.494,-0.314 -1.48,0.751 -2.14,0.751 -3.339,0 -16.758,12.927 -19.07,14.082 -7.31,3.655 -14.62,7.31 -21.93,10.962 -4.301,2.153 -8.631,3.097 -12.936,3.097 -6.458,0 -12.858,-2.124 -19.01,-5.509 z"
     fill="url(#d)"
     id="path14172"
     style="fill:url(#d);fill-rule:evenodd" />
  <path
     d="m 202.81,189.804 2.593,-5.28 a 78.254,78.254 0 0 1 -2.65,-3.059 l -2.614,5.376 c -9.22,-10.524 -16.033,-23.248 -19.815,-35.69 l 5.993,0.795 a 97.927,97.927 0 0 1 -1.242,-3.826 l -5.826,-0.78 c -3.13,-12.368 -3.127,-24.193 0.693,-33.031 l 2.901,3.173 a 44.8,44.8 0 0 1 0.768,-2.892 l -2.455,-2.716 c 2.55,-4.62 6.106,-7.75 10.333,-9.44 2.823,-2.254 6.127,-3.62 9.782,-4.097 a 21.424,21.424 0 0 1 2.579,-0.2 27.874,27.874 0 0 1 3.7,0.16 c 9.94,1.152 21.417,7.652 31.959,19.242 a 99.53,99.53 0 0 1 1.733,1.968 l 0.156,0.174 c 7.874,9.238 13.948,20.026 17.783,30.814 l 0.046,0.132 c 5.413,15.24 6.329,30.464 1.532,41.145 l -0.428,0.913 a 23.357,23.357 0 0 1 -2.26,3.736 c -0.51,0.72 -1.034,1.369 -1.614,1.971 a 19.077,19.077 0 0 1 -7.1,4.956 c -4.17,3.305 -9.367,4.681 -15.155,4.196 l -1.093,-3.882 a 38.049,38.049 0 0 1 -2.897,-0.917 l 1.238,4.46 c -9.017,-1.607 -19.16,-7.48 -28.64,-17.401 M 186.208,93.071 a 23.51,23.51 0 0 0 -4.341,4.253 c -4.78,5.968 -7.46,14.596 -7.592,25.038 -0.099,6.963 0.948,14.728 3.251,23.031 0.16,0.6 0.336,1.187 0.527,1.793 a 67.423,67.423 0 0 0 1.21,3.815 l 0.01,0.018 c 4.55,13.508 11.813,26.236 20.438,36.682 0.86,1.04 1.737,2.07 2.624,3.07 6.633,7.432 13.946,13.568 21.396,17.736 5.515,3.09 11.108,5.123 16.531,5.847 3.117,0.42 6.028,0.399 8.756,-0.043 l 0.06,-0.036 c 1.984,-0.307 3.866,-0.841 5.59,-1.608 l 0.042,-0.021 c 14.981,-6.435 20.995,-27.922 13.443,-55.096 -9.626,-34.706 -37.708,-65.587 -62.754,-68.95 -7.666,-1.04 -14.165,0.642 -19.191,4.471"
     fill="#343038"
     id="path14174"
     style="fill-rule:evenodd" />
  <path
     fill="#acabb9"
     d="m 200.57,95.824 2.742,0.367 0.336,1.187 0.202,0.76 0.92,3.265 10.648,38.471 0.01,0.022 2.384,8.574 0.407,1.494 0.754,2.695 0.29,1.105 0.01,0.021 0.453,1.573 0.301,1.126 0.754,2.696 0.364,1.276 2.374,8.61 9.59,34.596 1.093,3.882 1.107,4.007 0.379,1.398 -2.742,-0.37 -0.389,-1.366 -1.107,-4.008 -1.238,-4.46 -9.424,-34.029 -2.406,-8.617 -0.01,-0.021 -0.333,-1.27 -0.754,-2.694 -0.31,-1.095 -0.012,-0.021 -0.431,-1.583 -0.304,-1.127 -0.743,-2.674 -0.418,-1.511 -2.405,-8.617 -10.638,-38.454 -0.753,-2.695 -0.365,-1.33 -0.336,-1.183"
     id="path14176"
     style="fill-rule:evenodd" />
  <path
     fill="#acabb9"
     d="m 175.506,146.833 0.856,0.115 1.691,0.238 1.196,0.154 5.826,0.78 21.934,2.942 6.25,0.83 1.012,0.154 0.022,-0.011 1.935,0.253 0.806,0.118 1.115,0.15 0.017,-0.011 0.807,0.114 1.949,0.274 1.019,0.125 6.116,0.824 27.732,3.715 2.886,0.392 1.001,0.135 1.055,3.826 -0.97,-0.129 -2.918,-0.399 -27.76,-3.726 -6.148,-0.834 -0.97,-0.125 -1.938,-0.253 -0.803,-0.117 -1.136,-0.14 -0.803,-0.113 -1.938,-0.254 -0.98,-0.15 -6.3,-0.823 -21.75,-2.941 -5.993,-0.795 -1.05,-0.132 -0.01,-0.018 -1.826,-0.242 -0.856,-0.114 -1.076,-3.812"
     id="path14178"
     style="fill-rule:evenodd" />
  <path
     fill="#acabb9"
     d="m 177.533,107.899 0.832,0.894 2.79,3.08 2.456,2.717 24.707,27.156 6.105,6.702 1.062,1.166 1.906,2.079 0.758,0.863 0.017,-0.011 1.097,1.22 0.01,0.02 0.79,0.87 1.903,2.082 0.944,1.045 6.018,6.595 27.161,29.873 1.981,2.17 0.8,0.889 1.047,1.144 -1.196,2.42 -1.019,-1.133 -1.245,-1.348 -28.732,-31.562 -6.035,-6.666 -0.91,-0.984 -1.913,-2.1 -0.779,-0.852 -1.114,-1.209 -0.01,-0.021 -0.79,-0.87 -1.881,-2.093 -0.022,0.01 -1.008,-1.112 -6.141,-6.763 -24.279,-26.688 -2.9,-3.173 -2.781,-3.06 -0.846,-0.919 1.217,-2.431"
     id="path14180"
     style="fill-rule:evenodd" />
  <path
     d="m 233.427,118.98 c 0.436,0.438 0.85,0.887 1.278,1.354 0.491,0.538 0.955,1.066 1.425,1.615 9.159,10.56 15.934,23.255 19.659,35.648 a 68.576,68.576 0 0 1 1.054,3.825 c 3.099,12.307 3.07,24.04 -0.754,32.828 -0.18,0.424 -0.371,0.827 -0.562,1.23 -0.209,0.417 -0.4,0.82 -0.633,1.194 -1.518,2.742 -3.396,4.98 -5.537,6.674 -4.17,3.305 -9.367,4.681 -15.155,4.196 -0.905,-0.057 -1.825,-0.189 -2.752,-0.339 -9.017,-1.607 -19.16,-7.48 -28.64,-17.401 -0.482,-0.517 -0.96,-1.034 -1.454,-1.572 -0.414,-0.45 -0.821,-0.93 -1.217,-1.39 -9.22,-10.525 -16.033,-23.249 -19.815,-35.691 a 107.488,107.488 0 0 1 -1.075,-3.811 c -3.13,-12.368 -3.127,-24.193 0.693,-33.031 0.18,-0.424 0.368,-0.827 0.58,-1.24 0.213,-0.418 0.4,-0.82 0.634,-1.195 2.55,-4.62 6.106,-7.75 10.333,-9.44 3.166,-1.284 6.732,-1.737 10.535,-1.402 0.885,0.072 1.826,0.19 2.745,0.371 9.05,1.668 19.192,7.59 28.658,17.576 m -51.56,-21.655 c -2.936,2.24 -5.391,5.316 -7.309,9.195 -10.637,21.708 0.191,60.764 24.162,87.1 17.295,19.005 36.777,26.271 50.298,20.692 l 0.06,-0.036 c 5.158,-2.178 9.449,-6.242 12.417,-12.246 6.392,-13.049 5.037,-32.35 -2.268,-51.402 l -0.046,-0.132 c -4.16,-10.76 -10.185,-21.416 -17.783,-30.814 l -0.156,-0.174 A 103.87,103.87 0 0 0 237.34,114.95 C 217.66,93.346 195.168,86.9 181.867,97.324"
     fill="#acabb9"
     id="path14182"
     style="fill-rule:evenodd" />
  <path
     d="m 200.906,97.007 c 0.41,0.029 0.853,0.064 1.284,0.129 0.489,0.064 0.984,0.146 1.458,0.242 1.295,0.232 2.6,0.535 3.902,0.92 9.247,2.748 18.72,9.248 27.137,18.143 0.895,0.966 1.804,1.95 2.685,2.98 9.279,10.678 17.03,24.207 21.303,38.568 0.191,0.61 0.368,1.194 0.538,1.814 0.184,0.688 0.357,1.359 0.548,2.018 2.884,11.476 3.078,21.755 0.998,29.951 -0.495,1.99 -1.121,3.843 -1.89,5.537 a 26.53,26.53 0 0 1 -1.167,2.431 c -4.482,8.19 -12.233,12.7 -22.393,11.811 a 21.465,21.465 0 0 1 -1.454,-0.139 c -0.431,-0.067 -0.866,-0.135 -1.298,-0.2 -2.925,-0.506 -5.876,-1.418 -8.826,-2.705 -7.624,-3.27 -15.233,-8.913 -22.16,-16.175 a 94.606,94.606 0 0 1 -2.674,-2.963 c -9.35,-10.66 -17.143,-24.221 -21.46,-38.61 -0.211,-0.646 -0.395,-1.337 -0.59,-1.997 -0.17,-0.617 -0.329,-1.216 -0.485,-1.814 -2.313,-9.099 -2.932,-17.452 -2.087,-24.586 0.478,-4.132 1.472,-7.871 2.887,-11.112 0.378,-0.86 0.778,-1.68 1.203,-2.457 4.514,-8.231 12.314,-12.745 22.541,-11.786 M 172.701,148.2 c 9.64,34.728 37.74,65.598 62.757,68.95 7.684,1.03 14.182,-0.653 19.21,-4.482 l 0.042,-0.021 c 11.359,-8.656 15.296,-28.247 8.638,-52.3 C 253.719,125.64 225.62,94.773 200.591,91.4 c -5.423,-0.724 -10.234,-0.103 -14.383,1.672 -14.996,6.414 -21.032,27.912 -13.507,55.128"
     fill="#343038"
     id="path14184"
     style="fill-rule:evenodd" />
  <path
     d="m 191.49,102.433 c -2.452,1.933 -4.536,4.553 -6.163,7.836 a 30.388,30.388 0 0 0 -1.716,4.321 l -2.455,-2.716 c 2.55,-4.62 6.106,-7.75 10.333,-9.44"
     fill="#acabb9"
     id="path14186"
     style="fill-rule:evenodd" />
  <path
     d="m 98.797,50.54 c 0,-1.987 -1.387,-2.792 -3.092,-1.798 -1.709,0.992 -3.095,3.409 -3.095,5.398 0,1.986 1.386,2.792 3.095,1.797 1.705,-0.991 3.092,-3.408 3.092,-5.398"
     fill="#343038"
     id="path14188"
     style="fill-rule:evenodd" />
  <path
     fill="#343038"
     d="m 97.891,48.521 -4.376,7.637 22.906,13.326 4.376,-7.633 -22.906,-13.33"
     id="path14190"
     style="fill-rule:evenodd" />
  <path
     d="m 121.703,63.87 c 0,-1.99 -1.387,-2.796 -3.092,-1.801 -1.709,0.995 -3.095,3.412 -3.095,5.397 0,1.99 1.386,2.796 3.095,1.8 1.705,-0.994 3.092,-3.411 3.092,-5.397 m 40.046,-50.325 c 0,-1.986 -1.384,-2.792 -3.092,-1.797 -1.705,0.991 -3.092,3.408 -3.092,5.398 0,1.985 1.387,2.791 3.092,1.8 1.708,-0.995 3.092,-3.412 3.092,-5.401"
     fill="#343038"
     id="path14192"
     style="fill-rule:evenodd" />
  <path
     fill="#343038"
     d="m 160.843,11.526 -4.373,7.636 22.906,13.327 4.376,-7.633 -22.91,-13.33"
     id="path14194"
     style="fill-rule:evenodd" />
  <path
     d="m 184.658,26.874 c 0,-1.99 -1.387,-2.795 -3.095,-1.8 -1.709,0.994 -3.092,3.411 -3.092,5.397 0,1.99 1.383,2.795 3.092,1.8 1.708,-0.994 3.095,-3.411 3.095,-5.397 m 85.808,180.096 c -1.288,1.07 -2.282,2.6 -2.897,4.546 l -0.007,0.018 c -0.457,1.458 -0.704,3.144 -0.704,5.04 0,3.812 0.994,7.933 2.699,11.862 2.84,6.549 7.655,12.567 13.114,15.743 2.183,1.27 4.263,1.965 6.155,2.136 1.419,0.128 2.731,-0.043 3.902,-0.485 a 7.487,7.487 0 0 0 2.144,-1.248 c 2.257,-1.868 3.612,-5.158 3.612,-9.604 0,-5.08 -1.769,-10.713 -4.63,-15.708 a 38.76,38.76 0 0 0 -2.343,-3.608 c -2.522,-3.455 -5.564,-6.382 -8.84,-8.289 -4.914,-2.86 -9.304,-2.806 -12.205,-0.403"
     fill="#343038"
     id="path14196"
     style="fill-rule:evenodd" />
  <path
     d="m 264.042,219.077 c 0,-9.69 6.746,-13.615 15.074,-8.773 8.324,4.845 15.073,16.624 15.073,26.314 0,9.686 -6.75,13.611 -15.073,8.77 -8.328,-4.845 -15.074,-16.624 -15.074,-26.31"
     fill="#d8d6e8"
     id="path14198"
     style="fill-rule:evenodd" />
  <path
     d="m 279.116,246.247 c 8.73,5.084 15.813,0.963 15.813,-9.201 0,-10.161 -7.08,-22.521 -15.813,-27.602 -8.735,-5.084 -15.817,-0.962 -15.817,9.202 0,10.16 7.082,22.52 15.817,27.601 z m 0,-5.166 c -6.273,-3.647 -11.377,-12.556 -11.377,-19.854 0,-7.298 5.104,-10.267 11.377,-6.617 6.272,3.647 11.373,12.557 11.373,19.854 0,7.298 -5.101,10.268 -11.373,6.617 z"
     fill="#343038"
     id="path14200"
     style="fill-rule:evenodd" />
  <path
     d="m 275.557,229.915 c -3.955,-8.35 1.917,-11.768 7.114,-4.139 3.958,8.35 -1.917,11.769 -7.114,4.14"
     fill="#343038"
     id="path14202"
     style="fill-rule:evenodd" />
  <path
     d="m 278.298,228.311 0.04,0.025 a 0.736,0.736 0 0 0 1.103,-0.642 l 0.004,-55.288 -67.746,-40.075 v 33.27 l 3.892,2.923 v -28.742 l 59.962,34.888 v 48.846 a 5.545,5.545 0 0 0 2.745,4.795 m -129.168,-54.194 1.277,0.742 v -4.524 l -1.277,-0.745 c -2.979,-1.733 -5.473,-5.783 -5.798,-9.42 l -7.291,-75.919 c 0.322,-6.841 -4.504,-13.843 -10.305,-16.692 l -5.2,-3.044 c -2.565,-1.844 -4.348,1.754 -2.629,2.987 l 7.815,4.578 c 3.293,1.928 6.07,6.424 6.456,10.456 l 7.29,75.898 c 0.542,6.043 4.695,12.792 9.662,15.683"
     fill="#d8d6e8"
     id="path14204"
     style="fill-rule:evenodd" />
  <path
     fill="#d8d6e8"
     d="m 212.315,276.594 3.888,2.263 v -69.655 l -67.742,-40.076 5.901,30.286 3.888,2.927 -5.897,-25.762 59.962,34.889 v 65.128"
     id="path14206"
     style="fill-rule:evenodd" />
  <path
     d="M 274.938,160.595 220.929,128.48 c -2.607,-1.515 -4.8,-5.07 -5.098,-8.26 l -5.515,-59.484 c -0.488,-5.245 -4.365,-11.042 -8.62,-12.888 l -2.555,-1.11 -63.238,36.797 7.213,75.702 c 0.45,4.72 3.693,9.971 7.553,12.217 l 71.962,41.87 54.917,-32.668 c 10.447,-4.956 2.937,-16.806 -2.61,-20.061"
     fill="#343038"
     id="path14208"
     style="fill-rule:evenodd" />
  <path
     d="m 246.987,274.198 -0.485,0.224 -0.431,-0.17 -7.09,-6.343 c -1.45,-1.29 -2.964,-2.792 -3.445,-4.645 a 9.675,9.675 0 0 0 1.227,-0.514 c 0.336,1.59 1.748,2.974 3.082,4.171 l 7.089,6.343 0.053,0.934 m 4.896,3.408 c -1.28,-4.146 -5.837,-8.923 -11.087,-12.435 -1.227,-0.83 -1.655,-2.185 -2.01,-3.686 -0.12,-0.524 -0.247,-1.12 -0.378,-1.683 v -0.014 c -0.314,-1.145 -0.718,-2.29 -1.634,-3.145 l -13.071,-0.749 c -0.588,0.881 -1.186,1.8 -1.748,2.75 v 0.013 c -0.47,0.856 -0.955,1.762 -1.358,2.71 v 0.014 c -0.81,1.776 -1.476,3.683 -1.854,5.936 -0.248,1.077 -0.407,2.25 -0.495,3.487 l 0.063,0.025 c -0.102,1.262 0.718,2.538 2.416,3.447 l 18.06,9.594 c 3.212,1.711 8.264,1.526 11.306,-0.406 1.295,-0.856 1.985,-1.872 2.144,-2.885 h 0.025 v -0.723 c 0,-0.724 -0.117,-1.487 -0.379,-2.25"
     fill="#91309d"
     id="path14210"
     style="fill-rule:evenodd" />
  <path
     d="m 252.59,280.669 c -0.127,0.42 -0.031,0 -0.031,0 -0.16,1.03 -0.863,2.064 -2.176,2.934 -3.106,1.968 -8.26,2.164 -11.529,0.42 l -18.41,-9.779 c -2.833,-1.576 -2.529,-3.547 -2.529,-3.547 0.096,-1.259 0.33,-2.88 0.902,-3.783 -0.587,1.558 5.76,3.911 8.48,6.268 a 46.721,46.721 0 0 0 12.774,7.872 c 1.73,0.71 3.555,1.322 5.444,1.419 1.858,0.064 3.888,-0.403 5.187,-1.74 0.559,-0.578 1.563,-2.032 1.107,-3.37 0.255,0.778 1.058,1.612 0.782,3.306 m -5.604,-6.471 -0.485,0.224 -0.431,-0.17 -7.09,-6.343 c -1.45,-1.29 -2.964,-2.792 -3.445,-4.645 a 9.675,9.675 0 0 0 1.227,-0.514 c 0.336,1.59 1.748,2.974 3.082,4.171 l 7.089,6.343 0.053,0.934"
     fill="#dadada"
     id="path14212"
     style="fill-rule:evenodd" />
  <path
     fill="#dadada"
     d="m 235.646,267.171 -0.563,-0.32 0.23,-0.903 3.223,-1.932 0.895,0.228 -0.227,0.902 -3.222,1.932 -0.336,0.093 m 1.917,2.182 -0.548,-0.307 0.198,-0.905 3.392,-2.182 0.899,0.2 -0.198,0.909 -3.39,2.181 -0.353,0.104 m 2.247,2.053 -0.567,-0.324 0.237,-0.902 3.51,-2.054 0.891,0.236 -0.237,0.902 -3.51,2.057 -0.325,0.085 m 2.448,2.264 -0.541,-0.289 0.173,-0.912 3.305,-2.264 0.909,0.175 -0.174,0.916 -3.307,2.26 -0.365,0.114"
     id="path14214"
     style="fill-rule:evenodd" />
  <path
     d="m 219.097,258.23 c -0.117,-20.507 0.725,-66.28 1.984,-68.58 1.433,-2.609 3.853,-5.682 6.322,-7.318 3.484,-2.31 7.556,-4.396 11.65,-3.601 4.941,0.955 8.925,4.855 9.777,9.854 0.853,4.998 -7.05,66.903 -7.949,69.766 -0.555,1.779 -3.527,1.583 -6.378,1.387 -1.726,-0.118 -3.41,-0.24 -4.49,0.085 l -10.916,-1.593"
     fill="#3e5ccd"
     id="path14216"
     style="fill-rule:evenodd" />
  <path
     d="m 240.85,258.458 c -0.224,1.066 -0.913,2.121 -2.063,3.027 l -0.863,0.63 a 8.78,8.78 0 0 1 -1.16,0.635 9.675,9.675 0 0 1 -1.228,0.514 c -4.1,1.511 -9.467,1.369 -13.072,-0.553 -0.746,-0.396 -1.372,-0.845 -1.867,-1.33 -0.991,-0.962 -1.49,-2.04 -1.5,-3.144 v -0.04 c 0,-1.579 1.004,-3.187 3.028,-4.474 4.164,-2.645 11.097,-2.923 15.46,-0.595 2.61,1.383 3.707,3.383 3.264,5.33"
     fill="#3e5ccd"
     id="path14218"
     style="fill-rule:evenodd" />
  <path
     d="m 269.589,249.72 7.1,6.342 0.046,0.93 -0.478,0.222 -0.435,-0.164 -7.086,-6.343 c -1.404,-1.237 -2.84,-2.674 -3.389,-4.424 l -0.07,-0.225 c 0.431,-0.142 0.841,-0.317 1.238,-0.506 l 0.06,0.21 c 0.407,1.498 1.74,2.813 3.014,3.958 m 12.038,10.684 -0.035,-0.082 c -1.295,-4.117 -5.837,-8.863 -11.048,-12.356 -1.167,-0.778 -1.61,-2.04 -1.95,-3.462 l -0.06,-0.225 c -0.091,-0.399 -0.183,-0.845 -0.29,-1.294 l -0.091,-0.388 v -0.011 c -0.305,-1.141 -0.715,-2.285 -1.624,-3.141 l -9.718,-0.567 -3.364,-0.189 c -0.584,0.884 -1.178,1.8 -1.74,2.756 v 0.01 a 31.6,31.6 0 0 0 -1.366,2.707 v 0.014 l -0.057,0.128 c -0.736,1.637 -1.355,3.401 -1.73,5.437 l -0.07,0.378 c -0.245,1.07 -0.397,2.246 -0.489,3.483 l 0.068,0.025 c -0.103,1.27 0.714,2.542 2.409,3.448 l 9.038,4.802 9.025,4.788 c 3.212,1.718 8.27,1.53 11.306,-0.4 1.295,-0.859 1.984,-1.871 2.137,-2.884 h 0.035 v -0.727 c 0,-0.72 -0.117,-1.483 -0.386,-2.25"
     fill="#91309d"
     id="path14220"
     style="fill-rule:evenodd" />
  <path
     d="m 282.338,263.463 -0.067,0.19 c -0.212,0.976 -0.913,1.931 -2.137,2.755 -3.11,1.964 -8.27,2.153 -11.529,0.41 l -18.416,-9.78 c -2.838,-1.564 -2.523,-3.543 -2.523,-3.543 0.096,-1.248 0.33,-2.86 0.888,-3.754 l 0.01,-0.021 c -0.583,1.55 5.76,3.907 8.48,6.26 0.63,0.542 1.274,1.07 1.928,1.565 a 45.914,45.914 0 0 0 10.85,6.307 c 1.727,0.706 3.549,1.319 5.441,1.426 1.857,0.057 3.888,-0.414 5.186,-1.743 0.538,-0.553 1.483,-1.93 1.143,-3.213 l -0.035,-0.153 c 0.258,0.763 1.05,1.6 0.781,3.294 m -5.603,-6.467 -0.485,0.225 -0.431,-0.171 -7.09,-6.343 c -1.447,-1.29 -2.964,-2.791 -3.445,-4.645 a 9.676,9.676 0 0 0 1.227,-0.514 c 0.34,1.59 1.748,2.974 3.081,4.172 l 7.09,6.342 0.053,0.934"
     fill="#dadada"
     id="path14222"
     style="fill-rule:evenodd" />
  <path
     fill="#dadada"
     d="m 265.393,249.97 -0.562,-0.322 0.23,-0.902 3.222,-1.932 0.895,0.228 -0.226,0.902 -3.223,1.933 -0.336,0.092 m 1.917,2.182 -0.548,-0.307 0.198,-0.905 3.393,-2.182 0.898,0.2 -0.198,0.909 -3.389,2.182 -0.353,0.103 m 2.246,2.057 -0.566,-0.328 0.237,-0.902 3.51,-2.053 0.89,0.235 -0.236,0.902 -3.51,2.053 -0.325,0.093 m 2.448,2.26 -0.541,-0.288 0.173,-0.913 3.304,-2.264 0.91,0.175 -0.174,0.916 -3.308,2.26 -0.364,0.114"
     id="path14224"
     style="fill-rule:evenodd" />
  <path
     d="m 262.775,181.109 c -16.46,-6.024 -26.905,-10.21 -31.332,-12.557 -8.608,-4.564 -23.47,-10.881 -44.589,-18.952 -3.611,-2.118 12.545,-8.114 12.262,-12.318 l 1.51,-19.19 c 33.159,17.76 79.859,30.121 77.941,53.287 z"
     fill="#3e5ccd"
     id="path14226"
     style="fill-rule:evenodd" />
  <path
     d="M 221.204,198.437 172.28,167.832 c -3.612,-2.118 -4.72,-8.52 -5.002,-12.724 l 1.51,-19.191 c 33.158,17.762 79.858,30.122 77.94,53.288 z m 49.492,42.794 -0.057,0.317 -0.035,0.107 c -0.283,0.895 -1.181,1.248 -2.36,1.33 -1.1,0.064 -2.451,-0.1 -3.788,-0.26 -1.804,-0.221 -3.584,-0.442 -4.702,-0.104 l -2.582,-0.377 -8.278,-1.213 -0.06,-0.01 c -0.092,-16.596 0.445,-49.727 1.32,-62.989 v -0.01 c 0.07,-1.202 0.151,-2.236 0.247,-3.085 l 0.021,-0.295 0.01,-0.082 c 0.132,-1.141 0.259,-1.872 0.39,-2.118 0.431,-0.788 0.955,-1.626 1.553,-2.45 1.355,-1.893 3.046,-3.729 4.765,-4.873 3.477,-2.303 7.553,-4.389 11.653,-3.6 4.938,0.965 8.922,4.862 9.774,9.864 0.832,4.834 -6.597,63.695 -7.87,69.848"
     fill="#3e5ccd"
     id="path14228"
     style="fill-rule:evenodd" />
  <path
     d="m 270.696,241.231 -0.057,0.317 -0.035,0.107 c -0.258,1.002 -0.934,1.979 -2.01,2.849 a 7.19,7.19 0 0 1 -0.887,0.634 11.51,11.51 0 0 1 -1.132,0.624 c -0.386,0.19 -0.796,0.368 -1.228,0.52 -2.31,0.86 -5.034,1.188 -7.613,0.963 -1.998,-0.164 -3.912,-0.67 -5.49,-1.504 -0.792,-0.424 -1.447,-0.906 -1.96,-1.437 -0.994,-0.987 -1.46,-2.128 -1.39,-3.273 0.07,-1.529 1.075,-3.058 3.01,-4.296 1.299,-0.823 2.852,-1.411 4.51,-1.754 3.701,-0.809 7.943,-0.435 10.953,1.166 2.501,1.33 3.623,3.212 3.33,5.084"
     fill="#3e5ccd"
     id="path14230"
     style="fill-rule:evenodd" />
  <g
     transform="translate(246.655,246.985)"
     id="g14237"
     style="fill:none;fill-rule:evenodd">
    <mask
       id="f"
       fill="#ffffff">
      <use
         xlink:href="#e"
         id="use14232"
         x="0"
         y="0"
         width="100%"
         height="100%" />
    </mask>
    <path
       fill="#d2d2d1"
       mask="url(#f)"
       d="M 1.878,2.877 H 1.896 V 2.787 H 1.878 Z"
       id="path14235" />
  </g>
  <path
     d="m 258.972,257.545 a 39.853,39.853 0 0 1 -1.928,-1.565 c -2.639,-2.282 -8.677,-4.563 -8.511,-6.118 l 0.014,-0.089 c 0.007,-0.018 0.01,-0.036 0.018,-0.053 l -0.01,0.021 c 0.374,-2.036 0.993,-3.8 1.73,-5.437 0.512,0.531 1.167,1.013 1.959,1.437 1.578,0.834 3.492,1.34 5.49,1.504 0.407,3.498 0.828,6.945 1.238,10.3"
     fill="#692871"
     id="path14239"
     style="fill-rule:evenodd" />
  <path
     d="m 259.52,261.994 -9.331,-4.955 c -2.318,-1.28 -2.53,-2.83 -2.533,-3.358 0,-0.118 0.01,-0.186 0.01,-0.186 0.096,-1.248 0.33,-2.86 0.888,-3.754 l 0.01,-0.021 c -0.006,0.017 -0.01,0.035 -0.017,0.053 -0.007,0.032 -0.01,0.06 -0.014,0.09 -0.166,1.554 5.872,3.835 8.511,6.117 0.63,0.542 1.274,1.07 1.928,1.565 0.174,1.458 0.361,2.906 0.538,4.332 l 0.01,0.117"
     fill="#b4b4b4"
     id="path14241"
     style="fill-rule:evenodd" />
  <path
     d="m 250.422,174.642 c -4.344,-2.325 -8.642,-4.65 -12.71,-6.82 l 12.72,6.745 -0.01,0.075"
     fill="#2f2c32"
     id="path14243"
     style="fill-rule:evenodd" />
  <path
     d="m 248.834,241.02 a 719.54,719.54 0 0 1 -0.01,-4.006 c 0,-9.295 0.148,-21.933 0.41,-33.573 0.035,-0.029 0.074,-0.061 0.113,-0.09 a 1.512,1.512 0 0 0 -0.114,0.047 c 0.227,-10.207 0.542,-19.637 0.92,-25.366 l -12.317,-5.915 c -9.006,-6.966 -13.465,-10.531 -13.378,-10.695 0.432,-0.788 27.319,9.394 27.917,8.57 a 34.11,34.11 0 0 0 7.942,0.945 c 0.138,0 0.28,0 0.417,-0.003 -1.305,2.085 -2.36,4.567 -3.212,7.38 -4.11,13.711 -3.209,35.344 -1.107,56.667 -1.66,0.343 -3.212,0.93 -4.51,1.754 -1.936,1.238 -2.94,2.767 -3.011,4.296 l -0.06,-0.01 z"
     fill="#2d46a3"
     id="path14245"
     style="fill-rule:evenodd" />
  <path
     d="m 257.734,247.245 c -1.998,-0.164 -3.912,-0.67 -5.49,-1.504 -0.792,-0.424 -1.447,-0.906 -1.96,-1.437 -0.93,-0.927 -1.4,-1.99 -1.397,-3.059 0,-0.071 0.003,-0.142 0.007,-0.214 0.07,-1.529 1.075,-3.058 3.01,-4.296 1.299,-0.823 2.852,-1.411 4.51,-1.754 0.128,1.298 0.255,2.603 0.397,3.897 0.117,1.13 0.233,2.25 0.36,3.366 0.188,1.682 0.376,3.344 0.563,5.001"
     fill="#2d46a3"
     id="path14247"
     style="fill-rule:evenodd" />
  <path
     d="m 240.439,118.056 c -1.38,1.212 -3.283,1.565 -5.338,0.378 -6.085,-2.425 -14.458,-6.992 -24.01,-12.735 a 453.211,453.211 0 0 1 -7.263,-4.45 l -7.404,-39.604 c 0.92,-21.134 14.228,-17.723 20.904,1.615 l 4.181,22.396 19.011,21.266 c 3.294,3.672 2.498,8.888 -0.081,11.134"
     fill="#91309d"
     id="path14249"
     style="fill-rule:evenodd" />
  <path
     d="m 233.937,117.952 c -3.803,-1.604 -8.395,-3.95 -13.546,-6.834 l -5.532,-35.915 -1.295,-6.592 6.987,23.266 c 1.917,14.264 8.656,20.05 15.126,23.715 a 3.46,3.46 0 0 0 -0.134,0.535 l -0.46,-0.5 -0.382,0.803 -0.764,1.522"
     fill="#692871"
     id="path14251"
     style="fill-rule:evenodd" />
  <path
     d="m 207.698,243.192 c -1.287,1.07 -2.285,2.602 -2.9,4.549 l -0.004,0.018 c -0.46,1.454 -0.707,3.14 -0.707,5.04 0,3.812 0.997,7.93 2.699,11.859 2.844,6.549 7.655,12.567 13.114,15.743 2.186,1.273 4.266,1.968 6.159,2.136 1.415,0.128 2.73,-0.04 3.902,-0.485 a 7.487,7.487 0 0 0 2.143,-1.248 c 2.257,-1.868 3.612,-5.155 3.612,-9.604 0,-5.08 -1.769,-10.71 -4.634,-15.708 a 38.728,38.728 0 0 0 -2.338,-3.608 c -2.526,-3.451 -5.569,-6.382 -8.844,-8.286 -4.91,-2.859 -9.3,-2.805 -12.202,-0.406"
     fill="#343038"
     id="path14253"
     style="fill-rule:evenodd" />
  <path
     d="m 201.27,255.3 c 0,-9.69 6.75,-13.616 15.074,-8.771 8.328,4.841 15.074,16.624 15.074,26.31 0,9.687 -6.75,13.616 -15.074,8.77 -8.324,-4.844 -15.073,-16.623 -15.073,-26.31"
     fill="#d8d6e8"
     id="path14255"
     style="fill-rule:evenodd" />
  <path
     d="m 216.344,282.473 c 8.735,5.08 15.813,0.962 15.817,-9.202 0,-10.164 -7.082,-22.525 -15.817,-27.605 -8.734,-5.08 -15.813,-0.962 -15.813,9.202 0,10.164 7.079,22.52 15.813,27.605 m 0,-5.166 c -6.272,-3.651 -11.373,-12.557 -11.373,-19.858 0,-7.298 5.101,-10.268 11.373,-6.617 6.273,3.65 11.377,12.556 11.377,19.854 0,7.298 -5.104,10.268 -11.377,6.62"
     fill="#343038"
     id="path14257"
     style="fill-rule:evenodd" />
  <path
     d="m 212.79,266.137 c -3.96,-8.35 1.916,-11.765 7.11,-4.139 3.958,8.35 -1.914,11.768 -7.11,4.14"
     fill="#343038"
     id="path14259"
     style="fill-rule:evenodd" />
  <path
     d="m 221.661,125.682 c 0,7.251 -3.852,13.96 -10.107,17.569 l -7.637,4.406 -10.772,6.239 c -3.216,1.84 -6.594,2.685 -9.927,2.695 -1.383,0 -2.766,-0.142 -4.114,-0.42 -8.865,-1.84 -16.177,-9.633 -16.177,-19.947 l -0.574,-21.306 a 7.006,7.006 0 0 0 -0.024,-1.461 l -0.043,-0.474 -1.16,-45.096 c 8.823,-15.565 34.23,-31.44 45.522,-17.162 2.243,2.837 6.622,14.018 6.622,16.389 l 1.589,8.089 6.098,39.57 0.39,6 0.314,4.909"
     fill="#91309d"
     id="path14261"
     style="fill-rule:evenodd" />
  <path
     d="m 219.14,243.174 a 18.75,18.75 0 0 0 -1.214,-0.585 l 0.208,-31.736 c 0.527,0.306 1.055,0.602 1.582,0.887 -0.283,9.797 -0.485,21.352 -0.577,31.434"
     fill="#d2d2d1"
     id="path14263"
     style="fill-rule:evenodd" />
  <path
     d="m 219.716,211.74 a 58.768,58.768 0 0 1 -1.582,-0.887 l 0.004,-0.143 1.581,0.92 c 0,0.039 0,0.075 -0.003,0.11"
     fill="#2f2c32"
     id="path14265"
     style="fill-rule:evenodd" />
  <path
     d="m 219.9,243.598 c -0.255,-0.15 -0.506,-0.288 -0.76,-0.424 0.091,-10.082 0.293,-21.637 0.576,-31.434 0.003,-0.035 0.003,-0.071 0.003,-0.11 0.089,-3.034 0.078,-11.961 0.18,-14.557 1.83,0.952 4.012,2.917 5.799,3.57 -1.84,13.473 -2.027,36.57 1.263,48.991 -2.126,-2.47 -4.521,-4.56 -7.061,-6.036 z"
     fill="#2d46a3"
     id="path14267"
     style="fill-rule:evenodd" />
  <path
     d="m 229.405,256.49 c -0.297,0 -11.497,-10.942 -11.497,-10.942 l 0.018,-2.959 a 18.75,18.75 0 0 1 1.974,1.01 c 2.54,1.475 4.935,3.564 7.06,6.035 0.676,2.553 1.487,4.86 2.445,6.834 0.007,0.015 0.007,0.022 0,0.022 m -67.182,-145.975 -1.476,-2.791 c -0.074,-0.082 -0.145,-0.16 -0.219,-0.239 l 1.56,-2.217 0.135,5.247"
     fill="#2f2c32"
     id="path14269"
     style="fill-rule:evenodd" />
  <path
     d="m 177.303,136.498 c -0.601,-0.289 -1.202,-0.581 -1.797,-0.873 l -13.283,-25.11 -0.135,-5.247 13.418,-19.081 -5.451,31.459 6.937,13.743 c 0.028,1.669 0.134,3.376 0.311,5.11"
     fill="#692871"
     id="path14271"
     style="fill-rule:evenodd" />
  <path
     d="m 184.364,60.112 0.259,0.242 c 3.82,3.173 10.687,4.325 15.321,2.578 4.638,-1.75 5.3,-5.744 1.475,-8.917 a 13.676,13.676 0 0 0 -3.003,-1.807 16.024,16.024 0 0 0 -1.847,-0.71 15.9,15.9 0 0 0 -0.973,-0.264 17.183,17.183 0 0 0 -1.585,-0.342 c -2.752,-0.463 -5.61,-0.317 -7.913,0.55 -1.592,0.605 -2.703,1.472 -3.34,2.466 l -0.378,0.788 c -0.311,0.824 -0.308,1.7 -0.036,2.596 0.315,0.955 0.977,1.918 2.02,2.82 z"
     fill="#f0c6b4"
     id="path14273"
     style="fill-rule:evenodd" />
  <path
     d="m 196.526,63.288 c 3.407,0.345 6.418,-0.535 7.564,-3.088 0.223,-0.741 0.584,-2.207 0.856,-3.155 0,0 0.495,-0.018 1.128,-0.036 0.772,-0.017 1.748,-0.017 2.19,0.036 8.112,1.07 11.947,-13.555 13.28,-25.765 0.496,-4.57 1.815,-9.466 -0.392,-13.487 l -0.103,-0.171 -0.085,-0.086 -0.584,-0.827 c -1.538,-2.139 -3.817,-3.69 -6.127,-5.02 C 209,8.673 202.756,7.087 197.11,9.21 c -3.902,1.447 -4.708,4.602 -7.103,8.395 -2.293,3.537 -2.944,5.743 -3.372,9.883 -1.694,16.071 -1.61,13.95 -2.377,17.554 -0.941,3.658 -0.82,3.658 -1.164,5.106 -1.181,7.037 6.863,12.417 13.432,13.14"
     fill="#f0c6b4"
     id="path14275"
     style="fill-rule:evenodd" />
  <path
     d="m 211.582,21.31 c -3.326,-0.114 -8.183,-3.369 -9.782,-3.925 -6.417,-2.232 -5.356,4.995 -6.11,14.656 -1.128,-0.067 -4.584,-3.846 -5.327,5.38 -0.941,5.804 -5.696,0.346 -5.678,0.136 -0.757,-0.86 -2.313,-3.13 -1.457,-11.166 2.494,-24.49 17.96,-25.16 31.905,-17.145 4.854,2.774 11.268,12.581 -3.551,12.064"
     fill="#3a4c81"
     id="path14277"
     style="fill-rule:evenodd" />
  <path
     d="m 186.638,26.091 c -0.474,3.458 0.485,8 1.773,9.03 1.525,1.227 3.085,-0.53 3.559,-3.989 0.474,-3.458 0.806,-6.905 -1.189,-8.26 -1.366,-0.927 -3.665,-0.24 -4.143,3.22"
     fill="#f0c6b4"
     id="path14279"
     style="fill-rule:evenodd" />
  <path
     d="m 196.875,63.21 c -0.45,0 -0.913,-0.025 -1.38,-0.07 -3.3,-1.43 -5.904,-4.882 -5.373,-10.365 l 0.668,-12.453 c 2.003,12.107 8.42,16.022 14.253,16.539 -0.633,0.018 -1.128,0.036 -1.128,0.036 -0.272,0.948 -0.633,2.413 -0.856,3.155 -0.987,2.203 -3.364,3.158 -6.184,3.158"
     fill="#d7ae9d"
     id="path14281"
     style="fill-rule:evenodd" />
  <path
     d="m 206.825,50.956 c -0.06,-0.082 -0.117,-0.16 -0.177,-0.231 -0.255,-0.325 -0.52,-0.631 -0.793,-0.927 l 1.026,0.456 -0.056,0.702"
     fill="#bc9758"
     id="path14283"
     style="fill-rule:evenodd" />
  <path
     d="m 140.042,226.026 2.59,-5.28 a 78.06,78.06 0 0 1 -2.647,-3.056 l -2.618,5.373 c -9.219,-10.524 -16.032,-23.245 -19.81,-35.687 l 5.989,0.792 a 104.027,104.027 0 0 1 -1.238,-3.822 l -5.827,-0.781 c -3.13,-12.371 -3.13,-24.193 0.69,-33.034 l 2.901,3.176 a 47.34,47.34 0 0 1 0.768,-2.895 l -2.452,-2.716 c 2.547,-4.617 6.106,-7.751 10.333,-9.437 2.82,-2.257 6.128,-3.619 9.782,-4.1 0.831,-0.11 1.687,-0.186 2.575,-0.196 a 27.296,27.296 0 0 1 3.704,0.157 c 9.94,1.151 21.417,7.654 31.959,19.244 0.58,0.645 1.17,1.308 1.733,1.964 l 0.152,0.179 c 7.875,9.233 13.95,20.022 17.784,30.813 l 0.05,0.129 c 5.408,15.24 6.325,30.464 1.531,41.148 l -0.428,0.913 a 23.332,23.332 0 0 1 -2.264,3.733 16.837,16.837 0 0 1 -1.61,1.975 19.172,19.172 0 0 1 -7.103,4.955 c -4.17,3.305 -9.368,4.681 -15.155,4.196 l -1.09,-3.882 a 39.853,39.853 0 0 1 -2.9,-0.92 l 1.238,4.464 c -9.018,-1.612 -19.156,-7.483 -28.637,-17.405 m -16.606,-96.73 a 23.377,23.377 0 0 0 -4.34,4.25 c -4.78,5.972 -7.458,14.6 -7.592,25.038 -0.096,6.966 0.948,14.728 3.255,23.03 0.155,0.6 0.336,1.188 0.527,1.794 0.36,1.28 0.764,2.531 1.206,3.815 l 0.014,0.018 c 4.546,13.512 11.812,26.236 20.433,36.685 0.86,1.04 1.74,2.071 2.629,3.07 6.633,7.433 13.941,13.568 21.395,17.736 5.512,3.087 11.105,5.123 16.531,5.843 3.113,0.421 6.028,0.4 8.752,-0.042 l 0.06,-0.036 c 1.989,-0.307 3.87,-0.842 5.594,-1.608 l 0.038,-0.021 c 14.982,-6.432 20.996,-27.923 13.447,-55.096 -9.63,-34.707 -37.707,-65.584 -62.757,-68.946 -7.663,-1.041 -14.161,0.638 -19.192,4.47"
     fill="#343038"
     id="path14285"
     style="fill-rule:evenodd" />
  <path
     fill="#acabb9"
     d="m 137.799,132.045 2.745,0.371 0.336,1.184 0.198,0.763 0.92,3.262 10.648,38.471 0.014,0.021 2.381,8.578 0.407,1.49 0.754,2.7 0.293,1.104 0.01,0.018 0.45,1.572 0.304,1.127 0.754,2.695 0.364,1.277 2.374,8.61 9.59,34.599 1.09,3.882 1.107,4.004 0.382,1.401 -2.745,-0.37 -0.389,-1.37 -1.107,-4.003 -10.66,-38.493 -2.408,-8.617 -0.01,-0.021 -0.33,-1.27 -0.753,-2.695 -0.312,-1.094 -0.014,-0.022 -0.431,-1.579 -0.301,-1.127 -0.743,-2.677 -0.417,-1.512 -2.406,-8.617 -10.638,-38.45 -0.753,-2.698 -0.368,-1.33 -0.336,-1.184"
     id="path14287"
     style="fill-rule:evenodd" />
  <path
     fill="#acabb9"
     d="m 172.319,151.846 2.692,2.948 -0.41,0.852 -1.242,2.528 -12.088,24.6 -2.664,5.426 0.01,0.021 -1.322,2.66 -0.34,0.698 -0.502,1.01 -0.354,0.712 -0.828,1.73 -0.442,0.84 -2.71,5.538 -13.719,27.964 -2.692,-2.951 0.421,-0.828 0.81,-1.668 0.428,-0.863 2.618,-5.373 9.453,-19.212 2.692,-5.526 0.45,-0.87 0.827,-1.733 0.354,-0.709 0.502,-1.012 0.357,-0.71 0.828,-1.733 0.474,-0.966 2.685,-5.44 12.05,-24.575 1.262,-2.542 0.4,-0.816"
     id="path14289"
     style="fill-rule:evenodd" />
  <path
     fill="#acabb9"
     d="m 112.735,183.059 0.856,0.114 1.695,0.235 1.195,0.157 5.827,0.78 21.933,2.942 6.247,0.827 1.012,0.157 0.021,-0.01 1.939,0.252 0.803,0.115 1.114,0.15 0.022,-0.011 0.803,0.117 1.949,0.271 1.022,0.125 6.117,0.827 27.727,3.715 2.89,0.392 0.998,0.136 1.058,3.821 -0.97,-0.128 -2.918,-0.4 -27.763,-3.721 -6.145,-0.834 -0.97,-0.129 -1.938,-0.253 -0.806,-0.118 -1.132,-0.135 -0.803,-0.118 -1.939,-0.253 -0.983,-0.146 -6.297,-0.827 -21.753,-2.941 -5.99,-0.792 -1.05,-0.135 -0.014,-0.018 -1.825,-0.239 -0.853,-0.114 -1.079,-3.811"
     id="path14291"
     style="fill-rule:evenodd" />
  <path
     fill="#acabb9"
     d="m 114.766,144.12 0.831,0.899 2.791,3.077 2.452,2.716 24.71,27.16 6.106,6.702 1.061,1.162 1.903,2.082 0.757,0.86 0.022,-0.011 1.096,1.222 0.01,0.018 0.79,0.874 1.903,2.078 0.94,1.045 6.022,6.595 27.158,29.876 1.981,2.168 0.8,0.89 1.05,1.142 -1.195,2.424 -1.02,-1.134 -1.244,-1.347 -28.736,-31.562 -6.032,-6.667 -0.91,-0.988 -1.913,-2.1 -0.778,-0.848 -1.115,-1.212 -0.014,-0.022 -0.785,-0.87 -1.886,-2.089 -0.02,0.011 -1.01,-1.116 -6.14,-6.763 -24.279,-26.685 -2.9,-3.176 -2.781,-3.06 -0.842,-0.916 1.217,-2.435"
     id="path14293"
     style="fill-rule:evenodd" />
  <path
     d="m 170.656,155.204 c 0.435,0.435 0.853,0.885 1.277,1.355 a 55.25,55.25 0 0 1 1.426,1.615 c 9.162,10.56 15.933,23.252 19.658,35.648 a 67.678,67.678 0 0 1 1.058,3.822 c 3.096,12.307 3.067,24.043 -0.757,32.831 -0.177,0.42 -0.368,0.827 -0.559,1.23 -0.212,0.414 -0.403,0.816 -0.637,1.19 -1.514,2.742 -3.396,4.981 -5.536,6.678 -4.17,3.305 -9.368,4.681 -15.155,4.196 a 30.014,30.014 0 0 1 -2.752,-0.338 c -9.018,-1.612 -19.156,-7.483 -28.637,-17.405 -0.481,-0.517 -0.962,-1.034 -1.454,-1.572 -0.414,-0.45 -0.824,-0.927 -1.22,-1.39 -9.22,-10.525 -16.033,-23.246 -19.811,-35.688 a 102.36,102.36 0 0 1 -1.076,-3.811 c -3.13,-12.371 -3.13,-24.193 0.69,-33.034 0.18,-0.425 0.372,-0.828 0.58,-1.241 0.213,-0.417 0.404,-0.82 0.637,-1.194 2.547,-4.617 6.106,-7.751 10.333,-9.437 3.167,-1.287 6.729,-1.74 10.535,-1.401 a 24,24 0 0 1 2.742,0.367 c 9.053,1.672 19.195,7.593 28.658,17.58 m -51.56,-21.659 c -2.937,2.243 -5.392,5.316 -7.309,9.198 -10.634,21.705 0.191,60.76 24.165,87.096 17.296,19.006 36.777,26.272 50.294,20.693 l 0.06,-0.036 c 5.158,-2.178 9.45,-6.243 12.418,-12.246 6.392,-13.049 5.04,-32.347 -2.265,-51.402 l -0.049,-0.129 c -4.16,-10.76 -10.185,-21.416 -17.784,-30.813 l -0.152,-0.179 a 103.62,103.62 0 0 0 -3.905,-4.556 c -19.68,-21.604 -42.168,-28.047 -55.473,-17.626"
     fill="#acabb9"
     id="path14295"
     style="fill-rule:evenodd" />
  <path
     d="m 138.135,133.232 c 0.41,0.025 0.853,0.061 1.288,0.129 0.484,0.06 0.98,0.146 1.457,0.239 1.291,0.231 2.6,0.534 3.902,0.92 9.247,2.748 18.718,9.251 27.137,18.142 a 95.724,95.724 0 0 1 2.682,2.984 c 9.282,10.674 17.033,24.208 21.307,38.568 0.187,0.606 0.368,1.194 0.534,1.811 0.187,0.692 0.357,1.362 0.552,2.018 2.883,11.476 3.077,21.754 0.997,29.954 -0.495,1.99 -1.121,3.84 -1.892,5.537 -0.358,0.845 -0.74,1.65 -1.164,2.431 -4.486,8.19 -12.237,12.7 -22.397,11.808 -0.46,-0.025 -0.966,-0.075 -1.45,-0.139 -0.432,-0.068 -0.867,-0.132 -1.302,-0.2 -2.926,-0.502 -5.872,-1.419 -8.823,-2.702 -7.623,-3.273 -15.233,-8.916 -22.163,-16.175 -0.895,-0.97 -1.793,-1.936 -2.67,-2.963 -9.354,-10.663 -17.148,-24.221 -21.463,-38.61 -0.213,-0.649 -0.397,-1.34 -0.588,-1.996 -0.17,-0.62 -0.329,-1.22 -0.488,-1.815 -2.31,-9.098 -2.933,-17.455 -2.087,-24.589 0.481,-4.132 1.475,-7.872 2.887,-11.112 0.378,-0.86 0.781,-1.676 1.206,-2.453 4.51,-8.232 12.314,-12.746 22.538,-11.787 m -28.202,51.192 c 9.637,34.728 37.736,65.595 62.754,68.95 7.683,1.03 14.182,-0.653 19.213,-4.485 l 0.038,-0.021 c 11.363,-8.657 15.3,-28.247 8.64,-52.297 -9.627,-34.71 -37.726,-65.577 -62.754,-68.95 -5.427,-0.724 -10.238,-0.103 -14.388,1.676 -14.992,6.41 -21.027,27.911 -13.503,55.127"
     fill="#343038"
     id="path14297"
     style="fill-rule:evenodd" />
  <path
     d="m 181.916,160.783 c -0.075,-0.092 -5.218,-4.196 -5.919,-7.14 -0.704,-2.97 2.66,-7.21 5.36,-7.195 4.436,0.025 13.34,0.645 14.833,5.009 3.622,10.595 -10.33,17.294 -11.158,15.43 -2.054,-1.9 0,-1.9 -3.116,-6.104 z"
     fill="#f0c6b4"
     id="path14299"
     style="fill-rule:evenodd" />
  <path
     d="m 128.721,138.659 c -2.455,1.928 -4.538,4.549 -6.162,7.836 a 30.778,30.778 0 0 0 -1.72,4.317 l -2.45,-2.716 c 2.546,-4.617 6.105,-7.751 10.332,-9.437 m -11.55,11.871 2.901,3.177 c -1.981,8.83 -1.072,19.623 2.236,30.639 l -5.827,-0.781 c -3.13,-12.371 -3.13,-24.193 0.69,-33.034 m 0.386,36.845 5.989,0.792 c 3.59,10.267 9.194,20.556 16.44,29.522 l -2.619,5.373 c -9.219,-10.524 -16.032,-23.245 -19.81,-35.687 m 52.784,52.511 c 5.94,1.668 11.512,1.59 16.245,-0.314 -4.17,3.305 -9.368,4.681 -15.155,4.196 l -1.09,-3.882 m -27.71,-19.141 0.782,0.902 c 7.84,8.617 16.185,14.442 24.028,17.32 l 1.238,4.463 c -9.018,-1.612 -19.156,-7.483 -28.637,-17.405 l 2.59,-5.28"
     fill="#d8d6e8"
     id="path14301"
     style="fill-rule:evenodd" />
  <path
     d="m 150.64,199.911 c -5.741,-6.307 -8.327,-15.636 -5.776,-20.83 2.55,-5.199 9.272,-4.297 15.013,2.01 5.742,6.31 8.328,15.637 5.777,20.834 -2.55,5.198 -9.272,4.296 -15.014,-2.014"
     fill="#acabb9"
     id="path14303"
     style="fill-rule:evenodd" />
  <path
     d="m 153.287,194.66 c -5.562,-7.223 -2.187,-14.093 4.082,-8.318 5.561,7.223 2.186,14.097 -4.082,8.318"
     fill="#343038"
     id="path14305"
     style="fill-rule:evenodd" />
  <path
     d="m 163.27,118.533 c -2.385,5.651 -8.866,8.282 -14.473,5.88 -5.607,-2.404 -8.217,-8.931 -5.833,-14.582 l 16.595,-39.316 c 2.384,-5.648 8.861,-8.282 14.469,-5.88 5.61,2.407 8.22,8.935 5.837,14.586 l -16.595,39.312"
     fill="#91309d"
     id="path14307"
     style="fill-rule:evenodd" />
  <path
     d="m 179.525,143.218 c 3.824,5.797 -6.75,14.261 -13.662,6.813 -8.7,-7.112 -15.75,-16.435 -21.537,-27.451 -4.068,-4.57 -3.693,-11.601 0.838,-15.705 a 10.978,10.978 0 0 1 15.583,0.849 l 18.778,35.494"
     fill="#91309d"
     id="path14309"
     style="fill-rule:evenodd" />
  <path
     d="m 239.58,117.756 3.537,4.45 12.417,1.625 0.81,4.778 c 0.152,0.591 0.4,1.094 0.785,1.461 l 0.8,0.482 c 0.488,0.02 0.874,-0.15 1.082,-0.65 l 0.128,-0.474 0.039,-0.395 -0.917,-6.639 c 0,0 -5.168,-4.452 -5.667,-4.638 -0.389,-0.142 -8.409,-6.702 -9.477,-6.246 l -3.63,6.118 -0.053,0.025 0.145,0.103 z"
     fill="#f0c6b4"
     id="path14311"
     style="fill-rule:evenodd" />
  <g
     transform="translate(250.192,118.64)"
     id="g14318"
     style="fill:none;fill-rule:evenodd">
    <mask
       id="h"
       fill="#ffffff">
      <use
         xlink:href="#g"
         id="use14313"
         x="0"
         y="0"
         width="100%"
         height="100%" />
    </mask>
    <path
       fill="#e8bc93"
       mask="url(#h)"
       d="M 0.76,11.8 H 8.947 V 0.878 H 0.76 Z"
       id="path14316" />
  </g>
  <path
     d="m 246.563,120.476 2.21,1.772 5.29,4.246 1.708,4.738 c 0.414,0.906 1.026,1.54 1.977,1.697 0.354,-0.053 0.634,-0.189 0.814,-0.456 0.195,-0.278 0.269,-0.706 0.188,-1.333 l -2.07,-6.927 c 0,0 -6.474,-5.487 -7.018,-5.583 -0.545,-0.1 -3.1,1.846 -3.1,1.846"
     fill="#f0c6b4"
     id="path14320"
     style="fill-rule:evenodd" />
  <path
     d="m 257.748,132.93 a 2.28,2.28 0 0 1 -0.166,-0.036 l -3.378,-6.257 -0.138,-0.135 -0.004,-0.008 -0.02,-0.017 c -0.776,-0.75 -4.115,-3.972 -5.923,-5.498 l 0.004,-0.003 6.76,4.927 c 0.382,2.795 2.367,6.381 3.68,6.57 -0.181,0.267 -0.46,0.403 -0.815,0.456"
     fill="#e8bc93"
     id="path14322"
     style="fill-rule:evenodd" />
  <path
     d="m 243.672,121.817 8.47,7.412 2.596,4.463 c 0.59,0.803 1.316,1.295 2.282,1.252 l 0.237,-0.11 0.34,-0.282 c 0.25,-0.325 0.297,-0.813 0.038,-1.562 l -3.431,-6.353 c 0,0 -6.669,-6.492 -7.224,-6.47 -0.552,0.017 -3.308,1.65 -3.308,1.65"
     fill="#f0c6b4"
     id="path14324"
     style="fill-rule:evenodd" />
  <path
     d="m 256.903,134.947 c -0.91,0 -1.599,-0.485 -2.165,-1.255 l -2.597,-4.463 -3.003,-2.628 c -0.99,-1.151 -2.459,-2.823 -3.527,-3.943 l 0.046,-0.032 6.973,5.612 c 0.389,2.866 3.304,6.356 4.715,6.356 a 0.715,0.715 0 0 0 0.251,-0.042 l -0.34,0.281 -0.236,0.11 c -0.04,0 -0.078,0.004 -0.117,0.004"
     fill="#e8bc93"
     id="path14326"
     style="fill-rule:evenodd" />
  <g
     transform="rotate(10,174.472,1971.297)"
     id="g14332"
     style="fill:none;fill-rule:evenodd">
    <use
       fill="#000000"
       filter="url(#i)"
       xlink:href="#j"
       id="use14328"
       x="0"
       y="0"
       width="100%"
       height="100%" />
    <use
       fill="#2d68ff"
       xlink:href="#j"
       id="use14330"
       x="0"
       y="0"
       width="100%"
       height="100%" />
  </g>
  <path
     d="m 370.122,13.779 -18.835,-3.321 a 1.0001636,1.0001636 0 0 1 0.347,-1.97 l 18.835,3.321 a 1.0001636,1.0001636 0 0 1 -0.347,1.97 m -0.869,4.924 -18.834,-3.321 a 1.0001636,1.0001636 0 0 1 0.347,-1.97 l 18.835,3.321 a 1.0002505,1.0002505 0 0 1 -0.348,1.97 m -0.868,4.924 -18.834,-3.321 a 1.0001636,1.0001636 0 0 1 0.347,-1.97 l 18.834,3.321 a 1.0001636,1.0001636 0 0 1 -0.347,1.97"
     fill="#ffffff"
     id="path14334"
     style="fill-rule:evenodd" />
  <g
     id="g14344"
     style="fill:none;fill-rule:evenodd">
    <path
       fill="#c5cee5"
       d="M 21.674,45.662 53.087,34.228 44.44,10.47 13.026,21.903 Z"
       id="path14336" />
    <path
       fill="#c5cee5"
       d="M 23.55,1.947 13.026,21.904 44.44,10.47 Z"
       id="path14338" />
    <path
       fill="#8690a8"
       d="M 13.026,21.904 33.056,28.065 44.44,10.47 Z"
       id="path14340" />
    <path
       fill="#b5bed6"
       d="M 52.885,34.192 32.855,28.03 21.47,45.626 Z"
       id="path14342" />
  </g>
</svg>
