<?xml version="1.0" encoding="UTF-8" standalone="no"?>
<svg
   width="404"
   height="440"
   version="1.1"
   id="svg23732"
   sodipodi:docname="problems_7.svg"
   inkscape:version="1.1.2 (b8e25be833, 2022-02-05)"
   xmlns:inkscape="http://www.inkscape.org/namespaces/inkscape"
   xmlns:sodipodi="http://sodipodi.sourceforge.net/DTD/sodipodi-0.dtd"
   xmlns:xlink="http://www.w3.org/1999/xlink"
   xmlns="http://www.w3.org/2000/svg"
   xmlns:svg="http://www.w3.org/2000/svg">
  <sodipodi:namedview
     id="namedview23734"
     pagecolor="#505050"
     bordercolor="#eeeeee"
     borderopacity="1"
     inkscape:pageshadow="0"
     inkscape:pageopacity="0"
     inkscape:pagecheckerboard="0"
     showgrid="false"
     inkscape:zoom="1.8840909"
     inkscape:cx="202.21954"
     inkscape:cy="134.81303"
     inkscape:window-width="1600"
     inkscape:window-height="837"
     inkscape:window-x="-1608"
     inkscape:window-y="159"
     inkscape:window-maximized="1"
     inkscape:current-layer="svg23732" />
  <defs
     id="defs23594">
    <path
       d="M14.215 278.63l169.148-97.438c10.19-5.87 26.71-5.87 36.9 0l169.147 97.439h14.216v14.343c.03 3.87-2.516 7.746-7.642 10.7L220.262 404.897c-10.189 5.871-26.71 5.871-36.899 0L7.642 303.673C2.516 300.72-.031 296.845 0 292.974v-14.343h14.215z"
       id="b" />
    <path
       d="M6 1.599c-.047 1.778-.192 2.94-.434 3.486-.529 1.19-1.609 1.629-2.637 1.495C1.193 6.353.217 4.36 0 .603h1.586c1.527 0 3.035.34 4.414.996z"
       id="e" />
    <path
       d="M8.861.796C9.397 4.932 8.381 7 5.817 7 3.252 7 1.64 5.966.985 3.898L0 .796C.993.266 2.306 0 3.938 0a16 16 0 014.923.796z"
       id="h" />
    <path
       d="M0 5.513V21.34a5.174 5.174 0 005.175 5.174h7.382l3.18 6.361c.75 1.5 2.89 1.5 3.64 0l3.18-6.361h7.604a5.173 5.173 0 005.174-5.174V5.513A5.174 5.174 0 0030.16.338H5.175A5.175 5.175 0 000 5.513"
       id="k" />
    <linearGradient
       x1="2.1717768"
       y1="386.10237"
       x2="306.3452"
       y2="386.10237"
       id="c"
       gradientTransform="scale(1.3175537,0.75898232)"
       gradientUnits="userSpaceOnUse">
      <stop
         stop-color="#EFF0F7"
         offset="0%"
         id="stop23567" />
      <stop
         stop-color="#CDD1E2"
         offset="100%"
         id="stop23569" />
    </linearGradient>
    <linearGradient
       x1="114.24765"
       y1="369.49245"
       x2="33.394538"
       y2="470.1785"
       id="d"
       gradientTransform="matrix(-1.5677058,0,0,0.63787477,276.79,0.556)"
       gradientUnits="userSpaceOnUse">
      <stop
         stop-opacity="0"
         offset="0%"
         id="stop23572" />
      <stop
         stop-opacity=".027"
         offset="12.815%"
         id="stop23574" />
      <stop
         stop-opacity=".075"
         offset="100%"
         id="stop23576" />
    </linearGradient>
    <linearGradient
       x1="36.75%"
       y1="0%"
       x2="71.966%"
       y2="85.091%"
       id="f">
      <stop
         stop-color="#EEE"
         offset="0%"
         id="stop23579" />
      <stop
         stop-color="#FFF"
         stop-opacity="0"
         offset="100%"
         id="stop23581" />
    </linearGradient>
    <filter
       x="0"
       y="0"
       width="1"
       height="1.0086018"
       filterUnits="objectBoundingBox"
       id="a">
      <feOffset
         dy="2"
         in="SourceAlpha"
         result="shadowOffsetOuter1"
         id="feOffset23584" />
      <feColorMatrix
         values="0 0 0 0 0.758370925 0 0 0 0 0.779705753 0 0 0 0 0.872156675 0 0 0 1 0"
         in="shadowOffsetOuter1"
         id="feColorMatrix23586" />
    </filter>
    <filter
       x="0"
       y="0"
       width="1.0424508"
       height="1"
       filterUnits="objectBoundingBox"
       id="j">
      <feOffset
         dx="1.5"
         in="SourceAlpha"
         result="shadowOffsetOuter1"
         id="feOffset23589" />
      <feColorMatrix
         values="0 0 0 0 0.128692844 0 0 0 0 0.291267986 0 0 0 0 0.707350128 0 0 0 1 0"
         in="shadowOffsetOuter1"
         id="feColorMatrix23591" />
    </filter>
    <linearGradient
       inkscape:collect="always"
       xlink:href="#f"
       id="linearGradient23793"
       x1="2.9102174"
       y1="0.56145984"
       x2="4.8776916"
       y2="5.3153878"
       gradientTransform="scale(0.93111085,1.073986)"
       gradientUnits="userSpaceOnUse" />
    <linearGradient
       inkscape:collect="always"
       xlink:href="#f"
       id="linearGradient23795"
       x1="3.4492101"
       y1="0"
       x2="6.0061199"
       y2="6.1781575"
       gradientTransform="scale(1.0372353,0.96410136)"
       gradientUnits="userSpaceOnUse" />
  </defs>
  <g
     transform="translate(0,0.556)"
     id="g23600"
     style="fill:none;fill-rule:evenodd">
    <use
       fill="#000000"
       filter="url(#a)"
       xlink:href="#b"
       id="use23596"
       x="0"
       y="0"
       width="100%"
       height="100%" />
    <use
       fill="url(#c)"
       xlink:href="#b"
       id="use23598"
       style="fill:url(#c)"
       x="0"
       y="0"
       width="100%"
       height="100%" />
  </g>
  <g
     stroke="#d100ef"
     stroke-linecap="round"
     stroke-width="2.7"
     id="g23606"
     style="fill:none;fill-rule:evenodd;stroke:#3333ff;stroke-opacity:1">
    <path
       d="m 304.455,222.272 42.482,-22.655 a 10.693,10.693 0 0 0 5.591,-9.402 V 161.17 m -62.418,52.802 47.195,-26.195 m -63.093,16.869 c 5.676,-3.132 20.066,-10.888 43.17,-23.27 2.299,-1.272 2.378,-4.554 0.144,-5.937 l -9.789,-6.061"
       id="path23602"
       style="stroke:#3333ff;stroke-opacity:1" />
    <path
       d="m 355.903,158.944 c 0,1.078 -1.512,1.954 -3.375,1.954 -1.865,0 -3.376,-0.876 -3.376,-1.954 0,-1.078 1.511,-1.952 3.376,-1.952 1.863,0 3.375,0.874 3.375,1.952 z m -47.27,8.48 c 0,1.079 -1.51,1.954 -3.375,1.954 -1.865,0 -3.376,-0.875 -3.376,-1.954 0,-1.078 1.511,-1.952 3.376,-1.952 1.864,0 3.375,0.874 3.375,1.952 z m 35.423,18.401 c 0,1.078 -1.512,1.952 -3.376,1.952 -1.864,0 -3.375,-0.874 -3.375,-1.952 0,-1.078 1.51,-1.954 3.375,-1.954 1.864,0 3.376,0.876 3.376,1.954 z"
       fill="#d100ef"
       id="path23604"
       style="stroke:#3333ff;stroke-opacity:1;fill:#3333ff;fill-opacity:1" />
  </g>
  <g
     stroke="#d100ef"
     stroke-linecap="round"
     stroke-width="2.7"
     id="g23614"
     style="fill:none;fill-rule:evenodd;stroke:#3333ff;stroke-opacity:1">
    <path
       d="M 102.957,230.738 62.7,206.924 a 9.473,9.473 0 0 1 -4.646,-8.156 v -25.122 a 8.47,8.47 0 0 0 -4.224,-7.33 l -11.079,-6.41"
       id="path23608"
       style="stroke:#3333ff;stroke-opacity:1" />
    <path
       d="M 118.761,221.593 77.612,198.036 a 8.468,8.468 0 0 1 -4.257,-7.349 v -13.074 m 60.207,35.417 -38.44,-22.739 c -2.888,-1.709 -2.868,-5.904 0.037,-7.585 l 8.8,-5.092"
       id="path23610"
       style="stroke:#3333ff;stroke-opacity:1" />
    <path
       d="m 76.73,175.66 c 0,1.079 -1.51,1.953 -3.375,1.953 -1.863,0 -3.375,-0.874 -3.375,-1.952 0,-1.079 1.512,-1.954 3.375,-1.954 1.865,0 3.376,0.875 3.376,1.954 z M 42.75,157.952 c 0,1.079 -1.51,1.953 -3.375,1.953 -1.864,0 -3.375,-0.874 -3.375,-1.953 0,-1.078 1.51,-1.952 3.375,-1.952 1.865,0 3.376,0.874 3.376,1.952 z m 67.96,17.708 c 0,1.079 -1.51,1.953 -3.375,1.953 -1.863,0 -3.375,-0.874 -3.375,-1.952 0,-1.079 1.512,-1.954 3.375,-1.954 1.865,0 3.376,0.875 3.376,1.954"
       fill="#d100ef"
       id="path23612"
       style="stroke:#3333ff;stroke-opacity:1;fill:#3333ff;fill-opacity:1" />
  </g>
  <g
     stroke="#d100ef"
     stroke-linecap="round"
     stroke-width="2.7"
     id="g23622"
     style="fill:none;fill-rule:evenodd;stroke:#3333ff;stroke-opacity:1">
    <path
       d="m 321.043,344.375 40.257,23.813 a 9.473,9.473 0 0 1 4.646,8.156 v 25.122 a 8.47,8.47 0 0 0 4.224,7.33 l 11.079,6.411"
       id="path23616"
       style="stroke:#3333ff;stroke-opacity:1" />
    <path
       d="m 305.239,353.52 41.149,23.556 a 8.468,8.468 0 0 1 4.257,7.35 v 13.073 m -60.207,-35.416 38.44,22.738 c 2.888,1.709 2.868,5.904 -0.037,7.585 l -8.8,5.092"
       id="path23618"
       style="stroke:#3333ff;stroke-opacity:1" />
    <path
       d="m 347.27,399.452 c 0,-1.079 1.51,-1.953 3.375,-1.953 1.863,0 3.375,0.874 3.375,1.953 0,1.078 -1.512,1.953 -3.375,1.953 -1.865,0 -3.376,-0.875 -3.376,-1.953 z m 33.98,17.708 c 0,-1.078 1.51,-1.952 3.375,-1.952 1.864,0 3.375,0.874 3.375,1.952 0,1.078 -1.51,1.952 -3.375,1.952 -1.865,0 -3.376,-0.874 -3.376,-1.952 z m -67.96,-17.708 c 0,-1.079 1.51,-1.953 3.375,-1.953 1.863,0 3.375,0.874 3.375,1.953 0,1.078 -1.512,1.953 -3.375,1.953 -1.865,0 -3.376,-0.875 -3.376,-1.953 z"
       fill="#d100ef"
       id="path23620"
       style="stroke:#3333ff;stroke-opacity:1;fill:#3333ff;fill-opacity:1" />
  </g>
  <g
     stroke="#d100ef"
     stroke-linecap="round"
     stroke-width="2.7"
     id="g23634"
     style="fill:none;fill-rule:evenodd;stroke:#3333ff;stroke-opacity:1">
    <path
       d="m 86.957,345.47 -42.296,23.965 c -4.57,2.56 -4.62,9.131 -0.09,11.76 l 66.69,38.69"
       id="path23624"
       style="stroke:#3333ff;stroke-opacity:1" />
    <path
       d="M 101.81,353.589 70.328,372.29 c -2.224,1.318 -2.209,4.547 0.028,5.842 l 30.106,17.934"
       id="path23626"
       style="stroke:#3333ff;stroke-opacity:1" />
    <path
       d="m 107.213,398.097 c 0,1.078 -1.51,1.952 -3.375,1.952 -1.865,0 -3.375,-0.874 -3.375,-1.952 0,-1.079 1.51,-1.953 3.375,-1.953 1.865,0 3.375,0.874 3.375,1.953 z m 10.798,23.817 c 0,1.078 -1.51,1.952 -3.375,1.952 -1.865,0 -3.376,-0.874 -3.376,-1.952 0,-1.078 1.511,-1.952 3.376,-1.952 1.864,0 3.375,0.874 3.375,1.952 z m -65.162,13.91 c 0,1.078 -1.511,1.952 -3.376,1.952 -1.863,0 -3.375,-0.874 -3.375,-1.952 0,-1.08 1.512,-1.954 3.375,-1.954 1.865,0 3.376,0.874 3.376,1.954 z"
       fill="#d100ef"
       id="path23628"
       style="stroke:#3333ff;stroke-opacity:1;fill:#3333ff;fill-opacity:1" />
    <path
       d="m 72.106,336 -49.137,26.52 a 9.473,9.473 0 0 0 -4.968,8.46 l 0.328,25.295 a 7.318,7.318 0 0 0 3.597,6.208 l 21.144,12.725 a 12.228,12.228 0 0 1 6.01,10.365 l 0.393,8.092 m -0.566,-32.087 45.531,26.346"
       id="path23630"
       style="stroke:#3333ff;stroke-opacity:1" />
    <path
       d="m 101.189,429.43 c 0,1.08 -1.511,1.953 -3.376,1.953 -1.863,0 -3.375,-0.873 -3.375,-1.952 0,-1.079 1.512,-1.953 3.375,-1.953 1.865,0 3.376,0.874 3.376,1.953 z M 48.907,399.626 c 0,1.078 -1.51,1.952 -3.375,1.952 -1.863,0 -3.376,-0.874 -3.376,-1.952 0,-1.08 1.513,-1.953 3.376,-1.953 1.864,0 3.375,0.873 3.375,1.953 z"
       fill="#d100ef"
       id="path23632"
       style="stroke:#3333ff;stroke-opacity:1;fill:#3333ff;fill-opacity:1" />
  </g>
  <path
     d="M 183.363,394.533 7.642,293.308 c -10.19,-5.87 -10.19,-15.387 0,-21.256 L 183.363,170.827 c 10.19,-5.87 26.71,-5.87 36.9,0 l 175.72,101.225 c 10.19,5.87 10.19,15.386 0,21.256 l -175.72,101.225 c -10.19,5.87 -26.71,5.87 -36.9,0"
     fill="#f4f4f4"
     id="path23636"
     style="fill-rule:evenodd" />
  <path
     d="M 183.363,391.664 7.642,290.44 c -10.19,-5.87 -10.19,-15.386 0,-21.256 L 183.363,167.959 c 10.19,-5.87 26.71,-5.87 36.9,0 l 175.72,101.225 c 10.19,5.87 10.19,15.387 0,21.256 l -175.72,101.225 c -10.19,5.871 -26.71,5.871 -36.9,0"
     fill="#fdfdfd"
     id="path23638"
     style="fill-rule:evenodd" />
  <path
     d="m 218.44,299.915 c 1.881,-0.266 3.907,-0.715 5.105,-2.188 5.92,-7.285 -19.418,-13.79 -23.204,-15.229 -10.947,-4.152 -20.057,-11.907 -29.974,-18.118 -10.836,-6.797 -22.668,-11.762 -34.2,-17.232 -11.423,-5.42 -22.44,-11.429 -34.078,-16.454 -7.01,-3.026 -53.273,23.353 -49.52,25.58 3.447,2.045 6.126,4.759 9.393,7.113 3.087,2.217 6.186,4.434 9.47,6.356 3.074,1.802 6.243,1.956 9.402,3.18 4.259,1.648 8.355,4.499 12.399,6.626 2.155,1.134 4.37,2.277 6.778,2.633 0.451,0.064 0.91,0.098 1.37,0.098 2.005,0 4.027,-0.65 5.336,-2.14 0.988,-1.122 1.77,-2.795 3.267,-2.842 0.022,-0.005 0.043,-0.005 0.06,-0.005 0.627,0 1.211,0.313 1.765,0.613 3.68,2.007 7.354,4.01 11.033,6.013 7.766,4.238 15.584,8.492 23.977,11.287 1.876,0.625 3.812,1.177 5.787,1.177 h 0.155 c 4.46,-0.055 8.98,-1.254 13.51,-1.386 a -84.535,84.535 0 0 1 14.867,0.865 c 8.848,1.309 17.494,4.018 26.424,4.523 1.013,0.056 2.03,0.086 3.048,0.086 a -55.74,55.74 0 0 0 7.83,-0.556 z"
     fill="url(#d)"
     id="path23640"
     style="fill:url(#d);fill-rule:evenodd" />
  <path
     fill="#000307"
     d="m 237.476,41.28 -1.88,1.852 1.88,1.51 1.881,-1.498 z"
     id="path23642"
     style="fill-rule:evenodd" />
  <path
     fill="#000307"
     d="m 226.19,47.274 11.286,-5.994 -0.212,21.998 -11.074,7.62 V 47.274"
     id="path23644"
     style="fill-rule:evenodd" />
  <path
     d="m 244.334,87.005 -2.673,-12.87 -4.224,1.006 -14.958,-24.868 c -0.107,-0.168 -0.773,-0.039 -0.978,-0.015 -3.792,0.448 -6.128,-2.373 -9.457,0.082 -3.33,2.452 -4.007,7.097 -1.514,10.373 l 23.053,30.3 0.654,0.864 a 5.778,5.778 0 0 0 6.083,2.045 c 3.05,-0.82 4.846,-3.917 4.014,-6.917"
     fill="#f0f0f2"
     id="path23646"
     style="fill-rule:evenodd" />
  <path
     d="m 238.842,66.974 -0.08,-2.488 c 0.977,-0.52 1.897,-1.301 1.998,-1.748 0.207,-0.933 -0.555,-3.652 -0.555,-3.652 l -0.293,-6.223 c 0,0 -2.235,-0.145 -2.646,0.877 -0.271,0.674 -8.164,15.448 -8.164,15.448 l 1.424,7.648 10.928,-2.654 -2.612,-7.208"
     fill="#f0c6b4"
     id="path23648"
     style="fill-rule:evenodd" />
  <path
     d="m 185.327,247.214 c 0,0 -1.227,10.923 0,14.786 1.226,3.862 3.801,12.614 -1.104,14.665 0,0 -3.742,0.726 -7.603,-5.128 -3.866,-5.855 -4.294,-12.794 -5.643,-14.788 -1.349,-1.992 -3.25,-2.655 -3.619,-4.828 -0.369,-2.173 -1.164,-4.405 0,-5.37 1.166,-0.966 3.986,-2.777 5.03,-2.838 1.042,-0.06 5.334,-2.715 5.703,-3.137 0.368,-0.422 7.236,6.638 7.236,6.638"
     fill="#fffffe"
     id="path23650"
     style="fill-rule:evenodd;fill:#242423;fill-opacity:1" />
  <path
     d="m 214.135,184.212 c 0.965,-2.37 -23.355,-37.443 -25.283,-45.025 -1.926,-7.584 0,-16.114 0,-16.114 l 30.582,-3.556 c 0,0 18.06,57.584 13.485,69.907 -4.575,12.325 -48.053,63.669 -48.053,63.669 0,0 -7.949,0.02 -10.178,-10.1 l -0.05,-0.237 c 0,0 38.534,-56.175 39.497,-58.544"
     fill="#141413"
     id="path23652"
     style="fill-rule:evenodd" />
  <path
     d="m 196.308,229.834 c -2.203,-2.114 -4.39,-4.22 -6.516,-6.412 a 12.78,12.78 0 0 1 -1.335,-1.65 507.437,507.437 0 0 0 -13.82,20.984 l 0.05,0.237 c 2.23,10.12 10.179,10.1 10.179,10.1 0,0 8.088,-8.648 16.91,-19.768 -1.85,-0.67 -3.698,-1.79 -5.468,-3.491"
     fill="#f0c6b4"
     id="path23654"
     style="fill-rule:evenodd" />
  <path
     d="m 199.6,274.61 c 0,0 7.529,8.12 11.287,9.761 3.758,1.642 12.138,5.516 10.466,10.496 0,0 -1.917,3.243 -8.937,2.236 -7.018,-1.009 -12.598,-5.272 -15.01,-5.589 -2.41,-0.318 -4.172,0.648 -6.073,-0.514 -1.902,-1.163 -4.133,-2.046 -4.1,-3.545 0.031,-1.498 0.513,-4.78 1.154,-5.588 0.642,-0.813 1.448,-5.739 1.37,-6.29 -0.08,-0.55 9.842,-0.967 9.842,-0.967"
     fill="#fffffe"
     id="path23656"
     style="fill-rule:evenodd;fill:#242423;fill-opacity:1" />
  <path
     d="m 176.69,124.861 c 0,0 -10.028,18.145 0.124,37.55 0,0 10.723,23.206 8.992,37.96 -1.73,14.756 -3.652,31.403 -2.883,37.173 0.77,5.771 7.247,31.589 6.478,40.763 0,0 7.029,6.364 14.528,0.646 0,0 3.79,-88.418 3.695,-96.931 -0.096,-8.512 -4.229,-37.552 -7.304,-47.105 l -23.63,-10.056"
     fill="#232422"
     id="path23658"
     style="fill-rule:evenodd" />
  <path
     d="m 220.659,123.488 -0.766,-23.565 c 0,0 6.896,-3.393 7.277,-9.801 0.386,-6.41 -4.213,-14.139 -4.595,-18.852 -0.383,-4.713 2.94,-18.342 -0.767,-21.867 -6.188,-5.886 -39.075,0.376 -48.845,6.222 -9.77,5.842 -0.767,29.217 0.958,32.61 1.723,3.394 2.106,38.268 2.106,38.268 0,0 3.591,11.69 21.812,11.5 18.223,-0.19 22.82,-14.515 22.82,-14.515"
     fill="#aa2aba"
     id="path23660"
     style="fill-rule:evenodd" />
  <path
     d="m 201.428,103.913 c 0,0 7.806,-2.009 10.669,-1.2 2.377,0.67 5.898,0.494 5.898,0.494 l 2.233,6.984 -0.335,-10.268 c 0,0 -2.902,1.677 -8.047,1.183 -5.146,-0.492 -10.33,1.685 -10.33,1.685 0,0 -7.77,2.767 -13.688,0.231 0,0 5.775,3.24 13.6,0.89"
     fill="#6d1178"
     id="path23662"
     style="fill-rule:evenodd" />
  <path
     d="m 225.69,21.607 c 0,0 0.22,9.431 -6.57,18.265 l 3.092,-18.015 2.03,-1.246 1.448,0.996"
     fill="#071620"
     id="path23664"
     style="fill-rule:evenodd" />
  <path
     d="m 204.54,37.347 -8.896,-2.771 c 0.036,5.255 -2.89,11.312 -5.378,15.127 0,0 5.193,11.675 18.704,7.838 0,0 0.65,-12.197 4.795,-15.355 l -9.224,-4.84"
     fill="#f0c6b4"
     id="path23666"
     style="fill-rule:evenodd" />
  <path
     d="m 213.767,42.184 c -0.636,0.485 -1.196,1.183 -1.678,2.021 -1.085,0.365 -2.26,0.511 -3.418,0.531 -1.879,0.04 -3.752,-0.216 -5.624,-0.192 -4.72,0.065 -9.367,2.01 -12.734,5.253 l -0.047,-0.096 c 2.49,-3.813 5.415,-9.872 5.378,-15.123 l 8.899,2.769 9.224,4.837"
     fill="#d7ae9d"
     id="path23668"
     style="fill-rule:evenodd" />
  <path
     d="m 212.484,3.723 a 28.087,28.087 0 0 0 -8.53,-1.47 C 192.832,2.1 189.034,13.36 189.482,22.98 c 0.323,6.942 4.555,13.849 6.888,17.153 0,0 7.759,7.323 14.688,9.031 6.93,1.71 7.097,-0.5 7.712,-1.953 0.615,-1.456 4.06,-11.047 4.277,-13.974 0.217,-2.928 -0.822,-3.235 0.585,-5.98 1.405,-2.744 5.233,-17.966 -11.148,-23.534"
     fill="#f0c6b4"
     id="path23670"
     style="fill-rule:evenodd" />
  <path
     d="m 208.92,48.48 c -6.292,-2.448 -12.552,-8.345 -12.552,-8.345 -2.329,-3.308 -6.565,-10.21 -6.882,-17.153 -0.29,-6.153 1.16,-12.978 5.15,-17.054 l 12.724,8.202 c 2.805,2.414 3.672,6.748 2.011,10.028 -0.64,1.268 -1.597,2.352 -2.355,3.565 -0.762,1.205 -1.326,2.627 -1.055,4.024 0.248,1.25 1.155,2.353 1.192,3.628 0.044,1.563 -1.192,2.853 -1.67,4.349 -0.737,2.34 0.482,4.838 1.926,6.838 0.478,0.657 0.98,1.3 1.51,1.917"
     fill="#d7ae9d"
     id="path23672"
     style="fill-rule:evenodd" />
  <path
     d="m 189.498,31.078 0.548,-0.053 0.03,-0.025 c 0.109,-0.939 0.548,-1.774 1.37,-2.242 0.853,-0.47 1.866,-0.496 2.797,-0.339 1.018,0.157 2.031,0.496 2.827,1.067 l 0.905,0.132 c 0.44,0.025 0.905,0.025 1.344,0.05 a 88.74,88.74 0 0 1 7.816,0.654 l 0.495,-1.539 c 0.083,-0.47 -0.356,-0.574 -0.77,-0.546 -1.37,0.025 -2.687,0.207 -4.057,0.104 -0.796,-0.054 -1.566,-0.157 -2.358,-0.236 -1.975,-0.285 -3.95,-0.624 -5.928,-0.757 -1.096,-0.05 -2.218,-0.05 -3.236,0.315 -0.74,0.285 -1.426,0.806 -1.81,1.484 l -0.3,0.707 c -0.138,0.443 -0.138,0.91 0.327,1.224"
     fill="#20211f"
     id="path23674"
     style="fill-rule:evenodd" />
  <path
     d="m 206.662,28.205 0.315,-0.082 c 2.617,-0.432 5.53,-0.371 8.113,0.193 0.886,0.192 1.764,0.446 2.673,0.467 1.205,0.032 2.373,-0.346 3.551,-0.592 1.382,-0.286 5.59,-1.492 5.722,0.72 0.067,1.132 -0.23,2.217 -0.387,3.317 -0.146,1.02 -0.743,2.034 -1.483,2.773 -1.88,1.891 -4.862,0.8 -5.901,-1.392 -0.376,-0.789 -0.102,-1.828 -0.526,-2.527 -0.214,-0.354 -0.732,-0.564 -1.089,-0.34 l -0.39,0.543 c -0.44,0.975 -0.755,2.235 -1.427,3.084 -1.396,2.12 -4.19,3.32 -6.783,2.913 -0.898,-0.14 -1.806,-0.486 -2.362,-1.171 -0.77,-0.946 -0.927,-2.566 -1.04,-3.72 -0.127,-1.277 -0.537,-3.647 1.014,-4.186"
     fill="#20211f"
     id="path23676"
     style="fill-rule:evenodd" />
  <g
     transform="matrix(-1,0,0,1,226.086,28.267)"
     id="g23685"
     style="fill:none;fill-rule:evenodd">
    <mask
       id="g"
       fill="#ffffff">
      <use
         xlink:href="#e"
         id="use23678"
         x="0"
         y="0"
         width="100%"
         height="100%" />
    </mask>
    <use
       fill="#81a4eb"
       xlink:href="#e"
       id="use23681"
       x="0"
       y="0"
       width="100%"
       height="100%" />
    <path
       fill="url(#f)"
       opacity="0.643"
       mask="url(#g)"
       transform="rotate(-17,4.754,3.402)"
       d="M 0.798,-1.036 4.787,0.57 8.71,7.84 5.466,7.081 Z"
       id="path23683"
       style="fill:url(#linearGradient23793)" />
  </g>
  <g
     transform="matrix(-1,0,0,1,216.216,28.935)"
     id="g23694"
     style="fill:none;fill-rule:evenodd">
    <mask
       id="i"
       fill="#ffffff">
      <use
         xlink:href="#h"
         id="use23687"
         x="0"
         y="0"
         width="100%"
         height="100%" />
    </mask>
    <use
       fill="#81a4eb"
       xlink:href="#h"
       id="use23690"
       x="0"
       y="0"
       width="100%"
       height="100%" />
    <path
       fill="url(#f)"
       opacity="0.643"
       mask="url(#i)"
       transform="rotate(-18,4.576,3.166)"
       d="M 0.81,-0.843 4.414,-0.099 8.341,7.174 5.097,6.414 Z"
       id="path23692"
       style="fill:url(#linearGradient23795)" />
  </g>
  <path
     d="m 225.056,12.557 c 0,0 -4.902,-14.069 -23.135,-11.327 -17.196,2.582 -19.658,30.238 -16.878,35.656 0,0 5.253,7.823 19.018,14.614 0,0 -9.858,-15.05 3.019,-31.87 l 17.775,-2.566 0.201,-4.507"
     fill="#071620"
     id="path23696"
     style="fill-rule:evenodd" />
  <path
     fill="#232625"
     d="m 228.071,49.125 11.286,-5.993 -0.212,21.997 -11.074,7.62 V 49.125"
     id="path23698"
     style="fill-rule:evenodd" />
  <path
     d="m 229.648,56.145 c 0,0 1.456,-1.298 2.778,-0.711 1.322,0.587 4.285,9.746 2.486,12.49 -1.798,2.743 -2.947,2.47 -3.583,3.44 -0.634,0.97 -2.913,3.442 -4.604,4.384 -1.693,0.942 -5.297,-7.58 -5.297,-7.58 0,0 1.834,-1.283 3.606,-2.4 1.706,-1.075 -1.125,-7.002 4.614,-9.623"
     fill="#f0c6b4"
     id="path23700"
     style="fill-rule:evenodd" />
  <path
     d="m 210.445,75.33 14.589,-9.561 c 0,0 2.82,-1.89 5.682,6.355 L 217.132,85.957 210.445,75.33 m 28.732,-11.337 c -0.444,0.119 -0.916,-0.157 -1.165,-0.538 -0.246,-0.383 -0.318,-0.846 -0.383,-1.294 -0.142,-0.972 -0.284,-1.946 -0.34,-2.925 -0.069,-1.209 -0.005,-2.441 0.394,-3.585 0.397,-1.144 1.157,-2.2 2.229,-2.788 0.342,0.422 0.491,0.84 0.593,1.371 0.453,2.322 0.654,4.695 0.505,7.055 -0.035,0.576 -0.095,1.164 -0.35,1.686 -0.253,0.519 -0.917,0.863 -1.483,1.018 m -52.558,192.023 c 1.561,8.432 3.175,17.59 2.782,22.29 0,0 7.029,6.365 14.528,0.647 0,0 0.523,-10.63 1.033,-24.52 a 181.229,181.229 0 0 1 -18.343,1.583"
     fill="#f0c6b4"
     id="path23702"
     style="fill-rule:evenodd" />
  <path
     d="m 218.392,85.018 -14.346,13.569 c -2.874,2.784 -7.5,2.75 -10.332,-0.076 a 7.467,7.467 0 0 1 -0.467,-0.515 l -0.66,-0.803 -21.202,-25.773 c -3.27,-3.976 -2.646,-9.81 1.394,-13.028 4.04,-3.22 9.967,-2.606 13.24,1.37 0.164,0.202 0.331,0.424 0.476,0.635 l 14.632,21.258 9.807,-7.101 7.458,10.464"
     fill="#f0f0f2"
     id="path23704"
     style="fill-rule:evenodd" />
  <path
     d="m 230.526,76.836 c 0,0 5.767,2.274 10.928,-2.654 l -6.175,-1.014 -4.753,3.668"
     fill="#f5bb9b"
     id="path23706"
     style="fill-rule:evenodd" />
  <path
     d="m 190.285,49.762 c 0,0 5.916,11.773 16.23,20.048 0,0 4.385,-7.993 2.512,-17.208 l -7.36,2.258 -8.435,-4.52 -2.947,-0.578"
     fill="#f0c6b4"
     id="path23708"
     style="fill-rule:evenodd" />
  <path
     fill="#6d1178"
     d="m 196.434,74.837 4.693,6.818 4.371,-3.166 -4.074,1.317 -4.99,-4.969 m -25.267,-3.695 15.22,18.515 -14.266,-13.456 -0.954,-5.059"
     id="path23710"
     style="fill-rule:evenodd" />
  <g
     transform="rotate(10,-31.269,1989.297)"
     id="g23716"
     style="fill:none;fill-rule:evenodd">
    <use
       fill="#000000"
       filter="url(#j)"
       xlink:href="#k"
       id="use23712"
       x="0"
       y="0"
       width="100%"
       height="100%" />
    <use
       fill="#2d68ff"
       xlink:href="#k"
       id="use23714"
       x="0"
       y="0"
       width="100%"
       height="100%" />
  </g>
  <path
     d="m 370.122,49.779 -18.835,-3.321 a 1.0001636,1.0001636 0 0 1 0.347,-1.97 l 18.835,3.321 a 1.0001636,1.0001636 0 0 1 -0.347,1.97 m -0.869,4.924 -18.834,-3.321 a 1.0001636,1.0001636 0 0 1 0.347,-1.97 l 18.835,3.321 a 1.0002505,1.0002505 0 0 1 -0.348,1.97 m -0.868,4.924 -18.834,-3.321 a 1.0001636,1.0001636 0 0 1 0.347,-1.97 l 18.834,3.321 a 1.0001636,1.0001636 0 0 1 -0.347,1.97"
     fill="#ffffff"
     id="path23718"
     style="fill-rule:evenodd" />
  <g
     id="g23728"
     style="fill:none;fill-rule:evenodd">
    <path
       fill="#c5cee5"
       d="M 21.674,81.662 53.087,70.228 44.44,46.47 13.026,57.903 Z"
       id="path23720" />
    <path
       fill="#c5cee5"
       d="M 23.55,37.947 13.026,57.904 44.44,46.47 Z"
       id="path23722" />
    <path
       fill="#8690a8"
       d="M 13.026,57.904 33.056,64.065 44.44,46.47 Z"
       id="path23724" />
    <path
       fill="#b5bed6"
       d="M 52.885,70.192 32.855,64.03 21.47,81.626 Z"
       id="path23726" />
  </g>
</svg>
