<?xml version="1.0" encoding="UTF-8" standalone="no"?>
<svg
   width="518"
   height="448"
   version="1.1"
   id="svg9245"
   sodipodi:docname="problems_4.svg"
   inkscape:version="1.1.2 (b8e25be833, 2022-02-05)"
   xmlns:inkscape="http://www.inkscape.org/namespaces/inkscape"
   xmlns:sodipodi="http://sodipodi.sourceforge.net/DTD/sodipodi-0.dtd"
   xmlns:xlink="http://www.w3.org/1999/xlink"
   xmlns="http://www.w3.org/2000/svg"
   xmlns:svg="http://www.w3.org/2000/svg">
  <sodipodi:namedview
     id="namedview9247"
     pagecolor="#505050"
     bordercolor="#eeeeee"
     borderopacity="1"
     inkscape:pageshadow="0"
     inkscape:pageopacity="0"
     inkscape:pagecheckerboard="0"
     showgrid="false"
     inkscape:zoom="0.92522321"
     inkscape:cx="191.30519"
     inkscape:cy="211.84077"
     inkscape:window-width="1600"
     inkscape:window-height="837"
     inkscape:window-x="-1608"
     inkscape:window-y="159"
     inkscape:window-maximized="1"
     inkscape:current-layer="svg9245" />
  <defs
     id="defs9086">
    <linearGradient
       x1="193.06629"
       y1="378.25017"
       x2="287.26032"
       y2="429.55898"
       id="a"
       gradientTransform="scale(1.2355827,0.80933474)"
       gradientUnits="userSpaceOnUse">
      <stop
         stop-opacity="0"
         offset="0%"
         id="stop9078" />
      <stop
         stop-opacity=".051"
         offset="24.735%"
         id="stop9080" />
      <stop
         stop-opacity=".081"
         offset="100%"
         id="stop9082" />
    </linearGradient>
    <path
       d="M2.396 2.567c.004-.037.009-.073.018-.114l-.018.114z"
       id="b" />
  </defs>
  <path
     d="m 285.797,394.926 c -6.882,-3.797 -49.957,-39.091 -56.563,-43.379 -8.18,-5.304 -16.204,-10.85 -24.304,-16.276 -5.19,-3.476 -10.386,-6.951 -15.582,-10.431 -5.944,-3.98 -9.378,-6.648 -6.043,-13.613 2.24,-4.675 6.54,-8.342 10.583,-11.434 8.072,-6.163 17.32,-10.315 26.09,-15.33 17.928,-10.25 36.639,-19.062 55.317,-27.86 8.198,-3.858 16.035,-5.603 23.836,-5.603 9.383,0 44.62,30.864 54.44,35.278 9.57,4.296 41.81,24.916 52.82,38.916 6.427,8.173 6.048,18.96 -0.61,26.946 -5.42,6.512 -10.328,4.84 -16.03,11.068 -3.874,4.231 -1.195,7.74 -6.025,11.028 -4.811,3.28 -8.647,-4.607 -14.133,-2.769 -0.656,0.22 -1.463,-1.407 -1.177,-2.326 -0.544,-0.346 -1.63,0.829 -2.356,0.829 -3.673,0 -18.438,14.254 -20.982,15.528 -8.044,4.03 -16.087,8.061 -24.131,12.087 -4.732,2.375 -9.496,3.415 -14.232,3.415 -7.107,0 -14.148,-2.342 -20.918,-6.074 z"
     fill="url(#a)"
     id="path9088"
     style="fill:url(#a);fill-rule:evenodd" />
  <path
     d="m 75.86,410.802 c 101.145,49.597 265.136,49.598 366.28,10e-4 101.147,-49.598 101.147,-130.009 0,-179.605 C 340.995,181.6 177.004,181.6 75.86,231.196 -25.285,280.793 -25.285,361.206 75.861,410.802"
     fill-opacity="0.026"
     fill="#000000"
     id="path9090"
     style="fill-rule:evenodd;fill:#e1dfef;fill-opacity:1" />
  <path
     d="M 421.333,43.635 378.304,19.31 c -0.558,-0.333 -1.083,-0.383 -1.532,-0.2 l -0.156,0.052 -0.155,0.051 -0.154,0.053 -0.155,0.052 -0.154,0.051 -0.155,0.052 -0.154,0.051 -0.154,0.052 -0.155,0.053 -0.156,0.052 -0.153,0.051 -0.154,0.052 -0.156,0.051 -0.155,0.052 -0.152,0.053 -0.156,0.051 -0.155,0.052 -0.155,0.051 -0.152,0.052 -0.156,0.051 -0.155,0.054 -0.156,0.051 -0.152,0.052 -0.155,0.051 -0.156,0.052 -0.155,0.053 -0.154,0.051 -0.154,0.052 -0.155,0.051 -0.155,0.052 c -1.002,0.277 -1.692,1.66 -1.692,3.737 v 39.328 c 0,2.936 1.374,6.135 3.07,7.145 l 6.118,3.644 v 12.03 l 0.155,-0.139 v 0.09 l 0.155,-0.14 v 0.087 l 0.154,-0.14 v 0.088 l 0.154,-0.14 v 0.089 l 0.155,-0.14 v 0.088 l 0.156,-0.14 v 0.089 l 0.154,-0.142 v 0.09 l 0.153,-0.14 v 0.087 l 0.156,-0.14 v 0.088 l 0.154,-0.14 v 0.089 l 0.155,-0.14 v 0.088 l 0.155,-0.14 v 0.089 l 0.154,-0.14 v 0.088 l 0.154,-0.14 v 0.087 l 0.155,-0.14 v 0.089 l 0.156,-0.14 v 0.088 l 0.153,-0.14 v 0.089 l 0.154,-0.14 v 0.088 l 0.156,-0.14 v 0.089 l 0.155,-0.14 v 0.087 l 0.154,-0.14 v 0.088 l 0.154,-0.14 v 0.089 l 0.155,-0.14 v 0.088 l 0.155,-0.14 v 0.088 l 0.154,-0.14 v 0.089 l 0.154,-0.14 v 0.087 l 0.155,-0.14 v 0.088 l 0.156,-0.14 V 85.1 l 0.153,-0.14 v 0.088 l 0.154,-0.14 v 0.089 l 0.156,-0.14 v 0.088 l 5.052,-4.563 28.137,14.818 c 0.56,0.334 1.08,0.383 1.533,0.2 l 0.155,-0.052 0.153,-0.051 c 3.08,-1.243 4.951,-1.19 4.951,-5.188 V 50.78 c 0,-2.936 -1.375,-6.135 -3.07,-7.145"
     fill="#264aa7"
     id="path9092"
     style="fill-rule:evenodd" />
  <path
     d="m 417.611,45.3 -44.1,-24.326 c -1.696,-1.01 -3.07,0.55 -3.07,3.487 v 39.328 c 0,2.936 1.374,6.135 3.07,7.145 l 6.118,3.644 V 86.61 l 8.028,-7.25 29.954,15.9 c 1.695,1.01 3.07,-0.55 3.07,-3.487 V 52.445 c 0,-2.935 -1.375,-6.135 -3.07,-7.145"
     fill="#2d68ff"
     id="path9094"
     style="fill-rule:evenodd" />
  <path
     d="m 383.451,51.346 c 0,2.266 -1.061,3.47 -2.37,2.692 -1.31,-0.781 -2.373,-3.25 -2.373,-5.517 0,-2.267 1.063,-3.471 2.372,-2.692 1.31,0.781 2.371,3.25 2.371,5.517 m 14.881,8.309 c 0,2.266 -1.063,3.47 -2.372,2.692 -1.31,-0.781 -2.373,-3.25 -2.373,-5.517 0,-2.267 1.063,-3.473 2.373,-2.692 1.31,0.78 2.372,3.25 2.372,5.517 m 13.225,8.309 c 0,2.265 -1.063,3.471 -2.372,2.69 -1.31,-0.78 -2.371,-3.248 -2.371,-5.516 0,-2.267 1.061,-3.472 2.37,-2.692 1.31,0.78 2.373,3.25 2.373,5.518"
     fill="#ffffff"
     id="path9096"
     style="fill-rule:evenodd" />
  <path
     d="m 103.83,52.063 0.282,-0.147 c 1.28,-8.284 7.02,-17.303 13.92,-21.306 1.975,-1.147 3.861,-1.77 5.57,-1.928 1.003,-3.406 2.486,-6.924 4.468,-10.375 4.02,-6.996 9.3,-12.391 14.585,-15.457 5.286,-3.067 10.578,-3.807 14.62,-1.49 l 7.248,4.232 c 1.774,1.017 3.153,2.544 4.152,4.446 1.924,-0.272 3.657,0.017 5.082,0.848 l 7.246,4.234 -0.026,-0.014 c 2.57,1.488 4.166,4.665 4.18,9.191 0.023,8.659 -5.752,19.103 -13.103,24.083 l -60.899,35.338 c -3.503,2.032 -6.648,2.089 -8.827,0.56 l 0.384,0.27 -7.247,-4.233 C 93.333,79.07 92.01,76.422 92,72.658 91.979,65.091 97.279,55.865 103.83,52.063"
     fill="#b2adcd"
     id="path9098"
     style="fill-rule:evenodd" />
  <path
     d="m 149.27,7.834 c -5.285,3.066 -10.566,8.461 -14.587,15.457 -1.982,3.451 -3.465,6.97 -4.467,10.377 -1.71,0.156 -3.594,0.78 -5.572,1.926 -6.899,4.003 -12.64,13.022 -13.917,21.306 l -0.283,0.148 c -6.552,3.802 -11.852,13.029 -11.83,20.594 0.02,7.574 5.356,10.63 11.908,6.828 l 60.899,-35.338 c 7.35,-4.98 13.125,-15.424 13.102,-24.083 -0.024,-9.08 -6.421,-12.745 -14.284,-8.18 l -0.395,0.25 c -0.513,-4.895 -2.497,-8.795 -5.954,-10.775 -4.045,-2.315 -9.336,-1.577 -14.62,1.49"
     fill="#e1dfef"
     id="path9100"
     style="fill-rule:evenodd" />
  <path
     d="m 282.502,286.198 3.307,-6.731 a 99.78,99.78 0 0 1 -3.38,-3.9 l -3.333,6.854 c -11.758,-13.418 -20.448,-29.64 -25.271,-45.504 l 7.643,1.014 a 124.823,124.823 0 0 1 -1.584,-4.877 l -7.431,-0.996 c -3.993,-15.768 -3.989,-30.845 0.884,-42.113 l 3.7,4.045 c 0.289,-1.25 0.618,-2.495 0.98,-3.686 l -3.132,-3.463 c 3.253,-5.891 7.787,-9.882 13.179,-12.037 3.6,-2.872 7.815,-4.613 12.475,-5.222 a 27.334,27.334 0 0 1 3.29,-0.255 c 1.52,-0.036 3.104,0.027 4.719,0.205 12.678,1.468 27.315,9.754 40.76,24.531 0.74,0.823 1.498,1.673 2.21,2.51 l 0.2,0.222 c 10.043,11.777 17.79,25.531 22.68,39.286 l 0.06,0.168 c 6.902,19.432 8.07,38.84 1.953,52.458 l -0.546,1.164 a 29.777,29.777 0 0 1 -2.883,4.764 21.364,21.364 0 0 1 -2.058,2.513 24.33,24.33 0 0 1 -9.055,6.318 c -5.32,4.214 -11.947,5.969 -19.329,5.35 l -1.394,-4.95 a 48.54,48.54 0 0 1 -3.695,-1.168 l 1.579,5.687 c -11.5,-2.05 -24.436,-9.537 -36.528,-22.187 m -21.174,-123.33 c -2.049,1.532 -3.898,3.355 -5.536,5.423 -6.096,7.609 -9.516,18.609 -9.683,31.922 -0.126,8.877 1.21,18.777 4.147,29.363 0.203,0.764 0.428,1.514 0.672,2.287 a 86.59,86.59 0 0 0 1.543,4.863 l 0.014,0.023 c 5.802,17.223 15.065,33.45 26.065,46.768 a 140.604,140.604 0 0 0 3.347,3.913 c 8.46,9.477 17.786,17.3 27.288,22.614 7.034,3.94 14.167,6.531 21.084,7.454 3.975,0.536 7.688,0.51 11.167,-0.054 l 0.077,-0.046 c 2.53,-0.39 4.931,-1.073 7.128,-2.05 l 0.055,-0.027 c 19.107,-8.205 26.777,-35.6 17.145,-70.245 -12.277,-44.25 -48.092,-83.622 -80.036,-87.908 -9.778,-1.327 -18.066,0.818 -24.477,5.7"
     fill="#343038"
     id="path9102"
     style="fill-rule:evenodd" />
  <path
     fill="#acabb9"
     d="m 279.646,166.377 3.497,0.468 0.428,1.514 0.257,0.968 1.174,4.164 13.58,49.05 0.014,0.026 3.04,10.932 0.52,1.905 0.96,3.436 0.37,1.409 0.014,0.027 0.578,2.005 0.383,1.436 0.961,3.436 0.465,1.628 3.027,10.977 12.232,44.108 1.394,4.95 1.412,5.11 0.483,1.781 -3.496,-0.473 -0.497,-1.74 -1.412,-5.11 -1.58,-5.686 -12.019,-43.386 -3.068,-10.986 -0.013,-0.027 -0.424,-1.618 -0.961,-3.437 -0.398,-1.395 -0.013,-0.027 -0.55,-2.018 -0.389,-1.437 -0.947,-3.409 -0.532,-1.927 -3.068,-10.986 -13.568,-49.027 -0.96,-3.436 -0.465,-1.696 -0.429,-1.509"
     id="path9104"
     style="fill-rule:evenodd" />
  <path
     fill="#acabb9"
     d="m 247.68,231.413 1.091,0.145 2.157,0.305 1.525,0.195 7.431,0.996 27.974,3.75 7.972,1.059 1.29,0.195 0.027,-0.014 2.468,0.323 1.03,0.15 1.42,0.191 0.023,-0.014 1.029,0.146 2.486,0.35 1.3,0.159 7.8,1.05 35.369,4.736 3.681,0.5 1.277,0.173 1.345,4.877 -1.237,-0.163 -3.722,-0.51 -35.404,-4.75 -7.842,-1.063 -1.236,-0.16 -2.473,-0.322 -1.024,-0.15 -1.448,-0.177 -1.024,-0.146 -2.473,-0.322 -1.25,-0.191 -8.035,-1.05 -27.74,-3.75 -7.642,-1.014 -1.34,-0.168 -0.014,-0.023 -2.328,-0.309 -1.092,-0.145 -1.372,-4.86"
     id="path9106"
     style="fill-rule:evenodd" />
  <path
     fill="#acabb9"
     d="m 250.265,181.772 1.06,1.141 3.56,3.928 3.131,3.463 31.511,34.622 7.787,8.546 1.354,1.486 2.432,2.65 0.965,1.1 0.023,-0.014 1.399,1.555 0.013,0.027 1.006,1.11 2.428,2.654 1.204,1.332 7.675,8.409 34.642,38.086 2.527,2.768 1.02,1.131 1.335,1.46 -1.525,3.086 -1.3,-1.446 -1.588,-1.718 -36.645,-40.24 -7.697,-8.5 -1.16,-1.255 -2.44,-2.677 -0.993,-1.086 -1.422,-1.541 -0.013,-0.027 -1.006,-1.11 -2.4,-2.668 -0.028,0.014 -1.285,-1.418 -7.833,-8.623 -30.965,-34.027 -3.7,-4.045 -3.546,-3.9 -1.078,-1.173 1.552,-3.1"
     id="path9108"
     style="fill-rule:evenodd" />
  <path
     d="m 321.552,195.9 a 58.833,58.833 0 0 1 1.629,1.727 85.238,85.238 0 0 1 1.818,2.059 c 11.681,13.463 20.322,29.65 25.073,45.45 0.5,1.64 0.947,3.245 1.344,4.877 3.953,15.69 3.917,30.65 -0.96,41.854 -0.23,0.54 -0.475,1.054 -0.718,1.568 -0.266,0.532 -0.51,1.045 -0.808,1.522 -1.935,3.496 -4.331,6.35 -7.06,8.51 -5.32,4.213 -11.948,5.968 -19.33,5.35 -1.155,-0.073 -2.328,-0.242 -3.51,-0.432 -11.5,-2.05 -24.436,-9.537 -36.528,-22.187 a 424.155,424.155 0 0 1 -1.854,-2.004 c -0.528,-0.573 -1.047,-1.186 -1.552,-1.773 -11.758,-13.418 -20.448,-29.64 -25.271,-45.504 -0.488,-1.613 -0.948,-3.24 -1.372,-4.859 -3.993,-15.768 -3.989,-30.845 0.884,-42.113 0.23,-0.54 0.47,-1.054 0.74,-1.582 0.271,-0.532 0.51,-1.045 0.808,-1.522 3.253,-5.891 7.787,-9.882 13.179,-12.037 4.038,-1.636 8.586,-2.213 13.436,-1.786 1.128,0.09 2.328,0.24 3.502,0.473 11.54,2.127 24.476,9.677 36.55,22.409 m -65.76,-27.61 c -3.745,2.855 -6.876,6.778 -9.322,11.723 -13.567,27.677 0.244,77.472 30.816,111.049 22.059,24.232 46.906,33.495 64.15,26.382 l 0.077,-0.046 c 6.578,-2.777 12.05,-7.959 15.836,-15.613 8.153,-16.637 6.425,-41.245 -2.892,-65.536 l -0.058,-0.168 c -5.306,-13.718 -12.99,-27.304 -22.682,-39.286 l -0.198,-0.223 a 132.442,132.442 0 0 0 -4.977,-5.809 C 301.442,163.218 272.756,155 255.792,168.291"
     fill="#acabb9"
     id="path9110"
     style="fill-rule:evenodd" />
  <path
     d="m 280.075,167.886 c 0.523,0.037 1.087,0.082 1.637,0.164 0.623,0.082 1.255,0.186 1.86,0.309 a 46.34,46.34 0 0 1 4.976,1.173 c 11.794,3.504 23.877,11.79 34.61,23.131 1.142,1.232 2.301,2.487 3.425,3.8 11.835,13.614 21.72,30.863 27.17,49.172 0.244,0.778 0.47,1.523 0.686,2.314 0.235,0.877 0.456,1.732 0.7,2.573 3.677,14.631 3.925,27.736 1.272,38.185 -0.632,2.537 -1.43,4.9 -2.41,7.06 a 33.819,33.819 0 0 1 -1.488,3.1 c -5.717,10.44 -15.602,16.19 -28.56,15.058 -0.592,-0.031 -1.232,-0.1 -1.855,-0.177 -0.55,-0.086 -1.105,-0.173 -1.656,-0.254 -3.731,-0.646 -7.494,-1.81 -11.257,-3.45 -9.723,-4.169 -19.428,-11.364 -28.262,-20.623 -1.146,-1.232 -2.288,-2.463 -3.411,-3.777 -11.925,-13.59 -21.865,-30.882 -27.37,-49.227 -0.27,-0.823 -0.504,-1.704 -0.753,-2.545 -0.216,-0.787 -0.42,-1.55 -0.618,-2.314 -2.95,-11.6 -3.74,-22.25 -2.662,-31.345 0.61,-5.268 1.877,-10.036 3.682,-14.168 0.483,-1.095 0.993,-2.14 1.534,-3.132 5.757,-10.495 15.706,-16.25 28.75,-15.027 m -35.973,65.268 c 12.294,44.276 48.132,83.635 80.04,87.908 9.8,1.313 18.088,-0.832 24.5,-5.714 l 0.054,-0.027 c 14.487,-11.036 19.509,-36.013 11.018,-66.681 -12.282,-44.25 -48.12,-83.604 -80.041,-87.904 -6.917,-0.922 -13.053,-0.132 -18.345,2.132 -19.126,8.177 -26.823,35.586 -17.226,70.286"
     fill="#343038"
     id="path9112"
     style="fill-rule:evenodd" />
  <path
     d="m 268.064,174.804 c -3.127,2.464 -5.784,5.805 -7.86,9.991 a 38.736,38.736 0 0 0 -2.188,5.51 l -3.131,-3.464 c 3.253,-5.891 7.787,-9.882 13.179,-12.037"
     fill="#acabb9"
     id="path9114"
     style="fill-rule:evenodd" />
  <path
     d="m 149.844,108.641 c 0,-2.531 -1.769,-3.559 -3.943,-2.29 -2.18,1.263 -3.948,4.345 -3.948,6.881 0,2.532 1.769,3.56 3.948,2.291 2.174,-1.263 3.943,-4.345 3.943,-6.882"
     fill="#343038"
     id="path9116"
     style="fill-rule:evenodd" />
  <path
     fill="#343038"
     d="m 148.69,106.069 -5.582,9.736 29.214,16.99 5.581,-9.731 -29.214,-16.995"
     id="path9118"
     style="fill-rule:evenodd" />
  <path
     d="m 179.058,125.637 c 0,-2.537 -1.768,-3.564 -3.943,-2.296 -2.18,1.268 -3.948,4.35 -3.948,6.882 0,2.536 1.769,3.564 3.948,2.295 2.175,-1.268 3.943,-4.35 3.943,-6.881 m 51.075,-64.163 c 0,-2.532 -1.764,-3.56 -3.944,-2.291 -2.174,1.264 -3.943,4.345 -3.943,6.882 0,2.532 1.769,3.559 3.943,2.295 2.18,-1.268 3.944,-4.35 3.944,-6.886"
     fill="#343038"
     id="path9120"
     style="fill-rule:evenodd" />
  <path
     fill="#343038"
     d="m 228.978,58.901 -5.577,9.736 29.214,16.991 5.582,-9.732 -29.22,-16.995"
     id="path9122"
     style="fill-rule:evenodd" />
  <path
     d="m 259.352,78.47 c 0,-2.537 -1.769,-3.564 -3.948,-2.296 -2.18,1.268 -3.944,4.35 -3.944,6.881 0,2.537 1.764,3.564 3.944,2.296 2.179,-1.268 3.948,-4.35 3.948,-6.882 m 109.439,229.616 c -1.642,1.363 -2.91,3.313 -3.695,5.795 l -0.009,0.023 c -0.582,1.859 -0.898,4.009 -0.898,6.427 0,4.859 1.268,10.113 3.443,15.122 3.623,8.35 9.764,16.023 16.725,20.073 2.784,1.618 5.437,2.504 7.851,2.723 1.81,0.163 3.483,-0.055 4.977,-0.619 a 9.55,9.55 0 0 0 2.734,-1.59 c 2.878,-2.382 4.606,-6.578 4.606,-12.246 0,-6.477 -2.256,-13.659 -5.906,-20.027 a 49.416,49.416 0 0 0 -2.987,-4.6 c -3.216,-4.404 -7.097,-8.136 -11.275,-10.568 -6.267,-3.645 -11.866,-3.577 -15.566,-0.513"
     fill="#343038"
     id="path9124"
     style="fill-rule:evenodd" />
  <path
     d="m 360.598,323.52 c 0,-12.354 8.604,-17.358 19.225,-11.186 10.616,6.178 19.225,21.196 19.225,33.55 0,12.35 -8.609,17.354 -19.225,11.182 -10.621,-6.177 -19.225,-21.195 -19.225,-33.545"
     fill="#d8d6e8"
     id="path9126"
     style="fill-rule:evenodd" />
  <path
     d="m 379.823,358.161 c 11.135,6.482 20.168,1.227 20.168,-11.731 0,-12.955 -9.028,-28.714 -20.168,-35.191 -11.14,-6.482 -20.173,-1.227 -20.173,11.732 0,12.954 9.033,28.713 20.173,35.19 z m 0,-6.586 c -8,-4.65 -14.51,-16.009 -14.51,-25.313 0,-9.305 6.51,-13.091 14.51,-8.437 8,4.65 14.506,16.01 14.506,25.314 0,9.304 -6.507,13.09 -14.506,8.436 z"
     fill="#343038"
     id="path9128"
     style="fill-rule:evenodd" />
  <path
     d="m 375.284,337.339 c -5.044,-10.646 2.445,-15.005 9.073,-5.277 5.05,10.645 -2.445,15.004 -9.073,5.277"
     fill="#343038"
     id="path9130"
     style="fill-rule:evenodd" />
  <path
     d="m 378.78,335.293 0.05,0.032 a 0.938,0.938 0 0 0 1.408,-0.818 l 0.005,-70.49 -86.403,-51.095 v 42.418 l 4.963,3.727 v -36.645 l 76.476,44.481 v 62.277 a 7.069,7.069 0 0 0 3.502,6.113 m -164.742,-69.094 1.629,0.945 v -5.768 l -1.629,-0.95 c -3.799,-2.209 -6.98,-7.373 -7.395,-12.009 l -9.299,-96.794 c 0.41,-8.723 -5.744,-17.65 -13.143,-21.282 l -6.632,-3.882 c -3.272,-2.35 -5.546,2.237 -3.353,3.81 l 9.967,5.836 c 4.2,2.459 7.742,8.19 8.234,13.331 l 9.3,96.767 c 0.69,7.705 5.986,16.31 12.321,19.996"
     fill="#d8d6e8"
     id="path9132"
     style="fill-rule:evenodd" />
  <path
     fill="#d8d6e8"
     d="m 294.625,396.852 4.959,2.886 V 310.93 l -86.398,-51.095 7.526,38.613 4.959,3.732 -7.522,-32.845 76.476,44.481 v 83.036"
     id="path9134"
     style="fill-rule:evenodd" />
  <path
     d="m 374.494,248.958 -68.882,-40.945 c -3.325,-1.932 -6.123,-6.464 -6.502,-10.532 l -7.034,-75.84 c -0.622,-6.686 -5.567,-14.077 -10.995,-16.431 l -3.258,-1.414 -80.654,46.913 9.2,96.517 c 0.573,6.018 4.71,12.714 9.633,15.577 l 91.78,53.381 70.042,-41.65 c 13.324,-6.317 3.745,-21.426 -3.33,-25.576"
     fill="#343038"
     id="path9136"
     style="fill-rule:evenodd" />
  <path
     d="m 338.846,393.797 -0.618,0.286 -0.55,-0.218 -9.042,-8.086 c -1.85,-1.645 -3.781,-3.559 -4.395,-5.923 0.55,-0.186 1.065,-0.404 1.566,-0.654 0.428,2.027 2.229,3.79 3.93,5.318 l 9.041,8.086 0.068,1.191 m 6.245,4.346 c -1.634,-5.287 -7.445,-11.378 -14.14,-15.855 -1.566,-1.059 -2.112,-2.786 -2.563,-4.7 -0.154,-0.668 -0.316,-1.427 -0.483,-2.145 v -0.018 c -0.402,-1.46 -0.916,-2.919 -2.085,-4.01 l -16.67,-0.954 a 78.772,78.772 0 0 0 -2.23,3.505 v 0.018 c -0.6,1.09 -1.218,2.245 -1.732,3.454 v 0.018 c -1.034,2.264 -1.882,4.696 -2.365,7.569 -0.315,1.372 -0.518,2.868 -0.631,4.445 l 0.081,0.032 c -0.13,1.609 0.916,3.236 3.082,4.395 l 23.033,12.232 c 4.096,2.182 10.54,1.945 14.42,-0.518 1.65,-1.091 2.53,-2.387 2.734,-3.678 h 0.031 v -0.922 a 8.84,8.84 0 0 0 -0.482,-2.868"
     fill="#91309d"
     id="path9138"
     style="fill-rule:evenodd" />
  <path
     d="m 345.993,402.047 c -0.162,0.536 -0.04,0 -0.04,0 -0.204,1.314 -1.102,2.632 -2.775,3.74 -3.962,2.51 -10.536,2.76 -14.705,0.537 l -23.48,-12.468 c -3.613,-2.009 -3.225,-4.522 -3.225,-4.522 0.121,-1.605 0.42,-3.673 1.15,-4.823 -0.749,1.986 7.345,4.986 10.815,7.99 4.86,4.196 10.373,7.61 16.292,10.037 2.207,0.904 4.535,1.686 6.944,1.809 2.369,0.082 4.959,-0.514 6.615,-2.218 0.712,-0.737 1.994,-2.591 1.412,-4.296 0.325,0.991 1.349,2.055 0.997,4.214 m -7.147,-8.25 -0.618,0.286 -0.55,-0.218 -9.042,-8.086 c -1.85,-1.645 -3.781,-3.559 -4.395,-5.923 0.55,-0.186 1.065,-0.404 1.566,-0.654 0.428,2.027 2.229,3.79 3.93,5.318 l 9.041,8.086 0.068,1.191"
     fill="#dadada"
     id="path9140"
     style="fill-rule:evenodd" />
  <path
     fill="#dadada"
     d="m 324.381,384.838 -0.717,-0.409 0.293,-1.15 4.11,-2.464 1.142,0.291 -0.289,1.15 -4.11,2.464 -0.429,0.118 m 2.446,2.782 -0.7,-0.391 0.253,-1.155 4.327,-2.781 1.146,0.254 -0.253,1.16 -4.322,2.781 -0.451,0.132 m 2.865,2.618 -0.722,-0.414 0.302,-1.15 4.476,-2.618 1.137,0.3 -0.303,1.15 -4.475,2.623 -0.415,0.11 m 3.122,2.885 -0.69,-0.368 0.22,-1.163 4.215,-2.887 1.16,0.223 -0.222,1.168 -4.218,2.882 -0.465,0.145"
     id="path9142"
     style="fill-rule:evenodd" />
  <path
     d="m 303.275,373.438 c -0.15,-26.145 0.925,-84.503 2.53,-87.435 1.828,-3.327 4.914,-7.245 8.063,-9.332 4.445,-2.945 9.638,-5.604 14.858,-4.59 6.303,1.218 11.383,6.19 12.47,12.563 1.088,6.373 -8.991,85.299 -10.137,88.949 -0.709,2.268 -4.499,2.018 -8.135,1.768 -2.202,-0.15 -4.35,-0.305 -5.726,0.11 l -13.923,-2.033"
     fill="#3e5ccd"
     id="path9144"
     style="fill-rule:evenodd" />
  <path
     d="m 331.018,373.73 c -0.284,1.358 -1.164,2.704 -2.63,3.858 l -1.101,0.805 c -0.465,0.304 -0.966,0.572 -1.48,0.809 a 12.27,12.27 0 0 1 -1.566,0.654 c -5.229,1.928 -12.074,1.746 -16.671,-0.704 -0.952,-0.505 -1.75,-1.077 -2.382,-1.696 -1.264,-1.227 -1.9,-2.6 -1.913,-4.009 v -0.05 c 0,-2.013 1.281,-4.063 3.862,-5.704 5.31,-3.373 14.153,-3.727 19.717,-0.76 3.33,1.764 4.728,4.314 4.164,6.796"
     fill="#3e5ccd"
     id="path9146"
     style="fill-rule:evenodd" />
  <path
     d="m 367.672,362.588 9.056,8.087 0.058,1.186 -0.609,0.282 -0.555,-0.21 -9.037,-8.086 c -1.791,-1.577 -3.623,-3.409 -4.322,-5.64 l -0.09,-0.287 a 13.53,13.53 0 0 0 1.579,-0.645 l 0.076,0.268 c 0.52,1.91 2.22,3.586 3.844,5.045 m 15.354,13.623 -0.045,-0.105 c -1.651,-5.25 -7.444,-11.3 -14.09,-15.754 -1.49,-0.99 -2.053,-2.6 -2.486,-4.414 l -0.077,-0.286 c -0.117,-0.509 -0.235,-1.077 -0.37,-1.65 l -0.117,-0.495 v -0.014 c -0.388,-1.454 -0.912,-2.914 -2.071,-4.004 l -12.394,-0.723 -4.291,-0.241 a 80.596,80.596 0 0 0 -2.22,3.514 v 0.013 c -0.61,1.096 -1.218,2.25 -1.742,3.45 v 0.018 l -0.072,0.164 c -0.938,2.086 -1.728,4.336 -2.206,6.932 l -0.09,0.482 c -0.312,1.363 -0.506,2.863 -0.623,4.44 l 0.086,0.032 c -0.131,1.618 0.911,3.241 3.072,4.396 l 11.528,6.122 11.51,6.105 c 4.097,2.19 10.549,1.95 14.42,-0.51 1.651,-1.095 2.531,-2.386 2.725,-3.677 h 0.045 v -0.927 a 8.66,8.66 0 0 0 -0.492,-2.868"
     fill="#91309d"
     id="path9148"
     style="fill-rule:evenodd" />
  <path
     d="m 383.933,380.11 -0.086,0.242 c -0.27,1.245 -1.164,2.463 -2.725,3.513 -3.966,2.505 -10.548,2.746 -14.704,0.523 L 342.93,371.92 c -3.618,-1.995 -3.217,-4.518 -3.217,-4.518 0.122,-1.59 0.42,-3.645 1.133,-4.786 l 0.013,-0.028 c -0.744,1.978 7.346,4.982 10.815,7.982 a 50.714,50.714 0 0 0 2.46,1.996 58.564,58.564 0 0 0 13.837,8.04 c 2.202,0.9 4.526,1.682 6.94,1.819 2.368,0.072 4.958,-0.528 6.614,-2.223 0.686,-0.705 1.89,-2.46 1.457,-4.096 l -0.045,-0.195 c 0.33,0.973 1.34,2.04 0.997,4.2 m -7.148,-8.245 -0.618,0.286 -0.55,-0.218 -9.042,-8.087 c -1.845,-1.645 -3.78,-3.559 -4.394,-5.922 0.55,-0.187 1.064,-0.405 1.565,-0.655 0.433,2.028 2.229,3.791 3.93,5.318 l 9.042,8.087 0.067,1.19"
     fill="#dadada"
     id="path9150"
     style="fill-rule:evenodd" />
  <path
     fill="#dadada"
     d="m 362.321,362.907 -0.717,-0.41 0.293,-1.15 4.11,-2.463 1.142,0.29 -0.289,1.15 -4.11,2.464 -0.429,0.119 m 2.446,2.781 -0.7,-0.39 0.253,-1.155 4.327,-2.782 1.146,0.255 -0.253,1.159 -4.322,2.782 -0.451,0.131 m 2.865,2.623 -0.722,-0.418 0.302,-1.15 4.476,-2.618 1.137,0.3 -0.302,1.15 -4.476,2.618 -0.415,0.118 m 3.122,2.882 -0.69,-0.368 0.22,-1.164 4.215,-2.886 1.16,0.222 -0.222,1.169 -4.218,2.881 -0.465,0.146"
     id="path9152"
     style="fill-rule:evenodd" />
  <path
     d="m 358.983,275.112 c -20.995,-7.68 -34.315,-13.016 -39.962,-16.009 -10.978,-5.819 -29.934,-13.873 -56.868,-24.163 -4.607,-2.7 16,-10.345 15.639,-15.704 l 1.926,-24.468 c 42.29,22.645 101.851,38.404 99.406,67.94 z"
     fill="#3e5ccd"
     id="path9154"
     style="fill-rule:evenodd" />
  <path
     d="m 287.3,109.496 c 10.586,1.287 21.931,36.501 22.422,56.637 l 39.178,27.92 c 0,0 -3.97,8.65 -15.032,12.374 L 298.484,190.267 287.3,109.496"
     fill="#a91ac7"
     id="path9156"
     style="fill-rule:evenodd" />
  <path
     d="m 305.963,297.206 -62.398,-39.02 c -4.607,-2.7 -17.02,-10.864 -17.38,-16.223 -2.832,-13.56 -3.521,-21.715 -2.067,-24.468 1.418,-2.684 6.416,-2.684 14.993,0 42.29,22.645 101.851,38.404 99.406,67.94 l -32.554,11.77 z"
     fill="#3e5ccd"
     id="path9158"
     style="fill-rule:evenodd" />
  <path
     d="m 239.252,114.36 c 0,0 -13.217,4.915 -24.96,14.57 l 7.302,103.407 c 0,0 15.26,11.23 46.454,3.028 25.406,-6.687 32.087,-17.445 32.087,-17.445 0,0 2.315,-50.692 -0.068,-75.342 -2.384,-24.65 -12.34,-33.985 -12.34,-33.985 -5.538,-1.68 -17.772,-0.973 -17.772,-0.973 l -30.703,6.74"
     fill="#cf23f3"
     id="path9160"
     style="fill-rule:evenodd" />
  <path
     d="m 270.955,47.932 c 0,0 -16.44,-4.04 -32.465,1.993 -16.032,6.041 -6.673,28.994 -1.96,39.813 4.721,10.81 7.997,6.878 7.997,6.878 l 34.924,-14.159 c 0,0 4.646,-1.476 3.973,-16.136 C 282.75,51.66 270.955,47.932 270.955,47.932"
     fill="#172b3d"
     id="path9162"
     style="fill-rule:evenodd" />
  <path
     d="m 243.62,110.746 -0.697,-23.752 c 0,0 -5.947,-0.449 -4.925,-7 1.021,-6.542 7.112,-2.243 8.178,-0.311 0,0 1.377,-22.542 13.24,-24.703 11.872,-2.168 23.387,0.395 23.69,6.216 0.302,5.804 0.688,26.125 0,33.673 -0.682,7.562 -6.568,10.65 -17.41,10.346 l 0.734,12.219 c 0,0 -5.44,4.017 -20.624,0.281 l -2.187,-6.969"
     fill="#f5c29b"
     id="path9164"
     style="fill-rule:evenodd" />
  <path
     d="m 265.257,107.472 c 0,0 2.073,-0.03 2.883,0.426 0.81,0.457 5.16,4.831 5.258,9.647 0.106,4.808 -1.83,10.324 -1.83,10.324 l -9.844,-8.916 -6.189,12.013 c 0,0 -3.85,-0.769 -9.154,-4.77 -5.297,-4.017 -8.482,-9.975 -8.482,-9.975 1.695,-4.344 2.853,-6.93 2.853,-6.93 0.408,-0.997 2.277,-1.461 2.277,-1.461 0,0 10.479,9.563 18.695,10.027 0,0 2.928,-1.384 3.533,-10.385 m -23.149,113.549 77.133,-45.077 57.561,33.43 -77.126,45.069 -57.568,-33.422"
     fill="#fffefb"
     id="path9166"
     style="fill-rule:evenodd" />
  <path
     d="m 353.206,204.383 c 1.165,0.678 1.226,1.796 0.015,2.511 l -57.947,33.863 c -1.157,0.67 -3.124,0.67 -4.29,0 l -21.925,-12.736 c -1.165,-0.67 -1.112,-1.78 0.045,-2.457 l 57.947,-33.863 c 1.21,-0.715 3.072,-0.715 4.23,-0.038 l 21.925,12.72"
     fill="#cac6e0"
     id="path9168"
     style="fill-rule:evenodd" />
  <path
     fill="#cac6e0"
     d="m 298.45,255.888 23.916,-42.475 77.134,-45.077 -23.916,42.475 -0.242,0.282 -77.134,45.07 0.242,-0.275"
     id="path9170"
     style="fill-rule:evenodd" />
  <path
     d="m 321.752,206.376 0.643,0.684 c 1.286,1.492 1.816,3.607 1.173,4.725 l -23.916,42.475 c -0.908,1.956 -3.503,1.141 -4.207,0.738 L 241.32,223.57 c -1.445,-0.837 -2.625,-2.899 -2.625,-4.573 l 0.008,-0.745 57.568,33.422 25.482,-45.298"
     fill="#fffefb"
     id="path9172"
     style="fill-rule:evenodd" />
  <path
     d="m 320.273,208.341 77.134,-45.077 0.643,0.684 c 1.286,1.5 1.824,3.607 1.173,4.725 l -77.134,45.077 c 0.643,-1.118 0.114,-3.233 -1.173,-4.724 l -0.643,-0.685"
     fill="#fffefb"
     id="path9174"
     style="fill-rule:evenodd" />
  <path
     fill="#cac6e0"
     d="m 308.702,196.736 0.008,1.088 -19.157,11.192 h -1.876 l -9.594,-5.57 0.015,-1.087 19.15,-11.184 1.86,-0.015 9.594,5.576"
     id="path9176"
     style="fill-rule:evenodd" />
  <path
     d="m 214.896,127.76 c -8.164,9.35 -22.35,54.488 -21.714,61.822 0.628,7.327 44.858,46.12 44.858,46.12 l 12.665,-11.306 -31.315,-39.348 c 0,0 12.105,-28.279 9.669,-41.327 -2.451,-13.047 -14.163,-15.961 -14.163,-15.961"
     fill="#a91ac7"
     id="path9178"
     style="fill-rule:evenodd" />
  <path
     d="m 250.224,221.592 c 0,0 18.506,2.19 20.072,3.613 1.566,1.423 -1.937,5.174 -1.937,5.174 0,0 7.445,9.525 9.805,12.21 2.36,2.694 -10.667,3.379 -17.878,2.161 -7.218,-1.217 -16.198,-2.784 -22.728,-11.853 l 12.666,-11.305"
     fill="#f5c29b"
     id="path9180"
     style="fill-rule:evenodd" />
  <path
     d="m 239.987,51.578 a 45.703,45.703 0 0 1 1.316,-3.385 c 2.852,-6.634 9.987,-9.282 16.819,-9.19 9.79,0.136 19.429,5.302 27.161,10.993 3.829,2.815 8.308,5.25 13.044,4.983 -1.748,2.845 -3.942,5.181 -7.248,5.531 a 12.903,12.903 0 0 0 7.543,3.774 c -1.634,0.79 -3.26,1.582 -4.895,2.366 1.558,1.673 3.117,3.34 4.676,5.013 -0.606,-0.654 -7.112,0.03 -8.315,-0.068 a 56.862,56.862 0 0 1 -9.458,-1.598 c -6.037,-1.552 -10.198,-4.123 -15.215,-7.63 -2.375,3.218 -4.592,6.68 -7.127,9.76 -0.953,1.164 -8.746,6.718 -8.746,7.373 -0.272,3.408 0.22,6.968 -0.053,10.377 -0.552,-3.797 -2.496,-7.22 -4.365,-10.575 -1.869,-3.34 -3.73,-6.832 -4.116,-10.651 -0.386,-3.858 -2.202,-7.578 -2.141,-11.496 0.03,-1.81 0.5,-3.736 1.12,-5.577"
     fill="#172b3d"
     id="path9182"
     style="fill-rule:evenodd" />
  <path
     d="m 369.085,351.766 -0.073,0.404 -0.045,0.137 c -0.36,1.14 -1.507,1.59 -3.01,1.695 -1.402,0.082 -3.126,-0.127 -4.831,-0.332 -2.301,-0.281 -4.57,-0.563 -5.997,-0.131 l -3.293,-0.482 -10.558,-1.546 -0.077,-0.013 c -0.117,-21.16 0.569,-63.4 1.683,-80.308 v -0.014 c 0.09,-1.532 0.194,-2.85 0.316,-3.932 l 0.027,-0.377 0.014,-0.105 c 0.167,-1.454 0.33,-2.386 0.496,-2.7 a 29.46,29.46 0 0 1 1.98,-3.122 c 1.729,-2.414 3.885,-4.755 6.078,-6.214 4.435,-2.936 9.633,-5.595 14.862,-4.59 6.299,1.231 11.38,6.2 12.467,12.576 1.06,6.164 -8.415,81.208 -10.04,89.054"
     fill="#3e5ccd"
     id="path9184"
     style="fill-rule:evenodd" />
  <path
     d="m 369.085,351.766 -0.073,0.404 -0.045,0.137 c -0.329,1.277 -1.19,2.522 -2.562,3.631 a 9.17,9.17 0 0 1 -1.133,0.81 c -0.46,0.286 -0.938,0.554 -1.444,0.795 -0.491,0.24 -1.015,0.468 -1.565,0.664 -2.947,1.095 -6.42,1.513 -9.71,1.227 -2.549,-0.21 -4.99,-0.855 -7.002,-1.918 -1.01,-0.541 -1.846,-1.155 -2.5,-1.832 -1.268,-1.26 -1.863,-2.714 -1.773,-4.173 0.09,-1.95 1.372,-3.9 3.84,-5.477 1.655,-1.05 3.636,-1.8 5.752,-2.236 4.72,-1.032 10.13,-0.555 13.969,1.486 3.19,1.696 4.62,4.095 4.246,6.482"
     fill="#3e5ccd"
     id="path9186"
     style="fill-rule:evenodd" />
  <g
     transform="translate(338.422,360.204)"
     id="g9193"
     style="fill:none;fill-rule:evenodd">
    <mask
       id="c"
       fill="#ffffff">
      <use
         xlink:href="#b"
         id="use9188"
         x="0"
         y="0"
         width="100%"
         height="100%" />
    </mask>
    <path
       fill="#d2d2d1"
       mask="url(#c)"
       d="M 2.396,2.567 H 2.418 V 2.453 H 2.396 Z"
       id="path9191" />
  </g>
  <path
     d="m 354.132,372.566 a 50.826,50.826 0 0 1 -2.459,-1.996 c -3.365,-2.909 -11.067,-5.818 -10.855,-7.8 l 0.018,-0.113 c 0.009,-0.023 0.013,-0.046 0.022,-0.069 l -0.013,0.028 c 0.478,-2.596 1.268,-4.846 2.206,-6.932 0.654,0.677 1.49,1.29 2.5,1.832 2.012,1.063 4.453,1.709 7.002,1.918 0.52,4.459 1.056,8.854 1.58,13.132"
     fill="#692871"
     id="path9195"
     style="fill-rule:evenodd" />
  <path
     d="m 354.832,378.238 -11.903,-6.318 c -2.955,-1.632 -3.226,-3.609 -3.23,-4.282 0,-0.15 0.013,-0.236 0.013,-0.236 0.122,-1.59 0.42,-3.645 1.133,-4.786 l 0.013,-0.028 c -0.009,0.023 -0.013,0.046 -0.022,0.069 -0.01,0.04 -0.014,0.077 -0.018,0.113 -0.212,1.982 7.49,4.891 10.855,7.8 a 50.714,50.714 0 0 0 2.46,1.996 c 0.22,1.859 0.46,3.704 0.685,5.522 l 0.014,0.15"
     fill="#b4b4b4"
     id="path9197"
     style="fill-rule:evenodd" />
  <path
     d="m 343.227,266.867 c -5.54,-2.964 -11.022,-5.927 -16.211,-8.696 l 16.225,8.6 -0.014,0.096"
     fill="#2f2c32"
     id="path9199"
     style="fill-rule:evenodd" />
  <path
     d="m 341.201,351.498 c -0.009,-1.591 -0.013,-3.3 -0.013,-5.11 0,-11.85 0.19,-27.963 0.523,-42.803 0.045,-0.037 0.095,-0.078 0.145,-0.114 -0.05,0.018 -0.095,0.036 -0.145,0.059 0.289,-13.013 0.69,-25.036 1.173,-32.34 l -15.71,-7.541 c -11.485,-8.882 -17.173,-13.427 -17.061,-13.636 0.55,-1.005 34.842,11.977 35.605,10.927 a 43.51,43.51 0 0 0 10.129,1.204 c 0.176,0 0.356,0 0.532,-0.004 -1.665,2.659 -3.01,5.822 -4.097,9.409 -5.242,17.481 -4.092,45.063 -1.412,72.249 -2.116,0.436 -4.097,1.186 -5.752,2.236 -2.468,1.577 -3.75,3.527 -3.84,5.477 z"
     fill="#2d46a3"
     id="path9201"
     style="fill-rule:evenodd" />
  <path
     d="m 352.553,359.434 c -2.549,-0.21 -4.99,-0.855 -7.002,-1.918 -1.01,-0.541 -1.846,-1.155 -2.5,-1.832 -1.186,-1.182 -1.786,-2.536 -1.782,-3.9 0,-0.09 0.005,-0.182 0.009,-0.273 0.09,-1.95 1.372,-3.9 3.84,-5.477 1.655,-1.05 3.636,-1.8 5.752,-2.236 0.163,1.654 0.325,3.318 0.506,4.968 0.148,1.44 0.297,2.868 0.46,4.29 0.239,2.146 0.478,4.264 0.717,6.378"
     fill="#2d46a3"
     id="path9203"
     style="fill-rule:evenodd" />
  <path
     d="m 288.737,354.266 c -1.642,1.363 -2.914,3.318 -3.7,5.8 l -0.004,0.022 c -0.586,1.855 -0.902,4.005 -0.902,6.428 0,4.859 1.272,10.109 3.442,15.118 3.628,8.35 9.764,16.022 16.726,20.072 2.788,1.623 5.441,2.51 7.855,2.723 1.805,0.163 3.483,-0.05 4.977,-0.618 a 9.55,9.55 0 0 0 2.734,-1.591 c 2.878,-2.382 4.606,-6.573 4.606,-12.246 0,-6.477 -2.256,-13.654 -5.91,-20.027 a 49.374,49.374 0 0 0 -2.983,-4.6 c -3.221,-4.4 -7.101,-8.136 -11.28,-10.563 -6.262,-3.645 -11.86,-3.577 -15.56,-0.518"
     fill="#343038"
     id="path9205"
     style="fill-rule:evenodd" />
  <path
     d="m 280.54,369.702 c 0,-12.354 8.608,-17.359 19.224,-11.182 10.621,6.173 19.225,21.195 19.225,33.545 0,12.35 -8.608,17.36 -19.225,11.182 -10.616,-6.177 -19.225,-21.195 -19.225,-33.545"
     fill="#d8d6e8"
     id="path9207"
     style="fill-rule:evenodd" />
  <path
     d="m 299.764,404.347 c 11.14,6.477 20.168,1.227 20.173,-11.732 0,-12.959 -9.033,-28.718 -20.173,-35.195 -11.14,-6.477 -20.168,-1.227 -20.168,11.732 0,12.959 9.029,28.713 20.168,35.195 m 0,-6.586 c -8,-4.655 -14.505,-16.01 -14.505,-25.318 0,-9.305 6.506,-13.09 14.505,-8.436 8,4.654 14.51,16.008 14.51,25.313 0,9.304 -6.51,13.09 -14.51,8.44"
     fill="#343038"
     id="path9209"
     style="fill-rule:evenodd" />
  <path
     d="m 295.23,383.52 c -5.049,-10.645 2.445,-15 9.069,-5.277 5.049,10.645 -2.441,15.004 -9.069,5.277"
     fill="#343038"
     id="path9211"
     style="fill-rule:evenodd" />
  <path
     d="m 303.329,354.243 a 23.917,23.917 0 0 0 -1.548,-0.745 l 0.266,-40.464 c 0.673,0.391 1.345,0.769 2.017,1.132 -0.36,12.491 -0.618,27.223 -0.735,40.077"
     fill="#d2d2d1"
     id="path9213"
     style="fill-rule:evenodd" />
  <path
     d="m 304.064,314.166 a 74.964,74.964 0 0 1 -2.017,-1.132 l 0.005,-0.181 2.017,1.172 c 0,0.05 0,0.096 -0.005,0.141"
     fill="#2f2c32"
     id="path9215"
     style="fill-rule:evenodd" />
  <path
     d="m 304.299,354.784 c -0.325,-0.19 -0.645,-0.368 -0.97,-0.54 0.117,-12.855 0.374,-27.587 0.735,-40.078 0.005,-0.045 0.005,-0.09 0.005,-0.14 0.112,-3.869 0.099,-15.25 0.23,-18.56 2.332,1.214 5.117,3.72 7.395,4.552 -2.346,17.177 -2.586,46.625 1.61,62.461 -2.711,-3.15 -5.766,-5.813 -9.005,-7.695 z"
     fill="#2d46a3"
     id="path9217"
     style="fill-rule:evenodd" />
  <path
     d="m 316.422,371.22 c -0.379,0 -14.663,-13.95 -14.663,-13.95 l 0.022,-3.772 a 23.917,23.917 0 0 1 2.518,1.286 c 3.24,1.882 6.294,4.545 9.005,7.695 0.862,3.255 1.895,6.196 3.118,8.714 0.01,0.018 0.01,0.027 0,0.027"
     fill="#2f2c32"
     id="path9219"
     style="fill-rule:evenodd" />
  <path
     d="m 287.623,109.173 c -0.077,-0.104 -0.149,-0.204 -0.226,-0.295 a 19.773,19.773 0 0 0 -1.01,-1.182 l 1.308,0.582 -0.072,0.895"
     fill="#bc9758"
     id="path9221"
     style="fill-rule:evenodd" />
  <path
     d="m 202.448,332.38 3.303,-6.732 a 99.534,99.534 0 0 1 -3.375,-3.895 l -3.339,6.85 c -11.758,-13.419 -20.448,-29.637 -25.266,-45.5 l 7.638,1.01 a 132.598,132.598 0 0 1 -1.579,-4.874 l -7.431,-0.995 c -3.993,-15.773 -3.993,-30.845 0.88,-42.118 l 3.7,4.05 c 0.288,-1.254 0.622,-2.495 0.979,-3.69 l -3.127,-3.464 c 3.248,-5.886 7.787,-9.882 13.179,-12.032 3.596,-2.877 7.815,-4.613 12.475,-5.227 a 27.392,27.392 0 0 1 3.285,-0.25 34.855,34.855 0 0 1 4.724,0.2 c 12.678,1.468 27.315,9.759 40.76,24.536 0.74,0.823 1.493,1.668 2.21,2.505 l 0.195,0.227 c 10.043,11.772 17.79,25.527 22.681,39.286 l 0.063,0.163 c 6.899,19.432 8.067,38.84 1.954,52.463 l -0.546,1.164 a 29.746,29.746 0 0 1 -2.888,4.759 c -0.65,0.923 -1.317,1.75 -2.053,2.518 a 24.452,24.452 0 0 1 -9.06,6.318 c -5.319,4.214 -11.947,5.968 -19.328,5.35 l -1.39,-4.95 a 50.841,50.841 0 0 1 -3.7,-1.173 l 1.58,5.691 c -11.501,-2.054 -24.432,-9.54 -36.524,-22.19 M 181.269,209.054 c -2.048,1.527 -3.898,3.35 -5.536,5.418 -6.095,7.614 -9.51,18.613 -9.682,31.922 -0.122,8.882 1.209,18.777 4.15,29.364 0.2,0.763 0.43,1.513 0.673,2.286 0.46,1.632 0.975,3.227 1.538,4.864 l 0.019,0.022 c 5.797,17.227 15.065,33.45 26.06,46.772 a 140.74,140.74 0 0 0 3.352,3.914 c 8.46,9.477 17.782,17.3 27.288,22.613 7.03,3.937 14.163,6.532 21.084,7.45 3.97,0.537 7.688,0.51 11.162,-0.054 l 0.077,-0.046 c 2.536,-0.39 4.936,-1.072 7.133,-2.05 l 0.05,-0.027 c 19.108,-8.2 26.778,-35.6 17.15,-70.245 -12.282,-44.249 -48.092,-83.617 -80.04,-87.903 -9.774,-1.327 -18.062,0.814 -24.478,5.7"
     fill="#343038"
     id="path9223"
     style="fill-rule:evenodd" />
  <path
     fill="#acabb9"
     d="m 199.587,212.558 3.502,0.473 0.428,1.51 0.253,0.972 1.173,4.159 13.58,49.05 0.019,0.027 3.036,10.936 0.52,1.9 0.96,3.44 0.375,1.41 0.013,0.023 0.573,2.004 0.388,1.436 0.961,3.437 0.465,1.627 3.027,10.977 12.232,44.113 1.39,4.95 1.412,5.105 0.487,1.786 -3.501,-0.473 -0.496,-1.745 -1.412,-5.105 -13.595,-49.076 -3.072,-10.987 -0.014,-0.027 -0.42,-1.618 -0.96,-3.436 -0.398,-1.396 -0.018,-0.027 -0.55,-2.014 -0.384,-1.436 -0.947,-3.414 -0.532,-1.927 -3.068,-10.986 -13.568,-49.022 -0.96,-3.441 -0.47,-1.696 -0.429,-1.509"
     id="path9225"
     style="fill-rule:evenodd" />
  <path
     fill="#acabb9"
     d="m 243.614,237.804 3.434,3.759 -0.524,1.086 -1.583,3.223 -15.417,31.363 -3.398,6.918 0.014,0.027 -1.688,3.391 -0.433,0.891 -0.64,1.286 -0.452,0.91 -1.055,2.204 -0.564,1.073 -3.457,7.059 -17.497,35.654 -3.433,-3.764 0.537,-1.054 1.033,-2.128 0.546,-1.1 3.339,-6.85 12.055,-24.495 3.434,-7.045 0.573,-1.11 1.056,-2.208 0.451,-0.905 0.64,-1.29 0.456,-0.905 1.056,-2.21 0.605,-1.231 3.424,-6.936 15.368,-31.332 1.61,-3.24 0.51,-1.041"
     id="path9227"
     style="fill-rule:evenodd" />
  <path
     fill="#acabb9"
     d="m 167.62,277.599 1.093,0.145 2.16,0.3 1.526,0.2 7.431,0.995 27.974,3.75 7.968,1.055 1.29,0.2 0.027,-0.014 2.472,0.323 1.025,0.145 1.42,0.191 0.028,-0.013 1.024,0.15 2.486,0.345 1.304,0.16 7.801,1.054 35.364,4.736 3.686,0.5 1.273,0.173 1.349,4.872 -1.237,-0.163 -3.722,-0.51 -35.409,-4.745 -7.837,-1.063 -1.236,-0.164 -2.473,-0.323 -1.028,-0.15 -1.444,-0.172 -1.024,-0.15 -2.473,-0.323 -1.254,-0.186 -8.031,-1.055 -27.744,-3.75 -7.638,-1.009 -1.34,-0.173 -0.019,-0.022 -2.328,-0.305 -1.087,-0.145 -1.376,-4.86"
     id="path9229"
     style="fill-rule:evenodd" />
  <path
     fill="#acabb9"
     d="m 170.21,227.954 1.061,1.145 3.56,3.923 3.127,3.463 31.515,34.627 7.787,8.546 1.354,1.481 2.427,2.655 0.966,1.095 0.027,-0.013 1.399,1.559 0.013,0.023 1.006,1.113 2.428,2.65 1.2,1.332 7.68,8.409 34.637,38.09 2.526,2.764 1.02,1.136 1.34,1.455 -1.525,3.09 -1.3,-1.445 -1.588,-1.718 -36.65,-40.24 -7.692,-8.5 -1.16,-1.26 -2.44,-2.677 -0.993,-1.081 -1.422,-1.546 -0.018,-0.027 -1.001,-1.11 -2.405,-2.663 -0.027,0.014 -1.286,-1.423 -7.833,-8.622 -30.964,-34.023 -3.7,-4.05 -3.547,-3.9 -1.073,-1.168 1.552,-3.104"
     id="path9231"
     style="fill-rule:evenodd" />
  <path
     d="m 241.494,242.085 a 45.794,45.794 0 0 1 1.628,1.728 68.825,68.825 0 0 1 1.819,2.059 c 11.685,13.463 20.321,29.645 25.072,45.45 0.501,1.635 0.952,3.24 1.35,4.872 3.947,15.69 3.911,30.654 -0.966,41.858 a 38.29,38.29 0 0 1 -0.713,1.569 c -0.27,0.527 -0.515,1.04 -0.812,1.518 -1.931,3.495 -4.332,6.35 -7.061,8.513 -5.32,4.214 -11.948,5.968 -19.33,5.35 -1.154,-0.077 -2.323,-0.24 -3.51,-0.432 -11.5,-2.054 -24.431,-9.54 -36.523,-22.19 a 289.55,289.55 0 0 1 -1.854,-2.005 64.092,64.092 0 0 1 -1.557,-1.773 c -11.758,-13.418 -20.448,-29.636 -25.266,-45.499 a 130.47,130.47 0 0 1 -1.372,-4.859 c -3.993,-15.773 -3.993,-30.845 0.88,-42.118 0.23,-0.54 0.474,-1.054 0.74,-1.581 0.27,-0.532 0.514,-1.046 0.812,-1.523 3.248,-5.886 7.787,-9.882 13.179,-12.032 4.038,-1.64 8.582,-2.218 13.436,-1.786 1.128,0.086 2.324,0.24 3.497,0.468 11.546,2.132 24.481,9.682 36.55,22.413 m -65.76,-27.613 c -3.745,2.86 -6.876,6.777 -9.321,11.727 -13.563,27.673 0.243,77.467 30.82,111.044 22.059,24.232 46.906,33.495 64.145,26.382 l 0.077,-0.046 c 6.578,-2.777 12.051,-7.959 15.837,-15.613 8.153,-16.636 6.43,-41.24 -2.888,-65.536 l -0.063,-0.163 c -5.306,-13.718 -12.99,-27.305 -22.681,-39.286 l -0.194,-0.227 a 132.124,132.124 0 0 0 -4.981,-5.81 c -25.1,-27.545 -53.782,-35.758 -70.75,-22.472"
     fill="#acabb9"
     id="path9233"
     style="fill-rule:evenodd" />
  <path
     d="m 200.016,214.072 c 0.523,0.032 1.087,0.077 1.642,0.164 0.619,0.077 1.25,0.186 1.86,0.304 1.646,0.296 3.316,0.682 4.976,1.173 11.794,3.504 23.872,11.795 34.61,23.131 1.142,1.232 2.301,2.491 3.42,3.805 11.84,13.609 21.725,30.863 27.175,49.172 0.24,0.773 0.47,1.523 0.682,2.31 0.239,0.881 0.455,1.735 0.703,2.572 3.678,14.631 3.926,27.736 1.273,38.19 -0.632,2.537 -1.43,4.896 -2.414,7.06 a 34.973,34.973 0 0 1 -1.484,3.1 c -5.721,10.44 -15.607,16.19 -28.565,15.054 a 24.622,24.622 0 0 1 -1.85,-0.178 c -0.55,-0.086 -1.105,-0.168 -1.66,-0.254 -3.732,-0.641 -7.49,-1.81 -11.253,-3.446 -9.723,-4.172 -19.428,-11.368 -28.267,-20.622 -1.141,-1.236 -2.287,-2.468 -3.406,-3.777 -11.93,-13.596 -21.87,-30.882 -27.374,-49.227 -0.27,-0.827 -0.505,-1.709 -0.749,-2.545 -0.216,-0.791 -0.42,-1.555 -0.622,-2.314 -2.946,-11.6 -3.74,-22.254 -2.662,-31.35 0.613,-5.268 1.881,-10.036 3.681,-14.168 a 40.998,40.998 0 0 1 1.539,-3.127 c 5.753,-10.495 15.706,-16.25 28.745,-15.027 m -35.969,65.267 c 12.29,44.277 48.129,83.631 80.036,87.908 9.8,1.314 18.089,-0.831 24.504,-5.718 l 0.05,-0.027 c 14.492,-11.036 19.514,-36.013 11.018,-66.676 -12.277,-44.254 -48.115,-83.608 -80.036,-87.908 -6.921,-0.923 -13.057,-0.132 -18.35,2.136 -19.121,8.173 -26.818,35.586 -17.222,70.285"
     fill="#343038"
     id="path9235"
     style="fill-rule:evenodd" />
  <path
     d="m 188.01,220.99 c -3.131,2.46 -5.789,5.8 -7.86,9.99 a 39.232,39.232 0 0 0 -2.192,5.505 l -3.127,-3.463 c 3.248,-5.886 7.787,-9.882 13.179,-12.032 m -14.731,15.136 3.7,4.05 c -2.527,11.26 -1.368,25.018 2.851,39.063 l -7.431,-0.995 c -3.993,-15.773 -3.993,-30.845 0.88,-42.118 m 0.491,46.977 7.64,1.01 c 4.579,13.09 11.725,26.208 20.966,37.64 l -3.339,6.85 c -11.758,-13.419 -20.448,-29.637 -25.266,-45.5 m 67.321,66.949 c 7.576,2.127 14.682,2.027 20.719,-0.4 -5.32,4.214 -11.948,5.968 -19.33,5.35 l -1.389,-4.95 m -35.342,-24.404 0.998,1.15 c 9.998,10.986 20.642,18.413 30.644,22.081 l 1.58,5.691 c -11.501,-2.054 -24.432,-9.54 -36.524,-22.19 l 3.303,-6.732"
     fill="#d8d6e8"
     id="path9237"
     style="fill-rule:evenodd" />
  <path
     d="m 215.966,299.085 c -7.323,-8.041 -10.621,-19.936 -7.368,-26.56 3.253,-6.626 11.825,-5.476 19.148,2.564 7.323,8.046 10.62,19.937 7.368,26.564 -3.253,6.627 -11.826,5.477 -19.148,-2.568"
     fill="#acabb9"
     id="path9239"
     style="fill-rule:evenodd" />
  <path
     d="m 219.34,292.39 c -7.092,-9.21 -2.788,-17.969 5.207,-10.605 7.093,9.209 2.788,17.972 -5.207,10.604"
     fill="#343038"
     id="path9241"
     style="fill-rule:evenodd" />
</svg>
