<?xml version="1.0" encoding="UTF-8" standalone="no"?>
<svg
   width="404"
   height="462"
   version="1.1"
   id="svg18606"
   sodipodi:docname="problems_6.svg"
   inkscape:version="1.1.2 (b8e25be833, 2022-02-05)"
   inkscape:export-filename="E:\cole\- SOFTWARE\- TFG\tfg\src\img\problems_6.png"
   inkscape:export-xdpi="363.828"
   inkscape:export-ydpi="363.828"
   xmlns:inkscape="http://www.inkscape.org/namespaces/inkscape"
   xmlns:sodipodi="http://sodipodi.sourceforge.net/DTD/sodipodi-0.dtd"
   xmlns:xlink="http://www.w3.org/1999/xlink"
   xmlns="http://www.w3.org/2000/svg"
   xmlns:svg="http://www.w3.org/2000/svg">
  <sodipodi:namedview
     id="namedview18608"
     pagecolor="#505050"
     bordercolor="#eeeeee"
     borderopacity="1"
     inkscape:pageshadow="0"
     inkscape:pageopacity="0"
     inkscape:pagecheckerboard="0"
     showgrid="false"
     inkscape:zoom="1.7943723"
     inkscape:cx="201.74186"
     inkscape:cy="275.86248"
     inkscape:window-width="1920"
     inkscape:window-height="1017"
     inkscape:window-x="-8"
     inkscape:window-y="-8"
     inkscape:window-maximized="1"
     inkscape:current-layer="svg18606" />
  <defs
     id="defs18500">
    <filter
       x="0"
       y="0"
       width="1"
       height="1.0086018"
       filterUnits="objectBoundingBox"
       id="a">
      <feOffset
         dy="2"
         in="SourceAlpha"
         result="shadowOffsetOuter1"
         id="feOffset18483" />
      <feColorMatrix
         values="0 0 0 0 0.758370925 0 0 0 0 0.779705753 0 0 0 0 0.872156675 0 0 0 1 0"
         in="shadowOffsetOuter1"
         id="feColorMatrix18485" />
    </filter>
    <filter
       x="0"
       y="0"
       width="1.0424508"
       height="1"
       filterUnits="objectBoundingBox"
       id="d">
      <feOffset
         dx="1.5"
         in="SourceAlpha"
         result="shadowOffsetOuter1"
         id="feOffset18488" />
      <feColorMatrix
         values="0 0 0 0 0.128692844 0 0 0 0 0.291267986 0 0 0 0 0.707350128 0 0 0 1 0"
         in="shadowOffsetOuter1"
         id="feColorMatrix18490" />
    </filter>
    <path
       d="M14.215 123.63l169.148-97.438c10.19-5.87 26.71-5.87 36.9 0l169.147 97.439h14.216v14.343c.03 3.87-2.516 7.746-7.642 10.7L220.262 249.897c-10.189 5.871-26.71 5.871-36.899 0L7.642 148.673C2.516 145.72-.031 141.845 0 137.974v-14.343h14.215z"
       id="b" />
    <path
       d="M0 5.513V21.34a5.174 5.174 0 005.175 5.174h7.382l3.18 6.361c.75 1.5 2.89 1.5 3.64 0l3.18-6.361h7.604a5.173 5.173 0 005.174-5.174V5.513A5.174 5.174 0 0030.16.338H5.175A5.175 5.175 0 000 5.513"
       id="e" />
    <linearGradient
       x1="2.1717768"
       y1="181.88154"
       x2="306.3452"
       y2="181.88154"
       id="c"
       gradientTransform="scale(1.3175537,0.75898232)"
       gradientUnits="userSpaceOnUse">
      <stop
         stop-color="#EFF0F7"
         offset="0%"
         id="stop18495" />
      <stop
         stop-color="#CDD1E2"
         offset="100%"
         id="stop18497" />
    </linearGradient>
  </defs>
  <g
     transform="translate(0,177.556)"
     id="g18506"
     style="fill:none;fill-rule:evenodd">
    <use
       fill="#000000"
       filter="url(#a)"
       xlink:href="#b"
       id="use18502"
       x="0"
       y="0"
       width="100%"
       height="100%" />
    <use
       fill="url(#c)"
       xlink:href="#b"
       id="use18504"
       style="fill:url(#c)"
       x="0"
       y="0"
       width="100%"
       height="100%" />
  </g>
  <g
     stroke="#d100ef"
     stroke-linecap="round"
     stroke-width="2.7"
     id="g18512"
     style="fill:none;fill-rule:evenodd;stroke:#3333ff;stroke-opacity:1">
    <path
       d="m 304.455,244.272 42.482,-22.655 a 10.693,10.693 0 0 0 5.591,-9.402 V 183.17 m -62.418,52.802 47.195,-26.195 m -63.093,16.869 c 5.676,-3.132 20.066,-10.888 43.17,-23.27 2.299,-1.272 2.378,-4.554 0.144,-5.937 l -9.789,-6.061"
       id="path18508"
       style="stroke:#3333ff;stroke-opacity:1" />
    <path
       d="m 355.903,180.944 c 0,1.078 -1.512,1.954 -3.375,1.954 -1.865,0 -3.376,-0.876 -3.376,-1.954 0,-1.078 1.511,-1.952 3.376,-1.952 1.863,0 3.375,0.874 3.375,1.952 z m -47.27,8.48 c 0,1.079 -1.51,1.954 -3.375,1.954 -1.865,0 -3.376,-0.875 -3.376,-1.954 0,-1.078 1.511,-1.952 3.376,-1.952 1.864,0 3.375,0.874 3.375,1.952 z m 35.423,18.401 c 0,1.078 -1.512,1.952 -3.376,1.952 -1.864,0 -3.375,-0.874 -3.375,-1.952 0,-1.078 1.51,-1.954 3.375,-1.954 1.864,0 3.376,0.876 3.376,1.954 z"
       fill="#d100ef"
       id="path18510"
       style="stroke:#3333ff;stroke-opacity:1;fill:#3333ff;fill-opacity:1" />
  </g>
  <g
     stroke="#d100ef"
     stroke-linecap="round"
     stroke-width="2.7"
     id="g18520"
     style="fill:none;fill-rule:evenodd;stroke:#3333ff;stroke-opacity:1">
    <path
       d="M 102.957,252.738 62.7,228.924 a 9.473,9.473 0 0 1 -4.646,-8.156 v -25.122 a 8.47,8.47 0 0 0 -4.224,-7.33 l -11.079,-6.41"
       id="path18514"
       style="stroke:#3333ff;stroke-opacity:1" />
    <path
       d="M 118.761,243.593 77.612,220.036 a 8.468,8.468 0 0 1 -4.257,-7.349 v -13.074 m 60.207,35.417 -38.44,-22.739 c -2.888,-1.709 -2.868,-5.904 0.037,-7.585 l 8.8,-5.092"
       id="path18516"
       style="stroke:#3333ff;stroke-opacity:1" />
    <path
       d="m 76.73,197.66 c 0,1.079 -1.51,1.953 -3.375,1.953 -1.863,0 -3.375,-0.874 -3.375,-1.952 0,-1.079 1.512,-1.954 3.375,-1.954 1.865,0 3.376,0.875 3.376,1.954 z M 42.75,179.952 c 0,1.079 -1.51,1.953 -3.375,1.953 -1.864,0 -3.375,-0.874 -3.375,-1.953 0,-1.078 1.51,-1.952 3.375,-1.952 1.865,0 3.376,0.874 3.376,1.952 z m 67.96,17.708 c 0,1.079 -1.51,1.953 -3.375,1.953 -1.863,0 -3.375,-0.874 -3.375,-1.952 0,-1.079 1.512,-1.954 3.375,-1.954 1.865,0 3.376,0.875 3.376,1.954"
       fill="#d100ef"
       id="path18518"
       style="stroke:#3333ff;stroke-opacity:1;fill:#3333ff;fill-opacity:1" />
  </g>
  <g
     stroke="#d100ef"
     stroke-linecap="round"
     stroke-width="2.7"
     id="g18528"
     style="fill:none;fill-rule:evenodd;stroke:#3333ff;stroke-opacity:1">
    <path
       d="m 321.043,366.375 40.257,23.813 a 9.473,9.473 0 0 1 4.646,8.156 v 25.122 a 8.47,8.47 0 0 0 4.224,7.33 l 11.079,6.411"
       id="path18522"
       style="stroke:#3333ff;stroke-opacity:1" />
    <path
       d="m 305.239,375.52 41.149,23.556 a 8.468,8.468 0 0 1 4.257,7.35 v 13.073 m -60.207,-35.416 38.44,22.738 c 2.888,1.709 2.868,5.904 -0.037,7.585 l -8.8,5.092"
       id="path18524"
       style="stroke:#3333ff;stroke-opacity:1" />
    <path
       d="m 347.27,421.452 c 0,-1.079 1.51,-1.953 3.375,-1.953 1.863,0 3.375,0.874 3.375,1.953 0,1.078 -1.512,1.953 -3.375,1.953 -1.865,0 -3.376,-0.875 -3.376,-1.953 z m 33.98,17.708 c 0,-1.078 1.51,-1.952 3.375,-1.952 1.864,0 3.375,0.874 3.375,1.952 0,1.078 -1.51,1.952 -3.375,1.952 -1.865,0 -3.376,-0.874 -3.376,-1.952 z m -67.96,-17.708 c 0,-1.079 1.51,-1.953 3.375,-1.953 1.863,0 3.375,0.874 3.375,1.953 0,1.078 -1.512,1.953 -3.375,1.953 -1.865,0 -3.376,-0.875 -3.376,-1.953 z"
       fill="#d100ef"
       id="path18526"
       style="stroke:#3333ff;stroke-opacity:1;fill:#3333ff;fill-opacity:1" />
  </g>
  <g
     stroke="#d100ef"
     stroke-linecap="round"
     stroke-width="2.7"
     id="g18540"
     style="fill:none;fill-rule:evenodd;stroke:#3333ff;stroke-opacity:1">
    <path
       d="m 86.957,367.47 -42.296,23.965 c -4.57,2.56 -4.62,9.131 -0.09,11.76 l 66.69,38.69"
       id="path18530"
       style="stroke:#3333ff;stroke-opacity:1" />
    <path
       d="M 101.81,375.589 70.328,394.29 c -2.224,1.318 -2.209,4.547 0.028,5.842 l 30.106,17.934"
       id="path18532"
       style="stroke:#3333ff;stroke-opacity:1" />
    <path
       d="m 107.213,420.097 c 0,1.078 -1.51,1.952 -3.375,1.952 -1.865,0 -3.375,-0.874 -3.375,-1.952 0,-1.079 1.51,-1.953 3.375,-1.953 1.865,0 3.375,0.874 3.375,1.953 z m 10.798,23.817 c 0,1.078 -1.51,1.952 -3.375,1.952 -1.865,0 -3.376,-0.874 -3.376,-1.952 0,-1.078 1.511,-1.952 3.376,-1.952 1.864,0 3.375,0.874 3.375,1.952 z m -65.162,13.91 c 0,1.078 -1.511,1.952 -3.376,1.952 -1.863,0 -3.375,-0.874 -3.375,-1.952 0,-1.08 1.512,-1.954 3.375,-1.954 1.865,0 3.376,0.874 3.376,1.954 z"
       fill="#d100ef"
       id="path18534"
       style="fill:#3333ff;fill-opacity:1;stroke:#3333ff;stroke-opacity:1" />
    <path
       d="m 72.106,358 -49.137,26.52 a 9.473,9.473 0 0 0 -4.968,8.46 l 0.328,25.295 a 7.318,7.318 0 0 0 3.597,6.208 l 21.144,12.725 a 12.228,12.228 0 0 1 6.01,10.365 l 0.393,8.092 m -0.566,-32.087 45.531,26.346"
       id="path18536"
       style="stroke:#3333ff;stroke-opacity:1" />
    <path
       d="m 101.189,451.43 c 0,1.08 -1.511,1.953 -3.376,1.953 -1.863,0 -3.375,-0.873 -3.375,-1.952 0,-1.079 1.512,-1.953 3.375,-1.953 1.865,0 3.376,0.874 3.376,1.953 z M 48.907,421.626 c 0,1.078 -1.51,1.952 -3.375,1.952 -1.863,0 -3.376,-0.874 -3.376,-1.952 0,-1.08 1.513,-1.953 3.376,-1.953 1.864,0 3.375,0.873 3.375,1.953 z"
       fill="#d100ef"
       id="path18538"
       style="fill:#3333ff;fill-opacity:1;stroke:#3333ff;stroke-opacity:1" />
  </g>
  <path
     d="M 183.363,416.533 7.642,315.308 c -10.19,-5.87 -10.19,-15.387 0,-21.256 L 183.363,192.827 c 10.19,-5.87 26.71,-5.87 36.9,0 l 175.72,101.225 c 10.19,5.87 10.19,15.386 0,21.256 l -175.72,101.225 c -10.19,5.87 -26.71,5.87 -36.9,0"
     fill="#f4f4f4"
     id="path18542"
     style="fill-rule:evenodd" />
  <path
     d="M 183.363,413.664 7.642,312.44 c -10.19,-5.87 -10.19,-15.386 0,-21.256 L 183.363,189.959 c 10.19,-5.87 26.71,-5.87 36.9,0 l 175.72,101.225 c 10.19,5.87 10.19,15.387 0,21.256 l -175.72,101.225 c -10.19,5.871 -26.71,5.871 -36.9,0"
     fill="#fdfdfd"
     id="path18544"
     style="fill-rule:evenodd" />
  <path
     d="m 248,306.443 c 1.88,-0.265 2.802,-2.089 4,-3.561 5.92,-7.285 -16.213,-17.014 -20,-18.452 -10.947,-4.152 -10.947,-3.829 -25,-6.105 -14.053,-2.275 -20.927,-2.28 -32.566,-7.305 -7.01,-3.027 -14.158,-6.104 -21.753,-7.311 -4.933,-0.783 -9.355,-1.828 -14.051,-1.828 -1.97,0 -3.997,0.184 -6.126,0.65 a 28.945,28.945 0 0 0 -6.74,2.35 c -3.066,1.529 -5.81,3.635 -7.87,6.357 -3.49,4.61 -4.71,11.099 -2.28,16.342 1.881,4.058 5.547,6.793 9.3,9.018 3.447,2.046 6.126,4.76 9.393,7.114 3.086,2.217 14.186,16.435 17.47,18.356 3.074,1.802 6.242,1.956 9.402,3.18 4.259,1.649 8.354,4.5 12.399,6.626 2.155,1.135 4.37,2.278 6.778,2.633 0.451,0.064 0.91,0.098 1.37,0.098 2.005,0 4.027,-0.65 5.336,-2.14 0.988,-1.121 -1.01,1.474 3.327,-2.846 4.337,-4.32 -4.389,-17.099 -3.481,-25.47 0.003,-0.026 0.103,0 0.154,0 5.092,-4.51 3.135,-3.866 7.664,-3.998 a 84.535,84.535 0 0 1 14.867,0.865 c 8.848,1.31 16.43,6.208 25.359,6.713 1.013,0.055 2.03,0.085 3.048,0.085 2.619,0 7.407,-1.003 10,-1.371 z"
     fill-opacity="0.075"
     fill="#000000"
     id="path18546"
     style="fill-rule:evenodd" />
  <path
     d="m 246.435,294.807 c -4.33,-2.08 -20.183,-8.65 -21.705,-11.859 C 223.722,281.385 208.657,280 208.657,280 l -9.474,5.866 c 0,0 -2.661,9.28 0,11.303 2.639,1.971 18.495,0.825 18.495,0.825 0,0 20.479,8.77 27.109,5.649 2.626,-1.26 5.974,-6.744 1.648,-8.836"
     fill="#fffffe"
     id="path18548"
     style="fill-rule:evenodd" />
  <path
     d="m 194,167.874 c 0,0 9.922,39.908 8.996,53.051 -2.77,11.524 -5.705,54.455 -5.096,62.314 0.63,7.829 27.226,6.54 27.143,-1.854 -0.978,-14.012 3.118,-59.535 3.118,-59.535 0,0 7.435,-56.441 0.935,-91.278 -1.822,-3.938 -24.005,15.743 -24.005,15.743 z"
     fill="#141413"
     id="path18550"
     style="fill-rule:evenodd" />
  <path
     d="m 181.513,301.226 c -0.248,-4.403 -18.426,-4.225 -18.426,-4.225 0,0 -0.196,12.353 0,17.85 0.543,15.12 21.64,12.744 22.822,10.191 0.556,-1.146 2.339,-5.102 -0.566,-11.085 -1.056,-2.193 -3.586,-8.333 -3.83,-12.731"
     fill="#fffffe"
     id="path18552"
     style="fill-rule:evenodd" />
  <path
     d="m 169.176,140.972 c -5.483,9.665 -2.548,69.209 -3.84,86.508 -8.795,27.003 -5.92,66.603 -5.764,68.084 1.126,10.36 22.63,10.599 23.095,-2.545 2.309,-57.463 13.626,-82.165 18.726,-122.07 0,0 13.161,-7.146 25.844,-38.748 -1.609,-1.398 -54.444,4.828 -58.061,8.77"
     fill="#232422"
     id="path18554"
     style="fill-rule:evenodd" />
  <path
     d="m 229.804,124 -56.574,7.138 -1.23,7.265 c 0,0 13.704,23.764 58.06,-8.771 -0.317,-1.56 -0.256,-5.632 -0.256,-5.632"
     fill="#3c2415"
     id="path18556"
     style="fill-rule:evenodd" />
  <path
     d="M 186.13,35.883 C 184.665,44.797 181,47.967 181,47.967 l 5.13,12.918 16.727,7.95 12.139,-3.439 2.913,-9.053 L 212.561,42.705 199.474,33 c 0,0 -11.535,1.737 -13.344,2.883 z"
     fill="#c7a496"
     id="path18558"
     style="fill-rule:evenodd" />
  <path
     d="M 231.096,58.687 C 229.209,48.965 218.405,44.514 218.405,44.514 l -7.07,3.279 7.07,27.13 8.704,30.429 h 6.883 c 0,0 4.826,-0.687 4.473,-2.545 -0.156,-0.82 -1.617,-6.031 -3.056,-10 -0.813,-9.987 -2.56,-25.223 -4.313,-34.12"
     fill="#f0f0f2"
     id="path18560"
     style="fill-rule:evenodd" />
  <path
     d="m 215.319,45.105 -6.5,3.2 c 0,0 6.034,9.218 -1.827,14.629 -4.213,2.913 -12.908,0.382 -18.152,-5.333 -4.57,-4.967 -6.026,-13.087 -6.026,-13.087 0,0 -10.03,11.186 -22.348,19.57 -1.765,6.6 14.853,75.123 14.853,75.123 0,0 7.47,19.67 52.426,-10.699 -1.844,-9.223 7.656,-48.15 1.4,-69.83 -2.61,-9.04 -13.826,-13.573 -13.826,-13.573 z"
     fill="#aa2aba"
     id="path18562"
     style="fill-rule:evenodd" />
  <path
     d="m 228.391,131.514 c 0.652,2.895 0.652,5.679 0,8.35 -0.087,0.36 -0.583,1.5 -1.486,3.418 0,0 -4.161,2.267 -5.492,3.739 a 2763.058,2763.058 0 0 0 -4.652,5.006 l 1.209,3.261 c 0,0 4.322,-3.96 6.756,-1.989 1.883,1.685 -1.982,7.92 -1.982,7.92 0,0 -8.883,3.887 -7.196,7.152 1.74,3.243 12.57,-3.46 16.118,-6.965 3.539,-3.5 4.508,-14.863 4.508,-14.863 l 2.091,-8.49 z"
     fill="#f0c6b4"
     id="path18564"
     style="fill-rule:evenodd" />
  <path
     d="m 228.978,138.332 c 3.496,-0.964 7.9,-0.79 9.092,1.194 4.156,-2.427 2.93,-26.877 0.86,-36.612 -3.3,-3.318 -6.278,0.304 -6.278,0.304 -0.534,-0.21 -2.963,-0.464 -3.114,1.28 -0.56,6.502 -2.742,22.407 -0.56,33.834 z"
     fill="#f0f0f2"
     id="path18566"
     style="fill-rule:evenodd" />
  <path
     d="m 222.388,116.221 5.344,11.172 c 0,0 7.99,-1.897 10.19,-4.429 2.2,-2.5 3.57,-13.03 1.023,-16.265 -2.513,-3.226 -8.996,1.064 -13.148,1.945 -4.161,0.89 -3.409,7.577 -3.409,7.577 z"
     fill="#f0c6b4"
     id="path18568"
     style="fill-rule:evenodd" />
  <path
     d="m 221.278,116.887 c -8.278,2.788 -33.804,6.744 -33.804,6.744 L 180.87,87.3 c 0,0 -1.366,-26.119 -14.883,-24.733 -19.03,1.94 -9.022,28.696 -9.022,28.696 0,0 8.713,48.97 17.874,52.957 13.787,6.074 45.535,-13.487 50.683,-15.48 5.109,-1.984 2.23,-14.003 -4.244,-11.854"
     fill="#f0f0f2"
     id="path18570"
     style="fill-rule:evenodd" />
  <path
     d="M 207.457,7 193.917,9.41 184,18.103 V 28.91 c 0,0 0.86,3.435 2.126,6.583 1.313,2.25 4.235,2.77 4.235,2.77 0,0 0.817,3.786 3.556,6.157 2.796,2.31 7.148,8.793 16.9,10.113 4.67,0.608 7.387,-2.41 8.27,-4.616 0.852,-2.18 3.543,-28.78 0,-36.235 C 217.783,12.206 207.457,7 207.457,7"
     fill="#f0c6b4"
     id="path18572"
     style="fill-rule:evenodd" />
  <path
     d="m 196.946,0.291 c -15.97,2.293 -16.382,15.562 -15.8,23.278 0.33,4.62 4.552,11.207 4.552,11.207 0,0 -2.056,-8.68 0,-9.196 5.053,-1.203 4.927,4.92 6.418,4.333 1.513,-0.564 6.143,-9.692 9.365,-10.894 3.235,-1.194 9.935,0.872 12.313,0 2.374,-0.873 4.865,-6.053 4.865,-6.053 0,0 -3.974,-15.241 -21.713,-12.676"
     fill="#3c2415"
     id="path18574"
     style="fill-rule:evenodd" />
  <g
     id="g18584"
     style="fill:none;fill-rule:evenodd">
    <g
       transform="rotate(10,-157,2000.297)"
       id="g18580">
      <use
         fill="#000000"
         filter="url(#d)"
         xlink:href="#e"
         id="use18576"
         x="0"
         y="0"
         width="100%"
         height="100%" />
      <use
         fill="#2d68ff"
         xlink:href="#e"
         id="use18578"
         x="0"
         y="0"
         width="100%"
         height="100%" />
    </g>
    <path
       d="m 370.122,71.779 -18.835,-3.321 a 1.0001636,1.0001636 0 0 1 0.347,-1.97 l 18.835,3.321 a 1.0001636,1.0001636 0 0 1 -0.347,1.97 m -0.869,4.924 -18.834,-3.321 a 1.0001636,1.0001636 0 0 1 0.347,-1.97 l 18.835,3.321 a 1.0002505,1.0002505 0 0 1 -0.348,1.97 m -0.868,4.924 -18.834,-3.321 a 1.0001636,1.0001636 0 0 1 0.347,-1.97 l 18.834,3.321 a 1.0001636,1.0001636 0 0 1 -0.347,1.97"
       fill="#ffffff"
       id="path18582" />
  </g>
  <g
     id="g18594"
     style="fill:none;fill-rule:evenodd">
    <path
       fill="#c5cee5"
       d="M 21.674,103.662 53.087,92.228 44.44,68.47 13.026,79.903 Z"
       id="path18586" />
    <path
       fill="#c5cee5"
       d="M 23.55,59.947 13.026,79.904 44.44,68.47 Z"
       id="path18588" />
    <path
       fill="#8690a8"
       d="M 13.026,79.904 33.056,86.065 44.44,68.47 Z"
       id="path18590" />
    <path
       fill="#b5bed6"
       d="M 52.885,92.192 32.855,86.03 21.471,103.626 Z"
       id="path18592" />
  </g>
  <g
     fill="#323743"
     id="g18600"
     style="fill-rule:evenodd">
    <path
       d="m 183.03,59.094 c 18.206,17.756 41.805,54.51 41.805,54.51 l -4.198,5.014 c 0,0 -23.438,-40.92 -40.197,-57.573 -4.807,-4.788 -9.252,-4.673 -13.74,-1.439 0.148,-0.995 0.673,-2.382 1.355,-3.034 4.376,-4.198 10.237,-2.109 14.974,2.522 z"
       id="path18596" />
    <path
       d="m 183.036,62.343 c 11.036,22.912 20.641,65.52 20.641,65.52 l -5.66,3.276 c 0,0 -7.543,-47.525 -18.08,-67.848 C 177,57.628 172,56.643 167,59.132 c 0.48,-0.884 1.964,-3.901 2.828,-4.281 5.548,-2.448 10.34,1.52 13.208,7.492 z"
       id="path18598" />
  </g>
  <path
     d="m 196,120.943 29,-7.29 c 2.667,9.452 1,15.84 -5,19.165 -12,6.788 -25.333,11.37 -40,13.748 10,-2.377 15.333,-10.918 16,-25.623 z"
     fill="#8a99c0"
     id="path18602"
     style="fill-rule:evenodd" />
</svg>
