<?xml version="1.0" encoding="UTF-8" standalone="no"?>
<svg
   width="404"
   height="436"
   version="1.1"
   id="svg5814"
   sodipodi:docname="problems_3.svg"
   inkscape:version="1.1.2 (b8e25be833, 2022-02-05)"
   inkscape:export-filename="E:\cole\- SOFTWARE\- TFG\tfg\src\img\problems_3.png"
   inkscape:export-xdpi="363.828"
   inkscape:export-ydpi="363.828"
   xmlns:inkscape="http://www.inkscape.org/namespaces/inkscape"
   xmlns:sodipodi="http://sodipodi.sourceforge.net/DTD/sodipodi-0.dtd"
   xmlns:xlink="http://www.w3.org/1999/xlink"
   xmlns="http://www.w3.org/2000/svg"
   xmlns:svg="http://www.w3.org/2000/svg">
  <sodipodi:namedview
     id="namedview5816"
     pagecolor="#505050"
     bordercolor="#eeeeee"
     borderopacity="1"
     inkscape:pageshadow="0"
     inkscape:pageopacity="0"
     inkscape:pagecheckerboard="0"
     showgrid="false"
     inkscape:zoom="1.9013761"
     inkscape:cx="201.95899"
     inkscape:cy="92.038601"
     inkscape:window-width="1600"
     inkscape:window-height="837"
     inkscape:window-x="-1608"
     inkscape:window-y="159"
     inkscape:window-maximized="1"
     inkscape:current-layer="g5626" />
  <defs
     id="defs5586">
    <filter
       x="0"
       y="0"
       width="1"
       height="1.0086018"
       filterUnits="objectBoundingBox"
       id="a">
      <feOffset
         dy="2"
         in="SourceAlpha"
         result="shadowOffsetOuter1"
         id="feOffset5569" />
      <feColorMatrix
         values="0 0 0 0 0.758370925 0 0 0 0 0.779705753 0 0 0 0 0.872156675 0 0 0 1 0"
         in="shadowOffsetOuter1"
         id="feColorMatrix5571" />
    </filter>
    <filter
       x="0"
       y="0"
       width="1.0424508"
       height="1"
       filterUnits="objectBoundingBox"
       id="d">
      <feOffset
         dx="1.5"
         in="SourceAlpha"
         result="shadowOffsetOuter1"
         id="feOffset5574" />
      <feColorMatrix
         values="0 0 0 0 0.128692844 0 0 0 0 0.291267986 0 0 0 0 0.707350128 0 0 0 1 0"
         in="shadowOffsetOuter1"
         id="feColorMatrix5576" />
    </filter>
    <path
       d="M14.215 275.63l169.148-97.438c10.19-5.87 26.71-5.87 36.9 0l169.147 97.439h14.216v14.343c.03 3.87-2.516 7.746-7.642 10.7L220.262 401.897c-10.189 5.871-26.71 5.871-36.899 0L7.642 300.673C2.516 297.72-.031 293.845 0 289.974v-14.343h14.215z"
       id="b" />
    <path
       d="M0 5.513V21.34a5.174 5.174 0 005.175 5.174h7.382l3.18 6.361c.75 1.5 2.89 1.5 3.64 0l3.18-6.361h7.604a5.173 5.173 0 005.174-5.174V5.513A5.174 5.174 0 0030.16.338H5.175A5.175 5.175 0 000 5.513"
       id="e" />
    <linearGradient
       x1="2.1717768"
       y1="382.14971"
       x2="306.3452"
       y2="382.14971"
       id="c"
       gradientTransform="scale(1.3175537,0.75898232)"
       gradientUnits="userSpaceOnUse">
      <stop
         stop-color="#EFF0F7"
         offset="0%"
         id="stop5581" />
      <stop
         stop-color="#CDD1E2"
         offset="100%"
         id="stop5583" />
    </linearGradient>
  </defs>
  <g
     transform="translate(0,-0.444)"
     id="g5592"
     style="fill:none;fill-rule:evenodd">
    <use
       fill="#000000"
       filter="url(#a)"
       xlink:href="#b"
       id="use5588"
       x="0"
       y="0"
       width="100%"
       height="100%" />
    <use
       fill="url(#c)"
       xlink:href="#b"
       id="use5590"
       style="fill:url(#c)"
       x="0"
       y="0"
       width="100%"
       height="100%" />
  </g>
  <g
     stroke="#d100ef"
     stroke-linecap="round"
     stroke-width="2.7"
     id="g5598"
     style="fill:none;fill-rule:evenodd;stroke:#3333ff;stroke-opacity:1">
    <path
       d="m 304.455,218.272 42.482,-22.655 a 10.693,10.693 0 0 0 5.591,-9.402 V 157.17 m -62.418,52.802 47.195,-26.195 m -63.093,16.869 c 5.676,-3.132 20.066,-10.888 43.17,-23.27 2.299,-1.272 2.378,-4.554 0.144,-5.937 l -9.789,-6.061"
       id="path5594"
       style="stroke:#3333ff;stroke-opacity:1" />
    <path
       d="m 355.903,154.944 c 0,1.078 -1.512,1.954 -3.375,1.954 -1.865,0 -3.376,-0.876 -3.376,-1.954 0,-1.078 1.511,-1.952 3.376,-1.952 1.863,0 3.375,0.874 3.375,1.952 z m -47.27,8.48 c 0,1.079 -1.51,1.954 -3.375,1.954 -1.865,0 -3.376,-0.875 -3.376,-1.954 0,-1.078 1.511,-1.952 3.376,-1.952 1.864,0 3.375,0.874 3.375,1.952 z m 35.423,18.401 c 0,1.078 -1.512,1.952 -3.376,1.952 -1.864,0 -3.375,-0.874 -3.375,-1.952 0,-1.078 1.51,-1.954 3.375,-1.954 1.864,0 3.376,0.876 3.376,1.954 z"
       fill="#d100ef"
       id="path5596"
       style="stroke:#3333ff;stroke-opacity:1;fill:#3333ff;fill-opacity:1" />
  </g>
  <g
     stroke="#d100ef"
     stroke-linecap="round"
     stroke-width="2.7"
     id="g5606"
     style="fill:none;fill-rule:evenodd;stroke:#3333ff;stroke-opacity:1">
    <path
       d="M 102.957,226.738 62.7,202.924 a 9.473,9.473 0 0 1 -4.646,-8.156 v -25.122 a 8.47,8.47 0 0 0 -4.224,-7.33 l -11.079,-6.41"
       id="path5600"
       style="stroke:#3333ff;stroke-opacity:1" />
    <path
       d="M 118.761,217.593 77.612,194.036 a 8.468,8.468 0 0 1 -4.257,-7.349 v -13.074 m 60.207,35.417 -38.44,-22.739 c -2.888,-1.709 -2.868,-5.904 0.037,-7.585 l 8.8,-5.092"
       id="path5602"
       style="stroke:#3333ff;stroke-opacity:1" />
    <path
       d="m 76.73,171.66 c 0,1.079 -1.51,1.953 -3.375,1.953 -1.863,0 -3.375,-0.874 -3.375,-1.952 0,-1.079 1.512,-1.954 3.375,-1.954 1.865,0 3.376,0.875 3.376,1.954 z M 42.75,153.952 c 0,1.079 -1.51,1.953 -3.375,1.953 -1.864,0 -3.375,-0.874 -3.375,-1.953 0,-1.078 1.51,-1.952 3.375,-1.952 1.865,0 3.376,0.874 3.376,1.952 z m 67.96,17.708 c 0,1.079 -1.51,1.953 -3.375,1.953 -1.863,0 -3.375,-0.874 -3.375,-1.952 0,-1.079 1.512,-1.954 3.375,-1.954 1.865,0 3.376,0.875 3.376,1.954"
       fill="#d100ef"
       id="path5604"
       style="stroke:#3333ff;stroke-opacity:1;fill:#3333ff;fill-opacity:1" />
  </g>
  <g
     stroke="#d100ef"
     stroke-linecap="round"
     stroke-width="2.7"
     id="g5614"
     style="fill:none;fill-rule:evenodd;stroke:#3333ff;stroke-opacity:1">
    <path
       d="m 321.043,340.375 40.257,23.813 a 9.473,9.473 0 0 1 4.646,8.156 v 25.122 a 8.47,8.47 0 0 0 4.224,7.33 l 11.079,6.411"
       id="path5608"
       style="stroke:#3333ff;stroke-opacity:1" />
    <path
       d="m 305.239,349.52 41.149,23.556 a 8.468,8.468 0 0 1 4.257,7.35 v 13.073 m -60.207,-35.416 38.44,22.738 c 2.888,1.709 2.868,5.904 -0.037,7.585 l -8.8,5.092"
       id="path5610"
       style="stroke:#3333ff;stroke-opacity:1" />
    <path
       d="m 347.27,395.452 c 0,-1.079 1.51,-1.953 3.375,-1.953 1.863,0 3.375,0.874 3.375,1.953 0,1.078 -1.512,1.953 -3.375,1.953 -1.865,0 -3.376,-0.875 -3.376,-1.953 z m 33.98,17.708 c 0,-1.078 1.51,-1.952 3.375,-1.952 1.864,0 3.375,0.874 3.375,1.952 0,1.078 -1.51,1.952 -3.375,1.952 -1.865,0 -3.376,-0.874 -3.376,-1.952 z m -67.96,-17.708 c 0,-1.079 1.51,-1.953 3.375,-1.953 1.863,0 3.375,0.874 3.375,1.953 0,1.078 -1.512,1.953 -3.375,1.953 -1.865,0 -3.376,-0.875 -3.376,-1.953 z"
       fill="#d100ef"
       id="path5612"
       style="stroke:#3333ff;stroke-opacity:1;fill:#3333ff;fill-opacity:1" />
  </g>
  <g
     stroke="#d100ef"
     stroke-linecap="round"
     stroke-width="2.7"
     id="g5626"
     style="fill:none;fill-rule:evenodd;stroke:#3333ff;stroke-opacity:1">
    <path
       d="m 86.957,341.47 -42.296,23.965 c -4.57,2.56 -4.62,9.131 -0.09,11.76 l 66.69,38.69"
       id="path5616"
       style="stroke:#3333ff;stroke-opacity:1" />
    <path
       d="M 101.81,349.589 70.328,368.29 c -2.224,1.318 -2.209,4.547 0.028,5.842 l 30.106,17.934"
       id="path5618"
       style="stroke:#3333ff;stroke-opacity:1" />
    <path
       d="m 107.213,394.097 c 0,1.078 -1.51,1.952 -3.375,1.952 -1.865,0 -3.375,-0.874 -3.375,-1.952 0,-1.079 1.51,-1.953 3.375,-1.953 1.865,0 3.375,0.874 3.375,1.953 z m 10.798,23.817 c 0,1.078 -1.51,1.952 -3.375,1.952 -1.865,0 -3.376,-0.874 -3.376,-1.952 0,-1.078 1.511,-1.952 3.376,-1.952 1.864,0 3.375,0.874 3.375,1.952 z m -65.162,13.91 c 0,1.078 -1.511,1.952 -3.376,1.952 -1.863,0 -3.375,-0.874 -3.375,-1.952 0,-1.08 1.512,-1.954 3.375,-1.954 1.865,0 3.376,0.874 3.376,1.954 z"
       fill="#d100ef"
       id="path5620"
       style="stroke:#3333ff;stroke-opacity:1;fill:#3333ff;fill-opacity:1" />
    <path
       d="m 72.106,332 -49.137,26.52 a 9.473,9.473 0 0 0 -4.968,8.46 l 0.328,25.295 a 7.318,7.318 0 0 0 3.597,6.208 l 21.144,12.725 a 12.228,12.228 0 0 1 6.01,10.365 l 0.393,8.092 m -0.566,-32.087 45.531,26.346"
       id="path5622"
       style="stroke:#3333ff;stroke-opacity:1" />
    <path
       d="m 101.189,425.43 c 0,1.08 -1.511,1.953 -3.376,1.953 -1.863,0 -3.375,-0.873 -3.375,-1.952 0,-1.079 1.512,-1.953 3.375,-1.953 1.865,0 3.376,0.874 3.376,1.953 z M 48.907,395.626 c 0,1.078 -1.51,1.952 -3.375,1.952 -1.863,0 -3.376,-0.874 -3.376,-1.952 0,-1.08 1.513,-1.953 3.376,-1.953 1.864,0 3.375,0.873 3.375,1.953 z"
       fill="#d100ef"
       id="path5624"
       style="stroke:#3333ff;stroke-opacity:1;fill:#3333ff;fill-opacity:1" />
  </g>
  <path
     d="M 183.363,390.533 7.642,289.308 c -10.19,-5.87 -10.19,-15.387 0,-21.256 L 183.363,166.827 c 10.19,-5.87 26.71,-5.87 36.9,0 l 175.72,101.225 c 10.19,5.87 10.19,15.386 0,21.256 l -175.72,101.225 c -10.19,5.87 -26.71,5.87 -36.9,0"
     fill="#f4f4f4"
     id="path5628"
     style="fill-rule:evenodd" />
  <path
     d="m 7.642,286.44 c -10.19,-5.87 -10.19,-15.387 0,-21.257 L 183.363,163.958 c 10.19,-5.87 26.71,-5.87 36.9,0 l 175.72,101.225 c 10.19,5.87 10.19,15.387 0,21.256 l -175.72,101.225 c -10.19,5.871 -26.71,5.871 -36.9,0 z"
     fill="#fdfdfd"
     id="path5630"
     style="fill-rule:evenodd" />
  <path
     d="m 214.264,316.277 c 6.034,0 12.013,-1.984 17.76,-5.144 5.844,-3.216 12.42,-5.104 18.028,-8.735 6.945,-4.492 13.759,-9.189 20.637,-13.784 4.407,-2.943 8.818,-5.886 13.23,-8.833 5.047,-3.37 7.963,-5.63 5.131,-11.528 -1.901,-3.959 -5.553,-7.064 -8.986,-9.683 -6.854,-5.219 -14.706,-8.735 -22.152,-12.982 -15.223,-8.68 -31.11,-16.142 -46.97,-23.593 -6.96,-3.267 -13.616,-4.745 -20.239,-4.745 -7.967,0 -15.887,2.138 -24.224,5.875 -8.127,3.639 -30.502,13.1 -39.85,24.956 -5.457,6.922 -5.135,16.055 0.517,22.819 4.603,5.515 11.77,8.099 16.612,13.373 3.29,3.583 5.421,7.988 9.522,10.773 4.086,2.777 8.859,4.373 13.517,5.93 0.557,0.186 1.15,0.371 1.726,0.371 0.25,0 0.498,-0.031 0.736,-0.118 0.855,-0.3 1.082,-1.178 0.84,-1.956 0.461,-0.292 1.018,-0.419 1.634,-0.419 3.119,0 7.797,3.216 9.957,4.295 6.83,3.413 13.66,6.826 20.49,10.236 4.017,2.01 8.062,2.892 12.084,2.892"
     fill-opacity="0.081"
     fill="#000000"
     id="path5632"
     style="fill-rule:evenodd" />
  <path
     fill="#f4f4f1"
     d="m 200.723,223.078 5.971,-3.354 -5.847,-3.35 -5.97,3.35 5.846,3.354"
     id="path5634"
     style="fill-rule:evenodd" />
  <path
     fill="#9d9e9a"
     d="m 194.876,219.724 v 7.387 l 5.847,3.354 v -7.387 l -5.847,-3.354"
     id="path5636"
     style="fill-rule:evenodd" />
  <path
     fill="#c7c6c1"
     d="m 206.694,219.724 v 7.387 l -5.97,3.354 v -7.387 l 5.97,-3.354"
     id="path5638"
     style="fill-rule:evenodd" />
  <path
     fill="#f4f4f1"
     d="m 202.092,221.727 5.97,-3.355 -5.847,-3.354 -5.97,3.354 5.847,3.355"
     id="path5640"
     style="fill-rule:evenodd" />
  <path
     fill="#9d9e9a"
     d="m 196.244,218.372 v 7.384 l 5.848,3.354 v -7.383 l -5.848,-3.355"
     id="path5642"
     style="fill-rule:evenodd" />
  <path
     fill="#c7c6c1"
     d="m 208.062,218.372 v 7.384 l -5.97,3.354 v -7.383 l 5.97,-3.355"
     id="path5644"
     style="fill-rule:evenodd" />
  <path
     d="m 295.168,269.288 c 0,-6.317 -3.882,-13.685 -8.652,-16.423 -2.164,-1.236 -4.145,-1.315 -5.66,-0.442 l -1.54,0.798 0.382,0.15 c -1.15,1.288 -1.837,3.338 -1.837,5.993 0,6.317 3.882,13.685 8.655,16.423 1.472,0.841 2.856,1.15 4.073,0.98 l -0.175,0.383 1.377,-0.723 c 2.052,-0.92 3.377,-3.45 3.377,-7.139"
     fill="#2d2e2c"
     id="path5646"
     style="fill-rule:evenodd" />
  <path
     d="m 284.718,276.727 c 4.77,2.734 8.652,-0.182 8.652,-6.499 0,-6.317 -3.882,-13.685 -8.652,-16.419 -4.773,-2.737 -8.655,0.178 -8.655,6.495 0,6.317 3.882,13.685 8.655,16.423"
     fill="#232422"
     id="path5648"
     style="fill-rule:evenodd" />
  <path
     d="m 284.718,275.601 c 4.304,2.465 7.805,-0.162 7.805,-5.859 0,-5.7 -3.5,-12.341 -7.805,-14.81 -4.304,-2.466 -7.804,0.161 -7.804,5.858 0,5.701 3.5,12.342 7.804,14.811"
     fill="#fdfcfb"
     id="path5650"
     style="fill-rule:evenodd" />
  <path
     d="m 291.87,269.738 c 0,-5.487 -3.357,-11.88 -7.482,-14.246 -0.97,-0.553 -1.897,-0.837 -2.76,-0.837 -2.467,0 -4.062,2.41 -4.062,6.14 0,5.487 3.353,11.883 7.478,14.245 0.975,0.557 1.902,0.842 2.765,0.842 1.161,0 2.148,-0.53 2.86,-1.53 0.784,-1.098 1.201,-2.694 1.201,-4.614 z m 0.326,0 c 0,1.991 -0.433,3.647 -1.26,4.8 -0.776,1.09 -1.858,1.668 -3.127,1.668 -0.923,0 -1.905,-0.3 -2.932,-0.89 -4.208,-2.413 -7.637,-8.928 -7.637,-14.522 0,-3.927 1.722,-6.463 4.387,-6.463 0.92,0 1.906,0.296 2.924,0.885 4.217,2.414 7.645,8.932 7.645,14.522 z"
     fill="#acada9"
     id="path5652"
     style="fill-rule:evenodd" />
  <path
     d="m 284.718,258.076 c 3,1.719 5.43,6.333 5.43,10.303 0,3.97 -2.43,5.792 -5.43,4.073 -2.999,-1.718 -5.43,-6.328 -5.43,-10.299 0,-3.97 2.431,-5.795 5.43,-4.077"
     fill="#5f605c"
     id="path5654"
     style="fill-rule:evenodd" />
  <path
     d="m 280.617,263.078 1.794,1.027 0.283,-0.21 -0.283,-0.54 -1.794,-1.028 -0.286,0.21 0.286,0.54 z m -0.06,1.481 0.27,0.419 0.088,0.028 1.71,0.24 0.18,-0.363 -0.354,-0.446 -1.71,-0.245 z m 0.657,2.082 0.23,0.288 0.168,0.024 1.451,-0.565 0.064,-0.49 -0.394,-0.308 -1.456,0.565 z m 1.022,1.944 0.167,0.162 0.23,-0.02 1.055,-1.323 -0.06,-0.557 -0.397,-0.143 -1.055,1.32 0.06,0.56 z m 1.293,1.608 0.083,0.067 0.27,-0.107 0.558,-1.947 -0.183,-0.573 -0.358,0.035 -0.553,1.944 0.183,0.58 z m 1.141,-8.534 0.283,0.538 0.282,-0.21 v -2.382 l -0.282,-0.537 -0.283,0.21 z m 0,9.11 0.287,0.542 0.282,-0.214 -0.004,-2.382 -0.278,-0.537 -0.287,0.213 z m 0.979,-8.027 0.358,-0.036 0.553,-1.943 -0.183,-0.581 -0.084,-0.067 -0.27,0.106 -0.557,1.944 z m -0.179,6.056 0.557,2.584 0.354,0.446 0.199,-0.245 -0.016,-0.126 -0.557,-2.58 -0.354,-0.446 z m 2.204,2.9 0.115,-0.237 -0.056,-0.253 -1.058,-2.532 -0.394,-0.309 -0.063,0.486 1.058,2.533 z m 1.018,-0.77 0.056,-0.19 -0.116,-0.371 -1.456,-2.233 -0.397,-0.142 0.063,0.557 1.456,2.236 0.394,0.142 z m 0.656,-1.332 0.016,-0.103 -0.199,-0.474 -1.706,-1.714 -0.358,0.035 0.183,0.581 1.71,1.71 z m 0.227,-1.762 -0.286,-0.537 -1.794,-1.031 -0.283,0.213 0.283,0.537 1.798,1.031 z m -0.227,-2.019 -0.27,-0.418 -0.088,-0.032 -1.71,-0.241 -0.18,0.367 0.359,0.447 1.706,0.24 z m -0.656,-2.086 -0.23,-0.284 -0.168,-0.024 -1.452,0.57 -0.063,0.481 0.393,0.312 1.456,-0.565 z m -1.026,-1.94 -0.163,-0.165 -0.231,0.023 -1.054,1.32 0.063,0.561 0.394,0.142 1.054,-1.323 -0.063,-0.557 z m -3.226,-0.213 -0.557,-2.583 -0.358,-0.443 -0.195,0.241 0.016,0.127 0.553,2.583 0.354,0.443 z m -2.204,-2.9 -0.115,0.238 0.051,0.253 1.059,2.532 0.393,0.308 0.064,-0.49 -1.058,-2.528 -0.394,-0.312 z m -1.022,0.771 -0.052,0.186 0.115,0.375 1.456,2.232 0.394,0.142 -0.064,-0.56 -1.455,-2.233 z m -0.657,1.331 -0.015,0.103 0.198,0.47 1.71,1.719 0.355,-0.04 -0.18,-0.573 -1.71,-1.714 z m 4.28,-2.11 c 2.82,1.617 4.989,5.678 4.989,9.415 0,3.737 -2.053,5.487 -4.873,3.868 -2.82,-1.616 -5.108,-5.954 -5.108,-9.691 0,-3.737 2.168,-5.211 4.993,-3.591 z"
     fill="#c7c6c1"
     id="path5656"
     style="fill-rule:evenodd" />
  <path
     d="m 280.378,263.153 1.798,1.03 0.283,-0.213 -0.283,-0.537 -1.798,-1.03 -0.282,0.212 z m -0.055,1.485 0.27,0.415 0.088,0.032 1.706,0.24 0.183,-0.367 -0.358,-0.446 -1.71,-0.241 -0.18,0.367 z m 0.656,2.082 0.23,0.288 0.168,0.02 1.452,-0.56 0.063,-0.49 -0.397,-0.309 -1.452,0.565 z m 1.022,1.94 0.167,0.166 0.231,-0.024 1.054,-1.32 -0.063,-0.556 -0.394,-0.143 -1.054,1.32 0.06,0.557 z m 1.29,1.608 0.087,0.067 0.27,-0.103 0.553,-1.947 -0.179,-0.573 -0.358,0.035 -0.557,1.944 0.183,0.577 z m 1.14,-8.53 0.287,0.538 0.283,-0.214 v -2.382 l -0.283,-0.533 -0.286,0.21 v 2.381 z m 0.005,9.11 0.282,0.538 0.287,-0.21 -0.004,-2.382 -0.283,-0.537 -0.282,0.213 z m 0.978,-8.027 0.354,-0.036 0.557,-1.947 -0.183,-0.577 -0.087,-0.067 -0.267,0.106 -0.557,1.944 z m -0.179,6.056 0.553,2.58 0.358,0.45 0.195,-0.245 -0.012,-0.126 -0.557,-2.58 -0.358,-0.446 z m 2.2,2.896 0.12,-0.233 -0.056,-0.253 -1.058,-2.532 -0.398,-0.308 -0.06,0.485 1.058,2.533 z m 1.022,-0.766 0.056,-0.19 -0.12,-0.371 -1.451,-2.233 -0.398,-0.146 0.064,0.561 1.456,2.232 z m 0.657,-1.332 0.016,-0.107 -0.2,-0.474 -1.71,-1.71 -0.354,0.035 0.183,0.577 1.707,1.715 z m 0.222,-1.762 -0.282,-0.537 -1.798,-1.031 -0.278,0.213 0.278,0.537 1.802,1.032 z m -0.222,-2.023 -0.27,-0.414 -0.088,-0.032 -1.71,-0.24 -0.18,0.366 0.354,0.447 1.71,0.24 z m -0.66,-2.082 -0.227,-0.288 -0.167,-0.02 -1.452,0.57 -0.064,0.481 0.394,0.312 1.456,-0.569 z m -1.023,-1.94 -0.163,-0.165 -0.23,0.024 -1.059,1.319 0.064,0.561 0.394,0.142 1.058,-1.323 -0.064,-0.557 z m -3.23,-0.217 -0.553,-2.58 -0.358,-0.442 -0.195,0.241 0.012,0.123 0.557,2.587 0.354,0.443 z m -2.2,-2.895 -0.119,0.237 0.056,0.253 1.054,2.528 0.398,0.308 0.063,-0.486 -1.058,-2.532 z m -1.022,0.766 -0.056,0.19 0.12,0.371 1.452,2.232 0.397,0.146 -0.063,-0.56 -1.456,-2.233 z m -0.656,1.335 -0.016,0.103 0.195,0.47 1.71,1.715 0.358,-0.036 -0.183,-0.573 -1.706,-1.714 z m 4.395,-2.358 c 2.82,1.62 5.108,5.961 5.108,9.699 0,3.733 -2.288,5.451 -5.108,3.832 -2.824,-1.62 -5.107,-5.954 -5.107,-9.691 0,-3.737 2.283,-5.46 5.107,-3.84 z"
     fill="#acada9"
     id="path5658"
     style="fill-rule:evenodd" />
  <path
     d="m 282.694,264.105 c 0,1.481 0.906,3.2 2.024,3.844 1.118,0.64 2.025,-0.04 2.025,-1.521 0,-1.482 -0.907,-3.2 -2.025,-3.844 -1.118,-0.64 -2.024,0.04 -2.024,1.52"
     fill="#91928e"
     id="path5660"
     style="fill-rule:evenodd" />
  <path
     d="m 286.468,266.428 c 0,0.474 -0.099,0.869 -0.29,1.134 l -0.656,0.363 h -0.2 c -0.496,-0.012 -0.962,-0.245 -1.336,-0.569 -0.78,-0.675 -1.304,-1.64 -1.289,-2.678 0.008,-0.411 0.088,-1.008 0.323,-1.454 l 0.004,-0.004 c 0.183,-0.348 0.465,-0.6 0.887,-0.6 l 0.668,0.2 c 1.038,0.597 1.89,2.217 1.89,3.608"
     fill="#b9b9b4"
     id="path5662"
     style="fill-rule:evenodd" />
  <path
     d="m 290.828,269.087 c 0,-4.69 -2.868,-10.15 -6.392,-12.168 -0.828,-0.474 -1.623,-0.715 -2.359,-0.715 -2.104,0 -3.469,2.058 -3.469,5.242 0,4.69 2.864,10.15 6.389,12.168 0.831,0.478 1.623,0.719 2.362,0.719 0.99,0 1.834,-0.45 2.443,-1.308 0.668,-0.936 1.026,-2.299 1.026,-3.938 z m 0.279,0 c 0,1.698 -0.374,3.117 -1.078,4.1 -0.665,0.929 -1.588,1.422 -2.67,1.422 -0.787,0 -1.63,-0.252 -2.502,-0.754 -3.6,-2.066 -6.527,-7.633 -6.527,-12.409 0,-3.354 1.472,-5.519 3.747,-5.519 0.784,0 1.627,0.253 2.498,0.755 3.6,2.062 6.532,7.628 6.532,12.405 z"
     fill="#acada9"
     id="path5664"
     style="fill-rule:evenodd" />
  <path
     d="m 285.442,267.668 -0.12,0.257 c -0.496,-0.012 -0.962,-0.245 -1.336,-0.569 -0.78,-0.675 -1.304,-1.64 -1.289,-2.678 0.008,-0.411 0.088,-1.008 0.323,-1.454 l 0.004,-0.004 0.21,-0.123 c 0.462,-0.185 0.975,0.111 1.325,0.459 1.054,1.05 1.416,2.726 0.883,4.112"
     fill="#c7c6c1"
     id="path5666"
     style="fill-rule:evenodd" />
  <path
     d="m 282.813,264.646 0.242,-0.15 0.088,-0.051 0.49,0.063 c 0.445,0.257 0.807,0.94 0.807,1.533 l -0.307,0.66 -0.262,0.157 -0.02,-0.162 -0.167,-0.07 c -0.45,-0.258 -0.808,-0.945 -0.808,-1.534 l 0.064,-0.387 -0.127,-0.059"
     fill="#797a76"
     id="path5668"
     style="fill-rule:evenodd" />
  <path
     d="m 282.578,265.266 c 0,0.589 0.358,1.276 0.808,1.533 0.445,0.257 0.807,-0.016 0.807,-0.608 0,-0.589 -0.362,-1.276 -0.807,-1.533 -0.45,-0.257 -0.808,0.016 -0.808,0.608"
     fill="#5f605c"
     id="path5670"
     style="fill-rule:evenodd" />
  <path
     d="m 282.857,265.424 c 0,0.387 0.238,0.834 0.529,1.004 0.29,0.166 0.525,-0.012 0.525,-0.4 0,-0.382 -0.235,-0.833 -0.525,-0.999 -0.29,-0.166 -0.53,0.012 -0.53,0.395"
     fill="#c7c6c1"
     id="path5672"
     style="fill-rule:evenodd" />
  <path
     fill="#1b1c1a"
     d="m 280.486,265.843 4.773,2.754 -13.389,-116.002 -67.328,-38.622 -6.619,104.526 4.209,2.418 6.328,-99.686 59.32,34.026 12.706,110.586"
     id="path5674"
     style="fill-rule:evenodd" />
  <path
     fill="#1b1c1a"
     d="m 284.444,263.674 4.773,2.754 -13.39,-116.002 -67.327,-38.621 -6.619,104.529 4.208,2.414 6.325,-99.686 59.325,34.026 12.705,110.586"
     id="path5676"
     style="fill-rule:evenodd" />
  <path
     fill="#353633"
     d="m 271.739,153.088 4.089,-2.662 -67.328,-38.621 -3.958,2.168 67.197,39.115"
     id="path5678"
     style="fill-rule:evenodd" />
  <path
     fill="#232422"
     d="m 275.828,150.426 -4.09,2.662 13.521,115.509 3.958,-2.17 -13.39,-116.001 m -73.695,70.491 3.957,-2.17 6.019,-95.422 -3.648,-2.094 -6.328,99.686"
     id="path5680"
     style="fill-rule:evenodd" />
  <path
     fill="#a0a19d"
     d="m 261.683,139.976 -2.033,1.174 2.009,1.15 0.024,-2.324 m -5.875,10.193 1.527,-0.889 -1.503,-0.865 -0.024,1.754"
     id="path5682"
     style="fill-rule:evenodd" />
  <path
     fill="#fff5f5"
     d="m 219.865,122.736 35.986,20.626 3.8,-2.212 2.032,-1.174 -35.987,-20.602 -2.009,1.15 -3.822,2.212"
     id="path5684"
     style="fill-rule:evenodd" />
  <path
     fill="#91928e"
     d="m 219.82,129.567 35.988,20.602 0.024,-1.754 0.02,-4.555 v -0.498 l -35.987,-20.626 v 0.174 l -0.02,4.835 -0.024,1.822"
     id="path5686"
     style="fill-rule:evenodd" />
  <path
     fill="#353633"
     d="m 205.489,163.056 0.294,0.158 67.392,38.882 -0.649,-5.535 -62.757,-36.207 -3.958,2.489 -0.322,0.213"
     id="path5688"
     style="fill-rule:evenodd" />
  <path
     fill="#1b1c1a"
     d="m 205.489,163.056 v 4.195 l 0.024,0.028 68.17,39.309 -0.508,-4.492 -67.392,-38.882 -0.294,-0.158"
     id="path5690"
     style="fill-rule:evenodd" />
  <path
     d="m 183.36,260.83 c 0.466,-2.11 1.174,-4.2 1.154,-6.365 -0.008,-0.754 -0.1,-1.544 0.19,-2.244 0.248,-0.588 0.745,-1.035 1.266,-1.39 2.931,-2.007 7.47,-0.952 9.288,2.149 0.672,1.146 0.986,2.461 1.372,3.737 0.764,2.52 1.922,5.065 3.823,6.91 0.947,0.916 1.885,1.185 2.98,1.754 1.268,0.66 2.458,1.813 3.571,2.706 a 49.192,49.192 0 0 1 3.071,2.679 c 1.201,1.137 2.375,2.37 3.06,3.887 0.592,1.323 0.787,2.79 0.886,4.239 0.092,1.327 0.104,2.682 -0.29,3.95 -0.398,1.265 -1.261,2.442 -2.486,2.908 -1.651,0.628 -3.465,-0.134 -5.068,-0.88 -2.765,-1.293 -5.617,-2.652 -7.606,-4.99 -0.918,-1.083 -1.622,-2.343 -2.533,-3.433 -1.679,-2.007 -3.986,-3.359 -6.31,-4.528 -2.33,-1.173 -4.904,-2.374 -6.077,-4.737 -0.959,-1.932 -0.756,-4.239 -0.29,-6.352"
     fill="#fffffe"
     id="path5692"
     style="fill-rule:evenodd" />
  <path
     d="m 175.663,163.21 c 0.876,-2.576 2.976,-4.551 5.279,-5.946 2.307,-1.398 4.857,-2.31 7.275,-3.492 a 37.257,37.257 0 0 0 10.895,-8.087 c 0.57,-0.612 2.602,-0.881 3.378,-1.142 1.75,-0.596 3.85,-1.742 4.01,1.075 0.377,6.597 0.942,13.069 0.313,19.658 -0.64,6.689 -1.75,13.318 -2.864,19.939 -0.5,2.97 -1.006,5.946 -1.507,8.92 a 739.286,739.286 0 0 1 -1.357,7.874 42.1,42.1 0 0 1 -0.286,1.481 l 0.21,-0.138 c -0.544,3.9 -0.755,7.842 -0.44,11.75 0.31,3.883 -0.243,8.134 -0.7,11.99 -0.526,4.365 -1.409,8.683 -2.292,12.993 -0.553,2.698 -1.11,5.4 -1.663,8.103 -0.588,2.896 0.494,4.776 -2.872,5.91 -1.75,0.589 -3.592,1.189 -5.41,0.857 -2.076,-0.383 -3.154,-1.84 -3.245,-3.808 -0.108,-2.244 -0.434,-4.449 -0.716,-6.748 -0.541,-4.365 -1.078,-8.735 -1.62,-13.1 -0.492,-3.986 -0.978,-7.992 -1.01,-12.014 -0.031,-3.382 0.283,-6.74 -0.047,-10.11 l -0.056,-0.56 a 886.19,886.19 0 0 1 -0.354,-3.62 c -1.392,-2.923 -1.854,-6.237 -2.232,-9.485 -0.97,-8.363 -1.945,-16.723 -2.915,-25.082 -0.279,-2.414 -0.55,-4.923 0.226,-7.218"
     fill="#232422"
     id="path5694"
     style="fill-rule:evenodd" />
  <path
     d="m 154.712,273.693 c 0.454,-2.679 2.196,-5.03 2.435,-7.735 0.123,-1.391 -0.155,-2.817 0.167,-4.176 0.485,-2.062 2.486,-3.65 4.578,-3.627 2.089,0.024 4.054,1.652 4.5,3.73 l 0.843,2.097 c 1.01,7.522 2.398,15.072 5.346,22.053 1.627,3.848 3.763,7.68 3.755,11.871 -0.004,1.118 -0.187,2.296 -0.887,3.157 -0.852,1.047 -2.315,1.406 -3.64,1.244 -1.325,-0.158 -2.554,-0.758 -3.755,-1.35 l -4.773,-2.348 c -1.05,-0.517 -2.113,-1.039 -3.031,-1.77 -2.248,-1.785 -3.433,-4.641 -3.99,-7.49 -0.557,-2.844 -0.58,-5.768 -0.999,-8.64 -0.338,-2.33 -0.942,-4.693 -0.549,-7.016"
     fill="#fffffe"
     id="path5696"
     style="fill-rule:evenodd" />
  <path
     d="m 145.118,148.486 c 0.107,-0.711 0.239,-1.442 0.62,-2.046 0.737,-1.166 2.236,-1.608 3.589,-1.502 2.732,0.218 4.956,2.189 7.144,3.86 6.44,4.927 14.28,7.929 22.315,8.55 l -2.104,8.529 c -1.213,4.432 -1.937,9.003 -2.077,13.602 -0.362,11.54 2.848,23.593 -1.253,34.366 -1.682,4.409 -2.784,8.36 -2.967,13.183 -0.402,10.774 -2.888,21.417 -2.804,32.202 0.04,5.132 -0.768,7.893 -6.321,8.695 -0.796,0.115 -1.623,0.194 -2.39,-0.043 -3.481,-1.075 -3.095,-9.747 -3.855,-12.69 a 237.693,237.693 0 0 1 -4.929,-24.332 c -0.29,-1.967 -0.56,-3.95 -0.5,-5.937 0.075,-2.624 0.715,-5.192 1.352,-7.732 0.724,-2.876 1.444,-5.752 2.163,-8.624 -2.18,-10.532 -4.252,-21.092 -6.153,-31.68 -1.687,-9.379 -3.266,-18.979 -1.83,-28.401"
     fill="#141413"
     id="path5698"
     style="fill-rule:evenodd" />
  <path
     d="m 211.424,62.15 c 0.553,-1.644 1.121,-3.296 1.448,-4.994 0.266,-1.38 0.676,-1.837 2.112,-2.327 2.255,-0.767 5.855,-0.609 7.792,0.936 0.676,0.537 1.19,1.248 1.635,1.987 1.695,2.81 2.132,5.661 2.263,8.85 0.14,3.314 1.039,6.625 1.23,9.963 0.274,4.76 -0.207,9.6 0.803,14.262 l -1.619,2.398 a 20.302,20.302 0 0 0 -7.888,4.342 c -0.457,0.41 -0.915,0.849 -1.48,1.09 -0.568,0.237 -1.296,0.225 -1.734,-0.206 l -0.47,-0.817 c -0.823,-2.063 -1.65,-4.12 -2.473,-6.183 -1.508,-3.773 -3.023,-7.558 -4.038,-11.492 -0.477,-1.861 -0.847,-3.761 -0.827,-5.681 0.04,-4.204 1.905,-8.143 3.246,-12.129"
     fill="#f6c9ad"
     id="path5700"
     style="fill-rule:evenodd" />
  <path
     d="m 218.683,91.905 c 0.414,-1.134 0.919,-2.271 1.782,-3.12 0.86,-0.85 2.148,-1.364 3.31,-1.028 l -0.577,0.494 3.974,-0.577 c 5.095,4.338 8.695,10.137 11.81,16.04 3.114,5.906 5.843,12.037 9.594,17.564 l 0.33,0.759 -0.421,0.885 c -1.663,2.062 -3.747,4.325 -6.405,4.2 -1.782,-0.088 -3.301,-1.261 -4.642,-2.435 -5.93,-5.17 -10.943,-11.275 -15.927,-17.355 -1.233,-1.5 -2.482,-3.03 -3.226,-4.823 -1.392,-3.346 -0.843,-7.198 0.398,-10.604"
     fill="#ebcbb7"
     id="path5702"
     style="fill-rule:evenodd" />
  <path
     d="m 212.339,69 c 1.26,-3.414 2.903,-6.673 4.59,-9.905 0.811,-1.548 1.862,-3.267 3.596,-3.567 1.758,-0.3 3.369,1.027 4.479,2.418 3.07,3.848 4.467,8.806 4.793,13.704 0.326,4.903 -0.45,10.146 -1.118,15.013 -0.437,0.419 -0.875,0.841 -1.312,1.264 -0.876,0.845 -1.755,1.695 -2.741,2.414 -3.314,2.418 -7.789,3.184 -11.727,2.003 l 0.156,-0.447 -3.56,-2.682 A 48.23,48.23 0 0 1 212.339,69"
     fill="#fffffe"
     id="path5704"
     style="fill-rule:evenodd" />
  <path
     d="m 143.447,143.488 c 0.032,-0.643 0.096,-1.33 0.18,-2.07 0.7,-6.206 1.793,-12.357 3.015,-18.48 2.406,-12.086 5.346,-24.084 6.901,-36.323 1.038,-8.181 1.456,-16.466 3.282,-24.51 0.537,-2.358 1.24,-4.78 2.864,-6.577 1.595,-1.77 3.886,-2.726 6.102,-3.627 4.494,-1.82 8.993,-3.634 13.5,-5.436 3.93,-1.572 7.988,-3.156 12.228,-3.16 4.093,-0.008 8.031,1.47 11.814,3.034 5.58,2.315 10.863,5.219 16.372,7.656 2.001,0.885 3.218,0.98 4.09,3.188 0.76,1.928 0.815,4.504 0.97,6.444 1.953,24.375 -17.653,46.06 -18.051,70.506 -0.092,5.788 0.907,11.524 1.603,17.269 0.103,0.857 0.199,1.754 -0.08,2.571 -0.234,0.684 -0.708,1.257 -1.197,1.786 -6.73,7.273 -17.673,8.936 -27.598,8.296 -7.621,-0.49 -15.286,-2.192 -22.136,-5.617 -3.449,-1.723 -6.15,-4.184 -9.32,-6.25 -3.894,-2.54 -4.737,-4.883 -4.539,-8.7"
     fill="#aa2aba"
     id="path5706"
     style="fill-rule:evenodd" />
  <path
     d="m 180.819,47.267 c 0.974,-1.335 2.955,-1.355 4.391,-2.184 1.504,-0.874 2.311,-2.604 2.562,-4.315 0.25,-1.71 0.032,-3.448 -0.036,-5.175 a 29.418,29.418 0 0 1 1.619,-10.785 c 1.13,1.833 2.26,3.666 3.385,5.5 1.997,3.243 3.99,6.486 5.851,9.805 a 138.514,138.514 0 0 1 5.645,11.259 l 1.857,4.44 c 0.53,3.47 0.979,7.313 -0.99,10.225 -0.457,0.675 -1.026,1.264 -1.615,1.829 -0.66,0.632 -1.56,1.145 -2.092,1.892 -0.462,0.648 -0.776,1.482 -1.17,2.177 a 70.348,70.348 0 0 0 -3.317,6.582 c 0.203,-0.459 -0.513,-2.039 -0.665,-2.517 a 26.723,26.723 0 0 0 -1.054,-2.785 c -0.608,-1.379 -1.324,-3.196 -2.366,-4.298 -1.226,-1.304 -2.888,-2.229 -4.133,-3.58 -1.265,-1.378 -2.395,-2.876 -3.48,-4.393 -1.353,-1.896 -2.662,-3.844 -3.573,-5.981 a 18.456,18.456 0 0 1 -1.273,-4.452 c -0.17,-1.106 -0.21,-2.34 0.454,-3.244"
     fill="#ebcbb7"
     id="path5708"
     style="fill-rule:evenodd" />
  <path
     d="m 198.64,71.022 c 0.206,-0.415 0.445,-0.802 0.72,-1.15 1.07,-1.346 2.43,-2.453 3.511,-3.8 1.946,-2.425 3.258,-5.349 5.458,-7.55 1.177,-1.177 2.474,-2.184 3.576,-3.436 0.95,-1.087 2.418,-2.28 3.994,-1.885 1.205,0.304 1.949,1.486 2.462,2.607 a 20.18,20.18 0 0 1 1.372,4.125 22.986,22.986 0 0 0 -8.357,2.746 c 1.89,-0.47 4.041,0.738 4.606,2.591 l -2.665,-0.059 c -1.034,0.13 -2.08,0.352 -3.09,0.608 -2.001,0.51 -3.963,1.296 -5.562,2.624 -2.108,1.754 -3.405,4.29 -4.323,6.866 -0.923,2.572 -1.532,5.258 -2.578,7.782 0.14,-0.331 -0.41,-1.663 -0.477,-2.07 a 17.348,17.348 0 0 1 0.318,-7.04 c 0.25,-0.972 0.565,-2.026 1.034,-2.959"
     fill="#fffffe"
     id="path5710"
     style="fill-rule:evenodd" />
  <path
     d="m 187.696,27.084 0.764,-0.62 c 1.026,-0.558 2.267,-0.621 3.377,-0.352 1.038,0.253 1.758,0.142 2.263,-1.031 0.339,-0.787 0.347,-1.664 0.474,-2.51 0.477,-3.148 2.86,-5.933 5.91,-6.913 0.912,-0.288 1.854,-0.422 2.805,-0.517 1.05,-0.099 1.273,-0.296 2.152,-0.774 1.945,-1.063 4.344,-0.174 6.376,0.722 2.383,1.055 4.762,2.106 7.145,3.157 l 5.119,7.056 c -2.033,6.913 -4.07,13.827 -6.106,20.74 -0.724,2.466 -1.456,4.943 -2.53,7.278 -0.982,2.145 -2.394,4.278 -4.59,5.171 -2.407,0.98 -5.211,0.217 -7.43,-1.134 -1.747,-1.067 -3.199,-2.418 -4.865,-3.595 -1.735,-1.22 -3.584,-2.366 -4.897,-4.061 a 8.974,8.974 0 0 1 -1.826,-4.543 c -0.195,-1.818 0.175,-3.643 0.541,-5.436 l -2.005,0.07 c -0.823,-0.197 -1.13,-0.576 -1.535,-1.291 a 15.17,15.17 0 0 1 -1.95,-6.764 c -0.067,-1.481 -0.194,-3.46 0.808,-4.653"
     fill="#ebcbb7"
     id="path5712"
     style="fill-rule:evenodd" />
  <path
     d="m 184.9,14.24 c 0.585,-3.69 2.637,-7.36 6.058,-8.913 2.594,-1.173 5.6,-1.003 8.33,-1.829 2.768,-0.833 5.186,-2.678 8.035,-3.2 4.371,-0.798 8.68,1.7 11.973,4.67 1.54,1.39 2.971,2.92 4.065,4.678 3.504,5.637 3.067,13.159 -0.095,18.706 -0.665,-1.754 -0.49,-2.493 -2.244,-3.627 -2.757,-1.786 -5.831,-2.995 -8.755,-4.484 -1.289,-0.656 -2.598,-1.312 -3.72,-2.2 -1.232,-0.976 -2.672,-1.596 -4.248,-1.75 -0.946,-0.091 -1.933,-0.012 -2.796,0.395 -1.424,0.671 -2.291,2.117 -2.971,3.531 a 32.305,32.305 0 0 0 -3.027,10.817 c -0.1,1.035 -0.152,2.086 -0.51,3.058 l -0.342,0.355 -0.358,-0.414 c -0.7,-2.414 -0.95,-6.27 -4.363,-6.151 -1.285,0.047 -2.112,1.43 -2.295,2.694 -0.191,1.268 -0.004,2.6 -0.45,3.8 -0.525,-3.002 -1.054,-6 -1.58,-9.003 -0.647,-3.678 -1.292,-7.44 -0.707,-11.133"
     fill="#f0f0f2"
     id="path5714"
     style="fill-rule:evenodd" />
  <path
     d="m 137.827,104.725 0.215,-0.521 c 1.229,-2.79 1.893,-5.918 2.891,-8.81 2.005,-5.804 4.014,-11.611 6.178,-17.36 a 288.29,288.29 0 0 1 3.385,-8.568 c 1.65,-3.955 2.753,-7.57 5.64,-10.955 1.146,-1.344 2.598,-2.66 4.372,-2.746 1.524,-0.071 2.975,0.822 3.89,2.035 0.92,1.208 1.377,2.702 1.69,4.183 1.878,8.85 -0.687,18.418 -2.696,27.038 -1.062,4.547 -3.23,8.715 -5.326,12.856 -1.643,3.24 -2.988,6.645 -4.451,9.967 -0.553,1.26 -1.114,2.532 -1.957,3.623 -2.55,3.306 -7.705,4.262 -11.285,2.098 -4.905,-2.963 -4.34,-8.317 -2.546,-12.84"
     fill="#ebcbb7"
     id="path5716"
     style="fill-rule:evenodd" />
  <path
     d="m 135.754,117.059 a 53.418,53.418 0 0 1 0.036,-4.784 c 0.147,-2.738 1.034,-5.67 3.31,-7.226 2.184,1.896 5.167,2.686 8.07,2.75 2.904,0.063 5.772,-0.546 8.613,-1.146 -1.611,4.192 -3.262,8.53 -3.441,13.065 -0.195,5.033 1.4,10.469 2.66,15.296 0.709,2.703 1.413,5.433 2.256,8.1 0.78,2.468 0.999,5.076 1.822,7.569 0.286,0.869 0.625,1.765 0.49,2.674 -0.176,1.193 -1.166,2.15 -2.28,2.627 -1.118,0.482 -2.359,0.573 -3.576,0.656 -4.021,0.28 -6.03,-5.55 -7.594,-8.47 -2.207,-4.124 -4.136,-8.391 -6.026,-12.666 -2.653,-5.997 -4.093,-12.069 -4.34,-18.445"
     fill="#ebcbb7"
     id="path5718"
     style="fill-rule:evenodd" />
  <path
     fill="#f4f4f1"
     d="m 133.225,260.62 5.97,-3.35 -5.847,-3.354 -5.97,3.354 5.847,3.35"
     id="path5720"
     style="fill-rule:evenodd" />
  <path
     fill="#9d9e9a"
     d="m 127.377,257.27 v 7.384 l 5.848,3.354 v -7.388 l -5.848,-3.35"
     id="path5722"
     style="fill-rule:evenodd" />
  <path
     fill="#c7c6c1"
     d="m 139.195,257.27 v 7.384 l -5.97,3.354 v -7.388 l 5.97,-3.35"
     id="path5724"
     style="fill-rule:evenodd" />
  <path
     fill="#1b1c1a"
     d="m 211.619,304.74 4.773,2.75 -13.39,-115.998 -67.323,-38.62 -6.623,104.525 4.212,2.413 6.325,-99.685 59.32,34.03 12.706,110.586"
     id="path5726"
     style="fill-rule:evenodd" />
  <path
     fill="#1b1c1a"
     d="m 215.576,302.572 4.774,2.75 -13.39,-115.998 -67.323,-38.622 -6.623,104.526 4.212,2.414 6.325,-99.686 59.32,34.03 12.705,110.586"
     id="path5728"
     style="fill-rule:evenodd" />
  <path
     fill="#353633"
     d="m 202.871,191.986 4.09,-2.662 -67.324,-38.622 -3.958,2.17 67.192,39.114"
     id="path5730"
     style="fill-rule:evenodd" />
  <path
     fill="#232422"
     d="m 206.96,189.324 -4.089,2.662 13.52,115.504 3.959,-2.168 -13.39,-115.998 m -73.692,70.486 3.958,-2.168 6.019,-95.42 -3.652,-2.097 -6.325,99.685"
     id="path5732"
     style="fill-rule:evenodd" />
  <path
     fill="#a0a19d"
     d="m 192.816,178.874 -2.029,1.17 2.009,1.15 0.02,-2.32 m -5.872,10.193 1.528,-0.89 -1.508,-0.868 -0.02,1.758"
     id="path5734"
     style="fill-rule:evenodd" />
  <path
     fill="#fff5f5"
     d="m 151.001,161.634 35.983,20.622 3.803,-2.212 2.029,-1.17 -35.983,-20.602 -2.01,1.15 -3.822,2.212"
     id="path5736"
     style="fill-rule:evenodd" />
  <path
     fill="#91928e"
     d="m 150.957,168.464 35.987,20.603 0.02,-1.758 0.02,-4.551 v -0.502 l -35.983,-20.622 v 0.173 l -0.024,4.836 -0.02,1.821"
     id="path5738"
     style="fill-rule:evenodd" />
  <path
     d="m 224.662,308.628 c 0,-6.317 -3.883,-13.685 -8.656,-16.419 -2.164,-1.24 -4.14,-1.315 -5.66,-0.442 l -1.536,0.798 0.382,0.146 c -1.15,1.288 -1.838,3.338 -1.838,5.997 0,6.317 3.883,13.685 8.652,16.419 1.472,0.845 2.86,1.15 4.077,0.984 l -0.175,0.383 1.377,-0.723 v -0.004 c 2.048,-0.92 3.377,-3.445 3.377,-7.139"
     fill="#2d2e2c"
     id="path5740"
     style="fill-rule:evenodd" />
  <path
     d="m 214.208,316.067 c 4.773,2.738 8.656,-0.178 8.656,-6.499 0,-6.317 -3.883,-13.684 -8.656,-16.418 -4.77,-2.738 -8.652,0.177 -8.652,6.498 0,6.318 3.883,13.681 8.652,16.42"
     fill="#232422"
     id="path5742"
     style="fill-rule:evenodd" />
  <path
     d="m 214.208,314.941 c 4.304,2.47 7.805,-0.158 7.805,-5.858 0,-5.697 -3.5,-12.342 -7.805,-14.807 -4.3,-2.47 -7.804,0.162 -7.804,5.858 0,5.697 3.504,12.342 7.804,14.807"
     fill="#fdfcfb"
     id="path5744"
     style="fill-rule:evenodd" />
  <path
     d="m 221.36,309.083 c 0,-5.492 -3.353,-11.884 -7.478,-14.246 -0.97,-0.557 -1.901,-0.838 -2.765,-0.838 -2.462,0 -4.057,2.406 -4.057,6.135 0,5.492 3.353,11.884 7.474,14.246 0.975,0.561 1.906,0.842 2.769,0.842 1.157,0 2.148,-0.53 2.86,-1.53 0.783,-1.097 1.197,-2.69 1.197,-4.61 z m 0.326,0 c 0,1.987 -0.433,3.646 -1.257,4.8 -0.78,1.086 -1.861,1.663 -3.126,1.663 -0.923,0 -1.91,-0.297 -2.932,-0.885 -4.208,-2.418 -7.637,-8.933 -7.637,-14.527 0,-3.927 1.722,-6.459 4.383,-6.459 0.92,0 1.91,0.292 2.928,0.881 4.212,2.414 7.641,8.932 7.641,14.527 z"
     fill="#acada9"
     id="path5746"
     style="fill-rule:evenodd" />
  <path
     d="m 214.208,297.416 c 3,1.723 5.43,6.333 5.43,10.308 0,3.97 -2.43,5.791 -5.43,4.073 -3,-1.723 -5.426,-6.33 -5.426,-10.3 0,-3.974 2.427,-5.8 5.426,-4.08"
     fill="#5f605c"
     id="path5748"
     style="fill-rule:evenodd" />
  <path
     d="m 210.107,302.418 1.798,1.031 0.282,-0.213 -0.282,-0.538 -1.798,-1.03 -0.282,0.213 z m -0.056,1.481 0.27,0.42 0.088,0.03 1.707,0.242 0.183,-0.368 -0.358,-0.446 -1.71,-0.245 z m 0.657,2.086 0.23,0.285 0.167,0.023 1.452,-0.565 0.064,-0.485 -0.398,-0.313 -1.452,0.565 z m 1.022,1.94 0.167,0.166 0.23,-0.024 1.055,-1.32 -0.064,-0.56 -0.394,-0.142 -1.058,1.319 z m 1.289,1.608 0.087,0.067 0.27,-0.103 0.554,-1.947 -0.18,-0.577 -0.357,0.035 -0.557,1.944 0.183,0.58 z m 1.141,-8.53 0.287,0.534 0.282,-0.21 v -2.382 l -0.282,-0.533 -0.287,0.205 v 2.387 z m 0.004,9.11 0.283,0.538 0.282,-0.213 v -2.383 l -0.282,-0.533 -0.283,0.21 v 2.382 z m 0.979,-8.027 0.354,-0.04 0.557,-1.943 -0.183,-0.58 -0.088,-0.068 -0.266,0.107 -0.557,1.947 z m -0.18,6.052 0.554,2.584 0.358,0.446 0.195,-0.244 -0.012,-0.123 -0.557,-2.584 -0.358,-0.442 z m 2.2,2.9 0.12,-0.237 -0.056,-0.253 -1.058,-2.532 -0.398,-0.308 -0.06,0.49 1.059,2.532 0.394,0.308 z m 1.023,-0.77 0.052,-0.19 -0.116,-0.367 -1.452,-2.232 -0.397,-0.147 0.063,0.561 1.456,2.233 z m 0.656,-1.328 0.016,-0.106 -0.199,-0.474 -1.71,-1.711 -0.358,0.036 0.187,0.576 1.706,1.71 0.358,-0.03 z m 0.223,-1.762 -0.282,-0.54 -1.798,-1.028 -0.279,0.213 0.279,0.538 1.802,1.03 z m -0.223,-2.022 -0.27,-0.415 -0.088,-0.032 -1.71,-0.24 -0.183,0.363 0.358,0.45 1.71,0.241 z m -0.66,-2.086 -0.227,-0.285 -0.167,-0.023 -1.452,0.568 -0.063,0.486 0.393,0.312 1.456,-0.568 z m -1.022,-1.94 -0.163,-0.162 -0.231,0.02 -1.058,1.323 0.063,0.561 0.394,0.142 1.058,-1.323 z m -3.23,-0.213 -0.553,-2.58 -0.358,-0.447 -0.195,0.241 0.012,0.127 0.557,2.584 0.354,0.442 z m -2.204,-2.896 -0.115,0.233 0.055,0.253 1.054,2.532 0.398,0.308 0.064,-0.486 -1.058,-2.532 z m -1.022,0.766 -0.052,0.186 0.12,0.375 1.451,2.232 0.398,0.147 -0.068,-0.561 -1.452,-2.233 z m -0.653,1.332 -0.016,0.106 0.195,0.466 1.71,1.719 0.359,-0.036 -0.183,-0.576 -1.707,-1.715 z m 4.276,-2.11 c 2.825,1.62 4.993,5.677 4.993,9.414 0,3.738 -2.053,5.488 -4.873,3.872 -2.824,-1.62 -5.112,-5.958 -5.112,-9.695 0,-3.737 2.172,-5.207 4.992,-3.591 z"
     fill="#c7c6c1"
     id="path5750"
     style="fill-rule:evenodd" />
  <path
     d="m 209.872,302.497 1.798,1.031 0.283,-0.213 -0.283,-0.542 -1.798,-1.027 -0.286,0.21 0.286,0.54 z m -0.06,1.481 0.275,0.42 0.084,0.027 1.71,0.24 0.18,-0.363 -0.355,-0.446 -1.71,-0.245 -0.183,0.367 z m 0.661,2.086 0.227,0.285 0.167,0.023 1.456,-0.565 0.06,-0.49 -0.394,-0.308 -1.456,0.565 z m 1.022,1.94 0.167,0.166 0.227,-0.024 1.058,-1.32 -0.063,-0.56 -0.394,-0.142 -1.058,1.32 z m 1.29,1.608 0.087,0.067 0.266,-0.103 0.557,-1.951 -0.183,-0.573 -0.358,0.035 -0.553,1.944 0.183,0.58 z m 1.14,-8.53 0.283,0.534 0.287,-0.21 v -2.382 l -0.287,-0.537 -0.282,0.21 v 2.386 z m 0.005,9.11 0.282,0.538 0.283,-0.213 v -2.383 l -0.283,-0.537 -0.282,0.213 v 2.383 z m 0.974,-8.03 0.358,-0.036 0.557,-1.944 -0.183,-0.58 -0.087,-0.068 -0.27,0.107 -0.554,1.943 0.18,0.577 z m -0.179,6.055 0.557,2.584 0.358,0.446 0.195,-0.244 -0.016,-0.123 -0.553,-2.584 -0.358,-0.446 z m 2.204,2.9 0.115,-0.237 -0.051,-0.253 -1.059,-2.532 -0.397,-0.308 -0.064,0.49 1.062,2.532 z m 1.022,-0.77 0.052,-0.19 -0.115,-0.371 -1.456,-2.228 -0.394,-0.147 0.064,0.557 1.455,2.237 z m 0.657,-1.332 0.011,-0.102 -0.194,-0.474 -1.71,-1.715 -0.359,0.036 0.183,0.58 1.71,1.711 z m 0.222,-1.762 -0.282,-0.537 -1.798,-1.031 -0.283,0.217 0.283,0.534 1.798,1.035 z m -0.226,-2.018 -0.267,-0.42 -0.091,-0.03 -1.707,-0.242 -0.183,0.368 0.358,0.45 1.71,0.241 z m -0.657,-2.086 -0.23,-0.285 -0.168,-0.023 -1.447,0.568 -0.068,0.486 0.398,0.309 1.452,-0.565 z m -1.022,-1.94 -0.167,-0.162 -0.23,0.02 -1.055,1.32 0.064,0.56 0.393,0.146 1.055,-1.323 z m -3.23,-0.213 -0.557,-2.584 -0.358,-0.443 -0.195,0.241 0.016,0.127 0.553,2.584 0.358,0.442 z m -2.204,-2.9 -0.115,0.237 0.056,0.253 1.054,2.532 0.398,0.308 0.063,-0.49 -1.058,-2.528 z m -1.022,0.77 -0.052,0.186 0.116,0.375 1.456,2.232 0.393,0.143 -0.063,-0.561 -1.452,-2.233 z m -0.656,1.332 -0.012,0.102 0.195,0.47 1.71,1.719 0.354,-0.036 -0.179,-0.576 -1.71,-1.715 z m 4.395,-2.359 c 2.824,1.62 5.112,5.962 5.112,9.699 0,3.737 -2.288,5.452 -5.112,3.832 -2.82,-1.616 -5.107,-5.954 -5.107,-9.69 0,-3.738 2.287,-5.457 5.107,-3.84 z"
     fill="#acada9"
     id="path5752"
     style="fill-rule:evenodd" />
  <path
     d="m 212.183,303.449 c 0,1.478 0.907,3.2 2.03,3.84 1.117,0.64 2.02,-0.04 2.02,-1.521 0,-1.481 -0.903,-3.2 -2.02,-3.84 -1.123,-0.64 -2.03,0.04 -2.03,1.521"
     fill="#91928e"
     id="path5754"
     style="fill-rule:evenodd" />
  <path
     d="m 215.958,305.768 c 0,0.478 -0.1,0.87 -0.286,1.138 l -0.656,0.36 h -0.203 c -0.494,-0.013 -0.963,-0.246 -1.333,-0.566 -0.78,-0.68 -1.309,-1.643 -1.289,-2.682 0.008,-0.411 0.088,-1.008 0.323,-1.45 l 0.004,-0.004 c 0.183,-0.352 0.465,-0.604 0.887,-0.604 l 0.668,0.205 c 1.038,0.597 1.885,2.212 1.885,3.603"
     fill="#b9b9b4"
     id="path5756"
     style="fill-rule:evenodd" />
  <path
     d="m 220.318,308.43 c 0,-4.689 -2.864,-10.152 -6.388,-12.171 -0.832,-0.474 -1.623,-0.715 -2.36,-0.715 -2.107,0 -3.468,2.058 -3.468,5.242 0,4.69 2.864,10.153 6.385,12.172 0.835,0.474 1.626,0.715 2.362,0.715 0.99,0 1.838,-0.45 2.447,-1.304 0.668,-0.936 1.022,-2.299 1.022,-3.938 z m 0.278,0 c 0,1.7 -0.37,3.114 -1.074,4.101 -0.664,0.929 -1.587,1.423 -2.673,1.423 -0.787,0 -1.627,-0.257 -2.502,-0.759 -3.596,-2.062 -6.523,-7.628 -6.523,-12.409 0,-3.354 1.472,-5.519 3.747,-5.519 0.783,0 1.627,0.253 2.498,0.755 3.6,2.062 6.527,7.628 6.527,12.409 z"
     fill="#acada9"
     id="path5758"
     style="fill-rule:evenodd" />
  <path
     d="m 214.936,307.012 -0.123,0.253 c -0.494,-0.012 -0.963,-0.245 -1.333,-0.565 -0.78,-0.68 -1.309,-1.643 -1.289,-2.682 0.008,-0.411 0.088,-1.008 0.323,-1.45 l 0.004,-0.004 0.206,-0.126 c 0.462,-0.182 0.975,0.11 1.329,0.462 1.054,1.047 1.412,2.726 0.883,4.112"
     fill="#c7c6c1"
     id="path5760"
     style="fill-rule:evenodd" />
  <path
     d="m 212.303,303.986 0.246,-0.15 0.084,-0.047 0.49,0.059 c 0.445,0.257 0.807,0.944 0.807,1.533 l -0.303,0.664 -0.262,0.158 -0.02,-0.162 -0.171,-0.075 c -0.446,-0.253 -0.808,-0.94 -0.808,-1.533 l 0.068,-0.387 -0.131,-0.06"
     fill="#797a76"
     id="path5762"
     style="fill-rule:evenodd" />
  <path
     d="m 212.068,304.607 c 0,0.592 0.362,1.276 0.808,1.532 0.445,0.257 0.807,-0.015 0.807,-0.604 0,-0.593 -0.362,-1.28 -0.807,-1.537 -0.446,-0.253 -0.808,0.02 -0.808,0.609"
     fill="#5f605c"
     id="path5764"
     style="fill-rule:evenodd" />
  <path
     d="m 212.35,304.768 c 0,0.388 0.235,0.834 0.526,1 0.29,0.166 0.529,-0.012 0.529,-0.395 0,-0.387 -0.24,-0.834 -0.53,-1 -0.29,-0.17 -0.525,0.008 -0.525,0.395"
     fill="#c7c6c1"
     id="path5766"
     style="fill-rule:evenodd" />
  <path
     fill="#353633"
     d="m 136.622,201.95 0.298,0.162 67.387,38.878 -0.644,-5.535 -62.761,-36.204 -3.958,2.485 -0.322,0.214"
     id="path5768"
     style="fill-rule:evenodd" />
  <path
     fill="#1b1c1a"
     d="m 136.622,201.95 v 4.2 l 0.027,0.027 68.172,39.309 -0.514,-4.496 -67.387,-38.878 -0.298,-0.162"
     id="path5770"
     style="fill-rule:evenodd" />
  <path
     d="m 149.585,153.685 a 34.634,34.634 0 0 1 -0.704,-2.315 v -0.514 l 0.29,-0.237 a 27.278,27.278 0 0 1 6.417,-2.508 c 0.632,-0.158 1.36,-0.277 1.881,0.106 0.318,0.23 0.493,0.609 0.656,0.968 0.693,1.533 1.385,3.066 2.073,4.599 0.724,1.612 1.507,3.243 2.912,4.373 1.467,1.181 3.305,1.873 4.92,2.825 2.208,1.307 4.113,3.026 6.174,4.54 1.181,0.868 5.031,2.2 5.27,3.634 0.116,0.699 -0.437,1.378 -1.106,1.635 -0.668,0.253 -1.416,0.174 -2.12,0.044 a 14.851,14.851 0 0 1 -3.246,-1.008 c -0.863,-0.379 -2.323,-2.319 -3.31,-1.311 -0.333,0.34 -0.178,1.323 -0.25,1.758 -0.167,1.054 -0.529,2.101 -0.795,3.136 l -0.076,0.546 0.187,0.533 1.118,2.236 0.406,0.62 0.48,0.376 c 0.283,0.264 0.41,0.66 0.446,1.043 l 0.14,0.576 0.755,0.269 a 3.51,3.51 0 0 0 2.12,-0.762 l 0.402,-0.182 0.303,0.24 c 0.68,1.063 0.051,2.636 -0.999,3.185 -1.28,0.668 -2.864,0.593 -4.204,0.051 -1.345,-0.537 -2.475,-1.493 -3.465,-2.54 -0.31,-0.324 -0.613,-0.664 -0.998,-0.897 -0.33,-0.197 -0.705,-0.304 -1.066,-0.438 -2.952,-1.07 -5.08,-3.686 -6.524,-6.456 -1.444,-2.773 -2.359,-5.791 -3.787,-8.572 -1.599,-3.121 -3.166,-6.242 -4.3,-9.553 m 91.645,-25.861 a 6.755,6.755 0 0 1 0.321,-1.96 c 0.637,-1.967 2.057,-3.918 4.237,-4.278 0.632,-0.102 1.623,-1.059 2.235,-0.458 l 0.35,0.668 c 0.716,2.018 1.862,3.555 3.326,5.06 1.348,1.387 2.335,3.615 2.776,5.468 0.187,0.782 0.283,1.584 0.513,2.355 0.346,1.137 0.816,2.24 1.436,3.263 0.39,0.64 1.886,2.054 1.735,2.856 -0.279,1.482 -3.203,-0.008 -3.78,-0.442 -1.276,-0.968 -1.785,-2.62 -3.018,-3.576 -0.872,-0.675 -2.14,-0.675 -3,-1.367 -0.43,-0.347 -0.732,-0.849 -1.217,-1.11 -0.628,-0.336 -1.396,-0.185 -2.108,-0.253 a 3.454,3.454 0 0 1 -2.773,-1.955 c -0.632,-1.379 -1.054,-2.817 -1.034,-4.27"
     fill="#ebcbb7"
     id="path5772"
     style="fill-rule:evenodd" />
  <path
     d="m 245.812,120.78 c 1.093,-0.249 2.521,-0.399 3.52,0.233 0.64,0.403 1.157,1.249 1.138,2.015 l -0.47,1.205 c -0.382,0.277 -0.787,-0.126 -1.161,-0.284 -0.673,-0.277 -1.436,-0.253 -2.136,-0.071 -1.536,0.395 -2.566,1.272 -3.668,2.346 -0.82,0.798 -1.44,1.897 -1.647,3.026 l -0.215,0.253 -0.115,-0.122 c -0.998,-1.821 -1.444,-3.611 -0.23,-5.456 1.101,-1.679 3.015,-2.698 4.984,-3.145"
     fill="#20211f"
     id="path5774"
     style="fill-rule:evenodd" />
  <path
     d="m 241.42,143.844 c 0.14,-0.58 0.756,-1.035 1.345,-0.917 0.596,0.127 0.97,0.747 1.042,1.348 0.89,-0.344 2.02,0.355 2.1,1.303 1.376,-0.328 2.928,0.553 3.341,1.897 0.223,-0.348 0.708,-0.45 1.11,-0.352 0.712,0.178 3.783,1.47 3.731,2.339 l -0.258,0.371 a 3.574,3.574 0 0 1 -2.96,0.648 3.552,3.552 0 0 1 -2.363,-1.888 c -1.328,0.458 -2.951,-0.265 -3.496,-1.553 -0.62,0.443 -1.551,0.107 -1.997,-0.51 l -0.49,-0.695 -0.508,-0.395 c -0.462,-0.38 -0.74,-1.015 -0.597,-1.596"
     fill="#ebcbb7"
     id="path5776"
     style="fill-rule:evenodd" />
  <path
     fill="#1b1c1a"
     d="m 136.622,201.95 v 4.2 l 0.027,0.027 0.27,-4.065 0.025,-0.376 -0.322,0.214"
     id="path5778"
     style="fill-rule:evenodd" />
  <path
     fill="#353633"
     d="m 212.55,237.73 0.564,4.84 64.456,-37.195 0.294,-0.162 -0.322,-0.213 -3.958,-2.49 -61.035,35.22"
     id="path5780"
     style="fill-rule:evenodd" />
  <path
     fill="#232422"
     d="m 213.114,242.57 0.458,3.93 64.265,-37.064 0.027,-0.024 v -4.2 l -0.294,0.163 -64.456,37.195"
     id="path5782"
     style="fill-rule:evenodd" />
  <path
     fill="#353633"
     d="m 203.476,187.325 3.497,2.002 0.135,1.071 64.32,-37.14 0.299,-0.162 -0.322,-0.213 -4.121,-2.406 -63.808,36.848"
     id="path5784"
     style="fill-rule:evenodd" />
  <path
     fill="#232422"
     d="m 207.108,190.398 0.433,3.931 64.615,-37.223 -0.43,-4.01 -0.298,0.162 -64.32,37.14"
     id="path5786"
     style="fill-rule:evenodd" />
  <path
     d="m 192.569,42.827 c 0.187,-0.85 0.378,-1.691 0.497,-2.52 0.354,-2.422 0.537,-4.876 0.314,-7.317 -0.186,-2.03 -0.771,-4.231 -2.458,-5.393 l -0.6,-0.502 0.04,-0.71 0.508,-0.107 c 0.78,0.015 1.584,0.035 2.284,0.375 1.567,0.766 2.036,2.73 2.005,4.314 -0.06,3.006 -0.649,6.27 0.02,9.237 0.453,2.026 1.348,4.069 2.426,5.843 1.464,2.401 3.54,4.487 6.106,5.673 2.382,1.098 5.127,1.327 7.68,0.746 2.69,-0.612 4.551,-2.082 6.286,-4.132 -0.768,4.203 -1.27,9.059 -4.702,12.065 -2.108,1.849 -5.183,2.924 -6.138,5.547 -0.322,-1.233 -1.706,-1.818 -2.888,-2.311 -3.106,-1.296 -6.006,-3.18 -8.182,-5.733 -2.573,-3.018 -3.886,-7.087 -3.823,-11.03 0.02,-1.335 0.323,-2.694 0.625,-4.045"
     fill="#f0f0f2"
     id="path5788"
     style="fill-rule:evenodd" />
  <path
     d="m 207.295,46.212 c 0.5,-0.335 1.01,-0.675 1.587,-0.86 1.157,-0.372 2.55,-0.388 3.747,-0.277 1.15,0.11 2.399,0.264 3.206,1.078 0.684,0.692 1.309,1.521 1.56,2.47 a 37.651,37.651 0 0 0 -3.414,-0.894 4.927,4.927 0 0 1 -1.284,-0.442 c -0.343,-0.17 -0.426,-0.3 -0.844,-0.13 -2.303,0.916 -5.1,0.225 -7.231,1.485 l 0.187,-0.545 0.7,-0.58 c 0.56,-0.479 1.173,-0.894 1.786,-1.305"
     fill="#f0f0f2"
     id="path5790"
     style="fill-rule:evenodd" />
  <path
     d="m 145.572,74.31 a 111.607,111.607 0 0 1 7.585,-14.788 c 1.603,-2.623 3.266,-4.835 6.56,-4.982 1.36,-0.059 2.748,0.052 4.01,0.561 3.026,1.217 4.24,4.856 4.669,7.803 1.352,9.296 -1.44,18.643 -4.2,27.626 -1.261,2.481 -1.413,3.607 -4.344,3.987 -3.664,0.478 -7.427,0.719 -11.047,-0.186 a 18.106,18.106 0 0 1 -4.745,-1.928 c -0.617,-0.36 -1.225,-0.77 -1.63,-1.351 -1.373,-1.964 -0.124,-5.622 0.258,-7.775 0.553,-3.097 1.662,-6.076 2.884,-8.968 m 32.872,-25.58 c 0.668,-0.83 1.36,-1.916 2.208,-2.56 1.145,-0.873 2.462,-1.533 3.763,-2.145 0.835,-0.395 1.686,-0.794 2.601,-0.933 -0.453,0.072 -1.181,2.904 -1.305,3.343 a 19.1,19.1 0 0 0 -0.712,4.01 c -0.159,2.449 0.295,4.906 0.907,7.257 1.026,3.946 4.268,7.056 6.858,10.082 1.702,1.99 3.301,4.191 3.858,6.747 0.152,0.696 0.223,1.403 0.338,2.106 0.347,2.11 1.094,4.208 0.832,6.329 -0.625,-1.628 -1.233,-3.26 -1.874,-4.875 -0.533,-1.347 -1.491,-2.56 -2.211,-3.836 -1.25,-2.212 -2.443,-4.93 -4.511,-6.491 -2.216,-1.675 -4.455,-3.255 -6.993,-4.361 -0.585,-0.253 -5.18,-1.897 -5.06,-2.667 0.25,-1.6 1.973,-2.82 3.576,-2.528 -1.384,-1.253 -3.405,-1.766 -5.227,-1.328 0.175,-2.927 1.11,-5.859 2.952,-8.15"
     fill="#fffffe"
     id="path5792"
     style="fill-rule:evenodd" />
  <g
     transform="rotate(10,-8.409,1987.297)"
     id="g5798"
     style="fill:none;fill-rule:evenodd">
    <use
       fill="#000000"
       filter="url(#d)"
       xlink:href="#e"
       id="use5794"
       x="0"
       y="0"
       width="100%"
       height="100%" />
    <use
       fill="#2d68ff"
       xlink:href="#e"
       id="use5796"
       x="0"
       y="0"
       width="100%"
       height="100%" />
  </g>
  <path
     d="m 370.122,45.779 -18.835,-3.321 a 1.0001636,1.0001636 0 0 1 0.347,-1.97 l 18.835,3.321 a 1.0001636,1.0001636 0 0 1 -0.347,1.97 m -0.869,4.924 -18.834,-3.321 a 1.0001636,1.0001636 0 0 1 0.347,-1.97 l 18.835,3.321 a 1.0002505,1.0002505 0 0 1 -0.348,1.97 m -0.868,4.924 -18.834,-3.321 a 1.0001636,1.0001636 0 0 1 0.347,-1.97 l 18.834,3.321 a 1.0001636,1.0001636 0 0 1 -0.347,1.97"
     fill="#ffffff"
     id="path5800"
     style="fill-rule:evenodd" />
  <g
     id="g5810"
     style="fill:none;fill-rule:evenodd">
    <path
       fill="#c5cee5"
       d="M 21.674,77.662 53.087,66.228 44.44,42.47 13.026,53.903 Z"
       id="path5802" />
    <path
       fill="#c5cee5"
       d="M 23.55,33.947 13.026,53.904 44.44,42.47 Z"
       id="path5804" />
    <path
       fill="#8690a8"
       d="M 13.026,53.904 33.056,60.065 44.44,42.47 Z"
       id="path5806" />
    <path
       fill="#b5bed6"
       d="M 52.885,66.192 32.855,60.03 21.47,77.626 Z"
       id="path5808" />
  </g>
</svg>
