<?xml version="1.0" encoding="UTF-8" standalone="no"?>
<svg
   width="404"
   height="466"
   version="1.1"
   id="svg2650"
   sodipodi:docname="problems_2.svg"
   inkscape:version="1.1.2 (b8e25be833, 2022-02-05)"
   inkscape:export-filename="E:\cole\- SOFTWARE\- TFG\tfg\src\img\problems_2.png"
   inkscape:export-xdpi="363.828"
   inkscape:export-ydpi="363.828"
   xmlns:inkscape="http://www.inkscape.org/namespaces/inkscape"
   xmlns:sodipodi="http://sodipodi.sourceforge.net/DTD/sodipodi-0.dtd"
   xmlns:xlink="http://www.w3.org/1999/xlink"
   xmlns="http://www.w3.org/2000/svg"
   xmlns:svg="http://www.w3.org/2000/svg">
  <sodipodi:namedview
     id="namedview2652"
     pagecolor="#505050"
     bordercolor="#eeeeee"
     borderopacity="1"
     inkscape:pageshadow="0"
     inkscape:pageopacity="0"
     inkscape:pagecheckerboard="0"
     showgrid="false"
     inkscape:zoom="1.8997805"
     inkscape:cx="180.0208"
     inkscape:cy="132.64691"
     inkscape:window-width="1600"
     inkscape:window-height="837"
     inkscape:window-x="-1608"
     inkscape:window-y="159"
     inkscape:window-maximized="1"
     inkscape:current-layer="g2562" />
  <defs
     id="defs2522">
    <filter
       x="0"
       y="0"
       width="1"
       height="1.0086018"
       filterUnits="objectBoundingBox"
       id="a">
      <feOffset
         dy="2"
         in="SourceAlpha"
         result="shadowOffsetOuter1"
         id="feOffset2505" />
      <feColorMatrix
         values="0 0 0 0 0.758370925 0 0 0 0 0.779705753 0 0 0 0 0.872156675 0 0 0 1 0"
         in="shadowOffsetOuter1"
         id="feColorMatrix2507" />
    </filter>
    <filter
       x="0"
       y="0"
       width="1.0424508"
       height="1"
       filterUnits="objectBoundingBox"
       id="d">
      <feOffset
         dx="1.5"
         in="SourceAlpha"
         result="shadowOffsetOuter1"
         id="feOffset2510" />
      <feColorMatrix
         values="0 0 0 0 0.128692844 0 0 0 0 0.291267986 0 0 0 0 0.707350128 0 0 0 1 0"
         in="shadowOffsetOuter1"
         id="feColorMatrix2512" />
    </filter>
    <path
       d="M14.215 123.63l169.148-97.438c10.19-5.87 26.71-5.87 36.9 0l169.147 97.439h14.216v14.343c.03 3.87-2.516 7.746-7.642 10.7L220.262 249.897c-10.189 5.871-26.71 5.871-36.899 0L7.642 148.673C2.516 145.72-.031 141.845 0 137.974v-14.343h14.215z"
       id="b" />
    <path
       d="M0 5.513V21.34a5.174 5.174 0 005.175 5.174h7.382l3.18 6.361c.75 1.5 2.89 1.5 3.64 0l3.18-6.361h7.604a5.173 5.173 0 005.174-5.174V5.513A5.174 5.174 0 0030.16.338H5.175A5.175 5.175 0 000 5.513"
       id="e" />
    <linearGradient
       x1="2.1717768"
       y1="181.88154"
       x2="306.3452"
       y2="181.88154"
       id="c"
       gradientTransform="scale(1.3175537,0.75898232)"
       gradientUnits="userSpaceOnUse">
      <stop
         stop-color="#EFF0F7"
         offset="0%"
         id="stop2517" />
      <stop
         stop-color="#CDD1E2"
         offset="100%"
         id="stop2519" />
    </linearGradient>
  </defs>
  <g
     transform="translate(0,181.556)"
     id="g2528"
     style="fill:none;fill-rule:evenodd">
    <use
       fill="#000000"
       filter="url(#a)"
       xlink:href="#b"
       id="use2524"
       x="0"
       y="0"
       width="100%"
       height="100%" />
    <use
       fill="url(#c)"
       xlink:href="#b"
       id="use2526"
       style="fill:url(#c)"
       x="0"
       y="0"
       width="100%"
       height="100%" />
  </g>
  <g
     stroke="#d100ef"
     stroke-linecap="round"
     stroke-width="2.7"
     id="g2534"
     style="fill:none;fill-rule:evenodd;stroke:#3333ff;stroke-opacity:1;stroke-width:2.7;stroke-miterlimit:4;stroke-dasharray:none">
    <path
       d="m 304.455,248.272 42.482,-22.655 a 10.693,10.693 0 0 0 5.591,-9.402 V 187.17 m -62.418,52.802 47.195,-26.195 m -63.093,16.869 c 5.676,-3.132 20.066,-10.888 43.17,-23.27 2.299,-1.272 2.378,-4.554 0.144,-5.937 l -9.789,-6.061"
       id="path2530"
       style="stroke:#3333ff;stroke-opacity:1;stroke-width:2.7;stroke-miterlimit:4;stroke-dasharray:none" />
    <path
       d="m 355.903,184.944 c 0,1.078 -1.512,1.954 -3.375,1.954 -1.865,0 -3.376,-0.876 -3.376,-1.954 0,-1.078 1.511,-1.952 3.376,-1.952 1.863,0 3.375,0.874 3.375,1.952 z m -47.27,8.48 c 0,1.079 -1.51,1.954 -3.375,1.954 -1.865,0 -3.376,-0.875 -3.376,-1.954 0,-1.078 1.511,-1.952 3.376,-1.952 1.864,0 3.375,0.874 3.375,1.952 z m 35.423,18.401 c 0,1.078 -1.512,1.952 -3.376,1.952 -1.864,0 -3.375,-0.874 -3.375,-1.952 0,-1.078 1.51,-1.954 3.375,-1.954 1.864,0 3.376,0.876 3.376,1.954 z"
       fill="#d100ef"
       id="path2532"
       style="stroke:#3333ff;stroke-opacity:1;stroke-width:2.7;stroke-miterlimit:4;stroke-dasharray:none;fill:#3333ff;fill-opacity:1" />
  </g>
  <g
     stroke="#d100ef"
     stroke-linecap="round"
     stroke-width="2.7"
     id="g2542"
     style="fill:none;fill-rule:evenodd;stroke:#3333ff;stroke-opacity:1">
    <path
       d="M 102.957,256.738 62.7,232.924 a 9.473,9.473 0 0 1 -4.646,-8.156 v -25.122 a 8.47,8.47 0 0 0 -4.224,-7.33 l -11.079,-6.41"
       id="path2536"
       style="stroke:#3333ff;stroke-opacity:1" />
    <path
       d="M 118.761,247.593 77.612,224.036 a 8.468,8.468 0 0 1 -4.257,-7.349 v -13.074 m 60.207,35.417 -38.44,-22.739 c -2.888,-1.709 -2.868,-5.904 0.037,-7.585 l 8.8,-5.092"
       id="path2538"
       style="stroke:#3333ff;stroke-opacity:1" />
    <path
       d="m 76.73,201.66 c 0,1.079 -1.51,1.953 -3.375,1.953 -1.863,0 -3.375,-0.874 -3.375,-1.952 0,-1.079 1.512,-1.954 3.375,-1.954 1.865,0 3.376,0.875 3.376,1.954 z M 42.75,183.952 c 0,1.079 -1.51,1.953 -3.375,1.953 -1.864,0 -3.375,-0.874 -3.375,-1.953 0,-1.078 1.51,-1.952 3.375,-1.952 1.865,0 3.376,0.874 3.376,1.952 z m 67.96,17.708 c 0,1.079 -1.51,1.953 -3.375,1.953 -1.863,0 -3.375,-0.874 -3.375,-1.952 0,-1.079 1.512,-1.954 3.375,-1.954 1.865,0 3.376,0.875 3.376,1.954"
       fill="#d100ef"
       id="path2540"
       style="stroke:#3333ff;stroke-opacity:1;fill:#3333ff;fill-opacity:1" />
  </g>
  <g
     stroke="#d100ef"
     stroke-linecap="round"
     stroke-width="2.7"
     id="g2550"
     style="fill:none;fill-rule:evenodd;stroke:#3333ff;stroke-opacity:1">
    <path
       d="m 321.043,370.375 40.257,23.813 a 9.473,9.473 0 0 1 4.646,8.156 v 25.122 a 8.47,8.47 0 0 0 4.224,7.33 l 11.079,6.411"
       id="path2544"
       style="stroke:#3333ff;stroke-opacity:1" />
    <path
       d="m 305.239,379.52 41.149,23.556 a 8.468,8.468 0 0 1 4.257,7.35 v 13.073 m -60.207,-35.416 38.44,22.738 c 2.888,1.709 2.868,5.904 -0.037,7.585 l -8.8,5.092"
       id="path2546"
       style="stroke:#3333ff;stroke-opacity:1" />
    <path
       d="m 347.27,425.452 c 0,-1.079 1.51,-1.953 3.375,-1.953 1.863,0 3.375,0.874 3.375,1.953 0,1.078 -1.512,1.953 -3.375,1.953 -1.865,0 -3.376,-0.875 -3.376,-1.953 z m 33.98,17.708 c 0,-1.078 1.51,-1.952 3.375,-1.952 1.864,0 3.375,0.874 3.375,1.952 0,1.078 -1.51,1.952 -3.375,1.952 -1.865,0 -3.376,-0.874 -3.376,-1.952 z m -67.96,-17.708 c 0,-1.079 1.51,-1.953 3.375,-1.953 1.863,0 3.375,0.874 3.375,1.953 0,1.078 -1.512,1.953 -3.375,1.953 -1.865,0 -3.376,-0.875 -3.376,-1.953 z"
       fill="#d100ef"
       id="path2548"
       style="stroke:#3333ff;stroke-opacity:1;fill:#3333ff;fill-opacity:1" />
  </g>
  <g
     stroke="#d100ef"
     stroke-linecap="round"
     stroke-width="2.7"
     id="g2562"
     style="fill:none;fill-rule:evenodd;stroke:#3333ff;stroke-opacity:1">
    <path
       d="m 86.957,371.47 -42.296,23.965 c -4.57,2.56 -4.62,9.131 -0.09,11.76 l 66.69,38.69"
       id="path2552"
       style="stroke:#3333ff;stroke-opacity:1" />
    <path
       d="M 101.81,379.589 70.328,398.29 c -2.224,1.318 -2.209,4.547 0.028,5.842 l 30.106,17.934"
       id="path2554"
       style="stroke:#3333ff;stroke-opacity:1" />
    <path
       d="m 107.213,424.097 c 0,1.078 -1.51,1.952 -3.375,1.952 -1.865,0 -3.375,-0.874 -3.375,-1.952 0,-1.079 1.51,-1.953 3.375,-1.953 1.865,0 3.375,0.874 3.375,1.953 z m 10.798,23.817 c 0,1.078 -1.51,1.952 -3.375,1.952 -1.865,0 -3.376,-0.874 -3.376,-1.952 0,-1.078 1.511,-1.952 3.376,-1.952 1.864,0 3.375,0.874 3.375,1.952 z m -65.162,13.91 c 0,1.078 -1.511,1.952 -3.376,1.952 -1.863,0 -3.375,-0.874 -3.375,-1.952 0,-1.08 1.512,-1.954 3.375,-1.954 1.865,0 3.376,0.874 3.376,1.954 z"
       fill="#d100ef"
       id="path2556"
       style="stroke:#3333ff;stroke-opacity:1;fill:#3333ff;fill-opacity:1" />
    <path
       d="m 72.106,362 -49.137,26.52 a 9.473,9.473 0 0 0 -4.968,8.46 l 0.328,25.295 a 7.318,7.318 0 0 0 3.597,6.208 l 21.144,12.725 a 12.228,12.228 0 0 1 6.01,10.365 l 0.393,8.092 m -0.566,-32.087 45.531,26.346"
       id="path2558"
       style="stroke:#3333ff;stroke-opacity:1" />
    <path
       d="m 101.189,455.43 c 0,1.08 -1.511,1.953 -3.376,1.953 -1.863,0 -3.375,-0.873 -3.375,-1.952 0,-1.079 1.512,-1.953 3.375,-1.953 1.865,0 3.376,0.874 3.376,1.953 z M 48.907,425.626 c 0,1.078 -1.51,1.952 -3.375,1.952 -1.863,0 -3.376,-0.874 -3.376,-1.952 0,-1.08 1.513,-1.953 3.376,-1.953 1.864,0 3.375,0.873 3.375,1.953 z"
       fill="#d100ef"
       id="path2560"
       style="stroke:#3333ff;stroke-opacity:1;fill:#3333ff;fill-opacity:1" />
  </g>
  <path
     d="M 183.363,420.533 7.642,319.308 c -10.19,-5.87 -10.19,-15.387 0,-21.256 L 183.363,196.827 c 10.19,-5.87 26.71,-5.87 36.9,0 l 175.72,101.225 c 10.19,5.87 10.19,15.386 0,21.256 l -175.72,101.225 c -10.19,5.87 -26.71,5.87 -36.9,0"
     fill="#f4f4f4"
     id="path2564"
     style="fill-rule:evenodd" />
  <path
     d="M 183.363,417.664 7.642,316.44 c -10.19,-5.87 -10.19,-15.386 0,-21.256 L 183.363,193.959 c 10.19,-5.87 26.71,-5.87 36.9,0 l 175.72,101.225 c 10.19,5.87 10.19,15.387 0,21.256 l -175.72,101.225 c -10.19,5.871 -26.71,5.871 -36.9,0"
     fill="#fdfdfd"
     id="path2566"
     style="fill-rule:evenodd" />
  <path
     d="m 281.955,343.796 a 55.74,55.74 0 0 0 7.83,-0.556 c 1.88,-0.265 3.907,-0.715 5.105,-2.187 5.92,-7.285 -19.418,-13.791 -23.204,-15.23 -10.948,-4.151 -20.057,-11.907 -29.974,-18.118 -10.836,-6.797 -22.668,-11.762 -34.2,-17.232 -11.423,-5.419 -22.44,-11.428 -34.078,-16.453 -7.01,-3.027 -14.158,-6.104 -21.753,-7.311 -4.933,-0.783 -9.355,-1.828 -14.051,-1.828 -1.97,0 -3.997,0.184 -6.126,0.65 a 28.945,28.945 0 0 0 -6.74,2.35 c -3.066,1.529 -5.81,3.635 -7.87,6.357 -3.49,4.61 -4.71,11.099 -2.28,16.342 1.881,4.058 5.547,6.793 9.3,9.018 3.447,2.046 6.126,4.76 9.393,7.114 3.086,2.217 6.186,4.435 9.47,6.356 3.074,1.802 6.242,1.956 9.402,3.18 4.259,1.649 8.354,4.5 12.399,6.626 2.155,1.135 4.37,2.278 6.778,2.633 0.451,0.064 0.91,0.098 1.37,0.098 2.005,0 4.027,-0.65 5.336,-2.14 0.988,-1.121 1.769,-2.795 3.267,-2.842 0.022,-0.004 0.043,-0.004 0.06,-0.004 0.627,0 1.211,0.312 1.765,0.612 3.679,2.007 7.354,4.01 11.033,6.014 7.766,4.237 15.584,8.492 23.977,11.287 1.876,0.625 3.812,1.177 5.787,1.177 h 0.155 c 4.46,-0.056 8.98,-1.254 13.51,-1.387 a 84.535,84.535 0 0 1 14.867,0.865 c 8.848,1.31 17.494,4.019 26.424,4.524 1.013,0.055 2.03,0.085 3.048,0.085"
     fill-opacity="0.075"
     fill="#000000"
     id="path2568"
     style="fill-rule:evenodd" />
  <path
     d="m 286.036,336.227 v -4.718 l 8.62,-0.066 v 4.8 h -0.017 c -0.065,0.585 -0.48,1.162 -1.246,1.612 -1.683,0.994 -4.412,1.019 -6.098,0.057 -0.774,-0.442 -1.19,-1.019 -1.25,-1.604 h -0.009 v -0.081"
     fill="#2d68ff"
     id="path2570"
     style="fill-rule:evenodd" />
  <path
     d="m 287.303,334.94 c 1.682,1.104 4.411,1.07 6.093,-0.065 1.682,-1.137 1.678,-2.954 -0.008,-4.057 -1.682,-1.104 -4.41,-1.076 -6.093,0.065 -1.682,1.137 -1.678,2.954 0.008,4.057"
     fill="#386c98"
     id="path2572"
     style="fill-rule:evenodd" />
  <path
     d="m 287.932,332.992 -0.005,-0.082 -10.51,-153.191 5.283,-0.367 10.519,153.321 -0.013,0.005 c -0.017,0.361 -0.252,0.732 -0.704,1.038 -0.994,0.676 -2.667,0.796 -3.734,0.267 -0.495,-0.246 -0.768,-0.582 -0.828,-0.944 h -0.004 l -0.004,-0.047"
     fill="#c2cde9"
     id="path2574"
     style="fill-rule:evenodd" />
  <path
     d="m 276.895,179.854 c 1.164,0.53 2.983,0.41 4.064,-0.262 1.08,-0.676 1.01,-1.649 -0.149,-2.178 -1.164,-0.526 -2.983,-0.41 -4.06,0.267 -1.08,0.671 -1.015,1.648 0.145,2.173"
     fill="#417f42"
     id="path2576"
     style="fill-rule:evenodd" />
  <path
     d="m 262.704,163.715 0.08,0.053 27.562,16.981 -3.375,5.778 -27.693,-17.065 0.009,-0.013 c -0.353,-0.281 -0.56,-0.794 -0.544,-1.492 0.026,-1.527 1.091,-3.356 2.378,-4.088 0.594,-0.338 1.125,-0.378 1.528,-0.18 l 0.004,-0.005 0.051,0.031"
     fill="#2d68ff"
     id="path2578"
     style="fill-rule:evenodd" />
  <path
     d="m 288.238,181.071 c -1.191,0.686 -2.174,2.399 -2.201,3.828 -0.028,1.43 0.916,2.03 2.107,1.344 1.187,-0.686 2.174,-2.4 2.201,-3.829 0.028,-1.43 -0.916,-2.029 -2.107,-1.343"
     fill="#256198"
     id="path2580"
     style="fill-rule:evenodd" />
  <path
     d="m 224.4,92.428 c 2.347,-1.633 4.695,-3.27 7.039,-4.904 l 6.474,1.974 c 2.138,8.196 9.002,14.103 13.938,20.976 1.744,2.43 3.265,5.02 4.764,7.615 a 705.62,705.62 0 0 1 16.21,29.655 9.395,9.395 0 0 1 2.167,2.133 281.448,281.448 0 0 0 8.402,10.89 c 0.84,1.033 1.701,2.085 2.241,3.309 0.797,1.8 0.351,3.813 0.681,5.705 0.339,1.952 0.776,3.882 1.084,5.843 0.073,0.47 0.142,0.974 -0.064,1.4 -0.386,0.789 -1.555,0.87 -2.288,0.388 -0.728,-0.487 -1.122,-1.331 -1.482,-2.137 0.257,3.658 0.51,7.317 0.767,10.971 0.042,0.63 -0.009,1.422 -0.592,1.659 -0.698,0.28 -1.315,-0.539 -1.61,-1.237 a 40.373,40.373 0 0 1 -2.254,-6.881 c -0.416,-1.806 -0.72,-3.676 -1.633,-5.283 -0.908,-1.608 -2.613,-2.926 -4.447,-2.75 0.51,3.917 1.77,7.73 3.693,11.178 -1.478,0.69 -3.235,-0.069 -4.486,-1.116 -3.068,-2.568 -4.405,-6.675 -5.069,-10.635 -0.664,-3.964 -0.81,-8.053 -2.16,-11.837 -0.415,-1.163 -0.933,-2.288 -1.413,-3.426 -1.525,-2.292 -3.393,-5.464 -3.856,-6.067 a 110.21,110.21 0 0 0 -6.924,-8.235 c -5.09,-5.49 -10.519,-10.678 -15.682,-16.129 -6.932,-7.308 -7.986,-17.417 -14.482,-25.174 -0.994,-1.189 -2.125,-2.512 -2.018,-4.059 0.116,-1.68 1.624,-2.865 3,-3.826"
     fill="#ebcbb7"
     id="path2582"
     style="fill-rule:evenodd" />
  <path
     d="m 262.434,135.418 c 0.759,-0.78 2.452,-0.676 3.189,0.016 1.258,1.182 2.079,2.708 2.807,4.238 0.478,1.012 1.868,3.069 1.802,4.172 -0.061,1.057 -1.64,2.085 -2.509,2.7 a 14.865,14.865 0 0 1 -4.618,2.172 c -1.513,0.41 -3.535,1.016 -4.706,-0.282 -0.404,-0.448 -0.693,-0.983 -1.057,-1.464 -0.5,-0.667 -1.14,-1.223 -1.68,-1.862 -0.654,-0.767 -0.776,-1.376 -0.991,-2.305 -0.084,-0.353 -0.303,-0.61 -0.22,-0.991 1.746,-0.17 3.145,-1.393 4.338,-2.53 1.294,-1.223 2.408,-2.591 3.645,-3.864"
     fill="#c7c6c1"
     id="path2584"
     style="fill-rule:evenodd" />
  <path
     d="m 210.042,64.74 c 0.104,-1.383 0.2,-3.273 0.81,-4.543 0.55,-1.15 2.316,-1.8 3.446,-2.217 0.784,-0.289 1.606,-0.508 2.442,-0.569 2.827,-0.21 5.554,1.387 7.355,3.561 1.857,2.239 2.476,4.852 3.702,7.393 1.281,2.673 2.597,5.369 3.848,8.073 1.186,2.561 2.373,5.123 3.555,7.68 5.36,11.574 12.658,21.606 20.42,31.69 2.533,3.293 4.906,6.716 7.014,10.294 1.035,1.752 1.87,3.646 2.952,5.36 1.044,1.649 1.377,3.668 1.775,5.584 -2.775,-0.775 -6.07,-0.525 -8.09,1.516 -0.685,0.689 -1.183,1.537 -1.655,2.385 a 82.531,82.531 0 0 0 -2.082,3.97 c -1.173,-0.965 -2.515,-1.688 -3.719,-2.644 a 112.172,112.172 0 0 1 -5.766,-4.744 c -0.931,-0.827 -1.823,-1.697 -2.758,-2.52 -0.727,-0.645 -1.585,-1.015 -2.308,-1.674 -3.545,-3.23 -7.056,-6.751 -9.528,-10.88 -2.187,-3.647 -3.49,-7.737 -5.304,-11.578 -1.861,-3.94 -4.25,-7.59 -6.766,-11.138 -2.282,-3.216 -3.827,-6.544 -5.338,-10.204 -3.221,-7.815 -4.62,-16.37 -4.005,-24.796"
     fill="#f0f0f2"
     id="path2586"
     style="fill-rule:evenodd" />
  <path
     d="m 152.695,292.251 c 0.726,-2.433 3.138,-4.168 3.43,-6.696 0.176,-1.565 -0.515,-3.122 -0.376,-4.692 0.232,-2.676 3.294,-4.653 5.736,-3.7 l 4.757,1.354 a 58.045,58.045 0 0 0 3.707,25.668 c 1.076,2.767 2.367,5.456 3.155,8.318 0.506,1.843 0.797,3.743 0.873,5.655 0.03,0.816 0.017,1.657 -0.295,2.403 -0.578,1.383 -2.088,2.155 -3.547,2.26 -1.46,0.099 -2.897,-0.343 -4.298,-0.786 -3.264,-1.028 -6.731,-2.19 -8.86,-4.93 -1.933,-2.481 -2.413,-5.799 -2.822,-8.943 -0.502,-3.833 -1,-7.663 -1.502,-11.496 -0.194,-1.47 -0.38,-2.997 0.042,-4.415 m 41.45,19.117 a 6.1,6.1 0 0 1 0.305,-1.325 c 0.27,-0.77 0.678,-1.49 0.957,-2.256 1.492,-4.123 -0.762,-9.477 6.125,-9.342 2.249,0.047 4.437,1.278 5.594,3.153 0.291,0.466 0.518,0.965 0.64,1.499 0.134,0.588 0.134,1.202 0.23,1.799 0.509,3.22 3.236,5.066 5.403,7.191 2.527,2.485 5.033,4.78 8.139,6.59 2.65,1.541 5.646,2.862 7.295,5.402 0.975,1.507 1.175,3.733 1.18,5.477 0,1.553 -0.21,3.153 -1.015,4.491 -1.357,2.265 -4.271,3.382 -6.951,3.09 -2.675,-0.292 -5.094,-1.803 -6.917,-3.738 -2.423,-2.577 -4.141,-5.701 -6.495,-8.342 -3.467,-3.89 -9.574,-4.69 -12.924,-8.538 -1.222,-1.41 -1.783,-3.323 -1.566,-5.151"
     fill="#fffffe"
     id="path2588"
     style="fill-rule:evenodd" />
  <path
     d="m 185.064,182.93 c 1.13,-2.604 3.27,-4.622 5.462,-6.433 a 72.575,72.575 0 0 1 19.4,-11.493 l 8.85,5.744 c 2.838,16.88 0.09,34.164 -3.275,50.945 -1.126,5.64 -2.33,11.286 -2.667,17.026 -0.38,6.535 0.367,13.084 0.583,19.629 0.25,7.736 -0.242,15.476 -1.105,23.161 -0.47,4.174 -0.703,8.373 -1.311,12.53 -0.483,3.313 -0.626,6.725 -1.778,9.9 -0.509,1.399 -1.22,2.909 -2.631,3.572 -2.377,1.123 -6.29,1.26 -8.767,0.494 -3.291,-1.02 -4.08,-5.795 -4.952,-8.558 -1.372,-4.315 -2.2,-8.795 -2.68,-13.29 -0.75,-6.98 -0.673,-14.01 -0.6,-21.028 0.074,-6.777 -1.272,-13.279 -2.415,-19.952 a 119.49,119.49 0 0 1 -1.722,-20.408 174.305,174.305 0 0 0 -0.931,-30.377 c -0.453,-3.847 -1.01,-7.909 0.539,-11.463"
     fill="#232422"
     id="path2590"
     style="fill-rule:evenodd" />
  <path
     d="m 146.285,246.788 c 0.955,-4.527 2.79,-8.86 3.415,-13.438 0.836,-6.127 -0.534,-12.315 -1.685,-18.395 a 266.941,266.941 0 0 1 -4.085,-32.013 c -0.184,-2.797 -0.293,-5.753 1.033,-8.231 l 0.828,-0.943 c 0.73,-0.383 1.61,0.018 2.342,0.396 11.312,5.822 25.116,6.756 37.133,2.517 l 4.439,10.327 c 0.578,6.498 -1.887,12.874 -4.772,18.752 -2.88,5.878 -6.26,11.622 -7.718,17.986 -0.933,4.062 -1.055,8.27 -2.075,12.31 -0.976,3.86 -2.802,7.415 -4.251,11.106 -1.594,4.05 -1.957,7.066 -2.018,11.407 -0.123,9.006 -0.653,18.111 -3.196,26.816 -0.889,3.029 -1.173,5.142 -4.549,6.278 -2.793,0.938 -5.831,1.38 -8.707,0.735 -3.13,-0.7 -4.006,-4.07 -4.4,-6.78 -0.534,-3.71 -1.502,-7.17 -2.106,-10.891 -1.493,-9.239 -1.558,-18.757 0.372,-27.939"
     fill="#141413"
     id="path2592"
     style="fill-rule:evenodd" />
  <path
     d="m 151.107,181.958 2.134,-8.909 0.276,-0.534 0.548,-0.079 15.69,1.406 c 8.14,0.727 16.31,1.459 24.475,1.064 8.162,-0.394 16.37,-1.953 23.717,-5.597 l 2.95,1.322 c 0.154,1.625 0.305,3.246 0.46,4.867 0.04,0.446 0.083,0.91 -0.086,1.322 -0.18,0.443 -0.569,0.754 -0.948,1.038 -5.678,4.27 -12.383,6.842 -18.996,9.365 -1.587,0.604 -3.178,1.213 -4.808,1.686 -2.862,0.837 -5.829,1.262 -8.795,1.538 a 90.667,90.667 0 0 1 -15.228,0.122 c -7.122,-0.539 -14.417,-2.023 -20.285,-6.158 -0.548,-0.386 -1.125,-0.867 -1.207,-1.537 l 0.103,-0.916"
     fill="#6f2478"
     id="path2594"
     style="fill-rule:evenodd" />
  <path
     d="m 145.336,65.021 c 0.25,-0.792 1.078,-1.227 1.833,-1.585 3.951,-1.87 7.907,-3.74 11.862,-5.61 5.651,-2.67 11.367,-5.367 17.483,-6.668 7.666,-1.629 15.676,-0.99 23.311,0.775 5.435,1.258 10.801,2.969 15.986,5.037 1.294,0.517 2.597,1.08 3.671,1.973 2.968,2.46 3.248,7.242 3.313,10.796 0.108,5.562 -0.155,10.912 -0.85,16.435 -1.41,11.193 -2.213,22.454 -2.52,33.724 -0.292,10.99 1.386,21.636 2.762,32.522 0.323,2.564 0.65,5.135 0.642,7.72 a 39.933,39.933 0 0 1 -0.763,7.583 c -0.388,1.96 -2.226,3.77 -3.555,5.217 a 33.28,33.28 0 0 1 -10.387,7.617 c -2.596,1.214 -5.34,2.08 -8.083,2.92 -6.156,1.883 -12.393,3.645 -18.799,4.253 a 53.25,53.25 0 0 1 -20.08,-1.96 c -2.152,-0.638 -4.322,-1.448 -6.009,-2.934 -0.936,-0.823 -1.7,-1.887 -2.117,-3.068 -0.45,-1.27 -0.147,-2.365 -0.242,-3.627 -0.6,-7.682 1.165,-15.273 1.346,-22.932 0.069,-3.016 0.759,-5.816 0.824,-8.823 0.09,-4.106 0.215,-8.216 0.466,-12.313 0.556,-9.09 0.142,-18.206 -0.277,-27.3 -0.31,-6.842 -0.63,-13.713 -1.984,-20.425 -0.867,-4.287 -2.178,-8.543 -4.507,-12.244 -1.126,-1.788 -2.494,-3.464 -3.184,-5.458 -0.181,-0.526 -0.31,-1.095 -0.142,-1.625"
     fill="#aa2aba"
     id="path2596"
     style="fill-rule:evenodd" />
  <g
     fill="#ebcbb7"
     id="g2602"
     style="fill-rule:evenodd">
    <path
       d="m 192.893,47.95 4.976,1.053 c -0.549,2.882 0.022,5.802 0.718,8.606 0.318,1.274 0.553,2.652 1.128,3.826 0.596,1.222 1.175,2.387 1.432,3.752 0.248,1.313 0.183,2.726 -0.444,3.909 -0.805,1.52 -2.142,2.197 -3.239,3.41 -1.093,1.204 -1.842,3.18 -2.52,4.645 -1.498,3.232 -2.53,6.78 -2.177,10.373 -0.083,-0.828 -1.18,-2.089 -1.637,-2.773 a 29.72,29.72 0 0 0 -2.155,-2.838 29.873,29.873 0 0 0 -5.098,-4.723 c -0.806,-0.59 -1.707,-1.326 -2.625,-1.716 -1.159,-0.494 -2.443,-0.724 -3.614,-1.23 -2.342,-1.015 -4.523,-2.38 -6.565,-3.905 -2.843,-2.132 -4.327,-5.095 -5.29,-8.48 -0.213,-0.758 -0.391,-1.533 -0.413,-2.322 -0.013,-0.689 0.091,-1.374 0.218,-2.05 0.37,-1.975 1.066,-4.099 2.782,-5.16 0.9,-0.56 1.98,-0.75 2.916,-1.244 0.858,-0.45 1.276,-1.087 1.555,-1.971 0.278,-0.88 0.705,-1.798 0.918,-2.739 0.488,-2.127 0.697,-4.588 0.727,-6.79 0.065,-5.095 -1.123,-10.104 -1.293,-15.191 a 100.489,100.489 0 0 0 4.092,7.713 c 1.955,3.327 3.462,6.712 6.317,9.38 a 39.863,39.863 0 0 0 4.485,3.619 c 1.314,0.91 3.217,2.513 4.806,2.847"
       id="path2598" />
    <path
       d="m 171.027,23.234 c -0.309,-2.42 -0.222,-4.897 -0.422,-7.322 -0.244,-2.983 -0.035,-6.139 1.672,-8.71 0.989,-1.492 2.4,-2.657 3.832,-3.74 4.877,-3.672 10.495,-4.093 16.364,-2.79 3.832,0.855 7.569,2.523 10.233,5.442 2.339,2.567 4.08,6.127 4.216,9.579 0.413,10.615 -0.37,21.367 -2.548,31.754 -0.335,1.612 -0.736,3.336 -1.964,4.445 -1.842,1.664 -4.72,1.286 -7.141,0.688 -3.453,-0.855 -8.047,-1.973 -10.725,-4.41 -1.106,-1.011 -1.916,-2.292 -2.709,-3.552 -1.911,-3.035 -3.819,-6.066 -5.726,-9.101 -0.252,-0.396 -0.505,-0.8 -0.87,-1.097 -0.724,-0.589 -1.734,-0.653 -2.635,-0.907 -2.43,-0.683 -4.28,-3.022 -4.359,-5.516 -0.03,-0.864 0.161,-1.788 0.762,-2.42 0.597,-0.636 1.68,-0.869 2.378,-0.344 a 18.494,18.494 0 0 1 -0.358,-2"
       id="path2600" />
  </g>
  <path
     d="m 162.504,63.547 a 2.47,2.47 0 0 1 1.068,-0.704 c -1.758,-0.426 -3.763,-0.104 -5.386,0.647 a 34.662,34.662 0 0 1 2.787,-5.71 c 0.668,-1.099 1.406,-2.172 2.356,-3.04 2.79,-2.562 5.933,-4.729 8.992,-6.996 l 0.973,-0.395 c -1.58,6.006 -3.203,11.686 0.108,17.479 2.708,4.742 7.855,7.456 12.33,10.252 0.86,0.534 1.71,1.099 2.417,1.824 1.107,1.138 1.793,2.61 2.387,4.078 1.042,2.557 1.88,5.228 2.127,7.977 a 108.26,108.26 0 0 0 -8.094,-7.938 c -2.89,-2.55 -5.985,-4.994 -9.57,-6.48 -3.806,-1.576 -7.794,-2.718 -11.8,-3.682 -0.968,-0.23 -2.122,-0.417 -2.856,0.257 0.222,-0.205 0.148,-2.193 0.226,-2.597 0.178,-0.92 0.456,-1.815 0.829,-2.67 0.377,-0.874 0.573,-1.699 1.106,-2.302"
     fill="#f0f0f2"
     id="path2604"
     style="fill-rule:evenodd" />
  <path
     d="m 191.253,79.261 c 0.133,-2.163 0.768,-4.317 2.15,-6.032 0.874,-1.09 2.015,-1.96 3.108,-2.86 1.088,-0.9 2.158,-1.872 2.833,-3.084 1.435,-2.581 -0.27,-4.85 -0.861,-7.401 a 19.203,19.203 0 0 1 -0.125,-8.094 l 0.067,-0.44 0.235,-0.16 c 0.404,-1.9 1.68,-0.511 2.887,-0.02 a 19.48,19.48 0 0 1 4.819,2.82 c 2.828,2.278 4.938,5.357 5.995,8.707 l 0.413,1.901 c -2.47,-0.773 -5.347,-0.207 -7.292,1.428 2.22,0.794 4.072,2.476 5.01,4.55 -1.253,-0.334 -2.599,-0.156 -3.86,0.148 -3.913,0.946 -7.492,3.117 -10.046,6.095 -2.57,2.996 -3.996,6.878 -4.423,10.705 -0.56,-2.387 -0.937,-4.93 -0.937,-7.38 l 0.027,-0.883"
     fill="#f0f0f2"
     id="path2606"
     style="fill-rule:evenodd" />
  <path
     d="m 171.145,14.495 c 0.102,-2.341 0.489,-4.674 1.56,-6.767 3.865,-7.586 13.038,-8.488 20.363,-7.29 3.173,0.519 6.3,1.67 8.815,3.724 2.315,1.892 4.045,4.53 4.882,7.447 0.233,0.81 0.395,1.696 0.114,2.49 -1.138,-3.981 -3.726,-7.509 -7.137,-9.737 -4.78,-3.122 -10.566,-3.335 -15.809,-1.482 -0.726,0.257 -1.461,0.519 -2.094,0.972 -0.54,0.388 -0.982,0.907 -1.377,1.452 -0.582,0.807 -1.07,1.7 -1.342,2.664 -0.48,1.683 -0.102,3.388 -0.204,5.097 -0.123,1.962 -0.179,3.937 0.08,5.895 0.137,1.033 0.362,2.058 0.49,3.091 0.152,1.304 0.152,2.625 0.314,3.929 0.085,0.684 0.212,1.365 0.195,2.054 a 4.865,4.865 0 0 1 -0.786,2.537 c -0.297,0.454 -0.705,0.872 -1.228,0.972 -0.88,0.166 -1.631,-0.61 -2.184,-1.334 -1.147,-1.513 -2.353,-3.16 -3.267,-4.835 -1.312,-2.411 -1.325,-5.529 -1.397,-8.223 -0.026,-0.881 -0.026,-1.77 0.012,-2.656"
     fill="#2d2d4f"
     id="path2608"
     style="fill-rule:evenodd" />
  <path
     d="m 174.003,24.07 c 0.077,-0.886 0.47,-1.772 1.207,-2.254 1.548,-1.003 3.46,0.774 3.967,2.181 0.887,2.449 0.102,5.207 0.614,7.763 0.286,1.433 0.968,2.745 1.638,4.036 1.966,3.766 4.133,7.75 7.86,9.743 2.32,1.243 5.034,1.57 7.657,1.38 2.845,-0.206 6.845,-0.43 8.645,-2.985 -0.486,2.181 -0.976,4.367 -1.655,6.497 -0.281,0.887 -0.546,1.782 -0.836,2.66 a 175.087,175.087 0 0 0 -1.693,5.49 c -0.35,1.192 -1.122,2.858 -1.89,3.826 -0.938,1.187 -3.04,0.706 -4.15,0.047 -4.107,-2.444 -7.263,-5.809 -10.061,-9.647 -3.37,-4.626 -5.882,-9.446 -7.541,-14.94 -0.725,-2.402 -1.45,-4.807 -2.18,-7.209 l -1.062,-3.528 c -0.281,-0.92 -0.563,-1.863 -0.533,-2.823 l 0.013,-0.237"
     fill="#2d2d4f"
     id="path2610"
     style="fill-rule:evenodd" />
  <g
     fill="#232422"
     id="g2616"
     style="fill-rule:evenodd">
    <path
       d="m 187.9,24.891 c 1.151,-1.366 3.172,-1.662 4.99,-1.64 a 22.56,22.56 0 0 1 4.67,0.54 c 1.019,0.23 2.03,0.525 3.075,0.555 1.39,0.034 2.736,-0.41 4.095,-0.698 1.59,-0.338 6.44,-1.76 6.592,0.846 0.087,1.442 -0.192,2.783 -0.689,4.127 -0.457,1.248 -0.945,2.542 -1.943,3.443 -2.087,1.886 -5.302,0.16 -6.321,-2.043 -0.431,-0.93 -0.118,-2.152 -0.61,-2.977 -0.244,-0.41 -0.84,-0.66 -1.25,-0.398 l -0.45,0.639 c -0.509,1.146 -0.87,2.626 -1.646,3.629 -1.607,2.495 -4.827,3.907 -7.815,3.43 -1.037,-0.17 -2.083,-0.576 -2.723,-1.38 -0.684,-0.858 -0.797,-2.008 -0.88,-3.09 -0.14,-1.726 -0.218,-3.642 0.906,-4.983"
       id="path2612" />
    <path
       d="m 168.262,25.737 c 0.198,-1.11 1.239,-1.991 2.412,-2.399 1.178,-0.411 2.479,-0.42 3.735,-0.345 5.155,0.29 10.353,1.819 15.38,0.764 l -0.18,0.925 a 2.366,2.366 0 0 0 -0.51,1.529 c -3.537,-0.4 -7.096,-0.65 -10.66,-0.753 -2.86,-0.078 -5.924,-0.011 -8.27,1.45 l -0.747,0.345 c -0.791,0.106 -1.288,-0.811 -1.16,-1.516"
       id="path2614" />
  </g>
  <path
     d="m 195.184,41.398 c 1.618,-0.487 3.037,0.525 4.515,0.24 1.3,-0.249 2.257,-1.355 3.652,-1.32 1.407,0.034 2.79,0.74 3.677,1.88 a 7.345,7.345 0 0 0 -3.615,0.577 c -0.859,0.37 -1.696,0.917 -2.625,0.9 -0.38,-0.009 -0.76,-0.112 -1.139,-0.082 l -0.924,0.211 c -1.011,0.232 -2.064,-0.004 -3.095,-0.112 -1.032,-0.108 -2.17,-0.052 -2.967,0.646 0.086,-1.4 1.234,-2.548 2.521,-2.94"
     fill="#2d2d4f"
     id="path2618"
     style="fill-rule:evenodd" />
  <path
     d="m 135.98,104.966 c 0.385,-0.227 0.862,-0.227 1.317,-0.223 l 6.453,0.077 c 2.449,0.026 5.256,0.218 6.743,2.125 2.142,2.747 3.06,7.795 2.82,11.099 -0.385,5.206 0.345,10.635 -0.6,15.7 -1.32,7.096 -0.008,14.847 0.154,22.025 0.162,7.28 0.148,14.565 0.13,21.845 l 0.176,0.338 c 1.526,3.463 3.607,6.604 5.303,9.98 a 83.689,83.689 0 0 1 5.086,12.538 c 0.236,0.75 0.463,1.534 0.332,2.306 -0.131,0.77 -0.73,1.525 -1.526,1.58 -2.392,0.168 -2.366,-2.682 -2.55,-4.156 -0.292,-2.33 -0.817,-4.692 -2.233,-6.637 -0.307,1.465 -0.202,2.982 -0.057,4.473 0.253,2.678 1.46,6.02 1.233,8.652 -0.201,2.37 -1.557,2.04 -3.581,1.054 0.161,0.823 -0.324,1.637 -1.242,1.731 -0.853,0.09 -1.653,-0.407 -2.278,-0.985 -0.625,-0.575 -1.163,-1.26 -1.898,-1.693 -0.708,-0.416 -1.556,-0.57 -2.273,-0.973 -0.717,-0.403 -1.32,-1.23 -1.032,-1.992 -1.382,0.441 -2.497,-1.183 -2.851,-2.563 -1.334,-5.24 0.284,-10.837 -0.77,-16.137 -0.2,-1.02 -0.485,-2.091 -0.668,-3.15 -0.709,-1.277 -1.085,-2.823 -1.365,-4.268 l -1.967,-10.215 c -0.783,-4.067 -1.566,-8.142 -1.98,-12.264 -0.32,-3.2 -0.416,-6.419 -0.512,-9.637 l -1.137,-38.342 c -0.027,-0.844 0.035,-1.851 0.774,-2.288"
     fill="#ebcbb7"
     id="path2620"
     style="fill-rule:evenodd" />
  <path
     d="m 139.786,169.773 c 0.407,-0.2 1.15,-0.273 1.495,-0.38 a 133.97,133.97 0 0 1 2.24,-0.643 c 1.172,-0.327 2.362,-0.617 3.526,-0.979 1.194,-0.375 2.385,-0.754 3.57,-1.146 0.713,-0.234 0.828,-0.29 1.452,0.081 0.442,0.26 0.902,0.516 1.296,0.848 0.456,0.383 0.5,1.043 0.51,1.627 a 59.968,59.968 0 0 1 -0.519,8.449 c -0.159,1.217 -3.088,2.227 -4.203,2.572 -2.2,0.685 -6.314,1.196 -7.863,-1.035 -0.553,-0.796 -0.717,-1.776 -0.871,-2.721 -0.301,-1.887 -0.607,-3.773 -0.907,-5.66 l 0.022,-0.784 0.252,-0.23"
     fill="#c7c6c1"
     id="path2622"
     style="fill-rule:evenodd" />
  <path
     d="m 135.605,104.449 c 0.218,-2.872 0.453,-5.73 0.72,-8.577 0.329,-3.511 0.653,-7.023 0.982,-10.531 0.257,-2.746 0.515,-5.501 1.142,-8.192 0.857,-3.676 1.977,-8.239 4.798,-10.96 1.066,-1.029 2.541,-1.868 4.007,-1.556 1.63,0.341 2.617,1.933 3.315,3.408 2.652,5.605 4.132,12.04 5.096,18.109 a 87.734,87.734 0 0 1 1.084,14.186 c -0.031,5.713 -1.262,10.821 -1.515,16.444 a 138.041,138.041 0 0 0 0.648,20.773 c 0.92,8.611 0.276,16.586 -0.582,25.25 -0.19,1.928 -0.43,3.831 -0.853,5.726 -0.382,1.713 -0.035,2.859 -1.772,3.957 -1.027,0.653 -2.084,1.267 -3.208,1.73 -1.36,0.558 -2.835,0.895 -4.31,0.822 -2.137,-0.108 -5.189,-1.211 -5.673,-3.469 -0.587,-2.733 -0.72,-5.717 -1.16,-8.503 -1.075,-6.747 -2.146,-13.498 -3.221,-20.245 -0.675,-4.252 -1.35,-8.525 -1.337,-12.824 0.009,-2.227 0.2,-4.446 0.39,-6.665 0.547,-6.288 0.965,-12.603 1.45,-18.883"
     fill="#f0f0f2"
     id="path2624"
     style="fill-rule:evenodd" />
  <path
     d="m 261.914,150.43 0.14,-0.346 c 0.448,-0.982 1.314,-1.418 2.193,-2.017 0.896,-0.611 1.81,-1.198 2.78,-1.703 1.89,-0.986 4.039,-1.683 6.232,-1.373 1.267,0.175 2.511,1.145 2.703,2.383 0.078,0.497 -0.087,1.015 -0.505,1.337 -0.518,0.399 -0.992,0.326 -1.602,0.208 -0.578,-0.11 -1.166,-0.208 -1.758,-0.22 -1.427,-0.033 -2.833,0.407 -4.069,1.075 -2.014,1.092 -3.803,2.665 -4.317,4.869 l -0.226,0.318 -0.304,-0.123 c -0.601,-0.5 -1.106,-1.12 -1.384,-1.825 a 2.707,2.707 0 0 1 -0.17,-1.218 c 0.048,-0.46 0.135,-0.925 0.287,-1.365"
     fill="#232422"
     id="path2626"
     style="fill-rule:evenodd" />
  <g
     id="g2636"
     style="fill:none;fill-rule:evenodd">
    <g
       transform="rotate(10,-179.86,2002.297)"
       id="g2632">
      <use
         fill="#000000"
         filter="url(#d)"
         xlink:href="#e"
         id="use2628"
         x="0"
         y="0"
         width="100%"
         height="100%" />
      <use
         fill="#2d68ff"
         xlink:href="#e"
         id="use2630"
         x="0"
         y="0"
         width="100%"
         height="100%" />
    </g>
    <path
       d="m 370.122,75.779 -18.835,-3.321 a 1.0001636,1.0001636 0 0 1 0.347,-1.97 l 18.835,3.321 a 1.0001636,1.0001636 0 0 1 -0.347,1.97 m -0.869,4.924 -18.834,-3.321 a 1.0001636,1.0001636 0 0 1 0.347,-1.97 l 18.835,3.321 a 1.0002505,1.0002505 0 0 1 -0.348,1.97 m -0.868,4.924 -18.834,-3.321 a 1.0001636,1.0001636 0 0 1 0.347,-1.97 l 18.834,3.321 a 1.0001636,1.0001636 0 0 1 -0.347,1.97"
       fill="#ffffff"
       id="path2634" />
  </g>
  <g
     id="g2646"
     style="fill:none;fill-rule:evenodd">
    <path
       fill="#c5cee5"
       d="M 21.674,107.662 53.087,96.228 44.44,72.47 13.026,83.903 Z"
       id="path2638" />
    <path
       fill="#c5cee5"
       d="M 23.55,63.947 13.026,83.904 44.44,72.47 Z"
       id="path2640" />
    <path
       fill="#8690a8"
       d="M 13.026,83.904 33.056,90.065 44.44,72.47 Z"
       id="path2642" />
    <path
       fill="#b5bed6"
       d="M 52.885,96.192 32.855,90.03 21.471,107.626 Z"
       id="path2644" />
  </g>
</svg>
