<?xml version="1.0" encoding="utf-8"?>
<!-- Generator: Adobe Illustrator 24.2.3, SVG Export Plug-In . SVG Version: 6.00 Build 0)  -->
<svg version="1.1" id="Layer_1" xmlns="http://www.w3.org/2000/svg" xmlns:xlink="http://www.w3.org/1999/xlink" x="0px" y="0px"
	 viewBox="0 0 1133.9 850.4" style="enable-background:new 0 0 1133.9 850.4;" xml:space="preserve">
<style type="text/css">
	.st0{clip-path:url(#SVGID_2_);}
	.st1{display:none;fill:#D6D8D8;}
	.st2{fill:#EAEAEA;}
	.st3{fill:#9A9A9A;}
	.st4{fill:#737373;}
	.st5{fill:#848484;}
	.st6{opacity:0.2;fill:#160B01;}
	.st7{fill:#282827;}
	.st8{fill:#231F20;}
	.st9{fill:#191918;}
	.st10{fill:#383736;}
	.st11{fill:#EDEDED;}
	.st12{fill:#E8C5AC;}
	.st13{fill:#160B01;}
	.st14{fill:#FFFFFF;}
	.st15{fill:#7A797A;}
	.st16{fill:#422D0D;}
	.st17{fill:#FFE8D9;}
	.st18{fill:#FFE1CC;}
	.st19{fill:#775319;}
</style>
<g>
	<defs>
		<rect id="SVGID_1_" x="0" width="1133.9" height="850.4"/>
	</defs>
	<clipPath id="SVGID_2_">
		<use xlink:href="#SVGID_1_"  style="overflow:visible;"/>
	</clipPath>
	<g class="st0">
		<path class="st1" d="M302.5-396.3c-34.9-20.3-76.5-0.2-108.9,24l0,0l-1223.9,761.7l1657.4,921l1246-804.7l0,0
			c0-0.1,5.1-3.6,5.2-3.7l0,0c47.1-33.4,81-31.3,101.9-19.1L302.5-396.3z"/>
		<g>
			<path class="st2" d="M651-233.1c12.6,6.8,13.1,18.5,1,26.1l-126.7,79.2c-12.1,7.6-32.2,8.2-44.9,1.4l-132.4-70.8
				c-12.6-6.7-13.1-18.4-1-25.9l126.7-79.2c12.1-7.6,32.2-8.3,44.9-1.5L651-233.1z"/>
		</g>
		<g>
			<path class="st2" d="M-217.7,310c12.6,6.8,13.1,18.4,1,26l-126.7,79.3c-12.1,7.5-32.3,8.2-45,1.4l-132.4-70.8
				c-12.6-6.8-13-18.5-0.9-26l126.7-79.2c12.1-7.6,32.1-8.2,44.8-1.5L-217.7,310z"/>
		</g>
		<path class="st3" d="M480.5-126.5l-132.4-70.8c-6.3-3.4-9.6-8-9.8-12.7l0.7,25.8c0.2,4.7,3.5,9.4,9.8,12.8l132.4,70.8L480.5-126.5
			z"/>
		<path class="st4" d="M660.8-220.3c0.1,4.6-2.8,9.4-8.8,13.2l-126.7,79.2c-12.1,7.6-32.2,8.2-44.9,1.4l0.8,25.9
			c12.6,6.8,32.7,6.1,44.9-1.4l126.6-79.2c6.1-3.8,8.9-8.5,8.8-13.2L660.8-220.3z"/>
		<g>
			<path class="st2" d="M882.1-109.5c12.6,6.8,13,18.4,0.9,26L756.3-4.3c-12.1,7.6-32.1,8.2-44.8,1.5L579.1-73.7
				c-12.7-6.9-13.1-18.4-1-26l126.7-79.2c12.1-7.6,32.2-8.3,44.9-1.4L882.1-109.5z"/>
		</g>
		<path class="st4" d="M439.1-81.7c0.1,4.7-2.8,9.4-8.8,13.2L303.7-4.9c-12.1,7.6-32.2,8.2-44.9,1.4L126.4-58.7
			c-6.4-3.5-9.7-8.1-9.8-12.8l0.8,25.9c0.1,4.7,3.4,9.3,9.8,12.8L259.5,38c12.7,6.7,32.8,6.1,44.9-1.4l126.7-79.2
			c6-3.7,8.9-8.5,8.7-13.2L439.1-81.7z"/>
		<path class="st3" d="M34.7,152.2L-97.7,81.4c-6.3-3.4-9.6-8-9.7-12.7l0.8,25.8c0.1,4.7,3.4,9.4,9.7,12.8l132.4,70.8L34.7,152.2z"
			/>
		<path class="st4" d="M206.4,8.4c0.1,4.7-2.7,9.4-8.8,13.2L70.9,100.8c-12.1,7.5-32.3,8.2-45,1.5L-59.8,57l8.8,74.7l86.5,46.3
			c12.7,6.8,32.8,6.1,45-1.5l126.7-79.2c6-3.8,8.9-8.5,8.7-13.1L206.4,8.4z"/>
		<path class="st3" d="M-178.7,285.6l-132.4-70.8c-6.4-3.4-9.7-8-9.8-12.8l0.8,25.8c0.2,4.7,3.4,9.4,9.8,12.8l132.4,70.8
			L-178.7,285.6z"/>
		<path class="st4" d="M1.6,191.9c0.2,4.7-2.8,9.4-8.7,13.2l-126.7,79.2c-12.1,7.6-32.2,8.2-44.9,1.4l0.8,25.9
			c12.6,6.7,32.8,6.2,44.9-1.4l126.7-79.2c6-3.7,8.9-8.5,8.7-13.1L1.6,191.9z"/>
		<path class="st3" d="M-401.5,407.6l-139.6-74.7c-6.7-3.6-10.1-8.5-10.3-13.5l0.8,27.3c0.2,5,3.6,9.9,10.3,13.4l139.6,74.7
			L-401.5,407.6z"/>
		<path class="st4" d="M-207.9,322.8c0.1,4.6-2.8,9.4-8.8,13.1l-126.7,79.3c-12.1,7.5-32.3,8.2-45,1.4l0.8,25.9
			c12.7,6.8,32.8,6.1,44.9-1.5l126.7-79.2c6-3.7,8.9-8.5,8.8-13.2L-207.9,322.8z"/>
		<path class="st3" d="M-157.3,540.3l-132.4-70.8c-6.4-3.4-9.6-8.1-9.8-12.8l0.7,25.8c0.2,4.8,3.5,9.4,9.8,12.8l132.4,70.8
			L-157.3,540.3z"/>
		<path class="st4" d="M23.1,446.4c0.1,4.7-2.8,9.5-8.8,13.2l-126.7,79.2c-12.2,7.5-32.2,8.2-44.9,1.5l0.7,25.8
			c12.7,6.8,32.8,6.1,44.9-1.5L15,485.4c6.1-3.8,8.9-8.5,8.8-13.2L23.1,446.4z"/>
		<g>
			<path class="st2" d="M13.3,433.6c12.6,6.7,13.1,18.4,1,25.9l-126.7,79.2c-12.2,7.5-32.2,8.2-44.9,1.5l-132.4-70.8
				c-12.7-6.8-13.1-18.5-1-26.1l126.7-79.2c12.1-7.6,32.2-8.2,44.9-1.4L13.3,433.6z"/>
		</g>
		<g>
			<path class="st2" d="M882.1-135.1c12.6,6.8,13,18.4,0.9,26L756.3-29.9c-12.1,7.6-32.1,8.2-44.8,1.5L579.1-99.3
				c-12.7-6.9-13.1-18.4-1-26l126.7-79.2c12.1-7.6,32.2-8.3,44.9-1.4L882.1-135.1z"/>
		</g>
		<g>
			<g>
				<path class="st2" d="M882.1-156c12.6,6.8,13,18.4,0.9,26L756.3-50.8c-12.1,7.6-32.1,8.2-44.8,1.5l-132.4-70.8
					c-12.7-6.9-13.1-18.4-1-26l126.7-79.2c12.1-7.6,32.2-8.3,44.9-1.4L882.1-156z"/>
			</g>
			<path class="st4" d="M892.1-113.8c0.4-1.2,0.5-2.4,0.5-3.6l-0.7-25.9c0.1,4.7-2.8,9.5-8.8,13.2L756.3-50.8
				c-12.1,7.6-32.1,8.2-44.8,1.5l-132.4-70.8c-6.4-3.5-9.7-8.1-9.8-12.8l0.7,24.4c-0.4-1.2-0.7-2.4-0.7-3.6l0.8,25.8
				c0.2,4.8,3.4,9.4,9.8,12.8l-0.8-0.2c-6.4-3.5-9.7-8.1-9.8-12.8l0.8,25.8c0.2,4.8,3.4,9.4,9.8,12.8L712.3,23
				c12.6,6.7,32.7,6.1,44.8-1.5l126.7-79.2c6.1-3.8,9-8.5,8.8-13.2l-0.6-21.6c0.5-1.3,0.7-2.6,0.6-4L892.1-113.8z"/>
		</g>
		<g>
			<g>
				<path class="st2" d="M1332.7,81.5c12,6.4,12.4,17.5,0.9,24.7L1213,181.6c-11.5,7.2-30.6,7.8-42.6,1.4L824.7-2
					c-12-6.4-12.4-17.5-1-24.7L944.3-102c11.5-7.2,30.6-7.8,42.7-1.4L1332.7,81.5z"/>
			</g>
			<path class="st4" d="M1342,93.8c0,0.5,0,1.1-0.1,1.6l-0.1-1.8c0.1,4.5-2.6,9-8.3,12.6L1213,181.6c-11.5,7.2-30.6,7.8-42.6,1.4
				c0,0-349.1-187.1-350.4-188.2c-2.7-2.5-4.2-5.3-4.5-8.2c0-0.2,0-0.5-0.1-0.7l0,0.2c0-0.1,0-0.3,0-0.4L801,63
				c0.2,4.7,3.5,9.3,9.8,12.7l363.4,194.4c12.6,6.8,32.7,6.1,44.8-1.4l126.7-79.2c6-3.8,8.9-8.6,8.8-13.3L1342,93.8z"/>
		</g>
		<g>
			<path class="st5" d="M662.1-10.1c0.1,4.7-2.8,9.4-8.8,13.2L533.2,78.8c-11.5,7.2-30.6,7.8-42.6,1.3c0,0-128.8-69.1-129.9-70
				c-3.5-2.9-5.3-6.4-5.4-9.9l-6.9,77.6c0.1,4.7,3.4,9.4,9.8,12.8l132.4,70.8c12.7,6.7,32.7,6.1,44.8-1.5L662,80.9
				c6.1-3.7,9-8.5,8.8-13.2L662.1-10.1z"/>
			<g>
				<path class="st2" d="M652.8-21.3c12,6.4,12.4,17.5,0.9,24.7L533.2,78.8c-11.5,7.2-30.6,7.8-42.6,1.3l-126-67.4
					c-12.1-6.5-12.5-17.5-1-24.7l120.5-75.4c11.5-7.2,30.6-7.8,42.7-1.3L652.8-21.3z"/>
			</g>
		</g>
		<g>
			<g>
				<path class="st2" d="M428.7,116.3c12,6.4,12.4,17.5,0.9,24.7l-120.5,75.3c-11.5,7.2-30.7,7.9-42.7,1.4l-126-67.4
					c-12.1-6.5-12.5-17.5-0.9-24.7l120.5-75.4c11.5-7.2,30.6-7.8,42.7-1.3L428.7,116.3z"/>
			</g>
			<path class="st5" d="M438,128.4c0.1,4.4-2.6,8.9-8.4,12.5l-120.5,75.3c-11.5,7.2-30.7,7.9-42.7,1.4l-126-67.4
				c-6.1-3.2-9.2-7.7-9.3-12.2c0,0-8.3,33.4-8.5,28.7l0.8,25.9c0,0.5,0.1,1,0.2,1.5l0.7,23.8c0.1,4.7,3.4,9.4,9.8,12.8l132.4,70.9
				c12.7,6.8,32.8,6.1,44.9-1.5L438,221c6-3.7,8.9-8.5,8.8-13.2L438,128.4z"/>
		</g>
		<g>
			<g>
				<path class="st2" d="M214.3,251.8c12,6.4,12.4,17.5,1,24.7L94.6,351.8C83.1,359,64,359.6,52,353.2l-126-67.3
					c-12.1-6.5-12.6-17.6-1-24.7l120.5-75.4c11.5-7.2,30.6-7.8,42.7-1.3L214.3,251.8z"/>
			</g>
			<path class="st5" d="M223.5,264.1l0-0.2C223.5,264,223.5,264,223.5,264.1l-0.1-0.5c0.2,4.6-2.8,9.4-8.7,13.2l-0.2,0.2L94.6,351.8
				C83.1,359,64,359.6,52,353.2l-126-67.3c-6.1-3.3-9.3-7.7-9.4-12.2l0.7,24.6c0.2,4.5,3.3,8.9,9.4,12.2l-6.8,2.4
				c-6.4-3.5-9.7-8.1-9.9-12.8l0.8,51.4c0.2,4.7,3.4,9.4,9.9,12.8L53,435.1c12.7,6.8,32.7,6.1,44.8-1.4l126.7-79.2
				c6-3.8,8.9-8.5,8.8-13.2L223.5,264.1z"/>
		</g>
		<g>
			<g>
				<path class="st2" d="M1136.3,220.3c12,6.4,12.4,17.5,0.9,24.7l-77.8,49.1c-11.5,7.2-30.7,7.9-42.7,1.4L671,110.6
					c-12-6.4-12.4-17.5-0.9-24.7L748,36.7c11.5-7.2,30.6-7.8,42.6-1.4L1136.3,220.3z"/>
			</g>
			<path class="st5" d="M1145.6,231.8c0.1,4.6-2.8,9.4-8.8,13.2l-77.4,49.1c-11.5,7.2-30.7,7.9-42.7,1.4L671,110.6
				c-1.8-1-3.3-2-4.5-3.1c-2.9-2.8-4.5-5.9-4.6-9.1l-0.1,0.6c0-0.2,0-0.3,0-0.5l0,0.5l-16.2,73.4c0.1,4.7,3.4,9.4,9.7,12.8
				l363.4,194.4c12.6,6.8,32.7,6.1,44.9-1.5l82.2-52c6-3.8,8.9-8.5,8.8-13.2L1145.6,231.8z"/>
		</g>
		<g>
			<path class="st2" d="M196.8-3.5c12.6,6.8,13.1,18.4,1.1,26L71.2,101.7c-12.1,7.6-32.2,8.2-44.9,1.4l-132.4-70.8
				c-12.7-6.8-13.1-18.4-1-26L19.6-72.9c12.1-7.6,32.1-8.2,44.8-1.5L196.8-3.5z"/>
		</g>
		<g>
			<path class="st4" d="M535,395.5L354.8,294.2l-1.5-1.1c-6.4-3.4-9.7-8.1-9.8-12.8l-8.1,73.2c0.1,4.7,3.4,9.4,9.8,12.8l187.2,110.3
				L535,395.5z"/>
			<path class="st4" d="M938.5,349.6c0.1,4.7-2.8,9.5-8.8,13.2L518.5,622.5c-11.7,7.3-30.9,7.9-43.1,1.4L245.7,500.6
				c-6.1-3.3-9.3-7.8-9.4-12.3l0.1,2c-0.1-0.5-0.1-1-0.2-1.5L224,569.3c0.1,4.7,3.4,9.4,9.8,12.8l238.8,128.2
				c12.6,6.7,32.7,6.1,44.8-1.5l427.9-270.2c6-3.8,8.9-8.5,8.8-13.2L938.5,349.6z"/>
			<path class="st2" d="M929,337.7L579.6,150.8c-12.2-6.5-31.5-5.9-43.1,1.4L352.1,267.9c-11.7,7.3-11.2,18.5,0.9,25l94,53.2
				c-2.7,0.9-202.1,129.4-202.1,129.4c-11.7,7.3-11.2,18.5,0.9,25l229.7,123.5c12.2,6.5,31.5,5.9,43.1-1.4l212.9-134.4
				c0.2-0.2,198.6-125.5,198.6-125.5C941.6,355.4,941.2,344.2,929,337.7z"/>
		</g>
		<g>
			<path class="st5" d="M430.9,662.7c0,0.6-0.2,0.3-0.2,0.3c0,1.1,1.8,6.8-8.6,12.9l-77.3,49.5c-11.5,7.2-30.7,7.9-42.7,1.4
				l-345.7-185c-6-3.3-9.1-7.6-9.3-12.1l0.8,24.6c0.1,4.5,3.2,8.9,9.3,12.1l-15.8,1c-6.4-3.4-9.6-8-9.7-12.7l0.8,25.9
				c0.1,4.7,3.4,9.4,9.7,12.8l-0.8-0.3c-6.4-3.4-9.6-8-9.7-12.7l0.8,25.9c0.1,4.7,3.4,9.4,9.7,12.8l363.4,194.4
				c12.6,6.8,32.8,6.1,44.9-1.5l82.2-52c6-3.8,8.9-8.5,8.8-13.2L430.9,662.7z"/>
			<g>
				<path class="st2" d="M421.7,651.5c12,6.4,12.4,17.5,0.9,24.7l-77.8,49.1c-11.5,7.2-30.7,7.9-42.7,1.4l-345.7-185
					c-12-6.4-12.4-17.5-0.9-24.7l77.9-49.1c11.5-7.2,30.6-7.8,42.6-1.4L421.7,651.5z"/>
			</g>
		</g>
	</g>
</g>
<g>
	<g>
		<polygon class="st4" points="595.1,201.9 590,205.1 564.1,191.3 548.7,200.9 571.5,213.1 566.5,216.2 543.7,204.1 526.7,214.7 
			553,228.7 547.9,231.9 514.9,214.3 562.5,184.5 		"/>
	</g>
	<g>
		<path class="st4" d="M725.4,322.5c-0.8,0.9-1.2,1.8-1.1,2.8l-0.8,0.5l-6.9-3.7c-0.1-0.9,0.4-1.9,1.6-3c1.2-1,2.5-2,4.1-3l4.3-2.7
			c2.6-1.6,3.9-3.3,3.9-5.2c0-1.8-1.3-3.4-4-4.9l-12.5-6.7l-20.6,12.9l-6.7-3.6l47.5-29.8l18,9.6c5.4,2.9,8.4,5.9,9,8.8
			c0.6,3-1.4,5.8-5.8,8.6c-2.4,1.5-5.2,2.5-8.4,2.9c-3.2,0.4-6.5,0.3-10.2-0.4c1.9,2,2.5,3.9,1.8,5.7c-0.7,1.8-2.5,3.6-5.3,5.4
			l-4.5,2.8C727.4,320.7,726.3,321.6,725.4,322.5z M739.9,302.3c3,0,6-0.8,8.8-2.6c2.7-1.7,3.9-3.4,3.8-5.2c-0.2-1.8-2-3.6-5.4-5.4
			l-11.3-6L719,293.6l10.6,5.7C733.4,301.2,736.9,302.3,739.9,302.3L739.9,302.3z"/>
	</g>
	<g>
		<polygon class="st4" points="725.9,271.8 720.8,275 694.9,261.2 679.6,270.8 702.3,283 697.3,286.1 674.5,274 657.5,284.6 
			683.8,298.6 678.7,301.8 645.7,284.2 693.3,254.4 		"/>
	</g>
	<g>
		<polygon class="st4" points="686,250.5 680.9,253.7 664.9,245.1 622.4,271.7 615.7,268.1 658.2,241.5 642.2,233 647.3,229.8 		"/>
	</g>
	<g>
		<polygon class="st4" points="641,226.4 593.4,256.2 586.7,252.6 599.5,216.8 599.3,216.7 562.5,239.7 555.8,236.1 603.3,206.3 
			610.1,209.9 597.3,245.7 597.6,245.8 634.2,222.8 		"/>
	</g>
</g>
<g>
	<path class="st6" d="M694.3,640.4c20.2-2.4,70.3,4.9,104.8-2.6c34.5-7.4,105.4-24.2,105.8-9.7c0.4,13.9-12.8,28.5-56.7,23.8
		c-43.9-4.7-143.3,19.5-170.9,26.2C626.1,690.4,656.4,644.9,694.3,640.4z"/>
	<g>
		<polygon class="st7" points="696.2,656 705.2,660.9 705.6,653.1 		"/>
		<path class="st8" d="M686.5,634.5l-19.5,14.1c0,0-9.8,6.8-13.4,8.6c-1.6,0.8-2.8,2.7-3,4.6c-0.1,1.2,0.1,2.4,0.9,3.3
			c2.1,2.3,6.5,4.2,10.1,5.2c10.9,2.9,22.4-3.1,22.4-3.1c1.9-1,14.7-8.1,15.7-8.8c2.7-1.9,5.1-2.5,5.9-1.2c0,0-0.3,3.2-0.3,3.7
			l10.8-6.3c0,0,0.9-3.7,1-5.8l0.8-14.5L686.5,634.5z"/>
		<g>
			<path class="st7" d="M650.4,662.2c2.1,3.4,7.7,5.4,11.3,6.5c12.7,3.8,22.6-3,22.6-3c3.7-1.9,13.9-7.5,15-8c0,0,6-3.8,6.1-0.6
				c0,0.5,0.1,0.7,0.1,1.3c0-0.3-0.2-0.6-0.2-0.7c-0.6-2.1-6.6,1.7-6.6,1.7c-0.9,0.8-12.6,7.6-14.5,8.6c0,0-11,7.2-23,3.2
				c-3.6-1.2-8.1-2.8-10.2-6.2C650.4,663.9,650.3,662,650.4,662.2z"/>
			<path class="st7" d="M705.4,657c0,0,5.1-2.4,6.8-3.1c4-1.7,4.6-3.1,4.6-3.1s-0.5,4.1-0.7,4.1c0,0-0.2,1.1-2.5,2.3
				c-2.1,1.1-8.4,3.7-8.4,3.7L705.4,657z"/>
		</g>
	</g>
	<path class="st9" d="M737.7,476.2c0,0-69.2,67.5-67.3,87.3c2,20.7,8.7,73.3,8.7,73.3c-1.1,4.4,1,7.2,10.6,10.1
		c20,5.9,26.2-2.5,26.2-2.5c1.8-1.7,4.2-2.6,4.8-4.1c0,0-9.1-64.1-6.3-72.8c1.4-4.6,36.7-43.9,50-59.4c17.9-20.7,7.8-50.1,7.8-50.1
		L737.7,476.2z"/>
	<path class="st9" d="M883.8,582.5c0,0,6.2-0.6,12.7,4.6c1.2,0.9,3.7,4,3.2,7.9c-0.5,3.9-2.8,11.6-2.8,11.6l-2.5,1.1
		c0,0,1.8,13.6,0.8,19.9c-1,6.2-13,17-18.3,20.6c-3.7,2.5-7.8,1.7-7.8,1.7s-12.4-2.8-13.2-3.8c-0.8-1.2-1.8-3.9,0.5-7
		c2.3-3.1,8.5-12.5,8.8-17c0.3-4.2-3.7-10.9-3.7-10.9L883.8,582.5z"/>
	<path class="st9" d="M582.6,475.1c6.2,3.7,6.9,6.9,6.9,6.9s13.1-3.7,29.4-15c25.1-17.5,62.8-36.7,62.8-36.7s17.8-9.3,12.9-24
		c-1.6-4.8-5.6-11.9-11.7-12.7c-4.6-0.7-14.3-1.5-20.9,4c-6.8,5.7-28.6,18.8-51.5,35.4c-11.1,8.1-45.4,34.4-45.4,34.4
		S578.7,472.8,582.6,475.1z"/>
	<path class="st10" d="M732.4,482.2c0,0,41.5,66.6,54,89.4c6.4,11.7,24.7,20,24.7,20c15.3,5.3,34.9,17.5,46.3,20.2
		c2.8,0.7,1.7,5.7,5,6c8,0.8,30.8-30.2,18.8-38.3c-18-12-56.4-31.1-57.4-32.6c-7.9-11.8-15.7-53.5-30.7-66
		C779.9,469.8,732.4,482.2,732.4,482.2z"/>
	<path class="st11" d="M717,381.4c0,0-13.8-6.9-21.1-5.2c-7.3,1.7-25.1,15.2-25.1,15.2s7.3,29.8,5.5,29.7
		c-8.8-0.1,31.7,37.1,31.7,37.1l11.5-36.3L717,381.4z"/>
	<path class="st12" d="M688.4,406.4c15.3-2.7,13.2-21.1,10.4-31.8l-23.6-15.7l-9.1,26.3c0,0,7.9,9.4,11.7,10.7
		C684.9,398.5,688.4,406.4,688.4,406.4z"/>
	<path class="st13" d="M688.5,421.3c-0.2-1.1-0.6-1.8-1.4-2.9l-2.5-3.2l1.2-9.6l2.8-0.8l5.6,7.4l-1.6,4.9c-0.4,1.1-0.2,3.3,0.4,4.3
		l9.4,25.4l-2.5,11c0,0-5.6-5.9-6.9-8.5C688.5,440,688.5,421.3,688.5,421.3z"/>
	<path class="st14" d="M685.7,403.9c1.9,0.5,1.5,2.6,1.2,4l-1.9,8.9c-0.7,2.7-2.3,0.7-3.3-1.4l-7.3-15.1c-3.2-8.2-0.1-10.5-0.1-10.5
		s0.8,2,2.1,4.4C678,397.4,680.1,402.4,685.7,403.9z"/>
	<path class="st14" d="M697.2,373.3c0,0,2.2,1.5,2.2,8c0,13.3-11.6,22.1-11.6,22.1c-1.3,1.3-0.9,2.1,0.5,4.7l6,9.3
		c1.4,2.5,2.7,1.6,3.2,0.1c0,0,6.5-13.7,8.1-18c3.8-10.2,1.5-16.9-3.5-23.8C700,372.8,697.2,373.3,697.2,373.3z"/>
	<path class="st7" d="M791.1,460.8c-25.1-55.6-44.7-71.4-44.7-71.4c-24-20.8-54.3-19.3-54.3-19.3l2.2,1.3c2.2,1.3,9.3,1.6,9.5,23.1
		c0.1,10.4-4.3,61.9-4.2,62.6c0.1,0.7-8.4-9.7-14.8-17.8c-12.2-15.4-9.1-47.7-7.5-54.8c-4,2.9-27.4,12.9-26.3,19.3
		c2.6,14.4,5.8,30,46.8,68.3c1.4,1.4,15.8,15,16.5,21.3c0.5,3.9-10.8,20.5-10.8,20.5c1.3,4.6,10.5,11.9,17.3,6.5
		c3.8-3,16.5-18,16.5-18s2.8,20.8,6.4,26.5c0.7,1.1,1.8,1.9,2.8,2.5c18.5,0,42.7-8.7,53-16.5c9.3-7,9-8.5,9-8.5
		C810.1,503.2,796.8,473.5,791.1,460.8z"/>
	<path class="st10" d="M735.9,492.6c-10.9-14.8-19.2-26.9-22.2-32.2l-1.7,1c3,5.4,11.3,17.5,22.3,32.4c1.9,2.6,2.6,6,2.6,9.5
		l0.5-0.9c0,0,0.6,1.1,1.4,2.7C739.2,500.6,738.5,496.1,735.9,492.6z"/>
	<path class="st15" d="M676.3,394.8l-3.6-3.2c0,0-1.4,2-1.7,2.5c-0.9,1.8-1,7.2-1,7.2l-0.7,17.7c0.2,2.8,1.6,4.2,3.6,5.1l4.8,2.6
		l-1.3,6c-0.9,3.7-0.3,4.5,1.7,6.6c7.1,7.4,21.8,18.5,21.8,18.5s-9.6-15-14-24.4C675.9,412.1,676.3,394.8,676.3,394.8z"/>
	<path class="st15" d="M692.4,370.4l8.8,0.5c0,0,12.3,1.9,13.6,12.4c0.3,2.1,0.4,8.5,0.4,8.5l0.4,16.8c0.5,3.8-0.2,5.4-2.7,6.7
		l-8.5,5l5.9,4.9c2,1.5,1.8,3,0.6,5.1c-11.8,21.1-10.8,30.6-10.8,30.6s-4.5-8.6-1.5-40.5c0.7-8.1,2.8-19.3,3.9-28.8
		C704,379.3,692.4,370.4,692.4,370.4z"/>
	<g>
		<path class="st16" d="M638.3,338.3c0,0-6.6-0.5-9,3.2c-2.3,3.7-1.6,11.7,1.4,17.1c3.1,5.4,5.9,7.8,5.9,7.8L638.3,338.3z"/>
		<path class="st17" d="M671.8,357c-6.6,0.8-6.6,7.2-6.6,7.2l1.5,13.3c0,0,0.7,2.9,3.2,3.1c3.9,0.3,5.1-3.1,6.4-7
			c0.1-0.2,1.6-5.8,1.7-6.1C679.3,362.7,678.1,356.3,671.8,357z"/>
		<path class="st18" d="M656.9,334.1l24.3,2.4l5.7,46.1c0,3.2,0.5,5.1,0.3,7.9c-0.2,3-1.3,5.9-4.5,9c0,0-4.9,4-10.2,7.7
			c-0.9,0.6-3.8,2.4-7,2c-2.6-0.3-5.2-0.9-7.3-1.2c-3.7-0.6-5.5-4.9-5.5-4.9l-16.8-36.2c0,0-6.8-17.1,0.4-23.8
			C640.7,339.1,656.9,334.1,656.9,334.1z"/>
		<path class="st19" d="M630,340.8c-4,6,2,10.3,9.4,14.3c0.9,0.5,19.6,8.3,20.1,8c0.3-0.2,1.6-6.9,3.7-6.7c4.4,0.5,5.3,2.4,7,6.3
			l2.9,7.1c0.7,2.3,2.3,4.4,4,4.7c2.2,0.4,1.4-0.6,1.5-1.3c0,0,0-9.4,5.9-9.2c5,0.2,5.5,5.8,5.3,6.5l8.1,5.5
			c0.6-0.2,0.9-1.8,0.9-2.5c0.1-1.4,0.8-6.6,1.3-11.1c3.8-35.9-24-56.1-52.4-41C636.2,327.4,630,340.8,630,340.8z"/>
		<path class="st18" d="M686,357.5c-6.6,0.8-7,9.7-7,9.7l-1.3,8.6c0,0,3.9,5.1,6.5,5.3c3.9,0.3,5.1-3.1,6.4-7
			c0.1-0.2,1.6-5.8,1.7-6.1C693.5,363.2,692.3,356.8,686,357.5z"/>
	</g>
	<path class="st12" d="M623,507.3c0,0-7.9-5.6-13-4.9c-7.9,1.1-14.8-1.1-14.8-1.1s-1.4,1-1.7,3c-0.4,2.1,2.8,4.7,6.1,5.1
		c9.2,1.2-3.9,2.6-6.7,3.7c-5.5,2-10.5,5.5-11.7,9c-1.7,5.1,8.1,12.5,15.4,10.6c5.4-1.4,13-2.7,14-2.9c8.2-1.1,15.2-1.2,17-1.7
		C638.1,525.1,626.8,510.4,623,507.3z"/>
	<path class="st12" d="M575.6,465.4c-1.8-0.5-8.9-2.8-14-0.6c-4.5,1.9-19.4,8.1-19.2,10.9c0.3,5.1,7.8,9.9,12.5,8
		c2.9-1.2,16.8-3.9,19.8-4.2c4.5-0.4,6.1-1,8.1,2.5c1.5,2.5,6-2.3,6.7-3C590,478.6,585.2,468.1,575.6,465.4z"/>
	<path class="st10" d="M619.2,517.6c2.3,3.6,12.2,8.2,12.2,8.2s2.2-0.7,5.4-2.1c15.5-7.1,41.3-28,55.9-39.1
		c21.4-16.3,50.5-51.5,50.5-51.5c1.5-1.6,9-15.7,6.7-23.5c-3.8-12.6-17.8-20.6-27.9-10.4c-13.6,13.8-30.5,36.9-49.4,54.7
		c-15.7,14.8-57.2,49.4-57.2,49.4S613.9,509.2,619.2,517.6z"/>
	<path class="st12" d="M585.2,472.7c0,0,5.1,5.7,4.8,7.5c-0.4,2,0.2,7.1,1,8.6c0.5,0.9-0.6,1.7-0.6,1.7s-2.8,3-6.2-0.6
		c-1.8-1.9-1.4-6.1-1.8-7.8c-1-4-6.3-4.4-6.3-4.4L585.2,472.7z"/>
</g>
</svg>
