<?xml version="1.0" encoding="utf-8"?>
<!-- Generator: Adobe Illustrator 24.2.3, SVG Export Plug-In . SVG Version: 6.00 Build 0)  -->
<svg version="1.1" id="Layer_1_1_" xmlns="http://www.w3.org/2000/svg" xmlns:xlink="http://www.w3.org/1999/xlink" x="0px" y="0px"
	 viewBox="0 0 450 450" style="enable-background:new 0 0 450 450;" xml:space="preserve">
<style type="text/css">
	.st0{clip-path:url(#SVGID_2_);}
	.st1{fill:#C6D0DE;}
	.st2{fill:#3F4650;}
	.st3{fill:#FFFFFF;}
	.st4{fill:#E3C69A;}
	.st5{fill:#E7D3B8;}
	.st6{fill:#EC8558;}
	.st7{clip-path:url(#SVGID_4_);}
	.st8{fill:#D3AF81;}
	.st9{fill:#596273;}
	.st10{clip-path:url(#SVGID_6_);}
	.st11{fill:#D1D3D4;}
	.st12{fill:#27AAE1;}
	.st13{fill:#72BCC5;}
	.st14{fill:#808285;}
	.st15{clip-path:url(#SVGID_8_);}
	.st16{clip-path:url(#SVGID_10_);}
	.st17{clip-path:url(#SVGID_12_);}
	.st18{clip-path:url(#SVGID_14_);}
	.st19{clip-path:url(#SVGID_16_);}
	.st20{clip-path:url(#SVGID_18_);}
	.st21{fill:#B2B2B2;}
	.st22{fill:#525B69;}
</style>
<g>
	<rect x="161.6" y="307.6" width="126.7" height="126.7"/>
	<g>
		<defs>
			<rect id="SVGID_1_" x="161.6" y="307.6" width="126.7" height="126.7"/>
		</defs>
		<use xlink:href="#SVGID_1_"  style="overflow:visible;fill:#72BCC5;"/>
		<clipPath id="SVGID_2_">
			<use xlink:href="#SVGID_1_"  style="overflow:visible;"/>
		</clipPath>
		<g class="st0">
			<g>
				<g>
					<g>
						<g>
							<g>
								<path d="M271,418.3h-95.2c-1.2,0-2.2-1-2.2-2.2v-48c0-1.2,1-2.2,2.2-2.2H271c1.2,0,2.2,1,2.2,2.2v48
									C273.1,417.3,272.1,418.3,271,418.3z"/>
							</g>
						</g>
						<g>
							<g>
								<path class="st1" d="M271,417.3h-95.2c-1.2,0-2.2-1-2.2-2.2v-48c0-1.2,1-2.2,2.2-2.2H271c1.2,0,2.2,1,2.2,2.2v48
									C273.1,416.3,272.1,417.3,271,417.3z"/>
							</g>
						</g>
						<g>
							<g>
								<g>
									<g>
										<rect x="178.7" y="369.4" width="6.4" height="5.8"/>
									</g>
									<g>
										<rect x="189.1" y="369.4" width="6.4" height="5.8"/>
									</g>
									<g>
										<rect x="199.4" y="369.4" width="6.4" height="5.8"/>
									</g>
									<g>
										<rect x="209.8" y="369.4" width="6.4" height="5.8"/>
									</g>
									<g>
										<rect x="220.2" y="369.4" width="6.4" height="5.8"/>
									</g>
									<g>
										<rect x="230.5" y="369.4" width="6.4" height="5.8"/>
									</g>
									<g>
										<rect x="240.9" y="369.4" width="6.4" height="5.8"/>
									</g>
									<g>
										<rect x="251.2" y="369.4" width="6.4" height="5.8"/>
									</g>
									<g>
										<rect x="261.6" y="369.4" width="6.4" height="5.8"/>
									</g>
								</g>
								<g>
									<g>
										<rect x="178.7" y="392.3" width="6.4" height="5.8"/>
									</g>
									<g>
										<rect x="240.9" y="392.3" width="6.4" height="5.8"/>
									</g>
									<g>
										<rect x="251.2" y="392.3" width="6.4" height="5.8"/>
									</g>
									<g>
										<rect x="261.6" y="392.3" width="6.4" height="5.8"/>
									</g>
								</g>
								<g>
									<g>
										<rect x="178.7" y="380.7" width="6.4" height="5.8"/>
									</g>
									<g>
										<rect x="189.1" y="380.7" width="6.4" height="5.8"/>
									</g>
									<g>
										<rect x="199.4" y="380.7" width="6.4" height="5.8"/>
									</g>
									<g>
										<rect x="209.8" y="380.7" width="6.4" height="5.8"/>
									</g>
									<g>
										<rect x="220.2" y="380.7" width="6.4" height="5.8"/>
									</g>
									<g>
										<rect x="230.5" y="380.7" width="6.4" height="5.8"/>
									</g>
									<g>
										<rect x="240.9" y="380.7" width="6.4" height="5.8"/>
									</g>
									<g>
										<rect x="251.2" y="380.7" width="6.4" height="5.8"/>
									</g>
									<g>
										<rect x="261.6" y="380.7" width="6.4" height="5.8"/>
									</g>
								</g>
								<g>
									<rect x="189.1" y="392.3" width="47.9" height="5.8"/>
								</g>
							</g>
						</g>
					</g>
				</g>
			</g>
			<rect x="214" y="404" width="18.7" height="8.4"/>
			<g>
				<path class="st2" d="M280.8,323.3c-0.1-0.3-0.1-0.6-0.2-0.8c0-0.2-0.1-0.3-0.2-0.5c-0.1-0.1-0.3-0.3-0.4-0.4
					c-0.2-0.1-0.4-0.2-0.6-0.2c-0.2-0.1-0.5-0.1-0.7-0.1H168.1c-0.3,0-0.5,0-0.7,0.1c-0.2,0.1-0.4,0.1-0.6,0.2
					c-0.2,0.1-0.3,0.2-0.4,0.4c-0.1,0.1-0.2,0.3-0.2,0.5c-0.3,0.9-0.5,1.9-0.8,2.8c-0.3,1-0.5,1.9-0.8,2.9c0-0.2,0.1-0.3,0.2-0.5
					s0.3-0.3,0.4-0.4c0.2-0.1,0.4-0.2,0.6-0.2c0.2-0.1,0.5-0.1,0.8-0.1h113.4c0.3,0,0.5,0,0.8,0.1c0.2,0.1,0.4,0.1,0.6,0.2
					c0.2,0.1,0.3,0.2,0.4,0.4c0.1,0.1,0.2,0.3,0.2,0.5C281.7,326.6,281.3,324.9,280.8,323.3z"/>
				<g>
					<path d="M270,364.5h-93.2c-0.3,0-0.6,0-0.8-0.1c-0.3-0.1-0.5-0.2-0.7-0.3c-0.2-0.1-0.4-0.3-0.6-0.4c-0.1-0.2-0.3-0.3-0.3-0.5
						l-9.7-34.3c-0.1-0.3-0.1-0.5,0-0.7c0.1-0.2,0.2-0.4,0.4-0.6c0.2-0.2,0.4-0.3,0.7-0.4c0.3-0.1,0.6-0.1,1-0.1h113.4
						c0.4,0,0.7,0.1,1,0.1c0.3,0.1,0.5,0.2,0.7,0.4c0.2,0.2,0.3,0.4,0.4,0.6c0.1,0.2,0.1,0.5,0,0.7l-9.7,34.3c0,0.2-0.2,0.3-0.3,0.5
						c-0.2,0.2-0.3,0.3-0.6,0.4c-0.2,0.1-0.5,0.2-0.7,0.3C270.5,364.5,270.3,364.5,270,364.5z"/>
				</g>
				<g>
					<g>
						<path class="st3" d="M178.2,359.8h90.4l7.9-28.2H170.2L178.2,359.8z"/>
					</g>
				</g>
			</g>
			<g>
				<path class="st4" d="M215.6,397.9c-0.3-1.3,0.5-2.5,1.8-2.8l0,0c1.3-0.3,2.5,0.5,2.8,1.8l3.2,15c0.3,1.3-0.5,2.5-1.8,2.8l0,0
					c-1.3,0.3-2.5-0.5-2.8-1.8L215.6,397.9z"/>
				<g>
					<g>
						<g>
							<g>
								<g>
									<g>
										<g>
											<g>
												<path class="st4" d="M218.6,403.2c0-2,1.6-3.6,3.6-3.6l0,0c2,0,3.6,1.6,3.6,3.6v8.5c0,2-1.6,3.6-3.6,3.6l0,0
													c-2,0-3.6-1.6-3.6-3.6L218.6,403.2z"/>
											</g>
										</g>
									</g>
								</g>
								<polygon class="st5" points="239.7,470.2 221.5,470.2 222.2,413.2 239,413.2 								"/>
								<rect x="221.1" y="417.3" class="st6" width="18.9" height="55.7"/>
							</g>
						</g>
					</g>
					<path class="st5" d="M221.3,397.7v14.7c0,1.6,1.3,2.8,2.8,2.8h14c1.6,0,2.8-1.3,2.8-2.8v-14.7H221.3z"/>
					<g>
						<path class="st5" d="M221.1,384.4c0-1.3,1-2.3,2.3-2.3l0,0c1.3,0,2.3,1,2.3,2.3v29c0,1.3-1,2.3-2.3,2.3l0,0
							c-1.3,0-2.3-1-2.3-2.3L221.1,384.4z"/>
						<path class="st5" d="M226.2,394.1c0-1.3,1-2.3,2.3-2.3l0,0c1.3,0,2.3,1,2.3,2.3v10.1c0,1.3-1,2.2-2.3,2.1l0,0
							c-1.3,0-2.3-0.9-2.3-2.1V394.1z"/>
						<path class="st5" d="M231.4,395.5c0-1.3,1-2.3,2.3-2.3l0,0c1.3,0,2.3,1,2.3,2.3l0,8.5c0,1.3-1,2.3-2.3,2.3l0,0
							c-1.3,0-2.3-1-2.3-2.3V395.5z"/>
						<path class="st5" d="M236.5,397.8c0-1.2,1-2.2,2.2-2.2l0,0c1.2,0,2.2,1,2.2,2.2v15.1c0,1.2-1,2.2-2.2,2.2l0,0
							c-1.2,0-2.2-1-2.2-2.2V397.8z"/>
					</g>
				</g>
			</g>
		</g>
	</g>
</g>
<g>
	<g>
		<defs>
			<rect id="SVGID_3_" x="308.3" y="15.7" width="126.7" height="126.7"/>
		</defs>
		<use xlink:href="#SVGID_3_"  style="overflow:visible;fill:#596273;"/>
		<clipPath id="SVGID_4_">
			<use xlink:href="#SVGID_3_"  style="overflow:visible;"/>
		</clipPath>
		<g class="st7">
			<g>
				<g>
					<g>
						<g>
							<g>
								<polygon class="st5" points="356.1,149.8 337.9,149.8 338.6,92.8 355.4,92.8 								"/>
							</g>
						</g>
					</g>
					<path class="st5" d="M350.2,80.4l-10.4,10.4c-1.1,1.1-1.1,2.9,0,4l10,10c1.1,1.1,2.9,1.1,4,0l10.4-10.4L350.2,80.4z"/>
					<path class="st5" d="M349.6,81.1c-5.4,5.2-7.3,2.8-7.3,1.5v-2.2l-1.6-1.4l-2.1,9.4c-1.4,1.4-1.4,3.7,0,5.1
						c1.4,1.4,3.7,1.4,5.1,0l2.2-2.2h3.6C349.6,91.3,350.2,80.5,349.6,81.1z"/>
					<g>
						<path class="st5" d="M359.7,71c0.9-0.9,2.4-0.9,3.3,0l0,0c0.9,0.9,0.9,2.4,0,3.3l-12.8,12.8c-0.9,0.9-2.4,0.9-3.3,0l0,0
							c-0.9-0.9-0.9-2.4,0-3.3L359.7,71z"/>
						<path class="st5" d="M337.7,75.8c0-1.3,1.1-2.3,2.4-2.3l0,0c1.3,0,2.3,1.1,2.3,2.4l-0.1,15.3c0,1.3-1.1,2.3-2.4,2.3l0,0
							c-1.3,0-2.3-1.1-2.3-2.4L337.7,75.8z"/>
						<path class="st5" d="M364.6,73.3c0.9-0.9,2.4-0.9,3.3,0l0,0c0.9,0.9,0.9,2.4,0,3.3l-14,14c-0.9,0.9-2.3,0.8-3.2-0.1l0,0
							c-0.9-0.9-1-2.3-0.1-3.2L364.6,73.3z"/>
						<path class="st5" d="M366.9,78.2c0.9-0.9,2.4-0.9,3.3,0l0,0c0.9,0.9,0.9,2.4,0,3.3l-12.8,12.8c-0.9,0.9-2.4,0.9-3.3,0l0,0
							c-0.9-0.9-0.9-2.4,0-3.3L366.9,78.2z"/>
						<path class="st4" d="M367.9,84.6c0.9-0.9,2.2-0.9,3.1,0l0,0c0.8,0.8,0.8,2.2,0,3.1l-13.4,13.4c-0.8,0.8-2.2,0.8-3.1,0l0,0
							c-0.8-0.8-0.8-2.2,0-3.1L367.9,84.6z"/>
					</g>
					<g>
						<path class="st4" d="M346.8,96.4c-0.1-0.1-0.1-0.4,0-0.5c2.8-2.8,2.8-7.3,0-10c-0.1-0.1-0.1-0.4,0-0.5c0.1-0.1,0.4-0.1,0.5,0
							c3,3,3,8,0,11C347.1,96.5,346.9,96.5,346.8,96.4z"/>
					</g>
					<g>
						<path class="st4" d="M361.2,92.7l-9.6-9.6c-0.1-0.1-0.1-0.4,0-0.5c0.1-0.1,0.4-0.1,0.5,0l9.6,9.6c0.1,0.1,0.1,0.4,0,0.5
							C361.6,92.8,361.3,92.8,361.2,92.7z"/>
					</g>
				</g>
				<g>
					<g>
						<g>
							<polygon class="st4" points="364.2,94.4 350.2,80.4 342.3,88.3 342.3,103.3 355.5,103.3 355.5,103.1 							"/>
						</g>
					</g>
				</g>
				<rect x="337.5" y="102.7" class="st6" width="18.9" height="55.7"/>
				<g>
					<path d="M401.8,89.3c0,1.3-1,2.3-2.3,2.3h-54.7c-1.3,0-2.3-1-2.3-2.3V49.1c0-1.3,1-2.3,2.3-2.3h54.7c1.3,0,2.3,1,2.3,2.3V89.3z
						"/>
					<rect x="345.5" y="49.7" class="st3" width="53.1" height="37.3"/>
				</g>
			</g>
			<g>
				<g>
					<g>
						<g>
							<path class="st8" d="M379.9,83.1l-3.1-2.2c-0.9-0.6-1.2-1.7-0.8-2.7l1.7-4.5c0.2-0.6,0.8-1.1,1.4-1.3
								c0.6-0.2,1.3-0.1,1.9,0.2l8.3,4.5c1.1,0.7,1.4,2.1,0.7,3.1c-0.7,1.1-8,8.6-9.1,7.9l3-7.3l-3.1-2.9v0.3l1.7,1.2
								c1,0.7,1.3,2.1,0.5,3.2C382.3,83.6,380.9,83.9,379.9,83.1z"/>
						</g>
					</g>
				</g>
				<g>
					<path class="st4" d="M378.1,83.9l-3.3-2.4c-0.9-0.6-1.3-1.8-0.8-2.9l2.5-6.3c0.3-0.7,0.8-1.2,1.5-1.4c0.7-0.2,1.4-0.1,2,0.2
						l8.9,4.7c1.1,0.7,1.5,2.2,0.8,3.3c-0.7,1.1-2.2,1.5-3.3,0.8l-6.4-3.2l-0.7,1.8l1.8,1.3c1.1,0.8,1.3,2.3,0.6,3.4
						C380.7,84.4,379.2,84.6,378.1,83.9z"/>
				</g>
				<g>
					<g>
						<g>
							<g>
								<g>
									<g>
										<g>
											<polygon class="st5" points="397.5,147.7 379.9,147 379.9,90.7 391,80.7 											"/>
										</g>
									</g>
								</g>
								<g>
									<path class="st5" d="M372.7,78.1c-0.5-1.2,0.1-2.6,1.3-3l0,0c1.2-0.5,2.6,0.1,3,1.3l7.7,20.1c0.5,1.2-0.1,2.6-1.3,3l0,0
										c-1.2,0.5-2.6-0.1-3-1.3L372.7,78.1z"/>
								</g>
								<path class="st5" d="M391.8,92.3L391,81l-5-5l-1.1,1.1l0.7,2.2c0.8,2.3-0.5,4.8-2.8,5.6c-1.7,0.5-3.4,0-4.6-1.1l0,0l0,0
									l2.8,8.1c0,2,1.6,3.6,3.6,3.6c2,0,3.6-1.6,3.6-3.6L391.8,92.3z"/>
							</g>
						</g>
					</g>
					<g>
						<g>
							<g>
								<path class="st5" d="M386.9,82.5c-0.3-0.3-0.5-0.6-0.6-1l-3.1-9.1l-7.3-2.9c-1.2-0.5-1.9-1.9-1.4-3.1
									c0.5-1.2,1.9-1.9,3.1-1.4l9.4,4.4c0.3,0.3,0.5,0.6,0.6,1l3.3,9.6c0.4,1.3-0.3,2.6-1.6,3C388.4,83.4,387.5,83.1,386.9,82.5z"
									/>
							</g>
						</g>
					</g>
					<polygon class="st6" points="377.5,95.7 377.5,151.4 398.4,151.4 393.9,95.7 					"/>
				</g>
			</g>
			<g>
				<polygon points="371,57.8 371.3,59.6 372.4,61.4 372,59.3 371.1,57.8 				"/>
				
					<rect x="376.1" y="58.4" transform="matrix(0.9337 -0.358 0.358 0.9337 -1.4645 139.9418)" class="st9" width="2.2" height="31"/>
				<polygon class="st9" points="371,58.2 370.7,59.9 372.3,61.1 372.7,59.1 371.3,58 				"/>
			</g>
		</g>
	</g>
</g>
<g>
	<g>
		<defs>
			<rect id="SVGID_5_" x="161.6" y="161.6" width="126.7" height="126.7"/>
		</defs>
		<use xlink:href="#SVGID_5_"  style="overflow:visible;fill:#EC8558;"/>
		<clipPath id="SVGID_6_">
			<use xlink:href="#SVGID_5_"  style="overflow:visible;"/>
		</clipPath>
		<g class="st10">
			<g>
				<g>
					<g>
						<g>
							<g>
								<g>
									<path class="st5" d="M194.7,218.3l0,4.9c0,2,1.6,3.6,3.6,3.6c2,0,3.6-1.6,3.6-3.6v-4.9H194.7z"/>
								</g>
							</g>
							<polygon class="st5" points="215.9,281.7 197.6,281.7 198.4,224.8 215.2,224.8 							"/>
							<rect x="197.3" y="246.2" class="st9" width="18.9" height="55.7"/>
						</g>
					</g>
				</g>
				<path class="st5" d="M197.5,209.3v14.7c0,1.6,1.3,2.8,2.8,2.8h14c1.6,0,2.8-1.3,2.8-2.8v-14.7H197.5z"/>
				<rect x="198" y="230.3" class="st9" width="17.9" height="6.4"/>
				<g>
					<path d="M214.2,237.3c0,1.6-1.3,2.8-2.8,2.8h-9c-1.6,0-2.8-1.3-2.8-2.8v-7.6c0-1.6,1.3-2.8,2.8-2.8h9c1.6,0,2.8,1.3,2.8,2.8
						V237.3z"/>
					<rect x="201.3" y="228.7" class="st3" width="11.2" height="9.6"/>
					<path class="st3" d="M200.9,235.4c0,0.2-0.2,0.4-0.4,0.4l0,0c-0.2,0-0.4-0.2-0.4-0.4v-3.8c0-0.2,0.2-0.4,0.4-0.4l0,0
						c0.2,0,0.4,0.2,0.4,0.4V235.4z"/>
					<g>
						<g>
							<rect x="202.3" y="232.5" class="st9" width="2.1" height="2.1"/>
							<rect x="205.7" y="232.5" class="st11" width="2.1" height="2.1"/>
							<rect x="209" y="232.5" class="st12" width="2.1" height="2.1"/>
						</g>
						<g>
							<rect x="203.9" y="229.3" class="st13" width="2.1" height="2.1"/>
							<rect x="207.4" y="229.3" class="st14" width="2.1" height="2.1"/>
						</g>
						<g>
							<rect x="203.9" y="235.6" class="st5" width="2.1" height="2.1"/>
							<rect x="207.4" y="235.6" class="st6" width="2.1" height="2.1"/>
						</g>
					</g>
				</g>
				<g>
					<path class="st5" d="M197.3,196c0-1.3,1-2.3,2.3-2.3l0,0c1.3,0,2.3,1,2.3,2.3v18.2c0,1.3-1,2.3-2.3,2.3l0,0
						c-1.3,0-2.3-1-2.3-2.3L197.3,196z"/>
					<path class="st5" d="M191.8,209.4c-0.3-1.3,0.5-2.5,1.8-2.8l0,0c1.3-0.3,2.5,0.5,2.8,1.8l3.2,15c0.3,1.3-0.5,2.5-1.8,2.8l0,0
						c-1.3,0.3-2.5-0.5-2.8-1.8L191.8,209.4z"/>
					<path class="st5" d="M202.4,194.1c0-1.3,1-2.3,2.3-2.3l0,0c1.3,0,2.3,1,2.3,2.3l0,19.7c0,1.3-1,2.2-2.3,2.1l0,0
						c-1.3,0-2.3-0.9-2.3-2.1V194.1z"/>
					<path class="st5" d="M207.5,196c0-1.3,1-2.3,2.3-2.3l0,0c1.3,0,2.3,1,2.3,2.3l0,18.2c0,1.3-1,2.3-2.3,2.3l0,0
						c-1.3,0-2.3-1-2.3-2.3V196z"/>
					<path class="st5" d="M212.7,199.8c0-1.2,1-2.2,2.2-2.2l0,0c1.2,0,2.2,1,2.2,2.2v19c0,1.2-1,2.2-2.2,2.2l0,0
						c-1.2,0-2.2-1-2.2-2.2V199.8z"/>
				</g>
				<g>
					<path class="st4" d="M206.1,223.1c-0.2,0-0.4-0.2-0.4-0.4c0-3.9-3.2-7.1-7.1-7.1c-0.2,0-0.4-0.2-0.4-0.4c0-0.2,0.2-0.4,0.4-0.4
						c4.3,0,7.8,3.5,7.8,7.8C206.5,222.9,206.3,223.1,206.1,223.1z"/>
				</g>
				<g>
					<path class="st4" d="M213.7,210h-13.6c-0.2,0-0.4-0.2-0.4-0.4c0-0.2,0.2-0.4,0.4-0.4h13.6c0.2,0,0.4,0.2,0.4,0.4
						C214,209.9,213.9,210,213.7,210z"/>
				</g>
			</g>
			<g>
				<g>
					<g>
						<g>
							<path class="st8" d="M228.8,245.6l-3.8,0.6c-1,0.2-2.1-0.4-2.5-1.3l-2-4.4c-0.3-0.6-0.2-1.3,0.1-1.9c0.3-0.6,0.9-1,1.5-1.2
								l9.1-2.7c1.2-0.3,2.4,0.5,2.7,1.7c0.3,1.2,0.4,11.8-0.8,12.1l-3.1-7.3l-4.2,0.1l0.2,0.2l2-0.3c1.2-0.2,2.4,0.6,2.6,1.9
								C230.9,244.2,230,245.4,228.8,245.6z"/>
						</g>
					</g>
				</g>
				<g>
					<path class="st4" d="M228.1,247.4l-4,0.7c-1.1,0.2-2.2-0.4-2.6-1.4l-2.7-6.2c-0.3-0.7-0.3-1.4,0.1-2c0.3-0.6,0.9-1.1,1.6-1.3
						l9.6-2.9c1.3-0.3,2.6,0.5,2.9,1.8c0.3,1.3-0.5,2.6-1.8,2.9l-6.8,2.3l0.8,1.8l2.2-0.4c1.3-0.2,2.6,0.7,2.8,2
						C230.3,245.9,229.4,247.1,228.1,247.4z"/>
				</g>
				<g>
					<g>
						<g>
							<g>
								<g>
									<g>
										<g>
											<polygon class="st5" points="286.9,278.8 274,290.7 234.2,250.9 235,236.1 											"/>
										</g>
									</g>
								</g>
								<g>
									<path class="st5" d="M220.1,251.8c-1.3,0-2.3-1-2.3-2.3l0,0c0-1.3,1-2.3,2.3-2.3h21.5c1.3,0,2.3,1,2.3,2.3l0,0
										c0,1.3-1,2.3-2.3,2.3L220.1,251.8z"/>
								</g>
								<path class="st5" d="M243.7,243.7l-8.6-7.4H228v1.5l2.1,1.1c2.2,1.1,3,3.8,1.9,5.9c-0.8,1.6-2.4,2.4-4,2.4v0v0l-4.6,1.6
									l12.3,2.1c1.4,1.4,3.7,1.4,5.1,0c1.4-1.4,1.4-3.7,0-5.1L243.7,243.7z"/>
							</g>
						</g>
					</g>
					<g>
						<g>
							<g>
								<path class="st5" d="M233.3,240.2c-0.4,0-0.8-0.1-1.1-0.3l-8.6-4.2h-11.6c-1.3,0-2.4-1.1-2.4-2.4c0-1.3,1.1-2.4,2.4-2.4
									h12.2c0.4,0,0.8,0.1,1.1,0.3l9.1,4.5c1.2,0.6,1.6,2.1,1,3.3C235,239.7,234.2,240.2,233.3,240.2z"/>
							</g>
						</g>
					</g>
					<polygon class="st9" points="242.4,259.7 281.8,299 295.1,285.7 252.5,249.5 					"/>
				</g>
			</g>
		</g>
	</g>
</g>
<g>
	<g>
		<defs>
			<rect id="SVGID_7_" x="15" y="307.6" width="126.7" height="126.7"/>
		</defs>
		<use xlink:href="#SVGID_7_"  style="overflow:visible;fill:#EC8558;"/>
		<clipPath id="SVGID_8_">
			<use xlink:href="#SVGID_7_"  style="overflow:visible;"/>
		</clipPath>
		<g class="st15">
			<g>
				<g>
					<g>
						<g>
							<g>
								<g>
									<path class="st5" d="M48.1,364.3l0,4.9c0,2,1.6,3.6,3.6,3.6c2,0,3.6-1.6,3.6-3.6v-4.9H48.1z"/>
								</g>
							</g>
							<polygon class="st5" points="69.2,427.7 51,427.7 51.7,370.7 68.5,370.7 							"/>
							<rect x="50.7" y="392.2" class="st3" width="18.9" height="55.7"/>
						</g>
					</g>
				</g>
				<path class="st5" d="M50.8,355.3V370c0,1.6,1.3,2.8,2.8,2.8h14c1.6,0,2.8-1.3,2.8-2.8v-14.7H50.8z"/>
				<rect x="51.3" y="376.3" class="st9" width="17.9" height="6.4"/>
				<g>
					<path d="M67.6,383.3c0,1.6-1.3,2.8-2.8,2.8h-9c-1.6,0-2.8-1.3-2.8-2.8v-7.6c0-1.6,1.3-2.8,2.8-2.8h9c1.6,0,2.8,1.3,2.8,2.8
						V383.3z"/>
					<rect x="54.7" y="374.7" class="st3" width="11.2" height="9.6"/>
					<path class="st3" d="M54.2,381.4c0,0.2-0.2,0.4-0.4,0.4l0,0c-0.2,0-0.4-0.2-0.4-0.4v-3.8c0-0.2,0.2-0.4,0.4-0.4l0,0
						c0.2,0,0.4,0.2,0.4,0.4V381.4z"/>
					<g>
						<g>
							<rect x="55.7" y="378.4" class="st9" width="2.1" height="2.1"/>
							<rect x="59" y="378.4" class="st11" width="2.1" height="2.1"/>
							<rect x="62.4" y="378.4" class="st12" width="2.1" height="2.1"/>
						</g>
						<g>
							<rect x="57.3" y="375.2" class="st13" width="2.1" height="2.1"/>
							<rect x="60.7" y="375.2" class="st14" width="2.1" height="2.1"/>
						</g>
						<g>
							<rect x="57.3" y="381.6" class="st5" width="2.1" height="2.1"/>
							<rect x="60.7" y="381.6" class="st6" width="2.1" height="2.1"/>
						</g>
					</g>
				</g>
				<g>
					<path class="st5" d="M50.6,342c0-1.3,1-2.3,2.3-2.3l0,0c1.3,0,2.3,1,2.3,2.3v18.2c0,1.3-1,2.3-2.3,2.3l0,0
						c-1.3,0-2.3-1-2.3-2.3L50.6,342z"/>
					<path class="st5" d="M45.1,355.4c-0.3-1.3,0.5-2.5,1.8-2.8l0,0c1.3-0.3,2.5,0.5,2.8,1.8l3.2,15c0.3,1.3-0.5,2.5-1.8,2.8l0,0
						c-1.3,0.3-2.5-0.5-2.8-1.8L45.1,355.4z"/>
					<path class="st5" d="M55.7,340.1c0-1.3,1-2.3,2.3-2.3l0,0c1.3,0,2.3,1,2.3,2.3l0,19.7c0,1.3-1,2.2-2.3,2.1l0,0
						c-1.3,0-2.3-0.9-2.3-2.1V340.1z"/>
					<path class="st5" d="M60.9,341.9c0-1.3,1-2.3,2.3-2.3l0,0c1.3,0,2.3,1,2.3,2.3l0,18.2c0,1.3-1,2.3-2.3,2.3l0,0
						c-1.3,0-2.3-1-2.3-2.3V341.9z"/>
					<path class="st5" d="M66.1,345.7c0-1.2,1-2.2,2.2-2.2l0,0c1.2,0,2.2,1,2.2,2.2v19c0,1.2-1,2.2-2.2,2.2l0,0
						c-1.2,0-2.2-1-2.2-2.2V345.7z"/>
				</g>
				<g>
					<path class="st4" d="M59.5,369.1c-0.2,0-0.4-0.2-0.4-0.4c0-3.9-3.2-7.1-7.1-7.1c-0.2,0-0.4-0.2-0.4-0.4c0-0.2,0.2-0.4,0.4-0.4
						c4.3,0,7.8,3.5,7.8,7.8C59.8,368.9,59.7,369.1,59.5,369.1z"/>
				</g>
				<g>
					<path class="st4" d="M67,356H53.5c-0.2,0-0.4-0.2-0.4-0.4c0-0.2,0.2-0.4,0.4-0.4H67c0.2,0,0.4,0.2,0.4,0.4
						C67.4,355.9,67.2,356,67,356z"/>
				</g>
			</g>
			<g>
				<path class="st4" d="M68.1,394.8c-1.1-0.7-1.4-2.1-0.7-3.2l0,0c0.7-1.1,2.1-1.4,3.2-0.7l12.9,8.3c1.1,0.7,1.4,2.1,0.7,3.2l0,0
					c-0.7,1.1-2.1,1.4-3.2,0.7L68.1,394.8z"/>
				<g>
					<g>
						<g>
							<g>
								<g>
									<g>
										<g>
											<g>
												<path class="st4" d="M74,396.5c-1.4-1.4-1.4-3.7,0-5.1l0,0c1.4-1.4,3.7-1.4,5.1,0l6,6c1.4,1.4,1.4,3.7,0,5.1l0,0
													c-1.4,1.4-3.7,1.4-5.1,0L74,396.5z"/>
											</g>
										</g>
									</g>
								</g>
								<polygon class="st5" points="136.3,428.9 115.5,433.7 83.6,401 95.5,389.1 								"/>
								<polygon class="st3" points="85.8,404.7 125.1,444.1 147.8,439.9 99.1,391.3 								"/>
							</g>
						</g>
					</g>
					<path class="st5" d="M72.1,390.7l10.4,10.4c1.1,1.1,2.9,1.1,4,0l9.9-9.9c1.1-1.1,1.1-2.9,0-4l-10.4-10.4L72.1,390.7z"/>
					<g>
						<path class="st5" d="M62.5,381.4c-0.9-0.9-0.9-2.4,0-3.3l0,0c0.9-0.9,2.4-0.9,3.3,0l20.5,20.5c0.9,0.9,0.9,2.4,0,3.3l0,0
							c-0.9,0.9-2.4,0.9-3.3,0L62.5,381.4z"/>
						<path class="st5" d="M73,384.7c-0.9-0.9-0.9-2.4,0-3.3l0,0c0.9-0.9,2.4-0.9,3.3,0l7.1,7.1c0.9,0.9,0.8,2.3-0.1,3.2l0,0
							c-0.9,0.9-2.3,1-3.2,0.1L73,384.7z"/>
						<path class="st5" d="M77.6,382c-0.9-0.9-0.9-2.4,0-3.3l0,0c0.9-0.9,2.4-0.9,3.3,0l6,6c0.9,0.9,0.9,2.4,0,3.3l0,0
							c-0.9,0.9-2.4,0.9-3.3,0L77.6,382z"/>
						<path class="st5" d="M82.9,380c-0.9-0.9-0.9-2.2,0-3.1l0,0c0.8-0.8,2.2-0.8,3.1,0l10.7,10.7c0.8,0.8,0.9,2.2,0,3.1l0,0
							c-0.8,0.8-2.2,0.8-3.1,0L82.9,380z"/>
					</g>
				</g>
			</g>
		</g>
	</g>
</g>
<g>
	<g>
		<defs>
			<rect id="SVGID_9_" x="15" y="161.6" width="126.7" height="126.7"/>
		</defs>
		<use xlink:href="#SVGID_9_"  style="overflow:visible;fill:#596273;"/>
		<clipPath id="SVGID_10_">
			<use xlink:href="#SVGID_9_"  style="overflow:visible;"/>
		</clipPath>
		<g class="st16">
			<g>
				<g>
					<g>
						<g>
							<g>
								<g>
									<g>
										<path class="st5" d="M52.8,242.4c0-2,1.6-3.6,3.6-3.6l0,0c2,0,3.6,1.6,3.6,3.6v8.5c0,2-1.6,3.6-3.6,3.6l0,0
											c-2,0-3.6-1.6-3.6-3.6L52.8,242.4z"/>
									</g>
								</g>
								<polygon class="st5" points="74,309.3 55.8,309.3 56.5,252.4 73.3,252.4 								"/>
								<rect x="55.4" y="255.8" class="st6" width="18.9" height="73.7"/>
							</g>
						</g>
					</g>
					<path class="st5" d="M55.6,236.9v14.7c0,1.6,1.3,2.8,2.8,2.8h14c1.6,0,2.8-1.3,2.8-2.8v-14.7H55.6z"/>
					<g>
						<path class="st5" d="M55.4,223.6c0-1.3,1-2.3,2.3-2.3l0,0c1.3,0,2.3,1,2.3,2.3v18.2c0,1.3-1,2.3-2.3,2.3l0,0
							c-1.3,0-2.3-1-2.3-2.3L55.4,223.6z"/>
						<path class="st5" d="M60.5,221.7c0-1.3,1-2.3,2.3-2.3l0,0c1.3,0,2.3,1,2.3,2.3v19.7c0,1.3-1,2.2-2.3,2.1l0,0
							c-1.3,0-2.3-0.9-2.3-2.1V221.7z"/>
						<path class="st5" d="M65.6,223.6c0-1.3,1-2.3,2.3-2.3l0,0c1.3,0,2.3,1,2.3,2.3l0,18.2c0,1.3-1,2.3-2.3,2.3l0,0
							c-1.3,0-2.3-1-2.3-2.3V223.6z"/>
						<path class="st5" d="M70.8,227.4c0-1.2,1-2.2,2.2-2.2l0,0c1.2,0,2.2,1,2.2,2.2v19c0,1.2-1,2.2-2.2,2.2l0,0
							c-1.2,0-2.2-1-2.2-2.2V227.4z"/>
					</g>
					<g>
						<path class="st4" d="M64.2,250.7c-0.2,0-0.4-0.2-0.4-0.4c0-3.9-3.2-7.1-7.1-7.1c-0.2,0-0.4-0.2-0.4-0.4c0-0.2,0.2-0.4,0.4-0.4
							c4.3,0,7.8,3.5,7.8,7.8C64.6,250.5,64.4,250.7,64.2,250.7z"/>
					</g>
					<g>
						<path class="st4" d="M71.8,237.8H58.2c-0.2,0-0.4-0.2-0.4-0.4c0-0.2,0.2-0.4,0.4-0.4h13.6c0.2,0,0.4,0.2,0.4,0.4
							C72.1,237.7,72,237.8,71.8,237.8z"/>
					</g>
				</g>
				<g>
					<g>
						<path class="st4" d="M87.3,237.8h13.6c0.2,0,0.4-0.2,0.4-0.4c0-0.2-0.2-0.4-0.4-0.4H87.3c-0.2,0-0.4,0.2-0.4,0.4
							C87,237.7,87.1,237.8,87.3,237.8z"/>
					</g>
					<g>
						<rect x="55.1" y="236.9" class="st4" width="20.1" height="4.4"/>
						<path d="M109.3,237.4c0,1.3-1,2.3-2.3,2.3H52.3c-1.3,0-2.3-1-2.3-2.3v-40.3c0-1.3,1-2.3,2.3-2.3H107c1.3,0,2.3,1,2.3,2.3
							V237.4z"/>
						<rect x="53.1" y="197.7" class="st3" width="53.1" height="37.3"/>
					</g>
				</g>
				<path class="st5" d="M49.9,237.1c-0.3-1.3,0.5-2.5,1.8-2.8l0,0c1.3-0.3,2.5,0.5,2.8,1.8l3.2,15c0.3,1.3-0.5,2.5-1.8,2.8l0,0
					c-1.3,0.3-2.5-0.5-2.8-1.8L49.9,237.1z"/>
			</g>
			<g>
				<g>
					<path class="st13" d="M75.1,223.6c-2.7,0-4.8-2.2-4.8-4.8c0-2.7,2.2-4.8,4.8-4.8c2.7,0,4.8,2.2,4.8,4.8
						C79.9,221.5,77.8,223.6,75.1,223.6z M75.1,215.4c-1.9,0-3.4,1.5-3.4,3.4c0,1.9,1.5,3.4,3.4,3.4c1.9,0,3.4-1.5,3.4-3.4
						C78.5,217,77,215.4,75.1,215.4z"/>
				</g>
				<g>
					<path class="st13" d="M84.7,220.7c-2.7,0-4.8-2.2-4.8-4.8c0-2.7,2.2-4.8,4.8-4.8c2.7,0,4.8,2.2,4.8,4.8
						C89.5,218.6,87.4,220.7,84.7,220.7z M84.7,212.5c-1.9,0-3.4,1.5-3.4,3.4c0,1.9,1.5,3.4,3.4,3.4c1.9,0,3.4-1.5,3.4-3.4
						C88.1,214,86.6,212.5,84.7,212.5z"/>
				</g>
				<g>
					<g>
						<path class="st5" d="M71.8,231.4c-0.3-1.3,0.5-2.5,1.8-2.8l0,0c1.3-0.3,2.5,0.5,2.8,1.8l3.2,15c0.3,1.3-0.5,2.5-1.8,2.8l0,0
							c-1.3,0.3-2.5-0.5-2.8-1.8L71.8,231.4z"/>
						<g>
							<g>
								<g>
									<g>
										<g>
											<g>
												<path class="st5" d="M74.7,236.7c0-2,1.6-3.6,3.6-3.6l0,0c2,0,3.6,1.6,3.6,3.6v8.5c0,2-1.6,3.6-3.6,3.6l0,0
													c-2,0-3.6-1.6-3.6-3.6L74.7,236.7z"/>
											</g>
										</g>
										<polygon class="st5" points="95.9,303.7 77.6,303.7 78.4,246.7 95.2,246.7 										"/>
										<rect x="77.3" y="250.8" class="st6" width="18.9" height="55.7"/>
									</g>
								</g>
							</g>
							<path class="st5" d="M77.5,231.3V246c0,1.6,1.3,2.8,2.8,2.8h14c1.6,0,2.8-1.3,2.8-2.8v-14.7H77.5z"/>
							<g>
								<path class="st5" d="M82.4,216.1c0-1.3,1-2.3,2.3-2.3l0,0c1.3,0,2.3,1,2.3,2.3l0,21.7c0,1.3-1,2.2-2.3,2.1l0,0
									c-1.3,0-2.3-0.9-2.3-2.1V216.1z"/>
								<path class="st5" d="M87.5,229c0-1.3,1-2.3,2.3-2.3l0,0c1.3,0,2.3,1,2.3,2.3l0,8.5c0,1.3-1,2.3-2.3,2.3l0,0
									c-1.3,0-2.3-1-2.3-2.3V229z"/>
								<path class="st5" d="M92.7,231.3c0-1.2,1-2.2,2.2-2.2l0,0c1.2,0,2.2,1,2.2,2.2v15.1c0,1.2-1,2.2-2.2,2.2l0,0
									c-1.2,0-2.2-1-2.2-2.2V231.3z"/>
							</g>
						</g>
					</g>
				</g>
				<g>
					<path class="st5" d="M79.9,236.7L79.9,236.7c-1.3,0-2.4-1.1-2.4-2.4l0-1.8L73,219.9c-0.4-1.3,0.2-2.6,1.5-3.1
						c1.3-0.4,2.6,0.2,3.1,1.5l4.6,13c0.1,0.3,0.1,0.5,0.1,0.8l0,2.2C82.3,235.6,81.2,236.7,79.9,236.7z"/>
				</g>
			</g>
		</g>
	</g>
</g>
<g>
	<g>
		<defs>
			<rect id="SVGID_11_" x="15" y="15.7" width="126.7" height="126.7"/>
		</defs>
		<use xlink:href="#SVGID_11_"  style="overflow:visible;fill:#EC8558;"/>
		<clipPath id="SVGID_12_">
			<use xlink:href="#SVGID_11_"  style="overflow:visible;"/>
		</clipPath>
		<g class="st17">
			<g>
				<g>
					<g>
						<g>
							<path d="M39.8,102.8c0,1.7,1.3,3,3,3h69.3c1.7,0,3-1.3,3-3V51.9c0-1.7-1.3-3-3-3H42.8c-1.7,0-3,1.3-3,3V102.8z"/>
							<rect x="43.4" y="52.4" class="st3" width="68.2" height="49.9"/>
						</g>
					</g>
				</g>
				<path d="M111.8,105.6c0,0.4-0.3,0.7-0.7,0.7H43.9c-0.4,0-0.7-0.3-0.7-0.7l0,0c0-0.4,0.3-0.7,0.7-0.7h67.2
					C111.5,104.9,111.8,105.2,111.8,105.6L111.8,105.6z"/>
				<g>
					<g>
						<path class="st2" d="M50.6,105.6c0,0.4-0.3,0.7-0.7,0.7h-1.5c-0.4,0-0.7-0.3-0.7-0.7l0,0c0-0.4,0.3-0.7,0.7-0.7h1.5
							C50.3,104.9,50.6,105.2,50.6,105.6L50.6,105.6z"/>
						<path class="st2" d="M107.2,105.6c0,0.4-0.3,0.7-0.7,0.7H105c-0.4,0-0.7-0.3-0.7-0.7l0,0c0-0.4,0.3-0.7,0.7-0.7h1.5
							C106.9,104.9,107.2,105.2,107.2,105.6L107.2,105.6z"/>
					</g>
				</g>
				<g>
					<path class="st2" d="M121,105.8c0,2.5-2,4.4-4.4,4.4H38.4c-2.5,0-4.4-2-4.4-4.4H121z"/>
					<path d="M120.4,108c-0.8,1.3-2.2,2.2-3.8,2.2H38.4c-1.6,0-3.1-0.9-3.8-2.2H120.4z"/>
				</g>
			</g>
			<g>
				<g>
					<g>
						<g>
							<path class="st8" d="M90.3,88.4l0.6,3.8c0.2,1-0.4,2.1-1.3,2.5l-4.4,2c-0.6,0.3-1.3,0.2-1.9-0.1c-0.6-0.3-1-0.9-1.2-1.5
								l-2.7-9.1c-0.3-1.2,0.5-2.4,1.7-2.7c1.2-0.3,11.8-0.4,12.1,0.8l-7.3,3.1l0.1,4.2l0.2-0.2l-0.3-2c-0.2-1.2,0.6-2.4,1.9-2.6
								C88.9,86.4,90.1,87.2,90.3,88.4z"/>
						</g>
					</g>
				</g>
				<g>
					<path class="st4" d="M92,89.1l0.7,4c0.2,1.1-0.4,2.2-1.4,2.6l-6.2,2.7c-0.7,0.3-1.4,0.3-2-0.1c-0.6-0.3-1.1-0.9-1.3-1.6
						l-2.9-9.6c-0.3-1.3,0.5-2.6,1.8-2.9c1.3-0.3,2.6,0.5,2.9,1.8l2.3,6.8l1.8-0.8l-0.4-2.2c-0.2-1.3,0.7-2.6,2-2.8
						C90.5,86.9,91.8,87.8,92,89.1z"/>
				</g>
				<g>
					<g>
						<g>
							<g>
								<g>
									<path class="st5" d="M96.5,97.2c0,1.3-1,2.3-2.3,2.3l0,0c-1.3,0-2.3-1-2.3-2.3V76.4c0-1.3,1-2.3,2.3-2.3l0,0
										c1.3,0,2.3,1,2.3,2.3L96.5,97.2z"/>
								</g>
								<path class="st5" d="M95.5,73.4c-4,0.1-8.8,2.1-10.9,4.4l-3.7,4.3v7.1h1.5l1.1-2.1c1.1-2.2,3.8-3,5.9-1.9
									c1.6,0.8,2.4,2.4,2.4,4c0,0,0,0,0,0l1.6,4.6c0,0,2.1-2.1,3-4.8c0.8-2.6,3.3-4.7,7.3-4.6l42.6,0.9l-11.9-12.9L95.5,73.4z"/>
							</g>
						</g>
					</g>
					<g>
						<g>
							<g>
								<path class="st5" d="M84.9,83.9c0,0.4-0.1,0.8-0.3,1.1l-4.2,7.9v8.8c0,1.3-1.1,2.4-2.4,2.4c-1.3,0-2.4-1.1-2.4-2.4v-9.3
									c0-0.4,0.1-0.8,0.3-1.1l4.5-8.4c0.6-1.2,2.1-1.6,3.3-1C84.4,82.2,84.9,83,84.9,83.9z"/>
							</g>
						</g>
					</g>
					<polygon class="st9" points="100.4,86.8 156.1,90.3 156.1,71.4 100.4,72.4 					"/>
				</g>
			</g>
		</g>
	</g>
</g>
<g>
	<g>
		<defs>
			<rect id="SVGID_13_" x="308.3" y="307.6" width="126.7" height="126.7"/>
		</defs>
		<use xlink:href="#SVGID_13_"  style="overflow:visible;fill:#72BCC5;"/>
		<clipPath id="SVGID_14_">
			<use xlink:href="#SVGID_13_"  style="overflow:visible;"/>
		</clipPath>
		<g class="st18">
			<g>
				<g>
					<g>
						<g>
							<polygon class="st4" points="376.1,437.9 357.9,437.9 358.6,380.9 375.4,380.9 375.6,391.7 							"/>
						</g>
					</g>
				</g>
				<g>
					<g>
						<path class="st4" d="M370.3,369l-10.4,10.4c-1.1,1.1-1.1,2.9,0,4l10,10c1.1,1.1,2.9,1.1,4,0l10.4-10.4L370.3,369z"/>
						<path class="st4" d="M369.6,369.7c-5.4,5.2-7.3,2.8-7.3,1.5V369l-1.6-1.4l-2.1,9.4c-1.4,1.4-1.4,3.7,0,5.1
							c1.4,1.4,3.7,1.4,5.1,0l2.2-2.2h3.6C369.6,380,370.3,369.1,369.6,369.7z"/>
						<g>
							<path class="st4" d="M382.6,356.6c0.9-0.9,2.4-0.9,3.3,0l0,0c0.9,0.9,0.9,2.4,0,3.3l-12.8,12.8c-0.9,0.9-2.4,0.9-3.3,0l0,0
								c-0.9-0.9-0.9-2.4,0-3.3L382.6,356.6z"/>
							<path class="st4" d="M357.7,364.4c0-1.3,1.1-2.3,2.4-2.3l0,0c1.3,0,2.3,1.1,2.3,2.4l-0.1,15.3c0,1.3-1.1,2.3-2.4,2.3l0,0
								c-1.3,0-2.3-1.1-2.3-2.4L357.7,364.4z"/>
							<path class="st4" d="M384.1,362.1c0.9-0.9,2.4-0.9,3.3,0l0,0c0.9,0.9,0.9,2.4,0,3.3l-12.8,12.9c-0.9,0.9-2.3,0.8-3.2-0.1l0,0
								c-0.9-0.9-1-2.3-0.1-3.2L384.1,362.1z"/>
							<path class="st4" d="M384.5,368.9c0.9-0.9,2.4-0.9,3.3,0l0,0c0.9,0.9,0.9,2.4,0,3.3L377.1,383c-0.9,0.9-2.4,0.9-3.3,0l0,0
								c-0.9-0.9-0.9-2.4,0-3.3L384.5,368.9z"/>
							<path class="st5" d="M382.1,378.9l-10.4,10.4c-0.8,0.9-0.9,2.2,0,3.1c0.9,0.9,2.2,0.9,3.1,0l7.4-7.4V378.9z"/>
							<polygon class="st4" points="383.2,381.9 374.6,373.4 365.9,373.4 362.3,376.9 362.3,402.5 375.7,402.9 375.6,391.8 
								383.2,384.1 							"/>
						</g>
						<g>
							<path class="st4" d="M366.8,385c-0.1-0.1-0.1-0.4,0-0.5c2.8-2.8,2.8-7.3,0-10c-0.1-0.1-0.1-0.4,0-0.5c0.1-0.1,0.4-0.1,0.5,0
								c3,3,3,8,0,11C367.1,385.2,366.9,385.2,366.8,385z"/>
						</g>
						<g>
							<path class="st4" d="M381.2,381.3l-9.6-9.6c-0.1-0.1-0.1-0.4,0-0.5c0.1-0.1,0.4-0.1,0.5,0l9.6,9.6c0.1,0.1,0.1,0.4,0,0.5
								C381.6,381.4,381.4,381.4,381.2,381.3z"/>
						</g>
					</g>
					<g>
						<path d="M383.2,386c0,1.3-1,2.3-2.3,2.3h-16.2c-1.3,0-2.3-1-2.3-2.3v-30.1c0-1.3,1-2.3,2.3-2.3h16.2c1.3,0,2.3,1,2.3,2.3V386z
							"/>
						<rect x="363.8" y="355.2" class="st3" width="17.9" height="29.7"/>
					</g>
					<g>
						<path class="st4" d="M384.6,368.8c0.9-0.9,2.4-0.9,3.3,0l0,0c0.9,0.9,0.9,2.4,0,3.3l-3.9,3.9c-0.9,0.9-2.4,0.9-3.3,0l0,0
							c-0.9-0.9-0.9-2.4,0-3.3L384.6,368.8z"/>
						<path class="st4" d="M384.3,361.9c0.9-0.9,2.4-0.9,3.3,0l0,0c0.9,0.9,0.9,2.4,0,3.3l-3.5,3.6c-0.9,0.9-2.4,0.9-3.3,0l0,0
							c-0.9-0.9-0.9-2.4,0-3.3L384.3,361.9z"/>
						<path class="st4" d="M382.3,378.9c0.9-0.9,2.2-0.9,3.1,0l0,0c0.9,0.8,0.9,2.2,0,3.1l-1.8,1.8c-0.8,0.8-2.2,0.8-3.1,0l0,0
							c-0.8-0.9-0.8-2.2,0-3.1L382.3,378.9z"/>
					</g>
					<path class="st4" d="M386.6,358.2c0,1.3-1,2.3-2.3,2.3s-2.3-1-2.3-2.3c0-1.3,1-2.3,2.3-2.3S386.6,356.9,386.6,358.2z"/>
				</g>
				<rect x="357.6" y="392.2" class="st9" width="18.9" height="55.7"/>
			</g>
			<g>
				<g>
					<path class="st6" d="M376.5,373.5c-0.2,0-0.4-0.1-0.5-0.2c-0.3-0.3-0.3-0.7,0-1c1.6-1.6,1.6-4.2,0-5.8c-1.6-1.6-4.2-1.6-5.8,0
						c-1.6,1.6-1.6,4.2,0,5.8c0.3,0.3,0.3,0.7,0,1c-0.3,0.3-0.7,0.3-1,0c-2.2-2.2-2.2-5.7,0-7.8c2.2-2.2,5.7-2.2,7.8,0
						c2.2,2.2,2.2,5.7,0,7.8C376.9,373.4,376.7,373.5,376.5,373.5z"/>
				</g>
			</g>
			<g>
				<path class="st5" d="M373,385.1c-0.9-1-0.8-2.4,0.2-3.3l0,0c1-0.9,2.4-0.8,3.3,0.2l10.3,11.4c0.9,1,0.8,2.4-0.2,3.3l0,0
					c-1,0.9-2.4,0.8-3.3-0.2L373,385.1z"/>
				<g>
					<g>
						<g>
							<g>
								<g>
									<g>
										<path class="st5" d="M378.3,388.3c-1-1.7-0.4-4,1.3-5l0,0c1.7-1,4-0.4,5,1.3l4.2,7.3c1,1.7,0.4,4-1.3,5l0,0
											c-1.7,1-4,0.4-5-1.3L378.3,388.3z"/>
									</g>
								</g>
								<polygon class="st5" points="430.1,435.6 414.4,444.7 386.4,395.1 401,386.7 								"/>
								
									<rect x="400.3" y="390.7" transform="matrix(0.8651 -0.5016 0.5016 0.8651 -154.6543 261.9478)" class="st9" width="18.9" height="55.7"/>
							</g>
						</g>
					</g>
					<path class="st5" d="M377.9,382.2l7.4,12.7c0.8,1.3,2.5,1.8,3.9,1l12.1-7c1.4-0.8,1.8-2.5,1-3.9l-7.4-12.7L377.9,382.2z"/>
					<g>
						<path class="st5" d="M371,370.7c-0.6-1.1-0.3-2.5,0.8-3.2l0,0c1.1-0.6,2.5-0.3,3.2,0.8l14.5,25.1c0.6,1.1,0.3,2.5-0.8,3.2l0,0
							c-1.1,0.6-2.5,0.3-3.2-0.8L371,370.7z"/>
						<path class="st5" d="M380.3,376.6c-0.6-1.1-0.3-2.5,0.8-3.2l0,0c1.1-0.6,2.5-0.3,3.2,0.8l5.1,8.7c0.6,1.1,0.2,2.4-0.9,3l0,0
							c-1.1,0.6-2.4,0.4-3.1-0.7L380.3,376.6z"/>
						<path class="st5" d="M385.5,375.2c-0.6-1.1-0.3-2.5,0.8-3.2l0,0c1.1-0.6,2.5-0.3,3.2,0.8l4.3,7.4c0.6,1.1,0.3,2.5-0.8,3.2l0,0
							c-1.1,0.6-2.5,0.3-3.2-0.8L385.5,375.2z"/>
						<path class="st5" d="M391.1,374.6c-0.6-1-0.3-2.4,0.8-3l0,0c1-0.6,2.4-0.2,3,0.8l7.6,13.1c0.6,1,0.3,2.4-0.8,3l0,0
							c-1,0.6-2.4,0.2-3-0.8L391.1,374.6z"/>
					</g>
				</g>
			</g>
		</g>
	</g>
</g>
<g>
	<g>
		<defs>
			<rect id="SVGID_15_" x="308.3" y="161.6" width="126.7" height="126.7"/>
		</defs>
		<use xlink:href="#SVGID_15_"  style="overflow:visible;fill:#596273;"/>
		<clipPath id="SVGID_16_">
			<use xlink:href="#SVGID_15_"  style="overflow:visible;"/>
		</clipPath>
		<g class="st19">
			<g>
				<g>
					<g>
						<g>
							<g>
								<g>
									<polygon class="st5" points="319.2,273.1 306.3,260.2 347.1,220.4 359,232.3 									"/>
								</g>
							</g>
						</g>
						<path class="st5" d="M364.1,219.9h-14.7c-1.6,0-2.8,1.3-2.8,2.8l0,14.2c0,1.6,1.3,2.8,2.8,2.8h14.7L364.1,219.9z"/>
						<path class="st5" d="M363.1,219.9c-7.5-0.2-7.1-3.2-6.2-4.1l1.6-1.6l-0.2-2.1l-8.1,5.2c-2,0-3.6,1.6-3.6,3.6
							c0,2,1.6,3.6,3.6,3.6h3.2l2.5,2.5C355.9,227.1,364,219.9,363.1,219.9z"/>
						<g>
							<path class="st5" d="M381.8,219.9c1.3,0,2.3,1,2.3,2.3l0,0c0,1.3-1,2.3-2.3,2.3h-22.5c-1.3,0-2.3-1-2.3-2.3l0,0
								c0-1.3,1-2.3,2.3-2.3H381.8z"/>
							<path class="st5" d="M383.6,225c1.3,0,2.3,1,2.3,2.3l0,0c0,1.3-1,2.3-2.3,2.3h-24.1c-1.3,0-2.2-1-2.1-2.3l0,0
								c0-1.3,0.9-2.3,2.1-2.3L383.6,225z"/>
							<path class="st5" d="M381.8,230.1c1.3,0,2.3,1,2.3,2.3l0,0c0,1.3-1,2.3-2.3,2.3l-22.5,0c-1.3,0-2.3-1-2.3-2.3l0,0
								c0-1.3,1-2.3,2.3-2.3H381.8z"/>
							<path class="st5" d="M378,235.3c1.2,0,2.2,1,2.2,2.2l0,0c0,1.2-1,2.2-2.2,2.2l-23.3,0c-1.2,0-2.2-1-2.2-2.2l0,0
								c0-1.2,1-2.2,2.2-2.2H378z"/>
							<path class="st4" d="M364.1,230.1l0-10.3h-5.9v15c0,1.3,1,2.3,2.3,2.3h16.2c1.1,0,1.9-0.7,2.2-1.7c-0.3-0.1-0.6-0.2-1-0.2
								h-13.9v-0.5h15v-4.7H364.1z"/>
						</g>
						<g>
							<path class="st4" d="M350.3,228.7c0-0.2,0.2-0.4,0.4-0.4c3.9,0,7.1-3.2,7.1-7.1c0-0.2,0.2-0.4,0.4-0.4c0.2,0,0.4,0.2,0.4,0.4
								c0,4.3-3.5,7.8-7.8,7.8C350.4,229.1,350.3,228.9,350.3,228.7z"/>
						</g>
						<g>
							<path class="st4" d="M363.1,236.3v-13.6c0-0.2,0.2-0.4,0.4-0.4c0.2,0,0.4,0.2,0.4,0.4v13.6c0,0.2-0.2,0.4-0.4,0.4
								C363.3,236.6,363.1,236.5,363.1,236.3z"/>
						</g>
					</g>
					<polygon class="st3" points="339.3,226.6 300,266 303.6,288.8 352.7,240 					"/>
				</g>
				<g>
					<path d="M379,232.5c0,1.3-1,2.3-2.3,2.3h-16.2c-1.3,0-2.3-1-2.3-2.3v-30.1c0-1.3,1-2.3,2.3-2.3h16.2c1.3,0,2.3,1,2.3,2.3V232.5
						z"/>
					<rect x="359.7" y="201.7" class="st3" width="17.9" height="29.7"/>
				</g>
				<path class="st5" d="M358.5,207.7c0.9-0.9,2.4-0.9,3.3,0l0,0c0.9,0.9,0.9,2.4,0,3.3l-10.9,10.7c-0.9,0.9-2.4,0.9-3.3,0l0,0
					c-0.9-0.9-0.9-2.4,0-3.3L358.5,207.7z"/>
			</g>
			<g>
				<g>
					<g>
						<g>
							<path class="st8" d="M385.6,228.9l-3.8,0.6c-1,0.2-2.1-0.4-2.5-1.3l-2-4.4c-0.3-0.6-0.2-1.3,0.1-1.9c0.3-0.6,0.9-1,1.5-1.2
								l9.1-2.7c1.2-0.3,2.4,0.5,2.7,1.7c0.3,1.2,0.4,11.8-0.8,12.1l-3.1-7.3l-4.2,0.1l0.2,0.2l2-0.3c1.2-0.2,2.4,0.6,2.6,1.9
								C387.7,227.6,386.8,228.7,385.6,228.9z"/>
						</g>
					</g>
				</g>
				<g>
					<path class="st4" d="M384.9,230.7l-4,0.7c-1.1,0.2-2.2-0.4-2.6-1.4l-2.7-6.2c-0.3-0.7-0.3-1.4,0.1-2c0.3-0.6,0.9-1.1,1.6-1.3
						l9.6-2.9c1.3-0.3,2.6,0.5,2.9,1.8c0.3,1.3-0.5,2.6-1.8,2.9l-6.8,2.3l0.8,1.8l2.2-0.4c1.3-0.2,2.6,0.7,2.8,2
						C387.1,229.2,386.2,230.4,384.9,230.7z"/>
				</g>
				<g>
					<g>
						<g>
							<g>
								<g>
									<g>
										<g>
											<polygon class="st5" points="443.7,262.1 430.8,274.1 391,234.2 391.8,219.4 											"/>
										</g>
									</g>
								</g>
								<g>
									<path class="st5" d="M376.9,235.2c-1.3,0-2.3-1-2.3-2.3l0,0c0-1.3,1-2.3,2.3-2.3h21.5c1.3,0,2.3,1,2.3,2.3l0,0
										c0,1.3-1,2.3-2.3,2.3L376.9,235.2z"/>
								</g>
								<path class="st5" d="M400.5,227l-8.6-7.4h-7.1v1.5l2.1,1.1c2.2,1.1,3,3.8,1.9,5.9c-0.8,1.6-2.4,2.4-4,2.4v0v0l-4.6,1.6
									l12.3,2.1c1.4,1.4,3.7,1.4,5.1,0c1.4-1.4,1.4-3.7,0-5.1L400.5,227z"/>
							</g>
						</g>
					</g>
					<g>
						<g>
							<g>
								<path class="st5" d="M390.1,223.5c-0.4,0-0.8-0.1-1.1-0.3l-8.6-4.2h-11.6c-1.3,0-2.4-1.1-2.4-2.4c0-1.3,1.1-2.4,2.4-2.4H381
									c0.4,0,0.8,0.1,1.1,0.3l9.1,4.5c1.2,0.6,1.6,2.1,1,3.3C391.8,223,391,223.5,390.1,223.5z"/>
							</g>
						</g>
					</g>
					<polygon class="st3" points="399.2,243 438.6,282.4 451.9,269 409.3,232.8 					"/>
				</g>
			</g>
		</g>
	</g>
</g>
<g>
	<g>
		<defs>
			<rect id="SVGID_17_" x="161.6" y="15.7" width="126.7" height="126.7"/>
		</defs>
		<use xlink:href="#SVGID_17_"  style="overflow:visible;fill:#72BCC5;"/>
		<clipPath id="SVGID_18_">
			<use xlink:href="#SVGID_17_"  style="overflow:visible;"/>
		</clipPath>
		<g class="st20">
			<g>
				<path d="M271.7,77H271V51.8c0-1.8-1.5-3.2-3.2-3.2h-77.3c-1.8,0-3.2,1.4-3.2,3.2v0.1c0,1.8,1.4,3.2,3.2,3.2h14.4
					c2.2,0,3.9,1.7,3.9,3.9v3.5H208v-3.5c0-1.7-1.4-3.1-3.2-3.1h-14.4c-2.2,0-3.9-1.8-3.9-3.9v-0.1c0-2.2,1.8-3.9,3.9-3.9h77.3
					c2.2,0,3.9,1.8,3.9,3.9V77z"/>
			</g>
			<g>
				<g>
					<path d="M282.5,88.4c0,11.1-5,20-11.1,20c-6.2,0-11.1-9-11.1-20c0-11.1,5-15.2,11.1-15.2C277.5,73.2,282.5,77.3,282.5,88.4z"/>
					<g>
						<path class="st2" d="M282.4,87.2c-0.3-9.9-4.9-13.7-10.6-14v19.7C276.1,92.7,279.9,90.5,282.4,87.2z"/>
						<path class="st2" d="M260.2,87.2c2.5,3.4,6.3,5.6,10.6,5.8V73.2C265.1,73.4,260.6,77.3,260.2,87.2z"/>
						<path class="st21" d="M270.8,73.2c0.2,0,0.3,0,0.5,0c0.2,0,0.3,0,0.5,0H270.8z"/>
					</g>
				</g>
				<g>
					<g>
						<g>
							<g>
								<path class="st4" d="M258.4,95.2c-0.3-1.3,0.5-2.5,1.8-2.8l0,0c1.3-0.3,2.5,0.5,2.8,1.8l3.2,15c0.3,1.3-0.5,2.5-1.8,2.8l0,0
									c-1.3,0.3-2.5-0.5-2.8-1.8L258.4,95.2z"/>
								<g>
									<g>
										<path class="st4" d="M261.3,104.7v4.3c0,2,1.6,3.6,3.6,3.6c2,0,3.6-1.6,3.6-3.6v-4.3H261.3z"/>
									</g>
								</g>
								<polygon class="st5" points="282.5,167.5 264.2,167.5 265,110.5 281.8,110.5 								"/>
								<rect x="263.9" y="115.8" class="st3" width="18.9" height="71.9"/>
							</g>
						</g>
					</g>
					<path class="st5" d="M264.1,95.1v14.7c0,1.6,1.3,2.8,2.8,2.8h14c1.6,0,2.8-1.3,2.8-2.8V95.1H264.1z"/>
					<g>
						<path class="st5" d="M263.9,81.7c0-1.3,1-2.3,2.3-2.3l0,0c1.3,0,2.3,1,2.3,2.3v29c0,1.3-1,2.3-2.3,2.3l0,0
							c-1.3,0-2.3-1-2.3-2.3V81.7z"/>
						<path class="st5" d="M269,79.9c0-1.3,1-2.3,2.3-2.3l0,0c1.3,0,2.3,1,2.3,2.3v19.7c0,1.3-1,2.2-2.3,2.1l0,0
							c-1.3,0-2.3-0.9-2.3-2.1V79.9z"/>
						<path class="st5" d="M274.1,81.7c0-1.3,1-2.3,2.3-2.3l0,0c1.3,0,2.3,1,2.3,2.3l0,18.1c0,1.3-1,2.3-2.3,2.3l0,0
							c-1.3,0-2.3-1-2.3-2.3V81.7z"/>
						<path class="st5" d="M279.3,85.5c0-1.2,1-2.2,2.2-2.2l0,0c1.2,0,2.2,1,2.2,2.2v19c0,1.2-1,2.2-2.2,2.2l0,0
							c-1.2,0-2.2-1-2.2-2.2V85.5z"/>
					</g>
				</g>
			</g>
			<g>
				<g>
					<g>
						<g>
							<g>
								<g>
									<path class="st22" d="M252.6,99.3h-83.7c-1.2,0-2.2-1-2.2-2.2V63.4c0-1.2,1-2.2,2.2-2.2h83.7c1.2,0,2.2,1,2.2,2.2v33.7
										C254.8,98.3,253.8,99.3,252.6,99.3z"/>
								</g>
							</g>
							<g>
								<g>
									<g>
										<rect x="174.9" y="68" class="st3" width="5.4" height="4.9"/>
									</g>
									<g>
										<rect x="183.2" y="68" class="st3" width="5.4" height="4.9"/>
									</g>
									<g>
										<rect x="191.5" y="68" class="st3" width="5.4" height="4.9"/>
									</g>
									<g>
										<rect x="199.8" y="68" class="st3" width="5.4" height="4.9"/>
									</g>
									<g>
										<rect x="208" y="68" class="st3" width="5.4" height="4.9"/>
									</g>
									<g>
										<rect x="216.3" y="68" class="st3" width="5.4" height="4.9"/>
									</g>
									<g>
										<rect x="224.6" y="68" class="st3" width="5.4" height="4.9"/>
									</g>
									<g>
										<rect x="232.9" y="68" class="st3" width="5.4" height="4.9"/>
									</g>
									<g>
										<rect x="241.2" y="68" class="st3" width="5.4" height="4.9"/>
									</g>
									<g>
										<rect x="174.9" y="87.3" class="st3" width="5.4" height="4.9"/>
									</g>
									<g>
										<rect x="224.6" y="87.3" class="st3" width="5.4" height="4.9"/>
									</g>
									<g>
										<rect x="232.9" y="87.3" class="st3" width="5.4" height="4.9"/>
									</g>
									<g>
										<rect x="241.2" y="87.3" class="st3" width="5.4" height="4.9"/>
									</g>
									<g>
										<rect x="174.9" y="77.5" class="st3" width="5.4" height="4.9"/>
									</g>
									<g>
										<rect x="183.2" y="77.5" class="st3" width="5.4" height="4.9"/>
									</g>
									<g>
										<rect x="191.5" y="77.5" class="st3" width="5.4" height="4.9"/>
									</g>
									<g>
										<rect x="199.8" y="77.5" class="st3" width="5.4" height="4.9"/>
									</g>
									<g>
										<rect x="208" y="77.5" class="st3" width="5.4" height="4.9"/>
									</g>
									<g>
										<rect x="216.3" y="77.5" class="st3" width="5.4" height="4.9"/>
									</g>
									<g>
										<rect x="224.6" y="77.5" class="st3" width="5.4" height="4.9"/>
									</g>
									<g>
										<rect x="232.9" y="77.5" class="st3" width="5.4" height="4.9"/>
									</g>
									<g>
										<rect x="241.2" y="77.5" class="st3" width="5.4" height="4.9"/>
									</g>
									<g>
										<rect x="183.2" y="87.3" class="st3" width="39.1" height="4.9"/>
									</g>
								</g>
							</g>
						</g>
					</g>
				</g>
				<g>
					<g>
						<g>
							<g>
								<path class="st4" d="M223.4,95.2c0.3-1.3-0.5-2.5-1.8-2.8l0,0c-1.3-0.3-2.5,0.5-2.8,1.8l-3.2,15c-0.3,1.3,0.5,2.5,1.8,2.8
									l0,0c1.3,0.3,2.5-0.5,2.8-1.8L223.4,95.2z"/>
								<g>
									<g>
										<path class="st4" d="M220.4,104.7v4.3c0,2-1.6,3.6-3.6,3.6c-2,0-3.6-1.6-3.6-3.6v-4.3H220.4z"/>
									</g>
								</g>
								<polygon class="st5" points="199.3,167.5 217.5,167.5 216.8,110.5 200,110.5 								"/>
								<rect x="198.9" y="115.8" class="st3" width="18.9" height="71.9"/>
							</g>
						</g>
					</g>
					<path class="st5" d="M217.7,95.1v14.7c0,1.6-1.3,2.8-2.8,2.8h-14c-1.6,0-2.8-1.3-2.8-2.8V95.1H217.7z"/>
					<g>
						<path class="st5" d="M217.9,81.7c0-1.3-1-2.3-2.3-2.3l0,0c-1.3,0-2.3,1-2.3,2.3v29c0,1.3,1,2.3,2.3,2.3l0,0
							c1.3,0,2.3-1,2.3-2.3V81.7z"/>
						<path class="st5" d="M212.8,79.9c0-1.3-1-2.3-2.3-2.3l0,0c-1.3,0-2.3,1-2.3,2.3v19.7c0,1.3,1,2.2,2.3,2.1l0,0
							c1.3,0,2.3-0.9,2.3-2.1V79.9z"/>
						<path class="st5" d="M207.6,81.7c0-1.3-1-2.3-2.3-2.3l0,0c-1.3,0-2.3,1-2.3,2.3l0,18.1c0,1.3,1,2.3,2.3,2.3l0,0
							c1.3,0,2.3-1,2.3-2.3V81.7z"/>
						<path class="st5" d="M202.4,85.5c0-1.2-1-2.2-2.2-2.2l0,0c-1.2,0-2.2,1-2.2,2.2v19c0,1.2,1,2.2,2.2,2.2l0,0
							c1.2,0,2.2-1,2.2-2.2V85.5z"/>
					</g>
				</g>
			</g>
		</g>
	</g>
</g>
</svg>
