<?xml version="1.0" encoding="utf-8"?>
<!-- Generator: Adobe Illustrator 24.2.3, SVG Export Plug-In . SVG Version: 6.00 Build 0)  -->
<svg version="1.1" id="Capa_1" xmlns="http://www.w3.org/2000/svg" xmlns:xlink="http://www.w3.org/1999/xlink" x="0px" y="0px"
	 viewBox="0 0 850.1 227.5" style="enable-background:new 0 0 850.1 227.5;" xml:space="preserve">
<style type="text/css">
	.st0{fill:none;}
	.st1{display:none;}
	.st2{font-family:'OpenDyslexic-Regular';}
	.st3{font-size:200px;}
	.st4{font-family:'Helvetica';}
	.st5{fill:#FF2F1B;}
</style>
<rect x="-29.5" y="-18.7" class="st0" width="426" height="265"/>
<text transform="matrix(1 0 0 1 -29.4945 133.2563)" class="st1 st2 st3">bpq</text>
<rect x="467.8" y="-18.7" class="st0" width="426" height="265"/>
<text transform="matrix(1 0 0 1 467.8461 124.8549)" class="st1 st4 st3">bpq</text>
<g>
	<g>
		<g>
			<path d="M408.4,10h18l-1.8,57.2c7.4-13,18.8-17.2,34.8-17.2c26.6,0,45,23,45,57.4c0,34.4-18.4,57.4-45,57.4
				c-28.6,0-37.2-8.2-42.4-22.6C413,133.8,412.2,73,408.4,10z M463.6,62.8c-19,0-30.4,15-30.4,41.4c2.6,20.2,4.4,28.6,30.4,28.6
				c16-1.2,26.2-6.8,29.2-29.4C492,78,482.8,62.8,463.6,62.8z"/>
			<path d="M556.6,203.6h-23l8.8-67V54.2h18l-3,15c7.4-13,19-19.2,35-19.2c26.6,0,44.8,23,44.8,57.4c0,34.4-18.2,57.4-44.8,57.4
				c-16,0-27.6-6.2-35-19.2L556.6,203.6z M625.6,104.2c0-26.4-11.4-42.2-30.6-42.2c-19,0-30.4,15.8-30.4,42.2
				c0,26.6,12.4,31,31.4,31C615,135.2,625.6,130.8,625.6,104.2z"/>
			<path d="M761.4,203.4l-25.4,0.2l5.4-58c-7.4,13-19,19.2-35,19.2c-26.4,0-44.8-23-44.8-57.4C661.6,73,680,50,706.4,50
				c16,0,27.6,6.2,35,19.2l3-16.6h17.4l-6.2,115.8l22,21.2L761.4,203.4z M673.6,104.8c0,26.6,11,30,30,30s31.2-3.4,31.2-30
				c0-26.4-11.6-42.4-30.6-42.4C685,62.4,673.6,78.4,673.6,104.8z"/>
		</g>
	</g>
	<polygon class="st5" points="448.6,148.1 418.2,149.4 422.8,157.8 373.7,185.2 377.7,192.3 426.8,164.9 431.5,173.3 	"/>
	<polygon class="st5" points="766.5,192.8 787.3,215 790.6,206 843.4,225.4 846.3,217.7 793.4,198.3 796.7,189.3 	"/>
	<g>
		<path d="M4.8,157.9V14.3h17.6v52.2h0.4c7.6-11,18-16,30.2-16.2c27.8,0,43.6,22.8,43.6,52.2c0,25-10.4,58.4-46,58.4
			c-17.8,0-25.2-10.2-28.8-16h-0.4v13H4.8z M49.8,66.1c-25.4,0-28.2,27.4-28.2,44.4c0,27.8,17.4,35.2,28.6,35.2
			c19.2,0,28.2-17.4,28.2-40.4C78.4,91.9,77,66.1,49.8,66.1z"/>
		<path d="M116,53.3h16.6v14.8h0.4c4.2-6,12.2-17.8,31.2-17.8c27.8,0,43.6,22.8,43.6,52.2c0,25-10.4,58.4-46,58.4
			c-14,0-23.2-6.6-27.8-14h-0.4v52.4H116V53.3z M161.4,145.7c19.2,0,28.2-17.4,28.2-40.4c0-13.4-1.4-39.2-28.6-39.2
			c-25.4,0-28.2,27.4-28.2,44.4C132.8,138.3,150.2,145.7,161.4,145.7z"/>
		<path d="M314.4,199.3h-17.6v-52.4h-0.4c-4.6,7.4-13.8,14-27.8,14c-35.6,0-46-33.4-46-58.4c0-29.4,15.8-52.2,43.6-52.2
			c19,0,27,11.8,31.2,17.8h0.4V53.3h16.6V199.3z M269.4,66.1c-27.2,0-28.6,25.8-28.6,39.2c0,23,9,40.4,28.2,40.4
			c11.2,0,28.6-7.4,28.6-35.2C297.6,93.5,294.8,66.1,269.4,66.1z"/>
	</g>
</g>
</svg>
